<svg width="16" height="16" viewBox="0 0 16 16" fill="none" xmlns="http://www.w3.org/2000/svg"><path d="M14 12.2498C14.4141 12.2498 14.7498 12.5857 14.75 12.9998C14.75 13.414 14.4142 13.7498 14 13.7498H2C1.58579 13.7498 1.25 13.414 1.25 12.9998C1.25016 12.5857 1.58588 12.2498 2 12.2498H14ZM6.5 1.24976C7.64301 1.24976 8.19084 2.20805 8.50488 2.96167C8.67588 3.37213 8.82604 3.84145 8.97266 4.30444C9.12272 4.77834 9.273 5.25829 9.45215 5.73608C9.81217 6.69614 10.2618 7.56705 10.9463 8.19897C11.6083 8.81 12.5468 9.24976 14 9.24976C14.4141 9.24976 14.7498 9.58567 14.75 9.99976C14.75 10.414 14.4142 10.7498 14 10.7498C12.2033 10.7498 10.8917 10.1894 9.92871 9.30054C8.98862 8.4326 8.43775 7.30309 8.04785 6.26343C7.85216 5.74156 7.68968 5.22087 7.54297 4.75757C7.39283 4.28345 7.26148 3.8771 7.12012 3.53784C6.80928 2.79207 6.60684 2.74976 6.5 2.74976C6.4191 2.74976 6.36 2.77017 6.2793 2.8562C6.1767 2.96564 6.05933 3.16697 5.94141 3.49976C5.70118 4.17805 5.55848 5.09213 5.3623 6.13843C5.17686 7.12744 4.94229 8.234 4.49316 9.09644C4.02342 9.99821 3.24843 10.7498 2 10.7498C1.58579 10.7498 1.25 10.414 1.25 9.99976C1.25016 9.58567 1.58588 9.24976 2 9.24976C2.50145 9.24976 2.85157 9.00119 3.16309 8.40308C3.49493 7.7657 3.69822 6.87164 3.8877 5.86108C4.06642 4.9078 4.23649 3.82116 4.52734 2.99976C4.67497 2.58299 4.87811 2.15874 5.18555 1.83081C5.51491 1.47956 5.95602 1.24976 6.5 1.24976Z" fill="currentColor"/></svg>