<svg width="16" height="16" viewBox="0 0 16 16" fill="none" xmlns="http://www.w3.org/2000/svg"><path d="M7.68164 1.32153C7.91672 1.21119 8.19551 1.22922 8.41602 1.37622L11.416 3.37622C11.6246 3.51533 11.75 3.74952 11.75 4.00024V8.25024H13C13.4142 8.25024 13.75 8.58603 13.75 9.00024C13.7499 9.41436 13.4141 9.75024 13 9.75024H8.75V12.2502H10.3809C10.69 11.3768 11.5207 10.7502 12.5 10.7502C13.7426 10.7502 14.75 11.7576 14.75 13.0002C14.7499 14.2428 13.7426 15.2502 12.5 15.2502C11.5207 15.2502 10.69 14.6236 10.3809 13.7502H5.61914C5.30996 14.6236 4.47926 15.2502 3.5 15.2502C2.25743 15.2502 1.25011 14.2428 1.25 13.0002C1.25 11.7576 2.25736 10.7502 3.5 10.7502C4.47933 10.7502 5.31001 11.3768 5.61914 12.2502H7.25V9.75024H3C2.58585 9.75024 2.25011 9.41436 2.25 9.00024C2.25 8.58603 2.58579 8.25024 3 8.25024H4.25V4.00024C4.25 3.74952 4.37539 3.51533 4.58398 3.37622L7.58398 1.37622L7.68164 1.32153ZM3.5 12.2502C3.08579 12.2502 2.75 12.586 2.75 13.0002C2.75011 13.4144 3.08585 13.7502 3.5 13.7502C3.91415 13.7502 4.24989 13.4144 4.25 13.0002C4.25 12.586 3.91421 12.2502 3.5 12.2502ZM12.5 12.2502C12.0858 12.2502 11.75 12.586 11.75 13.0002C11.7501 13.4144 12.0859 13.7502 12.5 13.7502C12.9141 13.7502 13.2499 13.4144 13.25 13.0002C13.25 12.586 12.9142 12.2502 12.5 12.2502ZM5.75 4.40161V8.25024H10.25V4.40161L8 2.90161L5.75 4.40161Z" fill="currentColor"/></svg>