<svg width="16" height="16" viewBox="0 0 16 16" fill="none" xmlns="http://www.w3.org/2000/svg"><path d="M2.65332 4.33496C2.9013 4.20585 3.20061 4.2255 3.42969 4.38574L8.42969 7.88574C8.63018 8.02609 8.75 8.25526 8.75 8.5V14C8.75 14.2806 8.59308 14.5373 8.34375 14.666C8.09443 14.7947 7.79416 14.7738 7.56543 14.6113L2.56543 11.0596C2.36752 10.9189 2.25008 10.691 2.25 10.4482V5C2.25 4.72047 2.40546 4.46417 2.65332 4.33496ZM4.39355 2.55859C4.63723 2.2238 5.10649 2.14998 5.44141 2.39355L10.9414 6.39355C11.1353 6.5347 11.25 6.76014 11.25 7V12C11.25 12.4142 10.9142 12.75 10.5 12.75C10.0858 12.75 9.75 12.4142 9.75 12V7.38184L4.55859 3.60645C4.2238 3.36277 4.14998 2.89351 4.39355 2.55859ZM3.75 10.0605L7.25 12.5469V8.88965L3.75 6.43945V10.0605ZM6.89355 1.05859C7.13723 0.723802 7.60649 0.649982 7.94141 0.893555L13.4414 4.89355C13.6353 5.0347 13.75 5.26014 13.75 5.5V10.5C13.75 10.9142 13.4142 11.25 13 11.25C12.5858 11.25 12.25 10.9142 12.25 10.5V5.88184L7.05859 2.10645C6.7238 1.86277 6.64998 1.39351 6.89355 1.05859Z" fill="currentColor"/></svg>