<svg width="16" height="16" viewBox="0 0 16 16" fill="none" xmlns="http://www.w3.org/2000/svg"><g clip-path="url(#clip0_1_2488)"><rect width="16" height="16" fill="white"/><path d="M16 16H2.26498e-06L0 12H16V16Z" fill="#468AF3"/><path d="M0 0H16V3H0V0Z" fill="#D7D7D7"/><mask id="path-3-outside-1_1_2488" maskUnits="userSpaceOnUse" x="-2" y="2" width="20" height="16" fill="black"><rect fill="white" x="-2" y="2" width="20" height="16"/><path fill-rule="evenodd" clip-rule="evenodd" d="M3 4H0V6C1.65685 6 3 7.34315 3 9V16H5V9C5 7.34315 6.34315 6 8 6C9.65685 6 11 7.34315 11 9V16H13V9C13 7.34315 14.3431 6 16 6V4H13H11H5H3Z"/></mask><path fill-rule="evenodd" clip-rule="evenodd" d="M3 4H0V6C1.65685 6 3 7.34315 3 9V16H5V9C5 7.34315 6.34315 6 8 6C9.65685 6 11 7.34315 11 9V16H13V9C13 7.34315 14.3431 6 16 6V4H13H11H5H3Z" fill="#333333"/><path d="M0 4V2.5H-1.5V4H0ZM0 6H-1.5V7.5H0V6ZM3 16H1.5V17.5H3V16ZM5 16V17.5H6.5V16H5ZM11 16H9.5V17.5H11V16ZM13 16V17.5H14.5V16H13ZM16 6V7.5H17.5V6H16ZM16 4H17.5V2.5H16V4ZM0 4V5.5H3V4V2.5H0V4ZM0 6H1.5V4H0H-1.5V6H0ZM3 9H4.5C4.5 6.51472 2.48528 4.5 0 4.5V6V7.5C0.828427 7.5 1.5 8.17157 1.5 9H3ZM3 16H4.5V9H3H1.5V16H3ZM5 16V14.5H3V16V17.5H5V16ZM5 9H3.5V16H5H6.5V9H5ZM8 6V4.5C5.51472 4.5 3.5 6.51472 3.5 9H5H6.5C6.5 8.17157 7.17157 7.5 8 7.5V6ZM11 9H12.5C12.5 6.51472 10.4853 4.5 8 4.5V6V7.5C8.82843 7.5 9.5 8.17157 9.5 9H11ZM11 16H12.5V9H11H9.5V16H11ZM13 16V14.5H11V16V17.5H13V16ZM13 9H11.5V16H13H14.5V9H13ZM16 6V4.5C13.5147 4.5 11.5 6.51472 11.5 9H13H14.5C14.5 8.17157 15.1716 7.5 16 7.5V6ZM16 4H14.5V6H16H17.5V4H16ZM13 4V5.5H16V4V2.5H13V4ZM11 4V5.5H13V4V2.5H11V4ZM5 4V5.5H11V4V2.5H5V4ZM3 4V5.5H5V4V2.5H3V4Z" fill="white" mask="url(#path-3-outside-1_1_2488)"/></g><defs><clipPath id="clip0_1_2488"><rect width="16" height="16" fill="white"/></clipPath></defs></svg>