<svg width="16" height="16" viewBox="0 0 16 16" fill="none" xmlns="http://www.w3.org/2000/svg"><g clip-path="url(#clip0_1_2162)"><rect width="16" height="16" fill="white"/><path fill-rule="evenodd" clip-rule="evenodd" d="M16 0H0V16H16V0ZM13.1654 4.81893L13.8017 11.8189C13.9082 12.9902 12.986 14 11.8099 14H10.5616C9.64382 14 8.84385 13.3754 8.62127 12.4851L8.52382 12.0953C8.24126 10.965 7.05631 10.3146 5.95108 10.683L4.63246 11.1225C3.33739 11.5542 2 10.5903 2 9.22515V4.36092C2 3.12504 3.10973 2.18496 4.3288 2.38813L8 3H11.1736C12.208 3 13.0717 3.78877 13.1654 4.81893Z" fill="#333333"/><mask id="mask0_1_2162" style="mask-type:alpha" maskUnits="userSpaceOnUse" x="3" y="2" width="10" height="11"><path d="M12.4675 11.3896L11.8397 5.73947C11.7453 4.88942 11.1208 4.1935 10.2858 4.00796L5.93386 3.04086C4.68483 2.7633 3.5 3.71373 3.5 4.99323V8.91802C3.5 9.5774 4.12698 10.0563 4.76312 9.88279L5.86182 9.58314C7.35669 9.17545 8.9161 9.97325 9.46016 11.4241L9.62031 11.8511C9.76667 12.2414 10.1398 12.5 10.5566 12.5H11.4736C12.0697 12.5 12.5333 11.9819 12.4675 11.3896Z" fill="black"/></mask><g mask="url(#mask0_1_2162)"><path d="M13.5 13.4091H2.59088V7.04546H13.5V13.4091Z" fill="#468AF3"/></g></g><defs><clipPath id="clip0_1_2162"><rect width="16" height="16" fill="white"/></clipPath></defs></svg>