<svg width="16" height="16" viewBox="0 0 16 16" fill="none" xmlns="http://www.w3.org/2000/svg">
<path d="M3.5 2.75C3.91421 2.75 4.25 3.08579 4.25 3.5V12.5C4.25 12.9142 3.91421 13.25 3.5 13.25C3.08579 13.25 2.75 12.9142 2.75 12.5V3.5C2.75 3.08579 3.08579 2.75 3.5 2.75ZM6.5 6.75C6.91421 6.75 7.25 7.08579 7.25 7.5V12.5C7.25 12.9142 6.91421 13.25 6.5 13.25C6.08579 13.25 5.75 12.9142 5.75 12.5V7.5C5.75 7.08579 6.08579 6.75 6.5 6.75ZM9.5 4.75C9.91421 4.75 10.25 5.08579 10.25 5.5V12.5C10.25 12.9142 9.91421 13.25 9.5 13.25C9.08579 13.25 8.75 12.9142 8.75 12.5V5.5C8.75 5.08579 9.08579 4.75 9.5 4.75ZM12.5 7.75C12.9142 7.75 13.25 8.08579 13.25 8.5V12.5C13.25 12.9142 12.9142 13.25 12.5 13.25C12.0858 13.25 11.75 12.9142 11.75 12.5V8.5C11.75 8.08579 12.0858 7.75 12.5 7.75Z" fill="black"/>
</svg>
