<svg width="16" height="16" viewBox="0 0 16 16" fill="none" xmlns="http://www.w3.org/2000/svg">
<path d="M13.4316 5.34998e-06C13.684 -2.45716e-05 13.9305 -0.000400319 14.1387 0.0166069C14.3672 0.0353028 14.6369 0.0795634 14.9082 0.217779C15.2845 0.409512 15.5905 0.71555 15.7822 1.0918C15.9204 1.36306 15.9647 1.63283 15.9834 1.86133C16.0004 2.0695 16 2.31598 16 2.56836V13.4316C16 13.684 16.0004 13.9305 15.9834 14.1387C15.9647 14.3672 15.9204 14.6369 15.7822 14.9082C15.5905 15.2845 15.2845 15.5905 14.9082 15.7822C14.6369 15.9204 14.3672 15.9647 14.1387 15.9834C13.9305 16.0004 13.684 16 13.4316 16H2.56836C2.31598 16 2.0695 16.0004 1.86133 15.9834C1.63283 15.9647 1.36306 15.9204 1.0918 15.7822C0.71555 15.5905 0.409512 15.2845 0.217779 14.9082C0.0795632 14.6369 0.0353027 14.3672 0.0166069 14.1387C-0.000400379 13.9305 -2.45716e-05 13.684 5.34998e-06 13.4316V2.56836C-2.45716e-05 2.31598 -0.000400319 2.06949 0.0166069 1.86133C0.0353032 1.63283 0.0795654 1.36306 0.217779 1.0918C0.409513 0.715551 0.715551 0.409513 1.0918 0.217779C1.36306 0.0795653 1.63283 0.0353031 1.86133 0.0166069C2.06949 -0.000400379 2.31598 -2.45716e-05 2.56836 5.34998e-06H13.4316ZM5.00001 6.25001C4.58579 6.25001 4.25001 6.58579 4.25001 7.00001V11C4.25001 11.4142 4.58579 11.75 5.00001 11.75C5.41422 11.75 5.75001 11.4142 5.75001 11V7.00001C5.75001 6.58579 5.41422 6.25001 5.00001 6.25001ZM8.00001 4.25001C7.58579 4.25001 7.25001 4.58579 7.25001 5.00001V11C7.25001 11.4142 7.58579 11.75 8.00001 11.75C8.41422 11.75 8.75001 11.4142 8.75001 11V5.00001C8.75001 4.58579 8.41422 4.25001 8.00001 4.25001ZM11 7.25001C10.5858 7.25001 10.25 7.58579 10.25 8.00001V11C10.25 11.4142 10.5858 11.75 11 11.75C11.4142 11.75 11.75 11.4142 11.75 11V8.00001C11.75 7.58579 11.4142 7.25001 11 7.25001Z" fill="black"/>
</svg>
