<svg width="16" height="16" viewBox="0 0 16 16" fill="none" xmlns="http://www.w3.org/2000/svg"><g clip-path="url(#clip0_1_9074)"><mask id="path-1-outside-1_1_9074" maskUnits="userSpaceOnUse" x="0.75" y="0.75" width="15" height="15" fill="black"><rect fill="white" x="0.75" y="0.75" width="15" height="15"/><path d="M13.5 1.75C13.9142 1.75 14.25 2.08579 14.25 2.5V5.5C14.25 5.91421 13.9142 6.25 13.5 6.25H10.8105L6.25 10.8105V13.5C6.25 13.9142 5.91421 14.25 5.5 14.25H2.5C2.08579 14.25 1.75 13.9142 1.75 13.5V10.5C1.75 10.0858 2.08579 9.75 2.5 9.75H5.18945L9.75 5.18945V2.5C9.75 2.08579 10.0858 1.75 10.5 1.75H13.5ZM3.25 12.75H4.75V11.25H3.25V12.75ZM11.25 4.75H12.75V3.25H11.25V4.75Z"/></mask><path d="M13.5 1.75C13.9142 1.75 14.25 2.08579 14.25 2.5V5.5C14.25 5.91421 13.9142 6.25 13.5 6.25H10.8105L6.25 10.8105V13.5C6.25 13.9142 5.91421 14.25 5.5 14.25H2.5C2.08579 14.25 1.75 13.9142 1.75 13.5V10.5C1.75 10.0858 2.08579 9.75 2.5 9.75H5.18945L9.75 5.18945V2.5C9.75 2.08579 10.0858 1.75 10.5 1.75H13.5ZM3.25 12.75H4.75V11.25H3.25V12.75ZM11.25 4.75H12.75V3.25H11.25V4.75Z" fill="#E6E6E6"/><path d="M10.8105 6.25V5.25H10.3963L10.1034 5.54289L10.8105 6.25ZM6.25 10.8105L5.54289 10.1034L5.25 10.3963V10.8105H6.25ZM5.18945 9.75V10.75H5.60367L5.89656 10.4571L5.18945 9.75ZM9.75 5.18945L10.4571 5.89656L10.75 5.60367V5.18945H9.75ZM3.25 12.75H2.25V13.75H3.25V12.75ZM4.75 12.75V13.75H5.75V12.75H4.75ZM4.75 11.25H5.75V10.25H4.75V11.25ZM3.25 11.25V10.25H2.25V11.25H3.25ZM11.25 4.75H10.25V5.75H11.25V4.75ZM12.75 4.75V5.75H13.75V4.75H12.75ZM12.75 3.25H13.75V2.25H12.75V3.25ZM11.25 3.25V2.25H10.25V3.25H11.25ZM13.5 1.75V2.75C13.3619 2.75 13.25 2.63807 13.25 2.5H14.25H15.25C15.25 1.5335 14.4665 0.75 13.5 0.75V1.75ZM14.25 2.5H13.25V5.5H14.25H15.25V2.5H14.25ZM14.25 5.5H13.25C13.25 5.36193 13.3619 5.25 13.5 5.25V6.25V7.25C14.4665 7.25 15.25 6.4665 15.25 5.5H14.25ZM13.5 6.25V5.25H10.8105V6.25V7.25H13.5V6.25ZM10.8105 6.25L10.1034 5.54289L5.54289 10.1034L6.25 10.8105L6.95711 11.5177L11.5177 6.95711L10.8105 6.25ZM6.25 10.8105H5.25V13.5H6.25H7.25V10.8105H6.25ZM6.25 13.5H5.25C5.25 13.3619 5.36193 13.25 5.5 13.25V14.25V15.25C6.4665 15.25 7.25 14.4665 7.25 13.5H6.25ZM5.5 14.25V13.25H2.5V14.25V15.25H5.5V14.25ZM2.5 14.25V13.25C2.63807 13.25 2.75 13.3619 2.75 13.5H1.75H0.75C0.75 14.4665 1.5335 15.25 2.5 15.25V14.25ZM1.75 13.5H2.75V10.5H1.75H0.75V13.5H1.75ZM1.75 10.5H2.75C2.75 10.6381 2.63807 10.75 2.5 10.75V9.75V8.75C1.5335 8.75 0.75 9.5335 0.75 10.5H1.75ZM2.5 9.75V10.75H5.18945V9.75V8.75H2.5V9.75ZM5.18945 9.75L5.89656 10.4571L10.4571 5.89656L9.75 5.18945L9.04289 4.48235L4.48235 9.04289L5.18945 9.75ZM9.75 5.18945H10.75V2.5H9.75H8.75V5.18945H9.75ZM9.75 2.5H10.75C10.75 2.63807 10.6381 2.75 10.5 2.75V1.75V0.75C9.5335 0.75 8.75 1.5335 8.75 2.5H9.75ZM10.5 1.75V2.75H13.5V1.75V0.75H10.5V1.75ZM3.25 12.75V13.75H4.75V12.75V11.75H3.25V12.75ZM4.75 12.75H5.75V11.25H4.75H3.75V12.75H4.75ZM4.75 11.25V10.25H3.25V11.25V12.25H4.75V11.25ZM3.25 11.25H2.25V12.75H3.25H4.25V11.25H3.25ZM11.25 4.75V5.75H12.75V4.75V3.75H11.25V4.75ZM12.75 4.75H13.75V3.25H12.75H11.75V4.75H12.75ZM12.75 3.25V2.25H11.25V3.25V4.25H12.75V3.25ZM11.25 3.25H10.25V4.75H11.25H12.25V3.25H11.25Z" fill="#E6E6E6" mask="url(#path-1-outside-1_1_9074)"/><path d="M13.5 1.75C13.9142 1.75 14.25 2.08579 14.25 2.5V5.5C14.25 5.91421 13.9142 6.25 13.5 6.25H10.8105L6.25 10.8105V13.5C6.25 13.9142 5.91421 14.25 5.5 14.25H2.5C2.08579 14.25 1.75 13.9142 1.75 13.5V10.5C1.75 10.0858 2.08579 9.75 2.5 9.75H5.18945L9.75 5.18945V2.5C9.75 2.08579 10.0858 1.75 10.5 1.75H13.5ZM3.25 12.75H4.75V11.25H3.25V12.75ZM11.25 4.75H12.75V3.25H11.25V4.75Z" fill="#3B6DE6"/><path d="M2.5 10.5H5.5V13.5H2.5V10.5Z" fill="#FDFDFD"/><path d="M10.5 2.5H13.5V5.5H10.5V2.5Z" fill="#FDFDFD"/><path d="M2.5 10.5H5.5V13.5H2.5V10.5Z" stroke="#333333" stroke-width="1.5" stroke-linecap="round" stroke-linejoin="round"/><path d="M10.5 2.5H13.5V5.5H10.5V2.5Z" stroke="#333333" stroke-width="1.5" stroke-linecap="round" stroke-linejoin="round"/></g><defs><clipPath id="clip0_1_9074"><rect width="16" height="16" fill="white"/></clipPath></defs></svg>