<svg width="16" height="16" viewBox="0 0 16 16" fill="none" xmlns="http://www.w3.org/2000/svg"><path d="M8.00012 0.75C8.69028 0.75011 9.25012 1.30961 9.25012 2V5.83398L12.5714 3.91797C13.169 3.57317 13.9331 3.77715 14.2784 4.375L14.337 4.48926C14.5792 5.0285 14.4081 5.66684 13.9288 6.0127L13.8214 6.08203L10.4982 8L13.8214 9.91797L13.9288 9.9873C14.4424 10.3579 14.6019 11.0646 14.2784 11.625C13.9331 12.2229 13.169 12.4268 12.5714 12.082L9.25012 10.1641V14C9.25012 14.6472 8.75818 15.179 8.12805 15.2432L8.00012 15.25C7.30978 15.25 6.75012 14.6903 6.75012 14V10.1641L3.42883 12.082C2.86841 12.4056 2.16177 12.2462 1.79114 11.7324L1.7218 11.625C1.37669 11.0273 1.58111 10.2632 2.17883 9.91797L5.50012 8L2.17883 6.08203C1.58112 5.73676 1.37669 4.97275 1.7218 4.375L1.79114 4.26758C2.16177 3.75378 2.86841 3.59441 3.42883 3.91797L6.75012 5.83398V2C6.75012 1.30966 7.30978 0.750019 8.00012 0.75Z" stroke="#E6E6E6"/><path d="M8 14L8 2" stroke="#1F3AB5" stroke-width="1.5" stroke-linecap="round" stroke-linejoin="round"/><path d="M13.1961 5L2.80383 11" stroke="#3B6DE6" stroke-width="1.5" stroke-linecap="round" stroke-linejoin="round"/><path d="M13.1961 11L2.80383 5" stroke="#4FA8FB" stroke-width="1.5" stroke-linecap="round" stroke-linejoin="round"/></svg>