<svg width="16" height="16" viewBox="0 0 16 16" fill="none" xmlns="http://www.w3.org/2000/svg"><path d="M5.04785 0.728516C5.33025 0.573857 5.66975 0.573857 5.95215 0.728516L6.08789 0.818359L6.48047 1.14453C6.93351 1.53794 7.54464 2.1279 8.09766 2.85938C8.83071 3.82906 9.49992 5.0987 9.5 6.52246C9.5 8.78864 7.7003 10.5 5.5 10.5C3.2997 10.5 1.5 8.78864 1.5 6.52246C1.50008 5.0987 2.16929 3.82906 2.90234 2.85938C3.63968 1.8841 4.48088 1.16028 4.91211 0.818359L5.04785 0.728516Z" stroke="#E6E6E6"/><path d="M9 6.52273C9 8.504 7.433 10 5.5 10C3.567 10 2 8.504 2 6.52273C2 3.98487 4.39465 1.86685 5.22245 1.21049C5.38737 1.07973 5.61263 1.07973 5.77755 1.21049C6.60535 1.86685 9 3.98487 9 6.52273Z" fill="#0A7DFF"/><path d="M5.22266 1.2106C5.35077 1.10905 5.51483 1.08697 5.65918 1.14321C5.59758 1.17217 5.54117 1.21566 5.49609 1.2731C4.93069 1.99372 3.5 4.06112 3.5 6.5231C3.50013 8.45684 4.44813 9.92655 5.63477 9.99575C5.59003 9.99737 5.54515 9.99966 5.5 9.99966C3.56713 9.99966 2.00021 8.50417 2 6.5231C2 3.98524 4.39485 1.86696 5.22266 1.2106Z" fill="white" fill-opacity="0.3"/><mask id="path-4-outside-1_1286_3041" maskUnits="userSpaceOnUse" x="8" y="8.5" width="8" height="8" fill="black"><rect fill="white" x="8" y="8.5" width="8" height="8"/><path fill-rule="evenodd" clip-rule="evenodd" d="M11.75 9.5C12.1642 9.5 12.501 9.83579 12.501 10.25V11.5H13.751C14.165 11.5003 14.501 11.8359 14.501 12.25C14.501 12.6642 14.1642 13 13.75 13H12.501V14.25C12.501 14.6641 12.165 14.9997 11.751 15C11.3368 15 11.001 14.6642 11.001 14.25V13H9.75C9.33602 12.9997 9.00002 12.664 9 12.25C9 11.8358 9.33676 11.5 9.75098 11.5H11.001V10.25C11.001 9.83595 11.336 9.50026 11.75 9.5Z"/></mask><path fill-rule="evenodd" clip-rule="evenodd" d="M11.75 9.5C12.1642 9.5 12.501 9.83579 12.501 10.25V11.5H13.751C14.165 11.5003 14.501 11.8359 14.501 12.25C14.501 12.6642 14.1642 13 13.75 13H12.501V14.25C12.501 14.6641 12.165 14.9997 11.751 15C11.3368 15 11.001 14.6642 11.001 14.25V13H9.75C9.33602 12.9997 9.00002 12.664 9 12.25C9 11.8358 9.33676 11.5 9.75098 11.5H11.001V10.25C11.001 9.83595 11.336 9.50026 11.75 9.5Z" fill="#333333"/><path d="M11.75 9.5V8.5L11.7494 8.5L11.75 9.5ZM12.501 10.25H13.501H12.501ZM12.501 11.5H11.501V12.5H12.501V11.5ZM13.751 11.5L13.7516 10.5H13.751V11.5ZM14.501 12.25L15.501 12.25V12.25H14.501ZM13.75 13V12V12V13ZM12.501 13V12H11.501V13H12.501ZM12.501 14.25H11.501H12.501ZM11.751 15V16H11.7516L11.751 15ZM11.001 14.25H10.001H11.001ZM11.001 13H12.001V12H11.001V13ZM9.75 13L9.74936 14H9.75V13ZM9 12.25H8V12.25L9 12.25ZM9.75098 11.5L9.75098 12.5H9.75098V11.5ZM11.001 11.5V12.5H12.001V11.5H11.001ZM11.001 10.25H12.001H11.001ZM11.75 9.5V10.5C11.6136 10.5 11.501 10.3898 11.501 10.25H12.501H13.501C13.501 9.28181 12.7148 8.5 11.75 8.5V9.5ZM12.501 10.25H11.501V11.5H12.501H13.501V10.25H12.501ZM12.501 11.5V12.5H13.751V11.5V10.5H12.501V11.5ZM13.751 11.5L13.7503 12.5C13.6132 12.4999 13.501 12.3889 13.501 12.25H14.501H15.501C15.501 11.283 14.7168 10.5006 13.7516 10.5L13.751 11.5ZM14.501 12.25L13.501 12.25C13.501 12.1103 13.6136 12 13.75 12V13V14C14.7148 14 15.5009 13.2181 15.501 12.25L14.501 12.25ZM13.75 13V12H12.501V13V14H13.75V13ZM12.501 13H11.501V14.25H12.501H13.501V13H12.501ZM12.501 14.25H11.501C11.501 14.1111 11.6132 14.0001 11.7503 14L11.751 15L11.7516 16C12.7168 15.9994 13.501 15.217 13.501 14.25H12.501ZM11.751 15V14C11.889 14 12.001 14.1119 12.001 14.25H11.001H10.001C10.001 15.2165 10.7845 16 11.751 16V15ZM11.001 14.25H12.001V13H11.001H10.001V14.25H11.001ZM11.001 13V12H9.75V13V14H11.001V13ZM9.75 13L9.75064 12C9.88786 12.0001 9.99999 12.1112 10 12.25L9 12.25L8 12.25C8.00005 13.2169 8.78419 13.9994 9.74936 14L9.75 13ZM9 12.25H10C10 12.3898 9.88735 12.5 9.75098 12.5L9.75098 11.5L9.75098 10.5C8.78617 10.5 8 11.2818 8 12.25H9ZM9.75098 11.5V12.5H11.001V11.5V10.5H9.75098V11.5ZM11.001 11.5H12.001V10.25H11.001H10.001V11.5H11.001ZM11.001 10.25H12.001C12.001 10.3872 11.8895 10.4999 11.7506 10.5L11.75 9.5L11.7494 8.5C10.7825 8.50062 10.001 9.28473 10.001 10.25H11.001Z" fill="#E6E6E6" mask="url(#path-4-outside-1_1286_3041)"/></svg>