<svg width="16" height="16" viewBox="0 0 16 16" fill="none" xmlns="http://www.w3.org/2000/svg"><path d="M5.04785 0.728516C5.33025 0.573857 5.66975 0.573857 5.95215 0.728516L6.08789 0.818359L6.48047 1.14453C6.93351 1.53794 7.54464 2.1279 8.09766 2.85938C8.83071 3.82906 9.49992 5.0987 9.5 6.52246C9.5 8.78864 7.7003 10.5 5.5 10.5C3.2997 10.5 1.5 8.78864 1.5 6.52246C1.50008 5.0987 2.16929 3.82906 2.90234 2.85938C3.63968 1.8841 4.48088 1.16028 4.91211 0.818359L5.04785 0.728516Z" stroke="#E6E6E6"/><path d="M9 6.52273C9 8.504 7.433 10 5.5 10C3.567 10 2 8.504 2 6.52273C2 3.98487 4.39465 1.86685 5.22245 1.21049C5.38737 1.07973 5.61263 1.07973 5.77755 1.21049C6.60535 1.86685 9 3.98487 9 6.52273Z" fill="#0A7DFF"/><path d="M5.22266 1.2106C5.35077 1.10905 5.51483 1.08697 5.65918 1.14321C5.59758 1.17217 5.54117 1.21566 5.49609 1.2731C4.93069 1.99372 3.5 4.06112 3.5 6.5231C3.50013 8.45684 4.44813 9.92655 5.63477 9.99575C5.59003 9.99737 5.54515 9.99966 5.5 9.99966C3.56713 9.99966 2.00021 8.50417 2 6.5231C2 3.98524 4.39485 1.86696 5.22266 1.2106Z" fill="white" fill-opacity="0.3"/><mask id="path-4-outside-1_1286_3040" maskUnits="userSpaceOnUse" x="7.5" y="6.5" width="8" height="9" fill="black"><rect fill="white" x="7.5" y="6.5" width="8" height="9"/><path fill-rule="evenodd" clip-rule="evenodd" d="M11.5001 14.5C11.0859 14.4999 10.7501 14.1642 10.7501 13.75L10.7501 10.8105L9.78033 11.7803C9.48745 12.0731 9.01267 12.0731 8.71979 11.7803C8.427 11.4874 8.42696 11.0126 8.71979 10.7197L10.9698 8.46973C11.1104 8.3291 11.3012 8.25003 11.5001 8.25C11.6989 8.25 11.8897 8.32913 12.0303 8.46973L14.2803 10.7197C14.5732 11.0126 14.5732 11.4874 14.2803 11.7803C13.9874 12.0731 13.5127 12.0732 13.2198 11.7803L12.2501 10.8105L12.2501 13.75C12.2501 14.1642 11.9143 14.5 11.5001 14.5Z"/></mask><path fill-rule="evenodd" clip-rule="evenodd" d="M11.5001 14.5C11.0859 14.4999 10.7501 14.1642 10.7501 13.75L10.7501 10.8105L9.78033 11.7803C9.48745 12.0731 9.01267 12.0731 8.71979 11.7803C8.427 11.4874 8.42696 11.0126 8.71979 10.7197L10.9698 8.46973C11.1104 8.3291 11.3012 8.25003 11.5001 8.25C11.6989 8.25 11.8897 8.32913 12.0303 8.46973L14.2803 10.7197C14.5732 11.0126 14.5732 11.4874 14.2803 11.7803C13.9874 12.0731 13.5127 12.0732 13.2198 11.7803L12.2501 10.8105L12.2501 13.75C12.2501 14.1642 11.9143 14.5 11.5001 14.5Z" fill="#333333"/><path d="M11.5001 14.5L11.4999 15.5L11.5001 15.5L11.5001 14.5ZM10.7501 10.8105L11.7501 10.8105L11.7501 8.39633L10.043 10.1034L10.7501 10.8105ZM9.78033 11.7803L10.4874 12.4874L10.4874 12.4874L9.78033 11.7803ZM8.71979 11.7803L8.01256 12.4873L8.01272 12.4874L8.71979 11.7803ZM8.71979 10.7197L8.01268 10.0126L8.01264 10.0127L8.71979 10.7197ZM10.9698 8.46973L10.2627 7.76262L10.2627 7.76262L10.9698 8.46973ZM11.5001 8.25L11.5001 7.25L11.4999 7.25L11.5001 8.25ZM12.0303 8.46973L12.7374 7.76262L12.7373 7.76251L12.0303 8.46973ZM14.2803 10.7197L14.9875 10.0126L14.9874 10.0126L14.2803 10.7197ZM14.2803 11.7803L14.9874 12.4874L14.9874 12.4874L14.2803 11.7803ZM13.2198 11.7803L13.9269 11.0732L13.9269 11.0732L13.2198 11.7803ZM12.2501 10.8105L12.9572 10.1034L11.2501 8.39633L11.2501 10.8105L12.2501 10.8105ZM11.5001 14.5L11.5002 13.5C11.6381 13.5 11.7501 13.6117 11.7501 13.75L10.7501 13.75L9.75006 13.75C9.75006 14.7166 10.5337 15.4998 11.4999 15.5L11.5001 14.5ZM10.7501 13.75L11.7501 13.75L11.7501 10.8105L10.7501 10.8105L9.75006 10.8105L9.75006 13.75L10.7501 13.75ZM10.7501 10.8105L10.043 10.1034L9.07323 11.0732L9.78033 11.7803L10.4874 12.4874L11.4572 11.5177L10.7501 10.8105ZM9.78033 11.7803L9.07327 11.0731C9.1709 10.9755 9.32922 10.9755 9.42685 11.0731L8.71979 11.7803L8.01272 12.4874C8.69612 13.1707 9.804 13.1707 10.4874 12.4874L9.78033 11.7803ZM8.71979 11.7803L9.42701 11.0733C9.52451 11.1708 9.52465 11.3291 9.42693 11.4268L8.71979 10.7197L8.01264 10.0127C7.32926 10.6961 7.32949 11.804 8.01256 12.4873L8.71979 11.7803ZM8.71979 10.7197L9.42689 11.4268L11.6769 9.17683L10.9698 8.46973L10.2627 7.76262L8.01268 10.0126L8.71979 10.7197ZM10.9698 8.46973L11.6769 9.17683C11.6301 9.22364 11.5666 9.24999 11.5002 9.25L11.5001 8.25L11.4999 7.25C11.0358 7.25008 10.5907 7.43457 10.2627 7.76262L10.9698 8.46973ZM11.5001 8.25L11.5001 9.25C11.4333 9.25 11.3699 9.2235 11.3233 9.17695L12.0303 8.46973L12.7373 7.76251C12.4095 7.43475 11.9645 7.25 11.5001 7.25L11.5001 8.25ZM12.0303 8.46973L11.3232 9.17683L13.5732 11.4268L14.2803 10.7197L14.9874 10.0126L12.7374 7.76262L12.0303 8.46973ZM14.2803 10.7197L13.5732 11.4268C13.4756 11.3292 13.4756 11.1708 13.5732 11.0732L14.2803 11.7803L14.9874 12.4874C15.6709 11.804 15.6708 10.696 14.9875 10.0126L14.2803 10.7197ZM14.2803 11.7803L13.5733 11.0731C13.6708 10.9756 13.8292 10.9755 13.9269 11.0732L13.2198 11.7803L12.5127 12.4874C13.1961 13.1709 14.304 13.1707 14.9874 12.4874L14.2803 11.7803ZM13.2198 11.7803L13.9269 11.0732L12.9572 10.1034L12.2501 10.8105L11.543 11.5177L12.5127 12.4874L13.2198 11.7803ZM12.2501 10.8105L11.2501 10.8105L11.2501 13.75L12.2501 13.75L13.2501 13.75L13.2501 10.8105L12.2501 10.8105ZM12.2501 13.75L11.2501 13.75C11.2501 13.6119 11.362 13.5 11.5001 13.5L11.5001 14.5L11.5001 15.5C12.4666 15.5 13.2501 14.7165 13.2501 13.75L12.2501 13.75Z" fill="#E6E6E6" mask="url(#path-4-outside-1_1286_3040)"/></svg>