<svg width="16" height="16" viewBox="0 0 16 16" fill="none" xmlns="http://www.w3.org/2000/svg"><path d="M8 10.2499C8.97922 10.2499 9.80993 10.8766 10.1191 11.7499H14C14.4141 11.7499 14.7498 12.0858 14.75 12.4999C14.7499 12.914 14.4141 13.2499 14 13.2499H10.1191C9.81004 14.1234 8.97937 14.7499 8 14.7499C7.02074 14.7499 6.19102 14.1232 5.88184 13.2499H2C1.58586 13.2499 1.25012 12.914 1.25 12.4999C1.25018 12.0858 1.5859 11.7499 2 11.7499H5.88184C6.19114 10.8768 7.0209 10.2499 8 10.2499ZM8 11.7499C7.5859 11.7499 7.25018 12.0858 7.25 12.4999C7.25012 12.914 7.58586 13.2499 8 13.2499C8.41414 13.2499 8.74988 12.914 8.75 12.4999C8.74982 12.0858 8.4141 11.7499 8 11.7499ZM5.21973 1.7196C6.75522 0.184296 9.24478 0.184298 10.7803 1.7196C12.3156 3.25509 12.3156 5.74464 10.7803 7.28015L8.76758 9.29382C8.34391 9.71737 7.65609 9.71737 7.23242 9.29382L5.21973 7.28015C3.6844 5.74464 3.68436 3.25509 5.21973 1.7196ZM9.71973 2.78015C8.77002 1.83063 7.22998 1.83063 6.28027 2.78015C5.33069 3.72985 5.33073 5.26988 6.28027 6.2196L8 7.93933L9.71973 6.2196C10.6693 5.26988 10.6693 3.72985 9.71973 2.78015Z" fill="currentColor"/></svg>