<svg width="16" height="16" viewBox="0 0 16 16" fill="none" xmlns="http://www.w3.org/2000/svg"><path d="M9.11612 3.88388C9.60427 3.39573 10.3957 3.39573 10.8839 3.88388L14.1308 7.13083C14.619 7.61898 14.619 8.41044 14.1308 8.89859L10.8839 12.1455C10.3957 12.6337 9.60427 12.6337 9.11612 12.1455L5.86917 8.89859C5.38102 8.41044 5.38102 7.61898 5.86917 7.13083L9.11612 3.88388Z" fill="#B1B1B1" stroke="white" stroke-width="1.5"/><path d="M5.82334 3.19106C5.92087 3.09353 6.07896 3.09342 6.17663 3.1908L10.8226 7.82315C10.9204 7.92063 10.9206 8.07892 10.8231 8.1767L6.17664 12.8369C6.07905 12.9347 5.92055 12.9349 5.82282 12.8371L1.17682 8.19113C1.07919 8.0935 1.07919 7.93521 1.17682 7.83758L5.82334 3.19106Z" fill="white" stroke="white" stroke-width="1.5"/><path d="M5.64757 4.36537C5.84263 4.17031 6.15881 4.17008 6.35416 4.36485L9.64005 7.64109C9.8356 7.83607 9.83607 8.15265 9.64109 8.3482L6.35355 11.6454C6.15837 11.8412 5.84139 11.8414 5.64593 11.6459L2.36002 8.36002C2.16476 8.16476 2.16476 7.84818 2.36002 7.65292L5.64757 4.36537Z" fill="#333333"/></svg>