<svg width="16" height="16" viewBox="0 0 16 16" fill="none" xmlns="http://www.w3.org/2000/svg"><path d="M12.252 1.50195C13.4946 1.50195 14.502 2.50931 14.502 3.75195V12.252C14.502 13.4946 13.4946 14.502 12.252 14.502H3.75195C2.50931 14.502 1.50195 13.4946 1.50195 12.252V3.75195C1.50195 2.50931 2.50931 1.50195 3.75195 1.50195H12.252Z" fill="#8BDBFE" stroke="#E6E6E6"/><path d="M2.75 9.34961C3.16403 9.34964 3.49975 9.68563 3.5 10.0996V12.25C3.5 12.3881 3.61193 12.5 3.75 12.5H5.90039C6.31438 12.5002 6.65032 12.836 6.65039 13.25C6.65039 13.6641 6.31442 13.9998 5.90039 14H3.75C2.7835 14 2 13.2165 2 12.25V10.0996C2.00025 9.68561 2.33594 9.34961 2.75 9.34961ZM13.25 9.34961C13.6641 9.34961 13.9998 9.68561 14 10.0996V12.25C14 13.2165 13.2165 14 12.25 14H10.0996C9.68558 13.9998 9.34961 13.6641 9.34961 13.25C9.34968 12.836 9.68562 12.5002 10.0996 12.5H12.25C12.3881 12.5 12.5 12.3881 12.5 12.25V10.0996C12.5002 9.68563 12.836 9.34964 13.25 9.34961ZM5.90039 2C6.31442 2.00022 6.65039 2.33592 6.65039 2.75C6.65032 3.16402 6.31438 3.49978 5.90039 3.5H3.75C3.61193 3.5 3.5 3.61193 3.5 3.75V5.90039C3.49975 6.31437 3.16403 6.65036 2.75 6.65039C2.33594 6.65039 2.00025 6.31439 2 5.90039V3.75C2 2.7835 2.7835 2 3.75 2H5.90039ZM12.25 2C13.2165 2 14 2.7835 14 3.75V5.90039C13.9998 6.31439 13.6641 6.65039 13.25 6.65039C12.836 6.65036 12.5002 6.31437 12.5 5.90039V3.75C12.5 3.61193 12.3881 3.5 12.25 3.5H10.0996C9.68562 3.49978 9.34968 3.16402 9.34961 2.75C9.34961 2.33592 9.68558 2.00022 10.0996 2H12.25Z" fill="#001E55"/></svg>