<svg width="16" height="16" viewBox="0 0 16 16" fill="none" xmlns="http://www.w3.org/2000/svg"><path d="M6.24316 2.0625L9.96094 4.12793L11.5059 2.98438C12.3308 2.3733 13.5 2.96263 13.5 3.98926V10.9004C13.4999 11.2963 13.3122 11.6686 12.9941 11.9043L10.2979 13.9014L10.0391 14.0938L9.75684 13.9375L6.03809 11.8711L4.49414 13.0156C3.66918 13.6267 2.5 13.0374 2.5 12.0107V5.09961L2.50879 4.95312C2.54899 4.61318 2.72738 4.30204 3.00586 4.0957L5.70215 2.09863L5.96094 1.90625L6.24316 2.0625Z" fill="#D97824" stroke="#E6E6E6"/><path d="M4.91427 12.082L6 11.2778V2.5L3.48573 4.36242C3.30768 4.49431 3.21866 4.56025 3.15443 4.64417C3.09754 4.7185 3.05507 4.80282 3.0292 4.89277C3 4.99433 3 5.10512 3 5.32669V11.1178C3 11.8853 3 12.269 3.15866 12.4724C3.29674 12.6494 3.50686 12.7553 3.73129 12.7609C3.98915 12.7673 4.29752 12.5389 4.91427 12.082Z" fill="#F8A62C"/><path d="M11.0857 3.91798L10 4.72222L10 13.5L12.5143 11.6376C12.6923 11.5057 12.7813 11.4397 12.8456 11.3558C12.9025 11.2815 12.9449 11.1972 12.9708 11.1072C13 11.0057 13 10.8949 13 10.6733L13 4.88225C13 4.11472 13 3.73096 12.8413 3.52759C12.7033 3.35058 12.4931 3.24474 12.2687 3.23914C12.0109 3.2327 11.7025 3.46113 11.0857 3.91798Z" fill="#F8A62C"/></svg>