<svg width="16" height="16" viewBox="0 0 16 16" fill="none" xmlns="http://www.w3.org/2000/svg">
<mask id="path-1-outside-1_297_666" maskUnits="userSpaceOnUse" x="1" y="1" width="14" height="15" fill="black">
<rect fill="white" x="1" y="1" width="14" height="15"/>
<path d="M5 9.75C6.24264 9.75 7.25 10.7574 7.25 12C7.25 13.2426 6.24264 14.25 5 14.25C3.75736 14.25 2.75 13.2426 2.75 12C2.75 10.7574 3.75736 9.75 5 9.75ZM11 9.75C12.2426 9.75 13.25 10.7574 13.25 12C13.25 13.2426 12.2426 14.25 11 14.25C9.75736 14.25 8.75 13.2426 8.75 12C8.75 10.7574 9.75736 9.75 11 9.75ZM5 11.25C4.58579 11.25 4.25 11.5858 4.25 12C4.25 12.4142 4.58579 12.75 5 12.75C5.41421 12.75 5.75 12.4142 5.75 12C5.75 11.5858 5.41421 11.25 5 11.25ZM11 11.25C10.5858 11.25 10.25 11.5858 10.25 12C10.25 12.4142 10.5858 12.75 11 12.75C11.4142 12.75 11.75 12.4142 11.75 12C11.75 11.5858 11.4142 11.25 11 11.25ZM13.25 7C13.6642 7 14 7.33579 14 7.75C14 8.16421 13.6642 8.5 13.25 8.5H2.75C2.33579 8.5 2 8.16421 2 7.75C2 7.33579 2.33579 7 2.75 7H13.25ZM13.25 4.5C13.6642 4.5 14 4.83579 14 5.25C14 5.66421 13.6642 6 13.25 6H2.75C2.33579 6 2 5.66421 2 5.25C2 4.83579 2.33579 4.5 2.75 4.5H13.25ZM13.25 2C13.6642 2 14 2.33579 14 2.75C14 3.16421 13.6642 3.5 13.25 3.5H2.75C2.33579 3.5 2 3.16421 2 2.75C2 2.33579 2.33579 2 2.75 2H13.25Z"/>
</mask>
<path d="M5 9.75C6.24264 9.75 7.25 10.7574 7.25 12C7.25 13.2426 6.24264 14.25 5 14.25C3.75736 14.25 2.75 13.2426 2.75 12C2.75 10.7574 3.75736 9.75 5 9.75ZM11 9.75C12.2426 9.75 13.25 10.7574 13.25 12C13.25 13.2426 12.2426 14.25 11 14.25C9.75736 14.25 8.75 13.2426 8.75 12C8.75 10.7574 9.75736 9.75 11 9.75ZM5 11.25C4.58579 11.25 4.25 11.5858 4.25 12C4.25 12.4142 4.58579 12.75 5 12.75C5.41421 12.75 5.75 12.4142 5.75 12C5.75 11.5858 5.41421 11.25 5 11.25ZM11 11.25C10.5858 11.25 10.25 11.5858 10.25 12C10.25 12.4142 10.5858 12.75 11 12.75C11.4142 12.75 11.75 12.4142 11.75 12C11.75 11.5858 11.4142 11.25 11 11.25ZM13.25 7C13.6642 7 14 7.33579 14 7.75C14 8.16421 13.6642 8.5 13.25 8.5H2.75C2.33579 8.5 2 8.16421 2 7.75C2 7.33579 2.33579 7 2.75 7H13.25ZM13.25 4.5C13.6642 4.5 14 4.83579 14 5.25C14 5.66421 13.6642 6 13.25 6H2.75C2.33579 6 2 5.66421 2 5.25C2 4.83579 2.33579 4.5 2.75 4.5H13.25ZM13.25 2C13.6642 2 14 2.33579 14 2.75C14 3.16421 13.6642 3.5 13.25 3.5H2.75C2.33579 3.5 2 3.16421 2 2.75C2 2.33579 2.33579 2 2.75 2H13.25Z" fill="#E6E6E6"/>
<path d="M5 9.75V10.75C5.69036 10.75 6.25 11.3096 6.25 12H7.25H8.25C8.25 10.2051 6.79493 8.75 5 8.75V9.75ZM7.25 12H6.25C6.25 12.6904 5.69036 13.25 5 13.25V14.25V15.25C6.79493 15.25 8.25 13.7949 8.25 12H7.25ZM5 14.25V13.25C4.30964 13.25 3.75 12.6904 3.75 12H2.75H1.75C1.75 13.7949 3.20507 15.25 5 15.25V14.25ZM2.75 12H3.75C3.75 11.3096 4.30964 10.75 5 10.75V9.75V8.75C3.20507 8.75 1.75 10.2051 1.75 12H2.75ZM11 9.75V10.75C11.6904 10.75 12.25 11.3096 12.25 12H13.25H14.25C14.25 10.2051 12.7949 8.75 11 8.75V9.75ZM13.25 12H12.25C12.25 12.6904 11.6904 13.25 11 13.25V14.25V15.25C12.7949 15.25 14.25 13.7949 14.25 12H13.25ZM11 14.25V13.25C10.3096 13.25 9.75 12.6904 9.75 12H8.75H7.75C7.75 13.7949 9.20507 15.25 11 15.25V14.25ZM8.75 12H9.75C9.75 11.3096 10.3096 10.75 11 10.75V9.75V8.75C9.20507 8.75 7.75 10.2051 7.75 12H8.75ZM5 11.25V10.25C4.0335 10.25 3.25 11.0335 3.25 12H4.25H5.25C5.25 12.1381 5.13807 12.25 5 12.25V11.25ZM4.25 12H3.25C3.25 12.9665 4.0335 13.75 5 13.75V12.75V11.75C5.13807 11.75 5.25 11.8619 5.25 12H4.25ZM5 12.75V13.75C5.9665 13.75 6.75 12.9665 6.75 12H5.75H4.75C4.75 11.8619 4.86193 11.75 5 11.75V12.75ZM5.75 12H6.75C6.75 11.0335 5.9665 10.25 5 10.25V11.25V12.25C4.86193 12.25 4.75 12.1381 4.75 12H5.75ZM11 11.25V10.25C10.0335 10.25 9.25 11.0335 9.25 12H10.25H11.25C11.25 12.1381 11.1381 12.25 11 12.25V11.25ZM10.25 12H9.25C9.25 12.9665 10.0335 13.75 11 13.75V12.75V11.75C11.1381 11.75 11.25 11.8619 11.25 12H10.25ZM11 12.75V13.75C11.9665 13.75 12.75 12.9665 12.75 12H11.75H10.75C10.75 11.8619 10.8619 11.75 11 11.75V12.75ZM11.75 12H12.75C12.75 11.0335 11.9665 10.25 11 10.25V11.25V12.25C10.8619 12.25 10.75 12.1381 10.75 12H11.75ZM13.25 7V8C13.1119 8 13 7.88807 13 7.75H14H15C15 6.7835 14.2165 6 13.25 6V7ZM14 7.75H13C13 7.61193 13.1119 7.5 13.25 7.5V8.5V9.5C14.2165 9.5 15 8.7165 15 7.75H14ZM13.25 8.5V7.5H2.75V8.5V9.5H13.25V8.5ZM2.75 8.5V7.5C2.88807 7.5 3 7.61193 3 7.75H2H1C1 8.7165 1.7835 9.5 2.75 9.5V8.5ZM2 7.75H3C3 7.88807 2.88807 8 2.75 8V7V6C1.7835 6 1 6.7835 1 7.75H2ZM2.75 7V8H13.25V7V6H2.75V7ZM13.25 4.5V5.5C13.1119 5.5 13 5.38807 13 5.25H14H15C15 4.2835 14.2165 3.5 13.25 3.5V4.5ZM14 5.25H13C13 5.11193 13.1119 5 13.25 5V6V7C14.2165 7 15 6.2165 15 5.25H14ZM13.25 6V5H2.75V6V7H13.25V6ZM2.75 6V5C2.88807 5 3 5.11193 3 5.25H2H1C1 6.2165 1.7835 7 2.75 7V6ZM2 5.25H3C3 5.38807 2.88807 5.5 2.75 5.5V4.5V3.5C1.7835 3.5 1 4.2835 1 5.25H2ZM2.75 4.5V5.5H13.25V4.5V3.5H2.75V4.5ZM13.25 2V3C13.1119 3 13 2.88807 13 2.75H14H15C15 1.7835 14.2165 1 13.25 1V2ZM14 2.75H13C13 2.61193 13.1119 2.5 13.25 2.5V3.5V4.5C14.2165 4.5 15 3.7165 15 2.75H14ZM13.25 3.5V2.5H2.75V3.5V4.5H13.25V3.5ZM2.75 3.5V2.5C2.88807 2.5 3 2.61193 3 2.75H2H1C1 3.7165 1.7835 4.5 2.75 4.5V3.5ZM2 2.75H3C3 2.88807 2.88807 3 2.75 3V2V1C1.7835 1 1 1.7835 1 2.75H2ZM2.75 2V3H13.25V2V1H2.75V2Z" fill="#E6E6E6" mask="url(#path-1-outside-1_297_666)"/>
<path d="M13.25 7C13.6642 7 14 7.33579 14 7.75C14 8.16421 13.6642 8.5 13.25 8.5H2.75C2.33579 8.5 2 8.16421 2 7.75C2 7.33579 2.33579 7 2.75 7H13.25ZM13.25 4.5C13.6642 4.5 14 4.83579 14 5.25C14 5.66421 13.6642 6 13.25 6H2.75C2.33579 6 2 5.66421 2 5.25C2 4.83579 2.33579 4.5 2.75 4.5H13.25ZM13.25 2C13.6642 2 14 2.33579 14 2.75C14 3.16421 13.6642 3.5 13.25 3.5H2.75C2.33579 3.5 2 3.16421 2 2.75C2 2.33579 2.33579 2 2.75 2H13.25Z" fill="#0A7DFF"/>
<circle cx="5" cy="12" r="1.5" stroke="#333333" stroke-width="1.5" stroke-linecap="round" stroke-linejoin="round"/>
<circle cx="11" cy="12" r="1.5" stroke="#333333" stroke-width="1.5" stroke-linecap="round" stroke-linejoin="round"/>
</svg>
