<svg width="16" height="16" viewBox="0 0 16 16" fill="none" xmlns="http://www.w3.org/2000/svg">
<g clip-path="url(#clip0_1726_1438)">
<mask id="path-1-outside-1_1726_1438" maskUnits="userSpaceOnUse" x="0.75" y="0.75" width="13" height="13" fill="black">
<rect fill="white" x="0.75" y="0.75" width="13" height="13"/>
<path d="M10 1.75C11.2426 1.75 12.25 2.75736 12.25 4C12.25 5.24264 11.2426 6.25 10 6.25H8.81055L6.25 8.81055V10C6.25 11.2426 5.24264 12.25 4 12.25C2.75736 12.25 1.75 11.2426 1.75 10C1.75 8.75736 2.75736 7.75 4 7.75H5.18945L7.75 5.18945V4C7.75 2.75736 8.75736 1.75 10 1.75ZM4 9.25C3.58579 9.25 3.25 9.58579 3.25 10C3.25 10.4142 3.58579 10.75 4 10.75C4.41421 10.75 4.75 10.4142 4.75 10V9.25H4ZM10 3.25C9.58579 3.25 9.25 3.58579 9.25 4V4.75H10C10.4142 4.75 10.75 4.41421 10.75 4C10.75 3.58579 10.4142 3.25 10 3.25Z"/>
</mask>
<path d="M10 1.75C11.2426 1.75 12.25 2.75736 12.25 4C12.25 5.24264 11.2426 6.25 10 6.25H8.81055L6.25 8.81055V10C6.25 11.2426 5.24264 12.25 4 12.25C2.75736 12.25 1.75 11.2426 1.75 10C1.75 8.75736 2.75736 7.75 4 7.75H5.18945L7.75 5.18945V4C7.75 2.75736 8.75736 1.75 10 1.75ZM4 9.25C3.58579 9.25 3.25 9.58579 3.25 10C3.25 10.4142 3.58579 10.75 4 10.75C4.41421 10.75 4.75 10.4142 4.75 10V9.25H4ZM10 3.25C9.58579 3.25 9.25 3.58579 9.25 4V4.75H10C10.4142 4.75 10.75 4.41421 10.75 4C10.75 3.58579 10.4142 3.25 10 3.25Z" fill="#E6E6E6"/>
<path d="M8.81055 6.25V5.25H8.39633L8.10344 5.54289L8.81055 6.25ZM6.25 8.81055L5.54289 8.10344L5.25 8.39633V8.81055H6.25ZM5.18945 7.75V8.75H5.60367L5.89656 8.45711L5.18945 7.75ZM7.75 5.18945L8.45711 5.89656L8.75 5.60367V5.18945H7.75ZM4.75 9.25H5.75V8.25H4.75V9.25ZM9.25 4.75H8.25V5.75H9.25V4.75ZM10 1.75V2.75C10.6904 2.75 11.25 3.30964 11.25 4H12.25H13.25C13.25 2.20507 11.7949 0.75 10 0.75V1.75ZM12.25 4H11.25C11.25 4.69036 10.6904 5.25 10 5.25V6.25V7.25C11.7949 7.25 13.25 5.79493 13.25 4H12.25ZM10 6.25V5.25H8.81055V6.25V7.25H10V6.25ZM8.81055 6.25L8.10344 5.54289L5.54289 8.10344L6.25 8.81055L6.95711 9.51765L9.51765 6.95711L8.81055 6.25ZM6.25 8.81055H5.25V10H6.25H7.25V8.81055H6.25ZM6.25 10H5.25C5.25 10.6904 4.69036 11.25 4 11.25V12.25V13.25C5.79493 13.25 7.25 11.7949 7.25 10H6.25ZM4 12.25V11.25C3.30964 11.25 2.75 10.6904 2.75 10H1.75H0.75C0.75 11.7949 2.20507 13.25 4 13.25V12.25ZM1.75 10H2.75C2.75 9.30964 3.30964 8.75 4 8.75V7.75V6.75C2.20507 6.75 0.75 8.20507 0.75 10H1.75ZM4 7.75V8.75H5.18945V7.75V6.75H4V7.75ZM5.18945 7.75L5.89656 8.45711L8.45711 5.89656L7.75 5.18945L7.04289 4.48235L4.48235 7.04289L5.18945 7.75ZM7.75 5.18945H8.75V4H7.75H6.75V5.18945H7.75ZM7.75 4H8.75C8.75 3.30964 9.30964 2.75 10 2.75V1.75V0.75C8.20507 0.75 6.75 2.20507 6.75 4H7.75ZM4 9.25V8.25C3.0335 8.25 2.25 9.0335 2.25 10H3.25H4.25C4.25 10.1381 4.13807 10.25 4 10.25L4 9.25ZM3.25 10H2.25C2.25 10.9665 3.0335 11.75 4 11.75V10.75L4 9.75C4.13807 9.75 4.25 9.86193 4.25 10H3.25ZM4 10.75V11.75C4.9665 11.75 5.75 10.9665 5.75 10H4.75H3.75C3.75 9.86193 3.86193 9.75 4 9.75L4 10.75ZM4.75 10H5.75V9.25H4.75H3.75V10H4.75ZM4.75 9.25V8.25H4V9.25L4 10.25H4.75V9.25ZM10 3.25V2.25C9.0335 2.25 8.25 3.0335 8.25 4H9.25H10.25C10.25 4.13807 10.1381 4.25 10 4.25V3.25ZM9.25 4H8.25V4.75H9.25H10.25V4H9.25ZM9.25 4.75V5.75H10V4.75V3.75L9.25 3.75V4.75ZM10 4.75V5.75C10.9665 5.75 11.75 4.9665 11.75 4H10.75H9.75C9.75 3.86193 9.86193 3.75 10 3.75V4.75ZM10.75 4H11.75C11.75 3.0335 10.9665 2.25 10 2.25V3.25V4.25C9.86193 4.25 9.75 4.13807 9.75 4H10.75Z" fill="#E6E6E6" mask="url(#path-1-outside-1_1726_1438)"/>
<path d="M9.4697 3.4699C9.76259 3.17702 10.2374 3.17704 10.5303 3.4699C10.823 3.7628 10.8231 4.23759 10.5303 4.53044L4.53025 10.5304C4.2374 10.8232 3.76259 10.8232 3.4697 10.5304C3.17683 10.2376 3.17686 9.76279 3.4697 9.4699L9.4697 3.4699Z" fill="#3B6DE6"/>
<path d="M2.5 10C2.5 9.17157 3.17157 8.5 4 8.5C4.82843 8.5 5.5 9.17157 5.5 10C5.5 10.8284 4.82843 11.5 4 11.5C3.17157 11.5 2.5 10.8284 2.5 10Z" fill="#FDFDFD"/>
<path d="M8.5 4C8.5 3.17157 9.17157 2.5 10 2.5C10.8284 2.5 11.5 3.17157 11.5 4C11.5 4.82843 10.8284 5.5 10 5.5C9.17157 5.5 8.5 4.82843 8.5 4Z" fill="#FDFDFD"/>
<path d="M2.5 10C2.5 9.17157 3.17157 8.5 4 8.5C4.82843 8.5 5.5 9.17157 5.5 10C5.5 10.8284 4.82843 11.5 4 11.5C3.17157 11.5 2.5 10.8284 2.5 10Z" stroke="#333333" stroke-width="1.5" stroke-linecap="round" stroke-linejoin="round"/>
<path d="M8.5 4C8.5 3.17157 9.17157 2.5 10 2.5C10.8284 2.5 11.5 3.17157 11.5 4C11.5 4.82843 10.8284 5.5 10 5.5C9.17157 5.5 8.5 4.82843 8.5 4Z" stroke="#333333" stroke-width="1.5" stroke-linecap="round" stroke-linejoin="round"/>
<mask id="path-5-outside-2_1726_1438" maskUnits="userSpaceOnUse" x="3.25031" y="3.2504" width="13" height="13" fill="black">
<rect fill="white" x="3.25031" y="3.2504" width="13" height="13"/>
<path d="M12.8294 5.66544C13.0146 5.29509 13.4649 5.14457 13.8353 5.3295C14.2053 5.5148 14.3561 5.96508 14.1712 6.33536C13.4384 7.80077 11.9475 8.73061 10.3118 8.74844L8.74835 10.3119C8.73046 11.9476 7.80073 13.4385 6.33527 14.1713C5.965 14.3562 5.51472 14.2054 5.32941 13.8354C5.14446 13.4649 5.29499 13.0147 5.66534 12.8295C6.63661 12.3437 7.25015 11.3501 7.25031 10.2641V10.0004C7.25031 9.80152 7.32942 9.61077 7.47003 9.47012L9.47003 7.47012L9.58429 7.37637C9.70658 7.29485 9.85116 7.2504 10.0003 7.2504H10.264C11.35 7.25029 12.3435 6.63664 12.8294 5.66544Z"/>
</mask>
<path d="M12.8294 5.66544C13.0146 5.29509 13.4649 5.14457 13.8353 5.3295C14.2053 5.5148 14.3561 5.96508 14.1712 6.33536C13.4384 7.80077 11.9475 8.73061 10.3118 8.74844L8.74835 10.3119C8.73046 11.9476 7.80073 13.4385 6.33527 14.1713C5.965 14.3562 5.51472 14.2054 5.32941 13.8354C5.14446 13.4649 5.29499 13.0147 5.66534 12.8295C6.63661 12.3437 7.25015 11.3501 7.25031 10.2641V10.0004C7.25031 9.80152 7.32942 9.61077 7.47003 9.47012L9.47003 7.47012L9.58429 7.37637C9.70658 7.29485 9.85116 7.2504 10.0003 7.2504H10.264C11.35 7.25029 12.3435 6.63664 12.8294 5.66544Z" fill="#333333"/>
<path d="M12.8294 5.66544L13.7237 6.11286L13.7238 6.11265L12.8294 5.66544ZM13.8353 5.3295L14.283 4.43533L14.2819 4.4348L13.8353 5.3295ZM14.1712 6.33536L15.0656 6.78262L15.0659 6.78207L14.1712 6.33536ZM10.3118 8.74844L10.3009 7.7485L9.89311 7.75295L9.60472 8.04134L10.3118 8.74844ZM8.74835 10.3119L8.04125 9.60481L7.75287 9.89319L7.74841 10.301L8.74835 10.3119ZM6.33527 14.1713L6.78197 15.066L6.78249 15.0657L6.33527 14.1713ZM5.32941 13.8354L4.43472 14.2821L4.43527 14.2831L5.32941 13.8354ZM5.66534 12.8295L6.11255 13.7239L6.11271 13.7238L5.66534 12.8295ZM7.25031 10.2641L8.25031 10.2642V10.2641H7.25031ZM7.47003 9.47012L6.76292 8.76302L6.76284 8.76311L7.47003 9.47012ZM9.47003 7.47012L8.83572 6.69705L8.7977 6.72824L8.76292 6.76302L9.47003 7.47012ZM9.58429 7.37637L9.0296 6.54431L8.98832 6.57183L8.94997 6.6033L9.58429 7.37637ZM10.0003 7.2504V6.2504H10.0003L10.0003 7.2504ZM10.264 7.2504V8.2504H10.2641L10.264 7.2504ZM12.8294 5.66544L13.7238 6.11265C13.6624 6.23546 13.5127 6.28616 13.3886 6.22419L13.8353 5.3295L14.2819 4.4348C13.417 4.00298 12.3667 4.35472 11.935 5.21822L12.8294 5.66544ZM13.8353 5.3295L13.3875 6.22367C13.2655 6.16259 13.2142 6.01347 13.2765 5.88864L14.1712 6.33536L15.0659 6.78207C15.498 5.91669 15.1451 4.86702 14.283 4.43533L13.8353 5.3295ZM14.1712 6.33536L13.2768 5.8881C12.712 7.01752 11.5626 7.73474 10.3009 7.7485L10.3118 8.74844L10.3227 9.74838C12.3324 9.72647 14.1648 8.58403 15.0656 6.78262L14.1712 6.33536ZM10.3118 8.74844L9.60472 8.04134L8.04125 9.60481L8.74835 10.3119L9.45546 11.019L11.0189 9.45555L10.3118 8.74844ZM8.74835 10.3119L7.74841 10.301C7.73461 11.5628 7.01742 12.7122 5.88804 13.2769L6.33527 14.1713L6.78249 15.0657C8.58403 14.1649 9.72631 12.3324 9.74829 10.3229L8.74835 10.3119ZM6.33527 14.1713L5.88856 13.2766C6.01344 13.2143 6.16249 13.2656 6.22355 13.3876L5.32941 13.8354L4.43527 14.2831C4.86695 15.1451 5.91657 15.4981 6.78197 15.066L6.33527 14.1713ZM5.32941 13.8354L6.22409 13.3887C6.28608 13.5128 6.23534 13.6625 6.11255 13.7239L5.66534 12.8295L5.21814 11.9351C4.35464 12.3668 4.00285 13.4171 4.43472 14.2821L5.32941 13.8354ZM5.66534 12.8295L6.11271 13.7238C7.42292 13.0685 8.2501 11.7286 8.25031 10.2642L7.25031 10.2641L6.25031 10.2639C6.25021 10.9716 5.85031 11.6188 5.21797 11.9351L5.66534 12.8295ZM7.25031 10.2641H8.25031V10.0004H7.25031H6.25031V10.2641H7.25031ZM7.25031 10.0004H8.25031C8.25031 10.0671 8.22381 10.1305 8.17723 10.1771L7.47003 9.47012L6.76284 8.76311C6.43503 9.09099 6.25031 9.53593 6.25031 10.0004H7.25031ZM7.47003 9.47012L8.17714 10.1772L10.1771 8.17723L9.47003 7.47012L8.76292 6.76302L6.76292 8.76302L7.47003 9.47012ZM9.47003 7.47012L10.1043 8.2432L10.2186 8.14945L9.58429 7.37637L8.94997 6.6033L8.83572 6.69705L9.47003 7.47012ZM9.58429 7.37637L10.139 8.20843C10.0983 8.23554 10.0502 8.2504 10.0003 8.2504L10.0003 7.2504L10.0003 6.2504C9.65217 6.25041 9.31485 6.35415 9.0296 6.54431L9.58429 7.37637ZM10.0003 7.2504V8.2504H10.264V7.2504V6.2504H10.0003V7.2504ZM10.264 7.2504L10.2641 8.2504C11.7285 8.25025 13.0683 7.42288 13.7237 6.11286L12.8294 5.66544L11.9351 5.21801C11.6187 5.8504 10.9714 6.25032 10.2639 6.2504L10.264 7.2504Z" fill="#E6E6E6" mask="url(#path-5-outside-2_1726_1438)"/>
</g>
<defs>
<clipPath id="clip0_1726_1438">
<rect width="16" height="16" fill="white"/>
</clipPath>
</defs>
</svg>
