<svg width="16" height="16" viewBox="0 0 16 16" fill="none" xmlns="http://www.w3.org/2000/svg">
<mask id="path-1-outside-1_1718_1065" maskUnits="userSpaceOnUse" x="1" y="0.5" width="14" height="15" fill="black">
<rect fill="white" x="1" y="0.5" width="14" height="15"/>
<path d="M13.25 6.5C13.6642 6.5 14 6.83579 14 7.25C14 7.66421 13.6642 8 13.25 8H11.5V9.5H13.25C13.6642 9.5 14 9.83579 14 10.25C14 10.6642 13.6642 11 13.25 11H11.5V12.5H13.25C13.6642 12.5 14 12.8358 14 13.25C14 13.6642 13.6642 14 13.25 14H2.75C2.33579 14 2 13.6642 2 13.25C2 12.8358 2.33579 12.5 2.75 12.5H4V11H2.75C2.33579 11 2 10.6642 2 10.25C2 9.83579 2.33579 9.5 2.75 9.5H4V8H2.75C2.33579 8 2 7.66421 2 7.25C2 6.83579 2.33579 6.5 2.75 6.5H13.25ZM5.5 11V12.5H7V11H5.5ZM8.5 11V12.5H10V11H8.5ZM5.5 9.5H7V8H5.5V9.5ZM8.5 9.5H10V8H8.5V9.5ZM13.25 4C13.6642 4 14 4.33579 14 4.75C14 5.16421 13.6642 5.5 13.25 5.5H2.75C2.33579 5.5 2 5.16421 2 4.75C2 4.33579 2.33579 4 2.75 4H13.25ZM13.25 1.5C13.6642 1.5 14 1.83579 14 2.25C14 2.66421 13.6642 3 13.25 3H2.75C2.33579 3 2 2.66421 2 2.25C2 1.83579 2.33579 1.5 2.75 1.5H13.25Z"/>
</mask>
<path d="M13.25 6.5C13.6642 6.5 14 6.83579 14 7.25C14 7.66421 13.6642 8 13.25 8H11.5V9.5H13.25C13.6642 9.5 14 9.83579 14 10.25C14 10.6642 13.6642 11 13.25 11H11.5V12.5H13.25C13.6642 12.5 14 12.8358 14 13.25C14 13.6642 13.6642 14 13.25 14H2.75C2.33579 14 2 13.6642 2 13.25C2 12.8358 2.33579 12.5 2.75 12.5H4V11H2.75C2.33579 11 2 10.6642 2 10.25C2 9.83579 2.33579 9.5 2.75 9.5H4V8H2.75C2.33579 8 2 7.66421 2 7.25C2 6.83579 2.33579 6.5 2.75 6.5H13.25ZM5.5 11V12.5H7V11H5.5ZM8.5 11V12.5H10V11H8.5ZM5.5 9.5H7V8H5.5V9.5ZM8.5 9.5H10V8H8.5V9.5ZM13.25 4C13.6642 4 14 4.33579 14 4.75C14 5.16421 13.6642 5.5 13.25 5.5H2.75C2.33579 5.5 2 5.16421 2 4.75C2 4.33579 2.33579 4 2.75 4H13.25ZM13.25 1.5C13.6642 1.5 14 1.83579 14 2.25C14 2.66421 13.6642 3 13.25 3H2.75C2.33579 3 2 2.66421 2 2.25C2 1.83579 2.33579 1.5 2.75 1.5H13.25Z" fill="#E6E6E6"/>
<path d="M11.5 8V7H10.5V8H11.5ZM11.5 9.5H10.5V10.5H11.5V9.5ZM11.5 11V10H10.5V11H11.5ZM11.5 12.5H10.5V13.5H11.5V12.5ZM4 12.5V13.5H5V12.5H4ZM4 11H5V10H4V11ZM4 9.5V10.5H5V9.5H4ZM4 8H5V7H4V8ZM5.5 11V10H4.5V11H5.5ZM5.5 12.5H4.5V13.5H5.5V12.5ZM7 12.5V13.5H8V12.5H7ZM7 11H8V10H7V11ZM8.5 11V10H7.5V11H8.5ZM8.5 12.5H7.5V13.5H8.5V12.5ZM10 12.5V13.5H11V12.5H10ZM10 11H11V10H10V11ZM5.5 9.5H4.5V10.5H5.5V9.5ZM7 9.5V10.5H8V9.5H7ZM7 8H8V7H7V8ZM5.5 8V7H4.5V8H5.5ZM8.5 9.5H7.5V10.5H8.5V9.5ZM10 9.5V10.5H11V9.5H10ZM10 8H11V7H10V8ZM8.5 8V7H7.5V8H8.5ZM13.25 6.5V7.5C13.1119 7.5 13 7.38807 13 7.25H14H15C15 6.2835 14.2165 5.5 13.25 5.5V6.5ZM14 7.25H13C13 7.11193 13.1119 7 13.25 7V8V9C14.2165 9 15 8.2165 15 7.25H14ZM13.25 8V7H11.5V8V9H13.25V8ZM11.5 8H10.5V9.5H11.5H12.5V8H11.5ZM11.5 9.5V10.5H13.25V9.5V8.5H11.5V9.5ZM13.25 9.5V10.5C13.1119 10.5 13 10.3881 13 10.25H14H15C15 9.2835 14.2165 8.5 13.25 8.5V9.5ZM14 10.25H13C13 10.1119 13.1119 10 13.25 10V11V12C14.2165 12 15 11.2165 15 10.25H14ZM13.25 11V10H11.5V11V12H13.25V11ZM11.5 11H10.5V12.5H11.5H12.5V11H11.5ZM11.5 12.5V13.5H13.25V12.5V11.5H11.5V12.5ZM13.25 12.5V13.5C13.1119 13.5 13 13.3881 13 13.25H14H15C15 12.2835 14.2165 11.5 13.25 11.5V12.5ZM14 13.25H13C13 13.1119 13.1119 13 13.25 13V14V15C14.2165 15 15 14.2165 15 13.25H14ZM13.25 14V13H2.75V14V15H13.25V14ZM2.75 14V13C2.88807 13 3 13.1119 3 13.25H2H1C1 14.2165 1.7835 15 2.75 15V14ZM2 13.25H3C3 13.3881 2.88807 13.5 2.75 13.5V12.5V11.5C1.7835 11.5 1 12.2835 1 13.25H2ZM2.75 12.5V13.5H4V12.5V11.5H2.75V12.5ZM4 12.5H5V11H4H3V12.5H4ZM4 11V10H2.75V11V12H4V11ZM2.75 11V10C2.88807 10 3 10.1119 3 10.25H2H1C1 11.2165 1.7835 12 2.75 12V11ZM2 10.25H3C3 10.3881 2.88807 10.5 2.75 10.5V9.5V8.5C1.7835 8.5 1 9.2835 1 10.25H2ZM2.75 9.5V10.5H4V9.5V8.5H2.75V9.5ZM4 9.5H5V8H4H3V9.5H4ZM4 8V7H2.75V8V9H4V8ZM2.75 8V7C2.88807 7 3 7.11193 3 7.25H2H1C1 8.2165 1.7835 9 2.75 9V8ZM2 7.25H3C3 7.38807 2.88807 7.5 2.75 7.5V6.5V5.5C1.7835 5.5 1 6.2835 1 7.25H2ZM2.75 6.5V7.5H13.25V6.5V5.5H2.75V6.5ZM5.5 11H4.5V12.5H5.5H6.5V11H5.5ZM5.5 12.5V13.5H7V12.5V11.5H5.5V12.5ZM7 12.5H8V11H7H6V12.5H7ZM7 11V10H5.5V11V12H7V11ZM8.5 11H7.5V12.5H8.5H9.5V11H8.5ZM8.5 12.5V13.5H10V12.5V11.5H8.5V12.5ZM10 12.5H11V11H10H9V12.5H10ZM10 11V10H8.5V11V12H10V11ZM5.5 9.5V10.5H7V9.5V8.5H5.5V9.5ZM7 9.5H8V8H7H6V9.5H7ZM7 8V7H5.5V8V9H7V8ZM5.5 8H4.5V9.5H5.5H6.5V8H5.5ZM8.5 9.5V10.5H10V9.5V8.5H8.5V9.5ZM10 9.5H11V8H10H9V9.5H10ZM10 8V7H8.5V8V9H10V8ZM8.5 8H7.5V9.5H8.5H9.5V8H8.5ZM13.25 4V5C13.1119 5 13 4.88807 13 4.75H14H15C15 3.7835 14.2165 3 13.25 3V4ZM14 4.75H13C13 4.61193 13.1119 4.5 13.25 4.5V5.5V6.5C14.2165 6.5 15 5.7165 15 4.75H14ZM13.25 5.5V4.5H2.75V5.5V6.5H13.25V5.5ZM2.75 5.5V4.5C2.88807 4.5 3 4.61193 3 4.75H2H1C1 5.7165 1.7835 6.5 2.75 6.5V5.5ZM2 4.75H3C3 4.88807 2.88807 5 2.75 5V4V3C1.7835 3 1 3.7835 1 4.75H2ZM2.75 4V5H13.25V4V3H2.75V4ZM13.25 1.5V2.5C13.1119 2.5 13 2.38807 13 2.25H14H15C15 1.2835 14.2165 0.5 13.25 0.5V1.5ZM14 2.25H13C13 2.11193 13.1119 2 13.25 2V3V4C14.2165 4 15 3.2165 15 2.25H14ZM13.25 3V2H2.75V3V4H13.25V3ZM2.75 3V2C2.88807 2 3 2.11193 3 2.25H2H1C1 3.2165 1.7835 4 2.75 4V3ZM2 2.25H3C3 2.38807 2.88807 2.5 2.75 2.5V1.5V0.5C1.7835 0.5 1 1.2835 1 2.25H2ZM2.75 1.5V2.5H13.25V1.5V0.5H2.75V1.5Z" fill="#E6E6E6" mask="url(#path-1-outside-1_1718_1065)"/>
<path d="M13.25 6.5C13.6642 6.5 14 6.83579 14 7.25C14 7.66421 13.6642 8 13.25 8H11.75V9.5H13.25C13.6642 9.5 14 9.83579 14 10.25C14 10.6642 13.6642 11 13.25 11H11.75V12.5H13.25C13.6642 12.5 14 12.8358 14 13.25C14 13.6642 13.6642 14 13.25 14H2.75C2.33579 14 2 13.6642 2 13.25C2 12.8358 2.33579 12.5 2.75 12.5H4.25V11H2.75C2.33579 11 2 10.6642 2 10.25C2 9.83579 2.33579 9.5 2.75 9.5H4.25V8H2.75C2.33579 8 2 7.66421 2 7.25C2 6.83579 2.33579 6.5 2.75 6.5H13.25ZM5.75 11V12.5H7.25V11H5.75ZM8.75 11V12.5H10.25V11H8.75ZM5.75 9.5H7.25V8H5.75V9.5ZM8.75 9.5H10.25V8H8.75V9.5ZM13.25 4C13.6642 4 14 4.33579 14 4.75C14 5.16421 13.6642 5.5 13.25 5.5H2.75C2.33579 5.5 2 5.16421 2 4.75C2 4.33579 2.33579 4 2.75 4H13.25ZM13.25 1.5C13.6642 1.5 14 1.83579 14 2.25C14 2.66421 13.6642 3 13.25 3H2.75C2.33579 3 2 2.66421 2 2.25C2 1.83579 2.33579 1.5 2.75 1.5H13.25Z" fill="#0A7DFF"/>
</svg>
