<svg width="16" height="16" viewBox="0 0 16 16" fill="none" xmlns="http://www.w3.org/2000/svg">
<rect x="2.125" y="2.125" width="11.75" height="11.75" rx="1.875" fill="#FDFDFD" stroke="#E6E6E6" stroke-width="1.75"/>
<circle cx="6" cy="6" r="1.5" fill="#333333"/>
<circle cx="6" cy="10" r="1.5" fill="#333333"/>
<circle cx="10" cy="6" r="1.5" fill="#333333"/>
<circle cx="10" cy="10" r="1.5" fill="#333333"/>
<path d="M4.5 3H4C3.44772 3 3 3.44772 3 4V4.5" stroke="#0A7DFF" stroke-width="1.5" stroke-linecap="round" stroke-linejoin="round"/>
<path d="M11.5 13L12 13C12.5523 13 13 12.5523 13 12L13 11.5" stroke="#0A7DFF" stroke-width="1.5" stroke-linecap="round" stroke-linejoin="round"/>
<path d="M13 4.5L13 4C13 3.44772 12.5523 3 12 3L11.5 3" stroke="#0A7DFF" stroke-width="1.5" stroke-linecap="round" stroke-linejoin="round"/>
<path d="M13 8.5L13 7.5" stroke="#0A7DFF" stroke-width="1.5" stroke-linecap="round" stroke-linejoin="round"/>
<path d="M3 8.5L3 7.5" stroke="#0A7DFF" stroke-width="1.5" stroke-linecap="round" stroke-linejoin="round"/>
<path d="M7.5 13L8.5 13" stroke="#0A7DFF" stroke-width="1.5" stroke-linecap="round" stroke-linejoin="round"/>
<path d="M7.5 3L8.5 3" stroke="#0A7DFF" stroke-width="1.5" stroke-linecap="round" stroke-linejoin="round"/>
<path d="M3 11.5L3 12C3 12.5523 3.44772 13 4 13L4.5 13" stroke="#0A7DFF" stroke-width="1.5" stroke-linecap="round" stroke-linejoin="round"/>
</svg>
