<svg width="16" height="16" viewBox="0 0 16 16" fill="none" xmlns="http://www.w3.org/2000/svg">
<g clip-path="url(#clip0_301_1029)">
<rect x="1" y="4" width="11" height="11" rx="5.5" fill="#333333" stroke="#E6E6E6"/>
<mask id="path-2-outside-1_301_1029" maskUnits="userSpaceOnUse" x="3.65039" y="0.207367" width="13" height="13" fill="black">
<rect fill="white" x="3.65039" y="0.207367" width="13" height="13"/>
<path d="M10.8453 1.23184C10.9457 1.19921 11.0544 1.19921 11.1549 1.23184C11.2689 1.26903 11.3682 1.36804 11.566 1.56582L14.4342 4.43399C14.6319 4.63172 14.7309 4.73116 14.7681 4.84512C14.8008 4.94554 14.8008 5.05427 14.7681 5.15469C14.731 5.26878 14.6321 5.36792 14.4342 5.56582L10.6665 9.33347C10.5567 9.44324 10.4229 9.52595 10.2756 9.57504L7.49959 10.5004L5.25936 11.2475C5.01508 11.3289 4.89234 11.3692 4.81111 11.3402C4.74055 11.315 4.68495 11.2594 4.65975 11.1889C4.63078 11.1076 4.6711 10.9849 4.75252 10.7406L6.29549 6.11367L6.42497 5.72462C6.47404 5.57717 6.55681 5.44318 6.66669 5.33329L10.4342 1.56582C10.632 1.36794 10.7312 1.26899 10.8453 1.23184Z"/>
</mask>
<path d="M10.8453 1.23184L10.5363 0.280782L10.5356 0.280995L10.8453 1.23184ZM11.1549 1.23184L11.465 0.281156L11.4639 0.280783L11.1549 1.23184ZM11.566 1.56582L12.2731 0.858716L12.2731 0.858716L11.566 1.56582ZM14.4342 4.43399L13.7271 5.14109L13.7271 5.14109L14.4342 4.43399ZM14.7681 4.84512L15.7192 4.5361L15.7187 4.5347L14.7681 4.84512ZM14.7681 5.15469L15.719 5.46424L15.7192 5.46371L14.7681 5.15469ZM14.4342 5.56582L13.7271 4.85871L13.7271 4.85872L14.4342 5.56582ZM7.49959 10.5004L7.18336 9.55171L7.18324 9.55175L7.49959 10.5004ZM5.25936 11.2475L5.57559 12.1961L5.57571 12.1961L5.25936 11.2475ZM4.81111 11.3402L4.47456 12.2819L4.47524 12.2821L4.81111 11.3402ZM4.65975 11.1889L3.71784 11.5247L3.71801 11.5252L4.65975 11.1889ZM4.75252 10.7406L3.80388 10.4243L3.80384 10.4244L4.75252 10.7406ZM6.29549 6.11367L7.24413 6.43002L7.24432 6.42945L6.29549 6.11367ZM10.4342 1.56582L9.72706 0.858714L9.72706 0.858716L10.4342 1.56582ZM10.6665 9.33347L9.95941 8.62636L10.6665 9.33347ZM10.2756 9.57504L9.95941 8.62636L10.2756 9.57504ZM10.8453 1.23184L11.1543 2.18289C11.0539 2.21552 10.9463 2.21552 10.8458 2.18289L11.1549 1.23184L11.4639 0.280783C11.1626 0.182895 10.8375 0.182895 10.5363 0.280782L10.8453 1.23184ZM11.1549 1.23184L10.8447 2.18252C10.787 2.1637 10.7424 2.14037 10.713 2.12217C10.6864 2.10566 10.6746 2.09484 10.6822 2.10123C10.69 2.10785 10.7067 2.12279 10.7387 2.15382C10.7707 2.18481 10.808 2.22201 10.8589 2.27293L11.566 1.56582L12.2731 0.858716C12.1855 0.771115 12.0781 0.662751 11.9759 0.575995C11.8649 0.481881 11.6967 0.356756 11.465 0.281157L11.1549 1.23184ZM11.566 1.56582L10.8589 2.27293L13.7271 5.14109L14.4342 4.43399L15.1413 3.72688L12.2731 0.858716L11.566 1.56582ZM14.4342 4.43399L13.7271 5.14109C13.7779 5.19197 13.8151 5.22923 13.8461 5.26122C13.8771 5.29324 13.8921 5.30995 13.8987 5.31778C13.9051 5.32533 13.8943 5.31364 13.8778 5.28703C13.8597 5.25771 13.8364 5.2132 13.8175 5.15554L14.7681 4.84512L15.7187 4.5347C15.6431 4.30314 15.5181 4.13506 15.424 4.02416C15.3372 3.92185 15.2289 3.81453 15.1413 3.72688L14.4342 4.43399ZM14.7681 4.84512L13.8171 5.15414C13.7845 5.05372 13.7845 4.9461 13.8171 4.84567L14.7681 5.15469L15.7192 5.46371C15.8171 5.16244 15.8171 4.83737 15.7192 4.5361L14.7681 4.84512ZM14.7681 5.15469L13.8173 4.84514C13.8361 4.78736 13.8594 4.74266 13.8777 4.71307C13.8943 4.68624 13.9053 4.6744 13.8989 4.68188C13.8923 4.68965 13.8774 4.70632 13.8463 4.73839C13.8153 4.77043 13.7781 4.80771 13.7271 4.85871L14.4342 5.56582L15.1413 6.27293C15.2288 6.18544 15.3372 6.07802 15.424 5.97577C15.5182 5.86469 15.6435 5.69634 15.719 5.46424L14.7681 5.15469ZM14.4342 5.56582L13.7271 4.85872L9.95941 8.62636L10.6665 9.33347L11.3736 10.0406L15.1413 6.27293L14.4342 5.56582ZM10.2756 9.57504L9.95941 8.62636L7.18336 9.55171L7.49959 10.5004L7.81582 11.4491L10.5919 10.5237L10.2756 9.57504ZM7.49959 10.5004L7.18324 9.55175L4.94301 10.2988L5.25936 11.2475L5.57571 12.1961L7.81594 11.449L7.49959 10.5004ZM5.25936 11.2475L4.94313 10.2988C4.88016 10.3198 4.8355 10.3346 4.7985 10.3462C4.78085 10.3517 4.76801 10.3556 4.75869 10.3582C4.74929 10.3609 4.74591 10.3616 4.7471 10.3614C4.74816 10.3611 4.75709 10.359 4.77205 10.3567C4.78696 10.3544 4.81189 10.3513 4.8445 10.3501C4.91049 10.3477 5.01963 10.3529 5.14699 10.3983L4.81111 11.3402L4.47524 12.2821C4.79913 12.3976 5.08911 12.3352 5.20109 12.3091C5.32823 12.2795 5.47122 12.2309 5.57559 12.1961L5.25936 11.2475ZM4.81111 11.3402L5.14767 10.3986C5.35912 10.4741 5.52579 10.6406 5.60149 10.8525L4.65975 11.1889L3.71801 11.5252C3.84411 11.8783 4.12198 12.1559 4.47456 12.2819L4.81111 11.3402ZM4.65975 11.1889L5.60165 10.853C5.64707 10.9804 5.65232 11.0895 5.64991 11.1555C5.64871 11.1881 5.64555 11.213 5.64326 11.2279C5.64095 11.2429 5.63888 11.2518 5.63864 11.2529C5.63836 11.2541 5.63912 11.2507 5.64179 11.2413C5.64443 11.232 5.64826 11.2191 5.65379 11.2015C5.6654 11.1645 5.68021 11.1198 5.7012 11.0569L4.75252 10.7406L3.80384 10.4244C3.76905 10.5288 3.72048 10.6718 3.69084 10.7989C3.66474 10.9109 3.60234 11.2009 3.71784 11.5247L4.65975 11.1889ZM4.75252 10.7406L5.70116 11.057L7.24413 6.43002L6.29549 6.11367L5.34685 5.79733L3.80388 10.4243L4.75252 10.7406ZM6.29549 6.11367L7.24432 6.42945L7.3738 6.0404L6.42497 5.72462L5.47613 5.40885L5.34666 5.7979L6.29549 6.11367ZM6.6667 5.33329L7.3738 6.0404L11.1413 2.27293L10.4342 1.56582L9.72706 0.858716L5.95959 4.62618L6.6667 5.33329ZM10.4342 1.56582L11.1413 2.27293C11.1923 2.22194 11.2295 2.18472 11.2616 2.15369C11.2936 2.12263 11.3103 2.10771 11.3181 2.10111C11.3256 2.09475 11.3138 2.10565 11.287 2.12223C11.2574 2.14051 11.2127 2.16387 11.155 2.18268L10.8453 1.23184L10.5356 0.280995C10.3036 0.356562 10.1353 0.481793 10.0242 0.576008C9.92198 0.662753 9.81457 0.7712 9.72706 0.858714L10.4342 1.56582ZM6.42497 5.72462L7.3738 6.0404V6.0404L6.6667 5.33329L5.95959 4.62618C5.73981 4.84596 5.57428 5.11394 5.47613 5.40885L6.42497 5.72462ZM10.6665 9.33347L9.95941 8.62636V8.62636L10.2756 9.57504L10.5919 10.5237C10.8864 10.4255 11.1541 10.2601 11.3736 10.0406L10.6665 9.33347Z" fill="#E6E6E6" mask="url(#path-2-outside-1_301_1029)"/>
<path d="M4.75298 10.7411L6.29533 6.11399C6.3631 5.91069 6.39699 5.80903 6.46021 5.76209C6.51542 5.72109 6.58508 5.70465 6.6528 5.71662C6.73035 5.73034 6.80611 5.80611 6.95765 5.95764L10.0424 9.04235C10.1939 9.19388 10.2697 9.26965 10.2834 9.3472C10.2953 9.41491 10.2789 9.48457 10.2379 9.53978C10.191 9.60301 10.0893 9.63689 9.886 9.70466L5.25895 11.247C5.01467 11.3284 4.89254 11.3692 4.81132 11.3402C4.74063 11.315 4.68501 11.2594 4.65981 11.1887C4.63085 11.1075 4.67156 10.9853 4.75298 10.7411Z" fill="#333333"/>
<path d="M6.5 5.5L5.5 8.5L7.5 10.5L10.5 9.5L6.5 5.5Z" fill="#FFDE94"/>
<path d="M10.4343 1.56569L6.5 5.5L10.5 9.5L14.4343 5.56569C14.6323 5.36768 14.7313 5.26868 14.7684 5.15451C14.8011 5.05409 14.8011 4.94592 14.7684 4.8455C14.7313 4.73133 14.6323 4.63233 14.4343 4.43432L11.5657 1.56569L11.5657 1.56568C11.3677 1.36768 11.2687 1.26868 11.1545 1.23158C11.0541 1.19895 10.9459 1.19895 10.8455 1.23158C10.7313 1.26868 10.6323 1.36768 10.4343 1.56569Z" fill="#D97824"/>
<path d="M10.8457 1.23223C10.9461 1.19965 11.0539 1.19965 11.1543 1.23223C11.2684 1.26933 11.3675 1.36827 11.5654 1.56621L12.3203 2.32012L7.84864 6.79278L4.68457 11.2391C4.67471 11.2236 4.66649 11.2069 4.66016 11.1893C4.63121 11.1081 4.67159 10.9851 4.75293 10.741L6.29493 6.11407C6.29788 6.1052 6.30088 6.09618 6.30372 6.0877L6.5 5.50078L10.4346 1.56621C10.6325 1.36834 10.7316 1.26937 10.8457 1.23223Z" fill="white" fill-opacity="0.3"/>
</g>
<defs>
<clipPath id="clip0_301_1029">
<rect width="16" height="16" fill="white"/>
</clipPath>
</defs>
</svg>
