<svg width="16" height="16" viewBox="0 0 16 16" fill="none" xmlns="http://www.w3.org/2000/svg">
<circle cx="8" cy="8" r="6.5" fill="#E6E6E6" stroke="#E6E6E6" stroke-linejoin="round"/>
<path d="M8 1.90527C11.3662 1.90547 14.0947 4.63473 14.0947 8.00098C14.0943 11.3669 11.3659 14.0955 8 14.0957C4.63412 14.0954 1.90473 11.3668 1.9043 8.00098C1.9043 7.94929 1.90996 7.89836 1.91992 7.84961C1.98878 7.50654 2.29114 7.24827 2.6543 7.24805C3.01771 7.24822 3.32088 7.50645 3.38965 7.84961C3.39961 7.89836 3.4043 7.94929 3.4043 8.00098C3.40473 10.5384 5.46255 12.5954 8 12.5957C10.5375 12.5955 12.5943 10.5384 12.5947 8.00098C12.5947 5.54259 10.665 3.53459 8.2373 3.41113L8 3.40527H7.99707C7.58336 3.40505 7.24751 3.06902 7.24707 2.65527C7.24707 2.24138 7.5832 1.90573 7.99707 1.90527H8ZM2.36816 5.66406C2.52709 5.2818 2.96625 5.10113 3.34863 5.25977C3.73087 5.41862 3.91236 5.8569 3.75391 6.23926C3.75336 6.24061 3.75245 6.24293 3.75195 6.24414C3.59321 6.62632 3.15393 6.80779 2.77148 6.64941C2.38951 6.49073 2.20825 6.05222 2.36621 5.66992C2.36688 5.6683 2.36754 5.66576 2.36816 5.66406ZM3.69141 3.68848C3.98444 3.39573 4.4592 3.39643 4.75195 3.68945C5.04466 3.98249 5.04497 4.45726 4.75195 4.75C4.75113 4.75082 4.74985 4.75211 4.74902 4.75293C4.45625 5.04549 3.98136 5.04548 3.68848 4.75293C3.39561 4.46033 3.39522 3.98545 3.6875 3.69238C3.68865 3.69123 3.69026 3.68962 3.69141 3.68848ZM5.66895 2.36719C6.05146 2.20879 6.48977 2.39014 6.64844 2.77246C6.80673 3.15504 6.62565 3.59441 6.24316 3.75293C6.24182 3.75347 6.23949 3.75438 6.23828 3.75488C5.85613 3.9129 5.41764 3.73151 5.25879 3.34961C5.10005 2.96735 5.28113 2.52829 5.66309 2.36914C5.6647 2.36847 5.66725 2.36781 5.66895 2.36719Z" fill="#2D52D2"/>
<path d="M6 6.41295V9.58705C6 10.0495 6 10.2808 6.09698 10.4128C6.18154 10.528 6.31133 10.6015 6.45359 10.6147C6.61674 10.63 6.81503 10.511 7.2116 10.273L9.85668 8.686C10.2338 8.45973 10.4223 8.34659 10.4863 8.20029C10.5421 8.0726 10.5421 7.9274 10.4863 7.79971C10.4223 7.65341 10.2338 7.54027 9.85668 7.31401L7.2116 5.72696C6.81503 5.48902 6.61674 5.37005 6.45359 5.38525C6.31133 5.39851 6.18154 5.472 6.09698 5.58717C6 5.71924 6 5.95048 6 6.41295Z" fill="#2D52D2"/>
</svg>
