<svg width="16" height="16" viewBox="0 0 16 16" fill="none" xmlns="http://www.w3.org/2000/svg">
<path d="M4.5 2.25C5.19036 2.25 5.75 2.80964 5.75 3.5V4.5C5.75 3.80964 6.30964 3.25 7 3.25C7.69036 3.25 8.25 3.80964 8.25 4.5V6C8.25 5.30964 8.80964 4.75 9.5 4.75C10.1904 4.75 10.75 5.30964 10.75 6V7.5C10.75 6.80964 11.3096 6.25 12 6.25C12.6904 6.25 13.25 6.80964 13.25 7.5V8.5C13.25 9.19036 12.6904 9.75 12 9.75C11.3096 9.75 10.75 9.19036 10.75 8.5V10C10.75 10.6904 10.1904 11.25 9.5 11.25C8.80964 11.25 8.25 10.6904 8.25 10V11.5C8.25 12.1904 7.69036 12.75 7 12.75C6.30964 12.75 5.75 12.1904 5.75 11.5V12.5C5.75 13.1904 5.19036 13.75 4.5 13.75C3.80964 13.75 3.25 13.1904 3.25 12.5V3.5C3.25 2.80964 3.80964 2.25 4.5 2.25Z" stroke="#E6E6E6" stroke-linejoin="round"/>
<path d="M9.5 6V10M4.5 3.5V12.5M7 4.5V11.5M12 7.5V8.5" stroke="#2D52D2" stroke-width="1.5" stroke-linecap="round" stroke-linejoin="round"/>
</svg>
