<svg width="16" height="16" viewBox="0 0 16 16" fill="none" xmlns="http://www.w3.org/2000/svg">
<path d="M4.5 2.25C5.19036 2.25 5.75 2.80964 5.75 3.5V4.25H8.5C8.50843 4.25 8.51697 4.25055 8.52539 4.25098L8.60254 4.25488L8.62793 4.25684C9.25842 4.32126 9.75 4.85276 9.75 5.5V6.75H12C12.6904 6.75 13.25 7.30964 13.25 8C13.25 8.69036 12.6904 9.25 12 9.25H9.75V10.5C9.75 11.1904 9.19036 11.75 8.5 11.75H5.75V12.5C5.75 13.1904 5.19036 13.75 4.5 13.75C3.80964 13.75 3.25 13.1904 3.25 12.5V3.5C3.25 2.80964 3.80964 2.25 4.5 2.25Z" stroke="#E6E6E6" stroke-linejoin="round"/>
<path d="M8.5 5.5V8V10.5H4.5V8V5.5H8.5Z" fill="#8BDBFE"/>
<path d="M4.5 3.5V12.5M12 8H4.5M4.5 10.5H8.5V5.5H4.5" stroke="#2D52D2" stroke-width="1.5" stroke-linecap="round" stroke-linejoin="round"/>
</svg>
