<svg width="16" height="16" viewBox="0 0 16 16" fill="none" xmlns="http://www.w3.org/2000/svg">
<path d="M4.86914 2.78851C5.1729 2.76194 5.4565 2.86657 5.71875 2.99554C5.98414 3.12607 6.30588 3.32299 6.69531 3.56097L11.0264 6.20844C11.3873 6.42901 11.688 6.61171 11.9111 6.77777C12.1334 6.94325 12.3433 7.13678 12.459 7.40375C12.6237 7.78407 12.6237 8.2158 12.459 8.59613C12.3433 8.8631 12.1334 9.05663 11.9111 9.22211C11.688 9.38819 11.3873 9.57084 11.0264 9.79144L6.69531 12.4389C6.30591 12.6769 5.98413 12.8738 5.71875 13.0043C5.4565 13.1333 5.1729 13.2379 4.86914 13.2114C4.44051 13.1738 4.04848 12.954 3.79297 12.6078C3.6119 12.3625 3.55307 12.0659 3.52637 11.7748C3.49937 11.4804 3.5 11.1032 3.5 10.6469V5.35297L3.50293 4.72797C3.50618 4.53999 3.51287 4.37221 3.52637 4.22504C3.55307 3.93401 3.6119 3.63736 3.79297 3.39203C4.04849 3.0459 4.44055 2.82604 4.86914 2.78851Z" stroke="#E6E6E6" stroke-linejoin="round"/>
<path d="M4 5.35289V10.6471C4 11.5797 4 12.046 4.19541 12.3108C4.36577 12.5416 4.62706 12.6881 4.91286 12.7131C5.24067 12.7418 5.63855 12.4987 6.43432 12.0124L10.766 9.36525C11.5046 8.91386 11.8739 8.68816 11.9998 8.3976C12.1098 8.14393 12.1098 7.85607 11.9998 7.6024C11.8739 7.31184 11.5046 7.08614 10.766 6.63475L6.43432 3.98764C5.63855 3.50134 5.24067 3.25819 4.91286 3.28686C4.62706 3.31186 4.36577 3.4584 4.19541 3.68923C4 3.95399 4 4.42029 4 5.35289Z" fill="#2D52D2"/>
</svg>
