<svg width="16" height="16" viewBox="0 0 16 16" fill="none" xmlns="http://www.w3.org/2000/svg">
<path d="M4.53516 2.3399C4.89418 2.19585 5.30417 2.22498 5.64258 2.4278L13.1426 6.9278C13.5192 7.15378 13.75 7.56114 13.75 8.00006C13.75 8.43896 13.5192 8.84636 13.1426 9.07233L5.64258 13.5723C5.25587 13.8041 4.77549 13.8089 4.38477 13.588V13.587C3.99353 13.3655 3.75003 12.9511 3.75 12.5001V9.25006H3.5C2.80967 9.25006 2.25004 8.69038 2.25 8.00006C2.25 7.3097 2.80964 6.75006 3.5 6.75006H6.77246C7.46282 6.75006 8.02246 7.30971 8.02246 8.00006C8.02242 8.69038 7.46279 9.25006 6.77246 9.25006H6.25V10.2911L10.0693 7.99908L6.23242 5.69635C6.13807 6.29325 5.62343 6.75006 5 6.75006C4.30967 6.75006 3.75004 6.19038 3.75 5.50006V3.50006C3.75 3.48875 3.75021 3.47717 3.75098 3.46588L3.75781 3.3653C3.75856 3.35429 3.76024 3.34302 3.76172 3.33209C3.81382 2.94754 4.04273 2.60583 4.38477 2.41217L4.53516 2.3399Z" stroke="#E6E6E6" stroke-linejoin="round"/>
<path d="M5 8V12.5L12.5 8L5 3.5V5.5M5 8H6.77273M5 8H3.5" stroke="#2D52D2" stroke-width="1.5" stroke-linecap="round" stroke-linejoin="round"/>
</svg>
