<svg width="16" height="16" viewBox="0 0 16 16" fill="none" xmlns="http://www.w3.org/2000/svg"><path d="M12.9996 7.25C13.4138 7.25 13.7496 7.58579 13.7496 8C13.7496 9.26572 13.3317 10.4958 12.5612 11.5C11.7906 12.5041 10.7104 13.2261 9.48792 13.5537L9.41272 13.5703C9.03762 13.6309 8.66944 13.3984 8.56897 13.0234C8.46213 12.6237 8.69975 12.2129 9.09924 12.1055L9.43323 12.001C10.1992 11.7265 10.8733 11.2363 11.3717 10.5869C11.9411 9.84474 12.2496 8.93542 12.2496 8C12.2496 7.58591 12.5856 7.25019 12.9996 7.25ZM7.99963 2.25C8.41385 2.25 8.74963 2.58579 8.74963 3C8.74963 3.41421 8.41385 3.75 7.99963 3.75C6.96879 3.75009 5.97296 4.12507 5.19788 4.80469C4.42278 5.48451 3.92034 6.42314 3.78577 7.44531C3.65123 8.46743 3.89276 9.5041 4.46545 10.3613C5.00241 11.1649 5.79688 11.7596 6.71448 12.0508L6.90002 12.1055L6.97229 12.1289C7.32775 12.2637 7.53061 12.6483 7.4303 13.0234C7.32305 13.4235 6.91142 13.6609 6.51135 13.5537C5.16409 13.1926 3.99331 12.3541 3.21838 11.1943C2.44358 10.0345 2.11641 8.6319 2.29846 7.24902C2.48061 5.8662 3.16002 4.59644 4.20862 3.67676C5.25731 2.75717 6.60486 2.25009 7.99963 2.25ZM9.85022 3.29492C10.0443 2.95873 10.4596 2.82974 10.8063 2.98535L10.8746 3.02051L11.1949 3.21973C11.8221 3.63891 12.3607 4.17759 12.7799 4.80469L12.9791 5.125L13.0143 5.19336C13.1701 5.54008 13.041 5.95525 12.7047 6.14941C12.3685 6.34334 11.9446 6.24757 11.7223 5.93945L11.6803 5.875L11.5328 5.6377C11.1714 5.09723 10.6898 4.64566 10.1246 4.31934C9.76619 4.11218 9.64329 3.65352 9.85022 3.29492Z" fill="currentColor"/></svg>