<svg width="16" height="16" viewBox="0 0 16 16" fill="none" xmlns="http://www.w3.org/2000/svg"><path d="M13.4004 0.25C13.6679 0.249999 13.9139 0.249911 14.1182 0.266602C14.3312 0.284029 14.5647 0.323143 14.7949 0.44043C15.124 0.608177 15.3918 0.875971 15.5596 1.20508C15.6769 1.43527 15.716 1.66879 15.7334 1.88184C15.7501 2.08611 15.75 2.33211 15.75 2.59961V13.4004C15.75 13.6679 15.7501 13.9139 15.7334 14.1182C15.716 14.3312 15.6769 14.5647 15.5596 14.7949C15.3918 15.124 15.124 15.3918 14.7949 15.5596C14.5647 15.6769 14.3312 15.716 14.1182 15.7334C13.9139 15.7501 13.6679 15.75 13.4004 15.75H2.59961C2.33211 15.75 2.08611 15.7501 1.88184 15.7334C1.66879 15.716 1.43527 15.6769 1.20508 15.5596C0.875971 15.3918 0.608177 15.124 0.44043 14.7949C0.323143 14.5647 0.284029 14.3312 0.266602 14.1182C0.249911 13.9139 0.249999 13.6679 0.25 13.4004V2.59961C0.249999 2.33211 0.249911 2.08611 0.266602 1.88184C0.284029 1.66879 0.323143 1.43527 0.44043 1.20508C0.608177 0.875971 0.875971 0.608177 1.20508 0.44043C1.43527 0.323143 1.66879 0.284029 1.88184 0.266602C2.08611 0.249911 2.33211 0.249999 2.59961 0.25H13.4004ZM2.59961 1.75C2.30744 1.75 2.13298 1.7502 2.00391 1.76074C1.88384 1.77058 1.87034 1.78569 1.88672 1.77734C1.83968 1.80131 1.80131 1.83968 1.77734 1.88672C1.78569 1.87034 1.77058 1.88384 1.76074 2.00391C1.7502 2.13298 1.75 2.30744 1.75 2.59961V13.4004C1.75 13.6926 1.7502 13.867 1.76074 13.9961C1.77058 14.1162 1.78569 14.1297 1.77734 14.1133C1.80131 14.1603 1.83968 14.1987 1.88672 14.2227C1.87034 14.2143 1.88384 14.2294 2.00391 14.2393C2.13298 14.2498 2.30744 14.25 2.59961 14.25H13.4004C13.6926 14.25 13.867 14.2498 13.9961 14.2393C14.1162 14.2294 14.1297 14.2143 14.1133 14.2227C14.1603 14.1987 14.1987 14.1603 14.2227 14.1133C14.2143 14.1297 14.2294 14.1162 14.2393 13.9961C14.2498 13.867 14.25 13.6926 14.25 13.4004V2.59961C14.25 2.30744 14.2498 2.13298 14.2393 2.00391C14.2294 1.88384 14.2143 1.87034 14.2227 1.88672C14.1987 1.83968 14.1603 1.80131 14.1133 1.77734C14.1297 1.78569 14.1162 1.77058 13.9961 1.76074C13.867 1.7502 13.6926 1.75 13.4004 1.75H2.59961ZM5 6.25C5.41421 6.25 5.75 6.58579 5.75 7V11C5.75 11.4142 5.41421 11.75 5 11.75C4.58579 11.75 4.25 11.4142 4.25 11V7C4.25 6.58579 4.58579 6.25 5 6.25ZM8 4.25C8.41421 4.25 8.75 4.58579 8.75 5V11C8.75 11.4142 8.41421 11.75 8 11.75C7.58579 11.75 7.25 11.4142 7.25 11V5C7.25 4.58579 7.58579 4.25 8 4.25ZM11 7.25C11.4142 7.25 11.75 7.58579 11.75 8V11C11.75 11.4142 11.4142 11.75 11 11.75C10.5858 11.75 10.25 11.4142 10.25 11V8C10.25 7.58579 10.5858 7.25 11 7.25Z" fill="currentColor"/></svg>