<svg width="16" height="16" viewBox="0 0 16 16" fill="none" xmlns="http://www.w3.org/2000/svg">
<path d="M8 2.25C8.79023 2.25 9.50384 2.64347 10 3.26367C10.2405 3.56437 10.4239 3.90987 10.5488 4.27539C10.6717 4.63509 10.6423 4.98489 10.5166 5.28516C10.5763 5.33106 10.641 5.37752 10.7051 5.43066C11.014 5.68665 11.3744 6.0363 11.708 6.47852L12.5752 5.88184L12.6396 5.8418C12.973 5.65878 13.3979 5.75525 13.6182 6.0752C13.8526 6.41633 13.7658 6.8834 13.4248 7.11816L12.4395 7.79688C12.5503 8.09241 12.6366 8.40999 12.6895 8.75H14C14.4142 8.75 14.75 9.08579 14.75 9.5C14.75 9.91421 14.4142 10.25 14 10.25H12.6895C12.6366 10.5903 12.5505 10.9083 12.4395 11.2041L13.4248 11.8818L13.4863 11.9287C13.7761 12.1748 13.8384 12.6059 13.6182 12.9258C13.3833 13.2669 12.9154 13.353 12.5742 13.1182L11.708 12.5225C11.3745 12.9644 11.0138 13.3135 10.7051 13.5693C10.4749 13.7601 10.269 13.904 10.1182 14.002C10.0426 14.051 9.9799 14.0887 9.93457 14.1152C9.91204 14.1284 9.89365 14.1388 9.87988 14.1465C9.87298 14.1503 9.86683 14.1538 9.8623 14.1562C9.86017 14.1574 9.85802 14.1583 9.85645 14.1592L9.85449 14.1611H9.85352C9.85178 14.1583 9.82866 14.1162 9.5 13.5L9.85254 14.1621C9.48713 14.3567 9.03274 14.2179 8.83789 13.8525C8.64378 13.488 8.78115 13.0355 9.14453 12.8398L9.14844 12.8369C9.15355 12.8341 9.16344 12.8291 9.17676 12.8213C9.20375 12.8055 9.24686 12.7798 9.30176 12.7441C9.41189 12.6727 9.56946 12.5621 9.74805 12.4141C10.1088 12.1151 10.5347 11.6781 10.8398 11.1113C11.0828 10.6598 11.25 10.1254 11.25 9.5C11.25 8.8746 11.0828 8.34015 10.8398 7.88867C10.5347 7.32192 10.1088 6.88494 9.74805 6.58594C9.56946 6.43794 9.41189 6.32733 9.30176 6.25586C9.28612 6.24571 9.27041 6.23804 9.25684 6.22949C9.17225 6.24213 9.08652 6.25 9 6.25H7C6.91348 6.25 6.82775 6.24213 6.74316 6.22949C6.6912 6.26221 6.62269 6.30533 6.54395 6.36133C6.34033 6.50613 6.06775 6.72376 5.79688 7.0127C5.25326 7.59256 4.75 8.41841 4.75 9.5C4.75 10.5816 5.25326 11.4074 5.79688 11.9873C6.06775 12.2762 6.34033 12.4939 6.54395 12.6387C6.64521 12.7107 6.72828 12.7634 6.7832 12.7969C6.81041 12.8135 6.83066 12.8251 6.84277 12.832C6.84865 12.8354 6.85267 12.8379 6.85449 12.8389H6.85352C7.21834 13.0339 7.35656 13.4874 7.16211 13.8525C6.96726 14.2179 6.51287 14.3567 6.14746 14.1621L6.47656 13.5439C6.17036 14.1181 6.14827 14.1584 6.14648 14.1611H6.14551L6.14453 14.1602L6.13086 14.1533C6.12328 14.1491 6.11351 14.1435 6.10156 14.1367C6.07704 14.1228 6.0429 14.1031 6.00195 14.0781C5.92018 14.0283 5.80781 13.9559 5.6748 13.8613C5.40968 13.6728 5.0572 13.3904 4.70312 13.0127C4.56515 12.8655 4.42521 12.7027 4.29004 12.5234L3.4248 13.1182C3.08367 13.3526 2.6166 13.2658 2.38184 12.9248C2.16204 12.605 2.22405 12.1747 2.51367 11.9287L2.5752 11.8818L3.55957 11.2051C3.44851 10.9096 3.36151 10.5914 3.30859 10.25H2C1.58579 10.25 1.25 9.91421 1.25 9.5C1.25 9.08579 1.58579 8.75 2 8.75H3.30859C3.36146 8.40898 3.44866 8.09113 3.55957 7.7959L2.5752 7.11816L2.51367 7.07129C2.22391 6.8252 2.16162 6.39409 2.38184 6.07422C2.61675 5.73314 3.08464 5.64698 3.42578 5.88184L4.29004 6.47754C4.42536 6.29808 4.56499 6.13465 4.70312 5.9873C4.97665 5.69554 5.2493 5.46082 5.48145 5.28223C5.35684 4.98267 5.32875 4.63382 5.45117 4.27539C5.57614 3.90987 5.75945 3.56437 6 3.26367C6.49616 2.64347 7.20977 2.25 8 2.25ZM8 3.75C7.72937 3.75 7.42586 3.88369 7.17188 4.20117C7.05638 4.34555 6.95912 4.52002 6.88672 4.71777C6.89298 4.72163 6.89932 4.72758 6.9082 4.73145C6.9339 4.74256 6.96568 4.75 7 4.75H9C9.03432 4.75 9.0661 4.74256 9.0918 4.73145C9.10034 4.72773 9.10619 4.7215 9.1123 4.71777C9.03991 4.52015 8.94356 4.34548 8.82812 4.20117C8.57414 3.88369 8.27063 3.75 8 3.75Z" fill="black"/>
</svg>
