<svg width="16" height="16" viewBox="0 0 16 16" fill="none" xmlns="http://www.w3.org/2000/svg">
<path d="M10.47 4.46991C10.7629 4.17703 11.2376 4.17703 11.5305 4.46991C11.8232 4.76282 11.8233 5.23764 11.5305 5.53046L9.06079 8.00018L11.5305 10.4699C11.8232 10.7628 11.8233 11.2376 11.5305 11.5305C11.2377 11.8233 10.7629 11.8231 10.47 11.5305L8.00024 9.06073L5.53052 11.5305C5.2377 11.8233 4.76288 11.8231 4.46997 11.5305C4.17708 11.2376 4.17708 10.7628 4.46997 10.4699L6.9397 8.00018L4.46997 5.53046C4.17709 5.23757 4.17709 4.7628 4.46997 4.46991C4.76286 4.17702 5.23762 4.17702 5.53052 4.46991L8.00024 6.93964L10.47 4.46991Z" fill="black"/>
</svg>
