<svg width="16" height="16" viewBox="0 0 16 16" fill="none" xmlns="http://www.w3.org/2000/svg">
<path d="M3.5 8.75C3.91421 8.75 4.25 9.08579 4.25 9.5V10.25H5C5.41421 10.25 5.75 10.5858 5.75 11V11.75H6.5C6.91421 11.75 7.25 12.0858 7.25 12.5C7.25 12.9142 6.91421 13.25 6.5 13.25H5.75V14C5.75 14.4142 5.41421 14.75 5 14.75H2C1.58579 14.75 1.25 14.4142 1.25 14V11C1.25 10.5858 1.58579 10.25 2 10.25H2.75V9.5C2.75 9.08579 3.08579 8.75 3.5 8.75ZM12.5 8.75C12.9142 8.75 13.25 9.08579 13.25 9.5V10.25H14C14.4142 10.25 14.75 10.5858 14.75 11V14C14.75 14.4142 14.4142 14.75 14 14.75H11C10.5858 14.75 10.25 14.4142 10.25 14V13.25H9.5C9.08579 13.25 8.75 12.9142 8.75 12.5C8.75 12.0858 9.08579 11.75 9.5 11.75H10.25V11C10.25 10.5858 10.5858 10.25 11 10.25H11.75V9.5C11.75 9.08579 12.0858 8.75 12.5 8.75ZM2.75 13.25H4.25V11.75H2.75V13.25ZM11.75 13.25H13.25V11.75H11.75V13.25ZM8.96973 5.96973C9.26262 5.67684 9.73738 5.67684 10.0303 5.96973C10.3232 6.26262 10.3232 6.73738 10.0303 7.03027L9.06055 8L10.0303 8.96973C10.3232 9.26262 10.3232 9.73738 10.0303 10.0303C9.73738 10.3232 9.26262 10.3232 8.96973 10.0303L8 9.06055L7.03027 10.0303C6.73738 10.3232 6.26262 10.3232 5.96973 10.0303C5.67684 9.73738 5.67683 9.26262 5.96973 8.96973L6.93945 8L5.96973 7.03027C5.67684 6.73738 5.67683 6.26262 5.96973 5.96973C6.26262 5.67684 6.73738 5.67684 7.03027 5.96973L8 6.93945L8.96973 5.96973ZM5 1.25C5.41421 1.25 5.75 1.58579 5.75 2V2.75H6.5C6.91421 2.75 7.25 3.08579 7.25 3.5C7.25 3.91421 6.91421 4.25 6.5 4.25H5.75V5C5.75 5.41421 5.41421 5.75 5 5.75H4.25V6.5C4.25 6.91421 3.91421 7.25 3.5 7.25C3.08579 7.25 2.75 6.91421 2.75 6.5V5.75H2C1.58579 5.75 1.25 5.41421 1.25 5V2C1.25 1.58579 1.58579 1.25 2 1.25H5ZM14 1.25C14.4142 1.25 14.75 1.58579 14.75 2V5C14.75 5.19891 14.6709 5.38962 14.5303 5.53027C14.3896 5.67093 14.1989 5.75 14 5.75H13.25V6.5C13.25 6.91421 12.9142 7.25 12.5 7.25C12.0858 7.25 11.75 6.91421 11.75 6.5V5.75H11C10.5858 5.75 10.25 5.41421 10.25 5V4.25H9.5C9.08579 4.25 8.75 3.91421 8.75 3.5C8.75 3.08579 9.08579 2.75 9.5 2.75H10.25V2C10.25 1.80109 10.3291 1.61038 10.4697 1.46973C10.6104 1.32907 10.8011 1.25 11 1.25H14ZM2.75 4.25H4.25V2.75H2.75V4.25ZM11.75 4.25H13.25V2.75H11.75V4.25Z" fill="black"/>
</svg>
