<svg width="16" height="16" viewBox="0 0 16 16" fill="none" xmlns="http://www.w3.org/2000/svg">
<path d="M13 6.75C13.4142 6.75 13.75 7.08579 13.75 7.5C13.75 10.4157 11.5797 12.8234 8.7666 13.1982C8.86166 13.7943 9.37716 14.25 10 14.25C10.4142 14.25 10.75 14.5858 10.75 15C10.75 15.4142 10.4142 15.75 10 15.75H6C5.58579 15.75 5.25 15.4142 5.25 15C5.25 14.5858 5.58579 14.25 6 14.25H7.55273C7.38951 13.9311 7.28697 13.5771 7.25977 13.2012C4.43386 12.8379 2.25 10.4247 2.25 7.5C2.25 7.08579 2.58579 6.75 3 6.75C3.41421 6.75 3.75 7.08579 3.75 7.5C3.75 9.84721 5.65279 11.75 8 11.75C10.3472 11.75 12.25 9.84721 12.25 7.5C12.25 7.08579 12.5858 6.75 13 6.75ZM8 1.25C9.79493 1.25 11.25 2.70507 11.25 4.5V7.5C11.25 9.29493 9.79493 10.75 8 10.75C6.20507 10.75 4.75 9.29493 4.75 7.5V4.5C4.75 2.70507 6.20507 1.25 8 1.25ZM8 2.75C7.0335 2.75 6.25 3.5335 6.25 4.5V7.5C6.25 8.4665 7.0335 9.25 8 9.25C8.9665 9.25 9.75 8.4665 9.75 7.5V4.5C9.75 3.5335 8.9665 2.75 8 2.75Z" fill="black"/>
</svg>
