<svg width="16" height="16" viewBox="0 0 16 16" fill="none" xmlns="http://www.w3.org/2000/svg">
<path d="M7.10596 1.25717L9.04053 1.53354C10.281 1.71075 11.3152 2.57425 11.7114 3.76303C11.9281 4.41269 12.4934 4.88391 13.1714 4.9808L15.106 5.25815C15.3868 5.29839 15.6214 5.49302 15.7114 5.76205C15.8012 6.03152 15.7316 6.32974 15.5308 6.53061L6.53076 15.5296C6.23788 15.8225 5.76311 15.8225 5.47021 15.5296C5.17745 15.2367 5.17736 14.7619 5.47021 14.4691L8.40967 11.5296L7.95947 11.4662C6.71912 11.289 5.68495 10.4262 5.28857 9.23764C5.07197 8.58784 4.50668 8.11576 3.82861 8.01889L1.89404 7.74252C1.61312 7.70227 1.37848 7.5068 1.28857 7.23764C1.19874 6.96814 1.26934 6.67094 1.47021 6.47006L6.47021 1.46909C6.63706 1.30259 6.87259 1.2239 7.10596 1.25717ZM3.59131 6.47006L4.04053 6.53354C5.28104 6.71075 6.31516 7.57423 6.71143 8.76303C6.92806 9.41275 7.49338 9.88395 8.17139 9.9808L9.73584 10.2044L13.4097 6.52963L12.9595 6.46616C11.719 6.28892 10.6848 5.42545 10.2886 4.23666C10.0719 3.58711 9.50649 3.11576 8.82861 3.01889L7.26514 2.79526L3.59131 6.47006Z" fill="black"/>
</svg>
