<svg width="16" height="16" viewBox="0 0 16 16" fill="none" xmlns="http://www.w3.org/2000/svg">
<path fill-rule="evenodd" clip-rule="evenodd" d="M4.62178 11.3938C4.65552 11.396 4.67889 11.4097 4.69795 11.4377C4.71759 11.4674 4.71055 11.5476 4.69698 11.7073C4.61481 12.6742 4.90867 13.6034 5.46944 14.3908C5.56194 14.5207 5.60832 14.5859 5.60616 14.6213C5.604 14.6553 5.59035 14.6783 5.56221 14.6975C5.53272 14.7173 5.45274 14.7111 5.29268 14.6975C4.32515 14.6153 3.39614 14.9091 2.60811 15.47C2.47863 15.5621 2.41408 15.6087 2.37862 15.6067C2.34467 15.6045 2.32158 15.5908 2.30245 15.5627C2.28255 15.5333 2.28881 15.4533 2.30245 15.2932C2.38483 14.3255 2.09094 13.3968 1.52999 12.6086C1.43759 12.4788 1.39101 12.4136 1.39327 12.3782C1.39549 12.3444 1.40917 12.3211 1.43721 12.302C1.46681 12.2823 1.54698 12.2893 1.70674 12.303C2.67401 12.3853 3.60364 12.0915 4.39131 11.5305C4.52117 11.438 4.58637 11.3915 4.62178 11.3938ZM7.26045 0.489482C7.34856 0.506792 7.47568 0.660959 7.7292 0.969951C9.5185 3.15068 12.0333 4.45296 14.8064 4.88792C15.1975 4.94928 15.3933 4.97995 15.4528 5.0471C15.5091 5.11068 15.5278 5.17758 15.5114 5.26097C15.4941 5.34908 15.339 5.47616 15.03 5.72972C12.8484 7.51995 11.5491 10.0339 11.113 12.8078C11.0516 13.1982 11.0208 13.3936 10.9538 13.4533C10.8903 13.5097 10.8232 13.5282 10.7399 13.5119C10.6518 13.4946 10.5252 13.34 10.2722 13.0315C8.48184 10.8488 5.96678 9.54866 3.1921 9.11253C2.80139 9.05112 2.60614 9.02053 2.54659 8.95335C2.49023 8.88973 2.47159 8.82289 2.48799 8.73948C2.50537 8.65138 2.65992 8.52477 2.96846 8.27171C5.14995 6.48243 6.45237 3.96803 6.88741 1.19456C6.94881 0.803049 6.97943 0.606719 7.04659 0.547099C7.11014 0.490729 7.17715 0.473208 7.26045 0.489482Z" fill="black"/>
</svg>
