<svg width="16" height="16" viewBox="0 0 16 16" fill="none" xmlns="http://www.w3.org/2000/svg">
<path d="M13 2.25C13.1988 2.25005 13.3897 2.32923 13.5303 2.46973C13.6708 2.61035 13.75 2.80117 13.75 3L13.751 4.5L13.7402 4.62402C13.7198 4.74608 13.6686 4.86223 13.5918 4.96094L10.251 9.25684L10.25 14C10.2499 14.2409 10.1339 14.4675 9.93848 14.6084C9.74293 14.7492 9.49133 14.7871 9.2627 14.7109L6.2627 13.7109C5.95673 13.6088 5.75012 13.3226 5.75 13L5.75098 9.25684L2.4082 4.95996C2.30605 4.82842 2.25003 4.66655 2.25 4.5V3C2.25003 2.80116 2.32914 2.61035 2.46973 2.46973C2.61036 2.32915 2.80115 2.25001 3 2.25H13ZM3.75 4.24219L7.0918 8.54004L7.15918 8.64355C7.21798 8.75241 7.24996 8.87499 7.25 9L7.25098 12.459L8.75098 12.959V9C8.75103 8.8333 8.80586 8.67065 8.9082 8.53906L12.251 4.24316V3.75H3.75098L3.75 4.24219Z" fill="black"/>
</svg>
