<svg width="16" height="16" viewBox="0 0 16 16" fill="none" xmlns="http://www.w3.org/2000/svg">
<path d="M7.63379 1.84598C7.89873 1.69751 8.2328 1.72236 8.47461 1.9202L13.9746 6.4202C14.1486 6.56264 14.25 6.77539 14.25 7.00027V12.5003C14.2498 12.9144 13.9141 13.2503 13.5 13.2503C13.0859 13.2503 12.7502 12.9144 12.75 12.5003V7.35477L8 3.46805L3.25 7.35477V12.5003C3.24984 12.9144 2.91412 13.2503 2.5 13.2503C2.08588 13.2503 1.75016 12.9144 1.75 12.5003V7.00027C1.75 6.77539 1.85138 6.56264 2.02539 6.4202L7.52539 1.9202L7.63379 1.84598ZM9.38477 8.25027C9.79891 8.25036 10.1348 8.58611 10.1348 9.00027V12.5003C10.1346 12.9143 9.79881 13.2502 9.38477 13.2503C8.97065 13.2503 8.63492 12.9144 8.63477 12.5003V9.75027H7.36523V12.5003C7.36508 12.9144 7.02935 13.2503 6.61523 13.2503C6.20119 13.2502 5.86539 12.9143 5.86523 12.5003V9.00027C5.86523 8.58611 6.20109 8.25036 6.61523 8.25027H9.38477Z" fill="black"/>
</svg>
