<svg width="16" height="16" viewBox="0 0 16 16" fill="none" xmlns="http://www.w3.org/2000/svg">
<path d="M13.3778 5.58298C13.6079 5.23964 14.0718 5.14658 14.4159 5.37595C14.7605 5.60571 14.8537 6.07134 14.6239 6.41599L13.9999 5.99997C14.5995 6.39969 14.6231 6.41603 14.6239 6.41696H14.6229L14.6219 6.41891C14.6212 6.42 14.62 6.4214 14.619 6.42282C14.6171 6.42568 14.615 6.42943 14.6122 6.43356C14.6061 6.44234 14.5979 6.45454 14.5878 6.46872C14.5676 6.49701 14.539 6.53541 14.5028 6.58298C14.43 6.6786 14.324 6.81082 14.1854 6.96677C13.9086 7.27815 13.4972 7.68918 12.9501 8.09958C12.6788 8.30307 12.3734 8.50772 12.0341 8.69919L12.6239 9.58395C12.8537 9.9286 12.7605 10.3942 12.4159 10.624C12.0713 10.8537 11.6056 10.7606 11.3759 10.416L10.6454 9.31931C10.075 9.51267 9.44314 9.65574 8.74988 9.71677V11C8.74988 11.4142 8.41409 11.75 7.99988 11.75C7.58569 11.7499 7.24988 11.4142 7.24988 11V9.71677C6.55697 9.65576 5.92548 9.51253 5.35535 9.31931L4.6239 10.416C4.39413 10.7606 3.9285 10.8538 3.58386 10.624C3.23927 10.3942 3.14612 9.92858 3.37585 9.58395L3.96667 8.69919C3.62707 8.5076 3.32119 8.30321 3.04968 8.09958C2.50255 7.68918 2.09111 7.27814 1.81433 6.96677C1.67572 6.81082 1.5698 6.67859 1.49695 6.58298C1.46072 6.53542 1.43211 6.49701 1.41199 6.46872C1.40191 6.45455 1.39361 6.44233 1.38757 6.43356C1.38474 6.42944 1.38267 6.42567 1.38074 6.42282C1.37977 6.42141 1.37853 6.42 1.37781 6.41891L1.37683 6.41696H1.37585C1.37586 6.41652 1.38689 6.40863 1.99988 5.99997L1.37585 6.41599C1.14614 6.07136 1.23926 5.60571 1.58386 5.37595C1.92812 5.14644 2.39289 5.23929 2.62292 5.58298H2.6239C2.62565 5.58552 2.62922 5.59097 2.63464 5.5986C2.64571 5.61416 2.66429 5.64062 2.69031 5.67477C2.74244 5.74318 2.8243 5.84565 2.93542 5.97067C3.15858 6.22171 3.49749 6.56091 3.95007 6.90036C4.85318 7.57761 6.19924 8.24995 7.99988 8.24997C9.80052 8.24997 11.1466 7.57761 12.0497 6.90036C12.5023 6.56091 12.8412 6.22171 13.0643 5.97067C13.1755 5.84565 13.2573 5.74319 13.3094 5.67477C13.3355 5.64061 13.354 5.61417 13.3651 5.5986C13.3705 5.59096 13.3741 5.58553 13.3759 5.58298H13.3778Z" fill="black"/>
</svg>
