<svg width="16" height="16" viewBox="0 0 16 16" fill="none" xmlns="http://www.w3.org/2000/svg">
<path d="M8.33301 2.24997C8.92838 2.24997 9.29917 2.24873 9.62012 2.29099C11.7515 2.57166 13.4283 4.24852 13.709 6.37985C13.7512 6.7008 13.75 7.07159 13.75 7.66696V7.99997C13.75 9.51875 12.5188 10.75 11 10.75C10.4628 10.75 9.98312 10.507 9.66211 10.1259L9.39941 10.3017C8.961 10.594 8.44585 10.75 7.91895 10.75H7.85449C6.4163 10.75 5.25 9.58367 5.25 8.14548C5.25016 7.15928 5.80735 6.25743 6.68945 5.81638L6.77051 5.77634C7.54454 5.38943 8.45545 5.38944 9.22949 5.77634L9.28027 5.80075C9.36784 5.48371 9.65511 5.24998 10 5.24997C10.4142 5.24997 10.75 5.58577 10.75 5.99997V8.99997C10.75 9.13803 10.8619 9.24996 11 9.24997C11.6904 9.24997 12.25 8.69033 12.25 7.99997V7.66696C12.25 7.02438 12.2488 6.77498 12.2227 6.57614C12.0306 5.11777 10.8822 3.96931 9.42383 3.77731C9.225 3.75118 8.97557 3.74997 8.33301 3.74997H8C7.03502 3.74997 6.66185 3.7537 6.36621 3.81247C5.07698 4.06892 4.06895 5.07695 3.8125 6.36618C3.75373 6.66182 3.75 7.03499 3.75 7.99997C3.75 8.96494 3.75374 9.33812 3.8125 9.63376C4.06894 10.923 5.07698 11.931 6.36621 12.1875C6.66185 12.2462 7.03502 12.25 8 12.25H10.5C10.9142 12.25 11.25 12.5858 11.25 13C11.25 13.4142 10.9142 13.75 10.5 13.75H8C7.10666 13.75 6.55034 13.754 6.07324 13.6591C4.18898 13.2843 2.71563 11.811 2.34082 9.92673C2.24593 9.44963 2.25 8.89331 2.25 7.99997C2.25 7.10663 2.24592 6.55031 2.34082 6.07321C2.71563 4.18895 4.18898 2.7156 6.07324 2.34079C6.55034 2.24589 7.10666 2.24997 8 2.24997H8.33301ZM8.55859 7.11813C8.20685 6.94239 7.79315 6.94237 7.44141 7.11813L7.36035 7.15817C6.98643 7.34514 6.75016 7.72744 6.75 8.14548C6.75 8.75525 7.24473 9.24996 7.85449 9.24997H7.91895C8.14971 9.24997 8.37537 9.18168 8.56738 9.05368L9.25 8.5986V7.46384L8.55859 7.11813Z" fill="black"/>
</svg>
