<svg width="16" height="16" viewBox="0 0 16 16" fill="none" xmlns="http://www.w3.org/2000/svg">
<path d="M4.99976 1.25009C5.41397 1.25009 5.74976 1.58588 5.74976 2.00009V2.75009H7.49976C7.91397 2.75009 8.24976 3.08588 8.24976 3.50009C8.24971 3.91426 7.91394 4.25009 7.49976 4.25009H5.74976V5.00009C5.74971 5.41426 5.41394 5.75009 4.99976 5.75009H4.24976V10.2501H4.99976C5.41397 10.2501 5.74976 10.5859 5.74976 11.0001V11.7501H10.2498V11.0001C10.2498 10.586 10.5857 10.2502 10.9998 10.2501H11.7498V8.50009C11.7498 8.08596 12.0857 7.75022 12.4998 7.75009C12.914 7.75009 13.2498 8.08588 13.2498 8.50009V10.2501H13.9998C14.1986 10.2501 14.3894 10.3292 14.53 10.4698C14.6707 10.6105 14.7498 10.8012 14.7498 11.0001V14.0001C14.7497 14.4143 14.4139 14.7501 13.9998 14.7501H10.9998C10.8009 14.75 10.6101 14.671 10.4695 14.5304C10.3289 14.3897 10.2498 14.1989 10.2498 14.0001V13.2501H5.74976V14.0001C5.74971 14.4143 5.41394 14.7501 4.99976 14.7501H1.99976C1.58568 14.75 1.24981 14.4142 1.24976 14.0001V11.0001C1.24976 10.586 1.58565 10.2502 1.99976 10.2501H2.74976V5.75009H1.99976C1.58568 5.74996 1.24981 5.41418 1.24976 5.00009V2.00009C1.24976 1.58596 1.58565 1.25022 1.99976 1.25009H4.99976ZM2.74976 11.7501V13.2501H4.24976V11.7501H2.74976ZM11.7498 11.7501V13.2501H13.2498V11.7501H11.7498ZM14.0007 1.25009C14.4146 1.25048 14.7507 1.58613 14.7507 2.00009L14.7498 5.50009C14.7496 5.91419 14.4139 6.25009 13.9998 6.25009C13.5857 6.24995 13.2499 5.9141 13.2498 5.50009V3.81161L10.53 6.53036C10.2372 6.82304 9.76234 6.82301 9.46948 6.53036C9.17692 6.2375 9.17683 5.76263 9.46948 5.46982L12.1902 2.75009H10.4998C10.0858 2.74979 9.74983 2.41406 9.74976 2.00009C9.74978 1.58608 10.0858 1.25039 10.4998 1.25009H14.0007ZM2.74976 2.75009V4.25009H4.24976V2.75009H2.74976Z" fill="black"/>
</svg>
