<svg width="16" height="16" viewBox="0 0 16 16" fill="none" xmlns="http://www.w3.org/2000/svg">
<path d="M3.96973 8.46979C4.26262 8.1769 4.73738 8.17691 5.03027 8.46979C5.32314 8.76268 5.32316 9.23745 5.03027 9.53033L3.81055 10.7501H10.25V10.0001C10.25 9.58585 10.5858 9.25006 11 9.25006H14C14.4142 9.25006 14.75 9.58585 14.75 10.0001V13.0001C14.75 13.4142 14.4142 13.7501 14 13.7501H11C10.8011 13.7501 10.6104 13.671 10.4697 13.5303C10.3291 13.3897 10.25 13.199 10.25 13.0001V12.2501H3.81055L5.03027 13.4698C5.32314 13.7627 5.32316 14.2375 5.03027 14.5303C4.73739 14.8232 4.26261 14.8232 3.96973 14.5303L1.46973 12.0303C1.32909 11.8897 1.25002 11.6989 1.25 11.5001C1.25 11.3012 1.3291 11.1104 1.46973 10.9698L3.96973 8.46979ZM11.75 12.2501H13.25V10.7501H11.75V12.2501ZM10.9697 1.46979C11.2626 1.1769 11.7374 1.1769 12.0303 1.46979L14.5303 3.96979C14.8231 4.26268 14.8231 4.73745 14.5303 5.03033L12.0303 7.53033C11.7374 7.82318 11.2626 7.82318 10.9697 7.53033C10.6768 7.23745 10.6769 6.76268 10.9697 6.46979L12.1895 5.25006H5.75V6.00006C5.74997 6.41425 5.41419 6.75006 5 6.75006H2C1.58581 6.75006 1.25003 6.41425 1.25 6.00006V3.00006C1.25 2.80116 1.32909 2.61044 1.46973 2.46979C1.61038 2.32914 1.80109 2.25006 2 2.25006H5C5.19891 2.25006 5.38962 2.32914 5.53027 2.46979C5.67091 2.61044 5.75 2.80116 5.75 3.00006V3.75006H12.1895L10.9697 2.53033C10.6768 2.23745 10.6769 1.76268 10.9697 1.46979ZM2.75 5.25006H4.25V3.75006H2.75V5.25006Z" fill="black"/>
</svg>
