<svg width="16" height="16" viewBox="0 0 16 16" fill="none" xmlns="http://www.w3.org/2000/svg">
<path fill-rule="evenodd" clip-rule="evenodd" d="M11.5 6C12.8807 6 14 4.88071 14 3.5C14 2.11929 12.8807 1 11.5 1C10.1193 1 9 2.11929 9 3.5C9 3.67681 9.01836 3.84934 9.05326 4.01578L5.21089 6.17712C4.76366 5.75721 4.16187 5.5 3.5 5.5C2.11929 5.5 1 6.61929 1 8C1 9.38071 2.11929 10.5 3.5 10.5C4.16187 10.5 4.76366 10.2428 5.21089 9.82288L9.05326 11.9842C9.01836 12.1507 9 12.3232 9 12.5C9 13.8807 10.1193 15 11.5 15C12.8807 15 14 13.8807 14 12.5C14 11.1193 12.8807 10 11.5 10C10.8381 10 10.2363 10.2572 9.78911 10.6771L5.94673 8.51578C5.98164 8.34934 6 8.17681 6 8C6 7.82319 5.98164 7.65066 5.94673 7.48422L9.78911 5.32288C10.2363 5.74279 10.8381 6 11.5 6Z" fill="black"/>
</svg>
