<svg width="16" height="16" viewBox="0 0 16 16" fill="none" xmlns="http://www.w3.org/2000/svg">
<path d="M8 3.25C11.1756 3.25 13.75 5.82436 13.75 9C13.75 12.1756 11.1756 14.75 8 14.75C4.82436 14.75 2.25 12.1756 2.25 9C2.25 5.82436 4.82436 3.25 8 3.25ZM8 4.75C5.65279 4.75 3.75 6.65279 3.75 9C3.75 11.3472 5.65279 13.25 8 13.25C10.3472 13.25 12.25 11.3472 12.25 9C12.25 6.65279 10.3472 4.75 8 4.75ZM8.96973 6.96973C9.26262 6.67683 9.73738 6.67683 10.0303 6.96973C10.3232 7.26262 10.3232 7.73738 10.0303 8.03027L8.53027 9.53027C8.23738 9.82317 7.76262 9.82317 7.46973 9.53027C7.17683 9.23738 7.17683 8.76262 7.46973 8.46973L8.96973 6.96973ZM9 1.25C9.41421 1.25 9.75 1.58579 9.75 2C9.75 2.41421 9.41421 2.75 9 2.75H7C6.58579 2.75 6.25 2.41421 6.25 2C6.25 1.58579 6.58579 1.25 7 1.25H9Z" fill="black"/>
</svg>
