<svg width="16" height="16" viewBox="0 0 16 16" fill="none" xmlns="http://www.w3.org/2000/svg">
<path d="M10 1.25C10.6956 1.25001 11.3588 1.3998 11.9561 1.66992C12.1802 1.77141 12.3406 1.97669 12.3848 2.21875C12.4289 2.46097 12.3508 2.70968 12.1768 2.88379L10.0605 5L11 5.93945L13.1162 3.82324L13.1846 3.7627C13.3521 3.63165 13.5692 3.57657 13.7812 3.61523C14.0235 3.65943 14.2286 3.82059 14.3301 4.04492C14.6001 4.64214 14.75 5.30456 14.75 6C14.75 8.62332 12.6233 10.7499 10 10.75C9.49114 10.75 8.99996 10.6694 8.53906 10.5205L5.03027 14.0303C4.18511 14.8754 2.81488 14.8754 1.96973 14.0303C1.12465 13.1851 1.12465 11.8149 1.96973 10.9697L5.47852 7.45996C5.3299 6.99938 5.25 6.50845 5.25 6C5.25 3.3767 7.37671 1.25008 10 1.25ZM10 2.75C8.20514 2.75008 6.75 4.20512 6.75 6C6.75 6.47827 6.85307 6.93093 7.03711 7.33789C7.16545 7.62216 7.10433 7.95617 6.88379 8.17676L3.03027 12.0303C2.77098 12.2896 2.77098 12.7104 3.03027 12.9697C3.28964 13.229 3.71035 13.229 3.96973 12.9697L7.82324 9.11621L7.91113 9.04102C8.12685 8.8833 8.41428 8.85037 8.66309 8.96289C9.06992 9.14682 9.52191 9.24998 10 9.25C11.7949 9.24994 13.25 7.79489 13.25 6C13.25 5.93801 13.2475 5.8765 13.2441 5.81543L11.5303 7.53027C11.3897 7.67085 11.1988 7.74997 11 7.75C10.8012 7.74996 10.6103 7.67086 10.4697 7.53027L8.46973 5.53027C8.17694 5.2374 8.17694 4.7626 8.46973 4.46973L10.1836 2.75488C10.1229 2.75152 10.0616 2.75 10 2.75Z" fill="black"/>
</svg>
