<svg width="16" height="16" viewBox="0 0 16 16" fill="none" xmlns="http://www.w3.org/2000/svg">
<path d="M11 2.25C12.5188 2.25 13.75 3.48122 13.75 5C13.75 5.41421 13.4142 5.75 13 5.75C12.5858 5.75 12.25 5.41421 12.25 5C12.25 4.30964 11.6904 3.75 11 3.75C10.3096 3.75 9.75 4.30964 9.75 5V7.25H10C10.9665 7.25 11.75 8.0335 11.75 9V12C11.75 12.9665 10.9665 13.75 10 13.75H4C3.0335 13.75 2.25 12.9665 2.25 12V9C2.25 8.0335 3.0335 7.25 4 7.25H8.25V5C8.25 3.48122 9.48122 2.25 11 2.25ZM4 8.75C3.86193 8.75 3.75 8.86193 3.75 9V12C3.75 12.1381 3.86193 12.25 4 12.25H10C10.1381 12.25 10.25 12.1381 10.25 12V9C10.25 8.86193 10.1381 8.75 10 8.75H4Z" fill="black"/>
</svg>
