<svg width="16" height="16" viewBox="0 0 16 16" fill="none" xmlns="http://www.w3.org/2000/svg">
<path d="M10 13.75C10.4142 13.75 10.75 14.0858 10.75 14.5C10.75 14.9142 10.4142 15.25 10 15.25H6C5.58579 15.25 5.25 14.9142 5.25 14.5C5.25 14.0858 5.58579 13.75 6 13.75H10ZM13 3C13.5523 3 14 3.44772 14 4V12C14 12.5523 13.5523 13 13 13H12.4941C12.2761 13 12.1668 12.9998 12.084 12.9697C12.0011 12.9396 11.9522 12.9079 11.8916 12.8438C11.8311 12.7797 11.7782 12.6577 11.6729 12.4141C11.0588 10.994 9.64559 10 8 10C6.35441 10 4.94122 10.994 4.32715 12.4141C4.22181 12.6577 4.16888 12.7797 4.1084 12.8438C4.04782 12.9078 3.99886 12.9396 3.91602 12.9697C3.83323 12.9998 3.7239 13 3.50586 13H3C2.44772 13 2 12.5523 2 12V4C2 3.44772 2.44772 3 3 3H13ZM8 5C6.89543 5 6 5.89543 6 7C6 8.10457 6.89543 9 8 9C9.10457 9 10 8.10457 10 7C10 5.89543 9.10457 5 8 5Z" fill="black"/>
</svg>
