<svg width="16" height="16" viewBox="0 0 16 16" fill="none" xmlns="http://www.w3.org/2000/svg">
<path d="M7.99988 7.25C9.51866 7.25 10.7499 8.48122 10.7499 10C10.7499 11.5188 9.51866 12.75 7.99988 12.75C6.48113 12.75 5.24988 11.5188 5.24988 10C5.24988 8.48124 6.48113 7.25004 7.99988 7.25ZM7.99988 8.75C7.30955 8.75004 6.74988 9.30967 6.74988 10C6.74988 10.6903 7.30955 11.25 7.99988 11.25C8.69023 11.25 9.24988 10.6904 9.24988 10C9.24988 9.30964 8.69023 8.75 7.99988 8.75ZM7.99988 4.25C10.199 4.25 11.8532 5.07774 12.9501 5.90039C13.4972 6.31078 13.9086 6.72182 14.1854 7.0332C14.324 7.18915 14.43 7.32137 14.5028 7.41699C14.539 7.46456 14.5676 7.50296 14.5878 7.53125C14.5978 7.54543 14.6061 7.55763 14.6122 7.56641C14.615 7.57053 14.6171 7.57429 14.619 7.57715C14.62 7.57857 14.6212 7.57997 14.6219 7.58105L14.6229 7.58301H14.6239C14.6241 7.58328 14.6237 7.5837 14.1825 7.87793L14.6239 7.58398C14.8537 7.92863 14.7605 8.39426 14.4159 8.62402C14.0716 8.8535 13.6068 8.7607 13.3768 8.41699H13.3759C13.3741 8.41443 13.3705 8.40899 13.3651 8.40137C13.354 8.3858 13.3355 8.35935 13.3094 8.3252C13.2573 8.25678 13.1755 8.15432 13.0643 8.0293C12.8412 7.77826 12.5023 7.43905 12.0497 7.09961C11.1466 6.42236 9.80052 5.75 7.99988 5.75C6.19924 5.75002 4.85318 6.42236 3.95007 7.09961C3.49748 7.43906 3.15858 7.77826 2.93542 8.0293C2.82429 8.15432 2.74244 8.25679 2.69031 8.3252C2.66428 8.35936 2.64571 8.38581 2.63464 8.40137C2.62921 8.40901 2.62565 8.41445 2.6239 8.41699H2.62195C2.39181 8.76032 1.92797 8.85343 1.58386 8.62402C1.23926 8.39426 1.14613 7.92861 1.37585 7.58398L1.81726 7.87793C1.38251 7.58802 1.37578 7.58334 1.37585 7.58301H1.37683L1.37781 7.58105C1.37854 7.57997 1.37977 7.57857 1.38074 7.57715C1.38267 7.5743 1.38474 7.57054 1.38757 7.56641C1.39361 7.55763 1.4019 7.54543 1.41199 7.53125C1.43211 7.50296 1.46071 7.46456 1.49695 7.41699C1.5698 7.32138 1.67572 7.18915 1.81433 7.0332C2.09111 6.72182 2.50255 6.31079 3.04968 5.90039C4.14655 5.07774 5.80079 4.25002 7.99988 4.25Z" fill="black"/>
</svg>
