<svg width="16" height="16" viewBox="0 0 16 16" fill="none" xmlns="http://www.w3.org/2000/svg"><g clip-path="url(#clip0_1119_1057)"><path d="M3.43378 1.849C3.79359 1.26021 4.56235 1.07414 5.15155 1.43396L9.76581 4.2533C9.77673 4.25961 9.78686 4.26617 9.79608 4.27185L14.1516 6.93396C14.5223 7.16062 14.7502 7.56416 14.7502 8.00037C14.7501 8.43654 14.5223 8.8402 14.1516 9.06677L9.79608 11.7279C9.78967 11.7319 9.78235 11.7346 9.77557 11.7386L5.15155 14.5668C4.56244 14.9265 3.79366 14.7403 3.43378 14.1517C3.07395 13.5625 3.26003 12.7938 3.84882 12.434L6.89569 10.5707L5.48944 9.54138L2.72577 11.517C2.16379 11.918 1.38359 11.7873 0.982605 11.226C0.581666 10.664 0.712391 9.88378 1.27362 9.48279L3.34882 7.99939L1.27362 6.51697C0.712489 6.11593 0.581638 5.33569 0.982605 4.7738L1.06268 4.67322C1.48089 4.19819 2.1991 4.10703 2.72577 4.48279L5.49042 6.4574L6.89569 5.4281L3.84882 3.56677C3.26006 3.20697 3.07402 2.43819 3.43378 1.849ZM7.61542 7.99939L9.20233 9.1615L11.1037 7.99939L9.20233 6.83728L7.61542 7.99939Z" stroke="#E6E6E6" stroke-linejoin="round"/><path d="M5.5 8.00002L9.00002 10.5L13.5 8.00002L9.00002 5.5L5.5 8.00002Z" fill="#8BDBFE"/><path d="M4.5 13.5L13.5 8L4.5 2.5M2 5.5L5.5 8M5.5 8L9.14004 10.6644M5.5 8L2 10.5M5.5 8L9.14004 5.33558" stroke="#2D52D2" stroke-width="1.5" stroke-linecap="round" stroke-linejoin="round"/></g><defs><clipPath id="clip0_1119_1057"><rect width="16" height="16" fill="white"/></clipPath></defs></svg>