<svg width="16" height="16" viewBox="0 0 16 16" fill="none" xmlns="http://www.w3.org/2000/svg"><path d="M9.75 5.25H10.875C10.875 4.62868 10.3713 4.125 9.75 4.125V5.25ZM8.0332 8L7.23031 7.21197C6.80083 7.64955 6.80083 8.35045 7.23031 8.78803L8.0332 8ZM9.75 10.75V11.875C10.3713 11.875 10.875 11.3713 10.875 10.75H9.75ZM9.75 12.25H10.875C10.875 11.6287 10.3713 11.125 9.75 11.125V12.25ZM6.25 8.75V7.625C5.62868 7.625 5.125 8.12868 5.125 8.75H6.25ZM6.25 7.25H5.125C5.125 7.87132 5.62868 8.375 6.25 8.375V7.25ZM9.75 3.75V4.875C10.3713 4.875 10.875 4.37132 10.875 3.75H9.75ZM11.25 12.25H10.125C10.125 12.8713 10.6287 13.375 11.25 13.375V12.25ZM12.75 12.25V13.375C13.3713 13.375 13.875 12.8713 13.875 12.25H12.75ZM12.75 10.75H13.875C13.875 10.1287 13.3713 9.625 12.75 9.625V10.75ZM11.25 10.75V9.625C10.6287 9.625 10.125 10.1287 10.125 10.75H11.25ZM3.25 8.75H2.125C2.125 9.37132 2.62868 9.875 3.25 9.875V8.75ZM4.75 8.75V9.875C5.37132 9.875 5.875 9.37132 5.875 8.75H4.75ZM4.75 7.25H5.875C5.875 6.62868 5.37132 6.125 4.75 6.125V7.25ZM3.25 7.25V6.125C2.62868 6.125 2.125 6.62868 2.125 7.25H3.25ZM11.25 5.25H10.125C10.125 5.87132 10.6287 6.375 11.25 6.375V5.25ZM12.75 5.25V6.375C13.3713 6.375 13.875 5.87132 13.875 5.25H12.75ZM12.75 3.75H13.875C13.875 3.12868 13.3713 2.625 12.75 2.625V3.75ZM11.25 3.75V2.625C10.6287 2.625 10.125 3.12868 10.125 3.75H11.25ZM13.5 2.25V3.375C13.2929 3.375 13.125 3.20711 13.125 3H14.25H15.375C15.375 1.96447 14.5355 1.125 13.5 1.125V2.25ZM14.25 3H13.125V6H14.25H15.375V3H14.25ZM14.25 6H13.125C13.125 5.79289 13.2929 5.625 13.5 5.625V6.75V7.875C14.5355 7.875 15.375 7.03553 15.375 6H14.25ZM13.5 6.75V5.625H10.5V6.75V7.875H13.5V6.75ZM10.5 6.75V5.625C10.7071 5.625 10.875 5.79289 10.875 6H9.75H8.625C8.625 7.03553 9.46447 7.875 10.5 7.875V6.75ZM9.75 6H10.875V5.25H9.75H8.625V6H9.75ZM9.75 5.25V4.125C8.5764 4.125 7.625 5.0764 7.625 6.25H8.75H9.875C9.875 6.31904 9.81904 6.375 9.75 6.375V5.25ZM8.75 6.25H7.625C7.625 6.62366 7.47621 6.96143 7.23031 7.21197L8.0332 8L8.83609 8.78803C9.47556 8.13651 9.875 7.24015 9.875 6.25H8.75ZM8.0332 8L7.23031 8.78803C7.47621 9.03857 7.625 9.37634 7.625 9.75H8.75H9.875C9.875 8.75985 9.47556 7.86349 8.83609 7.21197L8.0332 8ZM8.75 9.75H7.625C7.625 10.9236 8.5764 11.875 9.75 11.875V10.75V9.625C9.81904 9.625 9.875 9.68096 9.875 9.75H8.75ZM9.75 10.75H10.875V10H9.75H8.625V10.75H9.75ZM9.75 10H10.875C10.875 10.2071 10.7071 10.375 10.5 10.375V9.25V8.125C9.46447 8.125 8.625 8.96447 8.625 10H9.75ZM10.5 9.25V10.375H13.5V9.25V8.125H10.5V9.25ZM13.5 9.25V10.375C13.2929 10.375 13.125 10.2071 13.125 10H14.25H15.375C15.375 8.96447 14.5355 8.125 13.5 8.125V9.25ZM14.25 10H13.125V13H14.25H15.375V10H14.25ZM14.25 13H13.125C13.125 12.7929 13.2929 12.625 13.5 12.625V13.75V14.875C14.5355 14.875 15.375 14.0355 15.375 13H14.25ZM13.5 13.75V12.625H10.5V13.75V14.875H13.5V13.75ZM10.5 13.75V12.625C10.7071 12.625 10.875 12.7929 10.875 13H9.75H8.625C8.625 14.0355 9.46447 14.875 10.5 14.875V13.75ZM9.75 13H10.875V12.25H9.75H8.625V13H9.75ZM9.75 12.25V11.125C8.99061 11.125 8.375 10.5094 8.375 9.75H7.25H6.125C6.125 11.752 7.74797 13.375 9.75 13.375V12.25ZM7.25 9.75H8.375C8.375 8.5764 7.4236 7.625 6.25 7.625V8.75V9.875C6.18096 9.875 6.125 9.81904 6.125 9.75H7.25ZM6.25 8.75H5.125V9.5H6.25H7.375V8.75H6.25ZM6.25 9.5H5.125C5.125 9.29289 5.29289 9.125 5.5 9.125V10.25V11.375C6.53553 11.375 7.375 10.5355 7.375 9.5H6.25ZM5.5 10.25V9.125H2.5V10.25V11.375H5.5V10.25ZM2.5 10.25V9.125C2.70711 9.125 2.875 9.29289 2.875 9.5H1.75H0.625C0.625 10.5355 1.46447 11.375 2.5 11.375V10.25ZM1.75 9.5H2.875V6.5H1.75H0.625V9.5H1.75ZM1.75 6.5H2.875C2.875 6.70711 2.70711 6.875 2.5 6.875V5.75V4.625C1.46447 4.625 0.625 5.46447 0.625 6.5H1.75ZM2.5 5.75V6.875H5.5V5.75V4.625H2.5V5.75ZM5.5 5.75V6.875C5.29289 6.875 5.125 6.70711 5.125 6.5H6.25H7.375C7.375 5.46447 6.53553 4.625 5.5 4.625V5.75ZM6.25 6.5H5.125V7.25H6.25H7.375V6.5H6.25ZM6.25 7.25V8.375C7.4236 8.375 8.375 7.4236 8.375 6.25H7.25H6.125C6.125 6.18096 6.18096 6.125 6.25 6.125V7.25ZM7.25 6.25H8.375C8.375 5.49061 8.99061 4.875 9.75 4.875V3.75V2.625C7.74797 2.625 6.125 4.24797 6.125 6.25H7.25ZM9.75 3.75H10.875V3H9.75H8.625V3.75H9.75ZM9.75 3H10.875C10.875 3.20711 10.7071 3.375 10.5 3.375V2.25V1.125C9.46447 1.125 8.625 1.96447 8.625 3H9.75ZM10.5 2.25V3.375H13.5V2.25V1.125H10.5V2.25ZM11.25 12.25V13.375H12.75V12.25V11.125H11.25V12.25ZM12.75 12.25H13.875V10.75H12.75H11.625V12.25H12.75ZM12.75 10.75V9.625H11.25V10.75V11.875H12.75V10.75ZM11.25 10.75H10.125V12.25H11.25H12.375V10.75H11.25ZM3.25 8.75V9.875H4.75V8.75V7.625H3.25V8.75ZM4.75 8.75H5.875V7.25H4.75H3.625V8.75H4.75ZM4.75 7.25V6.125H3.25V7.25V8.375H4.75V7.25ZM3.25 7.25H2.125V8.75H3.25H4.375V7.25H3.25ZM11.25 5.25V6.375H12.75V5.25V4.125H11.25V5.25ZM12.75 5.25H13.875V3.75H12.75H11.625V5.25H12.75ZM12.75 3.75V2.625H11.25V3.75V4.875H12.75V3.75ZM11.25 3.75H10.125V5.25H11.25H12.375V3.75H11.25Z" fill="#E6E6E6"/><path d="M10.5 11.5H9.75C8.7835 11.5 8 10.7165 8 9.75C8 8.7835 7.2165 8 6.25 8H5.5" stroke="#2D52D2" stroke-width="1.5" stroke-linecap="round" stroke-linejoin="round"/><path d="M10.5 4.5H9.75C8.7835 4.5 8 5.2835 8 6.25C8 7.2165 7.2165 8 6.25 8H5.5" stroke="#2D52D2" stroke-width="1.5" stroke-linecap="round" stroke-linejoin="round"/><rect x="2.5" y="6.5" width="3" height="3" fill="#A4E5FF" stroke="#001E55" stroke-width="1.5" stroke-linecap="round" stroke-linejoin="round"/><rect x="10.5" y="3" width="3" height="3" fill="#A4E5FF" stroke="#001E55" stroke-width="1.5" stroke-linecap="round" stroke-linejoin="round"/><rect x="10.5" y="10" width="3" height="3" fill="#A4E5FF" stroke="#001E55" stroke-width="1.5" stroke-linecap="round" stroke-linejoin="round"/></svg>