<svg width="16" height="16" viewBox="0 0 16 16" fill="none" xmlns="http://www.w3.org/2000/svg"><g clip-path="url(#clip0_1_2386)"><rect width="16" height="16" fill="white"/><path d="M1 0H16V9L1 0Z" fill="#D7D7D7"/><path d="M16.75 16.75H-0.75V-0.75H0C0.516039 -0.75 1.10523 -0.583741 1.69629 -0.355469C2.30243 -0.121344 2.98061 0.20621 3.69629 0.587891C5.12718 1.35104 6.77444 2.36495 8.39355 3.36133C10.0241 4.36476 11.6274 5.35112 13.0088 6.08789C13.699 6.45602 14.3183 6.75372 14.8447 6.95703C15.3863 7.16614 15.7661 7.25 16 7.25H16.75V16.75Z" fill="#468AF3" stroke="white" stroke-width="1.5"/><path d="M2.80469 7.84277C3.26131 6.81537 4.55466 6.47874 5.4541 7.15332L16.4502 15.4004L18.25 16.75H-1.1543L-0.685547 15.6953L2.80469 7.84277Z" fill="#333333" stroke="white" stroke-width="1.5"/></g><defs><clipPath id="clip0_1_2386"><rect width="16" height="16" fill="white"/></clipPath></defs></svg>