<svg width="16" height="16" viewBox="0 0 16 16" fill="none" xmlns="http://www.w3.org/2000/svg"><g clip-path="url(#clip0_1150_1036)"><rect width="16" height="16" fill="white"/><path d="M16.75 9.75V13.25H-0.75V9.75H16.75Z" fill="#468AF3" stroke="white" stroke-width="1.5"/><path d="M16.75 6.25V9.75H-0.75V6.25H16.75Z" fill="#A63200" stroke="white" stroke-width="1.5"/><path d="M16.75 2.25V5.75H-0.75V2.25H16.75Z" fill="#A63200" stroke="white" stroke-width="1.5"/><path d="M0 -0.5H16V1.5H0L0 -0.5Z" fill="#D7D7D7"/><path d="M15.2793 6.79395L16.75 7V16.75H-0.75V7L0.720703 6.79395L0.72168 6.79493L0.739258 6.85352C0.753292 6.89817 0.776009 6.9664 0.806641 7.05469C0.867969 7.23146 0.963001 7.48819 1.0957 7.79786C1.36218 8.41964 1.77495 9.2449 2.36035 10.0645C3.53458 11.7083 5.33594 13.25 8 13.25C10.6641 13.25 12.4654 11.7083 13.6396 10.0645C14.225 9.2449 14.6378 8.41964 14.9043 7.79786C15.037 7.48819 15.132 7.23146 15.1934 7.05469C15.224 6.9664 15.2467 6.89817 15.2607 6.85352L15.2783 6.79493L15.2793 6.79297V6.79395Z" fill="#333333" stroke="white" stroke-width="1.5"/></g><defs><clipPath id="clip0_1150_1036"><rect width="16" height="16" fill="white"/></clipPath></defs></svg>