<svg width="16" height="16" viewBox="0 0 16 16" fill="none" xmlns="http://www.w3.org/2000/svg"><g clip-path="url(#clip0_1_2453)"><rect width="16" height="16" fill="white"/><path d="M0 0H16V12H0L0 0Z" fill="#D7D7D7"/><path d="M8.57617 4.25L10.5762 11.75H16.75V16.75H-0.75V4.25H8.57617Z" fill="#468AF3" stroke="white" stroke-width="1.5"/><mask id="path-3-outside-1_1_2453" maskUnits="userSpaceOnUse" x="6.07104" y="0" width="12" height="14" fill="black"><rect fill="white" x="6.07104" width="12" height="14"/><path fill-rule="evenodd" clip-rule="evenodd" d="M13 6L16 6V8H13L9.99998 11L9.53551 10.5355C7.58289 8.58291 7.58289 5.41709 9.53551 3.46447L9.99998 3L13 6Z"/></mask><path fill-rule="evenodd" clip-rule="evenodd" d="M13 6L16 6V8H13L9.99998 11L9.53551 10.5355C7.58289 8.58291 7.58289 5.41709 9.53551 3.46447L9.99998 3L13 6Z" fill="#333333"/><path d="M13 6L11.9393 7.06066L12.3787 7.5H13V6ZM16 6H17.5V4.5L16 4.5V6ZM16 8V9.5H17.5V8H16ZM13 8V6.5H12.3787L11.9393 6.93934L13 8ZM9.99998 11L8.93932 12.0607L9.99998 13.1213L11.0606 12.0607L9.99998 11ZM9.53551 10.5355L8.47485 11.5962L8.47485 11.5962L9.53551 10.5355ZM9.53551 3.46447L8.47485 2.40381L8.47485 2.40381L9.53551 3.46447ZM9.99998 3L11.0606 1.93934L9.99998 0.87868L8.93932 1.93934L9.99998 3ZM13 7.5L16 7.5V4.5L13 4.5V7.5ZM14.5 6V8H17.5V6H14.5ZM16 6.5H13V9.5H16V6.5ZM11.0606 12.0607L14.0606 9.06066L11.9393 6.93934L8.93932 9.93934L11.0606 12.0607ZM8.47485 11.5962L8.93932 12.0607L11.0606 9.93934L10.5962 9.47487L8.47485 11.5962ZM8.47485 2.40381C5.93644 4.94221 5.93644 9.05779 8.47485 11.5962L10.5962 9.47487C9.22934 8.10804 9.22934 5.89196 10.5962 4.52513L8.47485 2.40381ZM8.93932 1.93934L8.47485 2.40381L10.5962 4.52513L11.0606 4.06066L8.93932 1.93934ZM14.0606 4.93934L11.0606 1.93934L8.93932 4.06066L11.9393 7.06066L14.0606 4.93934Z" fill="white" mask="url(#path-3-outside-1_1_2453)"/></g><defs><clipPath id="clip0_1_2453"><rect width="16" height="16" fill="white"/></clipPath></defs></svg>