<svg width="16" height="16" viewBox="0 0 16 16" fill="none" xmlns="http://www.w3.org/2000/svg"><g clip-path="url(#clip0_1_2417)"><rect width="16" height="16" fill="white"/><path d="M0 0H16V10H0V0Z" fill="#D7D7D7"/><path d="M16.5 16.5H-0.5V10.793L2.5625 7.73047L3.52539 4.8418L3.63965 4.5H12.3604L12.4746 4.8418L13.4268 7.7002L16.3115 9.99316L16.5 10.1436V16.5Z" fill="#468AF3" stroke="white"/><path d="M9.75 9.75V16.75H6.25V9.75H9.75Z" fill="#333333" stroke="white" stroke-width="1.5"/><path d="M8 1.25C12.2802 1.25 15.75 4.71979 15.75 9V13.25H12.25V9C12.25 6.65279 10.3472 4.75 8 4.75C5.65279 4.75 3.75 6.65279 3.75 9V10.25H0.25V9C0.25 4.71979 3.71979 1.25 8 1.25Z" fill="#333333" stroke="white" stroke-width="1.5"/></g><defs><clipPath id="clip0_1_2417"><rect width="16" height="16" fill="white"/></clipPath></defs></svg>