<svg width="16" height="16" viewBox="0 0 16 16" fill="none" xmlns="http://www.w3.org/2000/svg">
<path d="M8.5 3C10.1569 3 11.5 4.34315 11.5 6C11.5 6.64251 11.2961 7.23648 10.9521 7.72461C11.5929 8.2748 12 9.08925 12 10C12 11.6569 10.6569 13 9 13H4C3.44772 13 3 12.5523 3 12C3 11.4477 3.44772 11 4 11V5C3.44772 5 3 4.55228 3 4C3 3.44772 3.44772 3 4 3H8.5ZM6 11H9C9.55228 11 10 10.5523 10 10C10 9.44772 9.55228 9 9 9H6V11ZM6 7H8.5C9.05228 7 9.5 6.55228 9.5 6C9.5 5.44772 9.05228 5 8.5 5H6V7Z" fill="black"/>
</svg>
