<svg width="16" height="16" viewBox="0 0 16 16" fill="none" xmlns="http://www.w3.org/2000/svg">
<path d="M10.9697 1.96964C11.8149 1.12452 13.1851 1.12452 14.0303 1.96964C14.8754 2.8148 14.8754 4.185 14.0303 5.03018L13.5098 5.55167C14.1461 6.57717 14.0445 7.92709 13.2061 8.84952C13.159 8.90128 13.1037 8.95674 13.0303 9.03018L12.5303 9.53018L12.416 9.62393C12.2937 9.70546 12.1492 9.74991 12 9.74991C11.8011 9.74991 11.6104 9.67083 11.4697 9.53018L11 9.06046L7.2373 12.8232C7.12689 12.9336 7.04264 13.0187 6.95215 13.0956C6.51362 13.468 5.96893 13.6943 5.39551 13.7411C5.27691 13.7508 5.15648 13.7499 5 13.7499H4.70703C4.45325 13.7499 4.20974 13.8507 4.03027 14.0302L3.7373 14.3232L3.63086 14.4198C3.37154 14.6324 3.04526 14.7499 2.70703 14.7499L2.55859 14.7421C1.82368 14.6677 1.25003 14.0474 1.25 13.2929C1.25002 12.9065 1.40357 12.5358 1.67676 12.2626L1.96973 11.9696C2.14918 11.7902 2.24998 11.5467 2.25 11.2929V10.9999C2.25 10.8437 2.24916 10.7238 2.25879 10.6054C2.30556 10.0318 2.53179 9.48639 2.9043 9.04776C2.98119 8.95727 3.06635 8.87301 3.17676 8.7626L6.93945 4.99991L6.46973 4.53018C6.1769 4.23729 6.17687 3.76251 6.46973 3.46964L6.96973 2.96964C7.04317 2.89619 7.09863 2.84091 7.15039 2.79385C8.07315 1.9551 9.42357 1.85406 10.4492 2.49112L10.9697 1.96964ZM4.2373 9.82315C4.10961 9.95084 4.07519 9.98611 4.04688 10.0194C3.8778 10.2187 3.77522 10.466 3.75391 10.7265C3.75035 10.7701 3.75 10.8192 3.75 10.9999V11.2929C3.74999 11.7928 3.59741 12.277 3.31836 12.6835C3.72472 12.4046 4.20723 12.2499 4.70703 12.2499H5C5.18079 12.2499 5.22982 12.2496 5.27344 12.246C5.53392 12.2247 5.78121 12.1221 5.98047 11.953C6.0138 11.9247 6.04905 11.8903 6.17676 11.7626L9.93945 7.99991L8 6.06046L4.2373 9.82315ZM12.9697 3.03018C12.7103 2.77085 12.2897 2.77085 12.0303 3.03018L11.0303 4.03018L10.916 4.12393C10.7937 4.20546 10.6492 4.24991 10.5 4.24991C10.3011 4.24991 10.1104 4.17083 9.96973 4.03018C9.88401 3.94446 9.85952 3.92023 9.84082 3.90323C9.36409 3.46998 8.63591 3.46998 8.15918 3.90323C8.1429 3.91803 8.12317 3.93932 8.06152 4.00089L12 7.93936C12.0616 7.8777 12.0819 7.85701 12.0967 7.84073C12.5299 7.36398 12.53 6.63582 12.0967 6.15909C12.0797 6.14039 12.0554 6.11587 11.9697 6.03018C11.8291 5.88953 11.75 5.6988 11.75 5.49991C11.75 5.30103 11.8291 5.11026 11.9697 4.96964L12.9697 3.96964C13.2291 3.71024 13.2291 3.28956 12.9697 3.03018Z" fill="black"/>
</svg>
