<svg width="16" height="16" viewBox="0 0 16 16" fill="none" xmlns="http://www.w3.org/2000/svg">
<path fill-rule="evenodd" clip-rule="evenodd" d="M10.2361 10H12C13.1046 10 14 9.10457 14 8C14 4.68629 11.3137 2 8 2C4.68629 2 2 4.68629 2 8C2 11.3137 4.68629 14 8 14C8.33508 14 8.50261 14 8.6198 13.9713C9.14994 13.8415 9.47807 13.3106 9.35709 12.7783C9.33035 12.6607 9.25542 12.5108 9.10557 12.2111L9 12C8.75708 11.5142 8.63562 11.2712 8.62085 11.075C8.58833 10.6428 8.83801 10.2388 9.23919 10.0745C9.42128 10 9.69288 10 10.2361 10ZM8 5C8.55228 5 9 4.55228 9 4C9 3.44772 8.55228 3 8 3C7.44772 3 7 3.44772 7 4C7 4.55228 7.44772 5 8 5ZM5 7C5.55228 7 6 6.55228 6 6C6 5.44772 5.55228 5 5 5C4.44772 5 4 5.44772 4 6C4 6.55228 4.44772 7 5 7ZM12 6C12 6.55228 11.5523 7 11 7C10.4477 7 10 6.55228 10 6C10 5.44772 10.4477 5 11 5C11.5523 5 12 5.44772 12 6Z" fill="black"/>
</svg>
