<svg width="16" height="16" viewBox="0 0 16 16" fill="none" xmlns="http://www.w3.org/2000/svg">
<path fill-rule="evenodd" clip-rule="evenodd" d="M10.7998 1.25C11.3475 1.25 11.8037 1.24898 12.1748 1.2793C12.5545 1.31033 12.9109 1.3781 13.2481 1.54981C13.7655 1.81346 14.1865 2.23451 14.4502 2.75196C14.6219 3.0891 14.6897 3.44547 14.7207 3.8252C14.751 4.19633 14.75 4.65252 14.75 5.2002V11C14.75 11.4557 14.7507 11.8351 14.7295 12.1455C14.7079 12.4626 14.6613 12.7624 14.541 13.0527C14.2619 13.7264 13.7264 14.2619 13.0527 14.541C12.7624 14.6613 12.4626 14.7079 12.1455 14.7295C11.8351 14.7507 11.4557 14.75 11 14.75H5.2002C4.65252 14.75 4.19633 14.751 3.8252 14.7207C3.44547 14.6897 3.0891 14.6219 2.75196 14.4502C2.23451 14.1865 1.81346 13.7655 1.54981 13.2481C1.3781 12.9109 1.31033 12.5545 1.2793 12.1748C1.24898 11.8037 1.25 11.3475 1.25 10.7998V5C1.25 4.54433 1.24934 4.16486 1.27051 3.8545C1.29215 3.53744 1.33872 3.23762 1.45899 2.94727C1.73809 2.27359 2.27359 1.73809 2.94727 1.45899C3.23762 1.33872 3.53744 1.29215 3.8545 1.27051C4.16486 1.24934 4.54433 1.25 5 1.25H10.7998ZM2.75 8.68946L7.31055 13.25H9.18946L2.75 6.81055V8.68946ZM2.75 10.8106C2.75001 11.3772 2.75039 11.7587 2.77442 12.0527C2.79788 12.3397 2.84059 12.4768 2.88672 12.5674C3.00655 12.8025 3.19751 12.9935 3.43262 13.1133C3.52316 13.1594 3.66027 13.2021 3.94727 13.2256C4.24116 13.2496 4.62241 13.249 5.18848 13.249L2.75 10.8106ZM5 2.75C4.52398 2.75 4.20446 2.75072 3.95704 2.76758C3.71632 2.78401 3.59864 2.81278 3.52149 2.84473C3.21521 2.9716 2.9716 3.21521 2.84473 3.52149C2.81278 3.59864 2.78401 3.71632 2.76758 3.95704C2.75466 4.14656 2.7518 4.37837 2.75098 4.69043L11.3086 13.2481C11.6212 13.2472 11.8533 13.2454 12.043 13.2324C12.2837 13.216 12.4014 13.1872 12.4785 13.1553C12.7848 13.0284 13.0284 12.7848 13.1553 12.4785C13.1872 12.4014 13.216 12.2837 13.2324 12.043C13.2493 11.7955 13.25 11.476 13.25 11V5.2002C13.25 4.62777 13.2498 4.24315 13.2256 3.94727C13.2021 3.66027 13.1594 3.52316 13.1133 3.43262C12.9935 3.19751 12.8025 3.00655 12.5674 2.88672C12.4768 2.84059 12.3397 2.79788 12.0527 2.77442C11.7569 2.75024 11.3722 2.75 10.7998 2.75H5Z" fill="black"/>
</svg>
