<svg width="16" height="16" viewBox="0 0 16 16" fill="none" xmlns="http://www.w3.org/2000/svg">
<path fill-rule="evenodd" clip-rule="evenodd" d="M10.7998 1.25C11.3475 1.25 11.8037 1.24898 12.1748 1.2793C12.5545 1.31033 12.9109 1.3781 13.2481 1.54981C13.7655 1.81346 14.1865 2.23452 14.4502 2.75196C14.6219 3.0891 14.6897 3.44547 14.7207 3.8252C14.751 4.19633 14.75 4.65253 14.75 5.2002V10.7998C14.75 11.3475 14.751 11.8037 14.7207 12.1748C14.6897 12.5545 14.6219 12.9109 14.4502 13.2481C14.1865 13.7655 13.7655 14.1865 13.2481 14.4502C12.9109 14.6219 12.5545 14.6897 12.1748 14.7207C11.8037 14.751 11.3475 14.75 10.7998 14.75H5.2002C4.65253 14.75 4.19633 14.751 3.8252 14.7207C3.44547 14.6897 3.0891 14.6219 2.75196 14.4502C2.23452 14.1865 1.81346 13.7655 1.54981 13.2481C1.3781 12.9109 1.31033 12.5545 1.2793 12.1748C1.24898 11.8037 1.25 11.3475 1.25 10.7998V5.2002C1.25 4.65253 1.24898 4.19633 1.2793 3.8252C1.31033 3.44547 1.3781 3.0891 1.54981 2.75196C1.81346 2.23451 2.23451 1.81346 2.75196 1.54981C3.0891 1.3781 3.44547 1.31033 3.8252 1.2793C4.19633 1.24898 4.65253 1.25 5.2002 1.25H10.7998ZM5.2002 2.75C4.62778 2.75 4.24315 2.75024 3.94727 2.77442C3.66028 2.79788 3.52316 2.84059 3.43262 2.88672C3.19751 3.00655 3.00655 3.19751 2.88672 3.43262C2.84059 3.52316 2.79788 3.66028 2.77442 3.94727C2.75024 4.24315 2.75 4.62778 2.75 5.2002V10.7998C2.75 11.3722 2.75024 11.7569 2.77442 12.0527C2.79788 12.3397 2.84059 12.4768 2.88672 12.5674C3.00655 12.8025 3.19751 12.9935 3.43262 13.1133C3.52316 13.1594 3.66028 13.2021 3.94727 13.2256C4.24315 13.2498 4.62778 13.25 5.2002 13.25H10.7998C11.3722 13.25 11.7569 13.2498 12.0527 13.2256C12.3397 13.2021 12.4768 13.1594 12.5674 13.1133C12.8025 12.9935 12.9935 12.8025 13.1133 12.5674C13.1594 12.4768 13.2021 12.3397 13.2256 12.0527C13.2498 11.7569 13.25 11.3722 13.25 10.7998V5.2002C13.25 4.62778 13.2498 4.24315 13.2256 3.94727C13.2021 3.66028 13.1594 3.52316 13.1133 3.43262C12.9935 3.19751 12.8025 3.00655 12.5674 2.88672C12.4768 2.84059 12.3397 2.79788 12.0527 2.77442C11.7569 2.75024 11.3722 2.75 10.7998 2.75H5.2002ZM6.97461 8.58106C7.42619 8.4461 7.90782 8.44603 8.35938 8.58106C8.65661 8.67003 8.90584 8.82421 9.14258 9.00391C9.37187 9.17799 9.63201 9.40999 9.93653 9.68067L11.165 10.7725C11.4744 11.0476 11.5025 11.5225 11.2275 11.832C10.9524 12.1413 10.4785 12.1685 10.1689 11.8936L8.94043 10.8018C8.61852 10.5156 8.40773 10.3301 8.23536 10.1992C8.07072 10.0742 7.98597 10.0355 7.92969 10.0186C7.75842 9.96733 7.57559 9.96739 7.4043 10.0186C7.34805 10.0354 7.26344 10.0741 7.09864 10.1992C6.92626 10.3301 6.7155 10.5156 6.39356 10.8018L5.16504 11.8936C4.85559 12.1686 4.38169 12.1412 4.10645 11.832C3.83126 11.5224 3.85936 11.0477 4.16895 10.7725L5.39747 9.68067C5.70199 9.40998 5.96212 9.17797 6.19141 9.00391C6.42817 8.82422 6.67733 8.66998 6.97461 8.58106ZM10 3.75C10.4141 3.7502 10.75 4.08591 10.75 4.5V5.25H11.5C11.9141 5.2502 12.25 5.58591 12.25 6C12.25 6.4141 11.9141 6.74981 11.5 6.75H10.75V7.5C10.75 7.9141 10.4141 8.24981 10 8.25C9.58596 8.24981 9.25 7.9141 9.25 7.5V6.75H8.5C8.08596 6.74981 7.75 6.4141 7.75 6C7.75001 5.58591 8.08596 5.2502 8.5 5.25H9.25V4.5C9.25001 4.08591 9.58596 3.7502 10 3.75Z" fill="black"/>
</svg>
