<svg width="16" height="16" viewBox="0 0 16 16" fill="none" xmlns="http://www.w3.org/2000/svg">
<path d="M10.7998 1.25C11.3475 1.25 11.8037 1.24897 12.1748 1.2793C12.5545 1.31033 12.9109 1.37809 13.248 1.5498C13.7655 1.81346 14.1865 2.23451 14.4502 2.75195C14.6219 3.0891 14.6897 3.44546 14.7207 3.8252C14.751 4.19632 14.75 4.65252 14.75 5.2002V10.7998C14.75 11.3475 14.751 11.8037 14.7207 12.1748C14.6897 12.5545 14.6219 12.9109 14.4502 13.248C14.1865 13.7655 13.7655 14.1865 13.248 14.4502C12.9109 14.6219 12.5545 14.6897 12.1748 14.7207C11.8037 14.751 11.3475 14.75 10.7998 14.75H5.2002C4.65252 14.75 4.19632 14.751 3.8252 14.7207C3.44546 14.6897 3.0891 14.6219 2.75195 14.4502C2.23451 14.1865 1.81346 13.7655 1.5498 13.248C1.37809 12.9109 1.31033 12.5545 1.2793 12.1748C1.24897 11.8037 1.25 11.3475 1.25 10.7998V5.2002C1.25 4.65252 1.24897 4.19632 1.2793 3.8252C1.31033 3.44546 1.37809 3.0891 1.5498 2.75195C1.81346 2.23451 2.23451 1.81346 2.75195 1.5498C3.0891 1.37809 3.44546 1.31033 3.8252 1.2793C4.19632 1.24897 4.65252 1.25 5.2002 1.25H10.7998ZM3.8457 13.2139C3.87738 13.2174 3.91102 13.2226 3.94727 13.2256C4.24314 13.2498 4.62777 13.25 5.2002 13.25H10.7998C11.3722 13.25 11.7569 13.2498 12.0527 13.2256C12.0886 13.2227 12.1219 13.2173 12.1533 13.2139L8 9.06055L3.8457 13.2139ZM2.77441 3.94727C2.75024 4.24314 2.75 4.62777 2.75 5.2002V10.7998C2.75 11.3722 2.75024 11.7569 2.77441 12.0527C2.77734 12.0886 2.78168 12.122 2.78516 12.1533L6.93945 8L2.78516 3.8457C2.78164 3.87735 2.77737 3.91106 2.77441 3.94727ZM9.06055 8L13.2139 12.1533C13.2173 12.1219 13.2227 12.0886 13.2256 12.0527C13.2498 11.7569 13.25 11.3722 13.25 10.7998V5.2002C13.25 4.62777 13.2498 4.24314 13.2256 3.94727C13.2226 3.91102 13.2174 3.87738 13.2139 3.8457L9.06055 8ZM5.2002 2.75C4.62777 2.75 4.24314 2.75024 3.94727 2.77441C3.91106 2.77737 3.87735 2.78164 3.8457 2.78516L8 6.93945L12.1533 2.78516C12.122 2.78168 12.0886 2.77734 12.0527 2.77441C11.7569 2.75024 11.3722 2.75 10.7998 2.75H5.2002Z" fill="black"/>
</svg>
