<svg width="16" height="16" viewBox="0 0 16 16" fill="none" xmlns="http://www.w3.org/2000/svg">
<path fill-rule="evenodd" clip-rule="evenodd" d="M11 5.75C11.4142 5.75 11.75 5.41421 11.75 5C11.75 3.48122 10.5188 2.25 9 2.25L7 2.25C5.48122 2.25 4.25 3.48122 4.25 5C4.25 5.41421 4.58579 5.75 5 5.75C5.41421 5.75 5.75 5.41421 5.75 5C5.75 4.30964 6.30964 3.75 7 3.75H9C9.69036 3.75 10.25 4.30964 10.25 5C10.25 5.41421 10.5858 5.75 11 5.75ZM14.75 8C14.75 8.41421 14.4142 8.75 14 8.75H11.2391C11.5625 9.25515 11.75 9.85568 11.75 10.5C11.75 12.2949 10.2949 13.75 8.5 13.75H7C5.48122 13.75 4.25 12.5188 4.25 11C4.25 10.5858 4.58579 10.25 5 10.25C5.41421 10.25 5.75 10.5858 5.75 11C5.75 11.6904 6.30964 12.25 7 12.25H8.5C9.4665 12.25 10.25 11.4665 10.25 10.5C10.25 9.5335 9.4665 8.75 8.5 8.75H5.85714H2C1.58579 8.75 1.25 8.41421 1.25 8C1.25 7.58579 1.58579 7.25 2 7.25H5.85714H8.5H14C14.4142 7.25 14.75 7.58579 14.75 8Z" fill="black"/>
</svg>
