<svg width="16" height="16" viewBox="0 0 16 16" fill="none" xmlns="http://www.w3.org/2000/svg">
<path fill-rule="evenodd" clip-rule="evenodd" d="M10.4301 2.38557C10.7694 2.62311 10.8519 3.09075 10.6144 3.43009L7.41547 7.99998L10.6144 12.5699C10.8519 12.9092 10.7694 13.3769 10.4301 13.6144C10.0907 13.852 9.6231 13.7694 9.38557 13.4301L6.49998 9.30782L3.61439 13.4301C3.37685 13.7694 2.9092 13.852 2.56987 13.6144C2.23053 13.3769 2.148 12.9092 2.38554 12.5699L5.58449 7.99998L2.38557 3.43009C2.14803 3.09075 2.23056 2.62311 2.56989 2.38557C2.90923 2.14803 3.37688 2.23056 3.61441 2.5699L6.49998 6.69213L9.38554 2.5699C9.62308 2.23056 10.0907 2.14803 10.4301 2.38557ZM12.5 11C12.2238 11 12 11.2239 12 11.5C12 11.7761 12.2238 12 12.5 12H14V12.5H12.5C12.2238 12.5 12 12.7239 12 13V14.5C12 14.7761 12.2238 15 12.5 15H14.5C14.7761 15 15 14.7761 15 14.5C15 14.2239 14.7761 14 14.5 14H13V13.5H14.5C14.7761 13.5 15 13.2761 15 13V11.5C15 11.2239 14.7761 11 14.5 11H12.5Z" fill="black"/>
</svg>
