<svg width="16" height="16" viewBox="0 0 16 16" fill="none" xmlns="http://www.w3.org/2000/svg">
<path fill-rule="evenodd" clip-rule="evenodd" d="M12.5 1C12.2238 1 12 1.22386 12 1.5C12 1.77614 12.2238 2 12.5 2H14V2.5H12.5C12.2238 2.5 12 2.72386 12 3V4.5C12 4.77614 12.2238 5 12.5 5H14.5C14.7761 5 15 4.77614 15 4.5C15 4.22386 14.7761 4 14.5 4H13V3.5H14.5C14.7761 3.5 15 3.27614 15 3V1.5C15 1.22386 14.7761 1 14.5 1H12.5ZM10.4301 2.38558C10.7694 2.62311 10.8519 3.09076 10.6144 3.4301L7.41547 7.99998L10.6144 12.5699C10.8519 12.9092 10.7694 13.3769 10.4301 13.6144C10.0907 13.852 9.6231 13.7694 9.38556 13.4301L6.49998 9.30783L3.61439 13.4301C3.37685 13.7694 2.9092 13.852 2.56987 13.6144C2.23053 13.3769 2.148 12.9092 2.38554 12.5699L5.58448 7.99998L2.38557 3.4301C2.14803 3.09076 2.23056 2.62311 2.56989 2.38558C2.90923 2.14804 3.37688 2.23057 3.61441 2.5699L6.49998 6.69214L9.38554 2.5699C9.62308 2.23057 10.0907 2.14804 10.4301 2.38558Z" fill="black"/>
</svg>
