<svg width="16" height="16" viewBox="0 0 16 16" fill="none" xmlns="http://www.w3.org/2000/svg">
<path fill-rule="evenodd" clip-rule="evenodd" d="M10.25 3C10.25 2.58579 10.5858 2.25 11 2.25C11.4142 2.25 11.75 2.58579 11.75 3V7C11.75 9.07107 10.0711 10.75 8 10.75C5.92893 10.75 4.25 9.07107 4.25 7V3C4.25 2.58579 4.58579 2.25 5 2.25C5.41421 2.25 5.75 2.58579 5.75 3V7C5.75 8.24264 6.75736 9.25 8 9.25C9.24264 9.25 10.25 8.24264 10.25 7V3ZM12 12.25C12.4142 12.25 12.75 12.5858 12.75 13C12.75 13.4142 12.4142 13.75 12 13.75H4C3.58579 13.75 3.25 13.4142 3.25 13C3.25 12.5858 3.58579 12.25 4 12.25H12Z" fill="black"/>
</svg>
