<svg width="16" height="16" viewBox="0 0 16 16" fill="none" xmlns="http://www.w3.org/2000/svg"><path fill-rule="evenodd" clip-rule="evenodd" d="M11 14.25C11.4142 14.25 11.75 13.9142 11.75 13.5V10.5C11.75 10.0858 11.4142 9.75 11 9.75H4.99999C4.58578 9.75 4.24999 10.0858 4.24999 10.5V13.5C4.24999 13.9142 4.58578 14.25 4.99999 14.25H11ZM10.25 11.25V12.75H5.74999V11.25H10.25ZM11 6.25C11.4142 6.25 11.75 5.91421 11.75 5.5V2.5C11.75 2.08579 11.4142 1.75 11 1.75H4.99999C4.58578 1.75 4.24999 2.08579 4.24999 2.5L4.24999 5.5C4.24999 5.91421 4.58578 6.25 4.99999 6.25L11 6.25ZM10.25 3.25V4.75H5.74999V3.25H10.25ZM14 8.75C14.4142 8.75 14.75 8.41421 14.75 8C14.75 7.58579 14.4142 7.25 14 7.25L2 7.25C1.58579 7.25 1.25 7.58579 1.25 8C1.25 8.41421 1.58579 8.75 2 8.75L14 8.75Z" fill="currentColor"/></svg>