<svg width="16" height="16" viewBox="0 0 16 16" fill="none" xmlns="http://www.w3.org/2000/svg"><path fill-rule="evenodd" clip-rule="evenodd" d="M1.25 2.5C1.25 2.91421 1.58579 3.25 2 3.25L14 3.25C14.4142 3.25 14.75 2.91421 14.75 2.5C14.75 2.08579 14.4142 1.75 14 1.75L2 1.75C1.58579 1.75 1.25 2.08579 1.25 2.5ZM3.5 4.75C3.08579 4.75 2.75 5.08579 2.75 5.5L2.75 13.5C2.75 13.9142 3.08579 14.25 3.5 14.25L6.5 14.25C6.91421 14.25 7.25 13.9142 7.25 13.5L7.25 5.5C7.25 5.08579 6.91421 4.75 6.5 4.75L3.5 4.75ZM4.25 6.25L5.75 6.25L5.75 12.75L4.25 12.75L4.25 6.25ZM9.5 4.75C9.08579 4.75 8.75 5.08579 8.75 5.5L8.75 10.5C8.75 10.9142 9.08579 11.25 9.5 11.25L12.5 11.25C12.9142 11.25 13.25 10.9142 13.25 10.5L13.25 5.5C13.25 5.08579 12.9142 4.75 12.5 4.75L9.5 4.75ZM10.25 6.25L11.75 6.25L11.75 9.75L10.25 9.75L10.25 6.25Z" fill="currentColor"/></svg>