<svg width="16" height="16" viewBox="0 0 16 16" fill="none" xmlns="http://www.w3.org/2000/svg"><path fill-rule="evenodd" clip-rule="evenodd" d="M15 8C15 4.13401 11.866 1 8 1C4.13401 1 1 4.13401 1 8C1 11.866 4.13401 15 8 15H13C13.465 15 13.6975 15 13.8882 14.9489C14.4059 14.8102 14.8102 14.4059 14.9489 13.8882C15 13.6975 15 13.465 15 13V8ZM5.99999 5.5C5.72384 5.5 5.49999 5.72386 5.49999 6C5.49999 6.27614 5.72384 6.5 5.99999 6.5H8.99999C9.27613 6.5 9.49999 6.27614 9.49999 6C9.49999 5.72386 9.27613 5.5 8.99999 5.5H5.99999ZM5.99999 9.5C5.72384 9.5 5.49999 9.72386 5.49999 10C5.49999 10.2761 5.72384 10.5 5.99999 10.5H9.99999C10.2761 10.5 10.5 10.2761 10.5 10C10.5 9.72386 10.2761 9.5 9.99999 9.5H5.99999Z" fill="currentColor"/></svg>