<svg width="16" height="16" viewBox="0 0 16 16" fill="none" xmlns="http://www.w3.org/2000/svg"><path d="M6.5 3.24994C6.91416 3.24994 7.24992 3.58579 7.25 3.99994V8.74994H12C12.1989 8.74994 12.3896 8.82906 12.5303 8.96967C12.6709 9.11028 12.75 9.3011 12.75 9.49994V12.9999C12.75 13.4141 12.4142 13.7499 12 13.7499H3C2.8011 13.7499 2.61038 13.6708 2.46973 13.5302C2.32914 13.3896 2.25002 13.1988 2.25 12.9999V3.99994C2.25008 3.58579 2.58584 3.24994 3 3.24994H6.5ZM3.75 12.2499H11.25V10.2499H6.5C6.3011 10.2499 6.11038 10.1708 5.96973 10.0302C5.82914 9.88958 5.75002 9.69879 5.75 9.49994V4.74994H3.75V12.2499ZM11.6123 1.00385C11.9069 0.7636 12.3416 0.781023 12.6162 1.0556L15.0303 3.46967C15.1709 3.61028 15.25 3.8011 15.25 3.99994C15.25 4.1988 15.1709 4.38958 15.0303 4.53021L12.6162 6.94427C12.3233 7.23712 11.8485 7.23712 11.5557 6.94427L9.1416 4.53021C9.00097 4.38958 8.92189 4.19883 8.92188 3.99994C8.92192 3.8011 9.00101 3.61028 9.1416 3.46967L11.5557 1.0556L11.6123 1.00385ZM10.7324 3.99994L12.0859 5.35345L13.4395 3.99994L12.0859 2.64642L10.7324 3.99994Z" fill="currentColor"/></svg>