<svg width="16" height="16" viewBox="0 0 16 16" fill="none" xmlns="http://www.w3.org/2000/svg"><path d="M3.79932 1.99672C4.03165 1.99035 4.21609 2.07559 4.29736 2.11488C4.40572 2.1673 4.52993 2.24251 4.63623 2.30629L12.9995 7.32387C13.1247 7.39896 13.2624 7.4809 13.3677 7.55727C13.4383 7.60851 13.6212 7.74204 13.729 7.97231L13.77 8.0768L13.8003 8.19496C13.8528 8.47192 13.785 8.7608 13.6118 8.98793C13.4238 9.23413 13.154 9.31438 13.0581 9.34242C12.9334 9.37887 12.7763 9.40954 12.6333 9.43813L8.95166 10.1735L6.68018 13.5827C6.60185 13.7001 6.51512 13.8313 6.43506 13.9313C6.37231 14.0096 6.19864 14.2233 5.90479 14.3043C5.59275 14.3901 5.25813 14.3194 5.00732 14.1149C4.77145 13.9223 4.69923 13.6575 4.67334 13.5602C4.64046 13.4365 4.61453 13.2814 4.59033 13.1422L2.91162 3.48988C2.8904 3.36786 2.86488 3.22496 2.85498 3.10512C2.8465 3.00205 2.83022 2.75142 2.96924 2.50453L3.03174 2.40785C3.18919 2.19127 3.42861 2.04456 3.69678 2.00551L3.79932 1.99672ZM5.91748 12.0211L7.78467 9.22133C7.79971 9.19861 7.87027 9.0844 7.97119 8.99086C8.04807 8.91973 8.13686 8.86098 8.23193 8.81703L8.32568 8.77992C8.41737 8.74908 8.49743 8.73581 8.51611 8.73207L11.4517 8.14418L4.52002 3.985L5.91748 12.0211Z" fill="currentColor"/></svg>