<svg width="16" height="16" viewBox="0 0 16 16" fill="none" xmlns="http://www.w3.org/2000/svg"><path fill-rule="evenodd" clip-rule="evenodd" d="M2.5 1.25C2.08579 1.25 1.75 1.58579 1.75 2V14C1.75 14.4142 2.08579 14.75 2.5 14.75C2.91421 14.75 3.25 14.4142 3.25 14V2C3.25 1.58579 2.91421 1.25 2.5 1.25ZM8.53027 4.46973C8.23738 4.17683 7.76262 4.17683 7.46973 4.46973L4.46973 7.46973C4.17683 7.76262 4.17683 8.23738 4.46973 8.53027L7.46973 11.5303C7.76262 11.8232 8.23738 11.8232 8.53027 11.5303C8.82317 11.2374 8.82317 10.7626 8.53027 10.4697L6.81055 8.75H13C13.4142 8.75 13.75 8.41421 13.75 8C13.75 7.58579 13.4142 7.25 13 7.25H6.81055L8.53027 5.53027C8.82317 5.23738 8.82317 4.76262 8.53027 4.46973Z" fill="currentColor"/></svg>