<svg width="16" height="16" viewBox="0 0 16 16" fill="none" xmlns="http://www.w3.org/2000/svg"><path d="M13.5 1.25C13.9142 1.25 14.25 1.58579 14.25 2V14C14.25 14.4142 13.9142 14.75 13.5 14.75C13.0858 14.75 12.75 14.4142 12.75 14V2C12.75 1.58579 13.0858 1.25 13.5 1.25ZM7.46973 4.46973C7.76262 4.17683 8.23738 4.17683 8.53027 4.46973L11.5303 7.46973C11.8232 7.76262 11.8232 8.23738 11.5303 8.53027L8.53027 11.5303C8.23738 11.8232 7.76262 11.8232 7.46973 11.5303C7.17683 11.2374 7.17683 10.7626 7.46973 10.4697L9.18945 8.75H3C2.58579 8.75 2.25 8.41421 2.25 8C2.25 7.58579 2.58579 7.25 3 7.25H9.18945L7.46973 5.53027C7.17683 5.23738 7.17683 4.76262 7.46973 4.46973Z" fill="currentColor"/></svg>