<svg width="16" height="16" viewBox="0 0 16 16" fill="none" xmlns="http://www.w3.org/2000/svg"><path d="M7.68661 13.8891L7.68375 13.8867L7.67387 13.8786L7.63808 13.8489C7.60733 13.8231 7.56311 13.7856 7.50733 13.7371C7.39582 13.6403 7.23791 13.4994 7.04904 13.3207C6.6719 12.9639 6.16827 12.4535 5.66343 11.8394C4.67126 10.6325 3.59985 8.93639 3.59985 7.17842C3.59985 4.85562 5.58544 2.99969 8.00006 2.99969C10.4147 2.99969 12.4003 4.85562 12.4003 7.17842C12.4003 8.93639 11.3289 10.6325 10.3367 11.8394C9.83185 12.4535 9.32822 12.9639 8.95109 13.3207C8.76222 13.4994 8.6043 13.6403 8.49279 13.7371C8.43702 13.7856 8.39279 13.8231 8.36205 13.8489L8.32626 13.8786L8.31638 13.8867L8.31352 13.8891L8.31262 13.8898C8.13166 14.0366 7.86879 14.0368 7.68782 13.8901L7.68661 13.8891Z" fill="currentColor"/></svg>