<svg width="16" height="16" viewBox="0 0 16 16" fill="none" xmlns="http://www.w3.org/2000/svg"><path d="M11.499 8.5C13.1553 8.5001 14.4988 9.84274 14.499 11.499C14.499 12.0549 14.3446 12.5742 14.0811 13.0205L15.2793 14.2188C15.5717 14.5117 15.5719 14.9866 15.2793 15.2793C14.9866 15.572 14.5117 15.5717 14.2188 15.2793L13.0205 14.0811C12.5742 14.3446 12.0549 14.499 11.499 14.499C9.84269 14.4988 8.50004 13.1554 8.5 11.499C8.50023 9.84281 9.84281 8.50023 11.499 8.5ZM9.87598 1.25C10.3221 1.25009 10.7515 1.4205 11.0762 1.72656L13.2002 3.72949C13.5509 4.06013 13.75 4.52096 13.75 5.00293V6.5C13.75 6.91421 13.4142 7.25 13 7.25C12.5858 7.25 12.25 6.91421 12.25 6.5V5.00293C12.25 4.93423 12.2218 4.86849 12.1719 4.82129L10.0469 2.81836C10.0006 2.7747 9.93961 2.75009 9.87598 2.75H4C3.86193 2.75 3.75 2.86193 3.75 3V12C3.75 12.1381 3.86193 12.25 4 12.25H6.5C6.91421 12.25 7.25 12.5858 7.25 13C7.25 13.4142 6.91421 13.75 6.5 13.75H4C3.0335 13.75 2.25 12.9665 2.25 12V3C2.25 2.0335 3.0335 1.25 4 1.25H9.87598ZM11.499 10C10.6712 10.0002 10.0002 10.6712 10 11.499C10 12.327 10.6711 12.9988 11.499 12.999C12.327 12.9989 12.999 12.3271 12.999 11.499C12.9988 10.6712 12.3269 10.0001 11.499 10ZM7 8.75C7.41421 8.75 7.75 9.08579 7.75 9.5C7.75 9.91421 7.41421 10.25 7 10.25H6C5.58579 10.25 5.25 9.91421 5.25 9.5C5.25 9.08579 5.58579 8.75 6 8.75H7ZM10 5.75C10.4142 5.75 10.75 6.08579 10.75 6.5C10.75 6.91421 10.4142 7.25 10 7.25H6C5.58579 7.25 5.25 6.91421 5.25 6.5C5.25 6.08579 5.58579 5.75 6 5.75H10Z" fill="currentColor"/></svg>