<svg width="16" height="16" viewBox="0 0 16 16" fill="none" xmlns="http://www.w3.org/2000/svg"><path d="M14.5 8.25024C14.9142 8.25025 15.25 8.58605 15.25 9.00024C15.2499 9.41434 14.9141 9.75024 14.5 9.75024C13.8329 9.75028 13.2144 10.1001 12.8711 10.6721L11.6719 12.6711C10.8979 13.9608 9.50408 14.7502 8 14.7502C6.49592 14.7502 5.10207 13.9608 4.32812 12.6711L3.12891 10.6721C2.7857 10.1001 2.16707 9.75023 1.5 9.75024C1.08593 9.75018 0.750144 9.4143 0.75 9.00024C0.750014 8.58609 1.08586 8.25032 1.5 8.25024C2.69396 8.25023 3.80075 8.87682 4.41504 9.90063L5.61426 11.8997C6.11713 12.7374 7.02287 13.2502 8 13.2502C8.97713 13.2502 9.88287 12.7374 10.3857 11.8997L11.585 9.90063C12.1993 8.87676 13.306 8.25027 14.5 8.25024ZM9.4707 2.46997C9.76362 2.17735 10.2384 2.17717 10.5312 2.46997C10.8235 2.76282 10.8237 3.23778 10.5312 3.53052L9.06152 5.00024L10.5312 6.46997C10.8235 6.76282 10.8237 7.23778 10.5312 7.53052C10.2385 7.82323 9.76364 7.82288 9.4707 7.53052L8.00098 6.06079L6.53125 7.53052C6.23854 7.82323 5.76364 7.82288 5.4707 7.53052C5.17781 7.23763 5.17781 6.76287 5.4707 6.46997L6.94043 5.00024L5.4707 3.53052C5.17781 3.23762 5.17781 2.76286 5.4707 2.46997C5.76362 2.17734 6.23845 2.17717 6.53125 2.46997L8.00098 3.9397L9.4707 2.46997Z" fill="currentColor"/></svg>