<svg width="16" height="16" viewBox="0 0 16 16" fill="none" xmlns="http://www.w3.org/2000/svg"><path d="M8 2.25C9.79493 2.25 11.25 3.70507 11.25 5.5V5.75H12C12.9665 5.75 13.75 6.5335 13.75 7.5V12.5C13.75 13.4665 12.9665 14.25 12 14.25H4C3.0335 14.25 2.25 13.4665 2.25 12.5V7.5C2.25 6.5335 3.0335 5.75 4 5.75H4.75V5.5C4.75 3.70507 6.20507 2.25 8 2.25ZM6.5 7.75C6.08579 7.75 5.75 8.08579 5.75 8.5C5.75 8.91421 6.08579 9.25 6.5 9.25H7.68945L5.96973 10.9697C5.75525 11.1842 5.6906 11.5069 5.80664 11.7871C5.92273 12.0674 6.19665 12.25 6.5 12.25H9.5C9.91421 12.25 10.25 11.9142 10.25 11.5C10.25 11.0858 9.91421 10.75 9.5 10.75H8.31055L10.0303 9.03027C10.2448 8.81579 10.3094 8.49313 10.1934 8.21289C10.0773 7.93263 9.80335 7.75 9.5 7.75H6.5ZM8 3.75C7.0335 3.75 6.25 4.5335 6.25 5.5V5.75H9.75V5.5C9.75 4.5335 8.9665 3.75 8 3.75Z" fill="currentColor"/></svg>