<svg width="16" height="16" viewBox="0 0 16 16" fill="none" xmlns="http://www.w3.org/2000/svg"><path fill-rule="evenodd" clip-rule="evenodd" d="M14.5 8.25045C14.9142 8.25046 15.25 8.58626 15.25 9.00045C15.2498 9.41446 14.9141 9.75045 14.5 9.75045C13.8329 9.75049 13.2144 10.1004 12.8711 10.6723L11.6719 12.6714C10.8979 13.9609 9.50402 14.7504 8 14.7505C6.49598 14.7504 5.10208 13.9609 4.32812 12.6714L3.12891 10.6723C2.7857 10.1003 2.16707 9.75044 1.5 9.75045C1.086 9.75039 0.750246 9.41442 0.75 9.00045C0.750014 8.5863 1.08586 8.25053 1.5 8.25045C2.69396 8.25044 3.80075 8.87703 4.41504 9.90084L5.61426 11.8999C6.11715 12.7376 7.02293 13.2504 8 13.2505C8.97707 13.2504 9.88285 12.7376 10.3857 11.8999L11.585 9.90084C12.1993 8.87697 13.306 8.25048 14.5 8.25045ZM8 8.89498C8.41403 8.8952 8.75 9.2309 8.75 9.64499C8.74961 10.0587 8.41379 10.3948 8 10.395C7.58603 10.395 7.25039 10.0589 7.25 9.64499C7.25 9.23077 7.58579 8.89498 8 8.89498ZM6.59766 1.97897C7.38925 1.37939 8.47175 1.33967 9.30469 1.88034C10.6463 2.75212 10.749 4.6794 9.50684 5.68795L8.7002 6.34225V6.89498C8.69982 7.30864 8.36385 7.6446 7.9502 7.64498C7.53621 7.64498 7.20057 7.30888 7.2002 6.89498V5.98581C7.20022 5.75994 7.30222 5.54617 7.47754 5.40377L8.56152 4.52389C9.01303 4.15724 8.97549 3.45645 8.48828 3.13913C8.18534 2.94241 7.79089 2.95625 7.50293 3.17428L7.20312 3.40182C6.87329 3.65154 6.40261 3.58656 6.15234 3.25729C5.90233 2.92727 5.9671 2.45672 6.29688 2.20651L6.59766 1.97897Z" fill="currentColor"/></svg>