<svg width="16" height="16" viewBox="0 0 16 16" fill="none" xmlns="http://www.w3.org/2000/svg"><path fill-rule="evenodd" clip-rule="evenodd" d="M10.501 1.25C12.0192 1.2505 13.2508 2.48167 13.251 4C13.2508 4.41376 12.9147 4.7495 12.501 4.75C12.0869 4.75 11.7512 4.41407 11.751 4C11.7508 3.3101 11.1908 2.7505 10.501 2.75C9.81073 2.75 9.25115 3.30979 9.25098 4V5.25098H11.501C12.467 5.2515 13.251 6.0348 13.251 7.00098V13.001C13.2506 13.9669 12.4668 14.7504 11.501 14.751H3.50098C2.53469 14.751 1.75132 13.9672 1.75098 13.001V7.00098C1.75098 6.03448 2.53448 5.25098 3.50098 5.25098H7.75098V4C7.75115 2.48136 8.9823 1.25 10.501 1.25ZM3.50098 6.75098C3.36291 6.75098 3.25098 6.86291 3.25098 7.00098V13.001C3.25132 13.1388 3.36312 13.251 3.50098 13.251H11.501C11.6384 13.2505 11.7506 13.1384 11.751 13.001V7.00098C11.751 6.86323 11.6386 6.7515 11.501 6.75098H3.50098ZM9 7.75C9.30335 7.75 9.57727 7.93263 9.69336 8.21289C9.8094 8.49313 9.74475 8.81579 9.53027 9.03027L7.81055 10.75H9C9.41421 10.75 9.75 11.0858 9.75 11.5C9.75 11.9142 9.41421 12.25 9 12.25H6C5.69665 12.25 5.42273 12.0674 5.30664 11.7871C5.1906 11.5069 5.25525 11.1842 5.46973 10.9697L7.18945 9.25H6C5.58579 9.25 5.25 8.91421 5.25 8.5C5.25 8.08579 5.58579 7.75 6 7.75H9Z" fill="currentColor"/></svg>