<svg width="16" height="16" viewBox="0 0 16 16" fill="none" xmlns="http://www.w3.org/2000/svg"><path fill-rule="evenodd" clip-rule="evenodd" d="M7 10.5C8.933 10.5 10.5 8.933 10.5 7C10.5 5.067 8.933 3.5 7 3.5C5.067 3.5 3.5 5.067 3.5 7C3.5 8.933 5.067 10.5 7 10.5ZM7 12C8.11015 12 9.13579 11.6382 9.96546 11.0261L9.96967 11.0303L12.4697 13.5303C12.7626 13.8232 13.2374 13.8232 13.5303 13.5303C13.8232 13.2374 13.8232 12.7626 13.5303 12.4697L11.0303 9.96967L11.0261 9.96546C11.6382 9.13579 12 8.11015 12 7C12 4.23858 9.76142 2 7 2C4.23858 2 2 4.23858 2 7C2 9.76142 4.23858 12 7 12ZM8.5 7.75C8.91421 7.75 9.25 7.41421 9.25 7C9.25 6.58578 8.91421 6.25 8.5 6.25H7.75V5.5C7.75 5.08579 7.41421 4.75 7 4.75C6.58579 4.75 6.25 5.08579 6.25 5.5V6.25H5.5C5.08579 6.25 4.75 6.58578 4.75 7C4.75 7.41421 5.08579 7.75 5.5 7.75H6.25V8.5C6.25 8.91421 6.58579 9.25 7 9.25C7.41421 9.25 7.75 8.91421 7.75 8.5V7.75H8.5Z" fill="currentColor"/></svg>