<svg width="16" height="16" viewBox="0 0 16 16" fill="none" xmlns="http://www.w3.org/2000/svg">
<g clip-path="url(#clip0_1_2319)">
<rect width="16" height="16" fill="white"/>
<rect width="16" height="16" fill="#D7D7D7"/>
<path d="M-0.75 16.75V12.25H0C1.42292 12.25 2.23178 11.7717 2.7627 11.1201C3.33177 10.4216 3.64605 9.44631 3.89258 8.33691C4.01739 7.77524 4.11063 7.25429 4.22656 6.69531C4.3372 6.16188 4.46371 5.62317 4.64062 5.14551C4.81621 4.67152 5.06317 4.19648 5.45117 3.83691C5.86123 3.45701 6.38151 3.25 7 3.25C8.17137 3.25 9.01567 3.85287 9.67187 4.59766C10.2998 5.31039 10.8521 6.27226 11.3809 7.09473C12.4886 8.8179 13.6683 10.25 16 10.25H16.75V16.75L-0.75 16.75Z" fill="#468AF3" stroke="white" stroke-width="1.5"/>
</g>
<defs>
<clipPath id="clip0_1_2319">
<rect width="16" height="16" fill="white"/>
</clipPath>
</defs>
</svg>
