<svg width="16" height="16" viewBox="0 0 16 16" fill="none" xmlns="http://www.w3.org/2000/svg">
<g clip-path="url(#clip0_1_2241)">
<rect width="16" height="16" fill="white"/>
<rect width="16" height="16" fill="#D7D7D7"/>
<path d="M10.75 -0.75V1.75H8.75V2.75H5.25V1.75H4.75V4.75H1.25V2.75H-0.75V-0.75H10.75Z" fill="#468AF3" stroke="white" stroke-width="1.5"/>
<path d="M1.75 16.75L-0.75 16.75L-0.75 13.25L1.75 13.25L1.75 16.75Z" fill="#912A91" stroke="white" stroke-width="1.5"/>
<path d="M6.75 16.75L4.25 16.75L4.25 10.25L6.75 10.25L6.75 16.75Z" fill="#912A91" stroke="white" stroke-width="1.5"/>
<path d="M4.25 16.75L1.75 16.75L1.75 12.25L4.25 12.25L4.25 16.75Z" fill="#912A91" stroke="white" stroke-width="1.5"/>
<path d="M9.25 16.75L6.75 16.75L6.75 6.25L9.25 6.25L9.25 16.75Z" fill="#912A91" stroke="white" stroke-width="1.5"/>
<path d="M11.75 16.75L9.25 16.75L9.25 4.25L11.75 4.25L11.75 16.75Z" fill="#912A91" stroke="white" stroke-width="1.5"/>
<path d="M14.25 16.75L11.75 16.75L11.75 5.25L14.25 5.25L14.25 16.75Z" fill="#912A91" stroke="white" stroke-width="1.5"/>
<path d="M16.75 16.75L14.25 16.75L14.25 8.25L16.75 8.25L16.75 16.75Z" fill="#912A91" stroke="white" stroke-width="1.5"/>
<mask id="path-10-outside-1_1_2241" maskUnits="userSpaceOnUse" x="10" y="8" width="7" height="9" fill="black">
<rect fill="white" x="10" y="8" width="7" height="9"/>
<path d="M15.2584 15H11.8004V14.041L13.3054 12.753C13.4407 12.6363 13.555 12.5313 13.6484 12.438C13.7417 12.34 13.8164 12.2467 13.8724 12.158C13.933 12.0647 13.975 11.9737 13.9984 11.885C14.0264 11.7963 14.0404 11.7007 14.0404 11.598V11.5C14.0404 11.4067 14.0217 11.325 13.9844 11.255C13.947 11.185 13.898 11.1267 13.8374 11.08C13.7767 11.0333 13.7067 10.9983 13.6274 10.975C13.5527 10.9517 13.4757 10.94 13.3964 10.94C13.2797 10.94 13.177 10.9587 13.0884 10.996C13.0044 11.0333 12.9297 11.0847 12.8644 11.15C12.8037 11.2107 12.7524 11.283 12.7104 11.367C12.6684 11.4463 12.6357 11.5327 12.6124 11.626L11.6954 11.276C11.7514 11.108 11.8284 10.9493 11.9264 10.8C12.0244 10.646 12.1457 10.513 12.2904 10.401C12.4397 10.2843 12.6147 10.1933 12.8154 10.128C13.016 10.0627 13.2424 10.03 13.4944 10.03C13.7604 10.03 13.996 10.0673 14.2014 10.142C14.4067 10.2167 14.5794 10.3193 14.7194 10.45C14.864 10.5807 14.9737 10.737 15.0484 10.919C15.123 11.0963 15.1604 11.29 15.1604 11.5C15.1604 11.71 15.1254 11.9013 15.0554 12.074C14.9854 12.2467 14.8897 12.41 14.7684 12.564C14.6517 12.7133 14.514 12.8557 14.3554 12.991C14.1967 13.1263 14.031 13.264 13.8584 13.404L12.9484 14.118H15.2584V15Z"/>
</mask>
<path d="M15.2584 15H11.8004V14.041L13.3054 12.753C13.4407 12.6363 13.555 12.5313 13.6484 12.438C13.7417 12.34 13.8164 12.2467 13.8724 12.158C13.933 12.0647 13.975 11.9737 13.9984 11.885C14.0264 11.7963 14.0404 11.7007 14.0404 11.598V11.5C14.0404 11.4067 14.0217 11.325 13.9844 11.255C13.947 11.185 13.898 11.1267 13.8374 11.08C13.7767 11.0333 13.7067 10.9983 13.6274 10.975C13.5527 10.9517 13.4757 10.94 13.3964 10.94C13.2797 10.94 13.177 10.9587 13.0884 10.996C13.0044 11.0333 12.9297 11.0847 12.8644 11.15C12.8037 11.2107 12.7524 11.283 12.7104 11.367C12.6684 11.4463 12.6357 11.5327 12.6124 11.626L11.6954 11.276C11.7514 11.108 11.8284 10.9493 11.9264 10.8C12.0244 10.646 12.1457 10.513 12.2904 10.401C12.4397 10.2843 12.6147 10.1933 12.8154 10.128C13.016 10.0627 13.2424 10.03 13.4944 10.03C13.7604 10.03 13.996 10.0673 14.2014 10.142C14.4067 10.2167 14.5794 10.3193 14.7194 10.45C14.864 10.5807 14.9737 10.737 15.0484 10.919C15.123 11.0963 15.1604 11.29 15.1604 11.5C15.1604 11.71 15.1254 11.9013 15.0554 12.074C14.9854 12.2467 14.8897 12.41 14.7684 12.564C14.6517 12.7133 14.514 12.8557 14.3554 12.991C14.1967 13.1263 14.031 13.264 13.8584 13.404L12.9484 14.118H15.2584V15Z" fill="black"/>
<path d="M15.2584 15V16.5C16.0868 16.5 16.7584 15.8284 16.7584 15H15.2584ZM11.8004 15H10.3004C10.3004 15.8284 10.9719 16.5 11.8004 16.5V15ZM11.8004 14.041L10.8251 12.9014C10.4921 13.1863 10.3004 13.6027 10.3004 14.041H11.8004ZM13.3054 12.753L14.2807 13.8926L14.2848 13.8891L13.3054 12.753ZM13.6484 12.438L14.709 13.4987C14.7176 13.49 14.7262 13.4813 14.7346 13.4725L13.6484 12.438ZM13.8724 12.158L12.6147 11.3405C12.6111 11.346 12.6076 11.3515 12.6041 11.357L13.8724 12.158ZM13.9984 11.885L12.568 11.4333C12.5607 11.4565 12.5539 11.4798 12.5478 11.5033L13.9984 11.885ZM13.8374 11.08L12.9228 12.2689L12.9228 12.2689L13.8374 11.08ZM13.6274 10.975L13.18 12.4067C13.188 12.4092 13.196 12.4117 13.2041 12.414L13.6274 10.975ZM13.0884 10.996L12.5063 9.61355C12.4972 9.61737 12.4882 9.62128 12.4792 9.62528L13.0884 10.996ZM12.8644 11.15L11.8037 10.0893L11.8037 10.0893L12.8644 11.15ZM12.7104 11.367L14.036 12.0688C14.0415 12.0586 14.0468 12.0482 14.052 12.0378L12.7104 11.367ZM12.6124 11.626L12.0775 13.0274C12.4783 13.1804 12.9254 13.1544 13.3058 12.9561C13.6862 12.7577 13.9635 12.406 14.0676 11.9898L12.6124 11.626ZM11.6954 11.276L10.2723 10.8017C10.0183 11.5639 10.4099 12.3909 11.1605 12.6774L11.6954 11.276ZM11.9264 10.8L13.1804 11.623C13.1843 11.6171 13.1881 11.6112 13.1919 11.6053L11.9264 10.8ZM12.2904 10.401L13.2086 11.5871L13.2138 11.583L12.2904 10.401ZM14.2014 10.142L13.6888 11.5517L13.6888 11.5517L14.2014 10.142ZM14.7194 10.45L13.6959 11.5466C13.7019 11.5522 13.7079 11.5577 13.7139 11.5632L14.7194 10.45ZM15.0484 10.919L13.6606 11.4884L13.6659 11.5011L15.0484 10.919ZM14.7684 12.564L13.5901 11.6357L13.5863 11.6405L14.7684 12.564ZM14.3554 12.991L15.3288 14.1323L15.3288 14.1323L14.3554 12.991ZM13.8584 13.404L14.7843 14.5841C14.7906 14.5792 14.7969 14.5742 14.8031 14.5691L13.8584 13.404ZM12.9484 14.118L12.0224 12.9379C11.5192 13.3327 11.3217 14.0032 11.5306 14.6078C11.7395 15.2124 12.3087 15.618 12.9484 15.618V14.118ZM15.2584 14.118H16.7584C16.7584 13.2896 16.0868 12.618 15.2584 12.618V14.118ZM15.2584 13.5H11.8004V16.5H15.2584V13.5ZM13.3004 15V14.041H10.3004V15H13.3004ZM12.7757 15.1806L14.2807 13.8926L12.3301 11.6134L10.8251 12.9014L12.7757 15.1806ZM14.2848 13.8891C14.4391 13.7561 14.5823 13.6254 14.709 13.4987L12.5877 11.3773C12.5278 11.4373 12.4423 11.5166 12.326 11.6169L14.2848 13.8891ZM14.7346 13.4725C14.8776 13.3223 15.0191 13.1513 15.1406 12.959L12.6041 11.357C12.6097 11.3483 12.6103 11.3484 12.6031 11.3575C12.5959 11.3664 12.5829 11.3818 12.5622 11.4035L14.7346 13.4725ZM15.13 12.9755C15.2598 12.7758 15.3773 12.539 15.449 12.2667L12.5478 11.5033C12.5727 11.4083 12.6063 11.3535 12.6147 11.3405L15.13 12.9755ZM15.4287 12.3367C15.5074 12.0875 15.5404 11.8381 15.5404 11.598H12.5404C12.5404 11.5632 12.5453 11.5051 12.568 11.4333L15.4287 12.3367ZM15.5404 11.598V11.5H12.5404V11.598H15.5404ZM15.5404 11.5C15.5404 11.2039 15.48 10.8717 15.3079 10.5491L12.6608 11.9609C12.5634 11.7783 12.5404 11.6094 12.5404 11.5H15.5404ZM15.3079 10.5491C15.1739 10.2979 14.9879 10.0726 14.7519 9.89106L12.9228 12.2689C12.8081 12.1807 12.7202 12.0721 12.6608 11.9609L15.3079 10.5491ZM14.7519 9.89107C14.5329 9.7226 14.2934 9.60736 14.0506 9.53595L13.2041 12.414C13.12 12.3893 13.0205 12.3441 12.9228 12.2689L14.7519 9.89107ZM14.0748 9.54328C13.8532 9.47404 13.6253 9.44 13.3964 9.44V12.44C13.3261 12.44 13.2522 12.4293 13.18 12.4067L14.0748 9.54328ZM13.3964 9.44C13.1213 9.44 12.8139 9.484 12.5063 9.61355L13.6705 12.3785C13.5401 12.4333 13.4381 12.44 13.3964 12.44V9.44ZM12.4792 9.62528C12.226 9.73778 11.9985 9.89451 11.8037 10.0893L13.925 12.2107C13.8609 12.2748 13.7827 12.3289 13.6976 12.3667L12.4792 9.62528ZM11.8037 10.0893C11.6188 10.2743 11.476 10.4816 11.3687 10.6962L14.052 12.0378C14.0287 12.0844 13.9886 12.1471 13.925 12.2107L11.8037 10.0893ZM11.3847 10.6652C11.2821 10.8589 11.2078 11.0597 11.1572 11.2622L14.0676 11.9898C14.0636 12.0056 14.0546 12.0338 14.036 12.0688L11.3847 10.6652ZM13.1472 10.2246L12.2302 9.87461L11.1605 12.6774L12.0775 13.0274L13.1472 10.2246ZM13.1184 11.7503C13.133 11.7064 13.153 11.6648 13.1804 11.623L10.6723 9.97702C10.5038 10.2338 10.3697 10.5096 10.2723 10.8017L13.1184 11.7503ZM13.1919 11.6053C13.1967 11.5977 13.2005 11.5934 13.2086 11.5871L11.3721 9.21491C11.0909 9.43261 10.852 9.69434 10.6609 9.99469L13.1919 11.6053ZM13.2138 11.583C13.2108 11.5854 13.2264 11.5717 13.2797 11.5543L12.351 8.70169C12.003 8.81499 11.6686 8.98326 11.3669 9.21896L13.2138 11.583ZM13.2797 11.5543C13.3046 11.5462 13.3704 11.53 13.4944 11.53V8.53C13.1143 8.53 12.7274 8.57912 12.351 8.70169L13.2797 11.5543ZM13.4944 11.53C13.6223 11.53 13.6791 11.5482 13.6888 11.5517L14.714 8.73231C14.313 8.5865 13.8984 8.53 13.4944 8.53V11.53ZM13.6888 11.5517C13.7108 11.5597 13.7193 11.5649 13.7183 11.5643C13.7168 11.5635 13.7081 11.558 13.6959 11.5466L15.7428 9.35342C15.436 9.06702 15.0823 8.86626 14.714 8.73231L13.6888 11.5517ZM13.7139 11.5632C13.7046 11.5548 13.6932 11.5424 13.6821 11.5267C13.6711 11.511 13.6643 11.4972 13.6606 11.4883L16.4361 10.3497C16.2771 9.96204 16.0375 9.61933 15.7248 9.33685L13.7139 11.5632ZM13.6659 11.5011C13.664 11.4965 13.6625 11.4923 13.6614 11.4886C13.6603 11.4849 13.6597 11.4823 13.6595 11.4812C13.659 11.4786 13.6604 11.4842 13.6604 11.5H16.6604C16.6604 11.1085 16.5899 10.7147 16.4308 10.3369L13.6659 11.5011ZM13.6604 11.5C13.6604 11.5108 13.6599 11.5186 13.6595 11.5237C13.659 11.5287 13.6586 11.5311 13.6586 11.5311C13.6586 11.5311 13.6587 11.5306 13.6589 11.5296C13.6592 11.5286 13.6595 11.5271 13.6601 11.5253C13.6612 11.5215 13.6628 11.5164 13.6653 11.5104L16.4455 12.6376C16.5967 12.2645 16.6604 11.8787 16.6604 11.5H13.6604ZM13.6653 11.5104C13.6511 11.5455 13.6286 11.5869 13.5901 11.6357L15.9466 13.4923C16.1508 13.2331 16.3197 12.9479 16.4455 12.6376L13.6653 11.5104ZM13.5863 11.6405C13.5375 11.703 13.4715 11.7734 13.3819 11.8497L15.3288 14.1323C15.5566 13.938 15.7659 13.7237 15.9504 13.4875L13.5863 11.6405ZM13.3819 11.8497C13.2333 11.9765 13.0773 12.1062 12.9137 12.2389L14.8031 14.5691C14.9848 14.4218 15.1601 14.2762 15.3288 14.1323L13.3819 11.8497ZM12.9324 12.2239L12.0224 12.9379L13.8743 15.2981L14.7843 14.5841L12.9324 12.2239ZM12.9484 15.618H15.2584V12.618H12.9484V15.618ZM13.7584 14.118V15H16.7584V14.118H13.7584Z" fill="white" mask="url(#path-10-outside-1_1_2241)"/>
</g>
<defs>
<clipPath id="clip0_1_2241">
<rect width="16" height="16" fill="white"/>
</clipPath>
</defs>
</svg>
