<svg width="16" height="16" viewBox="0 0 16 16" fill="none" xmlns="http://www.w3.org/2000/svg"><path d="M12.4004 1.25C12.6679 1.25 12.9139 1.24991 13.1182 1.2666C13.3312 1.28403 13.5647 1.32314 13.7949 1.44043C14.124 1.60818 14.3918 1.87597 14.5596 2.20508C14.6769 2.43527 14.716 2.66879 14.7334 2.88184C14.7501 3.08611 14.75 3.33211 14.75 3.59961V12.4004C14.75 12.6679 14.7501 12.9139 14.7334 13.1182C14.716 13.3312 14.6769 13.5647 14.5596 13.7949C14.3918 14.124 14.124 14.3918 13.7949 14.5596C13.5647 14.6769 13.3312 14.716 13.1182 14.7334C12.9139 14.7501 12.6679 14.75 12.4004 14.75H3.59961C3.33211 14.75 3.08611 14.7501 2.88184 14.7334C2.66879 14.716 2.43527 14.6769 2.20508 14.5596C1.87597 14.3918 1.60818 14.124 1.44043 13.7949C1.32314 13.5647 1.28403 13.3312 1.2666 13.1182C1.24991 12.9139 1.25 12.6679 1.25 12.4004V3.59961C1.25 3.33211 1.24991 3.08611 1.2666 2.88184C1.28403 2.66879 1.32314 2.43527 1.44043 2.20508C1.60818 1.87597 1.87597 1.60818 2.20508 1.44043C2.43527 1.32314 2.66879 1.28403 2.88184 1.2666C3.08611 1.24991 3.33211 1.25 3.59961 1.25H12.4004ZM3.59961 2.75C3.30744 2.75 3.13298 2.7502 3.00391 2.76074C2.88384 2.77058 2.87034 2.78569 2.88672 2.77734C2.83968 2.80131 2.80131 2.83968 2.77734 2.88672C2.78569 2.87034 2.77058 2.88384 2.76074 3.00391C2.7502 3.13298 2.75 3.30744 2.75 3.59961V12.4004C2.75 12.6926 2.7502 12.867 2.76074 12.9961C2.77058 13.1162 2.78569 13.1297 2.77734 13.1133C2.80131 13.1603 2.83968 13.1987 2.88672 13.2227C2.87034 13.2143 2.88384 13.2294 3.00391 13.2393C3.13298 13.2498 3.30744 13.25 3.59961 13.25H12.4004C12.6926 13.25 12.867 13.2498 12.9961 13.2393C13.1162 13.2294 13.1297 13.2143 13.1133 13.2227C13.1603 13.1987 13.1987 13.1603 13.2227 13.1133C13.2143 13.1297 13.2294 13.1162 13.2393 12.9961C13.2498 12.867 13.25 12.6926 13.25 12.4004V3.59961C13.25 3.30744 13.2498 3.13298 13.2393 3.00391C13.2294 2.88384 13.2143 2.87034 13.2227 2.88672C13.1987 2.83968 13.1603 2.80131 13.1133 2.77734C13.1297 2.78569 13.1162 2.77058 12.9961 2.76074C12.867 2.7502 12.6926 2.75 12.4004 2.75H3.59961Z" fill="currentColor"/></svg>