<svg width="16" height="16" viewBox="0 0 16 16" fill="none" xmlns="http://www.w3.org/2000/svg"><path d="M12.4004 1.25C12.6681 1.25 12.9137 1.24979 13.1182 1.2666C13.3314 1.28415 13.5649 1.32423 13.7949 1.44141C14.1237 1.6091 14.3909 1.87628 14.5586 2.20508C14.6758 2.43505 14.7158 2.66861 14.7334 2.88184C14.7502 3.08631 14.75 3.33193 14.75 3.59961V12.4004C14.75 12.6681 14.7502 12.9137 14.7334 13.1182C14.7158 13.3314 14.6758 13.5649 14.5586 13.7949C14.3909 14.1237 14.1237 14.3909 13.7949 14.5586C13.5649 14.6758 13.3314 14.7158 13.1182 14.7334C12.9137 14.7502 12.6681 14.75 12.4004 14.75H3.59961C3.33193 14.75 3.08631 14.7502 2.88184 14.7334C2.66861 14.7158 2.43505 14.6758 2.20508 14.5586C1.87628 14.3909 1.6091 14.1237 1.44141 13.7949C1.32423 13.5649 1.28415 13.3314 1.2666 13.1182C1.24979 12.9137 1.25 12.6681 1.25 12.4004V3.59961C1.25 3.33193 1.24979 3.08631 1.2666 2.88184C1.28415 2.66861 1.32423 2.43505 1.44141 2.20508C1.6091 1.87628 1.87628 1.6091 2.20508 1.44141C2.43505 1.32423 2.66861 1.28415 2.88184 1.2666C3.08631 1.24979 3.33193 1.25 3.59961 1.25H12.4004ZM12.0303 5.46973C11.7374 5.17683 11.2626 5.17683 10.9697 5.46973L7 9.43945L5.5459 7.98535L5.46387 7.91113C5.1702 7.67867 4.74145 7.698 4.46973 7.96973C4.17683 8.26262 4.17683 8.73738 4.46973 9.03027L6.46973 11.0303C6.76262 11.3232 7.23738 11.3232 7.53027 11.0303L12.0303 6.53027C12.3232 6.23738 12.3232 5.76262 12.0303 5.46973Z" fill="currentColor"/></svg>