<svg width="16" height="16" viewBox="0 0 16 16" fill="none" xmlns="http://www.w3.org/2000/svg"><path d="M7.07642 2.76685C7.41812 1.94595 8.58136 1.94599 8.9231 2.76685L10.1038 5.60376L13.1672 5.84985C14.0536 5.92107 14.4127 7.02702 13.7375 7.60571L11.4026 9.60571L12.1165 12.595C12.3228 13.4602 11.3814 14.1446 10.6223 13.6809L7.99927 12.0784L5.3772 13.6809C4.61811 14.1444 3.67668 13.4601 3.88306 12.595L4.59595 9.60474L2.26196 7.60571C1.5872 7.02692 1.94688 5.92095 2.83325 5.84985L5.89478 5.60376L7.07642 2.76685ZM7.16431 6.46216C7.0203 6.80839 6.69435 7.04547 6.32056 7.07544L4.14966 7.24829L5.80396 8.66528C6.08859 8.90915 6.21304 9.29189 6.12622 9.65649L5.62036 11.7737L7.47876 10.6389L7.60181 10.5754C7.89747 10.4471 8.24072 10.4682 8.52075 10.6389L10.3782 11.7737L9.87329 9.65649C9.78654 9.29201 9.91108 8.90914 10.1956 8.66528L11.8489 7.24829L9.67896 7.07544C9.30531 7.04536 8.98015 6.80829 8.83618 6.46216L7.99927 4.45142L7.16431 6.46216Z" fill="currentColor"/></svg>