<svg width="16" height="16" viewBox="0 0 16 16" fill="none" xmlns="http://www.w3.org/2000/svg"><path fill-rule="evenodd" clip-rule="evenodd" d="M1.75 4C1.75 3.58579 2.08579 3.25 2.5 3.25H6.16667H9.83333H13.5C13.9142 3.25 14.25 3.58579 14.25 4V8V12C14.25 12.4142 13.9142 12.75 13.5 12.75H9.83333H6.16667H2.5C2.08579 12.75 1.75 12.4142 1.75 12V8V4ZM3.25 4.75V7.25H5.41667V4.75H3.25ZM6.91667 4.75V7.25H9.08333V4.75H6.91667ZM10.5833 4.75V7.25H12.75V4.75H10.5833ZM12.75 8.75H10.5833V11.25H12.75V8.75ZM9.08333 11.25V8.75H6.91667V11.25H9.08333ZM5.41667 11.25V8.75H3.25V11.25H5.41667Z" fill="currentColor"/></svg>