<svg width="16" height="16" viewBox="0 0 16 16" fill="none" xmlns="http://www.w3.org/2000/svg"><path fill-rule="evenodd" clip-rule="evenodd" d="M6.56671 2.63372L7.40448 3.61112C8.37749 4.74629 7.5709 6.5 6.07578 6.5H5.75C5.61193 6.5 5.5 6.61193 5.5 6.75V8.57297C5.5 9.28855 5.06434 9.93204 4.39993 10.1978L3.35128 10.6173C3.93063 11.504 4.7708 12.2048 5.76176 12.6106L6.33303 10.3256C6.52779 9.54652 7.22776 9 8.03078 9H9.59699C9.74913 9 9.866 8.86525 9.84448 8.71464L9.62944 7.20937C9.50685 6.35124 10.031 5.53269 10.8616 5.2849L12.1587 4.89799C11.2226 3.45395 9.59708 2.5 7.75 2.5C7.34263 2.5 6.94663 2.54626 6.56671 2.63372ZM12.7902 6.27495L11.2904 6.72232C11.1717 6.75771 11.0969 6.87465 11.1144 6.99724L11.3294 8.50251C11.48 9.55677 10.662 10.5 9.59699 10.5H8.03078C7.91606 10.5 7.81607 10.5781 7.78825 10.6894L7.21725 12.9734C7.39228 12.991 7.57 13 7.75 13C10.6495 13 13 10.6495 13 7.75C13 7.23712 12.9267 6.74231 12.7902 6.27495ZM2.71863 9.25478L3.84285 8.80509C3.93776 8.76712 4 8.67519 4 8.57297V6.75C4 5.7835 4.7835 5 5.75 5H6.07578C6.28937 5 6.40459 4.74947 6.26559 4.5873L5.09389 3.22032C3.54077 4.13307 2.5 5.82065 2.5 7.75C2.5 8.27372 2.57647 8.77866 2.71863 9.25478ZM4.96771 1.59848C5.81702 1.2138 6.75956 1 7.75 1C10.521 1 12.9003 2.66959 13.9401 5.0546C14.3005 5.88118 14.5 6.79328 14.5 7.75C14.5 11.4779 11.4779 14.5 7.75 14.5C7.18642 14.5 6.63796 14.4308 6.1131 14.3C4.10049 13.7985 2.44752 12.3957 1.60474 10.5461C1.21612 9.6932 1 8.74582 1 7.75C1 5.01275 2.62925 2.65763 4.96771 1.59848Z" fill="currentColor"/></svg>