<svg width="16" height="16" viewBox="0 0 16 16" fill="none" xmlns="http://www.w3.org/2000/svg"><path d="M13.4604 1.44629L13.5659 1.46289C14.0887 1.57071 14.4904 2.00213 14.5542 2.54004C14.5734 2.70232 14.5502 2.84765 14.5317 2.94336C14.5127 3.04173 14.4837 3.15913 14.4546 3.27539C14.2702 4.01287 14.1666 4.42869 14.0249 4.8291C13.6834 5.79405 13.1756 6.69213 12.5239 7.48145C12.2535 7.809 11.9492 8.11182 11.4116 8.64941L11.2954 8.76465L11.7427 11.8936C11.776 12.1271 11.6975 12.3634 11.5308 12.5303L9.53076 14.5303C9.34706 14.714 9.08049 14.789 8.82764 14.7295C8.57489 14.6697 8.37077 14.4837 8.28857 14.2373L7.67236 12.3887L7.03076 13.0303C6.73797 13.3231 6.26313 13.3229 5.97021 13.0303L5.80322 12.8633C5.64426 13.2946 5.49693 13.648 5.26416 13.9424C5.01883 14.2524 4.70912 14.5059 4.35693 14.6855C3.93273 14.9019 3.443 14.9663 2.80908 15.0615L1.61182 15.2412C1.3766 15.2765 1.13847 15.1984 0.970215 15.0303C0.801961 14.862 0.72395 14.624 0.759277 14.3887L0.938965 13.1914C1.03414 12.5574 1.09773 12.0678 1.31396 11.6436C1.4937 11.2911 1.74782 10.9808 2.05811 10.7354C2.35229 10.5028 2.70526 10.3551 3.13623 10.1963L2.97021 10.0303C2.67733 9.73738 2.67733 9.26262 2.97021 8.96973L3.61182 8.32812L1.76318 7.71191C1.51673 7.62977 1.32985 7.42563 1.27002 7.17285C1.21029 6.91987 1.28642 6.65353 1.47021 6.46973L3.47021 4.46973L3.53564 4.41113C3.69565 4.28498 3.90174 4.22874 4.10596 4.25781L7.23389 4.7041L7.35107 4.58789C7.8886 4.05037 8.1915 3.74702 8.51904 3.47656C9.30834 2.82488 10.2065 2.3161 11.1714 1.97461C11.5716 1.83302 11.9879 1.73019 12.7251 1.5459C12.8413 1.51686 12.9588 1.48675 13.0571 1.46777C13.1289 1.45395 13.2288 1.43769 13.3423 1.43848L13.4604 1.44629ZM4.01221 11.4736C3.31119 11.7269 3.12543 11.8041 2.98877 11.9121C2.84776 12.0237 2.73257 12.165 2.65088 12.3252C2.5718 12.4804 2.53302 12.677 2.42236 13.4141L2.39307 13.6064L2.58643 13.5781C3.32322 13.4675 3.52011 13.4287 3.67529 13.3496C3.83537 13.2679 3.97688 13.1527 4.08838 13.0117C4.19636 12.8751 4.27354 12.6893 4.52686 11.9883L4.6333 11.6934L4.30615 11.3662L4.01221 11.4736ZM8.85791 11.2021L9.32764 12.6113L10.2046 11.7344L9.97021 10.0898L8.85791 11.2021ZM12.9683 3.03125C12.2885 3.20135 11.9717 3.2824 11.6714 3.38867C10.872 3.67158 10.1281 4.09294 9.47412 4.63281C9.21426 4.84738 8.96867 5.09237 8.41162 5.64941L4.56104 9.5L6.50049 11.4395L9.97021 7.96973L10.3511 7.58789C10.9078 7.03114 11.1522 6.7861 11.3667 6.52637C11.9066 5.87248 12.3279 5.12846 12.6108 4.3291C12.7172 4.02859 12.798 3.71154 12.9683 3.03125ZM3.38916 6.67188L4.79834 7.1416L5.90967 6.0293L4.26514 5.79492L3.38916 6.67188Z" fill="currentColor"/></svg>