<svg width="16" height="16" viewBox="0 0 16 16" fill="none" xmlns="http://www.w3.org/2000/svg"><path d="M12.5 9.75C12.9142 9.75 13.25 10.0858 13.25 10.5V11.75H14.5C14.9142 11.75 15.25 12.0858 15.25 12.5C15.25 12.9142 14.9142 13.25 14.5 13.25H13.25V14.5C13.25 14.9142 12.9142 15.25 12.5 15.25C12.0858 15.25 11.75 14.9142 11.75 14.5V13.25H10.5C10.0858 13.25 9.75 12.9142 9.75 12.5C9.75 12.0858 10.0858 11.75 10.5 11.75H11.75V10.5C11.75 10.0858 12.0858 9.75 12.5 9.75ZM5 1.25C5.41421 1.25 5.75 1.58579 5.75 2V2.75H10.25V2C10.25 1.80109 10.3291 1.61038 10.4697 1.46973C10.6104 1.32907 10.8011 1.25 11 1.25H14C14.4142 1.25 14.75 1.58579 14.75 2V5C14.75 5.19891 14.6709 5.38962 14.5303 5.53027C14.3896 5.67093 14.1989 5.75 14 5.75H13.25V7.5C13.25 7.91421 12.9142 8.25 12.5 8.25C12.0858 8.25 11.75 7.91421 11.75 7.5V5.75H11C10.5858 5.75 10.25 5.41421 10.25 5V4.25H5.75V5C5.75 5.41421 5.41421 5.75 5 5.75H4.25V10.25H5C5.41421 10.25 5.75 10.5858 5.75 11V11.75H7.5C7.91421 11.75 8.25 12.0858 8.25 12.5C8.25 12.9142 7.91421 13.25 7.5 13.25H5.75V14C5.75 14.4142 5.41421 14.75 5 14.75H2C1.58579 14.75 1.25 14.4142 1.25 14V11C1.25 10.5858 1.58579 10.25 2 10.25H2.75V5.75H2C1.58579 5.75 1.25 5.41421 1.25 5V2C1.25 1.58579 1.58579 1.25 2 1.25H5ZM2.75 13.25H4.25V11.75H2.75V13.25ZM2.75 4.25H4.25V2.75H2.75V4.25ZM11.75 4.25H13.25V2.75H11.75V4.25Z" fill="currentColor"/></svg>