<svg width="16" height="16" viewBox="0 0 16 16" fill="none" xmlns="http://www.w3.org/2000/svg"><path fill-rule="evenodd" clip-rule="evenodd" d="M5 1.75C5.41421 1.75 5.75 2.08579 5.75 2.5V3H6.25V2.5C6.25 2.08579 6.58579 1.75 7 1.75C7.41421 1.75 7.75 2.08579 7.75 2.5V3H8.25V2.5C8.25 2.08579 8.58579 1.75 9 1.75C9.41421 1.75 9.75 2.08579 9.75 2.5V3H10.25V2.5C10.25 2.08579 10.5858 1.75 11 1.75C11.4142 1.75 11.75 2.08579 11.75 2.5V3H12C12.5523 3 13 3.44772 13 4V13C13 13.5523 12.5523 14 12 14H4C3.44772 14 3 13.5523 3 13V4C3 3.44772 3.44772 3 4 3H4.25V2.5C4.25 2.08579 4.58579 1.75 5 1.75ZM11.5 11C11.5 11.2761 11.2761 11.5 11 11.5H10C9.72386 11.5 9.5 11.2761 9.5 11C9.5 10.7239 9.72386 10.5 10 10.5H11C11.2761 10.5 11.5 10.7239 11.5 11ZM11.5 6C11.5 6.27614 11.2761 6.5 11 6.5H5C4.72385 6.5 4.5 6.27614 4.5 6C4.5 5.72386 4.72385 5.5 5 5.5L11 5.5C11.2761 5.5 11.5 5.72386 11.5 6ZM11.5 8.5C11.5 8.77614 11.2761 9 11 9L10 9C9.72386 9 9.5 8.77614 9.5 8.5C9.5 8.22386 9.72386 8 10 8L11 8C11.2761 8 11.5 8.22386 11.5 8.5ZM8 11C8 11.2761 7.77614 11.5 7.5 11.5H5C4.72385 11.5 4.5 11.2761 4.5 11C4.5 10.7239 4.72385 10.5 5 10.5L7.5 10.5C7.77614 10.5 8 10.7239 8 11ZM8 8.5C8 8.77614 7.77614 9 7.5 9L5 9C4.72385 9 4.5 8.77614 4.5 8.5C4.5 8.22386 4.72385 8 5 8L7.5 8C7.77614 8 8 8.22386 8 8.5Z" fill="currentColor"/></svg>