<svg width="16" height="16" viewBox="0 0 16 16" fill="none" xmlns="http://www.w3.org/2000/svg"><path d="M4.84094 5.26648C5.09012 5.21254 5.35011 5.28934 5.5304 5.4696L10.5304 10.4696C10.7107 10.6499 10.7874 10.9099 10.7335 11.1591C10.6795 11.408 10.5022 11.6124 10.2638 11.702L2.26379 14.702C1.98843 14.8053 1.67781 14.7381 1.46985 14.5302C1.26191 14.3222 1.19471 14.0116 1.29797 13.7362L4.29797 5.73621C4.38757 5.49777 4.59202 5.3205 4.84094 5.26648ZM12.0001 12.2499C12.4142 12.2499 12.75 12.5858 12.7501 12.9999C12.7501 13.4141 12.4143 13.7498 12.0001 13.7499H11.9904C11.5761 13.7499 11.2404 13.4141 11.2404 12.9999C11.2404 12.5857 11.5762 12.2499 11.9904 12.2499H12.0001ZM3.28235 12.7186L4.64661 12.2069L3.79407 11.3544L3.28235 12.7186ZM11.5001 8.24988C13.0188 8.24994 14.25 9.48119 14.2501 10.9999C14.2501 11.4141 13.9143 11.7498 13.5001 11.7499C13.0859 11.7499 12.7501 11.4141 12.7501 10.9999C12.75 10.3096 12.1904 9.74994 11.5001 9.74988C11.0859 9.74988 10.7501 9.41409 10.7501 8.99988C10.7502 8.58573 11.086 8.24988 11.5001 8.24988ZM4.37219 9.8114L6.18958 11.6288L6.64661 11.4569L4.54407 9.35437L4.37219 9.8114ZM5.12219 7.8114L8.18958 10.8788L8.64661 10.7069L5.29407 7.35437L5.12219 7.8114ZM13.1642 1.82898C13.5346 1.64383 13.9858 1.79453 14.171 2.16492C14.3559 2.53529 14.2053 2.98557 13.8351 3.17078L12.8234 3.67664C12.5429 3.81688 12.3908 4.12793 12.4523 4.43542C12.69 5.62435 11.9185 6.7806 10.7296 7.01843L9.64758 7.23523C9.24154 7.31644 8.84617 7.0533 8.76477 6.64734C8.68363 6.24132 8.94672 5.8459 9.35266 5.76453L10.4357 5.54773C10.8122 5.47231 11.0569 5.10594 10.9816 4.72937C10.7875 3.75863 11.267 2.77757 12.1525 2.33484L13.1642 1.82898ZM13.5001 5.74988C13.9143 5.74991 14.25 6.08575 14.2501 6.49988C14.2501 6.91407 13.9143 7.24984 13.5001 7.24988H13.4904C13.0761 7.24988 12.7404 6.91409 12.7404 6.49988C12.7404 6.08573 13.0762 5.74988 13.4904 5.74988H13.5001ZM3.00989 4.24988C3.42403 4.24991 3.75981 4.58575 3.75989 4.99988C3.75989 5.41407 3.42407 5.74984 3.00989 5.74988H3.00012C2.58591 5.74988 2.25012 5.41409 2.25012 4.99988C2.2502 4.58573 2.58595 4.24988 3.00012 4.24988H3.00989ZM5.50012 1.74988C7.0188 1.74995 8.25004 2.98121 8.25012 4.49988C8.25012 4.91406 7.91429 5.24982 7.50012 5.24988C7.08591 5.24988 6.75012 4.91409 6.75012 4.49988C6.75004 3.80964 6.19037 3.24995 5.50012 3.24988C5.08591 3.24987 4.75012 2.91409 4.75012 2.49988C4.7502 2.08573 5.08595 1.74987 5.50012 1.74988ZM9.50989 1.74988C9.92403 1.74991 10.2598 2.08575 10.2599 2.49988C10.2599 2.91407 9.92407 3.24984 9.50989 3.24988H9.50012C9.08591 3.24988 8.75012 2.91409 8.75012 2.49988C8.7502 2.08573 9.08595 1.74988 9.50012 1.74988H9.50989Z" fill="currentColor"/></svg>