<svg width="16" height="16" viewBox="0 0 16 16" fill="none" xmlns="http://www.w3.org/2000/svg"><path d="M13.5 1.75C13.9142 1.75 14.25 2.08579 14.25 2.5V9.5C14.25 9.91421 13.9142 10.25 13.5 10.25H10.25V13.5C10.25 13.9142 9.91421 14.25 9.5 14.25H2.5C2.08579 14.25 1.75 13.9142 1.75 13.5V6.5C1.75 6.08579 2.08579 5.75 2.5 5.75H5.75V2.5C5.75 2.08579 6.08579 1.75 6.5 1.75H13.5ZM3.25 7.25V12.75H8.75V7.25H3.25ZM7.25 3.25V5.75H9.5C9.91421 5.75 10.25 6.08579 10.25 6.5V8.75H12.75V3.25H7.25Z" fill="currentColor"/></svg>