<svg width="16" height="16" viewBox="0 0 16 16" fill="none" xmlns="http://www.w3.org/2000/svg"><path d="M2.25391 8.92285C2.29253 8.54488 2.61183 8.25 3 8.25C3.41421 8.25 3.75 8.58579 3.75 9L3.75 12C3.75 12.1381 3.86193 12.25 4 12.25L12 12.25C12.1381 12.25 12.25 12.1381 12.25 12L12.25 9C12.25 8.58579 12.5858 8.25 13 8.25C13.4142 8.25 13.75 8.58579 13.75 9L13.75 12C13.75 12.9665 12.9665 13.75 12 13.75L4 13.75C3.0335 13.75 2.25 12.9665 2.25 12L2.25 9L2.25391 8.92285ZM4.41797 6.47363C4.17766 6.17905 4.19512 5.74433 4.46973 5.46973C4.74433 5.19512 5.17905 5.17766 5.47363 5.41797L5.53027 5.46973L7.25 7.18945L7.25 2C7.25 1.58579 7.58579 1.25 8 1.25C8.41421 1.25 8.75 1.58579 8.75 2L8.75 7.18945L10.4697 5.46973C10.7626 5.17683 11.2374 5.17683 11.5303 5.46973C11.8232 5.76262 11.8232 6.23738 11.5303 6.53027L8.53027 9.53027L8.41602 9.62402C8.29372 9.70555 8.14915 9.75 8 9.75C7.80109 9.75 7.61038 9.67092 7.46973 9.53027L4.46973 6.53027L4.41797 6.47363Z" fill="currentColor"/></svg>