<svg width="16" height="16" viewBox="0 0 16 16" fill="none" xmlns="http://www.w3.org/2000/svg"><path fill-rule="evenodd" clip-rule="evenodd" d="M12.3455 5.26841C12.2313 5.23131 12.1323 5.13231 11.9343 4.9343L11.0657 4.06567C10.8677 3.86766 10.7687 3.76866 10.7316 3.65449C10.6989 3.55407 10.6989 3.4459 10.7316 3.34548C10.7687 3.23131 10.8677 3.13231 11.0657 2.9343L11.4343 2.56567L11.4343 2.56566C11.6323 2.36766 11.7313 2.26866 11.8455 2.23156C11.9459 2.19894 12.0541 2.19894 12.1545 2.23156C12.2687 2.26866 12.3677 2.36766 12.5657 2.56567L13.4343 3.4343C13.6323 3.63231 13.7313 3.73131 13.7684 3.84548C13.8011 3.9459 13.8011 4.05407 13.7684 4.15449C13.7313 4.26866 13.6323 4.36766 13.4343 4.56567L13.0657 4.9343C12.8677 5.13231 12.7687 5.23131 12.6545 5.26841C12.5541 5.30104 12.4459 5.30104 12.3455 5.26841ZM3.90962 13.9862C3.85207 14 3.79092 14 3.66863 14H2.8C2.51997 14 2.37996 14 2.273 13.9455C2.17892 13.8976 2.10243 13.8211 2.0545 13.727C2 13.62 2 13.48 2 13.2V12.3314C2 12.2091 2 12.1479 2.01382 12.0904C2.02606 12.0394 2.04627 11.9906 2.07368 11.9458C2.1046 11.8954 2.14784 11.8521 2.23431 11.7657L2.23431 11.7657L8.93431 5.06567C9.13232 4.86766 9.23133 4.76866 9.34549 4.73156C9.44591 4.69894 9.55409 4.69894 9.65451 4.73156C9.76867 4.76866 9.86768 4.86766 10.0657 5.06567L10.9343 5.9343C11.1323 6.13231 11.2313 6.23131 11.2684 6.34548C11.3011 6.4459 11.3011 6.55407 11.2684 6.65449C11.2313 6.76866 11.1323 6.86766 10.9343 7.06567L4.23432 13.7657L4.2343 13.7657C4.14783 13.8522 4.1046 13.8954 4.05414 13.9263C4.00941 13.9537 3.96063 13.9739 3.90962 13.9862Z" fill="currentColor"/></svg>