<svg width="16" height="16" viewBox="0 0 16 16" fill="none" xmlns="http://www.w3.org/2000/svg"><path fill-rule="evenodd" clip-rule="evenodd" d="M11.6115 1.33154C11.8085 3.24522 13.1502 4.84649 15 5.375V11.5773L14.6685 11.6115C12.7548 11.8085 11.1535 13.1502 10.625 15H4.42267L4.38849 14.6685C4.19149 12.7548 2.84977 11.1535 1 10.625V4.42267L1.33154 4.38849C3.24522 4.19149 4.84649 2.84977 5.375 1H11.5773L11.6115 1.33154ZM6.17694 2.0929C5.96689 5.24301 4.27995 8.09002 1.6571 9.79358L2.0929 9.82306C5.24289 10.0331 8.08999 11.7198 9.79358 14.3425L9.82306 13.9071C10.0331 10.757 11.7197 7.90956 14.3425 6.20599L13.9071 6.17694C10.7569 5.96689 7.90954 4.28007 6.20599 1.6571L6.17694 2.0929Z" fill="currentColor"/></svg>