<svg width="16" height="16" viewBox="0 0 16 16" fill="none" xmlns="http://www.w3.org/2000/svg"><path d="M14.9649 8.72073C14.9649 7.59751 12.0734 7.49034 12.1641 6.68245C12.296 5.5242 11.7416 4.37007 10.4803 3.20976C8.80066 1.66611 5.35269 1.84541 4.12437 2.40599C2.89605 2.96657 2.42821 4.2526 2.42821 5.13056C2.42821 6.00852 1.03708 5.79624 0.964943 6.70718C0.894871 7.62018 3.63799 8.17045 3.63799 8.9701C3.63799 9.76975 1.77283 9.2813 1.7378 10.5096C1.70276 11.7379 3.07535 12.1975 3.53288 12.4449C3.98835 12.6901 4.50152 13.2898 4.87456 13.7082C5.54848 14.4646 6.03487 14.7923 7.52699 14.8252C8.68936 14.85 9.68892 14.1925 10.2165 13.7597C10.9523 13.1538 12.6134 13.9823 13.3162 12.8261C14.0169 11.6679 12.6155 11.4577 12.8257 10.6168C13.0359 9.77387 14.9649 9.846 14.9649 8.72279V8.72073ZM9.29528 9.65433C9.36742 10.2953 8.87485 11.7586 7.8011 11.7586C6.53156 11.7586 5.63711 11.2495 5.63711 10.5488C5.63711 9.84806 7.04061 9.5451 7.05504 8.9227C7.06946 8.30029 4.64991 7.66758 4.64991 6.93182C4.64991 6.19607 5.87824 6.40628 5.87824 5.87868C5.87824 5.35108 6.14822 4.37007 7.0571 4.37007C7.96597 4.37007 9.15514 5.23361 9.19018 6.28675C9.22521 7.33989 10.9523 7.60781 10.9523 8.39303C10.9523 9.17826 9.21903 8.98453 9.29528 9.65433Z" fill="currentColor"/></svg>