<svg width="16" height="16" viewBox="0 0 16 16" fill="none" xmlns="http://www.w3.org/2000/svg"><path d="M2.46936 2.46979C2.76221 2.17694 3.237 2.17702 3.52991 2.46979L13.5299 12.4698C13.8228 12.7627 13.8228 13.2374 13.5299 13.5303C13.237 13.823 12.7622 13.8232 12.4694 13.5303L10.7448 11.8057L8.67639 13.7364C8.2939 14.0877 7.70638 14.0876 7.32385 13.7364L1.32385 8.22565C0.994588 7.92318 0.906016 7.43945 1.10706 7.0401V7.03912L1.10803 7.03717L1.10999 7.03424L1.11389 7.02643L1.12463 7.00592C1.13356 6.98904 1.1457 6.96658 1.16077 6.93951C1.1909 6.88538 1.23318 6.81131 1.2887 6.72174C1.39977 6.54257 1.56365 6.2978 1.78381 6.01959C2.09242 5.62964 2.77491 4.9092 3.36487 4.42584L2.46936 3.53033C2.17665 3.23749 2.17669 2.76265 2.46936 2.46979ZM8.46545 3.01276C10.7262 3.13592 12.3356 4.13843 13.3668 5.09967C13.8803 5.57829 14.254 6.04935 14.5016 6.40436C14.6258 6.5824 14.7193 6.73299 14.7838 6.84283C14.8159 6.89755 14.8409 6.94235 14.859 6.97565C14.868 6.99216 14.8759 7.006 14.8815 7.01666L14.8883 7.03131L14.8912 7.03619L14.8922 7.03912C15.0933 7.43844 15.0056 7.92314 14.6764 8.22565L13.5758 9.23639C13.1813 9.5986 12.5718 9.58575 12.193 9.20709L7.70374 4.71783C7.41094 4.42486 7.32887 3.98184 7.49768 3.60358C7.66661 3.22519 8.05168 2.99022 8.46545 3.01276Z" fill="currentColor"/></svg>