<svg width="16" height="16" viewBox="0 0 16 16" fill="none" xmlns="http://www.w3.org/2000/svg"><path d="M8 2C11.3137 2 14 4.68629 14 8V13.3682C14 13.717 13.717 14 13.3682 14H8C4.6863 14 2.00001 11.3137 2 8C2 4.68629 4.68629 2 8 2ZM8 3.5C5.51472 3.5 3.5 5.51472 3.5 8C3.50001 10.4853 5.51472 12.5 8 12.5H12.5V8C12.5 5.51472 10.4853 3.5 8 3.5ZM10.5 8.75C10.9142 8.75 11.25 9.08579 11.25 9.5C11.25 9.91421 10.9142 10.25 10.5 10.25H6.5C6.08579 10.25 5.75001 9.91421 5.75 9.5C5.75001 9.08579 6.08579 8.75 6.5 8.75H10.5ZM9 6.25C9.41421 6.25 9.74999 6.58579 9.75 7C9.74999 7.41421 9.41421 7.75 9 7.75H6.5C6.08579 7.75 5.75001 7.41421 5.75 7C5.75001 6.58579 6.08579 6.25 6.5 6.25H9Z" fill="currentColor"/></svg>