<svg width="16" height="16" viewBox="0 0 16 16" fill="none" xmlns="http://www.w3.org/2000/svg"><path fill-rule="evenodd" clip-rule="evenodd" d="M1.25 2C1.25 1.58579 1.58579 1.25 2 1.25H5C5.41421 1.25 5.75 1.58579 5.75 2V2.75L10.25 2.75V2C10.25 1.80109 10.329 1.61032 10.4697 1.46967C10.6103 1.32902 10.8011 1.25 11 1.25L14 1.25C14.4142 1.25 14.75 1.58579 14.75 2V5C14.75 5.19891 14.671 5.38968 14.5303 5.53033C14.3897 5.67098 14.1989 5.75 14 5.75H13.25L13.25 10.25H14C14.4142 10.25 14.75 10.5858 14.75 11V14C14.75 14.4142 14.4142 14.75 14 14.75H11C10.5858 14.75 10.25 14.4142 10.25 14V13.25H5.75V14C5.75 14.4142 5.41421 14.75 5 14.75H2C1.58579 14.75 1.25 14.4142 1.25 14V11C1.25 10.5858 1.58579 10.25 2 10.25H2.75V5.75H2C1.58579 5.75 1.25 5.41421 1.25 5V2ZM4.25 5.75V10.25H5C5.41421 10.25 5.75 10.5858 5.75 11V11.75H10.25V11C10.25 10.5858 10.5858 10.25 11 10.25H11.75L11.75 5.75H11C10.5858 5.75 10.25 5.41421 10.25 5V4.25L5.75 4.25V5C5.75 5.41421 5.41421 5.75 5 5.75H4.25ZM4.25 4.25V2.75H2.75V4.25L3.5 4.25L4.25 4.25ZM13.25 4.25V2.75L11.75 2.75V3.5V4.25H12.5H13.25ZM11.75 12.5V11.75H12.4988C12.4992 11.75 12.4996 11.75 12.5 11.75C12.5004 11.75 12.5008 11.75 12.5012 11.75H13.25V13.25H11.75V12.5ZM2.75 11.75V13.25H4.25V12.5V11.75H3.5H2.75Z" fill="currentColor"/></svg>