<svg width="16" height="16" viewBox="0 0 16 16" fill="none" xmlns="http://www.w3.org/2000/svg"><path fill-rule="evenodd" clip-rule="evenodd" d="M9.69567 2.77175C8.6379 2.16731 7.32941 2.21238 6.31574 2.88816L5.58405 3.37595C5.23941 3.60571 5.14628 4.07136 5.37604 4.41601C5.60581 4.76066 6.07146 4.85379 6.4161 4.62402L7.14779 4.13624C7.68873 3.77561 8.38699 3.75156 8.95146 4.07411C10.0384 4.69522 10.1162 6.23345 9.09753 6.96108L7.56415 8.05635C7.36705 8.19714 7.25008 8.42444 7.25008 8.66665V9.99999C7.25008 10.4142 7.58587 10.75 8.00008 10.75C8.41429 10.75 8.75008 10.4142 8.75008 9.99999V9.05262L9.96939 8.18168C11.8783 6.81815 11.7325 3.93564 9.69567 2.77175ZM8 13.5C8.41421 13.5 8.75 13.1642 8.75 12.75C8.75 12.3358 8.41421 12 8 12C7.58579 12 7.25 12.3358 7.25 12.75C7.25 13.1642 7.58579 13.5 8 13.5Z" fill="currentColor"/></svg>