<svg width="16" height="16" viewBox="0 0 16 16" fill="none" xmlns="http://www.w3.org/2000/svg"><path d="M7 1.75C9.8995 1.75 12.25 4.1005 12.25 7C12.25 8.17923 11.8605 9.26713 11.2041 10.1436L14.0303 12.9697L14.082 13.0264C14.3223 13.3209 14.3049 13.7557 14.0303 14.0303C13.7557 14.3049 13.3209 14.3223 13.0264 14.082L12.9697 14.0303L10.1436 11.2041C9.26713 11.8605 8.17923 12.25 7 12.25C4.1005 12.25 1.75 9.8995 1.75 7C1.75 4.1005 4.1005 1.75 7 1.75ZM7 3.25C4.92893 3.25 3.25 4.92893 3.25 7C3.25 9.07107 4.92893 10.75 7 10.75C9.07107 10.75 10.75 9.07107 10.75 7C10.75 4.92893 9.07107 3.25 7 3.25Z" fill="currentColor"/></svg>