<svg width="16" height="16" viewBox="0 0 16 16" fill="none" xmlns="http://www.w3.org/2000/svg"><path d="M6.59183 2.35059C7.29126 1.40259 8.70875 1.40267 9.40823 2.35059C9.52735 2.51212 9.63655 2.75924 9.75198 3.00977C9.78577 3.08309 9.80547 3.12681 9.82132 3.15918C9.83605 3.18925 9.83969 3.19381 9.83695 3.18945C9.89338 3.27833 9.99981 3.32264 10.1026 3.29981C10.098 3.30085 10.1039 3.29964 10.1348 3.28906C10.1689 3.27737 10.2142 3.26042 10.2901 3.23242C10.5489 3.13689 10.8006 3.03973 10.9991 3.00977C12.164 2.83396 13.166 3.83604 12.9903 5.00098C12.9603 5.19939 12.8631 5.45122 12.7676 5.70996C12.7396 5.78584 12.7227 5.83111 12.711 5.86524C12.7045 5.88401 12.7022 5.89383 12.7012 5.89746C12.6782 6.00027 12.7217 6.10658 12.8106 6.16309C12.8137 6.1649 12.8227 6.1698 12.8409 6.17871C12.8732 6.19456 12.917 6.21428 12.9903 6.24805C13.2408 6.36351 13.4879 6.47265 13.6494 6.5918C14.5975 7.29124 14.5975 8.70874 13.6494 9.4082C13.4879 9.52736 13.2409 9.63648 12.9903 9.75195C12.9169 9.78578 12.8732 9.80543 12.8409 9.82129C12.8226 9.83021 12.8138 9.83508 12.8106 9.83692C12.7217 9.89338 12.6783 9.99973 12.7012 10.1025C12.7022 10.1061 12.7045 10.1159 12.711 10.1348C12.7227 10.1689 12.7396 10.2142 12.7676 10.29C12.8631 10.5489 12.9603 10.8006 12.9903 10.999C13.1661 12.164 12.1641 13.1661 10.9991 12.9902C10.8006 12.9603 10.5489 12.8631 10.2901 12.7676C10.2142 12.7396 10.1689 12.7226 10.1348 12.7109C10.1159 12.7045 10.1061 12.7022 10.1026 12.7012C9.99976 12.6783 9.89341 12.7216 9.83695 12.8105C9.83511 12.8137 9.83024 12.8226 9.82132 12.8408C9.80546 12.8732 9.7858 12.9169 9.75198 12.9902C9.63651 13.2408 9.52739 13.4879 9.40823 13.6494C8.70877 14.5975 7.29128 14.5975 6.59183 13.6494C6.47268 13.4879 6.36353 13.2408 6.24808 12.9902C6.21431 12.9169 6.19459 12.8732 6.17874 12.8408C6.16983 12.8226 6.16493 12.8137 6.16312 12.8105C6.10661 12.7217 6.0003 12.6782 5.89749 12.7012C5.89386 12.7022 5.88404 12.7045 5.86527 12.7109C5.83114 12.7226 5.78587 12.7396 5.70999 12.7676C5.45125 12.8631 5.19942 12.9603 5.00101 12.9902C3.83607 13.166 2.83399 12.164 3.0098 10.999C3.03976 10.8006 3.13692 10.5488 3.23245 10.29C3.26046 10.2142 3.27741 10.1689 3.28909 10.1348C3.29967 10.1039 3.30088 10.098 3.29984 10.1025C3.32267 9.99978 3.27836 9.89335 3.18948 9.83692C3.19384 9.83966 3.18928 9.83602 3.15921 9.82129C3.12684 9.80544 3.08312 9.78574 3.0098 9.75195C2.75927 9.63652 2.51215 9.52732 2.35062 9.4082C1.4027 8.70872 1.40262 7.29122 2.35062 6.5918C2.51216 6.47264 2.7592 6.36352 3.0098 6.24805C3.08323 6.21421 3.12682 6.19458 3.15921 6.17871C3.17742 6.16979 3.18629 6.16493 3.18948 6.16309C3.27843 6.10663 3.32274 6.00028 3.29984 5.89746C3.30092 5.90227 3.2998 5.89652 3.28909 5.86524C3.27741 5.83112 3.26045 5.7858 3.23245 5.70996C3.13696 5.45126 3.03977 5.19937 3.0098 5.00098C2.83411 3.83611 3.83614 2.83408 5.00101 3.00977C5.1994 3.03974 5.45129 3.13693 5.70999 3.23242C5.78583 3.26042 5.83115 3.27738 5.86527 3.28906C5.89655 3.29977 5.9023 3.30089 5.89749 3.29981C6.00031 3.32271 6.10666 3.27839 6.16312 3.18945C6.16496 3.18626 6.16982 3.17739 6.17874 3.15918C6.19461 3.12679 6.21424 3.08321 6.24808 3.00977C6.36355 2.75916 6.47267 2.51213 6.59183 2.35059ZM8.00003 6C6.89549 6.00002 6.00005 6.89546 6.00003 8C6.00003 9.10456 6.89548 9.99998 8.00003 10C9.1046 10 10 9.10457 10 8C10 6.89545 9.10459 6 8.00003 6Z" fill="currentColor"/></svg>