<svg width="16" height="16" viewBox="0 0 16 16" fill="none" xmlns="http://www.w3.org/2000/svg"><g clip-path="url(#clip0_1286_3048)"><path d="M2.5 8H4.5M11.5 8H13.5M8 2.5V4.5M8 11.5V13.5M12.5 8C12.5 10.4853 10.4853 12.5 8 12.5C5.51472 12.5 3.5 10.4853 3.5 8C3.5 5.51472 5.51472 3.5 8 3.5C10.4853 3.5 12.5 5.51472 12.5 8Z" stroke="#E6E6E6" stroke-width="3.5" stroke-linecap="round"/><circle cx="8" cy="8" r="5" fill="#A4E5FF"/><path d="M8 12.5C10.4853 12.5 12.5 10.4853 12.5 8C12.5 5.51472 10.4853 3.5 8 3.5C5.51472 3.5 3.5 5.51472 3.5 8C3.5 10.4853 5.51472 12.5 8 12.5Z" stroke="#1F3AB5" stroke-width="1.5" stroke-linecap="round" stroke-linejoin="round"/><path d="M7 8C7 8.55228 7.44772 9 8 9C8.55228 9 9 8.55228 9 8C9 7.44772 8.55228 7 8 7C7.44772 7 7 7.44772 7 8Z" fill="#1F3AB5"/><path d="M2.5 8H4.5M11.5 8H13.5M8 2.5V4.5M8 11.5V13.5" stroke="#001E55" stroke-width="1.5" stroke-linecap="round" stroke-linejoin="round"/></g><defs><clipPath id="clip0_1286_3048"><rect width="16" height="16" fill="white"/></clipPath></defs></svg>