<svg width="16" height="16" viewBox="0 0 16 16" fill="none" xmlns="http://www.w3.org/2000/svg"><path d="M13.4716 2.5C14.0238 2.5 14.4716 2.94772 14.4716 3.5V12.5C14.4716 13.0523 14.0238 13.5 13.4716 13.5H2.47156C1.91927 13.5 1.47156 13.0523 1.47156 12.5V3.5C1.47156 2.94772 1.91927 2.5 2.47156 2.5H13.4716Z" stroke="#E6E6E6"/><path d="M2 3.8C2 3.51997 2 3.37996 2.0545 3.273C2.10243 3.17892 2.17892 3.10243 2.273 3.0545C2.37996 3 2.51997 3 2.8 3H13.2C13.48 3 13.62 3 13.727 3.0545C13.8211 3.10243 13.8976 3.17892 13.9455 3.273C14 3.37996 14 3.51997 14 3.8V12.2C14 12.48 14 12.62 13.9455 12.727C13.8976 12.8211 13.8211 12.8976 13.727 12.9455C13.62 13 13.48 13 13.2 13H2.8C2.51997 13 2.37996 13 2.273 12.9455C2.17892 12.8976 2.10243 12.8211 2.0545 12.727C2 12.62 2 12.48 2 12.2V3.8Z" fill="#F7F7F7"/><path d="M6 9H10" stroke="#0A7DFF" stroke-width="1.5" stroke-linecap="round" stroke-linejoin="round"/><path d="M2 3.8C2 3.51997 2 3.37996 2.0545 3.273C2.10243 3.17892 2.17892 3.10243 2.273 3.0545C2.37996 3 2.51997 3 2.8 3H13.2C13.48 3 13.62 3 13.727 3.0545C13.8211 3.10243 13.8976 3.17892 13.9455 3.273C14 3.37996 14 3.51997 14 3.8V6H2V3.8Z" fill="#1F3AB5"/><path d="M13.249 3.75C13.249 3.76568 13.25 3.78223 13.25 3.7998V12.2002C13.25 12.2174 13.249 12.2336 13.249 12.249C13.2336 12.249 13.2174 12.25 13.2002 12.25H2.7998C2.78224 12.25 2.76568 12.249 2.75 12.249V3.75H13.249Z" stroke="#999999" stroke-width="1.5" stroke-linecap="round" stroke-linejoin="round"/></svg>