<svg width="16" height="16" viewBox="0 0 16 16" fill="none" xmlns="http://www.w3.org/2000/svg"><g clip-path="url(#clip0_723_861)"><rect width="16" height="16" fill="white"/><rect x="-0.75" y="-0.75" width="17.5" height="17.5" fill="#333333" stroke="white" stroke-width="1.5"/><path d="M16.75 13.25H-0.75V10.25H0C1.04645 10.25 1.68753 9.89583 2.14258 9.39941C2.62926 8.86845 2.94909 8.12465 3.22363 7.27051C3.36117 6.84261 3.47477 6.43028 3.60254 6.00098C3.72559 5.58753 3.85949 5.16544 4.02441 4.79102C4.34372 4.06622 4.90581 3.25 6 3.25C7.04394 3.25 7.67806 4.00748 8.12012 4.68262C8.35125 5.03563 8.57843 5.44613 8.80469 5.84375C9.03679 6.25163 9.27942 6.66768 9.55859 7.0791C10.1139 7.89731 10.804 8.67828 11.7939 9.25977C12.7805 9.83928 14.1145 10.25 16 10.25H16.75V13.25Z" fill="#468AF3" stroke="white" stroke-width="1.5"/><path d="M16.75 13.25V16.75H-0.75V13.25H16.75Z" fill="#333333" stroke="white" stroke-width="1.5"/></g><defs><clipPath id="clip0_723_861"><rect width="16" height="16" fill="white"/></clipPath></defs></svg>