<svg width="16" height="16" viewBox="0 0 16 16" fill="none" xmlns="http://www.w3.org/2000/svg"><path d="M5.04785 0.728516C5.33025 0.573857 5.66975 0.573857 5.95215 0.728516L6.08789 0.818359L6.48047 1.14453C6.93351 1.53794 7.54464 2.1279 8.09766 2.85938C8.83071 3.82906 9.49992 5.0987 9.5 6.52246C9.5 8.78864 7.7003 10.5 5.5 10.5C3.2997 10.5 1.5 8.78864 1.5 6.52246C1.50008 5.0987 2.16929 3.82906 2.90234 2.85938C3.63968 1.8841 4.48088 1.16028 4.91211 0.818359L5.04785 0.728516Z" stroke="#E6E6E6"/><path d="M9 6.52273C9 8.504 7.433 10 5.5 10C3.567 10 2 8.504 2 6.52273C2 3.98487 4.39465 1.86685 5.22245 1.21049C5.38737 1.07973 5.61263 1.07973 5.77755 1.21049C6.60535 1.86685 9 3.98487 9 6.52273Z" fill="#0A7DFF"/><path d="M5.22266 1.2106C5.35077 1.10905 5.51483 1.08697 5.65918 1.14321C5.59758 1.17217 5.54117 1.21566 5.49609 1.2731C4.93069 1.99372 3.5 4.06112 3.5 6.5231C3.50013 8.45684 4.44813 9.92655 5.63477 9.99575C5.59003 9.99737 5.54515 9.99966 5.5 9.99966C3.56713 9.99966 2.00021 8.50417 2 6.5231C2 3.98524 4.39485 1.86696 5.22266 1.2106Z" fill="white" fill-opacity="0.3"/><mask id="path-4-outside-1_1286_3042" maskUnits="userSpaceOnUse" x="7.5" y="7.5" width="8" height="9" fill="black"><rect fill="white" x="7.5" y="7.5" width="8" height="9"/><path fill-rule="evenodd" clip-rule="evenodd" d="M11.4999 8.5C11.9141 8.50007 12.2499 8.83583 12.2499 9.25V12.1895L13.2197 11.2197C13.5126 10.9269 13.9873 10.9269 14.2802 11.2197C14.573 11.5126 14.573 11.9874 14.2802 12.2803L12.0302 14.5303C11.8896 14.6709 11.6988 14.75 11.4999 14.75C11.3011 14.75 11.1103 14.6709 10.9697 14.5303L8.71967 12.2803C8.42678 11.9874 8.42678 11.5126 8.71967 11.2197C9.01257 10.9269 9.48733 10.9268 9.78021 11.2197L10.7499 12.1895V9.25C10.7499 8.83579 11.0857 8.5 11.4999 8.5Z"/></mask><path fill-rule="evenodd" clip-rule="evenodd" d="M11.4999 8.5C11.9141 8.50007 12.2499 8.83583 12.2499 9.25V12.1895L13.2197 11.2197C13.5126 10.9269 13.9873 10.9269 14.2802 11.2197C14.573 11.5126 14.573 11.9874 14.2802 12.2803L12.0302 14.5303C11.8896 14.6709 11.6988 14.75 11.4999 14.75C11.3011 14.75 11.1103 14.6709 10.9697 14.5303L8.71967 12.2803C8.42678 11.9874 8.42678 11.5126 8.71967 11.2197C9.01257 10.9269 9.48733 10.9268 9.78021 11.2197L10.7499 12.1895V9.25C10.7499 8.83579 11.0857 8.5 11.4999 8.5Z" fill="#333333"/><path d="M11.4999 8.5L11.5001 7.5H11.4999V8.5ZM12.2499 12.1895H11.2499V14.6037L12.957 12.8966L12.2499 12.1895ZM13.2197 11.2197L12.5126 10.5126L12.5126 10.5126L13.2197 11.2197ZM14.2802 11.2197L14.9874 10.5127L14.9873 10.5126L14.2802 11.2197ZM14.2802 12.2803L14.9873 12.9874L14.9874 12.9873L14.2802 12.2803ZM12.0302 14.5303L12.7373 15.2374L12.7373 15.2374L12.0302 14.5303ZM11.4999 14.75L11.4999 15.75H11.5001L11.4999 14.75ZM10.9697 14.5303L10.2626 15.2374L10.2627 15.2375L10.9697 14.5303ZM8.71967 12.2803L8.01255 12.9874L8.01256 12.9874L8.71967 12.2803ZM8.71967 11.2197L8.01261 10.5126L8.01256 10.5126L8.71967 11.2197ZM9.78021 11.2197L9.0731 11.9268L9.07311 11.9268L9.78021 11.2197ZM10.7499 12.1895L10.0428 12.8966L11.7499 14.6037V12.1895H10.7499ZM11.4999 8.5L11.4998 9.5C11.3619 9.49998 11.2499 9.38827 11.2499 9.25H12.2499H13.2499C13.2499 8.28338 12.4663 7.50016 11.5001 7.5L11.4999 8.5ZM12.2499 9.25H11.2499V12.1895H12.2499H13.2499V9.25H12.2499ZM12.2499 12.1895L12.957 12.8966L13.9268 11.9268L13.2197 11.2197L12.5126 10.5126L11.5428 11.4823L12.2499 12.1895ZM13.2197 11.2197L13.9267 11.9269C13.8291 12.0245 13.6708 12.0245 13.5731 11.9269L14.2802 11.2197L14.9873 10.5126C14.3039 9.82926 13.196 9.82926 12.5126 10.5126L13.2197 11.2197ZM14.2802 11.2197L13.573 11.9267C13.4755 11.8292 13.4753 11.6709 13.5731 11.5732L14.2802 12.2803L14.9874 12.9873C15.6707 12.3039 15.6705 11.196 14.9874 10.5127L14.2802 11.2197ZM14.2802 12.2803L13.5731 11.5732L11.3231 13.8232L12.0302 14.5303L12.7373 15.2374L14.9873 12.9874L14.2802 12.2803ZM12.0302 14.5303L11.3231 13.8232C11.3699 13.7764 11.4334 13.75 11.4998 13.75L11.4999 14.75L11.5001 15.75C11.9642 15.7499 12.4093 15.5654 12.7373 15.2374L12.0302 14.5303ZM11.4999 14.75L11.4999 13.75C11.5667 13.75 11.6301 13.7765 11.6767 13.8231L10.9697 14.5303L10.2627 15.2375C10.5905 15.5652 11.0355 15.75 11.4999 15.75L11.4999 14.75ZM10.9697 14.5303L11.6768 13.8232L9.42677 11.5732L8.71967 12.2803L8.01256 12.9874L10.2626 15.2374L10.9697 14.5303ZM8.71967 12.2803L9.42678 11.5732C9.5244 11.6708 9.52442 11.8292 9.42677 11.9268L8.71967 11.2197L8.01256 10.5126C7.32914 11.196 7.32916 12.304 8.01255 12.9874L8.71967 12.2803ZM8.71967 11.2197L9.42672 11.9269C9.32917 12.0244 9.1708 12.0245 9.0731 11.9268L9.78021 11.2197L10.4873 10.5126C9.80387 9.82915 8.69596 9.82931 8.01261 10.5126L8.71967 11.2197ZM9.78021 11.2197L9.07311 11.9268L10.0428 12.8966L10.7499 12.1895L11.457 11.4823L10.4873 10.5126L9.78021 11.2197ZM10.7499 12.1895H11.7499V9.25H10.7499H9.74994V12.1895H10.7499ZM10.7499 9.25H11.7499C11.7499 9.38807 11.638 9.5 11.4999 9.5V8.5V7.5C10.5334 7.5 9.74994 8.2835 9.74994 9.25H10.7499Z" fill="#E6E6E6" mask="url(#path-4-outside-1_1286_3042)"/></svg>