<svg width="16" height="16" viewBox="0 0 16 16" fill="none" xmlns="http://www.w3.org/2000/svg">
<path d="M2.44629 10.3936C2.80551 10.2738 3.19449 10.2738 3.55371 10.3936L4.05371 10.5605C4.76814 10.7988 5.24998 11.4676 5.25 12.2207V14C5.25 14.4142 4.91421 14.75 4.5 14.75C4.08579 14.75 3.75 14.4142 3.75 14V13.75H2.25V14C2.25 14.4142 1.91421 14.75 1.5 14.75C1.08579 14.75 0.75 14.4142 0.75 14V12.2207C0.750024 11.4676 1.23186 10.7988 1.94629 10.5605L2.44629 10.3936ZM9.5 10.25C9.91418 10.25 10.25 10.5858 10.25 11C10.25 11.4142 9.91418 11.75 9.5 11.75H8.22656L9.77051 12.7793C10.0696 12.9787 10.2498 13.3144 10.25 13.6738C10.25 14.2679 9.76794 14.75 9.17383 14.75H6.5C6.08579 14.75 5.75 14.4142 5.75 14C5.75 13.5858 6.08579 13.25 6.5 13.25H7.77246L6.22852 12.2207C5.96674 12.0461 5.79622 11.767 5.75781 11.459L5.75 11.3262L5.75586 11.2158C5.8109 10.6735 6.26839 10.2502 6.8252 10.25H9.5ZM14.5 10.25C14.9142 10.25 15.25 10.5858 15.25 11C15.25 11.4142 14.9142 11.75 14.5 11.75H13C12.5858 11.75 12.25 12.0858 12.25 12.5C12.25 12.9142 12.5858 13.25 13 13.25H14.5C14.9142 13.25 15.25 13.5858 15.25 14C15.25 14.4142 14.9142 14.75 14.5 14.75H13C11.7574 14.75 10.75 13.7426 10.75 12.5C10.75 11.2574 11.7574 10.25 13 10.25H14.5ZM2.9209 11.8174L2.4209 11.9834C2.31883 12.0174 2.25002 12.1131 2.25 12.2207V12.25H3.75V12.2207C3.74998 12.1131 3.68117 12.0174 3.5791 11.9834L3.0791 11.8174C3.02779 11.8003 2.97222 11.8003 2.9209 11.8174ZM9.87598 1.25C10.3221 1.25009 10.7515 1.4205 11.0762 1.72656L13.2002 3.72949C13.5509 4.06013 13.75 4.52096 13.75 5.00293V8C13.75 8.41421 13.4142 8.75 13 8.75C12.5858 8.75 12.25 8.41421 12.25 8V5.00293C12.25 4.93423 12.2218 4.86849 12.1719 4.82129L10.0469 2.81836C10.0006 2.7747 9.93961 2.75009 9.87598 2.75H4C3.86193 2.75 3.75 2.86193 3.75 3V8C3.75 8.41421 3.41421 8.75 3 8.75C2.58579 8.75 2.25 8.41421 2.25 8V3C2.25 2.0335 3.0335 1.25 4 1.25H9.87598Z" fill="black"/>
</svg>
