<svg width="16" height="16" viewBox="0 0 16 16" fill="none" xmlns="http://www.w3.org/2000/svg">
<path d="M13.7646 1.25C14.3088 1.25 14.75 1.69119 14.75 2.23535V14C14.75 14.4142 14.4142 14.75 14 14.75H2.23535C1.69119 14.75 1.25 14.3088 1.25 13.7646C1.25003 11.4363 3.01267 9.51985 5.27637 9.27637C5.5026 7.17308 7.17308 5.5026 9.27637 5.27637C9.51985 3.01267 11.4363 1.25003 13.7646 1.25ZM13.25 2.79492C11.8303 3.03923 10.75 4.27524 10.75 5.76465C10.75 6.30881 10.3088 6.75 9.76465 6.75C8.09972 6.75003 6.75003 8.09972 6.75 9.76465C6.75 10.3088 6.30881 10.75 5.76465 10.75C4.27524 10.75 3.03923 11.8303 2.79492 13.25H13.25V2.79492Z" fill="black"/>
</svg>
