<svg width="16" height="16" viewBox="0 0 16 16" fill="none" xmlns="http://www.w3.org/2000/svg">
<path d="M5.33691 2.74991C5.54578 2.74991 5.77269 2.74558 5.99414 2.79874C6.17263 2.84159 6.34347 2.91183 6.5 3.00772C6.69419 3.12672 6.85133 3.29069 6.99902 3.43839L7.56152 4.00089C7.65258 4.09195 7.70385 4.14282 7.74414 4.1796C7.76814 4.2015 7.7796 4.21024 7.7832 4.2128C7.80546 4.22644 7.83009 4.23694 7.85547 4.24307C7.85851 4.24365 7.87229 4.24537 7.90723 4.24698C7.96173 4.24947 8.03426 4.24991 8.16309 4.24991H12.4004C12.6679 4.24991 12.9139 4.24982 13.1182 4.26651C13.3312 4.28394 13.5647 4.32307 13.7949 4.44034C14.124 4.60807 14.3918 4.87591 14.5596 5.20499C14.6768 5.43514 14.716 5.66872 14.7334 5.88174C14.7501 6.086 14.75 6.33205 14.75 6.59952V11.9003C14.75 12.1678 14.7501 12.4138 14.7334 12.6181C14.716 12.8311 14.6768 13.0647 14.5596 13.2948C14.3918 13.6239 14.124 13.8917 13.7949 14.0595C13.5647 14.1768 13.3312 14.2169 13.1182 14.2343C12.9139 14.251 12.6679 14.2499 12.4004 14.2499H3.59961C3.33211 14.2499 3.08611 14.251 2.88184 14.2343C2.66877 14.2169 2.43529 14.1768 2.20508 14.0595C1.87599 13.8917 1.60817 13.6239 1.44043 13.2948C1.32317 13.0647 1.28403 12.8311 1.2666 12.6181C1.24992 12.4138 1.25 12.1678 1.25 11.9003V5.09952C1.25 4.83205 1.24991 4.586 1.2666 4.38174C1.28403 4.16872 1.32316 3.93514 1.44043 3.70499C1.60818 3.37591 1.87599 3.10807 2.20508 2.94034C2.43526 2.82307 2.6688 2.78394 2.88184 2.76651C3.08611 2.74982 3.33211 2.74991 3.59961 2.74991H5.33691ZM3.59961 8.74991C3.30745 8.74991 3.13297 8.75011 3.00391 8.76065C2.88384 8.77048 2.87034 8.7856 2.88672 8.77725C2.8397 8.80121 2.80131 8.83962 2.77734 8.88663C2.78561 8.87036 2.77056 8.884 2.76074 9.00381C2.7502 9.13287 2.75 9.3074 2.75 9.59952V11.9003C2.75 12.1924 2.7502 12.3669 2.76074 12.496C2.77058 12.6161 2.78569 12.6296 2.77734 12.6132C2.80131 12.6602 2.83969 12.6986 2.88672 12.7226C2.87039 12.7143 2.88394 12.7293 3.00391 12.7392C3.13298 12.7497 3.30744 12.7499 3.59961 12.7499H12.4004C12.6926 12.7499 12.867 12.7497 12.9961 12.7392C13.1161 12.7293 13.1296 12.7143 13.1133 12.7226C13.1603 12.6986 13.1987 12.6602 13.2227 12.6132C13.2143 12.6296 13.2294 12.6161 13.2393 12.496C13.2498 12.3669 13.25 12.1924 13.25 11.9003V9.59952C13.25 9.3074 13.2498 9.13287 13.2393 9.00381C13.2294 8.884 13.2144 8.87036 13.2227 8.88663C13.1987 8.83962 13.1603 8.80121 13.1133 8.77725C13.1297 8.7856 13.1162 8.77048 12.9961 8.76065C12.867 8.75011 12.6926 8.74991 12.4004 8.74991H3.59961ZM3.59961 4.24991C3.30745 4.24991 3.13297 4.25011 3.00391 4.26065C2.88384 4.27049 2.87034 4.2856 2.88672 4.27725C2.8397 4.30121 2.80131 4.33962 2.77734 4.38663C2.78561 4.37036 2.77056 4.384 2.76074 4.50381C2.7502 4.63287 2.75 4.8074 2.75 5.09952V7.28018C2.79464 7.27435 2.83865 7.27004 2.88184 7.26651C3.08611 7.24982 3.33211 7.24991 3.59961 7.24991H12.4004C12.6679 7.24991 12.9139 7.24982 13.1182 7.26651C13.1613 7.27004 13.2054 7.27435 13.25 7.28018V6.59952C13.25 6.3074 13.2498 6.13287 13.2393 6.00381C13.2294 5.884 13.2144 5.87036 13.2227 5.88663C13.1987 5.83962 13.1603 5.80121 13.1133 5.77725C13.1297 5.7856 13.1162 5.77049 12.9961 5.76065C12.867 5.75011 12.6926 5.74991 12.4004 5.74991H8.16309C7.95421 5.74991 7.72732 5.75424 7.50586 5.70108C7.32736 5.65822 7.15653 5.588 7 5.4921C6.80581 5.37309 6.64868 5.20913 6.50098 5.06143L5.93848 4.49893C5.84741 4.40787 5.79615 4.35699 5.75586 4.32022C5.7318 4.29827 5.72035 4.28954 5.7168 4.28702C5.69454 4.27338 5.6699 4.26287 5.64453 4.25674C5.64146 4.25617 5.62765 4.25444 5.59277 4.25284C5.53827 4.25035 5.46573 4.24991 5.33691 4.24991H3.59961Z" fill="black"/>
</svg>
