<svg width="16" height="16" viewBox="0 0 16 16" fill="none" xmlns="http://www.w3.org/2000/svg">
<path d="M11.333 1.25C11.7873 1.25 12.1737 1.24961 12.4893 1.27539C12.8135 1.30189 13.1291 1.36003 13.4307 1.51367C13.8852 1.74533 14.2547 2.11483 14.4863 2.56934C14.64 2.87087 14.6981 3.18653 14.7246 3.51074C14.7504 3.82628 14.75 4.21267 14.75 4.66699V11.333C14.75 11.7873 14.7504 12.1737 14.7246 12.4893C14.6981 12.8135 14.64 13.1291 14.4863 13.4307C14.2547 13.8852 13.8852 14.2547 13.4307 14.4863C13.1291 14.64 12.8135 14.6981 12.4893 14.7246C12.1737 14.7504 11.7873 14.75 11.333 14.75H4.66699C4.21266 14.75 3.82629 14.7504 3.51074 14.7246C3.18651 14.6981 2.87088 14.64 2.56934 14.4863C2.11482 14.2547 1.74533 13.8852 1.51367 13.4307C1.36004 13.1291 1.30189 12.8135 1.27539 12.4893C1.24961 12.1737 1.25 11.7873 1.25 11.333V4.66699C1.25 4.21267 1.24961 3.82628 1.27539 3.51074C1.3019 3.18653 1.36003 2.87087 1.51367 2.56934C1.74533 2.11483 2.11483 1.74533 2.56934 1.51367C2.87088 1.36003 3.18652 1.30189 3.51074 1.27539C3.82629 1.24961 4.21266 1.25 4.66699 1.25H11.333ZM4.66699 2.75C4.18791 2.75 3.87311 2.75088 3.63281 2.77051C3.40219 2.78937 3.30595 2.8217 3.25098 2.84961C3.0785 2.93749 2.93749 3.07851 2.84961 3.25098C2.8217 3.30594 2.78937 3.4022 2.77051 3.63281C2.75088 3.8731 2.75 4.18793 2.75 4.66699V11.333C2.75 11.8121 2.75088 12.1269 2.77051 12.3672C2.78937 12.5978 2.8217 12.694 2.84961 12.749C2.93749 12.9215 3.0785 13.0625 3.25098 13.1504C3.30594 13.1783 3.40217 13.2106 3.63281 13.2295C3.87311 13.2491 4.18791 13.25 4.66699 13.25H11.333C11.8121 13.25 12.1269 13.2491 12.3672 13.2295C12.5978 13.2106 12.6941 13.1783 12.749 13.1504C12.9215 13.0625 13.0625 12.9215 13.1504 12.749C13.1783 12.694 13.2106 12.5978 13.2295 12.3672C13.2491 12.1269 13.25 11.8121 13.25 11.333V4.66699C13.25 4.18793 13.2491 3.8731 13.2295 3.63281C13.2106 3.4022 13.1783 3.30594 13.1504 3.25098C13.0625 3.07851 12.9215 2.93749 12.749 2.84961C12.6941 2.8217 12.5978 2.78937 12.3672 2.77051C12.1269 2.75088 11.8121 2.75 11.333 2.75H4.66699ZM6.97363 8.58105C7.42545 8.44591 7.90756 8.44591 8.35938 8.58105C8.65676 8.67002 8.90574 8.82412 9.14258 9.00391C9.37194 9.17803 9.63188 9.40987 9.93652 9.68066L11.165 10.7725L11.2197 10.8262C11.4771 11.1061 11.4856 11.5417 11.2275 11.832C10.9523 12.1415 10.4775 12.1687 10.168 11.8936L8.94043 10.8018C8.61846 10.5156 8.40774 10.3301 8.23535 10.1992C8.0707 10.0742 7.98597 10.0354 7.92969 10.0186C7.7584 9.96732 7.5756 9.96737 7.4043 10.0186C7.34802 10.0354 7.26264 10.074 7.09766 10.1992C6.92535 10.3301 6.71524 10.5158 6.39355 10.8018L5.16504 11.8936C4.85559 12.1686 4.38169 12.1412 4.10645 11.832C3.8313 11.5225 3.85846 11.0477 4.16797 10.7725L5.39648 9.68066C5.70124 9.40977 5.96199 9.17806 6.19141 9.00391C6.42807 8.82428 6.6765 8.67 6.97363 8.58105ZM10 3.91699C11.1506 3.91699 12.083 4.84942 12.083 6C12.083 7.15059 11.1506 8.08301 10 8.08301C8.84941 8.08301 7.91699 7.15059 7.91699 6C7.91701 4.84942 8.84942 3.91699 10 3.91699ZM10 5.41699C9.67785 5.41699 9.41701 5.67785 9.41699 6C9.41699 6.32217 9.67783 6.58301 10 6.58301C10.3222 6.58301 10.583 6.32217 10.583 6C10.583 5.67785 10.3222 5.41699 10 5.41699Z" fill="black"/>
</svg>
