<svg width="16" height="16" viewBox="0 0 16 16" fill="none" xmlns="http://www.w3.org/2000/svg">
<path fill-rule="evenodd" clip-rule="evenodd" d="M3.5 1C2.94772 1 2.5 1.44772 2.5 2V14C2.5 14.5523 2.94771 15 3.5 15H12.5C13.0523 15 13.5 14.5523 13.5 14V8.75H8.31066L10.0303 10.4697C10.3232 10.7626 10.3232 11.2374 10.0303 11.5303C9.73744 11.8232 9.26256 11.8232 8.96967 11.5303L5.96967 8.53033C5.82902 8.38968 5.75 8.19891 5.75 8C5.75 7.80109 5.82902 7.61032 5.96967 7.46967L8.96967 4.46967C9.26256 4.17678 9.73744 4.17678 10.0303 4.46967C10.3232 4.76256 10.3232 5.23744 10.0303 5.53033L8.31066 7.25H13.5V4.41421C13.5 4.149 13.3946 3.89464 13.2071 3.70711L10.7929 1.29289C10.6054 1.10536 10.351 1 10.0858 1H3.5Z" fill="black"/>
</svg>
