<svg width="16" height="16" viewBox="0 0 16 16" fill="none" xmlns="http://www.w3.org/2000/svg">
<path d="M8.96973 6.46997C9.26259 6.17716 9.73739 6.17719 10.0303 6.46997L10.1475 6.58618C11.4802 7.91908 11.4801 10.0804 10.1475 11.4133L8.28027 13.2805C6.7448 14.8157 4.2552 14.8157 2.71973 13.2805L2.46973 13.0305C1.07249 11.6331 1.07253 9.3674 2.46973 7.96997C2.76256 7.67724 3.23739 7.67732 3.53027 7.96997C3.82281 8.26286 3.82297 8.73773 3.53027 9.03052C2.71886 9.84216 2.71882 11.1584 3.53027 11.97L3.78027 12.22C4.72996 13.1694 6.27004 13.1694 7.21973 12.22L9.08691 10.3528C9.83372 9.60561 9.83383 8.39384 9.08691 7.64673L8.96973 7.53052C8.67698 7.23767 8.67704 6.76285 8.96973 6.46997ZM7.71973 2.71997C9.25522 1.18447 11.7447 1.18455 13.2803 2.71997L13.5303 2.96997C14.9275 4.36745 14.9277 6.63313 13.5303 8.03052C13.2374 8.32325 12.7626 8.32325 12.4697 8.03052C12.1769 7.73766 12.177 7.26287 12.4697 6.96997C13.2813 6.15837 13.2812 4.84221 12.4697 4.03052L12.2197 3.78052C11.27 2.83089 9.72998 2.83081 8.78027 3.78052L6.91309 5.64673C6.16615 6.39391 6.16708 7.60564 6.91406 8.35278L7.03125 8.46997C7.32341 8.76279 7.32357 9.2378 7.03125 9.53052C6.73856 9.82321 6.26365 9.8228 5.9707 9.53052L5.85352 9.41333C4.52074 8.0804 4.51982 5.91915 5.85254 4.58618L7.71973 2.71997Z" fill="black"/>
</svg>
