<svg width="16" height="16" viewBox="0 0 16 16" fill="none" xmlns="http://www.w3.org/2000/svg">
<path d="M9.58594 1C9.8511 1.00004 10.1055 1.10547 10.293 1.29297L12.707 3.70703C12.8945 3.89453 13 4.1489 13 4.41406V14C13 14.5523 12.5523 15 12 15H3C2.44772 15 2 14.5523 2 14V2C2 1.44772 2.44772 1 3 1H9.58594ZM7.25 11C6.83597 11.0001 6.50011 11.336 6.5 11.75C6.50014 12.164 6.83598 12.4999 7.25 12.5C7.66398 12.4998 7.99986 12.164 8 11.75C7.99989 11.336 7.664 11.0002 7.25 11ZM8.55469 3.98535C7.72179 3.44487 6.63917 3.48447 5.84766 4.08398L5.54688 4.31152C5.21708 4.56165 5.15252 5.03226 5.40234 5.3623C5.65258 5.6919 6.12317 5.75674 6.45312 5.50684L6.75293 5.2793C7.0408 5.06133 7.43538 5.04761 7.73828 5.24414C8.22574 5.56138 8.26311 6.26219 7.81152 6.62891L6.72754 7.50879C6.55219 7.65114 6.45028 7.86497 6.4502 8.09082V9C6.45031 9.41403 6.78617 9.74987 7.2002 9.75C7.61404 9.74966 7.95008 9.4139 7.9502 9V8.44727L8.75684 7.79297C9.99906 6.78435 9.89652 4.85705 8.55469 3.98535Z" fill="black"/>
</svg>
