<svg width="16" height="16" viewBox="0 0 16 16" fill="none" xmlns="http://www.w3.org/2000/svg">
<path fill-rule="evenodd" clip-rule="evenodd" d="M3.5 1C2.94772 1 2.5 1.44772 2.5 2V5.72252C3.58648 5.3069 4.87134 4.92756 5.78955 5.01183C7.03013 5.12715 7.43886 5.90518 7.85037 6.6885C8.26499 7.47776 8.68244 8.27238 9.95646 8.39991C10.8363 8.4912 12.1939 8.1127 13.5 7.62842V4.41421C13.5 4.149 13.3946 3.89464 13.2071 3.70711L10.7929 1.29289C10.6054 1.10536 10.351 1 10.0858 1H3.5ZM13.5 9.57987C11.3391 10.3523 8.73184 11.1224 7.22724 10.9837C5.9502 10.8673 5.65962 10.0993 5.3721 9.33942C5.08665 8.58496 4.8042 7.83848 3.56237 7.74558C3.20681 7.72304 2.85118 7.73527 2.5 7.78146V14C2.5 14.5523 2.94771 15 3.5 15H12.5C13.0523 15 13.5 14.5523 13.5 14V9.57987Z" fill="black"/>
</svg>
