<svg width="16" height="16" viewBox="0 0 16 16" fill="none" xmlns="http://www.w3.org/2000/svg">
<path d="M7.68164 0.321518C7.91671 0.211221 8.19553 0.22922 8.41602 0.376205L14.416 4.37621C14.6246 4.51531 14.75 4.74951 14.75 5.00023V11.0002C14.7499 11.2509 14.6246 11.4852 14.416 11.6243L8.41602 15.6243C8.16416 15.7921 7.83585 15.7921 7.58398 15.6243L1.58398 11.6243C1.3754 11.4852 1.25008 11.2509 1.25 11.0002V5.00023C1.25 4.74951 1.3754 4.51531 1.58398 4.37621L7.58398 0.376205L7.68164 0.321518ZM2.75 10.5989L7.25 13.5989V9.4016L2.75 6.4016V10.5989ZM8.75 9.4016V13.5989L13.25 10.5989V6.4016L8.75 9.4016ZM3.35156 5.00023L8 8.09886L12.6475 5.00023L8 1.9016L3.35156 5.00023Z" fill="black"/>
</svg>
