<svg width="16" height="16" viewBox="0 0 16 16" fill="none" xmlns="http://www.w3.org/2000/svg">
<path d="M3.5 10.25C4.4665 10.25 5.25 11.0335 5.25 12C5.25 12.4892 5.04821 12.9305 4.72461 13.248L4.91602 13.376L4.97754 13.4219C5.27092 13.6636 5.33943 14.0929 5.12402 14.416C4.90867 14.739 4.48633 14.8407 4.15039 14.6631L4.08398 14.624L2.77344 13.75H2.25V14C2.25 14.4142 1.91421 14.75 1.5 14.75C1.08579 14.75 0.75 14.4142 0.75 14V12C0.75 11.0335 1.5335 10.25 2.5 10.25H3.5ZM7.44629 10.3936C7.80551 10.2738 8.19449 10.2738 8.55371 10.3936L9.05371 10.5605C9.76814 10.7988 10.25 11.4676 10.25 12.2207V14C10.25 14.4142 9.91421 14.75 9.5 14.75C9.08579 14.75 8.75 14.4142 8.75 14V13.75H7.25V14C7.25 14.4142 6.91421 14.75 6.5 14.75C6.08579 14.75 5.75 14.4142 5.75 14V12.2207C5.75002 11.4676 6.23186 10.7988 6.94629 10.5605L7.44629 10.3936ZM14.5 10.25C14.9142 10.25 15.25 10.5858 15.25 11C15.25 11.4142 14.9142 11.75 14.5 11.75H13.2275L14.7715 12.7793C15.0704 12.9787 15.2498 13.3145 15.25 13.6738C15.25 14.2678 14.7687 14.7497 14.1748 14.75H11.5C11.0858 14.75 10.75 14.4142 10.75 14C10.75 13.5858 11.0858 13.25 11.5 13.25H12.7725L11.2295 12.2207C10.9676 12.0461 10.7972 11.767 10.7588 11.459L10.75 11.3262L10.7559 11.2158C10.8109 10.6734 11.2692 10.25 11.8262 10.25H14.5ZM2.5 11.75C2.36193 11.75 2.25 11.8619 2.25 12V12.25H3.5C3.63807 12.25 3.75 12.1381 3.75 12C3.75 11.8619 3.63807 11.75 3.5 11.75H2.5ZM7.9209 11.8174L7.4209 11.9834C7.31883 12.0174 7.25002 12.1131 7.25 12.2207V12.25H8.75V12.2207C8.74998 12.1131 8.68117 12.0174 8.5791 11.9834L8.0791 11.8174C8.02779 11.8003 7.97222 11.8003 7.9209 11.8174ZM9.87598 1.25C10.3221 1.25009 10.7515 1.4205 11.0762 1.72656L13.2002 3.72949C13.5509 4.06013 13.75 4.52096 13.75 5.00293V8C13.75 8.41421 13.4142 8.75 13 8.75C12.5858 8.75 12.25 8.41421 12.25 8V5.00293C12.25 4.93423 12.2218 4.86849 12.1719 4.82129L10.0469 2.81836C10.0006 2.7747 9.93961 2.75009 9.87598 2.75H4C3.86193 2.75 3.75 2.86193 3.75 3V8C3.75 8.41421 3.41421 8.75 3 8.75C2.58579 8.75 2.25 8.41421 2.25 8V3C2.25 2.0335 3.0335 1.25 4 1.25H9.87598Z" fill="black"/>
</svg>
