<svg width="16" height="16" viewBox="0 0 16 16" fill="none" xmlns="http://www.w3.org/2000/svg">
<path d="M11.5264 8.41797C11.8209 8.17766 12.2557 8.19512 12.5303 8.46973L15.0303 10.9697C15.3232 11.2626 15.3232 11.7374 15.0303 12.0303C14.7374 12.3232 14.2626 12.3232 13.9697 12.0303L12.75 10.8105V14C12.75 14.4142 12.4142 14.75 12 14.75C11.5858 14.75 11.25 14.4142 11.25 14V10.8105L10.0303 12.0303C9.73738 12.3232 9.26262 12.3232 8.96973 12.0303C8.67683 11.7374 8.67683 11.2626 8.96973 10.9697L11.4697 8.46973L11.5264 8.41797ZM10.293 1.25C10.6245 1.25002 10.9424 1.38181 11.1768 1.61621L12.3838 2.82324C12.6182 3.05764 12.75 3.37554 12.75 3.70703V6C12.75 6.41421 12.4142 6.75 12 6.75C11.5858 6.75 11.25 6.41421 11.25 6V3.81055L10.1895 2.75H9.75V4C9.75 4.69036 9.19036 5.25 8.5 5.25H5.5C4.80964 5.25 4.25 4.69036 4.25 4V2.75H3.75V11.25H4.25V9C4.25 8.30964 4.80964 7.75 5.5 7.75H8C8.41421 7.75 8.75 8.08579 8.75 8.5C8.75 8.91421 8.41421 9.25 8 9.25H5.75V11.25H6.5C6.91421 11.25 7.25 11.5858 7.25 12C7.25 12.4142 6.91421 12.75 6.5 12.75H3.5C2.80964 12.75 2.25 12.1904 2.25 11.5V2.5C2.25 1.80964 2.80964 1.25 3.5 1.25H10.293ZM5.75 3.75H8.25V2.75H5.75V3.75Z" fill="black"/>
</svg>
