<svg width="16" height="16" viewBox="0 0 16 16" fill="none" xmlns="http://www.w3.org/2000/svg">
<path d="M4.5 10.25C4.91421 10.25 5.25 10.5858 5.25 11C5.25 11.4142 4.91421 11.75 4.5 11.75H3.22754L4.77148 12.7793C5.0704 12.9787 5.24984 13.3145 5.25 13.6738C5.25003 14.2678 4.76869 14.7497 4.1748 14.75H1.5C1.0858 14.75 0.75 14.4142 0.75 14C0.75 13.5858 1.0858 13.25 1.5 13.25H2.77246L1.22949 12.2207C0.967591 12.0461 0.797241 11.767 0.758789 11.459L0.75 11.3262L0.755859 11.2158C0.81091 10.6734 1.26919 10.25 1.82617 10.25H4.5ZM9.5 10.25C9.91421 10.25 10.25 10.5858 10.25 11V14C10.25 14.4142 9.91421 14.75 9.5 14.75C9.08579 14.75 8.75 14.4142 8.75 14V13.25H7.25V14C7.25 14.4142 6.91421 14.75 6.5 14.75C6.08579 14.75 5.75 14.4142 5.75 14V11C5.75 10.5858 6.08579 10.25 6.5 10.25C6.91421 10.25 7.25 10.5858 7.25 11V11.75H8.75V11C8.75 10.5858 9.08579 10.25 9.5 10.25ZM13.5 10.25C14.4665 10.25 15.25 11.0335 15.25 12C15.25 12.9665 14.4665 13.75 13.5 13.75H12.25V14C12.25 14.4142 11.9142 14.75 11.5 14.75C11.0858 14.75 10.75 14.4142 10.75 14V12C10.75 11.0335 11.5335 10.25 12.5 10.25H13.5ZM12.5 11.75C12.3619 11.75 12.25 11.8619 12.25 12V12.25H13.5C13.6381 12.25 13.75 12.1381 13.75 12C13.75 11.8619 13.6381 11.75 13.5 11.75H12.5ZM9.87598 1.25C10.3221 1.25009 10.7515 1.4205 11.0762 1.72656L13.2002 3.72949C13.5509 4.06013 13.75 4.52096 13.75 5.00293V8C13.75 8.41421 13.4142 8.75 13 8.75C12.5858 8.75 12.25 8.41421 12.25 8V5.00293C12.25 4.93423 12.2218 4.86849 12.1719 4.82129L10.0469 2.81836C10.0006 2.7747 9.93961 2.75009 9.87598 2.75H4C3.86193 2.75 3.75 2.86193 3.75 3V8C3.75 8.41421 3.41421 8.75 3 8.75C2.58579 8.75 2.25 8.41421 2.25 8V3C2.25 2.0335 3.0335 1.25 4 1.25H9.87598Z" fill="black"/>
</svg>
