<svg width="16" height="16" viewBox="0 0 16 16" fill="none" xmlns="http://www.w3.org/2000/svg">
<path fill-rule="evenodd" clip-rule="evenodd" d="M3.82945 10.665C4.01467 10.2948 4.46495 10.1442 4.83531 10.3291C5.20539 10.5143 5.35602 10.9647 5.17125 11.335L3.67125 14.335C3.54426 14.5889 3.28428 14.7499 3.00035 14.75C2.71633 14.75 2.45652 14.589 2.32945 14.335L0.82945 11.335L0.799177 11.2646C0.664549 10.9093 0.818133 10.5027 1.16539 10.3291C1.51252 10.156 1.92977 10.2769 2.13316 10.5977L2.17125 10.665L3.00035 12.3232L3.82945 10.665ZM9.50035 10.25C9.91438 10.2502 10.2503 10.5859 10.2503 11C10.2503 11.4141 9.91438 11.7498 9.50035 11.75H8.50035C8.91438 11.7502 9.25035 12.0859 9.25035 12.5C9.25035 12.9141 8.91438 13.2498 8.50035 13.25H9.50035C9.91438 13.2502 10.2503 13.5859 10.2503 14C10.2503 14.4141 9.91438 14.7498 9.50035 14.75H7.50035C6.53385 14.75 5.75035 13.9665 5.75035 13V12C5.75035 11.0335 6.53385 10.25 7.50035 10.25H9.50035ZM14.5003 10.25C14.9144 10.2502 15.2503 10.5859 15.2503 11C15.2503 11.4141 14.9144 11.7498 14.5003 11.75H13.0003C12.5861 11.75 12.2503 12.0858 12.2503 12.5C12.2503 12.9142 12.5861 13.25 13.0003 13.25H14.5003C14.9144 13.2502 15.2503 13.5859 15.2503 14C15.2503 14.4141 14.9144 14.7498 14.5003 14.75H13.0003C11.7577 14.75 10.7503 13.7426 10.7503 12.5C10.7503 11.2574 11.7577 10.25 13.0003 10.25H14.5003ZM9.87632 1.25C10.3224 1.25018 10.752 1.42059 11.0765 1.72656L13.2005 3.72949C13.5511 4.06012 13.7503 4.52105 13.7503 5.00293V8C13.7503 8.41409 13.4144 8.74979 13.0003 8.75C12.5861 8.75 12.2503 8.41421 12.2503 8V5.00293C12.2503 4.93432 12.222 4.86848 12.1722 4.82129L10.0472 2.81836C10.001 2.77479 9.93982 2.75018 9.87632 2.75H4.00035C3.86228 2.75 3.75035 2.86193 3.75035 3V8C3.75035 8.41409 3.41439 8.74979 3.00035 8.75C2.58614 8.75 2.25035 8.41421 2.25035 8V3C2.25035 2.0335 3.03385 1.25 4.00035 1.25H9.87632Z" fill="black"/>
</svg>
