<svg width="16" height="16" viewBox="0 0 16 16" fill="none" xmlns="http://www.w3.org/2000/svg"><path fill-rule="evenodd" clip-rule="evenodd" d="M2.5 1.25C2.91421 1.25 3.25 1.58579 3.25 2V14C3.25 14.4142 2.91421 14.75 2.5 14.75C2.08579 14.75 1.75 14.4142 1.75 14V2C1.75 1.58579 2.08579 1.25 2.5 1.25ZM4.75 3.5C4.75 3.08579 5.08579 2.75 5.5 2.75H13.5C13.9142 2.75 14.25 3.08579 14.25 3.5V6.5C14.25 6.91421 13.9142 7.25 13.5 7.25H5.5C5.08579 7.25 4.75 6.91421 4.75 6.5V3.5ZM6.25 4.25V5.75H12.75V4.25H6.25ZM4.75 9.5C4.75 9.08579 5.08579 8.75 5.5 8.75H10.5C10.9142 8.75 11.25 9.08579 11.25 9.5V12.5C11.25 12.9142 10.9142 13.25 10.5 13.25H5.5C5.08579 13.25 4.75 12.9142 4.75 12.5V9.5ZM6.25 10.25V11.75H9.75V10.25H6.25Z" fill="currentColor"/></svg>