<svg width="16" height="16" viewBox="0 0 16 16" fill="none" xmlns="http://www.w3.org/2000/svg"><path fill-rule="evenodd" clip-rule="evenodd" d="M1.25 8.00001C1.25 7.5858 1.58579 7.25001 2 7.25001L2.75 7.25001L2.75 3C2.75 2.58579 3.08579 2.25 3.5 2.25L6.5 2.25C6.91421 2.25 7.25 2.58579 7.25 3L7.25 7.25001L8.75 7.25001L8.75 5.00001C8.75 4.5858 9.08579 4.25001 9.5 4.25001L12.5 4.25001C12.9142 4.25001 13.25 4.5858 13.25 5.00001L13.25 7.25001L14 7.25001C14.4142 7.25001 14.75 7.5858 14.75 8.00001C14.75 8.41422 14.4142 8.75001 14 8.75001L13.25 8.75001L13.25 11C13.25 11.4142 12.9142 11.75 12.5 11.75L9.5 11.75C9.08579 11.75 8.75 11.4142 8.75 11L8.75 8.75001L7.25 8.75001L7.25 13C7.25 13.4142 6.91421 13.75 6.5 13.75L3.5 13.75C3.08579 13.75 2.75 13.4142 2.75 13L2.75 8.75001L2 8.75001C1.58579 8.75001 1.25 8.41422 1.25 8.00001ZM4.25 8.75001L4.25 12.25L5.75 12.25L5.75 8.75001L4.25 8.75001ZM5.75 7.25001L5.75 3.75L4.25 3.75L4.25 7.25001L5.75 7.25001ZM10.25 8.75001L10.25 10.25L11.75 10.25L11.75 8.75001L10.25 8.75001ZM11.75 7.25001L11.75 5.75001L10.25 5.75001L10.25 7.25001L11.75 7.25001Z" fill="currentColor"/></svg>