<svg width="16" height="16" viewBox="0 0 16 16" fill="none" xmlns="http://www.w3.org/2000/svg"><path fill-rule="evenodd" clip-rule="evenodd" d="M4.75 10.25L3.25 10.25L3.25 5.75002L4.75 5.75002L4.75 10.25ZM1.75 5.00002L1.75 11C1.75 11.4142 2.08579 11.75 2.5 11.75L5.5 11.75C5.91421 11.75 6.25 11.4142 6.25 11L6.25 5.00002C6.25 4.58581 5.91421 4.25002 5.5 4.25002L2.5 4.25002C2.30109 4.25002 2.11032 4.32904 1.96967 4.46969C1.82902 4.61035 1.75 4.80111 1.75 5.00002ZM9.75 11C9.75 11.4142 10.0858 11.75 10.5 11.75L13.5 11.75C13.9142 11.75 14.25 11.4142 14.25 11L14.25 5.00002C14.25 4.58581 13.9142 4.25002 13.5 4.25002L10.5 4.25002C10.0858 4.25002 9.75 4.58581 9.75 5.00002L9.75 11ZM12.75 10.25L11.25 10.25L11.25 5.75002L12.75 5.75002L12.75 10.25ZM7.25 14C7.25 14.4142 7.58579 14.75 8 14.75C8.41421 14.75 8.75 14.4142 8.75 14L8.75 2.00003C8.75 1.58582 8.41421 1.25003 8 1.25003C7.58579 1.25003 7.25 1.58582 7.25 2.00003L7.25 14Z" fill="currentColor"/></svg>