<svg width="16" height="16" viewBox="0 0 16 16" fill="none" xmlns="http://www.w3.org/2000/svg"><path d="M8 8.75C8.41421 8.75 8.75 9.08579 8.75 9.5V12C8.75 12.4142 8.41421 12.75 8 12.75C7.58579 12.75 7.25 12.4142 7.25 12V9.5C7.25 9.08579 7.58579 8.75 8 8.75ZM6.5 7.25C6.91421 7.25 7.25 7.58579 7.25 8C7.25 8.41421 6.91421 8.75 6.5 8.75H4C3.58579 8.75 3.25 8.41421 3.25 8C3.25 7.58579 3.58579 7.25 4 7.25H6.5ZM12 7.25C12.4142 7.25 12.75 7.58579 12.75 8C12.75 8.41421 12.4142 8.75 12 8.75H9.5C9.08579 8.75 8.75 8.41421 8.75 8C8.75 7.58579 9.08579 7.25 9.5 7.25H12ZM8 3.25C8.41421 3.25 8.75 3.58579 8.75 4V6.5C8.75 6.91421 8.41421 7.25 8 7.25C7.58579 7.25 7.25 6.91421 7.25 6.5V4C7.25 3.58579 7.58579 3.25 8 3.25Z" fill="currentColor"/></svg>