<svg width="16" height="16" viewBox="0 0 16 16" fill="none" xmlns="http://www.w3.org/2000/svg"><path fill-rule="evenodd" clip-rule="evenodd" d="M12.9701 9.97012C13.263 9.67725 13.7378 9.67724 14.0307 9.97012C14.3231 10.263 14.3234 10.7379 14.0307 11.0307L13.061 12.0004L14.0307 12.9701C14.3231 13.263 14.3234 13.7379 14.0307 14.0307C13.738 14.3234 13.2631 14.3231 12.9701 14.0307L12.0004 13.0609L11.0307 14.0307C10.738 14.3234 10.2631 14.3231 9.97015 14.0307C9.67725 13.7378 9.67725 13.263 9.97015 12.9701L10.9399 12.0004L9.97015 11.0307C9.67725 10.7378 9.67725 10.263 9.97015 9.97012C10.263 9.67725 10.7378 9.67723 11.0307 9.97012L12.0004 10.9398L12.9701 9.97012ZM10.9701 1.97012C11.263 1.67724 11.7378 1.67723 12.0307 1.97012C12.3231 2.26305 12.3234 2.73793 12.0307 3.03067L9.25042 5.81094V8.50039C9.25017 8.9142 8.91421 9.25008 8.50042 9.25039H5.81097L3.03069 12.0307C2.73796 12.3234 2.26308 12.3231 1.97015 12.0307C1.67727 11.7378 1.67727 11.263 1.97015 10.9701L4.75042 8.18985V5.50039C4.75042 5.08618 5.08621 4.75039 5.50042 4.75039H8.18987L10.9701 1.97012ZM6.25042 7.75039H7.75042V6.25039H6.25042V7.75039Z" fill="currentColor"/></svg>