<svg width="16" height="16" viewBox="0 0 16 16" fill="none" xmlns="http://www.w3.org/2000/svg"><path fill-rule="evenodd" clip-rule="evenodd" d="M9.93071 6.11374V9.93077H6.11368C6.10791 9.84776 6.10498 9.76396 6.10498 9.67948C6.10498 7.70537 7.70531 6.10504 9.67942 6.10504C9.7639 6.10504 9.84769 6.10797 9.93071 6.11374Z" fill="currentColor"/><path fill-rule="evenodd" clip-rule="evenodd" d="M2.78186 2.03189C2.36765 2.03189 2.03186 2.36768 2.03186 2.78189V9.93078C2.03186 10.345 2.36765 10.6808 2.78186 10.6808H5.47151C5.92324 12.5863 7.63579 14.0039 9.67945 14.0039C12.0678 14.0039 14.0039 12.0678 14.0039 9.6795C14.0039 7.63584 12.5863 5.92329 10.6807 5.47156V2.78189C10.6807 2.36768 10.345 2.03189 9.93075 2.03189H2.78186ZM9.18075 5.3835V3.53189H3.53186V9.18078H5.38345C5.61194 7.19099 7.19096 5.61198 9.18075 5.3835ZM6.8989 9.18078C7.10559 8.02062 8.02059 7.10563 9.18075 6.89894V9.18078H6.8989ZM7.03763 10.6808H9.93075C10.345 10.6808 10.6807 10.345 10.6807 9.93078V7.03768C11.7464 7.4418 12.5039 8.47219 12.5039 9.6795C12.5039 11.2394 11.2393 12.5039 9.67945 12.5039C8.47213 12.5039 7.44174 11.7464 7.03763 10.6808Z" fill="currentColor"/></svg>