<svg width="16" height="16" viewBox="0 0 16 16" fill="none" xmlns="http://www.w3.org/2000/svg"><path d="M7.99988 3.25C9.94726 3.25 11.4629 4.08993 12.535 5.01074C13.6021 5.92721 14.2628 6.95036 14.5282 7.40625C14.7431 7.77548 14.7431 8.22452 14.5282 8.59375L14.41 8.79004C14.0912 9.30383 13.4687 10.1874 12.535 10.9893C11.4629 11.9101 9.94726 12.75 7.99988 12.75C6.05251 12.75 4.53689 11.9101 3.46472 10.9893C2.39767 10.0728 1.73695 9.04961 1.47156 8.59375C1.25664 8.22454 1.25664 7.77546 1.47156 7.40625C1.73695 6.95039 2.39767 5.92721 3.46472 5.01074C4.53689 4.08992 6.05251 3.25002 7.99988 3.25ZM7.99988 4.75C6.51204 4.75002 5.3302 5.38588 4.44226 6.14844C3.66036 6.81997 3.13466 7.57083 2.86804 8C3.13466 8.42917 3.66036 9.18003 4.44226 9.85156C5.3302 10.6141 6.51204 11.25 7.99988 11.25C9.48773 11.25 10.6696 10.6141 11.5575 9.85156C12.3397 9.17981 12.8661 8.42911 13.1327 8C12.8661 7.57089 12.3397 6.82019 11.5575 6.14844C10.6696 5.38589 9.48773 4.75 7.99988 4.75ZM8.99988 5.75C9.69023 5.75 10.2499 6.30964 10.2499 7V9C10.2499 9.69036 9.69023 10.25 8.99988 10.25H6.99988C6.30956 10.25 5.74988 9.69033 5.74988 9V7C5.74988 6.30967 6.30956 5.75004 6.99988 5.75H8.99988ZM7.24988 8.75H8.74988V7.25H7.24988V8.75Z" fill="currentColor"/></svg>