<svg width="16" height="16" viewBox="0 0 16 16" fill="none" xmlns="http://www.w3.org/2000/svg"><path d="M2.99976 9.25C3.41397 9.25 3.74976 9.58579 3.74976 10V12C3.74976 12.138 3.8618 12.2499 3.99976 12.25H5.99976C6.41397 12.25 6.74976 12.5858 6.74976 13C6.74976 13.4142 6.41397 13.75 5.99976 13.75H3.99976C3.03337 13.7499 2.24976 12.9664 2.24976 12V10C2.24976 9.58587 2.58565 9.25013 2.99976 9.25ZM12.9998 9.25C13.414 9.25 13.7498 9.58579 13.7498 10V12C13.7498 12.9665 12.9663 13.75 11.9998 13.75H9.99976C9.58567 13.7498 9.24976 13.4141 9.24976 13C9.24976 12.5859 9.58567 12.2502 9.99976 12.25H11.9998C12.1378 12.25 12.2498 12.1381 12.2498 12V10C12.2498 9.58588 12.5857 9.25015 12.9998 9.25ZM9.49976 5.75C9.91397 5.75 10.2498 6.08579 10.2498 6.5V9.5C10.2498 9.91421 9.91397 10.25 9.49976 10.25H6.49976C6.08567 10.2498 5.74976 9.91412 5.74976 9.5V6.5C5.74976 6.08588 6.08567 5.75015 6.49976 5.75H9.49976ZM7.24976 8.75H8.74976V7.25H7.24976V8.75ZM5.99976 2.25C6.41397 2.25 6.74976 2.58579 6.74976 3C6.74976 3.41421 6.41397 3.75 5.99976 3.75H3.99976C3.86181 3.75015 3.74976 3.86202 3.74976 4V6C3.74976 6.41421 3.41397 6.75 2.99976 6.75C2.58567 6.74985 2.24976 6.41412 2.24976 6V4C2.24976 3.0336 3.03339 2.25015 3.99976 2.25H5.99976ZM11.9998 2.25C12.9663 2.25 13.7498 3.0335 13.7498 4V6C13.7498 6.41421 13.414 6.75 12.9998 6.75C12.5857 6.74982 12.2498 6.4141 12.2498 6V4C12.2498 3.86193 12.1378 3.75 11.9998 3.75H9.99976C9.5857 3.74982 9.24976 3.4141 9.24976 3C9.24976 2.5859 9.5857 2.25018 9.99976 2.25H11.9998Z" fill="currentColor"/></svg>