<svg width="16" height="16" viewBox="0 0 16 16" fill="none" xmlns="http://www.w3.org/2000/svg"><path d="M8.5 10.25C9.4665 10.25 10.25 11.0335 10.25 12V13.6895L10.5303 13.9697C10.8232 14.2626 10.8232 14.7374 10.5303 15.0303C10.2374 15.3232 9.76262 15.3232 9.46973 15.0303L9.18945 14.75H7.5C6.5335 14.75 5.75 13.9665 5.75 13V12C5.75 11.0335 6.5335 10.25 7.5 10.25H8.5ZM4.5 10.25C4.91421 10.25 5.25 10.5858 5.25 11C5.25 11.4142 4.91421 11.75 4.5 11.75H3.22754L4.77148 12.7793C5.0704 12.9787 5.24984 13.3145 5.25 13.6738C5.25003 14.2678 4.76869 14.7497 4.1748 14.75H1.5C1.0858 14.75 0.750002 14.4142 0.75 14C0.75 13.5858 1.0858 13.25 1.5 13.25H2.77246L1.22949 12.2207C0.96759 12.0461 0.797241 11.767 0.758789 11.459L0.75 11.3262L0.755859 11.2158C0.810908 10.6734 1.26919 10.25 1.82617 10.25H4.5ZM11.5 10.25C11.9142 10.25 12.25 10.5858 12.25 11V13C12.25 13.1381 12.3619 13.25 12.5 13.25H14.5C14.9142 13.25 15.25 13.5858 15.25 14C15.25 14.4142 14.9142 14.75 14.5 14.75H12.5C11.5335 14.75 10.75 13.9665 10.75 13V11C10.75 10.5858 11.0858 10.25 11.5 10.25ZM7.5 11.75C7.36193 11.75 7.25 11.8619 7.25 12V13C7.25 13.1381 7.36193 13.25 7.5 13.25H8.75V12C8.75 11.8619 8.63807 11.75 8.5 11.75H7.5ZM12 5.25C12.9665 5.25 13.75 6.0335 13.75 7V8C13.75 8.41421 13.4142 8.75 13 8.75C12.5858 8.75 12.25 8.41421 12.25 8V7C12.25 6.86193 12.1381 6.75 12 6.75H4C3.86193 6.75 3.75 6.86193 3.75 7V8C3.75 8.41421 3.41421 8.75 3 8.75C2.58579 8.75 2.25 8.41421 2.25 8V7C2.25 6.0335 3.0335 5.25 4 5.25H12ZM12 1.25C12.9665 1.25 13.75 2.0335 13.75 3V4C13.75 4.41421 13.4142 4.75 13 4.75C12.5858 4.75 12.25 4.41421 12.25 4V3C12.25 2.86193 12.1381 2.75 12 2.75H4C3.86193 2.75 3.75 2.86193 3.75 3V4C3.75 4.41421 3.41421 4.75 3 4.75C2.58579 4.75 2.25 4.41421 2.25 4V3C2.25 2.0335 3.0335 1.25 4 1.25H12Z" fill="currentColor"/></svg>