<svg width="16" height="16" viewBox="0 0 16 16" fill="none" xmlns="http://www.w3.org/2000/svg"><path d="M2.96973 11.9694C3.26258 11.6768 3.73746 11.6768 4.03027 11.9694C4.32301 12.2622 4.32286 12.737 4.03027 13.0299L3.03027 14.0299C2.7374 14.3227 2.2626 14.3227 1.96973 14.0299C1.67705 13.737 1.67696 13.2622 1.96973 12.9694L2.96973 11.9694ZM5.96973 8.96936C6.26258 8.67682 6.73746 8.67676 7.03027 8.96936C7.32301 9.26216 7.32286 9.73701 7.03027 10.0299L6.03027 11.0299C5.7374 11.3227 5.2626 11.3227 4.96973 11.0299C4.67705 10.737 4.67696 10.2622 4.96973 9.96936L5.96973 8.96936ZM13 2.24963C13.1988 2.24964 13.3896 2.32882 13.5303 2.46936C13.6708 2.60993 13.7499 2.80085 13.75 2.99963V5.99963C13.75 6.19846 13.6708 6.38927 13.5303 6.52991C13.3896 6.67056 13.1989 6.74963 13 6.74963H10.3105L9.03027 8.02991C8.73737 8.32268 8.26258 8.32276 7.96973 8.02991C7.67709 7.73703 7.67703 7.26219 7.96973 6.96936L9.25 5.68909V2.99963C9.2502 2.58559 9.58591 2.24964 10 2.24963H13ZM10.75 5.24963H12.25V3.74963H10.75V5.24963Z" fill="currentColor"/></svg>