<svg width="16" height="16" viewBox="0 0 16 16" fill="none" xmlns="http://www.w3.org/2000/svg">
<g clip-path="url(#clip0_943_741)">
<path d="M16.75 -0.75V16.75H-0.75V-0.75H16.75Z" fill="#333333" stroke="white" stroke-width="1.5"/>
<mask id="path-2-outside-1_943_741" maskUnits="userSpaceOnUse" x="1" y="1" width="14" height="14" fill="black">
<rect fill="white" x="1" y="1" width="14" height="14"/>
<path d="M11 3C12.1046 3 13 3.89543 13 5C13 6.10457 12.1046 7 11 7C10.7066 7 10.4288 6.93481 10.1777 6.82129L6.82129 10.1777C6.93481 10.4288 7 10.7066 7 11C7 12.1046 6.10457 13 5 13C3.89543 13 3 12.1046 3 11C3 9.89543 3.89543 9 5 9C5.29298 9 5.57054 9.06455 5.82129 9.17773L9.17773 5.82129C9.06455 5.57054 9 5.29298 9 5C9 3.89543 9.89543 3 11 3Z"/>
</mask>
<path d="M11 3C12.1046 3 13 3.89543 13 5C13 6.10457 12.1046 7 11 7C10.7066 7 10.4288 6.93481 10.1777 6.82129L6.82129 10.1777C6.93481 10.4288 7 10.7066 7 11C7 12.1046 6.10457 13 5 13C3.89543 13 3 12.1046 3 11C3 9.89543 3.89543 9 5 9C5.29298 9 5.57054 9.06455 5.82129 9.17773L9.17773 5.82129C9.06455 5.57054 9 5.29298 9 5C9 3.89543 9.89543 3 11 3Z" fill="#468AF3"/>
<path d="M10.1777 6.82129L10.7958 5.45453L9.85058 5.02713L9.11707 5.76063L10.1777 6.82129ZM6.82129 10.1777L5.76063 9.11707L5.02713 9.85058L5.45453 10.7958L6.82129 10.1777ZM5.82129 9.17773L5.20415 10.5449L6.14896 10.9714L6.88195 10.2384L5.82129 9.17773ZM9.17773 5.82129L10.2384 6.88195L10.9714 6.14896L10.5449 5.20415L9.17773 5.82129ZM11 3V4.5C11.2761 4.5 11.5 4.72386 11.5 5H13H14.5C14.5 3.067 12.933 1.5 11 1.5V3ZM13 5H11.5C11.5 5.27614 11.2761 5.5 11 5.5V7V8.5C12.933 8.5 14.5 6.933 14.5 5H13ZM11 7V5.5C10.9315 5.5 10.8637 5.48523 10.7958 5.45453L10.1777 6.82129L9.5597 8.18805C9.9939 8.38439 10.4816 8.5 11 8.5V7ZM10.1777 6.82129L9.11707 5.76063L5.76063 9.11707L6.82129 10.1777L7.88195 11.2384L11.2384 7.88195L10.1777 6.82129ZM6.82129 10.1777L5.45453 10.7958C5.48523 10.8637 5.5 10.9315 5.5 11H7H8.5C8.5 10.4816 8.38439 9.9939 8.18805 9.5597L6.82129 10.1777ZM7 11H5.5C5.5 11.2761 5.27614 11.5 5 11.5V13V14.5C6.933 14.5 8.5 12.933 8.5 11H7ZM5 13V11.5C4.72386 11.5 4.5 11.2761 4.5 11H3H1.5C1.5 12.933 3.067 14.5 5 14.5V13ZM3 11H4.5C4.5 10.7239 4.72386 10.5 5 10.5V9V7.5C3.067 7.5 1.5 9.067 1.5 11H3ZM5 9V10.5C5.07005 10.5 5.13793 10.515 5.20415 10.5449L5.82129 9.17773L6.43843 7.81057C6.00316 7.61409 5.5159 7.5 5 7.5V9ZM5.82129 9.17773L6.88195 10.2384L10.2384 6.88195L9.17773 5.82129L8.11707 4.76063L4.76063 8.11707L5.82129 9.17773ZM9.17773 5.82129L10.5449 5.20415C10.515 5.13793 10.5 5.07005 10.5 5H9H7.5C7.5 5.5159 7.61409 6.00316 7.81057 6.43843L9.17773 5.82129ZM9 5H10.5C10.5 4.72386 10.7239 4.5 11 4.5V3V1.5C9.067 1.5 7.5 3.067 7.5 5H9Z" fill="white" mask="url(#path-2-outside-1_943_741)"/>
</g>
<defs>
<clipPath id="clip0_943_741">
<rect width="16" height="16" fill="white"/>
</clipPath>
</defs>
</svg>
