<svg width="16" height="16" viewBox="0 0 16 16" fill="none" xmlns="http://www.w3.org/2000/svg">
<mask id="path-1-outside-1_1286_3043" maskUnits="userSpaceOnUse" x="0.25" y="1.25" width="16" height="14" fill="black">
<rect fill="white" x="0.25" y="1.25" width="16" height="14"/>
<path d="M11.5 2.25C12.094 2.25 12.5575 2.55597 12.8896 2.93555C13.2133 3.30547 13.4569 3.7907 13.6475 4.29883C14.0304 5.32012 14.2733 6.64069 14.4316 7.90723C14.5913 9.18494 14.6704 10.4571 14.71 11.4062C14.7298 11.8817 14.7401 12.2782 14.7451 12.5566C14.7476 12.6959 14.7484 12.8064 14.749 12.8818C14.7493 12.9194 14.7499 12.9489 14.75 12.9688V13C14.75 13.4142 14.4142 13.75 14 13.75C13.5858 13.75 13.25 13.4142 13.25 13V12.9746C13.2499 12.9567 13.2493 12.9291 13.249 12.8936C13.2484 12.8226 13.2475 12.7178 13.2451 12.584C13.2403 12.3156 13.2312 11.9307 13.2119 11.4688C13.1733 10.543 13.0961 9.31496 12.9434 8.09277C12.7892 6.85956 12.5632 5.6798 12.2432 4.82617C12.0822 4.39703 11.9155 4.10072 11.7607 3.92383C11.6144 3.75659 11.531 3.75 11.5 3.75C11.2709 3.75 11.1398 3.81989 11.0225 3.94434C10.8763 4.09935 10.7312 4.36707 10.5869 4.7998C10.4446 5.22668 10.3272 5.73546 10.1924 6.33008C10.0606 6.91134 9.91489 7.56202 9.71875 8.21582C9.32675 9.52244 8.71099 10.928 7.49609 12C6.2664 13.085 4.51294 13.75 2 13.75C1.58579 13.75 1.25 13.4142 1.25 13C1.25 12.5858 1.58579 12.25 2 12.25C4.23697 12.25 5.60861 11.665 6.50391 10.875C7.41388 10.072 7.92327 8.97745 8.28125 7.78418C8.46006 7.18812 8.59565 6.58855 8.72949 5.99805C8.86032 5.42086 8.9929 4.83575 9.16309 4.3252C9.33134 3.82044 9.56121 3.3069 9.93066 2.91504C10.3289 2.49263 10.8541 2.25 11.5 2.25ZM3.5 8.25C3.91419 8.25003 4.25 8.58581 4.25 9C4.25 9.41419 3.91419 9.74997 3.5 9.75H2C1.58579 9.75 1.25 9.41421 1.25 9C1.25 8.58579 1.58579 8.25 2 8.25H3.5ZM5 5.25C5.41421 5.25 5.75 5.58579 5.75 6C5.75 6.41421 5.41421 6.75 5 6.75H2C1.58581 6.74997 1.25 6.41419 1.25 6C1.25 5.58581 1.58581 5.25003 2 5.25H5ZM6.5 2.25C6.91421 2.25 7.25 2.58579 7.25 3C7.25 3.41421 6.91421 3.75 6.5 3.75H2C1.58581 3.74997 1.25 3.41419 1.25 3C1.25 2.58581 1.58581 2.25003 2 2.25H6.5Z"/>
</mask>
<path d="M12.8896 2.93555L13.6422 2.27704L13.6422 2.27699L12.8896 2.93555ZM13.6475 4.29883L14.5838 3.9477L14.5838 3.94766L13.6475 4.29883ZM14.4316 7.90723L15.4239 7.7832L15.4239 7.78319L14.4316 7.90723ZM14.71 11.4062L15.7091 11.3646V11.3646L14.71 11.4062ZM14.7451 12.5566L15.745 12.5388V12.5388L14.7451 12.5566ZM14.749 12.8818L15.749 12.8735V12.8735L14.749 12.8818ZM14.75 12.9688H15.75L15.75 12.9647L14.75 12.9688ZM13.25 12.9746H14.25L14.25 12.9706L13.25 12.9746ZM13.249 12.8936L12.2491 12.9019L12.2491 12.9019L13.249 12.8936ZM13.2451 12.584L14.245 12.5661V12.5661L13.2451 12.584ZM13.2119 11.4688L14.211 11.4271V11.4271L13.2119 11.4688ZM12.9434 8.09277L13.9356 7.96874L13.9356 7.96873L12.9434 8.09277ZM12.2432 4.82617L13.1795 4.4751L13.1795 4.47505L12.2432 4.82617ZM11.7607 3.92383L12.5134 3.26544L12.5133 3.26532L11.7607 3.92383ZM11.0225 3.94434L10.2949 3.25829L10.2949 3.25832L11.0225 3.94434ZM10.5869 4.7998L11.5356 5.11603V5.11603L10.5869 4.7998ZM10.1924 6.33008L11.1676 6.55114V6.55114L10.1924 6.33008ZM9.71875 8.21582L10.6766 8.50318L10.6766 8.50317L9.71875 8.21582ZM7.49609 12L8.15769 12.7499L8.15772 12.7498L7.49609 12ZM6.50391 10.875L7.16553 11.6248L7.16556 11.6248L6.50391 10.875ZM8.28125 7.78418L9.23908 8.07153L9.23908 8.07151L8.28125 7.78418ZM8.72949 5.99805L7.75423 5.77699V5.77699L8.72949 5.99805ZM9.16309 4.3252L10.1118 4.64142V4.64142L9.16309 4.3252ZM9.93066 2.91504L9.20307 2.22903L9.20306 2.22904L9.93066 2.91504ZM3.5 8.25L3.50008 7.25H3.5V8.25ZM3.5 9.75V10.75H3.50008L3.5 9.75ZM2 6.75L1.99992 7.75H2V6.75ZM2 5.25V4.25H1.99992L2 5.25ZM2 3.75L1.99992 4.75H2V3.75ZM2 2.25V1.25H1.99992L2 2.25ZM11.5 2.25V3.25C11.7169 3.25 11.9273 3.35439 12.1371 3.5941L12.8896 2.93555L13.6422 2.27699C13.1876 1.75755 12.471 1.25 11.5 1.25V2.25ZM12.8896 2.93555L12.1371 3.59405C12.3481 3.83525 12.5403 4.19454 12.7111 4.64999L13.6475 4.29883L14.5838 3.94766C14.3734 3.38686 14.0785 2.77568 13.6422 2.27704L12.8896 2.93555ZM13.6475 4.29883L12.7111 4.64995C13.0522 5.55955 13.2838 6.78684 13.4394 8.03126L14.4316 7.90723L15.4239 7.78319C15.2628 6.49453 15.0087 5.08068 14.5838 3.9477L13.6475 4.29883ZM14.4316 7.90723L13.4394 8.03125C13.5944 9.27179 13.6719 10.5142 13.7108 11.4479L14.71 11.4062L15.7091 11.3646C15.6689 10.4 15.5883 9.09808 15.4239 7.7832L14.4316 7.90723ZM14.71 11.4062L13.7108 11.4479C13.7303 11.9149 13.7404 12.3036 13.7453 12.5745L14.7451 12.5566L15.745 12.5388C15.7399 12.2529 15.7293 11.8484 15.7091 11.3646L14.71 11.4062ZM14.7451 12.5566L13.7453 12.5745C13.7477 12.7082 13.7484 12.8141 13.7491 12.8902L14.749 12.8818L15.749 12.8735C15.7484 12.7987 15.7475 12.6836 15.745 12.5388L14.7451 12.5566ZM14.749 12.8818L13.7491 12.8901C13.7496 12.9523 13.7499 12.9475 13.75 12.9728L14.75 12.9688L15.75 12.9647C15.7499 12.949 15.7497 12.9313 15.7495 12.9185C15.7493 12.9039 15.7491 12.8895 15.749 12.8735L14.749 12.8818ZM14.75 12.9688H13.75V13H14.75H15.75V12.9688H14.75ZM14.75 13H13.75C13.75 12.8619 13.8619 12.75 14 12.75V13.75V14.75C14.9665 14.75 15.75 13.9665 15.75 13H14.75ZM14 13.75V12.75C14.1381 12.75 14.25 12.8619 14.25 13H13.25H12.25C12.25 13.9665 13.0335 14.75 14 14.75V13.75ZM13.25 13H14.25V12.9746H13.25H12.25V13H13.25ZM13.25 12.9746L14.25 12.9706C14.2499 12.9551 14.2497 12.9373 14.2495 12.9261C14.2493 12.9126 14.2491 12.8996 14.249 12.8852L13.249 12.8936L12.2491 12.9019C12.2492 12.9231 12.2495 12.9416 12.2497 12.9553C12.2498 12.9625 12.2499 12.9676 12.2499 12.9721C12.25 12.9742 12.25 12.9757 12.25 12.9769C12.25 12.9781 12.25 12.9786 12.25 12.9786L13.25 12.9746ZM13.249 12.8936L14.249 12.8852C14.2484 12.8133 14.2474 12.7047 14.245 12.5661L13.2451 12.584L12.2453 12.6018C12.2476 12.7308 12.2485 12.8319 12.2491 12.9019L13.249 12.8936ZM13.2451 12.584L14.245 12.5661C14.2401 12.2919 14.2307 11.8988 14.211 11.4271L13.2119 11.4688L12.2128 11.5104C12.2316 11.9625 12.2406 12.3392 12.2453 12.6018L13.2451 12.584ZM13.2119 11.4688L14.211 11.4271C14.1718 10.4856 14.093 9.2279 13.9356 7.96874L12.9434 8.09277L11.9511 8.21681C12.0992 9.40203 12.1749 10.6004 12.2128 11.5104L13.2119 11.4688ZM12.9434 8.09277L13.9356 7.96873C13.7787 6.7135 13.5415 5.44044 13.1795 4.4751L12.2432 4.82617L11.3068 5.17724C11.585 5.91916 11.7997 7.00561 11.9511 8.21682L12.9434 8.09277ZM12.2432 4.82617L13.1795 4.47505C12.9988 3.99326 12.7807 3.57104 12.5134 3.26544L11.7607 3.92383L11.0081 4.58222C11.0502 4.6304 11.1656 4.8008 11.3068 5.1773L12.2432 4.82617ZM11.7607 3.92383L12.5133 3.26532C12.3865 3.12036 12.2355 2.98503 12.0514 2.88851C11.84 2.77769 11.6462 2.75 11.5 2.75V3.75V4.75C11.4613 4.75 11.3945 4.7473 11.3152 4.72959C11.2393 4.71262 11.1747 4.68707 11.1228 4.65989C11.0248 4.60848 10.9887 4.56006 11.0082 4.58233L11.7607 3.92383ZM11.5 3.75V2.75C11.2822 2.75 11.0505 2.78362 10.8211 2.88321C10.5894 2.98381 10.4198 3.12579 10.2949 3.25829L11.0225 3.94434L11.75 4.63038C11.7424 4.63843 11.6971 4.68325 11.6175 4.71779C11.5403 4.75132 11.4887 4.75 11.5 4.75V3.75ZM11.0225 3.94434L10.2949 3.25832C9.99934 3.57177 9.79807 4.00405 9.63823 4.48358L10.5869 4.7998L11.5356 5.11603C11.5963 4.93401 11.6497 4.80948 11.6923 4.72718C11.7356 4.64339 11.7583 4.62164 11.7501 4.63035L11.0225 3.94434ZM10.5869 4.7998L9.63823 4.48358C9.47736 4.96618 9.34936 5.52563 9.21712 6.10902L10.1924 6.33008L11.1676 6.55114C11.305 5.94528 11.4119 5.48718 11.5356 5.11603L10.5869 4.7998ZM10.1924 6.33008L9.21712 6.10902C9.08387 6.69691 8.94547 7.31333 8.76092 7.92847L9.71875 8.21582L10.6766 8.50317C10.8843 7.81071 11.0374 7.12577 11.1676 6.55114L10.1924 6.33008ZM9.71875 8.21582L8.76093 7.92846C8.39169 9.15921 7.84625 10.3574 6.83447 11.2502L7.49609 12L8.15772 12.7498C9.57572 11.4987 10.2618 9.88568 10.6766 8.50318L9.71875 8.21582ZM7.49609 12L6.83449 11.2501C5.82789 12.1383 4.32918 12.75 2 12.75V13.75V14.75C4.69671 14.75 6.70491 14.0317 8.15769 12.7499L7.49609 12ZM2 13.75V12.75C2.13807 12.75 2.25 12.8619 2.25 13H1.25H0.25C0.25 13.9665 1.0335 14.75 2 14.75V13.75ZM1.25 13H2.25C2.25 13.1381 2.13807 13.25 2 13.25V12.25V11.25C1.0335 11.25 0.25 12.0335 0.25 13H1.25ZM2 12.25V13.25C4.42138 13.25 6.04752 12.6113 7.16553 11.6248L6.50391 10.875L5.84228 10.1252C5.16969 10.7186 4.05256 11.25 2 11.25V12.25ZM6.50391 10.875L7.16556 11.6248C8.27894 10.6423 8.85854 9.33999 9.23908 8.07153L8.28125 7.78418L7.32342 7.49683C6.988 8.61491 6.54881 9.50171 5.84226 10.1252L6.50391 10.875ZM8.28125 7.78418L9.23908 8.07151C9.42939 7.43712 9.57219 6.80396 9.70475 6.21911L8.72949 5.99805L7.75423 5.77699C7.61911 6.37313 7.49073 6.93911 7.32342 7.49685L8.28125 7.78418ZM8.72949 5.99805L9.70475 6.21911C9.83828 5.63003 9.96022 5.09606 10.1118 4.64142L9.16309 4.3252L8.2144 4.00897C8.02558 4.57545 7.88237 5.21169 7.75423 5.77699L8.72949 5.99805ZM9.16309 4.3252L10.1118 4.64142C10.2638 4.18543 10.4374 3.83532 10.6583 3.60104L9.93066 2.91504L9.20306 2.22904C8.68505 2.77847 8.39891 3.45545 8.2144 4.00897L9.16309 4.3252ZM9.93066 2.91504L10.6583 3.60105C10.8691 3.37742 11.1318 3.25 11.5 3.25V2.25V1.25C10.5765 1.25 9.78876 1.60784 9.20307 2.22903L9.93066 2.91504ZM3.5 8.25L3.49992 9.25C3.36196 9.24999 3.25 9.13817 3.25 9H4.25H5.25C5.25 8.03344 4.46641 7.25008 3.50008 7.25L3.5 8.25ZM4.25 9H3.25C3.25 8.86183 3.36196 8.75001 3.49992 8.75L3.5 9.75L3.50008 10.75C4.46641 10.7499 5.25 9.96656 5.25 9H4.25ZM3.5 9.75V8.75H2V9.75V10.75H3.5V9.75ZM2 9.75V8.75C2.13807 8.75 2.25 8.86193 2.25 9H1.25H0.25C0.25 9.9665 1.0335 10.75 2 10.75V9.75ZM1.25 9H2.25C2.25 9.13807 2.13807 9.25 2 9.25V8.25V7.25C1.0335 7.25 0.25 8.0335 0.25 9H1.25ZM2 8.25V9.25H3.5V8.25V7.25H2V8.25ZM5 5.25V6.25C4.86193 6.25 4.75 6.13807 4.75 6H5.75H6.75C6.75 5.0335 5.9665 4.25 5 4.25V5.25ZM5.75 6H4.75C4.75 5.86193 4.86193 5.75 5 5.75V6.75V7.75C5.9665 7.75 6.75 6.9665 6.75 6H5.75ZM5 6.75V5.75H2V6.75V7.75H5V6.75ZM2 6.75L2.00008 5.75C2.13804 5.75001 2.25 5.86183 2.25 6H1.25H0.25C0.25 6.96656 1.03359 7.74992 1.99992 7.75L2 6.75ZM1.25 6H2.25C2.25 6.13817 2.13804 6.24999 2.00008 6.25L2 5.25L1.99992 4.25C1.03359 4.25008 0.25 5.03344 0.25 6H1.25ZM2 5.25V6.25H5V5.25V4.25H2V5.25ZM6.5 2.25V3.25C6.36193 3.25 6.25 3.13807 6.25 3H7.25H8.25C8.25 2.0335 7.4665 1.25 6.5 1.25V2.25ZM7.25 3H6.25C6.25 2.86193 6.36193 2.75 6.5 2.75V3.75V4.75C7.4665 4.75 8.25 3.9665 8.25 3H7.25ZM6.5 3.75V2.75H2V3.75V4.75H6.5V3.75ZM2 3.75L2.00008 2.75C2.13804 2.75001 2.25 2.86183 2.25 3H1.25H0.25C0.25 3.96656 1.03359 4.74992 1.99992 4.75L2 3.75ZM1.25 3H2.25C2.25 3.13817 2.13804 3.24999 2.00008 3.25L2 2.25L1.99992 1.25C1.03359 1.25008 0.25 2.03344 0.25 3H1.25ZM2 2.25V3.25H6.5V2.25V1.25H2V2.25Z" fill="#E6E6E6" mask="url(#path-1-outside-1_1286_3043)"/>
<path d="M11.5 2.25C12.094 2.25 12.5575 2.55597 12.8896 2.93555C13.2133 3.30547 13.4569 3.7907 13.6475 4.29883C14.0304 5.32012 14.2733 6.64069 14.4316 7.90723C14.5913 9.18494 14.6704 10.4571 14.71 11.4062C14.7298 11.8817 14.7401 12.2782 14.7451 12.5566C14.7476 12.6959 14.7484 12.8064 14.749 12.8818C14.7493 12.9194 14.7499 12.9489 14.75 12.9688V13C14.75 13.4142 14.4142 13.75 14 13.75C13.5858 13.75 13.25 13.4142 13.25 13V12.9746C13.2499 12.9567 13.2493 12.9291 13.249 12.8936C13.2484 12.8226 13.2475 12.7178 13.2451 12.584C13.2403 12.3156 13.2312 11.9307 13.2119 11.4688C13.1733 10.543 13.0961 9.31496 12.9434 8.09277C12.7892 6.85956 12.5632 5.6798 12.2432 4.82617C12.0822 4.39703 11.9155 4.10072 11.7607 3.92383C11.6144 3.75659 11.531 3.75 11.5 3.75C11.2709 3.75 11.1398 3.81989 11.0225 3.94434C10.8763 4.09935 10.7312 4.36707 10.5869 4.7998C10.4446 5.22668 10.3272 5.73546 10.1924 6.33008C10.0606 6.91134 9.91489 7.56202 9.71875 8.21582C9.32675 9.52244 8.71099 10.928 7.49609 12C6.2664 13.085 4.51294 13.75 2 13.75C1.58579 13.75 1.25 13.4142 1.25 13C1.25 12.5858 1.58579 12.25 2 12.25C4.23697 12.25 5.60861 11.665 6.50391 10.875C7.41388 10.072 7.92327 8.97745 8.28125 7.78418C8.46006 7.18812 8.59565 6.58855 8.72949 5.99805C8.86032 5.42086 8.9929 4.83575 9.16309 4.3252C9.33134 3.82044 9.56121 3.3069 9.93066 2.91504C10.3289 2.49263 10.8541 2.25 11.5 2.25ZM3.5 8.25C3.91419 8.25003 4.25 8.58581 4.25 9C4.25 9.41419 3.91419 9.74997 3.5 9.75H2C1.58579 9.75 1.25 9.41421 1.25 9C1.25 8.58579 1.58579 8.25 2 8.25H3.5ZM5 5.25C5.41421 5.25 5.75 5.58579 5.75 6C5.75 6.41421 5.41421 6.75 5 6.75H2C1.58581 6.74997 1.25 6.41419 1.25 6C1.25 5.58581 1.58581 5.25003 2 5.25H5ZM6.5 2.25C6.91421 2.25 7.25 2.58579 7.25 3C7.25 3.41421 6.91421 3.75 6.5 3.75H2C1.58581 3.74997 1.25 3.41419 1.25 3C1.25 2.58581 1.58581 2.25003 2 2.25H6.5Z" fill="#468AF3"/>
</svg>
