<svg width="16" height="16" viewBox="0 0 16 16" fill="none" xmlns="http://www.w3.org/2000/svg">
<path d="M5.5 2H10.5V13L5.5 12V2Z" fill="#EF9625"/>
<path d="M10.5 7H8" stroke="#333333" stroke-width="1.5" stroke-linecap="round" stroke-linejoin="round"/>
<path d="M10.5 10H9" stroke="#333333" stroke-width="1.5" stroke-linecap="round" stroke-linejoin="round"/>
<path d="M10.5 4L9 4" stroke="#333333" stroke-width="1.5" stroke-linecap="round" stroke-linejoin="round"/>
<path d="M10 1.5C10.5523 1.5 11 1.94772 11 2.5V12.3896C11 13.0207 10.4225 13.4949 9.80371 13.3711L5.80371 12.5703C5.33641 12.4767 5 12.0664 5 11.5898V2.5C5 1.94772 5.44772 1.5 6 1.5H10Z" stroke="#E6E6E6"/>
<mask id="path-6-outside-1_1286_3046" maskUnits="userSpaceOnUse" x="0.249146" y="10.25" width="15" height="6" fill="black">
<rect fill="white" x="0.249146" y="10.25" width="15" height="6"/>
<path d="M4.92235 11.25C6.20989 11.25 7.37118 11.8464 8.33544 12.3291C9.36868 12.8463 10.2063 13.2499 11.0767 13.25C11.5177 13.2499 12.1353 13.0684 12.7222 12.835C13.107 12.6819 13.5436 12.8701 13.6968 13.2549C13.8498 13.6396 13.6615 14.0753 13.2768 14.2285C12.6635 14.4725 11.8207 14.7499 11.0767 14.75C9.78914 14.7499 8.62778 14.1535 7.66357 13.6709C6.63031 13.1537 5.79276 12.75 4.92235 12.75C4.4812 12.7502 3.8636 12.9316 3.27685 13.165C2.8921 13.3178 2.45532 13.1298 2.30224 12.7451C2.14942 12.3605 2.33782 11.9248 2.72216 11.7715C3.33538 11.5275 4.17824 11.2502 4.92235 11.25Z"/>
</mask>
<path d="M4.92235 11.25V10.25H4.92212L4.92235 11.25ZM8.33544 12.3291L7.88783 13.2233L7.88783 13.2233L8.33544 12.3291ZM11.0767 13.25L11.0765 14.25H11.0768L11.0767 13.25ZM12.7222 12.835L12.3525 11.9058L12.3525 11.9058L12.7222 12.835ZM13.6968 13.2549L14.626 12.8854L14.6258 12.885L13.6968 13.2549ZM13.2768 14.2285L13.6465 15.1577L13.6468 15.1575L13.2768 14.2285ZM11.0767 14.75L11.0765 15.75H11.0767L11.0767 14.75ZM7.66357 13.6709L8.11117 12.7767L8.11117 12.7767L7.66357 13.6709ZM4.92235 12.75V11.75L4.92192 11.75L4.92235 12.75ZM3.27685 13.165L3.64595 14.0944L3.64657 14.0942L3.27685 13.165ZM2.30224 12.7451L1.37292 13.1144L1.37309 13.1148L2.30224 12.7451ZM2.72216 11.7715L2.35244 10.8423L2.35164 10.8427L2.72216 11.7715ZM4.92235 11.25V12.25C5.9328 12.25 6.88029 12.719 7.88783 13.2233L8.33544 12.3291L8.78305 11.4349C7.86207 10.9739 6.48697 10.25 4.92235 10.25V11.25ZM8.33544 12.3291L7.88783 13.2233C8.87173 13.7158 9.92697 14.2498 11.0765 14.25L11.0767 13.25L11.0768 12.25C10.4856 12.2499 9.86562 11.9768 8.78305 11.4349L8.33544 12.3291ZM11.0767 13.25L11.0768 14.25C11.7206 14.2499 12.4889 14.004 13.0918 13.7641L12.7222 12.835L12.3525 11.9058C11.7817 12.1329 11.3149 12.25 11.0765 12.25L11.0767 13.25ZM12.7222 12.835L13.0918 13.7641C12.963 13.8154 12.8186 13.7526 12.7677 13.6248L13.6968 13.2549L14.6258 12.885C14.2686 11.9877 13.2509 11.5484 12.3525 11.9058L12.7222 12.835ZM13.6968 13.2549L12.7675 13.6244C12.716 13.4948 12.7799 13.35 12.9069 13.2995L13.2768 14.2285L13.6468 15.1575C14.5431 14.8006 14.9835 13.7844 14.626 12.8854L13.6968 13.2549ZM13.2768 14.2285L12.9072 13.2994C12.3116 13.5363 11.6188 13.75 11.0766 13.75L11.0767 14.75L11.0767 15.75C12.0227 15.7499 13.0155 15.4088 13.6465 15.1577L13.2768 14.2285ZM11.0767 14.75L11.0768 13.75C10.0662 13.7499 9.11856 13.2809 8.11117 12.7767L7.66357 13.6709L7.21596 14.5651C8.13701 15.0262 9.51205 15.7498 11.0765 15.75L11.0767 14.75ZM7.66357 13.6709L8.11117 12.7767C7.12743 12.2843 6.07209 11.75 4.92235 11.75V12.75V13.75C5.51344 13.75 6.1332 14.0232 7.21596 14.5651L7.66357 13.6709ZM4.92235 12.75L4.92192 11.75C4.27835 11.7503 3.51027 11.9959 2.90713 12.2359L3.27685 13.165L3.64657 14.0942C4.21693 13.8672 4.68405 13.7501 4.92279 13.75L4.92235 12.75ZM3.27685 13.165L2.90774 12.2357C3.03551 12.1849 3.18016 12.2467 3.23138 12.3754L2.30224 12.7451L1.37309 13.1148C1.73048 14.013 2.74868 14.4508 3.64595 14.0944L3.27685 13.165ZM2.30224 12.7451L3.23155 12.3758C3.28317 12.5057 3.21912 12.6499 3.09268 12.7003L2.72216 11.7715L2.35164 10.8427C1.45653 11.1997 1.01566 12.2153 1.37292 13.1144L2.30224 12.7451ZM2.72216 11.7715L3.09188 12.7006C3.68715 12.4638 4.3802 12.2501 4.92259 12.25L4.92235 11.25L4.92212 10.25C3.97628 10.2502 2.9836 10.5912 2.35244 10.8423L2.72216 11.7715Z" fill="#E6E6E6" mask="url(#path-6-outside-1_1286_3046)"/>
<path d="M3 12.4679C3.60023 12.229 4.33033 12 4.92308 12C7.08131 12 8.91869 14 11.0769 14C11.6697 14 12.3998 13.771 13 13.5321" stroke="#0A7DFF" stroke-width="1.5" stroke-linecap="round" stroke-linejoin="round"/>
</svg>
