<svg width="16" height="16" viewBox="0 0 16 16" fill="none" xmlns="http://www.w3.org/2000/svg">
<g clip-path="url(#clip0_723_859)">
<rect width="16" height="16" fill="white"/>
<path d="M16.75 -0.75V16.75H-0.75V-0.75H16.75Z" fill="#333333" stroke="white" stroke-width="1.5"/>
<mask id="path-2-outside-1_723_859" maskUnits="userSpaceOnUse" x="2" y="-2" width="12" height="16" fill="black">
<rect fill="white" x="2" y="-2" width="12" height="16"/>
<path d="M9 4.12598C10.7252 4.57002 12 6.13616 12 8C12 10.2091 10.2091 12 8 12C5.79086 12 4 10.2091 4 8C4 6.13616 5.27477 4.57002 7 4.12598V0H9V4.12598Z"/>
</mask>
<path d="M9 4.12598C10.7252 4.57002 12 6.13616 12 8C12 10.2091 10.2091 12 8 12C5.79086 12 4 10.2091 4 8C4 6.13616 5.27477 4.57002 7 4.12598V0H9V4.12598Z" fill="#468AF3"/>
<path d="M9 4.12598H7.5V5.28879L8.62612 5.57863L9 4.12598ZM7 4.12598L7.37388 5.57863L8.5 5.28879V4.12598H7ZM7 0V-1.5H5.5V0H7ZM9 0H10.5V-1.5H9V0ZM9 4.12598L8.62612 5.57863C9.70469 5.85623 10.5 6.83713 10.5 8H12H13.5C13.5 5.43518 11.7458 3.2838 9.37388 2.67332L9 4.12598ZM12 8H10.5C10.5 9.38071 9.38071 10.5 8 10.5V12V13.5C11.0376 13.5 13.5 11.0376 13.5 8H12ZM8 12V10.5C6.61929 10.5 5.5 9.38071 5.5 8H4H2.5C2.5 11.0376 4.96243 13.5 8 13.5V12ZM4 8H5.5C5.5 6.83713 6.29531 5.85623 7.37388 5.57863L7 4.12598L6.62612 2.67332C4.25422 3.2838 2.5 5.43518 2.5 8H4ZM7 4.12598H8.5V0H7H5.5V4.12598H7ZM7 0V1.5H9V0V-1.5H7V0ZM9 0H7.5V4.12598H9H10.5V0H9Z" fill="white" mask="url(#path-2-outside-1_723_859)"/>
</g>
<defs>
<clipPath id="clip0_723_859">
<rect width="16" height="16" fill="white"/>
</clipPath>
</defs>
</svg>
