<svg width="16" height="16" viewBox="0 0 16 16" fill="none" xmlns="http://www.w3.org/2000/svg">
<g clip-path="url(#clip0_943_732)">
<rect width="16" height="16" fill="white"/>
<path d="M4 0H16V7L4 0Z" fill="#D7D7D7"/>
<path d="M16.75 -0.75V11.75H-0.75V-0.75H16.75Z" fill="#333333" stroke="white" stroke-width="1.5"/>
<path d="M16.75 16.75H-0.75V10.1504L0.0927734 10.2559L16.0928 12.2559L16.75 12.3379V16.75Z" fill="#333333" stroke="white" stroke-width="1.5"/>
<path d="M9.38184 4.25C10.0447 4.25 10.6508 4.6249 10.9473 5.21777L12.6709 8.66504L13.2139 9.75H2.78613L3.3291 8.66504L5.05273 5.21777C5.34917 4.6249 5.95531 4.25 6.61816 4.25H9.38184Z" fill="#333333" stroke="white" stroke-width="1.5"/>
<path d="M16.75 13.8496L15.9072 13.7441L-0.0927734 11.7441L-0.75 11.6621V8.15039L0.0927734 8.25586L16.0928 10.2559L16.75 10.3379V13.8496Z" fill="#468AF3" stroke="white" stroke-width="1.5"/>
</g>
<defs>
<clipPath id="clip0_943_732">
<rect width="16" height="16" fill="white"/>
</clipPath>
</defs>
</svg>
