<svg width="16" height="16" viewBox="0 0 16 16" fill="none" xmlns="http://www.w3.org/2000/svg"><path d="M3.42871 2.47028C4.98675 1.66992 6.36682 1.4972 7.55371 2.14703C8.589 2.71397 9.18597 3.7939 9.58496 4.49176C10.068 5.33659 10.3732 5.8515 10.7793 6.14508C10.9312 6.25482 11.115 6.34209 11.3789 6.36774C11.6518 6.3942 12.0389 6.3569 12.5947 6.16656C13.08 6.00039 13.6173 6.14795 13.9502 6.53766H13.9512C14.2841 6.92804 14.344 7.48319 14.1035 7.9361C13.3047 9.44062 12.4931 10.3858 11.5195 10.8726C10.5473 11.3586 9.59865 11.2732 9.00684 11.2466C8.46005 11.2221 8.04963 11.2218 7.59863 11.3853L7.40234 11.4654C6.84582 11.72 6.06214 12.3066 5.00781 13.7408C4.68796 14.1759 4.12433 14.3559 3.61133 14.188H3.61035C3.09739 14.0196 2.75 13.5399 2.75 12.9996V3.5816L2.76172 3.40875C2.81754 3.00982 3.06396 2.65767 3.42871 2.47028ZM6.35254 4.34039C6.2247 4.27043 5.93437 4.15531 5.25 4.39606V9.86578C5.62469 9.58361 5.99411 9.36181 6.36328 9.19293C7.47021 8.68667 8.42921 8.71868 9.11816 8.74957C9.76192 8.77844 10.044 8.78116 10.3027 8.68024C9.94743 8.56161 9.6182 8.39001 9.31445 8.17047C8.37865 7.4939 7.8095 6.42391 7.41504 5.73395C7.18442 5.33058 6.99672 5.02166 6.81836 4.78571C6.64148 4.5517 6.49353 4.41762 6.35254 4.34039Z" fill="#E6E6E6" stroke="#E6E6E6" stroke-linejoin="round"/><path d="M13 7.34933C10 13 8.5 6.87845 4 13V3.58222C9.5 0.756893 7.5 9.23289 13 7.34933Z" fill="#8BDBFE" stroke="#2D52D2" stroke-width="1.5" stroke-linecap="round" stroke-linejoin="round"/></svg>