<svg width="16" height="16" viewBox="0 0 16 16" fill="none" xmlns="http://www.w3.org/2000/svg"><mask id="path-1-outside-1_1109_1405" maskUnits="userSpaceOnUse" x="1" y="1.4715" width="15" height="13" fill="black"><rect fill="white" x="1" y="1.4715" width="15" height="13"/><path d="M8.48145 3.4715C8.65178 3.46518 8.85619 3.61138 9.26465 3.90314L14.0889 7.34943C14.396 7.5688 14.5501 7.67822 14.6045 7.81427C14.6521 7.93329 14.652 8.06632 14.6045 8.18536C14.5501 8.32146 14.3962 8.43168 14.0889 8.65118L9.26465 12.0965C8.85607 12.3883 8.65181 12.5345 8.48145 12.5281C8.33314 12.5226 8.19519 12.4513 8.10449 12.3338C8.00031 12.1988 8 11.9474 8 11.4451V10.8563L6.26465 12.0965C5.85607 12.3883 5.65181 12.5345 5.48145 12.5281C5.33314 12.5226 5.19519 12.4513 5.10449 12.3338C5.00031 12.1988 5 11.9474 5 11.4451V10.8563L3.26465 12.0965C2.85607 12.3883 2.65181 12.5345 2.48145 12.5281C2.33314 12.5226 2.19519 12.4513 2.10449 12.3338C2.00031 12.1988 2 11.9474 2 11.4451V4.5545C2 4.05223 2.00031 3.80081 2.10449 3.66583C2.1952 3.54851 2.33323 3.477 2.48145 3.4715C2.65178 3.46518 2.85619 3.61138 3.26465 3.90314L5 5.1424V4.5545C5 4.05223 5.00031 3.80081 5.10449 3.66583C5.1952 3.54851 5.33323 3.477 5.48145 3.4715C5.65178 3.46518 5.85619 3.61138 6.26465 3.90314L8 5.1424V4.5545C8 4.05223 8.00031 3.80081 8.10449 3.66583C8.1952 3.54851 8.33323 3.477 8.48145 3.4715Z"/></mask><path d="M8.48145 3.4715L8.44439 2.47218L8.44437 2.47218L8.48145 3.4715ZM9.26465 3.90314L9.84593 3.08944L9.84589 3.0894L9.26465 3.90314ZM14.0889 7.34943L13.5076 8.16313L13.5076 8.16316L14.0889 7.34943ZM14.6045 7.81427L15.5331 7.44315L15.5331 7.44312L14.6045 7.81427ZM14.6045 8.18536L15.5331 8.55649L15.5333 8.55582L14.6045 8.18536ZM14.0889 8.65118L14.67 9.46496L14.6701 9.46492L14.0889 8.65118ZM9.26465 12.0965L8.68347 11.2827L8.68341 11.2828L9.26465 12.0965ZM8.48145 12.5281L8.44434 13.5274L8.44439 13.5275L8.48145 12.5281ZM8.10449 12.3338L7.31286 12.9448L7.31298 12.945L8.10449 12.3338ZM8 10.8563H9C9 10.4816 8.7906 10.1384 8.45746 9.96703C8.12433 9.79565 7.72334 9.82485 7.41855 10.0427L8 10.8563ZM6.26465 12.0965L6.84589 12.9102L6.8461 12.9101L6.26465 12.0965ZM5.48145 12.5281L5.44434 13.5274L5.44439 13.5275L5.48145 12.5281ZM5.10449 12.3338L4.31286 12.9448L4.31298 12.945L5.10449 12.3338ZM5 10.8563H6C6 10.4816 5.7906 10.1384 5.45746 9.96703C5.12433 9.79565 4.72334 9.82485 4.41855 10.0427L5 10.8563ZM3.26465 12.0965L3.84589 12.9102L3.8461 12.9101L3.26465 12.0965ZM2.48145 12.5281L2.44434 13.5274L2.44439 13.5275L2.48145 12.5281ZM2.10449 12.3338L1.31286 12.9448L1.31298 12.945L2.10449 12.3338ZM2 4.5545H1H2ZM2.10449 3.66583L1.31336 3.05419L1.31286 3.05484L2.10449 3.66583ZM2.48145 3.4715L2.44439 2.47218L2.44437 2.47218L2.48145 3.4715ZM3.26465 3.90314L2.68341 4.71687L2.6835 4.71693L3.26465 3.90314ZM5 5.1424L4.41885 5.95619C4.72367 6.17387 5.12458 6.20295 5.45763 6.03154C5.79067 5.86013 6 5.51696 6 5.1424H5ZM5 4.5545H4H5ZM5.10449 3.66583L4.31336 3.05419L4.31286 3.05484L5.10449 3.66583ZM5.48145 3.4715L5.44439 2.47218L5.44437 2.47218L5.48145 3.4715ZM6.26465 3.90314L5.68341 4.71687L5.6835 4.71693L6.26465 3.90314ZM8 5.1424L7.41885 5.95619C7.72367 6.17387 8.12458 6.20295 8.45763 6.03154C8.79067 5.86013 9 5.51696 9 5.1424H8ZM8 4.5545H7H8ZM8.10449 3.66583L7.31336 3.05419L7.31286 3.05484L8.10449 3.66583ZM8.48145 3.4715L8.5185 4.47081C8.40703 4.47494 8.32496 4.45212 8.28701 4.4388C8.25361 4.42707 8.24687 4.42 8.27875 4.43866C8.30914 4.45644 8.35491 4.48581 8.42638 4.53508C8.4973 4.58396 8.5792 4.64243 8.68341 4.71687L9.26465 3.90314L9.84589 3.0894C9.65798 2.95518 9.46097 2.81318 9.28875 2.71242C9.1279 2.61831 8.82632 2.45802 8.44439 2.47218L8.48145 3.4715ZM9.26465 3.90314L8.68336 4.71684L13.5076 8.16313L14.0889 7.34943L14.6702 6.53573L9.84593 3.08944L9.26465 3.90314ZM14.0889 7.34943L13.5076 8.16316C13.5867 8.21964 13.6464 8.2623 13.6969 8.29963C13.7477 8.33712 13.7754 8.35923 13.7905 8.37224C13.806 8.3855 13.7934 8.37667 13.7707 8.34895C13.7452 8.31778 13.7069 8.263 13.6759 8.18542L14.6045 7.81427L15.5331 7.44312C15.4171 7.15302 15.2214 6.96457 15.0924 6.85394C14.9669 6.74632 14.8077 6.63398 14.6701 6.53569L14.0889 7.34943ZM14.6045 7.81427L13.6759 8.18539C13.6281 8.06568 13.6284 7.93325 13.6756 7.8149L14.6045 8.18536L15.5333 8.55582C15.6755 8.1994 15.6761 7.8009 15.5331 7.44315L14.6045 7.81427ZM14.6045 8.18536L13.6759 7.81424C13.7067 7.73726 13.7445 7.68291 13.7698 7.652C13.7923 7.62447 13.8047 7.61574 13.7893 7.62894C13.7743 7.6419 13.7467 7.66399 13.6962 7.70136C13.6461 7.73852 13.5864 7.7812 13.5076 7.83745L14.0889 8.65118L14.6701 9.46492C14.8087 9.36593 14.9677 9.25343 15.0937 9.14505C15.2231 9.03377 15.4176 8.84543 15.5331 8.55649L14.6045 8.18536ZM14.0889 8.65118L13.5077 7.83741L8.68347 11.2827L9.26465 12.0965L9.84582 12.9103L14.67 9.46496L14.0889 8.65118ZM9.26465 12.0965L8.68341 11.2828C8.57916 11.3572 8.49725 11.4157 8.42632 11.4646C8.35484 11.5139 8.30908 11.5432 8.27871 11.561C8.24685 11.5796 8.25363 11.5726 8.28707 11.5608C8.32508 11.5475 8.40712 11.5247 8.5185 11.5288L8.48145 12.5281L8.44439 13.5275C8.82627 13.5416 9.12777 13.3814 9.28872 13.2872C9.46092 13.1865 9.65794 13.0445 9.84589 12.9102L9.26465 12.0965ZM8.48145 12.5281L8.51855 11.5288C8.6686 11.5344 8.80637 11.6066 8.89601 11.7226L8.10449 12.3338L7.31298 12.945C7.58401 13.296 7.99768 13.5109 8.44434 13.5274L8.48145 12.5281ZM8.10449 12.3338L8.89613 11.7228C8.96403 11.8108 8.9931 11.8905 9.00431 11.929C9.01418 11.9629 9.01235 11.9724 9.00898 11.9357C9.00576 11.9007 9.00302 11.8464 9.00153 11.7597C9.00005 11.6737 9 11.5731 9 11.4451H8H7C7 11.6767 6.99907 11.9196 7.01738 12.1188C7.03448 12.3048 7.07974 12.6428 7.31286 12.9448L8.10449 12.3338ZM8 11.4451H9V10.8563H8H7V11.4451H8ZM8 10.8563L7.41855 10.0427L5.68319 11.2829L6.26465 12.0965L6.8461 12.9101L8.58145 11.6698L8 10.8563ZM6.26465 12.0965L5.68341 11.2828C5.57916 11.3572 5.49725 11.4157 5.42632 11.4646C5.35484 11.5139 5.30908 11.5432 5.27871 11.561C5.24685 11.5796 5.25363 11.5726 5.28707 11.5608C5.32508 11.5475 5.40712 11.5247 5.5185 11.5288L5.48145 12.5281L5.44439 13.5275C5.82627 13.5416 6.12777 13.3814 6.28872 13.2872C6.46092 13.1865 6.65794 13.0445 6.84589 12.9102L6.26465 12.0965ZM5.48145 12.5281L5.51855 11.5288C5.6686 11.5344 5.80637 11.6066 5.89601 11.7226L5.10449 12.3338L4.31298 12.945C4.58401 13.296 4.99768 13.5109 5.44434 13.5274L5.48145 12.5281ZM5.10449 12.3338L5.89613 11.7228C5.96403 11.8108 5.9931 11.8905 6.00431 11.929C6.01418 11.9629 6.01235 11.9724 6.00898 11.9357C6.00576 11.9007 6.00302 11.8464 6.00153 11.7597C6.00005 11.6737 6 11.5731 6 11.4451H5H4C4 11.6767 3.99907 11.9196 4.01738 12.1188C4.03448 12.3048 4.07974 12.6428 4.31286 12.9448L5.10449 12.3338ZM5 11.4451H6V10.8563H5H4V11.4451H5ZM5 10.8563L4.41855 10.0427L2.68319 11.2829L3.26465 12.0965L3.8461 12.9101L5.58145 11.6698L5 10.8563ZM3.26465 12.0965L2.68341 11.2828C2.57916 11.3572 2.49725 11.4157 2.42632 11.4646C2.35484 11.5139 2.30908 11.5432 2.27871 11.561C2.24685 11.5796 2.25363 11.5726 2.28707 11.5608C2.32508 11.5475 2.40712 11.5247 2.5185 11.5288L2.48145 12.5281L2.44439 13.5275C2.82627 13.5416 3.12777 13.3814 3.28872 13.2872C3.46092 13.1865 3.65794 13.0445 3.84589 12.9102L3.26465 12.0965ZM2.48145 12.5281L2.51855 11.5288C2.6686 11.5344 2.80637 11.6066 2.89601 11.7226L2.10449 12.3338L1.31298 12.945C1.58401 13.296 1.99768 13.5109 2.44434 13.5274L2.48145 12.5281ZM2.10449 12.3338L2.89613 11.7228C2.96403 11.8108 2.9931 11.8905 3.00431 11.929C3.01418 11.9629 3.01235 11.9724 3.00898 11.9357C3.00576 11.9007 3.00302 11.8464 3.00153 11.7597C3.00005 11.6737 3 11.5731 3 11.4451H2H1C1 11.6767 0.999073 11.9196 1.01738 12.1188C1.03448 12.3048 1.07974 12.6428 1.31286 12.9448L2.10449 12.3338ZM2 11.4451H3V4.5545H2H1V11.4451H2ZM2 4.5545H3C3 4.42657 3.00005 4.32593 3.00153 4.23994C3.00302 4.15326 3.00576 4.09897 3.00898 4.06398C3.01236 4.02726 3.01419 4.03677 3.00432 4.07064C2.99312 4.10911 2.96404 4.18883 2.89613 4.27683L2.10449 3.66583L1.31286 3.05484C1.07973 3.35689 1.03448 3.69483 1.01738 3.88089C0.999074 4.08001 1 4.32294 1 4.5545H2ZM2.10449 3.66583L2.89563 4.27747C2.80642 4.39287 2.66917 4.46522 2.51852 4.47081L2.48145 3.4715L2.44437 2.47218C1.9973 2.48877 1.58398 2.70415 1.31336 3.05419L2.10449 3.66583ZM2.48145 3.4715L2.5185 4.47081C2.40703 4.47494 2.32496 4.45212 2.28701 4.4388C2.25361 4.42707 2.24687 4.42 2.27875 4.43866C2.30914 4.45644 2.35491 4.48581 2.42638 4.53508C2.4973 4.58396 2.5792 4.64243 2.68341 4.71687L3.26465 3.90314L3.84589 3.0894C3.65798 2.95518 3.46097 2.81318 3.28875 2.71242C3.1279 2.61831 2.82632 2.45802 2.44439 2.47218L2.48145 3.4715ZM3.26465 3.90314L2.6835 4.71693L4.41885 5.95619L5 5.1424L5.58115 4.3286L3.8458 3.08934L3.26465 3.90314ZM5 5.1424H6V4.5545H5H4V5.1424H5ZM5 4.5545H6C6 4.42657 6.00005 4.32593 6.00153 4.23994C6.00302 4.15326 6.00576 4.09897 6.00898 4.06398C6.01236 4.02726 6.01419 4.03677 6.00432 4.07064C5.99312 4.10911 5.96404 4.18883 5.89613 4.27683L5.10449 3.66583L4.31286 3.05484C4.07973 3.35689 4.03448 3.69483 4.01738 3.88089C3.99907 4.08001 4 4.32294 4 4.5545H5ZM5.10449 3.66583L5.89563 4.27747C5.80642 4.39287 5.66917 4.46522 5.51852 4.47081L5.48145 3.4715L5.44437 2.47218C4.9973 2.48877 4.58398 2.70415 4.31336 3.05419L5.10449 3.66583ZM5.48145 3.4715L5.5185 4.47081C5.40703 4.47494 5.32496 4.45212 5.28701 4.4388C5.25361 4.42707 5.24687 4.42 5.27875 4.43866C5.30914 4.45644 5.35491 4.48581 5.42638 4.53508C5.4973 4.58396 5.5792 4.64243 5.68341 4.71687L6.26465 3.90314L6.84589 3.0894C6.65798 2.95518 6.46097 2.81318 6.28875 2.71242C6.1279 2.61831 5.82632 2.45802 5.44439 2.47218L5.48145 3.4715ZM6.26465 3.90314L5.6835 4.71693L7.41885 5.95619L8 5.1424L8.58115 4.3286L6.8458 3.08934L6.26465 3.90314ZM8 5.1424H9V4.5545H8H7V5.1424H8ZM8 4.5545H9C9 4.42657 9.00005 4.32593 9.00153 4.23994C9.00302 4.15326 9.00576 4.09897 9.00898 4.06398C9.01236 4.02726 9.01419 4.03677 9.00432 4.07064C8.99312 4.10911 8.96404 4.18883 8.89613 4.27683L8.10449 3.66583L7.31286 3.05484C7.07973 3.35689 7.03448 3.69483 7.01738 3.88089C6.99907 4.08001 7 4.32294 7 4.5545H8ZM8.10449 3.66583L8.89563 4.27747C8.80642 4.39287 8.66917 4.46522 8.51852 4.47081L8.48145 3.4715L8.44437 2.47218C7.9973 2.48877 7.58398 2.70415 7.31336 3.05419L8.10449 3.66583Z" fill="#E6E6E6" mask="url(#path-1-outside-1_1109_1405)"/><path d="M8 4.55455V11.4454C8 11.9478 8 12.1989 8.10418 12.3339C8.19489 12.4514 8.33312 12.5226 8.48147 12.5281C8.65187 12.5344 8.85624 12.3884 9.26499 12.0964L14.0886 8.65099C14.396 8.43144 14.5497 8.32167 14.6041 8.18556C14.6517 8.06643 14.6517 7.93357 14.6041 7.81444C14.5497 7.67833 14.396 7.56856 14.0886 7.34901L9.26499 3.90356C8.85624 3.6116 8.65187 3.46562 8.48147 3.47194C8.33312 3.47744 8.19489 3.54858 8.10418 3.6661C8 3.80108 8 4.05224 8 4.55455Z" fill="#4FA8FB"/><path d="M5 4.55455V11.4454C5 11.9478 5 12.1989 5.10418 12.3339C5.19489 12.4514 5.33312 12.5226 5.48147 12.5281C5.65187 12.5344 5.85624 12.3884 6.26499 12.0964L11.0886 8.65099C11.396 8.43144 11.5497 8.32167 11.6041 8.18556C11.6517 8.06643 11.6517 7.93357 11.6041 7.81444C11.5497 7.67833 11.396 7.56856 11.0886 7.34901L6.26499 3.90356C5.85624 3.6116 5.65187 3.46562 5.48147 3.47194C5.33312 3.47744 5.19489 3.54858 5.10418 3.6661C5 3.80108 5 4.05224 5 4.55455Z" fill="#2D52D2"/><path d="M2 4.55455V11.4454C2 11.9478 2 12.1989 2.10418 12.3339C2.19489 12.4514 2.33312 12.5226 2.48147 12.5281C2.65187 12.5344 2.85624 12.3884 3.26499 12.0964L8.08862 8.65099C8.39598 8.43144 8.54966 8.32167 8.60406 8.18556C8.65167 8.06643 8.65167 7.93357 8.60406 7.81444C8.54966 7.67833 8.39598 7.56856 8.08862 7.34901L3.26499 3.90356C2.85624 3.6116 2.65187 3.46562 2.48147 3.47194C2.33312 3.47744 2.19489 3.54858 2.10418 3.6661C2 3.80108 2 4.05224 2 4.55455Z" fill="#001E55"/></svg>