<svg width="16" height="16" viewBox="0 0 16 16" fill="none" xmlns="http://www.w3.org/2000/svg">
<g clip-path="url(#clip0_18_1591)">
<mask id="path-1-outside-1_18_1591" maskUnits="userSpaceOnUse" x="0.25" y="0.275116" width="16" height="16" fill="black">
<rect fill="white" x="0.25" y="0.275116" width="16" height="16"/>
<path d="M9.21973 2.21945C10.4791 0.960237 12.5209 0.960236 13.7803 2.21945C15.0396 3.4788 15.0395 5.5206 13.7803 6.78L7.05176 13.5085C6.45663 14.2636 5.536 14.7497 4.5 14.7497C2.70507 14.7497 1.25 13.2947 1.25 11.4997C1.25008 10.4641 1.73562 9.54306 2.49023 8.94797L9.21973 2.21945Z"/>
</mask>
<path d="M9.21973 2.21945C10.4791 0.960237 12.5209 0.960236 13.7803 2.21945C15.0396 3.4788 15.0395 5.5206 13.7803 6.78L7.05176 13.5085C6.45663 14.2636 5.536 14.7497 4.5 14.7497C2.70507 14.7497 1.25 13.2947 1.25 11.4997C1.25008 10.4641 1.73562 9.54306 2.49023 8.94797L9.21973 2.21945Z" fill="#E6E6E6"/>
<path d="M9.21973 2.21945L9.92678 2.92661L9.92679 2.9266L9.21973 2.21945ZM13.7803 2.21945L14.4874 1.51235L14.4873 1.51231L13.7803 2.21945ZM13.7803 6.78L14.4874 7.48711L14.4874 7.48707L13.7803 6.78ZM7.05176 13.5085L6.34465 12.8014L6.30292 12.8431L6.26639 12.8895L7.05176 13.5085ZM1.25 11.4997L0.25 11.4996V11.4997H1.25ZM2.49023 8.94797L3.10946 9.73318L3.15567 9.69674L3.19729 9.65513L2.49023 8.94797ZM9.21973 2.21945L9.92679 2.9266C10.7956 2.05785 12.2044 2.05785 13.0732 2.9266L13.7803 2.21945L14.4873 1.51231C12.8375 -0.137381 10.1625 -0.137381 8.51266 1.51231L9.21973 2.21945ZM13.7803 2.21945L13.0732 2.92656C13.9419 3.79534 13.942 5.204 13.0731 6.07293L13.7803 6.78L14.4874 7.48707C16.1371 5.83719 16.1373 3.16226 14.4874 1.51235L13.7803 2.21945ZM13.7803 6.78L13.0732 6.07289L6.34465 12.8014L7.05176 13.5085L7.75886 14.2156L14.4874 7.48711L13.7803 6.78ZM7.05176 13.5085L6.26639 12.8895C5.85165 13.4157 5.21505 13.7497 4.5 13.7497V14.7497V15.7497C5.85694 15.7497 7.06162 15.1114 7.83713 14.1275L7.05176 13.5085ZM4.5 14.7497V13.7497C3.25736 13.7497 2.25 12.7424 2.25 11.4997H1.25H0.25C0.25 13.8469 2.15279 15.7497 4.5 15.7497V14.7497ZM1.25 11.4997L2.25 11.4998C2.25006 10.7845 2.58396 10.1476 3.10946 9.73318L2.49023 8.94797L1.87101 8.16275C0.887275 8.93853 0.250108 10.1437 0.25 11.4996L1.25 11.4997ZM2.49023 8.94797L3.19729 9.65513L9.92678 2.92661L9.21973 2.21945L8.51267 1.51229L1.78318 8.24081L2.49023 8.94797Z" fill="#E6E6E6" mask="url(#path-1-outside-1_18_1591)"/>
<path d="M9.75 2.75L3 9.5L2.75 9.75C1.7835 10.7165 1.7835 12.2835 2.75 13.25C3.7165 14.2165 5.2835 14.2165 6.25 13.25L13.25 6.25C14.2165 5.2835 14.2165 3.7165 13.25 2.75C12.2835 1.7835 10.7165 1.7835 9.75 2.75Z" fill="#999999" stroke="#999999" stroke-linecap="round" stroke-linejoin="round"/>
<path d="M14.4662 4.32666C14.5135 5.14457 14.2285 5.97811 13.6039 6.60303L7.03355 13.1724C6.9865 12.3548 7.27225 11.5216 7.89683 10.897L14.4662 4.32666Z" fill="#B1B1B1"/>
<circle cx="4.5" cy="11.5" r="2.5" fill="#666666" stroke="#333333" stroke-linecap="round" stroke-linejoin="round"/>
</g>
<defs>
<clipPath id="clip0_18_1591">
<rect width="16" height="16" fill="white"/>
</clipPath>
</defs>
</svg>
