<svg width="16" height="16" viewBox="0 0 16 16" fill="none" xmlns="http://www.w3.org/2000/svg">
<mask id="path-1-outside-1_1_9042" maskUnits="userSpaceOnUse" x="2" y="2" width="12" height="12" fill="black">
<rect fill="white" x="2" y="2" width="12" height="12"/>
<path d="M4 11C4.55228 11 5 11.4477 5 12C5 12.5523 4.55228 13 4 13C3.44772 13 3 12.5523 3 12C3 11.4477 3.44772 11 4 11ZM8 11C8.55228 11 9 11.4477 9 12C9 12.5523 8.55228 13 8 13C7.44772 13 7 12.5523 7 12C7 11.4477 7.44772 11 8 11ZM12 11C12.5523 11 13 11.4477 13 12C13 12.5523 12.5523 13 12 13C11.4477 13 11 12.5523 11 12C11 11.4477 11.4477 11 12 11ZM4 7C4.55228 7 5 7.44772 5 8C5 8.55228 4.55228 9 4 9C3.44772 9 3 8.55228 3 8C3 7.44772 3.44772 7 4 7ZM8 7C8.55228 7 9 7.44772 9 8C9 8.55228 8.55228 9 8 9C7.44772 9 7 8.55228 7 8C7 7.44772 7.44772 7 8 7ZM12 7C12.5523 7 13 7.44772 13 8C13 8.55228 12.5523 9 12 9C11.4477 9 11 8.55228 11 8C11 7.44772 11.4477 7 12 7ZM4 3C4.55228 3 5 3.44772 5 4C5 4.55228 4.55228 5 4 5C3.44772 5 3 4.55228 3 4C3 3.44772 3.44772 3 4 3ZM8 3C8.55228 3 9 3.44772 9 4C9 4.55228 8.55228 5 8 5C7.44772 5 7 4.55228 7 4C7 3.44772 7.44772 3 8 3ZM12 3C12.5523 3 13 3.44772 13 4C13 4.55228 12.5523 5 12 5C11.4477 5 11 4.55228 11 4C11 3.44772 11.4477 3 12 3Z"/>
</mask>
<path d="M4 11C4.55228 11 5 11.4477 5 12C5 12.5523 4.55228 13 4 13C3.44772 13 3 12.5523 3 12C3 11.4477 3.44772 11 4 11ZM8 11C8.55228 11 9 11.4477 9 12C9 12.5523 8.55228 13 8 13C7.44772 13 7 12.5523 7 12C7 11.4477 7.44772 11 8 11ZM12 11C12.5523 11 13 11.4477 13 12C13 12.5523 12.5523 13 12 13C11.4477 13 11 12.5523 11 12C11 11.4477 11.4477 11 12 11ZM4 7C4.55228 7 5 7.44772 5 8C5 8.55228 4.55228 9 4 9C3.44772 9 3 8.55228 3 8C3 7.44772 3.44772 7 4 7ZM8 7C8.55228 7 9 7.44772 9 8C9 8.55228 8.55228 9 8 9C7.44772 9 7 8.55228 7 8C7 7.44772 7.44772 7 8 7ZM12 7C12.5523 7 13 7.44772 13 8C13 8.55228 12.5523 9 12 9C11.4477 9 11 8.55228 11 8C11 7.44772 11.4477 7 12 7ZM4 3C4.55228 3 5 3.44772 5 4C5 4.55228 4.55228 5 4 5C3.44772 5 3 4.55228 3 4C3 3.44772 3.44772 3 4 3ZM8 3C8.55228 3 9 3.44772 9 4C9 4.55228 8.55228 5 8 5C7.44772 5 7 4.55228 7 4C7 3.44772 7.44772 3 8 3ZM12 3C12.5523 3 13 3.44772 13 4C13 4.55228 12.5523 5 12 5C11.4477 5 11 4.55228 11 4C11 3.44772 11.4477 3 12 3Z" fill="#E6E6E6"/>
<path d="M4 11V12H5H6C6 10.8954 5.10457 10 4 10V11ZM5 12H4V13V14C5.10457 14 6 13.1046 6 12H5ZM4 13V12H3H2C2 13.1046 2.89543 14 4 14V13ZM3 12H4V11V10C2.89543 10 2 10.8954 2 12H3ZM8 11V12H9H10C10 10.8954 9.10457 10 8 10V11ZM9 12H8V13V14C9.10457 14 10 13.1046 10 12H9ZM8 13V12H7H6C6 13.1046 6.89543 14 8 14V13ZM7 12H8V11V10C6.89543 10 6 10.8954 6 12H7ZM12 11V12H13H14C14 10.8954 13.1046 10 12 10V11ZM13 12H12V13V14C13.1046 14 14 13.1046 14 12H13ZM12 13V12H11H10C10 13.1046 10.8954 14 12 14V13ZM11 12H12V11V10C10.8954 10 10 10.8954 10 12H11ZM4 7V8H5H6C6 6.89543 5.10457 6 4 6V7ZM5 8H4V9V10C5.10457 10 6 9.10457 6 8H5ZM4 9V8H3H2C2 9.10457 2.89543 10 4 10V9ZM3 8H4V7V6C2.89543 6 2 6.89543 2 8H3ZM8 7V8H9H10C10 6.89543 9.10457 6 8 6V7ZM9 8H8V9V10C9.10457 10 10 9.10457 10 8H9ZM8 9V8H7H6C6 9.10457 6.89543 10 8 10V9ZM7 8H8V7V6C6.89543 6 6 6.89543 6 8H7ZM12 7V8H13H14C14 6.89543 13.1046 6 12 6V7ZM13 8H12V9V10C13.1046 10 14 9.10457 14 8H13ZM12 9V8H11H10C10 9.10457 10.8954 10 12 10V9ZM11 8H12V7V6C10.8954 6 10 6.89543 10 8H11ZM4 3V4H5H6C6 2.89543 5.10457 2 4 2V3ZM5 4H4V5V6C5.10457 6 6 5.10457 6 4H5ZM4 5V4H3H2C2 5.10457 2.89543 6 4 6V5ZM3 4H4V3V2C2.89543 2 2 2.89543 2 4H3ZM8 3V4H9H10C10 2.89543 9.10457 2 8 2V3ZM9 4H8V5V6C9.10457 6 10 5.10457 10 4H9ZM8 5V4H7H6C6 5.10457 6.89543 6 8 6V5ZM7 4H8V3V2C6.89543 2 6 2.89543 6 4H7ZM12 3V4H13H14C14 2.89543 13.1046 2 12 2V3ZM13 4H12V5V6C13.1046 6 14 5.10457 14 4H13ZM12 5V4H11H10C10 5.10457 10.8954 6 12 6V5ZM11 4H12V3V2C10.8954 2 10 2.89543 10 4H11Z" fill="#E6E6E6" mask="url(#path-1-outside-1_1_9042)"/>
<mask id="path-3-outside-2_1_9042" maskUnits="userSpaceOnUse" x="2" y="2" width="12" height="12" fill="black">
<rect fill="white" x="2" y="2" width="12" height="12"/>
<path d="M4 11C4.55228 11 5 11.4477 5 12C5 12.5523 4.55228 13 4 13C3.44772 13 3 12.5523 3 12C3 11.4477 3.44772 11 4 11ZM8 11C8.55228 11 9 11.4477 9 12C9 12.5523 8.55228 13 8 13C7.44772 13 7 12.5523 7 12C7 11.4477 7.44772 11 8 11ZM12 11C12.5523 11 13 11.4477 13 12C13 12.5523 12.5523 13 12 13C11.4477 13 11 12.5523 11 12C11 11.4477 11.4477 11 12 11ZM4 7C4.55228 7 5 7.44772 5 8C5 8.55228 4.55228 9 4 9C3.44772 9 3 8.55228 3 8C3 7.44772 3.44772 7 4 7ZM8 7C8.55228 7 9 7.44772 9 8C9 8.55228 8.55228 9 8 9C7.44772 9 7 8.55228 7 8C7 7.44772 7.44772 7 8 7ZM12 7C12.5523 7 13 7.44772 13 8C13 8.55228 12.5523 9 12 9C11.4477 9 11 8.55228 11 8C11 7.44772 11.4477 7 12 7ZM4 3C4.55228 3 5 3.44772 5 4C5 4.55228 4.55228 5 4 5C3.44772 5 3 4.55228 3 4C3 3.44772 3.44772 3 4 3ZM8 3C8.55228 3 9 3.44772 9 4C9 4.55228 8.55228 5 8 5C7.44772 5 7 4.55228 7 4C7 3.44772 7.44772 3 8 3ZM12 3C12.5523 3 13 3.44772 13 4C13 4.55228 12.5523 5 12 5C11.4477 5 11 4.55228 11 4C11 3.44772 11.4477 3 12 3Z"/>
</mask>
<path d="M4 11C4.55228 11 5 11.4477 5 12C5 12.5523 4.55228 13 4 13C3.44772 13 3 12.5523 3 12C3 11.4477 3.44772 11 4 11ZM8 11C8.55228 11 9 11.4477 9 12C9 12.5523 8.55228 13 8 13C7.44772 13 7 12.5523 7 12C7 11.4477 7.44772 11 8 11ZM12 11C12.5523 11 13 11.4477 13 12C13 12.5523 12.5523 13 12 13C11.4477 13 11 12.5523 11 12C11 11.4477 11.4477 11 12 11ZM4 7C4.55228 7 5 7.44772 5 8C5 8.55228 4.55228 9 4 9C3.44772 9 3 8.55228 3 8C3 7.44772 3.44772 7 4 7ZM8 7C8.55228 7 9 7.44772 9 8C9 8.55228 8.55228 9 8 9C7.44772 9 7 8.55228 7 8C7 7.44772 7.44772 7 8 7ZM12 7C12.5523 7 13 7.44772 13 8C13 8.55228 12.5523 9 12 9C11.4477 9 11 8.55228 11 8C11 7.44772 11.4477 7 12 7ZM4 3C4.55228 3 5 3.44772 5 4C5 4.55228 4.55228 5 4 5C3.44772 5 3 4.55228 3 4C3 3.44772 3.44772 3 4 3ZM8 3C8.55228 3 9 3.44772 9 4C9 4.55228 8.55228 5 8 5C7.44772 5 7 4.55228 7 4C7 3.44772 7.44772 3 8 3ZM12 3C12.5523 3 13 3.44772 13 4C13 4.55228 12.5523 5 12 5C11.4477 5 11 4.55228 11 4C11 3.44772 11.4477 3 12 3Z" fill="#333333"/>
<path d="M4 11V12H5H6C6 10.8954 5.10457 10 4 10V11ZM5 12H4V13V14C5.10457 14 6 13.1046 6 12H5ZM4 13V12H3H2C2 13.1046 2.89543 14 4 14V13ZM3 12H4V11V10C2.89543 10 2 10.8954 2 12H3ZM8 11V12H9H10C10 10.8954 9.10457 10 8 10V11ZM9 12H8V13V14C9.10457 14 10 13.1046 10 12H9ZM8 13V12H7H6C6 13.1046 6.89543 14 8 14V13ZM7 12H8V11V10C6.89543 10 6 10.8954 6 12H7ZM12 11V12H13H14C14 10.8954 13.1046 10 12 10V11ZM13 12H12V13V14C13.1046 14 14 13.1046 14 12H13ZM12 13V12H11H10C10 13.1046 10.8954 14 12 14V13ZM11 12H12V11V10C10.8954 10 10 10.8954 10 12H11ZM4 7V8H5H6C6 6.89543 5.10457 6 4 6V7ZM5 8H4V9V10C5.10457 10 6 9.10457 6 8H5ZM4 9V8H3H2C2 9.10457 2.89543 10 4 10V9ZM3 8H4V7V6C2.89543 6 2 6.89543 2 8H3ZM8 7V8H9H10C10 6.89543 9.10457 6 8 6V7ZM9 8H8V9V10C9.10457 10 10 9.10457 10 8H9ZM8 9V8H7H6C6 9.10457 6.89543 10 8 10V9ZM7 8H8V7V6C6.89543 6 6 6.89543 6 8H7ZM12 7V8H13H14C14 6.89543 13.1046 6 12 6V7ZM13 8H12V9V10C13.1046 10 14 9.10457 14 8H13ZM12 9V8H11H10C10 9.10457 10.8954 10 12 10V9ZM11 8H12V7V6C10.8954 6 10 6.89543 10 8H11ZM4 3V4H5H6C6 2.89543 5.10457 2 4 2V3ZM5 4H4V5V6C5.10457 6 6 5.10457 6 4H5ZM4 5V4H3H2C2 5.10457 2.89543 6 4 6V5ZM3 4H4V3V2C2.89543 2 2 2.89543 2 4H3ZM8 3V4H9H10C10 2.89543 9.10457 2 8 2V3ZM9 4H8V5V6C9.10457 6 10 5.10457 10 4H9ZM8 5V4H7H6C6 5.10457 6.89543 6 8 6V5ZM7 4H8V3V2C6.89543 2 6 2.89543 6 4H7ZM12 3V4H13H14C14 2.89543 13.1046 2 12 2V3ZM13 4H12V5V6C13.1046 6 14 5.10457 14 4H13ZM12 5V4H11H10C10 5.10457 10.8954 6 12 6V5ZM11 4H12V3V2C10.8954 2 10 2.89543 10 4H11Z" fill="#E6E6E6" mask="url(#path-3-outside-2_1_9042)"/>
</svg>
