<svg width="16" height="16" viewBox="0 0 16 16" fill="none" xmlns="http://www.w3.org/2000/svg">
<path d="M13.0005 1.49951C13.8287 1.49982 14.4996 2.17221 14.4995 3.00049V12.9995C14.4995 13.8279 13.8279 14.4995 12.9995 14.4995H2.99951C2.17109 14.4995 1.49951 13.8279 1.49951 12.9995V2.99951C1.49951 2.17109 2.17109 1.49952 2.99951 1.49951H13.0005Z" stroke="#E6E6E6"/>
<path d="M2.00001 3.6L2 7.99945L7.99945 7.99945L7.99946 2H3.60001C3.03996 2 2.75993 2 2.54602 2.10899C2.35786 2.20487 2.20488 2.35785 2.109 2.54601C2.00001 2.75992 2.00001 3.03995 2.00001 3.6Z" fill="#001E55"/>
<path d="M8.00053 2L8.00052 7.99945L14 7.99945L14 3.60001C14 3.03995 14 2.75993 13.891 2.54601C13.7951 2.35785 13.6421 2.20487 13.454 2.10899C13.2401 2 12.96 2 12.4 2H8.00053Z" fill="#A4E5FF"/>
<path d="M2.00001 8.00052L2 12.4L2 12.4C2 12.96 2 13.2401 2.10899 13.454C2.20487 13.6421 2.35785 13.7951 2.54601 13.891C2.75992 14 3.03995 14 3.6 14L7.99945 14L7.99946 8.00052H2.00001Z" fill="#3B6DE6"/>
<path d="M12.3989 13.9989H10.9992L10.9992 10.9992H13.9989V12.3989C13.9989 12.959 13.9989 13.239 13.8899 13.4529C13.794 13.6411 13.6411 13.794 13.4529 13.8899C13.239 13.9989 12.959 13.9989 12.3989 13.9989Z" fill="#10288C"/>
<path d="M7.99942 7.99948H10.9992L10.9991 10.9992L7.99942 10.9992V7.99948Z" fill="#468AF3"/>
<path d="M7.99945 13.9989L7.99945 10.9992L10.9992 10.9992L10.9992 13.9989L7.99945 13.9989Z" fill="#A4E5FF"/>
<path d="M13.9989 7.99942L13.9989 10.9992L10.9992 10.9991L10.9992 7.99942L13.9989 7.99942Z" fill="#55C7FF"/>
</svg>
