<svg width="16" height="16" viewBox="0 0 16 16" fill="none" xmlns="http://www.w3.org/2000/svg">
<path d="M6.79285 2.4989C7.39235 1.68633 8.60735 1.6864 9.20691 2.4989C9.30658 2.63402 9.40268 2.84808 9.52527 3.11414C9.59659 3.26892 9.61243 3.30193 9.62585 3.32312C9.73881 3.50119 9.95131 3.58885 10.1571 3.54285C10.1816 3.53737 10.2168 3.52576 10.3768 3.46667C10.6514 3.36534 10.8701 3.28179 11.036 3.25671C12.0346 3.10593 12.8938 3.96512 12.743 4.96375C12.718 5.12977 12.6345 5.34908 12.5331 5.6239C12.4741 5.78358 12.4624 5.81819 12.4569 5.84265C12.4109 6.0484 12.4987 6.26089 12.6766 6.3739C12.6978 6.38734 12.7306 6.40405 12.8856 6.47546C13.1516 6.59803 13.3657 6.6932 13.5009 6.79285C14.3136 7.39236 14.3136 8.60736 13.5009 9.20691C13.3657 9.30658 13.1517 9.40267 12.8856 9.52527C12.7308 9.59661 12.6978 9.61242 12.6766 9.62585C12.4986 9.73882 12.4109 9.95136 12.4569 10.1571C12.4624 10.1816 12.474 10.2167 12.5331 10.3768C12.6344 10.6514 12.718 10.8701 12.743 11.036C12.8938 12.0347 12.0347 12.8938 11.036 12.743C10.8701 12.718 10.6514 12.6344 10.3768 12.5331C10.2167 12.474 10.1816 12.4624 10.1571 12.4569C9.95136 12.4109 9.73882 12.4986 9.62585 12.6766C9.61242 12.6978 9.5966 12.7308 9.52527 12.8856C9.40267 13.1517 9.30658 13.3657 9.20691 13.5009C8.60736 14.3136 7.39236 14.3136 6.79285 13.5009C6.6932 13.3658 6.59802 13.1516 6.47546 12.8856C6.40406 12.7307 6.38734 12.6978 6.3739 12.6766C6.26089 12.4987 6.0484 12.4109 5.84265 12.4569C5.81819 12.4624 5.78358 12.4741 5.6239 12.5331C5.34908 12.6345 5.12977 12.718 4.96375 12.743C3.96512 12.8938 3.10593 12.0346 3.25671 11.036C3.28179 10.8701 3.36534 10.6513 3.46667 10.3768C3.52576 10.2168 3.53737 10.1816 3.54285 10.1571C3.58885 9.95131 3.50119 9.73881 3.32312 9.62585C3.30193 9.61243 3.26892 9.59659 3.11414 9.52527C2.84808 9.40268 2.63402 9.30658 2.4989 9.20691C1.6864 8.60735 1.68633 7.39235 2.4989 6.79285C2.63397 6.69321 2.84822 6.59799 3.11414 6.47546C3.26911 6.40405 3.30194 6.38734 3.32312 6.3739C3.5012 6.26092 3.58889 6.04846 3.54285 5.84265C3.53736 5.81819 3.5256 5.78354 3.46667 5.6239C3.36523 5.34908 3.28178 5.12977 3.25671 4.96375C3.10601 3.96517 3.96517 3.10601 4.96375 3.25671C5.12977 3.28178 5.34908 3.36523 5.6239 3.46667C5.78354 3.5256 5.81819 3.53736 5.84265 3.54285C6.04846 3.58889 6.26092 3.5012 6.3739 3.32312C6.38734 3.30194 6.40405 3.26912 6.47546 3.11414C6.59799 2.84821 6.69321 2.63397 6.79285 2.4989ZM7.99988 6.49988C7.17156 6.49995 6.49995 7.17156 6.49988 7.99988C6.49988 8.82826 7.17151 9.49981 7.99988 9.49988C8.8283 9.49988 9.49988 8.8283 9.49988 7.99988C9.49981 7.17151 8.82826 6.49988 7.99988 6.49988Z" fill="#999999" stroke="#E6E6E6"/>
</svg>
