<svg width="16" height="16" viewBox="0 0 16 16" fill="none" xmlns="http://www.w3.org/2000/svg">
<path d="M6.99908 4.2507C7.37807 3.74354 8.08756 3.59486 8.64264 3.92746L13.6426 6.92746C14.1246 7.21664 14.3541 7.79244 14.2042 8.33371C14.0542 8.87497 13.5619 9.2497 13.0001 9.24973H7.51276L8.64264 9.92746C9.19724 10.2602 9.402 10.9564 9.13287 11.53L9.07233 11.6433C8.71734 12.2347 7.94957 12.4269 7.35748 12.072L2.35748 9.07199C1.87558 8.78285 1.64617 8.20791 1.79596 7.66672C1.94593 7.12545 2.43809 6.74973 3.00006 6.74973H8.48737L7.35748 6.07199C6.76592 5.71705 6.57285 4.94931 6.9278 4.35715L6.99908 4.2507Z" stroke="#E6E6E6"/>
<path d="M8 11L3 8.00003H13L8 5" stroke="#1F3AB5" stroke-width="1.5" stroke-linecap="round" stroke-linejoin="round"/>
</svg>
