<svg width="16" height="16" viewBox="0 0 16 16" fill="none" xmlns="http://www.w3.org/2000/svg">
<path d="M11 1.75C11.7042 1.75 12.404 1.88998 12.9736 2.1748L13.1689 2.28223C13.6477 2.56969 14.25 3.11811 14.25 4C14.25 4.88189 13.6477 5.43031 13.1689 5.71777L12.9736 5.8252C12.404 6.11002 11.7042 6.25 11 6.25C10.7932 6.25 10.5892 6.23289 10.3896 6.20898L7.71582 7.66797C7.73583 7.7739 7.75 7.88422 7.75 8C7.75 8.11554 7.73577 8.22552 7.71582 8.33105L10.5 9.84961C10.821 9.78436 11.1585 9.75 11.5 9.75C12.2042 9.75 12.904 9.88998 13.4736 10.1748L13.6689 10.2822C14.1477 10.5697 14.75 11.1181 14.75 12C14.75 12.8819 14.1477 13.4303 13.6689 13.7178L13.4736 13.8252C12.904 14.11 12.2042 14.25 11.5 14.25C10.8839 14.25 10.2713 14.1424 9.74609 13.9248L9.52637 13.8252C9.03642 13.5801 8.25 13.0077 8.25 12C8.25 11.824 8.27558 11.6596 8.31934 11.5068L5.72754 10.0938C5.33988 10.1942 4.92331 10.25 4.5 10.25C3.88388 10.25 3.27127 10.1424 2.74609 9.9248L2.52637 9.8252C2.03642 9.58014 1.25 9.00772 1.25 8C1.25 6.99228 2.03642 6.41986 2.52637 6.1748L2.74609 6.0752C3.27127 5.8576 3.88388 5.75 4.5 5.75C4.92259 5.75 5.33951 5.80403 5.72754 5.9043L7.90234 4.71875C7.80904 4.50838 7.75 4.26909 7.75 4C7.75 2.99228 8.53642 2.41986 9.02637 2.1748L9.24609 2.0752C9.77127 1.8576 10.3839 1.75 11 1.75Z" stroke="#E6E6E6"/>
<path d="M10 5.00005L4.50004 8.00003L10 11" stroke="#4FA8FB" stroke-width="1.5" stroke-linecap="round" stroke-linejoin="round"/>
<ellipse cx="11.5" cy="12" rx="2" ry="1" fill="#1F3AB5" stroke="#1F3AB5" stroke-width="1.5" stroke-linecap="round" stroke-linejoin="round"/>
<ellipse cx="4.5" cy="8" rx="2" ry="1" fill="#1F3AB5" stroke="#1F3AB5" stroke-width="1.5" stroke-linecap="round" stroke-linejoin="round"/>
<ellipse cx="11" cy="4" rx="2" ry="1" fill="#1F3AB5" stroke="#1F3AB5" stroke-width="1.5" stroke-linecap="round" stroke-linejoin="round"/>
</svg>
