<svg width="16" height="16" viewBox="0 0 16 16" fill="none" xmlns="http://www.w3.org/2000/svg">
<g clip-path="url(#clip0_1_2047)">
<rect width="16" height="16" fill="white"/>
<path d="M0 0H16V16H13C12 16 3 16 3 16H0V0Z" fill="#D7D7D7"/>
<path d="M16.8857 7.25L16.7402 8.12305L16 8C16.6793 8.11322 16.7348 8.12285 16.7393 8.12402V8.12793C16.739 8.12973 16.7387 8.13229 16.7383 8.13477C16.7374 8.13984 16.7358 8.14651 16.7344 8.1543C16.7314 8.17023 16.7272 8.19207 16.7217 8.21875C16.7107 8.27235 16.694 8.34688 16.6709 8.43945C16.6245 8.62502 16.5507 8.88439 16.4395 9.19238C16.2177 9.80653 15.842 10.627 15.2246 11.4502C13.9697 13.1233 11.7548 14.75 8 14.75C4.24522 14.75 2.03031 13.1233 0.775391 11.4502C0.158014 10.627 -0.217658 9.80653 -0.439453 9.19238C-0.550672 8.88439 -0.624506 8.62502 -0.670898 8.43945C-0.694037 8.34688 -0.710657 8.27235 -0.72168 8.21875C-0.727164 8.19207 -0.731417 8.17023 -0.734375 8.1543C-0.735819 8.14651 -0.737388 8.13984 -0.738281 8.13477C-0.738717 8.13229 -0.73895 8.12973 -0.739258 8.12793V8.12402C-0.734788 8.12285 -0.679323 8.11322 0 8L-0.740234 8.12305L-0.885742 7.25H16.8857Z" fill="#468AF3" stroke="white" stroke-width="1.5"/>
<path d="M0 6.25C0.898008 6.25 1.51531 6.92318 1.94141 7.48438C2.17327 7.7898 2.40331 8.1402 2.63086 8.4873C2.86331 8.84189 3.09931 9.20181 3.3584 9.56055C4.38496 10.9819 5.68883 12.25 8 12.25C10.3112 12.25 11.615 10.9819 12.6416 9.56055C12.9007 9.20181 13.1367 8.84189 13.3691 8.4873C13.5967 8.1402 13.8267 7.7898 14.0586 7.48438C14.4847 6.92318 15.102 6.25 16 6.25H16.75V16.75H-0.75V6.25H0Z" fill="#333333" stroke="white" stroke-width="1.5"/>
<path d="M4.58797 5.06C4.3513 5.06 4.13797 5.02333 3.94797 4.95C3.75797 4.87333 3.5963 4.76167 3.46297 4.615C3.32964 4.465 3.2263 4.28 3.15297 4.06C3.07964 3.83667 3.04297 3.57667 3.04297 3.28C3.04297 2.98667 3.07964 2.72667 3.15297 2.5C3.2263 2.27 3.32964 2.07833 3.46297 1.925C3.5963 1.76833 3.75797 1.65 3.94797 1.57C4.13797 1.49 4.3513 1.45 4.58797 1.45C4.9113 1.45 5.17797 1.51667 5.38797 1.65C5.59797 1.78 5.7663 1.98667 5.89297 2.27L5.23797 2.61C5.1913 2.46333 5.11797 2.34667 5.01797 2.26C4.9213 2.17 4.77797 2.125 4.58797 2.125C4.36464 2.125 4.18464 2.19833 4.04797 2.345C3.91464 2.48833 3.84797 2.69833 3.84797 2.975V3.535C3.84797 3.81167 3.91464 4.02333 4.04797 4.17C4.18464 4.31333 4.36464 4.385 4.58797 4.385C4.77464 4.385 4.92297 4.335 5.03297 4.235C5.1463 4.13167 5.22964 4.00833 5.28297 3.865L5.90297 4.225C5.77297 4.49167 5.6013 4.69833 5.38797 4.845C5.17797 4.98833 4.9113 5.06 4.58797 5.06ZM6.9348 5V1.51H9.3098V2.185H7.6948V2.9H9.0798V3.57H7.6948V4.325H9.3098V5H6.9348ZM11.6019 5.06C11.2952 5.06 11.0352 5.00833 10.8219 4.905C10.6086 4.79833 10.4269 4.66167 10.2769 4.495L10.7769 3.99C11.0136 4.25667 11.3052 4.39 11.6519 4.39C11.8386 4.39 11.9769 4.35167 12.0669 4.275C12.1569 4.19833 12.2019 4.09667 12.2019 3.97C12.2019 3.87333 12.1752 3.79333 12.1219 3.73C12.0686 3.66333 11.9602 3.61833 11.7969 3.595L11.4519 3.55C11.0819 3.50333 10.8102 3.39167 10.6369 3.215C10.4669 3.03833 10.3819 2.80333 10.3819 2.51C10.3819 2.35333 10.4119 2.21 10.4719 2.08C10.5319 1.95 10.6169 1.83833 10.7269 1.745C10.8402 1.65167 10.9769 1.58 11.1369 1.53C11.3002 1.47667 11.4852 1.45 11.6919 1.45C11.9552 1.45 12.1869 1.49167 12.3869 1.575C12.5869 1.65833 12.7586 1.78 12.9019 1.94L12.3969 2.45C12.3136 2.35333 12.2119 2.275 12.0919 2.215C11.9752 2.15167 11.8269 2.12 11.6469 2.12C11.4769 2.12 11.3502 2.15 11.2669 2.21C11.1836 2.27 11.1419 2.35333 11.1419 2.46C11.1419 2.58 11.1736 2.66667 11.2369 2.72C11.3036 2.77333 11.4102 2.81167 11.5569 2.835L11.9019 2.89C12.2619 2.94667 12.5286 3.05833 12.7019 3.225C12.8752 3.38833 12.9619 3.62167 12.9619 3.925C12.9619 4.09167 12.9319 4.245 12.8719 4.385C12.8119 4.525 12.7236 4.645 12.6069 4.745C12.4936 4.845 12.3519 4.92333 12.1819 4.98C12.0119 5.03333 11.8186 5.06 11.6019 5.06Z" fill="black"/>
</g>
<defs>
<clipPath id="clip0_1_2047">
<rect width="16" height="16" fill="white"/>
</clipPath>
</defs>
</svg>
