<svg width="16" height="16" viewBox="0 0 16 16" fill="none" xmlns="http://www.w3.org/2000/svg">
<g clip-path="url(#clip0_1_2065)">
<rect width="16" height="16" fill="white"/>
<path d="M0 0H16V16H13C12 16 3 16 3 16H0V0Z" fill="#D7D7D7"/>
<path d="M16.8857 7.25L16.7402 8.12305L16 8C16.6793 8.11322 16.7348 8.12285 16.7393 8.12402V8.12793C16.739 8.12973 16.7387 8.13229 16.7383 8.13477C16.7374 8.13984 16.7358 8.14651 16.7344 8.1543C16.7314 8.17023 16.7272 8.19207 16.7217 8.21875C16.7107 8.27235 16.694 8.34688 16.6709 8.43945C16.6245 8.62502 16.5507 8.88439 16.4395 9.19238C16.2177 9.80653 15.842 10.627 15.2246 11.4502C13.9697 13.1233 11.7548 14.75 8 14.75C4.24522 14.75 2.03031 13.1233 0.775391 11.4502C0.158014 10.627 -0.217658 9.80653 -0.439453 9.19238C-0.550672 8.88439 -0.624506 8.62502 -0.670898 8.43945C-0.694037 8.34688 -0.710657 8.27235 -0.72168 8.21875C-0.727164 8.19207 -0.731417 8.17023 -0.734375 8.1543C-0.735819 8.14651 -0.737388 8.13984 -0.738281 8.13477C-0.738717 8.13229 -0.73895 8.12973 -0.739258 8.12793V8.12402C-0.734788 8.12285 -0.679323 8.11322 0 8L-0.740234 8.12305L-0.885742 7.25H16.8857Z" fill="#468AF3" stroke="white" stroke-width="1.5"/>
<path d="M0 6.25C0.898008 6.25 1.51531 6.92318 1.94141 7.48438C2.17327 7.7898 2.40331 8.1402 2.63086 8.4873C2.86331 8.84189 3.09931 9.20181 3.3584 9.56055C4.38496 10.9819 5.68883 12.25 8 12.25C10.3112 12.25 11.615 10.9819 12.6416 9.56055C12.9007 9.20181 13.1367 8.84189 13.3691 8.4873C13.5967 8.1402 13.8267 7.7898 14.0586 7.48438C14.4847 6.92318 15.102 6.25 16 6.25H16.75V16.75H-0.75V6.25H0Z" fill="#333333" stroke="white" stroke-width="1.5"/>
<path d="M7.39588 2.71H7.38088L7.12588 3.22L6.44588 4.455L5.78088 3.225L5.51588 2.675H5.50088V5H4.78588V1.51H5.59088L6.44588 3.145H6.45588L7.30088 1.51H8.11088V5H7.39588V2.71ZM9.95356 5L9.05356 2.208H9.66956L10.0856 3.548L10.3056 4.424H10.3176L10.5296 3.548L10.9456 2.208H11.5416L10.6336 5H9.95356Z" fill="black"/>
</g>
<defs>
<clipPath id="clip0_1_2065">
<rect width="16" height="16" fill="white"/>
</clipPath>
</defs>
</svg>
