<svg width="16" height="16" viewBox="0 0 16 16" fill="none" xmlns="http://www.w3.org/2000/svg"><path d="M6.5 1.75C8.59685 1.75 10.3751 3.10912 11.0049 4.99414C12.8905 5.62362 14.25 7.40271 14.25 9.5C14.25 12.1234 12.1234 14.25 9.5 14.25C7.40271 14.25 5.62362 12.8905 4.99414 11.0049C3.10912 10.3751 1.75 8.59685 1.75 6.5C1.75 3.87665 3.87665 1.75 6.5 1.75ZM11.2422 6.75684C11.1133 9.17568 9.17568 11.1133 6.75684 11.2422C7.33357 12.1484 8.34625 12.75 9.5 12.75C11.2949 12.75 12.75 11.2949 12.75 9.5C12.75 8.34625 12.1484 7.33357 11.2422 6.75684ZM6.5 3.25C4.70507 3.25 3.25 4.70507 3.25 6.5C3.25 7.65326 3.85126 8.66533 4.75684 9.24219C4.88617 6.82408 6.82408 4.88617 9.24219 4.75684C8.66533 3.85126 7.65326 3.25 6.5 3.25Z" fill="currentColor"/></svg>