<svg width="16" height="16" viewBox="0 0 16 16" fill="none" xmlns="http://www.w3.org/2000/svg"><path d="M11.5264 4.41797C11.8209 4.17766 12.2557 4.19512 12.5303 4.46973L15.5303 7.46973C15.8232 7.76262 15.8232 8.23738 15.5303 8.53027L8.53027 15.5303C8.38962 15.6709 8.19891 15.75 8 15.75H5C4.58579 15.75 4.25 15.4142 4.25 15V12C4.25 11.8011 4.32907 11.6104 4.46973 11.4697L11.4697 4.46973L11.5264 4.41797ZM5.75 12.3105V14.25H7.68945L13.9395 8L12 6.06055L5.75 12.3105ZM2 9.25C2.41421 9.25 2.75 9.58579 2.75 10C2.75 10.4142 2.41421 10.75 2 10.75H1C0.585786 10.75 0.25 10.4142 0.25 10C0.25 9.58579 0.585786 9.25 1 9.25H2ZM5 5.25C5.41421 5.25 5.75 5.58579 5.75 6C5.75 6.41421 5.41421 6.75 5 6.75H1C0.585786 6.75 0.25 6.41421 0.25 6C0.25 5.58579 0.585786 5.25 1 5.25H5ZM9 1.25C9.41421 1.25 9.75 1.58579 9.75 2C9.75 2.41421 9.41421 2.75 9 2.75H1C0.585786 2.75 0.25 2.41421 0.25 2C0.25 1.58579 0.585786 1.25 1 1.25H9Z" fill="currentColor"/></svg>