<svg width="16" height="16" viewBox="0 0 16 16" fill="none" xmlns="http://www.w3.org/2000/svg"><path d="M8 11.25C8.41421 11.25 8.75 11.5858 8.75 12V13C8.75 13.4142 8.41421 13.75 8 13.75C7.58579 13.75 7.25 13.4142 7.25 13V12C7.25 11.5858 7.58579 11.25 8 11.25ZM13 2.25C13.4142 2.25 13.75 2.58579 13.75 3V13C13.75 13.4142 13.4142 13.75 13 13.75C12.5858 13.75 12.25 13.4142 12.25 13V3.75H3C2.58579 3.75 2.25 3.41421 2.25 3C2.25 2.58579 2.58579 2.25 3 2.25H13ZM8 7.25C8.41421 7.25 8.75 7.58579 8.75 8V9C8.75 9.41421 8.41421 9.75 8 9.75C7.58579 9.75 7.25 9.41421 7.25 9V8.75H7C6.58579 8.75 6.25 8.41421 6.25 8C6.25 7.58579 6.58579 7.25 7 7.25H8ZM4 7.25C4.41421 7.25 4.75 7.58579 4.75 8C4.75 8.41421 4.41421 8.75 4 8.75H3C2.58579 8.75 2.25 8.41421 2.25 8C2.25 7.58579 2.58579 7.25 3 7.25H4Z" fill="currentColor"/></svg>