<svg width="16" height="16" viewBox="0 0 16 16" fill="none" xmlns="http://www.w3.org/2000/svg"><path fill-rule="evenodd" clip-rule="evenodd" d="M5.70225 10.2633C5.55681 10.6512 5.1245 10.8477 4.73666 10.7022C4.34882 10.5568 4.15231 10.1245 4.29775 9.73666L5.04775 7.73666L7.29775 1.73666C7.40753 1.44393 7.68737 1.25 8 1.25C8.31263 1.25 8.59247 1.44393 8.70225 1.73666L10.9522 7.73666L11.7022 9.73666C11.8477 10.1245 11.6512 10.5568 11.2633 10.7022C10.8755 10.8477 10.4432 10.6512 10.2978 10.2633L9.73025 8.75H6.26975L5.70225 10.2633ZM8 4.136L6.83225 7.25H9.16775L8 4.136ZM12 12.25C12.4142 12.25 12.75 12.5858 12.75 13C12.75 13.4142 12.4142 13.75 12 13.75H4C3.58579 13.75 3.25 13.4142 3.25 13C3.25 12.5858 3.58579 12.25 4 12.25H12Z" fill="currentColor"/></svg>