<svg width="16" height="16" viewBox="0 0 16 16" fill="none" xmlns="http://www.w3.org/2000/svg"><path d="M7.50146 1.92999C7.77559 1.79069 8.09435 1.77268 8.37939 1.87726L8.49951 1.92999L8.59814 1.98859C8.8147 2.13493 8.92988 2.34183 8.98486 2.44659C9.0589 2.58776 9.13414 2.77165 9.20947 2.95245L13.0103 12.0726C13.1044 12.2986 13.191 12.5071 13.2456 12.6693C13.273 12.7507 13.3049 12.8549 13.3208 12.9642C13.3349 13.0613 13.3524 13.2611 13.2583 13.4749C13.1097 13.8122 12.7869 14.0412 12.4194 14.0696C12.1863 14.0875 12.0035 14.0038 11.9165 13.9583C11.8188 13.9071 11.7313 13.8432 11.6636 13.7903C11.5288 13.6851 11.3611 13.5342 11.1792 13.3704L8.03369 10.5394C8.02206 10.5289 8.01087 10.5184 8.00049 10.5091C7.99001 10.5185 7.97904 10.5288 7.96729 10.5394L4.82178 13.3704C4.63976 13.5342 4.47231 13.685 4.3374 13.7903C4.26966 13.8432 4.18233 13.907 4.08447 13.9583C3.99778 14.0037 3.81486 14.0874 3.58154 14.0696C3.21401 14.0414 2.89136 13.8122 2.74268 13.4749C2.64856 13.261 2.66612 13.0613 2.68018 12.9642C2.69606 12.8548 2.72793 12.7508 2.75537 12.6693C2.81001 12.507 2.89651 12.2987 2.99072 12.0726L6.7915 2.95245C6.86691 2.77149 6.94201 2.58781 7.01611 2.44659C7.07896 2.32684 7.21943 2.07359 7.50146 1.92999Z" fill="currentColor"/></svg>