<svg width="16" height="16" viewBox="0 0 16 16" fill="none" xmlns="http://www.w3.org/2000/svg"><mask id="path-1-outside-1_1109_1306" maskUnits="userSpaceOnUse" x="1.25043" y="0.249817" width="15" height="16" fill="black"><rect fill="white" x="1.25043" y="0.249817" width="15" height="16"/><path d="M3.08344 1.2547L12.0834 2.2547C12.086 2.25499 12.0886 2.25536 12.0912 2.25568C12.124 2.25966 12.1566 2.26583 12.1889 2.27423C12.1902 2.27457 12.1915 2.27486 12.1928 2.27521C12.197 2.27632 12.2013 2.27695 12.2055 2.27814C12.2707 2.29673 12.3324 2.32383 12.3891 2.35822C12.3939 2.36111 12.3981 2.36498 12.4028 2.36798C12.4263 2.38295 12.4485 2.3994 12.4702 2.41681C12.4766 2.42205 12.4834 2.42698 12.4897 2.43243C12.5101 2.45006 12.5289 2.46936 12.5473 2.48907C12.5525 2.49463 12.5579 2.49996 12.5629 2.50568C12.6282 2.57987 12.6802 2.6662 12.7123 2.76251L14.7123 8.76251C14.7156 8.77243 14.7173 8.7828 14.7202 8.79279C14.7237 8.80509 14.727 8.81744 14.7299 8.8299C14.7339 8.84709 14.7369 8.86433 14.7397 8.88165C14.7413 8.8914 14.7424 8.90115 14.7436 8.91095C14.7456 8.92825 14.7486 8.94538 14.7495 8.96271C14.7503 8.97961 14.7497 8.99653 14.7495 9.01349C14.7492 9.02523 14.7493 9.03694 14.7485 9.04865C14.7449 9.10476 14.7356 9.16081 14.7192 9.21564L13.2192 14.2156C13.2081 14.2524 13.1924 14.287 13.1762 14.3211C13.1754 14.3228 13.1761 14.3253 13.1752 14.327C13.1727 14.3322 13.1681 14.3364 13.1655 14.3416C13.1535 14.3649 13.1406 14.3873 13.1264 14.409C13.1173 14.423 13.1081 14.4368 13.0981 14.45C13.0564 14.5053 13.0087 14.5557 12.9536 14.5975C12.9447 14.6042 12.9344 14.6087 12.9252 14.6151C12.9027 14.6306 12.8801 14.6459 12.8559 14.659C12.8477 14.6634 12.8389 14.6666 12.8305 14.6707C12.8048 14.6834 12.7787 14.6952 12.7514 14.7049C12.743 14.7079 12.7346 14.711 12.726 14.7137C12.7168 14.7166 12.708 14.7209 12.6987 14.7234C12.682 14.728 12.6647 14.7298 12.6479 14.7332C12.6368 14.7355 12.6259 14.7383 12.6147 14.7401C12.5786 14.7456 12.5424 14.7486 12.5063 14.7488C12.5024 14.7489 12.4985 14.7489 12.4946 14.7488C12.4628 14.7485 12.4312 14.7463 12.3998 14.742C12.3944 14.7413 12.3887 14.7419 12.3832 14.741L2.88324 13.241C2.63082 13.2011 2.41652 13.0346 2.3139 12.8006C2.21134 12.5665 2.23463 12.2965 2.3764 12.0838L5.13422 7.94513L2.32953 2.33478C2.20691 2.08918 2.22825 1.79634 2.38519 1.57111C2.54237 1.34591 2.81048 1.22437 3.08344 1.2547Z"/></mask><path d="M3.08344 1.2547L2.973 2.24858L3.08344 1.2547ZM12.0834 2.2547L12.1947 1.26091L12.1939 1.26082L12.0834 2.2547ZM12.0912 2.25568L11.9696 3.24825L11.9704 3.24835L12.0912 2.25568ZM12.1889 2.27423L12.4405 1.3064L12.4403 1.30635L12.1889 2.27423ZM12.1928 2.27521L11.936 3.24167L11.9362 3.24173L12.1928 2.27521ZM12.2055 2.27814L12.4796 1.31644L12.4789 1.31622L12.2055 2.27814ZM12.3891 2.35822L12.9076 1.50316L12.9075 1.50307L12.3891 2.35822ZM12.4028 2.36798L11.8653 3.21124L11.8654 3.21136L12.4028 2.36798ZM12.4702 2.41681L13.0977 1.63826L13.0974 1.63797L12.4702 2.41681ZM12.4897 2.43243L11.8365 3.18964L11.8369 3.19L12.4897 2.43243ZM12.5473 2.48907L13.2781 1.80651L13.2776 1.80593L12.5473 2.48907ZM12.5629 2.50568L11.8117 3.16569L11.8122 3.16634L12.5629 2.50568ZM12.7123 2.76251L11.7637 3.07874L12.7123 2.76251ZM14.7123 8.76251L15.661 8.44632L15.661 8.44628L14.7123 8.76251ZM14.7202 8.79279L13.7591 9.06908L13.7596 9.07077L14.7202 8.79279ZM14.7299 8.8299L15.7039 8.60339L15.7034 8.60122L14.7299 8.8299ZM14.7397 8.88165L13.7521 9.03881L13.7526 9.04163L14.7397 8.88165ZM14.7436 8.91095L15.7366 8.79306L15.7362 8.78995L14.7436 8.91095ZM14.7495 8.96271L13.7506 9.01115L13.7508 9.01457L14.7495 8.96271ZM14.7495 9.01349L15.7493 9.03284L15.7493 9.02942L14.7495 9.01349ZM14.7485 9.04865L13.7507 8.98244L13.7505 8.98567L14.7485 9.04865ZM14.7192 9.21564L15.677 9.50299L15.6771 9.50268L14.7192 9.21564ZM13.2192 14.2156L14.1769 14.5032L14.177 14.503L13.2192 14.2156ZM13.1762 14.3211L12.2733 13.8912L12.2728 13.8924L13.1762 14.3211ZM13.1752 14.327L14.0751 14.7632L14.0754 14.7625L13.1752 14.327ZM13.1655 14.3416L14.0546 14.7993L14.055 14.7986L13.1655 14.3416ZM13.1264 14.409L12.2899 13.8611L12.2892 13.8621L13.1264 14.409ZM13.0981 14.45L13.8963 15.0524L13.8969 15.0515L13.0981 14.45ZM12.9536 14.5975L13.5576 15.3944L13.5577 15.3943L12.9536 14.5975ZM12.9252 14.6151L12.357 13.7922L12.3569 13.7922L12.9252 14.6151ZM12.8559 14.659L12.3809 13.779L12.3808 13.7791L12.8559 14.659ZM12.8305 14.6707L13.2723 15.5678L13.2726 15.5677L12.8305 14.6707ZM12.7514 14.7049L12.4156 13.763L12.415 13.7632L12.7514 14.7049ZM12.726 14.7137L13.0278 15.6671L13.0285 15.6668L12.726 14.7137ZM12.6987 14.7234L12.9625 15.688L12.9635 15.6878L12.6987 14.7234ZM12.6479 14.7332L12.4515 13.7527L12.4495 13.7531L12.6479 14.7332ZM12.6147 14.7401L12.7663 15.7285L12.7684 15.7282L12.6147 14.7401ZM12.5063 14.7488L12.4999 13.7489L12.4978 13.7489L12.5063 14.7488ZM12.4946 14.7488L12.4852 15.7488L12.4874 15.7488L12.4946 14.7488ZM12.3998 14.742L12.5356 13.7513L12.5335 13.751L12.3998 14.742ZM12.3832 14.741L12.2273 15.7288L12.2278 15.7289L12.3832 14.741ZM2.88324 13.241L2.72708 14.2288L2.72728 14.2288L2.88324 13.241ZM2.3139 12.8006L1.39796 13.2019L1.39806 13.2021L2.3139 12.8006ZM2.3764 12.0838L3.20845 12.6385L3.20857 12.6383L2.3764 12.0838ZM5.13422 7.94513L5.96639 8.49965C6.16532 8.2011 6.18909 7.81887 6.02867 7.49798L5.13422 7.94513ZM2.32953 2.33478L1.43484 2.78147L1.43507 2.78193L2.32953 2.33478ZM2.38519 1.57111L1.56518 0.998762L1.56474 0.999392L2.38519 1.57111ZM3.08344 1.2547L2.973 2.24858L11.973 3.24858L12.0834 2.2547L12.1939 1.26082L3.19387 0.260816L3.08344 1.2547ZM12.0834 2.2547L11.9722 3.24849C11.9682 3.24805 11.965 3.24766 11.963 3.24741C11.961 3.24717 11.9596 3.24699 11.9595 3.24697C11.9595 3.24697 11.9595 3.24697 11.9599 3.24703C11.9602 3.24707 11.9609 3.24716 11.9617 3.24726C11.9633 3.24746 11.9662 3.24783 11.9696 3.24825L12.0912 2.25568L12.2129 1.2631C12.215 1.26337 12.2166 1.26357 12.2169 1.2636C12.217 1.26362 12.2171 1.26363 12.2167 1.26358C12.2165 1.26356 12.2159 1.26347 12.2152 1.26338C12.2128 1.26307 12.2047 1.26203 12.1947 1.26091L12.0834 2.2547ZM12.0912 2.25568L11.9704 3.24835C11.9592 3.24698 11.9481 3.24487 11.9375 3.24212L12.1889 2.27423L12.4403 1.30635C12.365 1.28679 12.2888 1.27235 12.2121 1.26301L12.0912 2.25568ZM12.1889 2.27423L11.9373 3.24206C11.9429 3.24351 11.9474 3.24464 11.9501 3.24531C11.9524 3.24587 11.9548 3.24646 11.9542 3.2463C11.9542 3.2463 11.954 3.24626 11.9538 3.24622C11.9536 3.24617 11.9533 3.24609 11.9529 3.24599C11.9522 3.24581 11.9509 3.24551 11.9495 3.24514C11.9465 3.24441 11.9418 3.24322 11.936 3.24167L12.1928 2.27521L12.4496 1.30875C12.4431 1.30703 12.4378 1.30567 12.4342 1.30477C12.4308 1.30393 12.428 1.30325 12.4275 1.30313C12.4263 1.30282 12.428 1.30324 12.4297 1.30365C12.4317 1.30415 12.4356 1.30512 12.4405 1.3064L12.1889 2.27423ZM12.1928 2.27521L11.9362 3.24173C11.9554 3.24683 11.9711 3.25041 11.9804 3.25246C11.9851 3.2535 11.989 3.25432 11.9912 3.25479C11.9929 3.25513 11.9954 3.25566 11.9945 3.25547C11.9944 3.25546 11.9939 3.25536 11.9933 3.25522C11.9926 3.25507 11.9915 3.25484 11.9902 3.25455C11.9875 3.25399 11.9834 3.25309 11.9783 3.25191C11.9682 3.2496 11.952 3.2457 11.9322 3.24005L12.2055 2.27814L12.4789 1.31622C12.4569 1.30998 12.4386 1.30556 12.4264 1.30276C12.4149 1.3001 12.4053 1.29813 12.4038 1.29782C12.4019 1.2974 12.4033 1.29771 12.4039 1.29783C12.4051 1.29807 12.4079 1.29867 12.4115 1.29948C12.4187 1.30105 12.4323 1.30414 12.4494 1.30869L12.1928 2.27521ZM12.2055 2.27814L11.9314 3.23983C11.9099 3.23371 11.8895 3.22473 11.8707 3.21336L12.3891 2.35822L12.9075 1.50307C12.7753 1.42292 12.6316 1.35975 12.4796 1.31644L12.2055 2.27814ZM12.3891 2.35822L11.8706 3.21327C11.8433 3.19675 11.8222 3.18207 11.8094 3.17288C11.8029 3.16819 11.7977 3.16432 11.7944 3.16189C11.7928 3.16065 11.7914 3.15965 11.7906 3.159C11.7898 3.15837 11.7892 3.15793 11.7891 3.1579C11.7891 3.15788 11.7891 3.15788 11.7893 3.15802C11.7894 3.15812 11.7897 3.15835 11.7901 3.1586C11.7907 3.15909 11.7919 3.16 11.7933 3.1611C11.7962 3.16324 11.8011 3.16693 11.8071 3.17139C11.819 3.1801 11.8393 3.19467 11.8653 3.21124L12.4028 2.36798L12.9403 1.52472C12.9639 1.53979 12.9819 1.55275 12.9915 1.5598C12.9965 1.56343 13.0002 1.56628 13.0019 1.56758C13.0031 1.56843 13.0048 1.56977 13.0028 1.56822C13.0018 1.56744 12.9984 1.56484 12.9941 1.56168C12.9898 1.55841 12.9835 1.55371 12.9758 1.5482C12.9607 1.53738 12.9373 1.52113 12.9076 1.50316L12.3891 2.35822ZM12.4028 2.36798L11.8654 3.21136C11.858 3.20659 11.8523 3.20261 11.8485 3.19989C11.8467 3.19853 11.8453 3.19746 11.8443 3.19675C11.8439 3.19639 11.8435 3.19612 11.8433 3.19593C11.8431 3.19575 11.8429 3.19565 11.8429 3.19565L12.4702 2.41681L13.0974 1.63797C13.0544 1.60338 13.0018 1.56394 12.9401 1.5246L12.4028 2.36798ZM12.4702 2.41681L11.8426 3.19536C11.8497 3.2011 11.8557 3.2058 11.8589 3.20831C11.8605 3.20955 11.862 3.21075 11.8626 3.2112C11.8634 3.21185 11.8634 3.21187 11.8633 3.21174C11.863 3.2115 11.8599 3.20912 11.8557 3.20567C11.8513 3.20212 11.8446 3.19664 11.8365 3.18964L12.4897 2.43243L13.1429 1.67523C13.1213 1.65665 13.1031 1.64233 13.0967 1.63735C13.0949 1.63593 13.0933 1.63466 13.0925 1.63403C13.0919 1.63364 13.0917 1.63346 13.0915 1.63326C13.0912 1.63309 13.0912 1.63305 13.0912 1.63307C13.0913 1.63311 13.092 1.63365 13.093 1.63447C13.0941 1.63531 13.0957 1.63661 13.0977 1.63826L12.4702 2.41681ZM12.4897 2.43243L11.8369 3.19C11.8249 3.17965 11.8169 3.17186 11.814 3.16891C11.8113 3.16626 11.8114 3.16619 11.817 3.17222L12.5473 2.48907L13.2776 1.80593C13.2536 1.78028 13.2051 1.72885 13.1424 1.67487L12.4897 2.43243ZM12.5473 2.48907L11.8165 3.17164C11.8223 3.17792 11.8273 3.18307 11.8299 3.18583C11.8312 3.18719 11.8325 3.1885 11.833 3.189C11.8337 3.18973 11.8337 3.18973 11.8336 3.1896C11.8333 3.18934 11.8308 3.18674 11.8273 3.18299C11.8237 3.17914 11.8183 3.1732 11.8117 3.16569L12.5629 2.50568L13.3142 1.84566C13.2968 1.82585 13.2819 1.81034 13.2768 1.80503C13.2754 1.80353 13.274 1.80217 13.2734 1.80152C13.273 1.80112 13.2729 1.80093 13.2727 1.80074C13.2725 1.80057 13.2725 1.80054 13.2725 1.80059C13.2726 1.80061 13.2749 1.80301 13.2781 1.80651L12.5473 2.48907ZM12.5629 2.50568L11.8122 3.16634C11.7975 3.14957 11.7777 3.12076 11.7637 3.07874L12.7123 2.76251L13.661 2.44628C13.5828 2.21164 13.459 2.01016 13.3136 1.84502L12.5629 2.50568ZM12.7123 2.76251L11.7637 3.07874L13.7637 9.07874L14.7123 8.76251L15.661 8.44628L13.661 2.44628L12.7123 2.76251ZM14.7123 8.76251L13.7636 9.0787C13.7559 9.05542 13.7506 9.03634 13.7474 9.02421C13.7458 9.01803 13.7445 9.01304 13.7437 9.00976C13.743 9.00657 13.7424 9.00433 13.7424 9.00407C13.7424 9.00392 13.7424 9.00393 13.7425 9.00452C13.7426 9.0049 13.7428 9.00605 13.7431 9.00716C13.7436 9.00946 13.7447 9.01383 13.7459 9.01906C13.7484 9.0293 13.7528 9.04727 13.7591 9.06908L14.7202 8.79279L15.6812 8.51649C15.6861 8.5333 15.6892 8.54623 15.6905 8.55141C15.6911 8.5541 15.6915 8.55594 15.6915 8.5557C15.6914 8.55554 15.6914 8.55543 15.6912 8.55454C15.6911 8.55385 15.6908 8.55259 15.6904 8.55117C15.6893 8.54615 15.6861 8.53248 15.6817 8.51583C15.6772 8.49865 15.6704 8.47456 15.661 8.44632L14.7123 8.76251ZM14.7202 8.79279L13.7596 9.07077C13.759 9.06896 13.7579 9.06475 13.7564 9.05857L14.7299 8.8299L15.7034 8.60122C15.6961 8.57013 15.6884 8.54123 15.6807 8.5148L14.7202 8.79279ZM14.7299 8.8299L13.7559 9.0564C13.7538 9.04724 13.7525 9.04066 13.752 9.0378C13.7515 9.03512 13.7515 9.03476 13.7521 9.03881L14.7397 8.88165L15.7273 8.72449C15.7232 8.69904 15.7159 8.65475 15.7039 8.60339L14.7299 8.8299ZM14.7397 8.88165L13.7526 9.04163C13.751 9.03213 13.7502 9.02551 13.75 9.02425C13.7499 9.02356 13.7499 9.02354 13.7501 9.02495C13.7502 9.02564 13.7503 9.02644 13.7504 9.02766C13.7505 9.02875 13.7507 9.03034 13.7509 9.03195L14.7436 8.91095L15.7362 8.78995C15.7362 8.78927 15.7323 8.75568 15.7268 8.72168L14.7397 8.88165ZM14.7436 8.91095L13.7506 9.02884C13.752 9.04132 13.7535 9.05206 13.7542 9.05727C13.7544 9.05865 13.7546 9.06005 13.7547 9.06097C13.7548 9.06202 13.7549 9.06271 13.755 9.06331C13.7552 9.06452 13.7552 9.0645 13.7551 9.06388C13.7549 9.0628 13.7542 9.05698 13.7534 9.04855C13.7525 9.03995 13.7514 9.02709 13.7506 9.01115L14.7495 8.96271L15.7483 8.91426C15.746 8.86666 15.7412 8.82783 15.7389 8.80976C15.7378 8.80128 15.7365 8.79173 15.7363 8.79053C15.7359 8.78712 15.7362 8.78923 15.7366 8.79306L14.7436 8.91095ZM14.7495 8.96271L13.7508 9.01457C13.7503 9.00429 13.7501 8.99593 13.75 8.99011C13.7499 8.98435 13.7499 8.98036 13.7499 8.97911C13.7499 8.97806 13.7499 8.97815 13.7499 8.9816C13.7499 8.9824 13.7498 8.98324 13.7498 8.98433C13.7498 8.98534 13.7498 8.9866 13.7497 8.9879C13.7497 8.99048 13.7496 8.99384 13.7496 8.99755L14.7495 9.01349L15.7493 9.02942C15.7494 9.02735 15.7494 9.02651 15.7495 9.01996C15.7496 9.01494 15.7498 9.00656 15.7498 8.99705C15.75 8.97828 15.75 8.94754 15.7481 8.91085L14.7495 8.96271ZM14.7495 9.01349L13.7496 8.99414C13.7495 9.00017 13.7494 9.00585 13.7494 9.00812C13.7494 9.01134 13.7494 9.01137 13.7494 9.01083C13.7494 9.01 13.7495 9.00683 13.7496 9.00225C13.7498 8.9976 13.7501 8.99081 13.7507 8.98244L14.7485 9.04865L15.7463 9.11485C15.7481 9.08713 15.7487 9.06411 15.749 9.05133C15.7491 9.04493 15.7492 9.0391 15.7492 9.03646C15.7493 9.03287 15.7493 9.03268 15.7493 9.03284L14.7495 9.01349ZM14.7485 9.04865L13.7505 8.98567C13.7512 8.97351 13.7537 8.95372 13.7613 8.92859L14.7192 9.21564L15.6771 9.50268C15.7175 9.3679 15.7386 9.23601 15.7465 9.11162L14.7485 9.04865ZM14.7192 9.21564L13.7614 8.92829L12.2614 13.9283L13.2192 14.2156L14.177 14.503L15.677 9.50299L14.7192 9.21564ZM13.2192 14.2156L12.2614 13.9281C12.2685 13.9046 12.2749 13.8887 12.2773 13.8831C12.2792 13.8783 12.2794 13.8785 12.2733 13.8912L13.1762 14.3211L14.0791 14.751C14.0977 14.7119 14.1423 14.6185 14.1769 14.5032L13.2192 14.2156ZM13.1762 14.3211L12.2728 13.8924C12.2418 13.9576 12.2218 14.0179 12.2087 14.0682C12.1956 14.1181 12.1884 14.161 12.1843 14.1926C12.1822 14.2087 12.1807 14.2229 12.1797 14.2346C12.1787 14.2464 12.178 14.2564 12.1775 14.264C12.1771 14.2715 12.1768 14.2776 12.1766 14.2813C12.1765 14.2845 12.1764 14.2875 12.1764 14.2869C12.1764 14.2869 12.1764 14.2869 12.1764 14.2869C12.1764 14.2869 12.1764 14.2869 12.1764 14.2869C12.1764 14.2869 12.1764 14.2869 12.1764 14.2868C12.1764 14.2868 12.1764 14.2867 12.1764 14.2866C12.1764 14.2863 12.1765 14.286 12.1765 14.2855C12.1765 14.2846 12.1766 14.2831 12.1766 14.2812C12.1768 14.2775 12.1771 14.2714 12.1776 14.2638C12.178 14.2561 12.1787 14.2461 12.1798 14.2343C12.1809 14.2225 12.1824 14.2083 12.1846 14.1921C12.1888 14.1603 12.1962 14.1173 12.2096 14.0672C12.2232 14.0168 12.2436 13.9565 12.2751 13.8914L13.1752 14.327L14.0754 14.7625C14.1071 14.697 14.1277 14.6363 14.1413 14.5854C14.1549 14.5349 14.1623 14.4913 14.1667 14.459C14.1689 14.4426 14.1704 14.4281 14.1715 14.4161C14.1726 14.404 14.1733 14.3937 14.1738 14.3858C14.1743 14.378 14.1746 14.3716 14.1748 14.3677C14.1749 14.3657 14.1749 14.364 14.175 14.363C14.175 14.362 14.175 14.3612 14.175 14.3611C14.1751 14.3603 14.175 14.363 14.1748 14.366C14.1747 14.3694 14.1744 14.3753 14.174 14.3826C14.1736 14.3899 14.1729 14.3997 14.1719 14.4111C14.1709 14.4226 14.1694 14.4366 14.1674 14.4524C14.1633 14.4835 14.1562 14.526 14.1433 14.5754C14.1302 14.6252 14.1104 14.685 14.0796 14.7498L13.1762 14.3211ZM13.1752 14.327L12.2754 13.8907C12.2891 13.8624 12.3026 13.838 12.3147 13.8178C12.3267 13.7976 12.3376 13.7808 12.3463 13.7681C12.355 13.7554 12.3622 13.7454 12.3667 13.7393C12.369 13.7362 12.3709 13.7337 12.372 13.7321C12.3726 13.7313 12.3731 13.7307 12.3734 13.7303C12.3737 13.7299 12.374 13.7296 12.374 13.7296C12.3743 13.7291 12.3732 13.7305 12.3724 13.7316C12.3714 13.7329 12.3697 13.7353 12.3675 13.7382C12.3633 13.7438 12.3562 13.7535 12.3477 13.7656C12.3391 13.7779 12.3282 13.7941 12.3161 13.8136C12.304 13.8332 12.2902 13.857 12.276 13.8846L13.1655 14.3416L14.055 14.7986C14.0284 14.8503 14.0026 14.8889 13.9878 14.9102C13.9802 14.9211 13.9739 14.9296 13.9706 14.934C13.9678 14.9377 13.965 14.9414 13.9668 14.9391C13.9674 14.9383 13.9716 14.9327 13.9767 14.9258C13.9821 14.9185 13.9902 14.9073 13.9997 14.8934C14.0182 14.8662 14.0468 14.8216 14.0751 14.7632L13.1752 14.327ZM13.1655 14.3416L12.2764 13.8839C12.2782 13.8803 12.2827 13.8721 12.2899 13.8611L13.1264 14.409L13.9629 14.9569C13.9986 14.9024 14.0288 14.8495 14.0546 14.7993L13.1655 14.3416ZM13.1264 14.409L12.2892 13.8621C12.2862 13.8667 12.2862 13.8667 12.2875 13.8647C12.289 13.8625 12.2931 13.8566 12.2992 13.8485L13.0981 14.45L13.8969 15.0515C13.928 15.0103 13.9522 14.9734 13.9636 14.9559L13.1264 14.409ZM13.0981 14.45L12.2999 13.8476C12.3022 13.8445 12.3176 13.8247 12.3494 13.8006L12.9536 14.5975L13.5577 15.3943C13.6998 15.2866 13.8105 15.1661 13.8963 15.0524L13.0981 14.45ZM12.9536 14.5975L12.3495 13.8006C12.378 13.7789 12.4022 13.7632 12.4175 13.7537C12.4252 13.7488 12.4316 13.7451 12.4356 13.7427C12.4395 13.7403 12.4424 13.7387 12.4425 13.7387C12.4425 13.7387 12.4426 13.7386 12.4416 13.7392C12.441 13.7395 12.4395 13.7404 12.4379 13.7413C12.4347 13.7431 12.4289 13.7465 12.4219 13.7506C12.4148 13.7548 12.4055 13.7605 12.3947 13.7673C12.384 13.7741 12.3712 13.7824 12.357 13.7922L12.9252 14.6151L13.4935 15.4379C13.4702 15.454 13.4515 15.4653 13.4426 15.4705C13.438 15.4733 13.4346 15.4752 13.4338 15.4757C13.4334 15.4759 13.4332 15.4761 13.4337 15.4757C13.434 15.4756 13.4353 15.4749 13.4365 15.4742C13.4407 15.4717 13.4567 15.4626 13.4759 15.4506C13.4959 15.4382 13.5247 15.4194 13.5576 15.3944L12.9536 14.5975ZM12.9252 14.6151L12.3569 13.7922C12.3523 13.7955 12.3499 13.7971 12.3484 13.7981C12.347 13.799 12.3475 13.7987 12.3494 13.7975C12.3529 13.7952 12.3641 13.7881 12.3809 13.779L12.8559 14.659L13.3309 15.539C13.4085 15.4971 13.4714 15.4531 13.4935 15.4379L12.9252 14.6151ZM12.8559 14.659L12.3808 13.7791C12.4005 13.7684 12.4168 13.7606 12.4272 13.7557C12.4324 13.7533 12.4367 13.7514 12.4395 13.7501C12.4422 13.7489 12.4441 13.7481 12.4443 13.748C12.4444 13.7479 12.4444 13.7479 12.4439 13.7482C12.4436 13.7483 12.4426 13.7487 12.4416 13.7492C12.4396 13.7501 12.4358 13.7517 12.4313 13.7537C12.4224 13.7576 12.407 13.7646 12.3884 13.7737L12.8305 14.6707L13.2726 15.5677C13.2582 15.5748 13.247 15.5798 13.2424 15.5818C13.2412 15.5824 13.2402 15.5828 13.2395 15.5831C13.2392 15.5832 13.2389 15.5834 13.2388 15.5834C13.2386 15.5835 13.2385 15.5835 13.2385 15.5835C13.2385 15.5835 13.2386 15.5835 13.2387 15.5835C13.2389 15.5834 13.2391 15.5833 13.2394 15.5832C13.2399 15.5829 13.241 15.5825 13.2422 15.582C13.2463 15.5801 13.258 15.5751 13.2721 15.5685C13.2867 15.5617 13.3072 15.5518 13.331 15.5389L12.8559 14.659ZM12.8305 14.6707L12.3887 13.7736C12.3855 13.7752 12.3868 13.7745 12.3911 13.7726C12.3956 13.7706 12.404 13.7671 12.4156 13.763L12.7514 14.7049L13.0872 15.6468C13.1641 15.6194 13.2279 15.5897 13.2723 15.5678L12.8305 14.6707ZM12.7514 14.7049L12.415 13.7632C12.4135 13.7637 12.4121 13.7642 12.411 13.7646C12.4099 13.765 12.4092 13.7653 12.4086 13.7655C12.4072 13.766 12.4072 13.7659 12.4078 13.7657C12.4089 13.7654 12.4149 13.7633 12.4235 13.7605L12.726 14.7137L13.0285 15.6668C13.0457 15.6614 13.0601 15.6564 13.0697 15.6531C13.0776 15.6503 13.0875 15.6467 13.0878 15.6466L12.7514 14.7049ZM12.726 14.7137L12.4242 13.7603C12.399 13.7683 12.3788 13.7757 12.3672 13.7801C12.3613 13.7823 12.3564 13.7842 12.3537 13.7852C12.3524 13.7857 12.3512 13.7862 12.3506 13.7864C12.3499 13.7867 12.3499 13.7867 12.35 13.7867C12.3502 13.7866 12.3526 13.7857 12.356 13.7844C12.3595 13.7831 12.365 13.781 12.3718 13.7786C12.3853 13.7738 12.4068 13.7666 12.4339 13.7591L12.6987 14.7234L12.9635 15.6878C12.9953 15.679 13.0214 15.6703 13.0394 15.6639C13.0567 15.6578 13.0706 15.6523 13.0748 15.6507C13.076 15.6503 13.0772 15.6498 13.0775 15.6496C13.0781 15.6494 13.0781 15.6494 13.0779 15.6495C13.0774 15.6497 13.0748 15.6507 13.0712 15.6521C13.0641 15.6547 13.0484 15.6605 13.0278 15.6671L12.726 14.7137ZM12.6987 14.7234L12.4349 13.7589C12.4563 13.753 12.4738 13.7491 12.4854 13.7468C12.4966 13.7445 12.5045 13.7431 12.5054 13.743C12.5058 13.7429 12.5058 13.7429 12.5037 13.7433C12.5022 13.7435 12.4982 13.7442 12.4941 13.7449C12.4858 13.7463 12.4702 13.7489 12.4515 13.7527L12.6479 14.7332L12.8443 15.7137C12.8389 15.7148 12.8346 15.7156 12.8318 15.7161C12.829 15.7166 12.8272 15.7169 12.8271 15.717C12.827 15.717 12.8271 15.7169 12.8277 15.7169C12.8283 15.7167 12.8289 15.7166 12.8302 15.7164C12.8323 15.7161 12.8366 15.7154 12.8413 15.7146C12.8579 15.7117 12.9055 15.7036 12.9625 15.688L12.6987 14.7234ZM12.6479 14.7332L12.4495 13.7531C12.4381 13.7554 12.4286 13.7575 12.4236 13.7586C12.4212 13.7591 12.4187 13.7597 12.4179 13.7599C12.4166 13.7601 12.4166 13.7602 12.4169 13.7601C12.4175 13.76 12.4224 13.7589 12.4293 13.7575C12.4365 13.7561 12.4474 13.754 12.461 13.7519L12.6147 14.7401L12.7684 15.7282C12.8051 15.7224 12.8348 15.716 12.8458 15.7136C12.8488 15.7129 12.8516 15.7123 12.8531 15.7119C12.855 15.7115 12.8552 15.7115 12.8556 15.7114C12.8561 15.7113 12.8521 15.7122 12.8463 15.7133L12.6479 14.7332ZM12.6147 14.7401L12.4631 13.7516C12.472 13.7502 12.4845 13.749 12.4999 13.7489L12.5063 14.7488L12.5126 15.7488C12.6004 15.7483 12.6851 15.7409 12.7663 15.7285L12.6147 14.7401ZM12.5063 14.7488L12.4978 13.7489C12.5003 13.7489 12.5018 13.7489 12.5018 13.7489L12.4946 14.7488L12.4874 15.7488C12.4951 15.7489 12.5044 15.7489 12.5148 15.7488L12.5063 14.7488ZM12.4946 14.7488L12.5039 13.7489C12.5131 13.749 12.5238 13.7496 12.5356 13.7513L12.3998 14.742L12.2641 15.7328C12.3387 15.743 12.4125 15.7481 12.4852 15.7488L12.4946 14.7488ZM12.3998 14.742L12.5335 13.751C12.5124 13.7481 12.4936 13.7463 12.4778 13.745C12.462 13.7437 12.4485 13.743 12.4382 13.7426C12.4279 13.7421 12.4196 13.7419 12.4148 13.7418C12.4123 13.7418 12.4103 13.7417 12.4091 13.7417C12.4085 13.7417 12.4068 13.7417 12.4075 13.7417C12.4075 13.7417 12.4085 13.7417 12.4098 13.7417C12.4112 13.7418 12.4134 13.7418 12.4161 13.7419C12.4215 13.742 12.4302 13.7423 12.4409 13.7429C12.4517 13.7435 12.4656 13.7444 12.4818 13.746C12.498 13.7475 12.5172 13.7498 12.5387 13.7532L12.3832 14.741L12.2278 15.7289C12.2728 15.736 12.3101 15.7387 12.3338 15.74C12.346 15.7407 12.356 15.741 12.3628 15.7412C12.3692 15.7413 12.3745 15.7414 12.3756 15.7414C12.3783 15.7415 12.3752 15.7414 12.3725 15.7414C12.369 15.7413 12.3621 15.7411 12.3532 15.7408C12.3361 15.74 12.305 15.7383 12.2662 15.733L12.3998 14.742ZM12.3832 14.741L12.5392 13.7533L3.0392 12.2533L2.88324 13.241L2.72728 14.2288L12.2273 15.7288L12.3832 14.741ZM2.88324 13.241L3.0394 12.2533C3.12619 12.267 3.19663 12.3235 3.22975 12.3991L2.3139 12.8006L1.39806 13.2021C1.63641 13.7458 2.13545 14.1352 2.72708 14.2288L2.88324 13.241ZM2.3139 12.8006L3.22985 12.3993C3.26354 12.4762 3.2564 12.5666 3.20845 12.6385L2.3764 12.0838L1.54435 11.5291C1.21285 12.0264 1.15913 12.6568 1.39796 13.2019L2.3139 12.8006ZM2.3764 12.0838L3.20857 12.6383L5.96639 8.49965L5.13422 7.94513L4.30205 7.39061L1.54423 11.5293L2.3764 12.0838ZM5.13422 7.94513L6.02867 7.49798L3.22399 1.88763L2.32953 2.33478L1.43507 2.78193L4.23976 8.39228L5.13422 7.94513ZM2.32953 2.33478L3.22422 1.88808C3.26509 1.96995 3.25797 2.06774 3.20565 2.14282L2.38519 1.57111L1.56474 0.999392C1.19853 1.52493 1.14873 2.20841 1.43484 2.78147L2.32953 2.33478ZM2.38519 1.57111L3.20521 2.14345C3.15292 2.21837 3.06417 2.25871 2.973 2.24858L3.08344 1.2547L3.19387 0.260816C2.55678 0.190029 1.93183 0.473458 1.56518 0.998762L2.38519 1.57111Z" fill="#E6E6E6" mask="url(#path-1-outside-1_1109_1306)"/><path d="M12 3L3 2L6 8L12 3Z" fill="#BFEFFF" stroke="#0A7DFF" stroke-width="1.5" stroke-linecap="round" stroke-linejoin="round"/><path d="M14 9L12 3L6 8L14 9Z" fill="#BFEFFF" stroke="#0A7DFF" stroke-width="1.5" stroke-linecap="round" stroke-linejoin="round"/><path d="M12.5 14L14 9L6 8L12.5 14Z" fill="#BFEFFF" stroke="#0A7DFF" stroke-width="1.5" stroke-linecap="round" stroke-linejoin="round"/><path d="M12.5 14L3 12.5L6 8L12.5 14Z" fill="#BFEFFF" stroke="#0A7DFF" stroke-width="1.5" stroke-linecap="round" stroke-linejoin="round"/></svg>