<svg width="16" height="16" viewBox="0 0 16 16" fill="none" xmlns="http://www.w3.org/2000/svg"><path d="M13 1.5C13.8284 1.5 14.5 2.17157 14.5 3V13C14.5 13.8284 13.8284 14.5 13 14.5H3C2.17157 14.5 1.5 13.8284 1.5 13V3C1.5 2.17157 2.17157 1.5 3 1.5H13Z" stroke="#E6E6E6" stroke-linejoin="round"/><path d="M2 3.6C2 3.03995 2 2.75992 2.10899 2.54601C2.20487 2.35785 2.35785 2.20487 2.54601 2.10899C2.75992 2 3.03995 2 3.6 2H12.4C12.9601 2 13.2401 2 13.454 2.10899C13.6422 2.20487 13.7951 2.35785 13.891 2.54601C14 2.75992 14 3.03995 14 3.6V12.4C14 12.9601 14 13.2401 13.891 13.454C13.7951 13.6422 13.6422 13.7951 13.454 13.891C13.2401 14 12.9601 14 12.4 14H3.6C3.03995 14 2.75992 14 2.54601 13.891C2.35785 13.7951 2.20487 13.6422 2.10899 13.454C2 13.2401 2 12.9601 2 12.4V3.6Z" fill="#FDFDFD"/><path d="M7.70588 5C4.88235 5 3 8.6923 3 8.6923V11H13C13 11 10.5294 5 7.70588 5Z" fill="#0A7DFF"/><path d="M2 13.25C2 12.8358 2.33581 12.5 2.75004 12.5L3.5 12.5001H13.25C13.6642 12.5001 14 12.8359 14 13.2501C14 13.6643 13.6642 14 13.25 14H2.75C2.33579 14 2 13.6643 2 13.25Z" fill="#333333"/></svg>