<svg width="16" height="16" viewBox="0 0 16 16" fill="none" xmlns="http://www.w3.org/2000/svg"><path d="M6.9613 2.71936C7.3456 1.79541 8.65416 1.79541 9.03845 2.71936L10.1888 5.48596L13.1771 5.72522C14.1746 5.80519 14.5787 7.05078 13.8187 7.70178L11.5424 9.651L12.2386 12.566C12.4708 13.5393 11.4119 14.309 10.558 13.7877L7.99939 12.2242L5.44275 13.7877C4.58876 14.3093 3.5299 13.5394 3.76208 12.566L4.45642 9.651L2.18103 7.70178C1.42112 7.05083 1.82533 5.80538 2.82263 5.72522L5.80994 5.48596L6.9613 2.71936Z" stroke="#E6E6E6" stroke-width="1.75" stroke-linejoin="round"/><path d="M7.76921 3.05499C7.85461 2.84967 8.14547 2.84967 8.23087 3.05499L9.52842 6.17468C9.56442 6.26123 9.64582 6.32038 9.73927 6.32787L13.1072 6.59788C13.3289 6.61565 13.4188 6.89227 13.2499 7.03694L10.6839 9.23502C10.6127 9.29601 10.5816 9.3917 10.6033 9.48289L11.3873 12.7694C11.4389 12.9858 11.2036 13.1567 11.0138 13.0408L8.13035 11.2796C8.05035 11.2307 7.94973 11.2307 7.86973 11.2796L4.98628 13.0408C4.79651 13.1567 4.5612 12.9858 4.61279 12.7694L5.39676 9.48289C5.41851 9.3917 5.38742 9.29601 5.31622 9.23502L2.75019 7.03694C2.58131 6.89227 2.67119 6.61565 2.89285 6.59788L6.26081 6.32787C6.35426 6.32038 6.43566 6.26123 6.47166 6.17468L7.76921 3.05499Z" fill="#EF9625"/><path d="M7.76921 3.05499C7.85461 2.84967 8.14547 2.84967 8.23087 3.05499L9.52842 6.17468C9.56442 6.26123 9.64582 6.32038 9.73927 6.32787L13.1072 6.59788C13.3289 6.61565 13.4188 6.89227 13.2499 7.03694L10.6839 9.23502C10.6127 9.29601 10.5816 9.3917 10.6033 9.48289L11.3873 12.7694C11.4389 12.9858 11.2036 13.1567 11.0138 13.0408L8.13035 11.2796C8.05035 11.2307 7.94973 11.2307 7.86973 11.2796L4.98628 13.0408C4.79651 13.1567 4.5612 12.9858 4.61279 12.7694L5.39676 9.48289C5.41851 9.3917 5.38742 9.29601 5.31622 9.23502L2.75019 7.03694C2.58131 6.89227 2.67119 6.61565 2.89285 6.59788L6.26081 6.32787C6.35426 6.32038 6.43566 6.26123 6.47166 6.17468L7.76921 3.05499Z" stroke="#C05C27" stroke-width="1.5"/></svg>