<svg width="16" height="16" viewBox="0 0 16 16" fill="none" xmlns="http://www.w3.org/2000/svg"><path d="M12.5 9.75C12.9142 9.75 13.25 10.0858 13.25 10.5V11.75H14.5C14.9142 11.75 15.25 12.0858 15.25 12.5C15.25 12.9142 14.9142 13.25 14.5 13.25H13.25V14.5C13.25 14.9142 12.9142 15.25 12.5 15.25C12.0858 15.25 11.75 14.9142 11.75 14.5V13.25H10.5C10.0858 13.25 9.75 12.9142 9.75 12.5C9.75 12.0858 10.0858 11.75 10.5 11.75H11.75V10.5C11.75 10.0858 12.0858 9.75 12.5 9.75ZM7.5 0.75C11.2279 0.75 14.25 3.77208 14.25 7.5C14.25 7.91421 13.9142 8.25 13.5 8.25C13.0858 8.25 12.75 7.91421 12.75 7.5C12.75 4.6005 10.3995 2.25 7.5 2.25C4.6005 2.25 2.25 4.6005 2.25 7.5C2.25 10.3995 4.6005 12.75 7.5 12.75C7.91421 12.75 8.25 13.0858 8.25 13.5C8.25 13.9142 7.91421 14.25 7.5 14.25C3.77208 14.25 0.75 11.2279 0.75 7.5C0.75 3.77208 3.77208 0.75 7.5 0.75ZM9.79785 8.23633C9.94341 7.8487 10.3759 7.65245 10.7637 7.79785C11.1513 7.94341 11.3475 8.37594 11.2021 8.76367C9.91918 12.1841 5.08082 12.1841 3.79785 8.76367C3.65245 8.37594 3.8487 7.94341 4.23633 7.79785C4.62406 7.65245 5.05659 7.8487 5.20215 8.23633C5.99832 10.3595 9.00168 10.3595 9.79785 8.23633ZM3.78809 5.7627C4.33635 4.11791 6.66365 4.11791 7.21191 5.7627C7.3429 6.15565 7.13026 6.58093 6.7373 6.71191C6.34435 6.8429 5.91907 6.63026 5.78809 6.2373C5.69567 5.96006 5.30433 5.96006 5.21191 6.2373C5.08093 6.63026 4.65565 6.8429 4.2627 6.71191C3.86974 6.58093 3.6571 6.15565 3.78809 5.7627ZM7.78809 5.7627C8.33635 4.11791 10.6637 4.11791 11.2119 5.7627C11.3429 6.15565 11.1303 6.58093 10.7373 6.71191C10.3443 6.8429 9.91907 6.63026 9.78809 6.2373C9.69567 5.96006 9.30433 5.96006 9.21191 6.2373C9.08093 6.63026 8.65565 6.8429 8.2627 6.71191C7.86974 6.58093 7.6571 6.15565 7.78809 5.7627Z" fill="currentColor"/></svg>