<svg width="16" height="16" viewBox="0 0 16 16" fill="none" xmlns="http://www.w3.org/2000/svg"><path fill-rule="evenodd" clip-rule="evenodd" d="M10.1874 4.74985C10.4873 4.74985 10.7599 4.74924 10.9843 4.7684C11.2162 4.78823 11.4728 4.83398 11.7196 4.97152C12.0682 5.16595 12.3405 5.47356 12.4901 5.8436C12.596 6.10552 12.6086 6.3659 12.5995 6.59848C12.5907 6.82342 12.5566 7.09385 12.5194 7.39145L11.9198 12.1913C11.8902 12.4278 11.8633 12.6476 11.826 12.8299C11.787 13.0214 11.726 13.2271 11.6014 13.4266C11.4215 13.7148 11.1616 13.9448 10.8534 14.0877C10.64 14.1866 10.4281 14.2211 10.2333 14.2362C10.0478 14.2505 9.82614 14.2498 9.58777 14.2498H6.41199C6.17385 14.2498 5.95282 14.2505 5.76746 14.2362C5.57268 14.2211 5.36076 14.1866 5.14734 14.0877C4.839 13.9448 4.57834 13.7148 4.39832 13.4266C4.27381 13.2271 4.21376 13.0213 4.17468 12.8299C4.13746 12.6476 4.11051 12.4278 4.08093 12.1913L3.48035 7.39145C3.44314 7.09384 3.40908 6.82343 3.40027 6.59848C3.39119 6.3659 3.40473 6.10552 3.51062 5.8436C3.66029 5.47371 3.93168 5.16591 4.28015 4.97152C4.52694 4.83395 4.78358 4.78824 5.0155 4.7684C5.23984 4.74922 5.51238 4.74985 5.81238 4.74985H10.1874ZM5.81238 6.24985C5.48629 6.24985 5.28897 6.25011 5.14343 6.26254C5.00567 6.27433 4.99096 6.29203 5.01062 6.2811C4.9609 6.30884 4.92264 6.35334 4.90125 6.4061C4.90952 6.38545 4.89392 6.4021 4.89929 6.53988C4.90501 6.68577 4.92821 6.88159 4.96863 7.20492L5.56921 12.0057C5.60162 12.2649 5.62146 12.4177 5.64441 12.5301C5.66532 12.6324 5.67831 12.6449 5.67078 12.6327C5.69638 12.6735 5.73351 12.706 5.77722 12.7264C5.76465 12.7207 5.7791 12.7321 5.88269 12.7401C5.99708 12.7489 6.15074 12.7498 6.41199 12.7498H9.58777C9.84898 12.7498 10.0027 12.7489 10.1171 12.7401C10.1821 12.7351 10.2124 12.7291 10.2225 12.7264C10.2663 12.706 10.3033 12.6736 10.329 12.6327C10.333 12.6231 10.3432 12.5942 10.3563 12.5301C10.3793 12.4177 10.3981 12.2649 10.4305 12.0057L11.0311 7.20492C11.0715 6.88155 11.0957 6.68578 11.1014 6.53988C11.1068 6.40228 11.0903 6.38558 11.0985 6.4061C11.0771 6.35334 11.0389 6.30882 10.9891 6.2811C11.0089 6.29213 10.9943 6.27434 10.8563 6.26254C10.7108 6.25013 10.5133 6.24985 10.1874 6.24985H5.81238ZM6.99988 7.24985C7.41405 7.24985 7.74981 7.58569 7.74988 7.99985V10.9998C7.74988 11.4141 7.41409 11.7498 6.99988 11.7498C6.58569 11.7498 6.24988 11.414 6.24988 10.9998V7.99985C6.24995 7.58571 6.58573 7.24987 6.99988 7.24985ZM8.99988 7.24985C9.41405 7.24985 9.74981 7.58569 9.74988 7.99985V10.9998C9.74988 11.4141 9.41409 11.7498 8.99988 11.7498C8.58569 11.7498 8.24988 11.414 8.24988 10.9998V7.99985C8.24995 7.58571 8.58573 7.24987 8.99988 7.24985ZM7.02917 1.74594C7.61694 1.35411 8.38278 1.35417 8.97058 1.74594L9.66394 2.20785C9.70496 2.2352 9.75331 2.24981 9.80261 2.24984H11.9999C12.4141 2.24984 12.7498 2.58569 12.7499 2.99984C12.7499 3.41406 12.4141 3.74985 11.9999 3.74985H9.80261C9.45718 3.74981 9.11933 3.64751 8.83191 3.4559L8.13855 2.99399C8.0546 2.9381 7.94513 2.93804 7.86121 2.99399L7.16785 3.4559C6.8804 3.64752 6.54261 3.74984 6.19714 3.74985H3.99988C3.58572 3.74978 3.24988 3.41402 3.24988 2.99984C3.24994 2.58573 3.58576 2.24991 3.99988 2.24984H6.19714C6.24648 2.24984 6.29476 2.23521 6.33582 2.20785L7.02917 1.74594Z" fill="currentColor"/></svg>