<svg width="16" height="16" viewBox="0 0 16 16" fill="none" xmlns="http://www.w3.org/2000/svg"><path d="M9.5 2.04785C9.91421 2.04785 10.25 2.38364 10.25 2.79785V4.37891C10.3626 4.4148 10.4735 4.45936 10.582 4.51465C11.0992 4.77826 11.5196 5.19867 11.7832 5.71582C11.8384 5.82419 11.8821 5.93535 11.918 6.04785H13.5C13.9142 6.04785 14.25 6.38364 14.25 6.79785C14.2499 7.21197 13.9141 7.54785 13.5 7.54785H12.0811C12.0829 7.73867 12.083 7.94406 12.083 8.16406V8.43164C12.083 8.65164 12.0829 8.85703 12.0811 9.04785H13.5C13.9142 9.04785 14.25 9.38364 14.25 9.79785C14.2499 10.212 13.9141 10.5479 13.5 10.5479H11.918C11.8821 10.6604 11.8384 10.7715 11.7832 10.8799C11.5196 11.397 11.0992 11.8175 10.582 12.0811C10.4736 12.1363 10.3625 12.18 10.25 12.2158V13.7979C10.2499 14.212 9.91414 14.5479 9.5 14.5479C9.08586 14.5479 8.75012 14.212 8.75 13.7979V12.3779C8.55911 12.3798 8.35387 12.3809 8.13379 12.3809H7.86621C7.64613 12.3809 7.44089 12.3798 7.25 12.3779V13.7979C7.24988 14.212 6.91414 14.5479 6.5 14.5479C6.08586 14.5479 5.75012 14.212 5.75 13.7979V12.2158C5.63746 12.18 5.52637 12.1363 5.41797 12.0811C4.90085 11.8175 4.48041 11.397 4.2168 10.8799C4.16158 10.7715 4.1179 10.6604 4.08203 10.5479H2.5C2.08586 10.5479 1.75012 10.212 1.75 9.79785C1.75 9.38364 2.08579 9.04785 2.5 9.04785H3.91895C3.91709 8.85703 3.91699 8.65164 3.91699 8.43164V8.16406C3.91699 7.94406 3.91709 7.73867 3.91895 7.54785H2.5C2.08586 7.54785 1.75012 7.21197 1.75 6.79785C1.75 6.38364 2.08579 6.04785 2.5 6.04785H4.08203C4.11789 5.93535 4.16159 5.82419 4.2168 5.71582C4.48039 5.19867 4.90083 4.77826 5.41797 4.51465C5.52647 4.45936 5.63736 4.4148 5.75 4.37891V2.79785C5.75 2.38364 6.08579 2.04785 6.5 2.04785C6.91421 2.04785 7.25 2.38364 7.25 2.79785V4.2168C7.44088 4.21494 7.64613 4.21484 7.86621 4.21484H8.13379C8.35387 4.21484 8.55912 4.21494 8.75 4.2168V2.79785C8.75 2.38364 9.08579 2.04785 9.5 2.04785ZM7.86621 5.71484C7.29411 5.71484 6.91004 5.7151 6.61426 5.73926C6.32759 5.76268 6.19017 5.80453 6.09961 5.85059C5.86445 5.97043 5.67256 6.16229 5.55273 6.39746C5.50671 6.48803 5.46482 6.62559 5.44141 6.91211C5.41726 7.20787 5.41699 7.5921 5.41699 8.16406V8.43164C5.41699 9.00362 5.41725 9.38785 5.44141 9.68359C5.46483 9.97013 5.50669 10.1077 5.55273 10.1982C5.67258 10.4334 5.86446 10.6253 6.09961 10.7451C6.19018 10.7912 6.32766 10.833 6.61426 10.8564C6.91004 10.8806 7.29412 10.8809 7.86621 10.8809H8.13379C8.70588 10.8809 9.08996 10.8806 9.38574 10.8564C9.67234 10.833 9.80982 10.7912 9.90039 10.7451C10.1355 10.6253 10.3274 10.4334 10.4473 10.1982C10.4933 10.1077 10.5352 9.97013 10.5586 9.68359C10.5827 9.38785 10.583 9.00362 10.583 8.43164V8.16406C10.583 7.5921 10.5827 7.20787 10.5586 6.91211C10.5352 6.62559 10.4933 6.48803 10.4473 6.39746C10.3274 6.16229 10.1356 5.97043 9.90039 5.85059C9.80983 5.80453 9.67241 5.76268 9.38574 5.73926C9.08996 5.7151 8.70589 5.71484 8.13379 5.71484H7.86621Z" fill="currentColor"/></svg>