<svg width="16" height="16" viewBox="0 0 16 16" fill="none" xmlns="http://www.w3.org/2000/svg"><path d="M5.96973 1.96979C6.26262 1.67689 6.73738 1.6769 7.03027 1.96979L10.0303 4.96979C10.3232 5.26268 10.3232 5.73744 10.0303 6.03033L7.03027 9.03033C6.73738 9.32317 6.2626 9.3232 5.96973 9.03033C5.67685 8.73746 5.67689 8.26268 5.96973 7.96979L7.68945 6.25006H6.5C5.52199 6.25006 5.18003 6.25703 4.91797 6.32721C4.14154 6.53528 3.53519 7.14159 3.32715 7.91803C3.25698 8.18008 3.25 8.5221 3.25 9.50006C3.25 10.4781 3.25697 10.82 3.32715 11.0821C3.53521 11.8585 4.14154 12.4649 4.91797 12.6729C5.18003 12.7431 5.52199 12.7501 6.5 12.7501H7.7002C8.55251 12.7501 9.14679 12.7498 9.60938 12.712C10.0632 12.6749 10.324 12.6056 10.5215 12.5049C10.9448 12.2892 11.2892 11.9449 11.5049 11.5215C11.6055 11.324 11.6748 11.0632 11.7119 10.6094C11.7497 10.1469 11.75 9.55258 11.75 8.70026V8.50006C11.75 8.08586 12.0858 7.75009 12.5 7.75006C12.9142 7.75006 13.25 8.08585 13.25 8.50006V8.70026C13.25 9.52781 13.251 10.1937 13.207 10.7315C13.1624 11.2781 13.0671 11.758 12.8408 12.2022C12.4813 12.9078 11.9077 13.4814 11.2021 13.8409C10.758 14.0672 10.278 14.1624 9.73145 14.2071C9.19362 14.251 8.52775 14.2501 7.7002 14.2501H6.5C5.61834 14.2501 5.0302 14.2563 4.5293 14.1221C3.23536 13.7753 2.22472 12.7647 1.87793 11.4708C1.74371 10.9699 1.75 10.3817 1.75 9.50006C1.75 8.61841 1.74373 8.03026 1.87793 7.52936C2.2247 6.23541 3.23536 5.22478 4.5293 4.87799C5.0302 4.74377 5.61834 4.75006 6.5 4.75006H7.68945L5.96973 3.03033L5.91797 2.97369C5.67768 2.67913 5.69517 2.24439 5.96973 1.96979Z" fill="currentColor"/></svg>