<svg width="16" height="16" viewBox="0 0 16 16" fill="none" xmlns="http://www.w3.org/2000/svg"><path d="M10 8.25C11.2585 8.25 12.3168 9.09614 12.6436 10.25H14C14.4142 10.25 14.75 10.5858 14.75 11C14.75 11.4142 14.4142 11.75 14 11.75H12.6436C12.3168 12.9039 11.2585 13.75 10 13.75C8.7415 13.75 7.68316 12.9039 7.35645 11.75H2C1.58579 11.75 1.25 11.4142 1.25 11C1.25 10.5858 1.58579 10.25 2 10.25H7.35645C7.68316 9.09614 8.7415 8.25 10 8.25ZM10 9.75C9.30964 9.75 8.75 10.3096 8.75 11L8.75684 11.1279C8.82092 11.7582 9.35285 12.25 10 12.25C10.6472 12.25 11.1791 11.7582 11.2432 11.1279L11.25 11L11.2432 10.8721C11.1791 10.2418 10.6472 9.75 10 9.75ZM6 2.25C7.2585 2.25 8.31684 3.09614 8.64355 4.25H14C14.4142 4.25 14.75 4.58579 14.75 5C14.75 5.41421 14.4142 5.75 14 5.75H8.64355C8.31684 6.90386 7.2585 7.75 6 7.75C4.7415 7.75 3.68316 6.90386 3.35645 5.75H2C1.58579 5.75 1.25 5.41421 1.25 5C1.25 4.58579 1.58579 4.25 2 4.25H3.35645C3.68316 3.09614 4.7415 2.25 6 2.25ZM6 3.75C5.30964 3.75 4.75 4.30964 4.75 5L4.75684 5.12793C4.82092 5.75817 5.35285 6.25 6 6.25C6.64715 6.25 7.17908 5.75817 7.24316 5.12793L7.25 5L7.24316 4.87207C7.17908 4.24183 6.64715 3.75 6 3.75Z" fill="currentColor"/></svg>