<svg width="16" height="16" viewBox="0 0 16 16" fill="none" xmlns="http://www.w3.org/2000/svg"><path fill-rule="evenodd" clip-rule="evenodd" d="M9.94669 4.49034C10.2585 4.49034 10.4903 4.19853 10.4184 3.89474C10.1506 2.80746 9.17121 2 8.00399 2C6.83677 2 5.85342 2.80746 5.5896 3.89474C5.51365 4.19853 5.74949 4.49034 6.06128 4.49034H9.94669ZM8.00001 10.4863C9.37317 10.4863 10.4863 9.37317 10.4863 8.00001C10.4863 6.62684 9.37317 5.51366 8.00001 5.51366C6.62684 5.51366 5.51366 6.62684 5.51366 8.00001C5.51366 9.37317 6.62684 10.4863 8.00001 10.4863ZM5.58162 12.1053C5.50967 11.8015 5.74151 11.5097 6.0533 11.5097H9.93871C10.2505 11.5097 10.4863 11.8015 10.4104 12.1053C10.1466 13.1925 9.16323 14 7.99601 14C6.82879 14 5.84944 13.1925 5.58162 12.1053ZM11.5097 9.94671C11.5097 10.2585 11.8015 10.4903 12.1053 10.4184C13.1925 10.1506 14 9.17122 14 8.004C14 6.83678 13.1925 5.85344 12.1053 5.58961C11.8015 5.51366 11.5097 5.74951 11.5097 6.0613V9.94671ZM3.89474 5.5816C4.19853 5.50965 4.49034 5.7415 4.49034 6.05329V9.9387C4.49034 10.2505 4.19853 10.4863 3.89474 10.4104C2.80746 10.1466 2 9.16322 2 7.99599C2 6.82877 2.80746 5.84943 3.89474 5.5816ZM4.49035 4.01065V2.54763C4.49035 2.23584 4.19854 2.00399 3.89474 2.07595C2.99934 2.2958 2.29181 2.99933 2.07196 3.89873C1.99601 4.20253 2.23185 4.49433 2.54365 4.49433H4.00667C4.27449 4.49433 4.49035 4.27848 4.49035 4.01065ZM2.54762 11.5097H4.01064C4.27846 11.5097 4.49432 11.7255 4.49432 11.9933V13.4564C4.49432 13.7682 4.20251 14.004 3.89872 13.928C2.99932 13.7082 2.29579 13.0007 2.07593 12.1053C2.00398 11.8015 2.23583 11.5097 2.54762 11.5097ZM11.5097 11.9893V13.4524C11.5097 13.7642 11.8015 13.996 12.1053 13.924C13.0007 13.7042 13.7082 13.0007 13.928 12.1013C14.004 11.7975 13.7682 11.5057 13.4564 11.5057H11.9933C11.7255 11.5057 11.5097 11.7215 11.5097 11.9893ZM13.4524 4.49033H11.9893C11.7215 4.49033 11.5057 4.27448 11.5057 4.00666V2.54363C11.5057 2.23184 11.7975 1.996 12.1013 2.07195C13.0007 2.2918 13.7042 2.99933 13.924 3.89473C13.996 4.19853 13.7642 4.49033 13.4524 4.49033Z" fill="currentColor"/></svg>