<svg width="16" height="16" viewBox="0 0 16 16" fill="none" xmlns="http://www.w3.org/2000/svg"><path d="M8 2C11.3137 2 14 4.68629 14 8C14 11.3137 11.3137 14 8 14C4.68629 14 2 11.3137 2 8C2 4.68629 4.68629 2 8 2ZM8 3.5C5.51481 3.50011 3.5 5.51479 3.5 8C3.5 10.4852 5.51481 12.4999 8 12.5C8.28361 12.5 8.56117 12.4735 8.83008 12.4229C9.06114 12.3793 9.07354 12.0657 8.86719 11.9531C7.4668 11.1906 6.51562 9.70673 6.51562 8C6.51562 6.29321 7.46678 4.80852 8.86719 4.0459C9.0734 3.93324 9.06114 3.62044 8.83008 3.57715C8.56112 3.52676 8.28358 3.50002 8 3.5Z" fill="currentColor"/></svg>