<svg width="16" height="16" viewBox="0 0 16 16" fill="none" xmlns="http://www.w3.org/2000/svg"><path d="M8 1.25C10.6234 1.25 12.75 3.37665 12.75 6C12.75 7.09957 12.3753 8.111 11.748 8.91602L12.7354 13.8525C12.7887 14.1194 12.6936 14.3949 12.4863 14.5713C12.2789 14.7477 11.9913 14.7978 11.7363 14.7021L8 13.3008L4.26367 14.7021C4.00869 14.7978 3.72112 14.7477 3.51367 14.5713C3.30643 14.3949 3.21127 14.1194 3.26465 13.8525L4.25098 8.91602C3.62399 8.11107 3.25 7.09935 3.25 6C3.25 3.37665 5.37665 1.25 8 1.25ZM10.4492 10.0703C9.73401 10.5016 8.89607 10.75 8 10.75C7.10363 10.75 6.26517 10.5019 5.5498 10.0703L5 12.8232L7.73633 11.7979L7.86719 11.7617C7.99924 11.738 8.13649 11.7502 8.26367 11.7979L10.999 12.8232L10.4492 10.0703ZM8 2.75C6.20507 2.75 4.75 4.20507 4.75 6C4.75 7.79493 6.20507 9.25 8 9.25C9.79493 9.25 11.25 7.79493 11.25 6C11.25 4.20507 9.79493 2.75 8 2.75Z" fill="currentColor"/></svg>