<svg width="16" height="16" viewBox="0 0 16 16" fill="none" xmlns="http://www.w3.org/2000/svg"><path d="M8 3.25C9.51878 3.25 10.75 4.48122 10.75 6V7.25H11C11.9665 7.25 12.75 8.0335 12.75 9V12C12.75 12.9665 11.9665 13.75 11 13.75H5C4.0335 13.75 3.25 12.9665 3.25 12V9C3.25 8.0335 4.0335 7.25 5 7.25H5.25V6C5.25 4.48122 6.48122 3.25 8 3.25ZM5 8.75C4.86193 8.75 4.75 8.86193 4.75 9V12C4.75 12.1381 4.86193 12.25 5 12.25H11C11.1381 12.25 11.25 12.1381 11.25 12V9C11.25 8.86193 11.1381 8.75 11 8.75H5ZM8 4.75C7.30964 4.75 6.75 5.30964 6.75 6V7.25H9.25V6C9.25 5.30964 8.69036 4.75 8 4.75Z" fill="currentColor"/></svg>