<svg width="16" height="16" viewBox="0 0 16 16" fill="none" xmlns="http://www.w3.org/2000/svg"><path d="M12.3828 2.38156L2.1362 5.14027C1.69764 5.25834 1.47837 5.31738 1.37629 5.44364C1.28726 5.55377 1.24911 5.6965 1.27131 5.83637C1.29677 5.99672 1.45734 6.1573 1.77849 6.47845L3.65399 8.35394C3.97403 8.67398 4.13405 8.834 4.32296 8.91022C4.48961 8.97746 4.6713 8.99854 4.84892 8.97126C5.05027 8.94034 5.24269 8.82122 5.62752 8.58299L8.14673 7.02348C8.62172 6.72944 8.85921 6.58242 8.96414 6.61106C9.05438 6.63569 9.12332 6.70864 9.14282 6.80012C9.1655 6.9065 9.00532 7.13532 8.68497 7.59297L7.06985 9.90029L7.06984 9.90029C6.79614 10.2913 6.65929 10.4868 6.61876 10.6954C6.58303 10.8794 6.59969 11.0696 6.66684 11.2445C6.74301 11.443 6.91176 11.6117 7.24924 11.9492L7.24925 11.9492L8.8723 13.5723C9.17895 13.8789 9.33228 14.0322 9.48845 14.0593C9.62479 14.0829 9.76482 14.0489 9.87522 13.9655C10.0017 13.8699 10.0678 13.6634 10.1999 13.2504L13.3527 3.39788C13.4984 2.94266 13.5712 2.71506 13.5167 2.55768C13.4693 2.42054 13.3645 2.3108 13.2297 2.25696C13.0751 2.19518 12.8443 2.25731 12.3828 2.38156Z" fill="currentColor"/></svg>