<svg width="16" height="16" viewBox="0 0 16 16" fill="none" xmlns="http://www.w3.org/2000/svg"><path d="M10.1191 8.35352C10.3293 8.35098 10.4849 8.43109 10.5283 8.45312C10.594 8.48645 10.6641 8.53075 10.6992 8.55273L15.0605 11.2842L15.0791 11.2949L15.0781 11.2959C15.1199 11.322 15.183 11.3599 15.2354 11.3994C15.2694 11.4251 15.4217 11.5362 15.5137 11.7402L15.5488 11.833L15.5732 11.9326C15.6153 12.166 15.5579 12.4087 15.4121 12.5996C15.2449 12.8184 15.0149 12.8832 14.9678 12.8975C14.8953 12.9194 14.81 12.9366 14.7637 12.9463L12.9609 13.3223L11.8564 15.0527C11.8296 15.0948 11.783 15.1698 11.7363 15.2305C11.7086 15.2666 11.5626 15.4658 11.291 15.5439C11.0236 15.6208 10.7353 15.5614 10.5195 15.3857C10.3002 15.2071 10.2437 14.9669 10.2324 14.9229C10.2134 14.8488 10.1996 14.7622 10.1914 14.7129L9.31836 9.47363C9.31155 9.43278 9.29755 9.35157 9.29199 9.27832C9.28783 9.22316 9.26982 9.00188 9.39941 8.77734L9.45312 8.69531C9.5897 8.51166 9.79569 8.38927 10.0254 8.35938L10.1191 8.35352ZM5 1.25C5.41421 1.25 5.75 1.58579 5.75 2V2.75H10.25V2C10.25 1.80109 10.3291 1.61038 10.4697 1.46973C10.6104 1.32907 10.8011 1.25 11 1.25H14C14.4142 1.25 14.75 1.58579 14.75 2V5C14.75 5.19891 14.6709 5.38962 14.5303 5.53027C14.3896 5.67093 14.1989 5.75 14 5.75H13.25V7.5C13.25 7.91421 12.9142 8.25 12.5 8.25C12.0858 8.25 11.75 7.91421 11.75 7.5V5.75H11C10.5858 5.75 10.25 5.41421 10.25 5V4.25H5.75V5C5.75 5.41421 5.41421 5.75 5 5.75H4.25V10.25H5C5.41421 10.25 5.75 10.5858 5.75 11V11.75H7.5C7.91421 11.75 8.25 12.0858 8.25 12.5C8.25 12.9142 7.91421 13.25 7.5 13.25H5.75V14C5.75 14.4142 5.41421 14.75 5 14.75H2C1.58579 14.75 1.25 14.4142 1.25 14V11C1.25 10.5858 1.58579 10.25 2 10.25H2.75V5.75H2C1.58579 5.75 1.25 5.41421 1.25 5V2C1.25 1.58579 1.58579 1.25 2 1.25H5ZM12.7119 13.374C12.7107 13.3743 12.7102 13.3749 12.71 13.375C12.7104 13.3749 12.712 13.3745 12.7139 13.374L12.7158 13.373C12.7143 13.3734 12.713 13.3738 12.7119 13.374ZM2.75 13.25H4.25V11.75H2.75V13.25ZM2.75 4.25H4.25V2.75H2.75V4.25ZM11.75 4.25H13.25V2.75H11.75V4.25Z" fill="currentColor"/></svg>