<svg width="16" height="16" viewBox="0 0 16 16" fill="none" xmlns="http://www.w3.org/2000/svg"><path d="M6.5918 2.35056C7.29122 1.40256 8.70872 1.40263 9.4082 2.35056C9.52732 2.51209 9.63652 2.75921 9.75195 3.00974C9.78574 3.08306 9.80544 3.12678 9.82129 3.15915C9.83602 3.18922 9.83966 3.19377 9.83691 3.18942C9.89335 3.2783 9.99978 3.32261 10.1025 3.29977C10.098 3.30082 10.1038 3.29961 10.1348 3.28903C10.1689 3.27734 10.2142 3.26039 10.29 3.23239C10.5488 3.13686 10.8006 3.0397 10.999 3.00974C12.164 2.83393 13.166 3.83601 12.9902 5.00095C12.9603 5.19936 12.8631 5.45119 12.7676 5.70993C12.7396 5.78581 12.7226 5.83108 12.7109 5.8652C12.7045 5.88397 12.7022 5.8938 12.7012 5.89743C12.6782 6.00024 12.7217 6.10654 12.8105 6.16306C12.8137 6.16487 12.8226 6.16977 12.8408 6.17868C12.8732 6.19453 12.917 6.21425 12.9902 6.24802C13.2408 6.36347 13.4879 6.47262 13.6494 6.59177C14.5975 7.29121 14.5975 8.70871 13.6494 9.40817C13.4879 9.52733 13.2408 9.63645 12.9902 9.75192C12.9168 9.78575 12.8732 9.8054 12.8408 9.82126C12.8226 9.83018 12.8137 9.83505 12.8105 9.83688C12.7216 9.89335 12.6783 9.9997 12.7012 10.1025C12.7022 10.106 12.7045 10.1159 12.7109 10.1347C12.7226 10.1689 12.7396 10.2142 12.7676 10.29C12.8631 10.5488 12.9603 10.8005 12.9902 10.999C13.1661 12.164 12.164 13.166 10.999 12.9902C10.8006 12.9602 10.5489 12.8631 10.29 12.7675C10.2142 12.7396 10.1689 12.7226 10.1348 12.7109C10.1159 12.7045 10.1061 12.7021 10.1025 12.7011C9.99973 12.6782 9.89338 12.7216 9.83691 12.8105C9.83508 12.8137 9.83021 12.8226 9.82129 12.8408C9.80543 12.8732 9.78576 12.9168 9.75195 12.9902C9.63648 13.2408 9.52736 13.4878 9.4082 13.6494C8.70874 14.5975 7.29124 14.5975 6.5918 13.6494C6.47265 13.4879 6.3635 13.2408 6.24805 12.9902C6.21428 12.9169 6.19456 12.8732 6.17871 12.8408C6.1698 12.8226 6.1649 12.8137 6.16309 12.8105C6.10658 12.7216 6.00027 12.6782 5.89746 12.7011C5.89383 12.7022 5.884 12.7045 5.86523 12.7109C5.83111 12.7226 5.78584 12.7395 5.70996 12.7675C5.45122 12.8631 5.19939 12.9602 5.00098 12.9902C3.83604 13.1659 2.83396 12.1639 3.00977 10.999C3.03973 10.8006 3.13689 10.5488 3.23242 10.29C3.26042 10.2141 3.27738 10.1689 3.28906 10.1347C3.29964 10.1038 3.30085 10.0979 3.2998 10.1025C3.32264 9.99975 3.27833 9.89332 3.18945 9.83688C3.1938 9.83963 3.18925 9.83599 3.15918 9.82126C3.12681 9.80541 3.08309 9.78571 3.00977 9.75192C2.75924 9.63648 2.51212 9.52729 2.35059 9.40817C1.40267 8.70869 1.40259 7.29119 2.35059 6.59177C2.51213 6.47261 2.75917 6.36349 3.00977 6.24802C3.0832 6.21418 3.12679 6.19454 3.15918 6.17868C3.17739 6.16976 3.18626 6.1649 3.18945 6.16306C3.27839 6.1066 3.3227 6.00024 3.2998 5.89743C3.30089 5.90224 3.29977 5.89649 3.28906 5.8652C3.27738 5.83109 3.26042 5.78577 3.23242 5.70993C3.13692 5.45123 3.03974 5.19934 3.00977 5.00095C2.83408 3.83608 3.83611 2.83404 5.00098 3.00974C5.19937 3.03971 5.45126 3.13689 5.70996 3.23239C5.7858 3.26039 5.83112 3.27735 5.86523 3.28903C5.89652 3.29974 5.90227 3.30086 5.89746 3.29977C6.00027 3.32267 6.10663 3.27836 6.16309 3.18942C6.16493 3.18622 6.16979 3.17736 6.17871 3.15915C6.19458 3.12675 6.21421 3.08317 6.24805 3.00974C6.36352 2.75913 6.47264 2.5121 6.5918 2.35056ZM8.20117 3.24118C8.10123 3.1058 7.89873 3.10575 7.79883 3.24118C7.81008 3.22593 7.80226 3.23348 7.76367 3.31149C7.72753 3.38458 7.6806 3.48522 7.61035 3.63766C7.5555 3.7567 7.49901 3.88385 7.42969 3.99313C7.03434 4.61615 6.29042 4.9245 5.57031 4.76364C5.44398 4.73538 5.31344 4.68502 5.19043 4.63962C5.0333 4.58162 4.92969 4.54365 4.85254 4.51755C4.76971 4.48953 4.75857 4.4903 4.77734 4.49313C4.6109 4.468 4.46803 4.61087 4.49316 4.77731C4.49033 4.75854 4.48956 4.76968 4.51758 4.85251C4.54368 4.92966 4.58165 5.03327 4.63965 5.1904C4.68505 5.3134 4.73541 5.44395 4.76367 5.57028C4.92453 6.29039 4.61618 7.03431 3.99316 7.42966C3.88387 7.49898 3.75674 7.55547 3.6377 7.61032C3.48525 7.68056 3.38462 7.7275 3.31152 7.76364C3.23351 7.80223 3.22596 7.81005 3.24121 7.7988C3.10578 7.8987 3.10584 8.1012 3.24121 8.20114C3.22606 8.18998 3.23339 8.19864 3.31152 8.23727C3.38461 8.27341 3.4853 8.3194 3.6377 8.38962C3.75676 8.44448 3.88387 8.50095 3.99316 8.57028C4.61637 8.96574 4.92483 9.71034 4.76367 10.4306C4.73539 10.5569 4.68503 10.6866 4.63965 10.8095C4.58164 10.9667 4.54369 11.0703 4.51758 11.1474C4.48961 11.2301 4.49034 11.2413 4.49316 11.2226C4.46809 11.389 4.61095 11.5329 4.77734 11.5078C4.75867 11.5106 4.76981 11.5104 4.85254 11.4824C4.9297 11.4563 5.03327 11.4183 5.19043 11.3603C5.31345 11.3149 5.44396 11.2655 5.57031 11.2373C6.29057 11.0763 7.03434 11.3845 7.42969 12.0078C7.49887 12.1169 7.55559 12.2434 7.61035 12.3623C7.68058 12.5147 7.72754 12.6154 7.76367 12.6884C7.80221 12.7664 7.80997 12.7739 7.79883 12.7588C7.89877 12.8941 8.10127 12.8942 8.20117 12.7588C8.18992 12.774 8.19858 12.7668 8.2373 12.6884C8.27344 12.6154 8.31943 12.5147 8.38965 12.3623C8.44441 12.2434 8.50113 12.1169 8.57031 12.0078C8.96573 11.3844 9.71028 11.0761 10.4307 11.2373C10.5569 11.2656 10.6867 11.315 10.8096 11.3603C10.9667 11.4183 11.0703 11.4563 11.1475 11.4824C11.23 11.5103 11.2413 11.5106 11.2227 11.5078C11.389 11.5328 11.5329 11.389 11.5078 11.2226C11.5106 11.2412 11.5104 11.23 11.4824 11.1474C11.4563 11.0703 11.4183 10.9667 11.3604 10.8095C11.315 10.6867 11.2656 10.5569 11.2373 10.4306C11.0761 9.71025 11.3845 8.9657 12.0078 8.57028C12.117 8.50109 12.2434 8.44439 12.3623 8.38962C12.5147 8.3194 12.6154 8.27341 12.6885 8.23727C12.7668 8.19854 12.774 8.18989 12.7588 8.20114C12.8942 8.10124 12.8941 7.89874 12.7588 7.7988C12.7739 7.80994 12.7664 7.80218 12.6885 7.76364C12.6154 7.72751 12.5147 7.68055 12.3623 7.61032C12.2435 7.55557 12.117 7.49883 12.0078 7.42966C11.3846 7.03431 11.0763 6.29054 11.2373 5.57028C11.2656 5.44393 11.3149 5.31342 11.3604 5.1904C11.4184 5.03324 11.4563 4.92967 11.4824 4.85251C11.5104 4.76978 11.5106 4.75864 11.5078 4.77731C11.5329 4.61092 11.389 4.46806 11.2227 4.49313C11.2413 4.49031 11.2301 4.48959 11.1475 4.51755C11.0703 4.54366 10.9667 4.58161 10.8096 4.63962C10.6866 4.685 10.5569 4.73536 10.4307 4.76364C9.71037 4.9248 8.96577 4.61634 8.57031 3.99313C8.50098 3.88384 8.44451 3.75673 8.38965 3.63766C8.31943 3.48527 8.27344 3.38458 8.2373 3.31149C8.19867 3.23336 8.19001 3.22603 8.20117 3.24118ZM8 5.24997C9.5187 5.25002 10.7499 6.48128 10.75 7.99997C10.75 9.51868 9.51871 10.7499 8 10.75C6.48131 10.7499 5.25005 9.51867 5.25 7.99997C5.25007 6.48129 6.48132 5.25004 8 5.24997ZM8 6.74997C7.30975 6.75004 6.75007 7.30972 6.75 7.99997C6.75005 8.69024 7.30974 9.2499 8 9.24997C8.69028 9.24992 9.24995 8.69025 9.25 7.99997C9.24993 7.3097 8.69027 6.75002 8 6.74997Z" fill="currentColor"/></svg>