<svg width="16" height="16" viewBox="0 0 16 16" fill="none" xmlns="http://www.w3.org/2000/svg"><path d="M8 1.25C11.7279 1.25 14.75 4.27208 14.75 8C14.75 11.7279 11.7279 14.75 8 14.75C4.27208 14.75 1.25 11.7279 1.25 8C1.25 4.27208 4.27208 1.25 8 1.25ZM8 2.75C5.1005 2.75 2.75 5.1005 2.75 8C2.75 10.8995 5.1005 13.25 8 13.25C10.8995 13.25 13.25 10.8995 13.25 8C13.25 5.1005 10.8995 2.75 8 2.75ZM8 4.25C8.41421 4.25 8.75 4.58579 8.75 5V7.68945L10.0303 8.96973L10.082 9.02637C10.3223 9.32095 10.3049 9.75567 10.0303 10.0303C9.75567 10.3049 9.32095 10.3223 9.02637 10.082L8.96973 10.0303L7.46973 8.53027C7.32907 8.38962 7.25 8.19891 7.25 8V5C7.25 4.58579 7.58579 4.25 8 4.25Z" fill="currentColor"/></svg>