<svg width="16" height="16" viewBox="0 0 16 16" fill="none" xmlns="http://www.w3.org/2000/svg"><path d="M9 2.25C9.41421 2.25 9.75 2.58579 9.75 3C9.75 3.08804 9.73197 3.17152 9.7041 3.25H14C14.4142 3.25 14.75 3.58579 14.75 4V13C14.75 13.4142 14.4142 13.75 14 13.75H2C1.58579 13.75 1.25 13.4142 1.25 13V4C1.25 3.58579 1.58579 3.25 2 3.25H6.2959C6.26803 3.17152 6.25 3.08804 6.25 3C6.25 2.58579 6.58579 2.25 7 2.25H9ZM2.75 12.25H13.25V8.75H10.75V9C10.75 9.41421 10.4142 9.75 10 9.75C9.58579 9.75 9.25 9.41421 9.25 9V8.75H6.75V9C6.75 9.41421 6.41421 9.75 6 9.75C5.58579 9.75 5.25 9.41421 5.25 9V8.75H2.75V12.25ZM2.75 7.25H5.25V7C5.25 6.58579 5.58579 6.25 6 6.25C6.41421 6.25 6.75 6.58579 6.75 7V7.25H9.25V7C9.25 6.58579 9.58579 6.25 10 6.25C10.4142 6.25 10.75 6.58579 10.75 7V7.25H13.25V4.75H2.75V7.25Z" fill="currentColor"/></svg>