<svg width="16" height="16" viewBox="0 0 16 16" fill="none" xmlns="http://www.w3.org/2000/svg"><path d="M2.25391 8.92285C2.29253 8.54488 2.61183 8.25 3 8.25C3.41421 8.25 3.75 8.58579 3.75 9L3.75 12C3.75 12.1381 3.86193 12.25 4 12.25L12 12.25C12.1381 12.25 12.25 12.1381 12.25 12L12.25 9C12.25 8.58579 12.5858 8.25 13 8.25C13.4142 8.25 13.75 8.58579 13.75 9L13.75 12C13.75 12.9665 12.9665 13.75 12 13.75L4 13.75C3.0335 13.75 2.25 12.9665 2.25 12L2.25 9L2.25391 8.92285ZM4.46973 6.53027C4.17683 6.23738 4.17683 5.76262 4.46973 5.46973L7.46973 2.46973L7.58398 2.37598C7.70628 2.29445 7.85085 2.25 8 2.25C8.19891 2.25 8.38962 2.32908 8.53027 2.46973L11.5303 5.46973L11.582 5.52637C11.8223 5.82095 11.8049 6.25567 11.5303 6.53027C11.2557 6.80488 10.8209 6.82234 10.5264 6.58203L10.4697 6.53027L8.75 4.81055L8.75 10C8.75 10.4142 8.41421 10.75 8 10.75C7.58579 10.75 7.25 10.4142 7.25 10L7.25 4.81055L5.53027 6.53027C5.23738 6.82317 4.76262 6.82316 4.46973 6.53027Z" fill="currentColor"/></svg>