<svg width="16" height="16" viewBox="0 0 16 16" fill="none" xmlns="http://www.w3.org/2000/svg"><g clip-path="url(#clip0_1716_1230)"><mask id="path-1-outside-1_1716_1230" maskUnits="userSpaceOnUse" x="-0.780029" y="0.33374" width="15" height="14" fill="black"><rect fill="white" x="-0.780029" y="0.33374" width="15" height="14"/><path d="M7.63599 5.69312C7.92882 5.40032 8.40364 5.40042 8.69653 5.69312L8.78735 5.78394C9.88852 6.88532 9.88859 8.67088 8.78735 9.77222L6.83618 11.7234C5.57739 12.9818 3.53634 12.9819 2.27759 11.7234L2.08325 11.5291C0.931925 10.3776 0.932044 8.51063 2.08325 7.35913C2.37607 7.0664 2.85091 7.06652 3.1438 7.35913C3.43636 7.65202 3.43651 8.12688 3.1438 8.41968C2.57838 8.98539 2.57826 9.90287 3.1438 10.4685L3.33813 10.6628C4.0111 11.3356 5.10263 11.3355 5.77563 10.6628L7.72681 8.71167C8.24226 8.19612 8.24219 7.36008 7.72681 6.84448L7.63599 6.75366C7.34333 6.4608 7.3433 5.98596 7.63599 5.69312ZM7.16333 2.27808C8.42214 1.01925 10.464 1.01931 11.7229 2.27808C12.9815 3.53686 12.9815 5.57788 11.7229 6.83667L11.4172 7.14233C11.1244 7.43492 10.6495 7.435 10.3567 7.14233C10.0639 6.84953 10.0641 6.37471 10.3567 6.08179L10.6624 5.77612C11.3351 5.10312 11.3351 4.01163 10.6624 3.33862C9.98935 2.66571 8.89789 2.66577 8.22485 3.33862L6.27368 5.28979C5.75837 5.80536 5.75836 6.64143 6.27368 7.15698L6.3645 7.2478C6.65719 7.5407 6.65731 8.01552 6.3645 8.30835C6.07166 8.60101 5.59681 8.60099 5.30396 8.30835L5.21313 8.21753C4.11195 7.11612 4.11182 5.3296 5.21313 4.22827L7.16333 2.27808Z"/></mask><path d="M7.63599 5.69312C7.92882 5.40032 8.40364 5.40042 8.69653 5.69312L8.78735 5.78394C9.88852 6.88532 9.88859 8.67088 8.78735 9.77222L6.83618 11.7234C5.57739 12.9818 3.53634 12.9819 2.27759 11.7234L2.08325 11.5291C0.931925 10.3776 0.932044 8.51063 2.08325 7.35913C2.37607 7.0664 2.85091 7.06652 3.1438 7.35913C3.43636 7.65202 3.43651 8.12688 3.1438 8.41968C2.57838 8.98539 2.57826 9.90287 3.1438 10.4685L3.33813 10.6628C4.0111 11.3356 5.10263 11.3355 5.77563 10.6628L7.72681 8.71167C8.24226 8.19612 8.24219 7.36008 7.72681 6.84448L7.63599 6.75366C7.34333 6.4608 7.3433 5.98596 7.63599 5.69312ZM7.16333 2.27808C8.42214 1.01925 10.464 1.01931 11.7229 2.27808C12.9815 3.53686 12.9815 5.57788 11.7229 6.83667L11.4172 7.14233C11.1244 7.43492 10.6495 7.435 10.3567 7.14233C10.0639 6.84953 10.0641 6.37471 10.3567 6.08179L10.6624 5.77612C11.3351 5.10312 11.3351 4.01163 10.6624 3.33862C9.98935 2.66571 8.89789 2.66577 8.22485 3.33862L6.27368 5.28979C5.75837 5.80536 5.75836 6.64143 6.27368 7.15698L6.3645 7.2478C6.65719 7.5407 6.65731 8.01552 6.3645 8.30835C6.07166 8.60101 5.59681 8.60099 5.30396 8.30835L5.21313 8.21753C4.11195 7.11612 4.11182 5.3296 5.21313 4.22827L7.16333 2.27808Z" fill="#E6E6E6"/><path d="M7.63599 5.69312L6.92892 4.98597L6.92869 4.9862L7.63599 5.69312ZM8.69653 5.69312L9.40364 4.98601L9.4034 4.98576L8.69653 5.69312ZM8.78735 5.78394L9.49453 5.0769L9.49446 5.07683L8.78735 5.78394ZM8.78735 9.77222L9.49446 10.4793L9.49449 10.4793L8.78735 9.77222ZM6.83618 11.7234L7.54319 12.4306L7.54329 12.4305L6.83618 11.7234ZM2.27759 11.7234L1.57048 12.4305L1.57054 12.4306L2.27759 11.7234ZM2.08325 11.5291L1.37611 12.2361L1.37615 12.2362L2.08325 11.5291ZM2.08325 7.35913L1.37625 6.65192L1.37606 6.65211L2.08325 7.35913ZM3.1438 7.35913L3.85131 6.65242L3.85058 6.65169L3.1438 7.35913ZM3.1438 8.41968L2.43659 7.71267L2.43651 7.71275L3.1438 8.41968ZM3.1438 10.4685L2.43663 11.1756L2.43669 11.1756L3.1438 10.4685ZM3.33813 10.6628L2.63103 11.3699L2.63114 11.3701L3.33813 10.6628ZM5.77563 10.6628L6.48256 11.3701L6.48274 11.3699L5.77563 10.6628ZM7.72681 8.71167L8.43391 9.41878L8.43398 9.41871L7.72681 8.71167ZM7.72681 6.84448L8.43406 6.13752L8.43391 6.13738L7.72681 6.84448ZM7.63599 6.75366L6.92864 7.46053L6.92888 7.46077L7.63599 6.75366ZM7.16333 2.27808L7.87044 2.98518L7.87044 2.98518L7.16333 2.27808ZM11.7229 2.27808L12.4301 1.57103L12.43 1.57094L11.7229 2.27808ZM11.7229 6.83667L12.43 7.54378L12.4301 7.54371L11.7229 6.83667ZM11.4172 7.14233L12.124 7.84978L12.1243 7.84944L11.4172 7.14233ZM10.3567 7.14233L9.64959 7.84945L9.64976 7.84962L10.3567 7.14233ZM10.3567 6.08179L9.64958 5.37468L9.64923 5.37504L10.3567 6.08179ZM10.6624 5.77612L11.3695 6.48323L11.3696 6.48312L10.6624 5.77612ZM10.6624 3.33862L11.3696 2.63164L11.3694 2.63147L10.6624 3.33862ZM8.22485 3.33862L7.51785 2.63142L7.51775 2.63152L8.22485 3.33862ZM6.27368 5.28979L5.56658 4.58269L5.5664 4.58286L6.27368 5.28979ZM6.27368 7.15698L5.56642 7.86393L5.56658 7.86409L6.27368 7.15698ZM6.3645 7.2478L7.07187 6.54095L7.07161 6.5407L6.3645 7.2478ZM6.3645 8.30835L7.07139 9.01567L7.07164 9.01543L6.3645 8.30835ZM5.30396 8.30835L4.59685 9.01546L4.59711 9.01571L5.30396 8.30835ZM5.21313 8.21753L4.50595 8.92456L4.50603 8.92464L5.21313 8.21753ZM5.21313 4.22827L4.50603 3.52116L4.50602 3.52117L5.21313 4.22827ZM7.63599 5.69312L8.34305 6.40026C8.24517 6.49814 8.08704 6.49777 7.98967 6.40047L8.69653 5.69312L9.4034 4.98576C8.72023 4.30307 7.61247 4.3025 6.92892 4.98597L7.63599 5.69312ZM8.69653 5.69312L7.98943 6.40022L8.08025 6.49104L8.78735 5.78394L9.49446 5.07683L9.40364 4.98601L8.69653 5.69312ZM8.78735 5.78394L8.08018 6.49097C8.79095 7.20188 8.79093 8.35436 8.08021 9.06514L8.78735 9.77222L9.49449 10.4793C10.9862 8.9874 10.9861 6.56875 9.49453 5.0769L8.78735 5.78394ZM8.78735 9.77222L8.08025 9.06511L6.12908 11.0163L6.83618 11.7234L7.54329 12.4305L9.49446 10.4793L8.78735 9.77222ZM6.83618 11.7234L6.12917 11.0162C5.26084 11.8843 3.85284 11.8843 2.98463 11.0162L2.27759 11.7234L1.57054 12.4306C3.21984 14.0796 5.89393 14.0794 7.54319 12.4306L6.83618 11.7234ZM2.27759 11.7234L2.98469 11.0163L2.79036 10.8219L2.08325 11.5291L1.37615 12.2362L1.57048 12.4305L2.27759 11.7234ZM2.08325 11.5291L2.79039 10.822C2.0296 10.0611 2.02959 8.8272 2.79045 8.06615L2.08325 7.35913L1.37606 6.65211C-0.165498 8.19406 -0.165755 10.6941 1.37611 12.2361L2.08325 11.5291ZM2.08325 7.35913L2.79026 8.06634C2.69234 8.16422 2.53435 8.16381 2.43702 8.06657L3.1438 7.35913L3.85058 6.65169C3.16747 5.96922 2.05979 5.96857 1.37625 6.65192L2.08325 7.35913ZM3.1438 7.35913L2.43629 8.06584C2.33916 7.9686 2.33862 7.81067 2.43659 7.71267L3.1438 8.41968L3.85101 9.12668C4.53441 8.44309 4.53356 7.33545 3.85131 6.65242L3.1438 7.35913ZM3.1438 8.41968L2.43651 7.71275C1.48092 8.66883 1.48053 10.2193 2.43663 11.1756L3.1438 10.4685L3.85097 9.76146C3.67599 9.58645 3.67583 9.30195 3.85109 9.1266L3.1438 8.41968ZM3.1438 10.4685L2.43669 11.1756L2.63103 11.3699L3.33813 10.6628L4.04524 9.95574L3.85091 9.7614L3.1438 10.4685ZM3.33813 10.6628L2.63114 11.3701C3.69467 12.4332 5.41913 12.433 6.48256 11.3701L5.77563 10.6628L5.06871 9.95555C4.78612 10.238 4.32753 10.2379 4.04512 9.95562L3.33813 10.6628ZM5.77563 10.6628L6.48274 11.3699L8.43391 9.41878L7.72681 8.71167L7.0197 8.00456L5.06853 9.95574L5.77563 10.6628ZM7.72681 8.71167L8.43398 9.41871C9.33994 8.51257 9.3397 7.04353 8.43406 6.13752L7.72681 6.84448L7.01955 7.55144C7.14468 7.67662 7.14457 7.87966 7.01963 8.00463L7.72681 8.71167ZM7.72681 6.84448L8.43391 6.13738L8.34309 6.04656L7.63599 6.75366L6.92888 7.46077L7.0197 7.55159L7.72681 6.84448ZM7.63599 6.75366L8.34334 6.0468C8.44082 6.14435 8.44092 6.30234 8.34328 6.40003L7.63599 5.69312L6.92869 4.9862C6.24567 5.66958 6.24583 6.77725 6.92864 7.46053L7.63599 6.75366ZM7.16333 2.27808L7.87044 2.98518C8.7387 2.11691 10.1475 2.11691 11.0158 2.98521L11.7229 2.27808L12.43 1.57094C10.7806 -0.0782802 8.10559 -0.0784121 6.45622 1.57097L7.16333 2.27808ZM11.7229 2.27808L11.0157 2.98512C11.8838 3.85339 11.8838 5.26135 11.0157 6.12963L11.7229 6.83667L12.4301 7.54371C14.0791 5.89441 14.0791 3.22033 12.4301 1.57103L11.7229 2.27808ZM11.7229 6.83667L11.0158 6.12956L10.7101 6.43523L11.4172 7.14233L12.1243 7.84944L12.43 7.54378L11.7229 6.83667ZM11.4172 7.14233L10.7105 6.43489C10.8079 6.33756 10.9658 6.33728 11.0636 6.43505L10.3567 7.14233L9.64976 7.84962C10.3332 8.53273 11.4408 8.53229 12.124 7.84978L11.4172 7.14233ZM10.3567 7.14233L11.0638 6.43522C11.1619 6.53331 11.1612 6.69138 11.0642 6.78854L10.3567 6.08179L9.64923 5.37504C8.96692 6.05803 8.96588 7.16576 9.64959 7.84945L10.3567 7.14233ZM10.3567 6.08179L11.0638 6.78889L11.3695 6.48323L10.6624 5.77612L9.95525 5.06902L9.64958 5.37468L10.3567 6.08179ZM10.6624 5.77612L11.3696 6.48312C12.4327 5.41961 12.4327 3.69513 11.3696 2.63164L10.6624 3.33862L9.95513 4.04561C10.2375 4.32812 10.2375 4.78663 9.95513 5.06913L10.6624 5.77612ZM10.6624 3.33862L11.3694 2.63147C10.3058 1.56804 8.58134 1.56823 7.51785 2.63142L8.22485 3.33862L8.93186 4.04583C9.21445 3.76332 9.67286 3.76338 9.95529 4.04578L10.6624 3.33862ZM8.22485 3.33862L7.51775 2.63152L5.56658 4.58269L6.27368 5.28979L6.98079 5.9969L8.93196 4.04573L8.22485 3.33862ZM6.27368 5.28979L5.5664 4.58286C4.66082 5.48889 4.66077 6.95787 5.56642 7.86393L6.27368 7.15698L6.98095 6.45003C6.85595 6.32499 6.85593 6.12182 6.98096 5.99673L6.27368 5.28979ZM6.27368 7.15698L5.56658 7.86409L5.6574 7.95491L6.3645 7.2478L7.07161 6.5407L6.98079 6.44988L6.27368 7.15698ZM6.3645 7.2478L5.65714 7.95465C5.55987 7.85731 5.55946 7.69919 5.65736 7.60127L6.3645 8.30835L7.07164 9.01543C7.75515 8.33185 7.75451 7.22409 7.07187 6.54095L6.3645 7.2478ZM6.3645 8.30835L5.65761 7.60103C5.75529 7.50341 5.91323 7.50349 6.0108 7.60099L5.30396 8.30835L4.59711 9.01571C5.28038 9.6985 6.38804 9.69861 7.07139 9.01567L6.3645 8.30835ZM5.30396 8.30835L6.01106 7.60124L5.92024 7.51042L5.21313 8.21753L4.50603 8.92464L4.59685 9.01546L5.30396 8.30835ZM5.21313 8.21753L5.92032 7.5105C5.20949 6.79952 5.20952 5.64611 5.92025 4.93537L5.21313 4.22827L4.50602 3.52117C3.01412 5.01309 3.01442 7.43271 4.50595 8.92456L5.21313 8.21753ZM5.21313 4.22827L5.92024 4.93538L7.87044 2.98518L7.16333 2.27808L6.45622 1.57097L4.50603 3.52116L5.21313 4.22827Z" fill="#E6E6E6" mask="url(#path-1-outside-1_1716_1230)"/><mask id="path-3-outside-2_1716_1230" maskUnits="userSpaceOnUse" x="8.00098" y="8" width="8" height="8" fill="black"><rect fill="white" x="8.00098" y="8" width="8" height="8"/><path d="M11.75 9C12.1642 9 12.501 9.33579 12.501 9.75V11H13.751C14.165 11.0003 14.501 11.3359 14.501 11.75C14.501 12.1642 14.1642 12.5 13.75 12.5H12.501V13.75C12.501 14.1641 12.165 14.4997 11.751 14.5C11.3368 14.5 11.001 14.1642 11.001 13.75V12.5H9.75C9.33602 12.4997 9.001 12.164 9.00098 11.75C9.00098 11.3358 9.33676 11 9.75098 11H11.001V9.75C11.001 9.33595 11.336 9.00026 11.75 9Z"/></mask><path d="M11.75 9C12.1642 9 12.501 9.33579 12.501 9.75V11H13.751C14.165 11.0003 14.501 11.3359 14.501 11.75C14.501 12.1642 14.1642 12.5 13.75 12.5H12.501V13.75C12.501 14.1641 12.165 14.4997 11.751 14.5C11.3368 14.5 11.001 14.1642 11.001 13.75V12.5H9.75C9.33602 12.4997 9.001 12.164 9.00098 11.75C9.00098 11.3358 9.33676 11 9.75098 11H11.001V9.75C11.001 9.33595 11.336 9.00026 11.75 9Z" fill="#333333"/><path d="M11.75 9V8L11.7494 8L11.75 9ZM12.501 9.75H13.501H12.501ZM12.501 11H11.501V12H12.501V11ZM13.751 11L13.7516 10H13.751V11ZM14.501 11.75L15.501 11.75V11.75H14.501ZM13.75 12.5V11.5V11.5V12.5ZM12.501 12.5V11.5H11.501V12.5H12.501ZM12.501 13.75H11.501H12.501ZM11.751 14.5V15.5H11.7516L11.751 14.5ZM11.001 13.75H10.001H11.001ZM11.001 12.5H12.001V11.5H11.001V12.5ZM9.75 12.5L9.74936 13.5H9.75V12.5ZM9.00098 11.75H8.00098V11.75L9.00098 11.75ZM9.75098 11L9.75098 12H9.75098V11ZM11.001 11V12H12.001V11H11.001ZM11.001 9.75H12.001H11.001ZM11.75 9V10C11.6136 10 11.501 9.88976 11.501 9.75H12.501H13.501C13.501 8.78181 12.7148 8 11.75 8V9ZM12.501 9.75H11.501V11H12.501H13.501V9.75H12.501ZM12.501 11V12H13.751V11V10H12.501V11ZM13.751 11L13.7503 12C13.6132 11.9999 13.501 11.8889 13.501 11.75H14.501H15.501C15.501 10.783 14.7168 10.0006 13.7516 10L13.751 11ZM14.501 11.75L13.501 11.75C13.501 11.6103 13.6136 11.5 13.75 11.5V12.5V13.5C14.7148 13.5 15.5009 12.7181 15.501 11.75L14.501 11.75ZM13.75 12.5V11.5H12.501V12.5V13.5H13.75V12.5ZM12.501 12.5H11.501V13.75H12.501H13.501V12.5H12.501ZM12.501 13.75H11.501C11.501 13.6111 11.6132 13.5001 11.7503 13.5L11.751 14.5L11.7516 15.5C12.7168 15.4994 13.501 14.717 13.501 13.75H12.501ZM11.751 14.5V13.5C11.889 13.5 12.001 13.6119 12.001 13.75H11.001H10.001C10.001 14.7165 10.7845 15.5 11.751 15.5V14.5ZM11.001 13.75H12.001V12.5H11.001H10.001V13.75H11.001ZM11.001 12.5V11.5H9.75V12.5V13.5H11.001V12.5ZM9.75 12.5L9.75064 11.5C9.88956 11.5001 10.001 11.6128 10.001 11.75L9.00098 11.75L8.00098 11.75C8.00102 12.7152 8.78249 13.4994 9.74936 13.5L9.75 12.5ZM9.00098 11.75H10.001C10.001 11.8881 9.88905 12 9.75098 12L9.75098 11L9.75098 10C8.78448 10 8.00098 10.7835 8.00098 11.75H9.00098ZM9.75098 11V12H11.001V11V10H9.75098V11ZM11.001 11H12.001V9.75H11.001H10.001V11H11.001ZM11.001 9.75H12.001C12.001 9.88717 11.8895 9.99991 11.7506 10L11.75 9L11.7494 8C10.7825 8.00062 10.001 8.78473 10.001 9.75H11.001Z" fill="#E6E6E6" mask="url(#path-3-outside-2_1716_1230)"/><path d="M7.63596 5.69339C7.92882 5.40052 8.4036 5.40057 8.6965 5.69339L8.78732 5.78421C9.88842 6.88563 9.88862 8.67119 8.78732 9.77249L6.83615 11.7227C5.57731 12.9815 3.53639 12.9815 2.27756 11.7227L2.08322 11.5293C0.931806 10.3779 0.931984 8.50995 2.08322 7.35843C2.37604 7.06604 2.85098 7.06599 3.14377 7.35843C3.43666 7.65132 3.43666 8.12706 3.14377 8.41995C2.57841 8.9857 2.57817 9.90318 3.14377 10.4688L3.3381 10.6621C4.01115 11.3352 5.10255 11.3352 5.7756 10.6621L7.72678 8.71194C8.24229 8.19643 8.24208 7.36039 7.72678 6.84475L7.63596 6.75393C7.34324 6.46113 7.34337 5.98628 7.63596 5.69339ZM7.16428 2.27835C8.42309 1.01954 10.464 1.01959 11.7229 2.27835C12.9814 3.5372 12.9816 5.5782 11.7229 6.83694L11.4172 7.14163C11.1243 7.43452 10.6496 7.43449 10.3567 7.14163C10.064 6.84872 10.0639 6.37389 10.3567 6.08108L10.6623 5.77639C11.3352 5.10344 11.335 4.01196 10.6623 3.33889C9.98926 2.66592 8.89785 2.66588 8.22482 3.33889L6.27365 5.28909C5.75816 5.80459 5.75839 6.64064 6.27365 7.15628L6.36447 7.24807C6.65714 7.54098 6.65727 8.0158 6.36447 8.30862C6.07162 8.60111 5.59672 8.60119 5.30392 8.30862L5.2131 8.21682C4.11206 7.1154 4.11183 5.32983 5.2131 4.22854L7.16428 2.27835Z" fill="#D97824"/></g><defs><clipPath id="clip0_1716_1230"><rect width="16" height="16" fill="white"/></clipPath></defs></svg>