<svg width="16" height="16" viewBox="0 0 16 16" fill="none" xmlns="http://www.w3.org/2000/svg"><g clip-path="url(#clip0_1726_1383)"><mask id="path-1-outside-1_1726_1383" maskUnits="userSpaceOnUse" x="0.75" y="0.75" width="13" height="13" fill="black"><rect fill="white" x="0.75" y="0.75" width="13" height="13"/><path d="M10 1.75C11.2426 1.75 12.25 2.75736 12.25 4C12.25 5.24264 11.2426 6.25 10 6.25H8.81055L6.25 8.81055V10C6.25 11.2426 5.24264 12.25 4 12.25C2.75736 12.25 1.75 11.2426 1.75 10C1.75 8.75736 2.75736 7.75 4 7.75H5.18945L7.75 5.18945V4C7.75 2.75736 8.75736 1.75 10 1.75ZM4 9.25C3.58579 9.25 3.25 9.58579 3.25 10C3.25 10.4142 3.58579 10.75 4 10.75C4.41421 10.75 4.75 10.4142 4.75 10V9.25H4ZM10 3.25C9.58579 3.25 9.25 3.58579 9.25 4V4.75H10C10.4142 4.75 10.75 4.41421 10.75 4C10.75 3.58579 10.4142 3.25 10 3.25Z"/></mask><path d="M10 1.75C11.2426 1.75 12.25 2.75736 12.25 4C12.25 5.24264 11.2426 6.25 10 6.25H8.81055L6.25 8.81055V10C6.25 11.2426 5.24264 12.25 4 12.25C2.75736 12.25 1.75 11.2426 1.75 10C1.75 8.75736 2.75736 7.75 4 7.75H5.18945L7.75 5.18945V4C7.75 2.75736 8.75736 1.75 10 1.75ZM4 9.25C3.58579 9.25 3.25 9.58579 3.25 10C3.25 10.4142 3.58579 10.75 4 10.75C4.41421 10.75 4.75 10.4142 4.75 10V9.25H4ZM10 3.25C9.58579 3.25 9.25 3.58579 9.25 4V4.75H10C10.4142 4.75 10.75 4.41421 10.75 4C10.75 3.58579 10.4142 3.25 10 3.25Z" fill="#E6E6E6"/><path d="M8.81055 6.25V5.25H8.39633L8.10344 5.54289L8.81055 6.25ZM6.25 8.81055L5.54289 8.10344L5.25 8.39633V8.81055H6.25ZM5.18945 7.75V8.75H5.60367L5.89656 8.45711L5.18945 7.75ZM7.75 5.18945L8.45711 5.89656L8.75 5.60367V5.18945H7.75ZM4.75 9.25H5.75V8.25H4.75V9.25ZM9.25 4.75H8.25V5.75H9.25V4.75ZM10 1.75V2.75C10.6904 2.75 11.25 3.30964 11.25 4H12.25H13.25C13.25 2.20507 11.7949 0.75 10 0.75V1.75ZM12.25 4H11.25C11.25 4.69036 10.6904 5.25 10 5.25V6.25V7.25C11.7949 7.25 13.25 5.79493 13.25 4H12.25ZM10 6.25V5.25H8.81055V6.25V7.25H10V6.25ZM8.81055 6.25L8.10344 5.54289L5.54289 8.10344L6.25 8.81055L6.95711 9.51765L9.51765 6.95711L8.81055 6.25ZM6.25 8.81055H5.25V10H6.25H7.25V8.81055H6.25ZM6.25 10H5.25C5.25 10.6904 4.69036 11.25 4 11.25V12.25V13.25C5.79493 13.25 7.25 11.7949 7.25 10H6.25ZM4 12.25V11.25C3.30964 11.25 2.75 10.6904 2.75 10H1.75H0.75C0.75 11.7949 2.20507 13.25 4 13.25V12.25ZM1.75 10H2.75C2.75 9.30964 3.30964 8.75 4 8.75V7.75V6.75C2.20507 6.75 0.75 8.20507 0.75 10H1.75ZM4 7.75V8.75H5.18945V7.75V6.75H4V7.75ZM5.18945 7.75L5.89656 8.45711L8.45711 5.89656L7.75 5.18945L7.04289 4.48235L4.48235 7.04289L5.18945 7.75ZM7.75 5.18945H8.75V4H7.75H6.75V5.18945H7.75ZM7.75 4H8.75C8.75 3.30964 9.30964 2.75 10 2.75V1.75V0.75C8.20507 0.75 6.75 2.20507 6.75 4H7.75ZM4 9.25V8.25C3.0335 8.25 2.25 9.0335 2.25 10H3.25H4.25C4.25 10.1381 4.13807 10.25 4 10.25V9.25ZM3.25 10H2.25C2.25 10.9665 3.0335 11.75 4 11.75V10.75V9.75C4.13807 9.75 4.25 9.86193 4.25 10H3.25ZM4 10.75V11.75C4.9665 11.75 5.75 10.9665 5.75 10H4.75H3.75C3.75 9.86193 3.86193 9.75 4 9.75V10.75ZM4.75 10H5.75V9.25H4.75H3.75V10H4.75ZM4.75 9.25V8.25H4V9.25V10.25H4.75V9.25ZM10 3.25V2.25C9.0335 2.25 8.25 3.0335 8.25 4H9.25H10.25C10.25 4.13807 10.1381 4.25 10 4.25V3.25ZM9.25 4H8.25V4.75H9.25H10.25V4H9.25ZM9.25 4.75V5.75H10V4.75V3.75H9.25V4.75ZM10 4.75V5.75C10.9665 5.75 11.75 4.9665 11.75 4H10.75H9.75C9.75 3.86193 9.86193 3.75 10 3.75V4.75ZM10.75 4H11.75C11.75 3.0335 10.9665 2.25 10 2.25V3.25V4.25C9.86193 4.25 9.75 4.13807 9.75 4H10.75Z" fill="#E6E6E6" mask="url(#path-1-outside-1_1726_1383)"/><path d="M9.46979 3.46997C9.76267 3.17709 10.2374 3.17711 10.5303 3.46997C10.8231 3.76288 10.8232 4.23767 10.5303 4.53052L4.53033 10.5305C4.23748 10.8233 3.76267 10.8233 3.46979 10.5305C3.17691 10.2376 3.17695 9.76287 3.46979 9.46997L9.46979 3.46997Z" fill="#3B6DE6"/><path d="M2.5 10C2.5 9.17157 3.17157 8.5 4 8.5C4.82843 8.5 5.5 9.17157 5.5 10C5.5 10.8284 4.82843 11.5 4 11.5C3.17157 11.5 2.5 10.8284 2.5 10Z" fill="#FDFDFD"/><path d="M8.5 4C8.5 3.17157 9.17157 2.5 10 2.5C10.8284 2.5 11.5 3.17157 11.5 4C11.5 4.82843 10.8284 5.5 10 5.5C9.17157 5.5 8.5 4.82843 8.5 4Z" fill="#FDFDFD"/><path d="M2.5 10C2.5 9.17157 3.17157 8.5 4 8.5C4.82843 8.5 5.5 9.17157 5.5 10C5.5 10.8284 4.82843 11.5 4 11.5C3.17157 11.5 2.5 10.8284 2.5 10Z" stroke="#333333" stroke-width="1.5" stroke-linecap="round" stroke-linejoin="round"/><path d="M8.5 4C8.5 3.17157 9.17157 2.5 10 2.5C10.8284 2.5 11.5 3.17157 11.5 4C11.5 4.82843 10.8284 5.5 10 5.5C9.17157 5.5 8.5 4.82843 8.5 4Z" stroke="#333333" stroke-width="1.5" stroke-linecap="round" stroke-linejoin="round"/><mask id="path-5-outside-2_1726_1383" maskUnits="userSpaceOnUse" x="8.00098" y="8" width="8" height="8" fill="black"><rect fill="white" x="8.00098" y="8" width="8" height="8"/><path d="M11.75 9C12.1642 9 12.501 9.33579 12.501 9.75V11H13.751C14.165 11.0003 14.501 11.3359 14.501 11.75C14.501 12.1642 14.1642 12.5 13.75 12.5H12.501V13.75C12.501 14.1641 12.165 14.4997 11.751 14.5C11.3368 14.5 11.001 14.1642 11.001 13.75V12.5H9.75C9.33602 12.4997 9.001 12.164 9.00098 11.75C9.00098 11.3358 9.33676 11 9.75098 11H11.001V9.75C11.001 9.33595 11.336 9.00026 11.75 9Z"/></mask><path d="M11.75 9C12.1642 9 12.501 9.33579 12.501 9.75V11H13.751C14.165 11.0003 14.501 11.3359 14.501 11.75C14.501 12.1642 14.1642 12.5 13.75 12.5H12.501V13.75C12.501 14.1641 12.165 14.4997 11.751 14.5C11.3368 14.5 11.001 14.1642 11.001 13.75V12.5H9.75C9.33602 12.4997 9.001 12.164 9.00098 11.75C9.00098 11.3358 9.33676 11 9.75098 11H11.001V9.75C11.001 9.33595 11.336 9.00026 11.75 9Z" fill="#333333"/><path d="M11.75 9V8L11.7494 8L11.75 9ZM12.501 9.75H13.501H12.501ZM12.501 11H11.501V12H12.501V11ZM13.751 11L13.7516 10H13.751V11ZM14.501 11.75L15.501 11.75V11.75H14.501ZM13.75 12.5V11.5V11.5V12.5ZM12.501 12.5V11.5H11.501V12.5H12.501ZM12.501 13.75H11.501H12.501ZM11.751 14.5V15.5H11.7516L11.751 14.5ZM11.001 13.75H10.001H11.001ZM11.001 12.5H12.001V11.5H11.001V12.5ZM9.75 12.5L9.74936 13.5H9.75V12.5ZM9.00098 11.75H8.00098V11.75L9.00098 11.75ZM9.75098 11L9.75098 12H9.75098V11ZM11.001 11V12H12.001V11H11.001ZM11.001 9.75H12.001H11.001ZM11.75 9V10C11.6136 10 11.501 9.88976 11.501 9.75H12.501H13.501C13.501 8.78181 12.7148 8 11.75 8V9ZM12.501 9.75H11.501V11H12.501H13.501V9.75H12.501ZM12.501 11V12H13.751V11V10H12.501V11ZM13.751 11L13.7503 12C13.6132 11.9999 13.501 11.8889 13.501 11.75H14.501H15.501C15.501 10.783 14.7168 10.0006 13.7516 10L13.751 11ZM14.501 11.75L13.501 11.75C13.501 11.6103 13.6136 11.5 13.75 11.5V12.5V13.5C14.7148 13.5 15.5009 12.7181 15.501 11.75L14.501 11.75ZM13.75 12.5V11.5H12.501V12.5V13.5H13.75V12.5ZM12.501 12.5H11.501V13.75H12.501H13.501V12.5H12.501ZM12.501 13.75H11.501C11.501 13.6111 11.6132 13.5001 11.7503 13.5L11.751 14.5L11.7516 15.5C12.7168 15.4994 13.501 14.717 13.501 13.75H12.501ZM11.751 14.5V13.5C11.889 13.5 12.001 13.6119 12.001 13.75H11.001H10.001C10.001 14.7165 10.7845 15.5 11.751 15.5V14.5ZM11.001 13.75H12.001V12.5H11.001H10.001V13.75H11.001ZM11.001 12.5V11.5H9.75V12.5V13.5H11.001V12.5ZM9.75 12.5L9.75064 11.5C9.88956 11.5001 10.001 11.6128 10.001 11.75L9.00098 11.75L8.00098 11.75C8.00102 12.7152 8.78249 13.4994 9.74936 13.5L9.75 12.5ZM9.00098 11.75H10.001C10.001 11.8881 9.88905 12 9.75098 12L9.75098 11L9.75098 10C8.78448 10 8.00098 10.7835 8.00098 11.75H9.00098ZM9.75098 11V12H11.001V11V10H9.75098V11ZM11.001 11H12.001V9.75H11.001H10.001V11H11.001ZM11.001 9.75H12.001C12.001 9.88717 11.8895 9.99991 11.7506 10L11.75 9L11.7494 8C10.7825 8.00062 10.001 8.78473 10.001 9.75H11.001Z" fill="#E6E6E6" mask="url(#path-5-outside-2_1726_1383)"/></g><defs><clipPath id="clip0_1726_1383"><rect width="16" height="16" fill="white"/></clipPath></defs></svg>