<svg width="16" height="16" viewBox="0 0 16 16" fill="none" xmlns="http://www.w3.org/2000/svg"><g clip-path="url(#clip0_1726_1439)"><mask id="path-1-outside-1_1726_1439" maskUnits="userSpaceOnUse" x="0.75" y="0.75" width="13" height="13" fill="black"><rect fill="white" x="0.75" y="0.75" width="13" height="13"/><path d="M10 1.75C11.2426 1.75 12.25 2.75736 12.25 4C12.25 5.24264 11.2426 6.25 10 6.25H8.81055L6.25 8.81055V10C6.25 11.2426 5.24264 12.25 4 12.25C2.75736 12.25 1.75 11.2426 1.75 10C1.75 8.75736 2.75736 7.75 4 7.75H5.18945L7.75 5.18945V4C7.75 2.75736 8.75736 1.75 10 1.75ZM4 9.25C3.58579 9.25 3.25 9.58579 3.25 10C3.25 10.4142 3.58579 10.75 4 10.75C4.41421 10.75 4.75 10.4142 4.75 10V9.25H4ZM10 3.25C9.58579 3.25 9.25 3.58579 9.25 4V4.75H10C10.4142 4.75 10.75 4.41421 10.75 4C10.75 3.58579 10.4142 3.25 10 3.25Z"/></mask><path d="M10 1.75C11.2426 1.75 12.25 2.75736 12.25 4C12.25 5.24264 11.2426 6.25 10 6.25H8.81055L6.25 8.81055V10C6.25 11.2426 5.24264 12.25 4 12.25C2.75736 12.25 1.75 11.2426 1.75 10C1.75 8.75736 2.75736 7.75 4 7.75H5.18945L7.75 5.18945V4C7.75 2.75736 8.75736 1.75 10 1.75ZM4 9.25C3.58579 9.25 3.25 9.58579 3.25 10C3.25 10.4142 3.58579 10.75 4 10.75C4.41421 10.75 4.75 10.4142 4.75 10V9.25H4ZM10 3.25C9.58579 3.25 9.25 3.58579 9.25 4V4.75H10C10.4142 4.75 10.75 4.41421 10.75 4C10.75 3.58579 10.4142 3.25 10 3.25Z" fill="#E6E6E6"/><path d="M8.81055 6.25V5.25H8.39633L8.10344 5.54289L8.81055 6.25ZM6.25 8.81055L5.54289 8.10344L5.25 8.39633V8.81055H6.25ZM5.18945 7.75V8.75H5.60367L5.89656 8.45711L5.18945 7.75ZM7.75 5.18945L8.45711 5.89656L8.75 5.60367V5.18945H7.75ZM4.75 9.25H5.75V8.25H4.75V9.25ZM9.25 4.75H8.25V5.75H9.25V4.75ZM10 1.75V2.75C10.6904 2.75 11.25 3.30964 11.25 4H12.25H13.25C13.25 2.20507 11.7949 0.75 10 0.75V1.75ZM12.25 4H11.25C11.25 4.69036 10.6904 5.25 10 5.25V6.25V7.25C11.7949 7.25 13.25 5.79493 13.25 4H12.25ZM10 6.25V5.25H8.81055V6.25V7.25H10V6.25ZM8.81055 6.25L8.10344 5.54289L5.54289 8.10344L6.25 8.81055L6.95711 9.51765L9.51765 6.95711L8.81055 6.25ZM6.25 8.81055H5.25V10H6.25H7.25V8.81055H6.25ZM6.25 10H5.25C5.25 10.6904 4.69036 11.25 4 11.25V12.25V13.25C5.79493 13.25 7.25 11.7949 7.25 10H6.25ZM4 12.25V11.25C3.30964 11.25 2.75 10.6904 2.75 10H1.75H0.75C0.75 11.7949 2.20507 13.25 4 13.25V12.25ZM1.75 10H2.75C2.75 9.30964 3.30964 8.75 4 8.75V7.75V6.75C2.20507 6.75 0.75 8.20507 0.75 10H1.75ZM4 7.75V8.75H5.18945V7.75V6.75H4V7.75ZM5.18945 7.75L5.89656 8.45711L8.45711 5.89656L7.75 5.18945L7.04289 4.48235L4.48235 7.04289L5.18945 7.75ZM7.75 5.18945H8.75V4H7.75H6.75V5.18945H7.75ZM7.75 4H8.75C8.75 3.30964 9.30964 2.75 10 2.75V1.75V0.75C8.20507 0.75 6.75 2.20507 6.75 4H7.75ZM4 9.25V8.25C3.0335 8.25 2.25 9.0335 2.25 10H3.25H4.25C4.25 10.1381 4.13807 10.25 4 10.25V9.25ZM3.25 10H2.25C2.25 10.9665 3.0335 11.75 4 11.75V10.75V9.75C4.13807 9.75 4.25 9.86193 4.25 10H3.25ZM4 10.75V11.75C4.9665 11.75 5.75 10.9665 5.75 10H4.75H3.75C3.75 9.86193 3.86193 9.75 4 9.75V10.75ZM4.75 10H5.75V9.25H4.75H3.75V10H4.75ZM4.75 9.25V8.25H4V9.25V10.25H4.75V9.25ZM10 3.25V2.25C9.0335 2.25 8.25 3.0335 8.25 4H9.25H10.25C10.25 4.13807 10.1381 4.25 10 4.25V3.25ZM9.25 4H8.25V4.75H9.25H10.25V4H9.25ZM9.25 4.75V5.75H10V4.75V3.75H9.25V4.75ZM10 4.75V5.75C10.9665 5.75 11.75 4.9665 11.75 4H10.75H9.75C9.75 3.86193 9.86193 3.75 10 3.75V4.75ZM10.75 4H11.75C11.75 3.0335 10.9665 2.25 10 2.25V3.25V4.25C9.86193 4.25 9.75 4.13807 9.75 4H10.75Z" fill="#E6E6E6" mask="url(#path-1-outside-1_1726_1439)"/><path d="M9.4697 3.4699C9.76259 3.17702 10.2374 3.17704 10.5303 3.4699C10.823 3.7628 10.8231 4.23759 10.5303 4.53044L4.53025 10.5304C4.2374 10.8232 3.76259 10.8232 3.4697 10.5304C3.17683 10.2376 3.17686 9.76279 3.4697 9.4699L9.4697 3.4699Z" fill="#3B6DE6"/><path d="M2.5 10C2.5 9.17157 3.17157 8.5 4 8.5C4.82843 8.5 5.5 9.17157 5.5 10C5.5 10.8284 4.82843 11.5 4 11.5C3.17157 11.5 2.5 10.8284 2.5 10Z" fill="#FDFDFD"/><path d="M8.5 4C8.5 3.17157 9.17157 2.5 10 2.5C10.8284 2.5 11.5 3.17157 11.5 4C11.5 4.82843 10.8284 5.5 10 5.5C9.17157 5.5 8.5 4.82843 8.5 4Z" fill="#FDFDFD"/><path d="M2.5 10C2.5 9.17157 3.17157 8.5 4 8.5C4.82843 8.5 5.5 9.17157 5.5 10C5.5 10.8284 4.82843 11.5 4 11.5C3.17157 11.5 2.5 10.8284 2.5 10Z" stroke="#333333" stroke-width="1.5" stroke-linecap="round" stroke-linejoin="round"/><path d="M8.5 4C8.5 3.17157 9.17157 2.5 10 2.5C10.8284 2.5 11.5 3.17157 11.5 4C11.5 4.82843 10.8284 5.5 10 5.5C9.17157 5.5 8.5 4.82843 8.5 4Z" stroke="#333333" stroke-width="1.5" stroke-linecap="round" stroke-linejoin="round"/><mask id="path-5-outside-2_1726_1439" maskUnits="userSpaceOnUse" x="7.25006" y="7.25" width="8" height="9" fill="black"><rect fill="white" x="7.25006" y="7.25" width="8" height="9"/><path d="M11.25 8.25C11.6642 8.25007 12 8.58583 12 9V11.9395L12.9697 10.9697C13.2626 10.6769 13.7374 10.6769 14.0303 10.9697C14.3231 11.2626 14.3231 11.7374 14.0303 12.0303L11.7803 14.2803C11.6397 14.4209 11.4489 14.5 11.25 14.5C11.0511 14.5 10.8604 14.4209 10.7197 14.2803L8.46973 12.0303C8.17684 11.7374 8.17684 11.2626 8.46973 10.9697C8.76263 10.6769 9.2374 10.6768 9.53027 10.9697L10.5 11.9395V9C10.5 8.58579 10.8358 8.25 11.25 8.25Z"/></mask><path d="M11.25 8.25C11.6642 8.25007 12 8.58583 12 9V11.9395L12.9697 10.9697C13.2626 10.6769 13.7374 10.6769 14.0303 10.9697C14.3231 11.2626 14.3231 11.7374 14.0303 12.0303L11.7803 14.2803C11.6397 14.4209 11.4489 14.5 11.25 14.5C11.0511 14.5 10.8604 14.4209 10.7197 14.2803L8.46973 12.0303C8.17684 11.7374 8.17684 11.2626 8.46973 10.9697C8.76263 10.6769 9.2374 10.6768 9.53027 10.9697L10.5 11.9395V9C10.5 8.58579 10.8358 8.25 11.25 8.25Z" fill="#333333"/><path d="M11.25 8.25L11.2502 7.25H11.25V8.25ZM12 11.9395H11V14.3537L12.7071 12.6466L12 11.9395ZM12.9697 10.9697L12.2627 10.2626L12.2626 10.2626L12.9697 10.9697ZM14.0303 10.9697L14.7375 10.2627L14.7373 10.2626L14.0303 10.9697ZM14.0303 12.0303L14.7374 12.7374L14.7374 12.7373L14.0303 12.0303ZM11.7803 14.2803L12.4874 14.9874L12.4874 14.9874L11.7803 14.2803ZM11.25 14.5L11.25 15.5H11.2502L11.25 14.5ZM10.7197 14.2803L10.0126 14.9874L10.0127 14.9875L10.7197 14.2803ZM8.46973 12.0303L7.76261 12.7374L7.76262 12.7374L8.46973 12.0303ZM8.46973 10.9697L7.76267 10.2626L7.76262 10.2626L8.46973 10.9697ZM9.53027 10.9697L8.82316 11.6768L8.82317 11.6768L9.53027 10.9697ZM10.5 11.9395L9.79289 12.6466L11.5 14.3537V11.9395H10.5ZM11.25 8.25L11.2498 9.25C11.112 9.24998 11 9.13827 11 9H12H13C13 8.03338 12.2163 7.25016 11.2502 7.25L11.25 8.25ZM12 9H11V11.9395H12H13V9H12ZM12 11.9395L12.7071 12.6466L13.6768 11.6768L12.9697 10.9697L12.2626 10.2626L11.2929 11.2323L12 11.9395ZM12.9697 10.9697L13.6768 11.6769C13.5792 11.7745 13.4208 11.7745 13.3232 11.6769L14.0303 10.9697L14.7373 10.2626C14.0539 9.57926 12.9461 9.57926 12.2627 10.2626L12.9697 10.9697ZM14.0303 10.9697L13.323 11.6767C13.2256 11.5792 13.2254 11.4209 13.3231 11.3232L14.0303 12.0303L14.7374 12.7373C15.4208 12.0539 15.4206 10.946 14.7375 10.2627L14.0303 10.9697ZM14.0303 12.0303L13.3232 11.3232L11.0732 13.5732L11.7803 14.2803L12.4874 14.9874L14.7374 12.7374L14.0303 12.0303ZM11.7803 14.2803L11.0732 13.5732C11.12 13.5264 11.1834 13.5 11.2498 13.5L11.25 14.5L11.2502 15.5C11.7143 15.4999 12.1593 15.3154 12.4874 14.9874L11.7803 14.2803ZM11.25 14.5L11.25 13.5C11.3167 13.5 11.3801 13.5265 11.4267 13.5731L10.7197 14.2803L10.0127 14.9875C10.3406 15.3152 10.7855 15.5 11.25 15.5L11.25 14.5ZM10.7197 14.2803L11.4268 13.5732L9.17683 11.3232L8.46973 12.0303L7.76262 12.7374L10.0126 14.9874L10.7197 14.2803ZM8.46973 12.0303L9.17684 11.3232C9.27446 11.4208 9.27448 11.5792 9.17683 11.6768L8.46973 10.9697L7.76262 10.2626C7.0792 10.946 7.07922 12.054 7.76261 12.7374L8.46973 12.0303ZM8.46973 10.9697L9.17678 11.6769C9.07923 11.7744 8.92086 11.7745 8.82316 11.6768L9.53027 10.9697L10.2374 10.2626C9.55393 9.57915 8.44603 9.57931 7.76267 10.2626L8.46973 10.9697ZM9.53027 10.9697L8.82317 11.6768L9.79289 12.6466L10.5 11.9395L11.2071 11.2323L10.2374 10.2626L9.53027 10.9697ZM10.5 11.9395H11.5V9H10.5H9.5V11.9395H10.5ZM10.5 9H11.5C11.5 9.13807 11.3881 9.25 11.25 9.25V8.25V7.25C10.2835 7.25 9.5 8.0335 9.5 9H10.5Z" fill="#E6E6E6" mask="url(#path-5-outside-2_1726_1439)"/></g><defs><clipPath id="clip0_1726_1439"><rect width="16" height="16" fill="white"/></clipPath></defs></svg>