<svg width="16" height="16" viewBox="0 0 16 16" fill="none" xmlns="http://www.w3.org/2000/svg"><path fill-rule="evenodd" clip-rule="evenodd" d="M12.8267 10.0686L11.4477 9.47759C11.0687 10.3606 10.3605 11.0688 9.47755 11.4477L10.0686 12.8268C11.3048 12.2963 12.2963 11.3048 12.8267 10.0686ZM5.93139 12.8267L6.52242 11.4477C5.63941 11.0687 4.93119 10.3605 4.55229 9.47749L3.17321 10.0685C3.70369 11.3047 4.69519 12.2963 5.93139 12.8267ZM12.8268 5.93144C12.2964 4.69554 11.3053 3.70421 10.0695 3.17362L9.47845 4.5527C10.361 4.93171 11.0689 5.63976 11.4477 6.52247L12.8268 5.93144ZM5.93056 3.17361L6.52159 4.55268C5.63901 4.93168 4.93114 5.6397 4.55234 6.52238L3.17327 5.93135C3.70364 4.69548 4.69479 3.70417 5.93056 3.17361ZM14.75 8C14.75 4.27208 11.7279 1.25 8 1.25C4.27208 1.25 1.25 4.27208 1.25 8C1.25 11.7279 4.27208 14.75 8 14.75C11.7279 14.75 14.75 11.7279 14.75 8ZM8 5.75C9.24264 5.75 10.25 6.75736 10.25 8C10.25 9.24264 9.24264 10.25 8 10.25C6.75736 10.25 5.75 9.24264 5.75 8C5.75 6.75736 6.75736 5.75 8 5.75Z" fill="currentColor"/></svg>