<svg width="16" height="16" viewBox="0 0 16 16" fill="none" xmlns="http://www.w3.org/2000/svg"><path d="M5.46973 4.46979C5.76262 4.17689 6.23738 4.17689 6.53027 4.46979C6.80485 4.74439 6.82233 5.17912 6.58203 5.47369L6.53027 5.53033L4.06055 8.00006L6.53027 10.4698C6.82314 10.7627 6.82316 11.2375 6.53027 11.5303C6.23739 11.8232 5.76261 11.8232 5.46973 11.5303L2.46973 8.53033C2.32909 8.3897 2.25002 8.19895 2.25 8.00006C2.25 7.80116 2.32909 7.61044 2.46973 7.46979L5.46973 4.46979ZM9.46973 4.46979C9.76262 4.1769 10.2374 4.1769 10.5303 4.46979L13.5303 7.46979L13.582 7.52643C13.8223 7.82101 13.8049 8.25574 13.5303 8.53033L10.5303 11.5303L10.4736 11.5821C10.1791 11.8224 9.74432 11.8049 9.46973 11.5303C9.19514 11.2557 9.17769 10.821 9.41797 10.5264L9.46973 10.4698L11.9395 8.00006L9.46973 5.53033C9.17685 5.23745 9.17687 4.76268 9.46973 4.46979Z" fill="currentColor"/></svg>