<svg width="16" height="16" viewBox="0 0 16 16" fill="none" xmlns="http://www.w3.org/2000/svg"><path d="M9.00006 2.24995C9.88171 2.24995 10.4699 2.24367 10.9708 2.37788C12.2647 2.72467 13.2753 3.73531 13.6221 5.02925C13.7563 5.53016 13.7501 6.11829 13.7501 6.99995V8.20015C13.7501 9.02771 13.751 9.69358 13.7071 10.2314C13.6624 10.778 13.5672 11.2579 13.3409 11.7021C12.9814 12.4077 12.4078 12.9812 11.7022 13.3408C11.258 13.5671 10.7781 13.6623 10.2315 13.707C9.69369 13.7509 9.02781 13.75 8.20026 13.75H8.00006C7.58585 13.75 7.25006 13.4142 7.25006 13C7.25009 12.5858 7.58586 12.25 8.00006 12.25H8.20026C9.05258 12.25 9.64685 12.2497 10.1094 12.2119C10.5632 12.1748 10.824 12.1055 11.0215 12.0048C11.4449 11.7891 11.7892 11.4448 12.0049 11.0214C12.1056 10.8239 12.1749 10.5631 12.212 10.1093C12.2498 9.64674 12.2501 9.05247 12.2501 8.20015V6.99995C12.2501 6.02194 12.2431 5.67998 12.1729 5.41792C11.9649 4.64149 11.3585 4.03516 10.5821 3.8271C10.32 3.75692 9.97806 3.74995 9.00006 3.74995C8.0221 3.74995 7.68008 3.75694 7.41803 3.8271C6.64159 4.03515 6.03528 4.64149 5.82721 5.41792C5.75703 5.67998 5.75006 6.02194 5.75006 6.99995V8.18941L7.46979 6.46968C7.76268 6.17684 8.23746 6.17681 8.53033 6.46968C8.8232 6.76256 8.82317 7.23733 8.53033 7.53023L5.53033 10.5302C5.23744 10.8231 4.76268 10.8231 4.46979 10.5302L1.46979 7.53023C1.1769 7.23733 1.17689 6.76257 1.46979 6.46968C1.74439 6.19513 2.17913 6.17763 2.47369 6.41792L2.53033 6.46968L4.25006 8.18941V6.99995C4.25006 6.11829 4.24377 5.53016 4.37799 5.02925C4.72478 3.73531 5.73541 2.72466 7.02936 2.37788C7.53026 2.24368 8.11841 2.24995 9.00006 2.24995Z" fill="currentColor"/></svg>