<svg width="16" height="16" viewBox="0 0 16 16" fill="none" xmlns="http://www.w3.org/2000/svg"><path d="M11 4.25C13.0711 4.25001 14.75 5.92896 14.75 8C14.75 10.071 13.0711 11.75 11 11.75C10.5396 11.75 10.1271 11.6729 9.76855 11.5566C9.37476 11.4289 9.15871 11.0062 9.28613 10.6123C9.41387 10.2183 9.83742 10.0021 10.2314 10.1299C10.4529 10.2017 10.7092 10.25 11 10.25C12.2426 10.25 13.25 9.24263 13.25 8C13.25 6.75737 12.2426 5.75001 11 5.75C10.3889 5.75 9.99775 5.99154 9.66211 6.4082C9.28927 6.87111 9.01561 7.51235 8.69238 8.28809C8.39071 9.01211 8.03915 9.87119 7.50586 10.5332C6.93526 11.2415 6.13877 11.75 5 11.75C2.92527 11.75 1.25001 10.0705 1.25 8C1.25 5.92945 2.92526 4.25 5 4.25C5.4702 4.25 5.88536 4.33038 6.24316 4.45312C6.63495 4.58756 6.84342 5.01446 6.70898 5.40625C6.57445 5.79774 6.14845 6.00629 5.75684 5.87207C5.54775 5.80033 5.2965 5.75 5 5.75C3.75472 5.75 2.75 6.75685 2.75 8C2.75001 9.24314 3.75473 10.25 5 10.25C5.61113 10.25 6.00225 10.0085 6.33789 9.5918C6.71072 9.12889 6.98439 8.48764 7.30762 7.71191C7.60929 6.98789 7.96085 6.12881 8.49414 5.4668C9.06474 4.75855 9.86123 4.25 11 4.25Z" fill="currentColor"/></svg>