<svg width="16" height="16" viewBox="0 0 16 16" fill="none" xmlns="http://www.w3.org/2000/svg"><path d="M6.46973 4.46979C6.76262 4.17689 7.23738 4.17689 7.53027 4.46979C7.82311 4.76269 7.82315 5.23746 7.53027 5.53033L5.81055 7.25006H12C12.4142 7.25009 12.75 7.58587 12.75 8.00006C12.75 8.41423 12.4142 8.75003 12 8.75006H5.81055L7.53027 10.4698L7.58203 10.5264C7.82229 10.821 7.80486 11.2557 7.53027 11.5303C7.25569 11.8049 6.82095 11.8223 6.52637 11.5821L6.46973 11.5303L3.46973 8.53033C3.17683 8.23744 3.17683 7.76268 3.46973 7.46979L6.46973 4.46979Z" fill="currentColor"/></svg>