<svg width="16" height="16" viewBox="0 0 16 16" fill="none" xmlns="http://www.w3.org/2000/svg"><path d="M8.46973 4.4696C8.74432 4.19507 9.17907 4.1776 9.47363 4.41785L9.53027 4.4696L12.5303 7.4696C12.8231 7.76248 12.8231 8.23725 12.5303 8.53015L9.53027 11.5302C9.23738 11.823 8.76262 11.823 8.46973 11.5302C8.17689 11.2373 8.17685 10.7625 8.46973 10.4696L10.1895 8.74988H4C3.58579 8.74988 3.25 8.41409 3.25 7.99988C3.25006 7.58572 3.58583 7.24988 4 7.24988H10.1895L8.46973 5.53015L8.41797 5.47351C8.17772 5.17893 8.19514 4.74419 8.46973 4.4696Z" fill="currentColor"/></svg>