<svg width="16" height="16" viewBox="0 0 16 16" fill="none" xmlns="http://www.w3.org/2000/svg"><path d="M6.02625 3.91785C6.32078 3.67757 6.75554 3.69511 7.03015 3.9696C7.30475 4.2442 7.32221 4.67893 7.08191 4.97351L7.03015 5.03015L4.06042 7.99988L7.03015 10.9696C7.32304 11.2625 7.32304 11.7373 7.03015 12.0302C6.73726 12.323 6.2625 12.323 5.9696 12.0302L2.4696 8.53015L2.41785 8.47351C2.17765 8.17893 2.19504 7.74417 2.4696 7.4696L5.9696 3.9696L6.02625 3.91785ZM12.0262 3.91785C12.3208 3.67757 12.7555 3.69511 13.0302 3.9696C13.3048 4.2442 13.3222 4.67893 13.0819 4.97351L13.0302 5.03015L10.0604 7.99988L13.0302 10.9696C13.323 11.2625 13.323 11.7373 13.0302 12.0302C12.7373 12.323 12.2625 12.323 11.9696 12.0302L8.4696 8.53015L8.41785 8.47351C8.17765 8.17893 8.19504 7.74417 8.4696 7.4696L11.9696 3.9696L12.0262 3.91785Z" fill="currentColor"/></svg>