<svg width="16" height="16" viewBox="0 0 16 16" fill="none" xmlns="http://www.w3.org/2000/svg"><path d="M12.4004 1.25C12.6679 1.25 12.9139 1.24991 13.1182 1.2666C13.3312 1.28403 13.5647 1.32314 13.7949 1.44043C14.124 1.60818 14.3918 1.87597 14.5596 2.20508C14.6769 2.43527 14.716 2.66879 14.7334 2.88184C14.7501 3.08611 14.75 3.33211 14.75 3.59961V12.4004C14.75 12.6679 14.7501 12.9139 14.7334 13.1182C14.716 13.3312 14.6769 13.5647 14.5596 13.7949C14.3918 14.124 14.124 14.3918 13.7949 14.5596C13.5647 14.6769 13.3312 14.716 13.1182 14.7334C12.9139 14.7501 12.6679 14.75 12.4004 14.75H3.59961C3.33211 14.75 3.08611 14.7501 2.88184 14.7334C2.66879 14.716 2.43527 14.6769 2.20508 14.5596C1.87597 14.3918 1.60818 14.124 1.44043 13.7949C1.32314 13.5647 1.28403 13.3312 1.2666 13.1182C1.24991 12.9139 1.25 12.6679 1.25 12.4004V3.59961C1.25 3.33211 1.24991 3.08611 1.2666 2.88184C1.28403 2.66879 1.32314 2.43527 1.44043 2.20508C1.60818 1.87597 1.87597 1.60818 2.20508 1.44043C2.43527 1.32314 2.66879 1.28403 2.88184 1.2666C3.08611 1.24991 3.33211 1.25 3.59961 1.25H12.4004ZM5 7.25C4.58579 7.25 4.25 7.58579 4.25 8C4.25 8.41421 4.58579 8.75 5 8.75H11C11.4142 8.75 11.75 8.41421 11.75 8C11.75 7.58579 11.4142 7.25 11 7.25H5Z" fill="currentColor"/></svg>