<svg width="16" height="16" viewBox="0 0 16 16" fill="none" xmlns="http://www.w3.org/2000/svg">
<path fill-rule="evenodd" clip-rule="evenodd" d="M2.25 3.5C2.25 3.08579 2.58579 2.75 3 2.75H10C10.4142 2.75 10.75 3.08579 10.75 3.5C10.75 3.91421 10.4142 4.25 10 4.25H3C2.58579 4.25 2.25 3.91421 2.25 3.5ZM2.25 6.5C2.25 6.08579 2.58579 5.75 3 5.75H7C7.41421 5.75 7.75 6.08579 7.75 6.5C7.75 6.91421 7.41421 7.25 7 7.25H3C2.58579 7.25 2.25 6.91421 2.25 6.5ZM3 8.75C2.58579 8.75 2.25 9.08579 2.25 9.5C2.25 9.91421 2.58579 10.25 3 10.25H4C4.41421 10.25 4.75 9.91421 4.75 9.5C4.75 9.08579 4.41421 8.75 4 8.75H3ZM2.25 12.5C2.25 12.0858 2.58579 11.75 3 11.75H5C5.41421 11.75 5.75 12.0858 5.75 12.5C5.75 12.9142 5.41421 13.25 5 13.25H3C2.58579 13.25 2.25 12.9142 2.25 12.5ZM6.96967 11.5303C6.67678 11.2374 6.67678 10.7625 6.96967 10.4697C7.26256 10.1768 7.73744 10.1768 8.03033 10.4697L9.75 12.1893L9.75 6C9.75 5.58579 10.0858 5.25 10.5 5.25C10.9142 5.25 11.25 5.58579 11.25 6V12.1893L12.9697 10.4697C13.2626 10.1768 13.7374 10.1768 14.0303 10.4697C14.3232 10.7625 14.3232 11.2374 14.0303 11.5303L11.0303 14.5303C10.8897 14.671 10.6989 14.75 10.5 14.75C10.3011 14.75 10.1103 14.671 9.96967 14.5303L6.96967 11.5303Z" fill="black"/>
</svg>
