<svg width="16" height="16" viewBox="0 0 16 16" fill="none" xmlns="http://www.w3.org/2000/svg">
<path d="M13.5001 2.75C13.699 2.75005 13.8898 2.82912 14.0304 2.96973C14.171 3.11037 14.2501 3.30113 14.2501 3.5V12.5C14.2501 12.9142 13.9143 13.2499 13.5001 13.25H2.50012C2.08591 13.25 1.75012 12.9142 1.75012 12.5V3.5C1.75012 3.08579 2.08591 2.75 2.50012 2.75H13.5001ZM3.25012 11.75H7.25012V10.25H3.25012V11.75ZM8.75012 11.75H12.7501V10.25H8.75012V11.75ZM3.25012 8.75H7.25012V7.25H3.25012V8.75ZM8.75012 8.75H12.7501V7.25H8.75012V8.75ZM3.25012 5.75H7.25012V4.25H3.25012V5.75ZM8.75012 5.75H12.7501V4.25H8.75012V5.75Z" fill="black"/>
</svg>
