<svg width="16" height="16" viewBox="0 0 16 16" fill="none" xmlns="http://www.w3.org/2000/svg">
<path d="M13 9.25C13.4142 9.25 13.75 9.58579 13.75 10V13C13.75 13.4142 13.4142 13.75 13 13.75H3C2.58579 13.75 2.25 13.4142 2.25 13V10C2.25 9.58579 2.58579 9.25 3 9.25H13ZM3.75 12.25H12.25V10.75H3.75V12.25ZM13 2.25C13.4142 2.25 13.75 2.58579 13.75 3V6C13.75 6.41421 13.4142 6.75 13 6.75H3C2.58579 6.75 2.25 6.41421 2.25 6V3C2.25 2.58579 2.58579 2.25 3 2.25H13ZM3.75 5.25H12.25V3.75H3.75V5.25Z" fill="black"/>
</svg>
