<svg width="16" height="16" viewBox="0 0 16 16" fill="none" xmlns="http://www.w3.org/2000/svg">
<path fill-rule="evenodd" clip-rule="evenodd" d="M4 2.25C3.0335 2.25 2.25 3.0335 2.25 4V6C2.25 6.41421 2.58579 6.75 3 6.75C3.41421 6.75 3.75 6.41421 3.75 6V4C3.75 3.86193 3.86193 3.75 4 3.75H6C6.41421 3.75 6.75 3.41421 6.75 3C6.75 2.58579 6.41421 2.25 6 2.25H4ZM12 13.75C12.9665 13.75 13.75 12.9665 13.75 12V10C13.75 9.58579 13.4142 9.25 13 9.25C12.5858 9.25 12.25 9.58579 12.25 10V12C12.25 12.1381 12.1381 12.25 12 12.25H10C9.58579 12.25 9.25 12.5858 9.25 13C9.25 13.4142 9.58579 13.75 10 13.75H12ZM12 2.25C12.9665 2.25 13.75 3.0335 13.75 4V6C13.75 6.41421 13.4142 6.75 13 6.75C12.5858 6.75 12.25 6.41421 12.25 6V4C12.25 3.86193 12.1381 3.75 12 3.75L10 3.75C9.58579 3.75 9.25 3.41421 9.25 3C9.25 2.58579 9.58579 2.25 10 2.25H12ZM2.25 12C2.25 12.9665 3.0335 13.75 4 13.75H6C6.41421 13.75 6.75 13.4142 6.75 13C6.75 12.5858 6.41421 12.25 6 12.25H4C3.86193 12.25 3.75 12.1381 3.75 12L3.75 10C3.75 9.58579 3.41421 9.25 3 9.25C2.58579 9.25 2.25 9.58579 2.25 10V12Z" fill="black"/>
</svg>
