<svg width="16" height="16" viewBox="0 0 16 16" fill="none" xmlns="http://www.w3.org/2000/svg">
<path d="M5.99996 5.33332C6.73634 5.33332 7.33329 4.73637 7.33329 3.99999C7.33329 3.26361 6.73634 2.66666 5.99996 2.66666C5.26358 2.66666 4.66663 3.26361 4.66663 3.99999C4.66663 4.73637 5.26358 5.33332 5.99996 5.33332Z" fill="black"/>
<path d="M9.99996 5.33332C10.7363 5.33332 11.3333 4.73637 11.3333 3.99999C11.3333 3.26361 10.7363 2.66666 9.99996 2.66666C9.26358 2.66666 8.66663 3.26361 8.66663 3.99999C8.66663 4.73637 9.26358 5.33332 9.99996 5.33332Z" fill="black"/>
<path d="M5.99996 9.33332C6.73634 9.33332 7.33329 8.73637 7.33329 7.99999C7.33329 7.26361 6.73634 6.66666 5.99996 6.66666C5.26358 6.66666 4.66663 7.26361 4.66663 7.99999C4.66663 8.73637 5.26358 9.33332 5.99996 9.33332Z" fill="black"/>
<path d="M9.99996 9.33332C10.7363 9.33332 11.3333 8.73637 11.3333 7.99999C11.3333 7.26361 10.7363 6.66666 9.99996 6.66666C9.26358 6.66666 8.66663 7.26361 8.66663 7.99999C8.66663 8.73637 9.26358 9.33332 9.99996 9.33332Z" fill="black"/>
<path d="M5.99996 13.3333C6.73634 13.3333 7.33329 12.7364 7.33329 12C7.33329 11.2636 6.73634 10.6667 5.99996 10.6667C5.26358 10.6667 4.66663 11.2636 4.66663 12C4.66663 12.7364 5.26358 13.3333 5.99996 13.3333Z" fill="black"/>
<path d="M9.99996 13.3333C10.7363 13.3333 11.3333 12.7364 11.3333 12C11.3333 11.2636 10.7363 10.6667 9.99996 10.6667C9.26358 10.6667 8.66663 11.2636 8.66663 12C8.66663 12.7364 9.26358 13.3333 9.99996 13.3333Z" fill="black"/>
</svg>
