<svg width="16" height="16" viewBox="0 0 16 16" fill="none" xmlns="http://www.w3.org/2000/svg">
<path fill-rule="evenodd" clip-rule="evenodd" d="M12.125 10.7519C12.4837 10.545 12.9423 10.6687 13.1494 11.0273C13.3563 11.3859 13.2336 11.8446 12.875 12.0517L8.375 14.6493C8.14677 14.7811 7.86611 14.7832 7.63574 14.6552L3.13574 12.1552C2.7738 11.954 2.6436 11.4977 2.84473 11.1357C3.04594 10.7738 3.50225 10.6436 3.86426 10.8447L7.99219 13.1376L12.125 10.7519ZM12.1357 7.34466C12.4978 7.14356 12.9541 7.27376 13.1553 7.63567C13.3564 7.9977 13.2262 8.45399 12.8643 8.6552L8.36426 11.1552C8.13774 11.281 7.86226 11.281 7.63574 11.1552L3.13574 8.6552C2.7738 8.45399 2.6436 7.9977 2.84473 7.63567C3.04594 7.27376 3.50225 7.14356 3.86426 7.34466L8 9.64153L12.1357 7.34466ZM7.63574 1.34466C7.99776 1.14355 8.45406 1.27374 8.65527 1.63567C8.85639 1.99768 8.72616 2.45397 8.36426 2.6552L5.04297 4.49993L7.99219 6.13763L9.125 5.48431C9.48364 5.27728 9.94226 5.40017 10.1494 5.75872C10.3565 6.11739 10.2336 6.57599 9.875 6.78313L8.375 7.64935C8.14677 7.78111 7.86611 7.78319 7.63574 7.6552L3.13574 5.1552C2.89776 5.0229 2.75 4.77223 2.75 4.49993C2.75002 4.22765 2.89776 3.97695 3.13574 3.84466L7.63574 1.34466ZM13 0.749931C13.4142 0.749931 13.75 1.08575 13.75 1.49993V2.24993H14.5C14.9142 2.24993 15.25 2.58575 15.25 2.99993C15.25 3.41414 14.9142 3.74993 14.5 3.74993H13.75V4.49993C13.75 4.91414 13.4142 5.24993 13 5.24993C12.5858 5.24993 12.25 4.91414 12.25 4.49993V3.74993H11.5C11.0858 3.74993 10.75 3.41414 10.75 2.99993C10.75 2.58575 11.0858 2.24993 11.5 2.24993H12.25V1.49993C12.25 1.08575 12.5858 0.749931 13 0.749931Z" fill="black"/>
</svg>
