<svg width="16" height="16" viewBox="0 0 16 16" fill="none" xmlns="http://www.w3.org/2000/svg">
<path d="M12.1357 10.8447C12.4978 10.6436 12.9541 10.7738 13.1553 11.1357C13.3564 11.4977 13.2262 11.954 12.8643 12.1552L8.36426 14.6552C8.13774 14.781 7.86226 14.781 7.63574 14.6552L3.13574 12.1552C2.7738 11.954 2.6436 11.4977 2.84473 11.1357C3.04594 10.7738 3.50225 10.6436 3.86426 10.8447L8 13.1415L12.1357 10.8447ZM12.1357 7.34466C12.4978 7.14356 12.9541 7.27376 13.1553 7.63567C13.3564 7.9977 13.2262 8.45399 12.8643 8.6552L8.36426 11.1552C8.13774 11.281 7.86226 11.281 7.63574 11.1552L3.13574 8.6552C2.7738 8.45399 2.6436 7.9977 2.84473 7.63567C3.04594 7.27376 3.50225 7.14356 3.86426 7.34466L8 9.64153L12.1357 7.34466ZM7.72266 1.30267C7.93019 1.22012 8.16609 1.23458 8.36426 1.34466L12.8643 3.84466C13.1022 3.97695 13.25 4.22765 13.25 4.49993C13.25 4.77223 13.1022 5.0229 12.8643 5.1552L8.36426 7.6552C8.13774 7.78105 7.86226 7.78105 7.63574 7.6552L3.13574 5.1552C2.89776 5.0229 2.75 4.77223 2.75 4.49993C2.75002 4.22765 2.89776 3.97695 3.13574 3.84466L7.63574 1.34466L7.72266 1.30267ZM5.04297 4.49993L8 6.14153L10.9561 4.49993L8 2.85735L5.04297 4.49993Z" fill="black"/>
</svg>
