<svg width="16" height="16" viewBox="0 0 16 16" fill="none" xmlns="http://www.w3.org/2000/svg">
<path fill-rule="evenodd" clip-rule="evenodd" d="M3.25 3C2.83579 3 2.5 3.33579 2.5 3.75C2.5 4.16421 2.83579 4.5 3.25 4.5H13.25C13.6642 4.5 14 4.16421 14 3.75C14 3.33579 13.6642 3 13.25 3H3.25ZM3.25 6C2.83579 6 2.5 6.33579 2.5 6.75C2.5 7.16421 2.83579 7.5 3.25 7.5H10.25C10.6642 7.5 11 7.16421 11 6.75C11 6.33579 10.6642 6 10.25 6H3.25ZM2.5 9.75C2.5 9.33579 2.83579 9 3.25 9H13.25C13.6642 9 14 9.33579 14 9.75C14 10.1642 13.6642 10.5 13.25 10.5H3.25C2.83579 10.5 2.5 10.1642 2.5 9.75ZM3.25 12C2.83579 12 2.5 12.3358 2.5 12.75C2.5 13.1642 2.83579 13.5 3.25 13.5H10.25C10.6642 13.5 11 13.1642 11 12.75C11 12.3358 10.6642 12 10.25 12H3.25Z" fill="black"/>
</svg>
