<svg width="16" height="16" viewBox="0 0 16 16" fill="none" xmlns="http://www.w3.org/2000/svg">
<path fill-rule="evenodd" clip-rule="evenodd" d="M2.25 13C2.25 13.4142 2.58579 13.75 3 13.75H10C10.4142 13.75 10.75 13.4142 10.75 13C10.75 12.5858 10.4142 12.25 10 12.25H3C2.58579 12.25 2.25 12.5858 2.25 13ZM2.25 9.99998C2.25 10.4142 2.58579 10.75 3 10.75H7C7.41421 10.75 7.75 10.4142 7.75 9.99998C7.75 9.58577 7.41421 9.24998 7 9.24998H3C2.58579 9.24998 2.25 9.58577 2.25 9.99998ZM3 7.74998C2.58579 7.74998 2.25 7.4142 2.25 6.99998C2.25 6.58577 2.58579 6.24998 3 6.24998H4C4.41421 6.24998 4.75 6.58577 4.75 6.99998C4.75 7.4142 4.41421 7.74998 4 7.74998H3ZM2.25 3.99998C2.25 4.4142 2.58579 4.74998 3 4.74998H5C5.41421 4.74998 5.75 4.4142 5.75 3.99998C5.75 3.58577 5.41421 3.24998 5 3.24998H3C2.58579 3.24998 2.25 3.58577 2.25 3.99998ZM6.96967 4.96967C6.67678 5.26256 6.67678 5.73744 6.96967 6.03033C7.26256 6.32322 7.73744 6.32322 8.03033 6.03033L9.75 4.31066L9.75 10.5C9.75 10.9142 10.0858 11.25 10.5 11.25C10.9142 11.25 11.25 10.9142 11.25 10.5V4.31066L12.9697 6.03033C13.2626 6.32322 13.7374 6.32322 14.0303 6.03033C14.3232 5.73744 14.3232 5.26256 14.0303 4.96967L11.0303 1.96967C10.8897 1.82902 10.6989 1.75 10.5 1.75C10.3011 1.75 10.1103 1.82902 9.96967 1.96967L6.96967 4.96967Z" fill="black"/>
</svg>
