<svg width="16" height="16" viewBox="0 0 16 16" fill="none" xmlns="http://www.w3.org/2000/svg">
<path d="M9.5 6.25C9.91421 6.25 10.25 6.58579 10.25 7V12C10.25 12.4142 9.91421 12.75 9.5 12.75H2.5C2.08579 12.75 1.75 12.4142 1.75 12V7C1.75 6.58579 2.08579 6.25 2.5 6.25H9.5ZM3.25 7.75V11.25H8.75V7.75H3.25ZM13 2.75C13.4142 2.75 13.75 3.08579 13.75 3.5V8.5C13.75 8.91421 13.4142 9.25 13 9.25H12C11.5858 9.25 11.25 8.91421 11.25 8.5C11.25 8.08579 11.5858 7.75 12 7.75H12.25V4.25H6.75V4.57129C6.75 4.9855 6.41421 5.32129 6 5.32129C5.58579 5.32129 5.25 4.9855 5.25 4.57129V3.5C5.25 3.08579 5.58579 2.75 6 2.75H13Z" fill="black"/>
</svg>
