<svg width="16" height="16" viewBox="0 0 16 16" fill="none" xmlns="http://www.w3.org/2000/svg">
<path d="M8.5 5.25C8.91421 5.25 9.25 5.58579 9.25 6V13C9.25 13.4142 8.91421 13.75 8.5 13.75H3.5C3.08579 13.75 2.75 13.4142 2.75 13V6C2.75 5.58579 3.08579 5.25 3.5 5.25H8.5ZM4.25 12.25H7.75V6.75H4.25V12.25ZM12 1.75C12.4142 1.75 12.75 2.08579 12.75 2.5V9.5C12.75 9.91421 12.4142 10.25 12 10.25H10.9287C10.5145 10.25 10.1787 9.91421 10.1787 9.5C10.1787 9.08579 10.5145 8.75 10.9287 8.75H11.25V3.25H7.75V3.5C7.75 3.91421 7.41421 4.25 7 4.25C6.58579 4.25 6.25 3.91421 6.25 3.5V2.5C6.25 2.08579 6.58579 1.75 7 1.75H12Z" fill="black"/>
</svg>
