<svg width="16" height="16" viewBox="0 0 16 16" fill="none" xmlns="http://www.w3.org/2000/svg"><path fill-rule="evenodd" clip-rule="evenodd" d="M11.7857 1.66626C11.6299 1.74017 11.5148 1.97047 11.2845 2.43108L9.57889 5.84222L9.57888 5.84223C9.3872 6.22558 9.29137 6.41726 9.31439 6.57307C9.33449 6.70913 9.40975 6.8309 9.52245 6.90972C9.65151 6.99999 9.86582 6.99999 10.2944 6.99999H13.7056C14.1342 6.99999 14.3485 6.99999 14.4776 6.90972C14.5903 6.8309 14.6655 6.70913 14.6856 6.57307C14.7086 6.41726 14.6128 6.22558 14.4211 5.84222L12.7155 2.43108C12.4852 1.97047 12.3701 1.74017 12.2143 1.66626C12.0787 1.60195 11.9213 1.60195 11.7857 1.66626ZM1 9.79999C1 9.51997 1 9.37995 1.0545 9.273C1.10243 9.17892 1.17892 9.10243 1.273 9.05449C1.37996 8.99999 1.51997 8.99999 1.8 8.99999H6.2C6.48003 8.99999 6.62004 8.99999 6.727 9.05449C6.82108 9.10243 6.89757 9.17892 6.9455 9.273C7 9.37995 7 9.51997 7 9.79999V14.2C7 14.48 7 14.62 6.9455 14.727C6.89757 14.8211 6.82108 14.8976 6.727 14.9455C6.62004 15 6.48003 15 6.2 15H1.8C1.51997 15 1.37996 15 1.273 14.9455C1.17892 14.8976 1.10243 14.8211 1.0545 14.727C1 14.62 1 14.48 1 14.2V9.79999ZM15 12C15 13.6568 13.6569 15 12 15C10.3431 15 9 13.6568 9 12C9 10.3431 10.3431 8.99999 12 8.99999C13.6569 8.99999 15 10.3431 15 12Z" fill="currentColor"/></svg>