<svg width="16" height="16" viewBox="0 0 16 16" fill="none" xmlns="http://www.w3.org/2000/svg"><path fill-rule="evenodd" clip-rule="evenodd" d="M3 3C2.44772 3 2 3.44771 2 4V13C2 13.5523 2.44772 14 3 14H13C13.5523 14 14 13.5523 14 13V5C14 4.44772 13.5523 4 13 4H7.41421C7.149 4 6.89464 3.89464 6.70711 3.70711L6.29289 3.29289C6.10536 3.10536 5.851 3 5.58579 3H3ZM8 6.25C8.41421 6.25 8.75 6.58579 8.75 7V8.25H10C10.4142 8.25 10.75 8.58579 10.75 9C10.75 9.41421 10.4142 9.75 10 9.75H8.75V11C8.75 11.4142 8.41421 11.75 8 11.75C7.58579 11.75 7.25 11.4142 7.25 11V9.75H6C5.58579 9.75 5.25 9.41421 5.25 9C5.25 8.58579 5.58579 8.25 6 8.25H7.25V7C7.25 6.58579 7.58579 6.25 8 6.25Z" fill="currentColor"/></svg>