<svg width="16" height="16" viewBox="0 0 16 16" fill="none" xmlns="http://www.w3.org/2000/svg"><path fill-rule="evenodd" clip-rule="evenodd" d="M3.5 1C2.94772 1 2.5 1.44772 2.5 2V14C2.5 14.5523 2.94771 15 3.5 15H12.5C13.0523 15 13.5 14.5523 13.5 14V4.41421C13.5 4.149 13.3946 3.89464 13.2071 3.70711L10.7929 1.29289C10.6054 1.10536 10.351 1 10.0858 1H3.5ZM8 5.75C8.41421 5.75 8.75 6.08579 8.75 6.5V7.75H10C10.4142 7.75 10.75 8.08579 10.75 8.5C10.75 8.91421 10.4142 9.25 10 9.25H8.75V10.5C8.75 10.9142 8.41421 11.25 8 11.25C7.58579 11.25 7.25 10.9142 7.25 10.5V9.25H6C5.58579 9.25 5.25 8.91421 5.25 8.5C5.25 8.08579 5.58579 7.75 6 7.75H7.25V6.5C7.25 6.08579 7.58579 5.75 8 5.75Z" fill="currentColor"/></svg>