<svg width="16" height="16" viewBox="0 0 16 16" fill="none" xmlns="http://www.w3.org/2000/svg"><path d="M11.293 1.75C11.6245 1.75002 11.9424 1.88181 12.1768 2.11621L13.3838 3.32324C13.6182 3.55764 13.75 3.87554 13.75 4.20703V13C13.75 13.6904 13.1904 14.25 12.5 14.25H3.5C2.80964 14.25 2.25 13.6904 2.25 13V3C2.25 2.30964 2.80964 1.75 3.5 1.75H11.293ZM3.75 12.75H4.75V10.5C4.75 9.80964 5.30964 9.25 6 9.25H10C10.6904 9.25 11.25 9.80964 11.25 10.5V12.75H12.25V4.31055L11.1895 3.25H10.25V4.5C10.25 5.19036 9.69036 5.75 9 5.75H6C5.30964 5.75 4.75 5.19036 4.75 4.5V3.25H3.75V12.75ZM6.25 12.75H9.75V10.75H6.25V12.75ZM6.25 4.25H8.75V3.25H6.25V4.25Z" fill="currentColor"/></svg>