<svg width="16" height="16" viewBox="0 0 16 16" fill="none" xmlns="http://www.w3.org/2000/svg"><path d="M12 9.25C12.4142 9.25 12.75 9.58579 12.75 10V11.25H14C14.4142 11.25 14.75 11.5858 14.75 12C14.75 12.4142 14.4142 12.75 14 12.75H12.75V14C12.75 14.4142 12.4142 14.75 12 14.75C11.5858 14.75 11.25 14.4142 11.25 14V12.75H10C9.58579 12.75 9.25 12.4142 9.25 12C9.25 11.5858 9.58579 11.25 10 11.25H11.25V10C11.25 9.58579 11.5858 9.25 12 9.25ZM10.293 1.25C10.6245 1.25002 10.9424 1.38181 11.1768 1.61621L12.3838 2.82324C12.6182 3.05764 12.75 3.37554 12.75 3.70703V6.5C12.75 6.91421 12.4142 7.25 12 7.25C11.5858 7.25 11.25 6.91421 11.25 6.5V3.81055L10.1895 2.75H9.75V4C9.75 4.69036 9.19036 5.25 8.5 5.25H5.5C4.80964 5.25 4.25 4.69036 4.25 4V2.75H3.75V11.25H4.25V9C4.25 8.30964 4.80964 7.75 5.5 7.75H9C9.41421 7.75 9.75 8.08579 9.75 8.5C9.75 8.91421 9.41421 9.25 9 9.25H5.75V11.25H7C7.41421 11.25 7.75 11.5858 7.75 12C7.75 12.4142 7.41421 12.75 7 12.75H3.5C2.80964 12.75 2.25 12.1904 2.25 11.5V2.5C2.25 1.80964 2.80964 1.25 3.5 1.25H10.293ZM5.75 3.75H8.25V2.75H5.75V3.75Z" fill="currentColor"/></svg>