<svg width="16" height="16" viewBox="0 0 16 16" fill="none" xmlns="http://www.w3.org/2000/svg"><path d="M4.5 10.25C4.91421 10.25 5.25 10.5858 5.25 11C5.25 11.4142 4.91421 11.75 4.5 11.75H3.75V14C3.75 14.4142 3.41421 14.75 3 14.75C2.58579 14.75 2.25 14.4142 2.25 14V11.75H1.5C1.08579 11.75 0.75 11.4142 0.75 11C0.75 10.5858 1.08579 10.25 1.5 10.25H4.5ZM8.96973 10.4697C9.26262 10.1768 9.73738 10.1768 10.0303 10.4697C10.3232 10.7626 10.3232 11.2374 10.0303 11.5303L9.06055 12.5L10.0303 13.4697L10.082 13.5264C10.3223 13.8209 10.3049 14.2557 10.0303 14.5303C9.75567 14.8049 9.32095 14.8223 9.02637 14.582L8.96973 14.5303L8 13.5605L7.03027 14.5303C6.73738 14.8232 6.26262 14.8232 5.96973 14.5303C5.67683 14.2374 5.67683 13.7626 5.96973 13.4697L6.93945 12.5L5.96973 11.5303L5.91797 11.4736C5.67766 11.1791 5.69512 10.7443 5.96973 10.4697C6.24433 10.1951 6.67905 10.1777 6.97363 10.418L7.03027 10.4697L8 11.4395L8.96973 10.4697ZM14.5 10.25C14.9142 10.25 15.25 10.5858 15.25 11C15.25 11.4142 14.9142 11.75 14.5 11.75H13.75V14C13.75 14.4142 13.4142 14.75 13 14.75C12.5858 14.75 12.25 14.4142 12.25 14V11.75H11.5C11.0858 11.75 10.75 11.4142 10.75 11C10.75 10.5858 11.0858 10.25 11.5 10.25H14.5ZM9.87598 1.25C10.3221 1.25009 10.7515 1.4205 11.0762 1.72656L13.2002 3.72949C13.5509 4.06013 13.75 4.52096 13.75 5.00293V8C13.75 8.41421 13.4142 8.75 13 8.75C12.5858 8.75 12.25 8.41421 12.25 8V5.00293C12.25 4.93423 12.2218 4.86849 12.1719 4.82129L10.0469 2.81836C10.0006 2.7747 9.93961 2.75009 9.87598 2.75H4C3.86193 2.75 3.75 2.86193 3.75 3V8C3.75 8.41421 3.41421 8.75 3 8.75C2.58579 8.75 2.25 8.41421 2.25 8V3C2.25 2.0335 3.0335 1.25 4 1.25H9.87598Z" fill="currentColor"/></svg>