<svg width="16" height="16" viewBox="0 0 16 16" fill="none" xmlns="http://www.w3.org/2000/svg">
<g clip-path="url(#clip0_1_2517)">
<rect width="16" height="16" fill="white"/>
<path d="M16.5 -0.5V16.5H-0.5V-0.5H16.5Z" fill="#D7D7D7" stroke="white"/>
<path d="M15.083 12.3447C15.2243 12.9588 15.1011 13.6045 14.7432 14.123C14.2373 14.8557 13.3459 15.2204 12.4717 15.0518L8.58398 14.3008C5.57853 13.7204 3.13579 11.5335 2.22754 8.61035L1.00098 4.66309C0.802526 4.02428 0.867872 3.33244 1.18262 2.74219C1.68226 1.80526 2.71881 1.28557 3.76855 1.44531L9.11328 2.25879L9.14746 2.26367L9.18164 2.27246C11.8905 2.94966 13.8935 5.23969 14.2031 8.01465L14.3115 8.9873L15.083 12.3447Z" fill="#468AF3" stroke="white" stroke-width="1.5"/>
</g>
<defs>
<clipPath id="clip0_1_2517">
<rect width="16" height="16" fill="white"/>
</clipPath>
</defs>
</svg>
