<svg width="16" height="16" viewBox="0 0 16 16" fill="none" xmlns="http://www.w3.org/2000/svg">
<path d="M13 10.2499C13.4142 10.2499 13.75 10.5858 13.75 10.9999V12.2499H15C15.4142 12.2499 15.75 12.5858 15.75 12.9999C15.75 13.4142 15.4142 13.7499 15 13.7499H13.75V14.9999C13.75 15.4142 13.4142 15.7499 13 15.7499C12.5858 15.7499 12.25 15.4142 12.25 14.9999V13.7499H11C10.5858 13.7499 10.25 13.4142 10.25 12.9999C10.25 12.5858 10.5858 12.2499 11 12.2499H12.25V10.9999C12.25 10.5858 12.5858 10.2499 13 10.2499ZM10.6357 8.34467C10.9978 8.14357 11.4541 8.27377 11.6553 8.63568C11.8564 8.9977 11.7262 9.454 11.3643 9.65521L6.86426 12.1552C6.63774 12.2811 6.36226 12.2811 6.13574 12.1552L1.63574 9.65521C1.2738 9.454 1.1436 8.9977 1.34473 8.63568C1.54594 8.27377 2.00225 8.14357 2.36426 8.34467L6.5 10.6415L10.6357 8.34467ZM6.22266 2.30267C6.43019 2.22013 6.66609 2.23458 6.86426 2.34467L11.3643 4.84467C11.6022 4.97696 11.75 5.22765 11.75 5.49994C11.75 5.77224 11.6022 6.02291 11.3643 6.15521L6.86426 8.65521C6.63774 8.78105 6.36226 8.78106 6.13574 8.65521L1.63574 6.15521C1.39776 6.02291 1.25 5.77224 1.25 5.49994C1.25002 5.22765 1.39776 4.97696 1.63574 4.84467L6.13574 2.34467L6.22266 2.30267ZM3.54297 5.49994L6.5 7.14154L9.45605 5.49994L6.5 3.85736L3.54297 5.49994Z" fill="black"/>
</svg>
