<svg width="16" height="16" viewBox="0 0 16 16" fill="none" xmlns="http://www.w3.org/2000/svg">
<path d="M13 10.25C13.4142 10.25 13.75 10.5858 13.75 11V12.25H15C15.4142 12.25 15.75 12.5858 15.75 13C15.75 13.4142 15.4142 13.75 15 13.75H13.75V15C13.75 15.4142 13.4142 15.75 13 15.75C12.5858 15.75 12.25 15.4142 12.25 15V13.75H11C10.5858 13.75 10.25 13.4142 10.25 13C10.25 12.5858 10.5858 12.25 11 12.25H12.25V11C12.25 10.5858 12.5858 10.25 13 10.25ZM9.87598 1.25C10.3221 1.25009 10.7515 1.4205 11.0762 1.72656L13.2002 3.72949C13.5509 4.06013 13.75 4.52096 13.75 5.00293V8C13.75 8.41421 13.4142 8.75 13 8.75C12.5858 8.75 12.25 8.41421 12.25 8V5.00293C12.25 4.93423 12.2218 4.86849 12.1719 4.82129L10.0469 2.81836C10.0006 2.7747 9.93961 2.75009 9.87598 2.75H4C3.86193 2.75 3.75 2.86193 3.75 3V12C3.75 12.1381 3.86193 12.25 4 12.25H8C8.41421 12.25 8.75 12.5858 8.75 13C8.75 13.4142 8.41421 13.75 8 13.75H4C3.0335 13.75 2.25 12.9665 2.25 12V3C2.25 2.0335 3.0335 1.25 4 1.25H9.87598ZM10 8.75C10.4142 8.75 10.75 9.08579 10.75 9.5C10.75 9.91421 10.4142 10.25 10 10.25H6C5.58579 10.25 5.25 9.91421 5.25 9.5C5.25 9.08579 5.58579 8.75 6 8.75H10ZM10 5.75C10.4142 5.75 10.75 6.08579 10.75 6.5C10.75 6.91421 10.4142 7.25 10 7.25H6C5.58579 7.25 5.25 6.91421 5.25 6.5C5.25 6.08579 5.58579 5.75 6 5.75H10Z" fill="black"/>
</svg>
