<svg width="16" height="16" viewBox="0 0 16 16" fill="none" xmlns="http://www.w3.org/2000/svg">
<path d="M12.0005 9.25046C12.4145 9.25071 12.7505 9.5864 12.7505 10.0005V11.2505H14.0005C14.4145 11.2507 14.7505 11.5864 14.7505 12.0005C14.7502 12.4143 14.4143 12.7502 14.0005 12.7505H12.7505V14.0005C12.7502 14.4143 12.4143 14.7502 12.0005 14.7505C11.5864 14.7505 11.2507 14.4145 11.2505 14.0005V12.7505H10.0005C9.58642 12.7505 9.25073 12.4145 9.25049 12.0005C9.25049 11.5862 9.58627 11.2505 10.0005 11.2505H11.2505V10.0005C11.2505 9.58624 11.5863 9.25046 12.0005 9.25046ZM10.9702 1.97018C11.2631 1.6773 11.7379 1.6773 12.0308 1.97018C12.3232 2.26312 12.3235 2.73799 12.0308 3.03073L9.25049 5.811V8.50046C9.25024 8.91426 8.91428 9.25015 8.50049 9.25046H5.81104L3.03076 12.0307C2.73803 12.3235 2.26315 12.3232 1.97021 12.0307C1.67734 11.7378 1.67734 11.2631 1.97021 10.9702L4.75049 8.18991V5.50046C4.75049 5.08624 5.08627 4.75046 5.50049 4.75046H8.18994L10.9702 1.97018ZM6.25049 7.75046H7.75049V6.25046H6.25049V7.75046Z" fill="black"/>
</svg>
