<svg width="16" height="16" viewBox="0 0 16 16" fill="none" xmlns="http://www.w3.org/2000/svg">
<path d="M9.72656 1.48535C10.0107 1.18403 10.4857 1.17011 10.7871 1.4541L13.2002 3.72949C13.5509 4.06013 13.75 4.52096 13.75 5.00293V12C13.75 12.9665 12.9665 13.75 12 13.75H4C3.0335 13.75 2.25 12.9665 2.25 12V5C2.25 4.58579 2.58579 4.25 3 4.25C3.41421 4.25 3.75 4.58579 3.75 5V12C3.75 12.1381 3.86193 12.25 4 12.25H12C12.1381 12.25 12.25 12.1381 12.25 12V5.00293C12.25 4.93423 12.2218 4.86849 12.1719 4.82129L9.75781 2.5459C9.4566 2.26178 9.4426 1.7867 9.72656 1.48535ZM4 1.25C6.62334 1.25002 8.75 3.37666 8.75 6V8.18945L9.96973 6.96973C10.2626 6.67684 10.7374 6.67684 11.0303 6.96973C11.3232 7.26262 11.3232 7.73738 11.0303 8.03027L8.53027 10.5303C8.23739 10.8231 7.76262 10.8231 7.46973 10.5303L4.96973 8.03027C4.67683 7.73738 4.67683 7.26262 4.96973 6.96973C5.26262 6.67683 5.73738 6.67684 6.03027 6.96973L7.25 8.18945V6C7.25 4.20509 5.79491 2.75002 4 2.75H3C2.58579 2.75 2.25 2.41421 2.25 2C2.25 1.58579 2.58579 1.25 3 1.25H4Z" fill="black"/>
</svg>
