<svg width="16" height="16" viewBox="0 0 16 16" fill="none" xmlns="http://www.w3.org/2000/svg">
<path fill-rule="evenodd" clip-rule="evenodd" d="M13.5 1.25C13.0858 1.25 12.75 1.58579 12.75 2V14C12.75 14.4142 13.0858 14.75 13.5 14.75C13.9142 14.75 14.25 14.4142 14.25 14V2C14.25 1.58579 13.9142 1.25 13.5 1.25ZM11.25 3.5C11.25 3.08579 10.9142 2.75 10.5 2.75H2.5C2.08579 2.75 1.75 3.08579 1.75 3.5V6.5C1.75 6.91421 2.08579 7.25 2.5 7.25H10.5C10.9142 7.25 11.25 6.91421 11.25 6.5V3.5ZM9.75 4.25V5.75H3.25V4.25H9.75ZM11.25 9.5C11.25 9.08579 10.9142 8.75 10.5 8.75H5.5C5.08579 8.75 4.75 9.08579 4.75 9.5V12.5C4.75 12.9142 5.08579 13.25 5.5 13.25H10.5C10.9142 13.25 11.25 12.9142 11.25 12.5V9.5ZM9.75 10.25V11.75H6.25V10.25H9.75Z" fill="black"/>
</svg>
