<svg width="16" height="16" viewBox="0 0 16 16" fill="none" xmlns="http://www.w3.org/2000/svg">
<path fill-rule="evenodd" clip-rule="evenodd" d="M1.25 13.5C1.25 13.0858 1.58579 12.75 2 12.75L14 12.75C14.4142 12.75 14.75 13.0858 14.75 13.5C14.75 13.9142 14.4142 14.25 14 14.25L2 14.25C1.58579 14.25 1.25 13.9142 1.25 13.5ZM3.5 11.25C3.08579 11.25 2.75 10.9142 2.75 10.5L2.75 2.5C2.75 2.08579 3.08579 1.75 3.5 1.75L6.5 1.75C6.91421 1.75 7.25 2.08579 7.25 2.5L7.25 10.5C7.25 10.9142 6.91421 11.25 6.5 11.25L3.5 11.25ZM4.25 9.75L5.75 9.75L5.75 3.25L4.25 3.25L4.25 9.75ZM9.5 11.25C9.08579 11.25 8.75 10.9142 8.75 10.5L8.75 5.5C8.75 5.08579 9.08579 4.75 9.5 4.75L12.5 4.75C12.9142 4.75 13.25 5.08579 13.25 5.5L13.25 10.5C13.25 10.9142 12.9142 11.25 12.5 11.25L9.5 11.25ZM10.25 9.75L11.75 9.75L11.75 6.25L10.25 6.25L10.25 9.75Z" fill="black"/>
</svg>
