<svg width="16" height="16" viewBox="0 0 16 16" fill="none" xmlns="http://www.w3.org/2000/svg">
<path fill-rule="evenodd" clip-rule="evenodd" d="M8.00001 1.25C7.5858 1.25 7.25001 1.58579 7.25001 2V2.75H3C2.58579 2.75 2.25 3.08579 2.25 3.5V6.5C2.25 6.91421 2.58579 7.25 3 7.25H7.25001V8.75H5.00001C4.5858 8.75 4.25001 9.08579 4.25001 9.5V12.5C4.25001 12.9142 4.5858 13.25 5.00001 13.25H7.25001V14C7.25001 14.4142 7.5858 14.75 8.00001 14.75C8.41422 14.75 8.75001 14.4142 8.75001 14V13.25H11C11.4142 13.25 11.75 12.9142 11.75 12.5V9.5C11.75 9.08579 11.4142 8.75 11 8.75H8.75001V7.25H13C13.4142 7.25 13.75 6.91421 13.75 6.5V3.5C13.75 3.08579 13.4142 2.75 13 2.75H8.75001V2C8.75001 1.58579 8.41422 1.25 8.00001 1.25ZM8.75001 4.25H12.25V5.75H8.75001V4.25ZM7.25001 5.75H3.75V4.25H7.25001V5.75ZM8.75001 10.25H10.25V11.75H8.75001V10.25ZM7.25001 11.75H5.75001V10.25H7.25001V11.75Z" fill="black"/>
</svg>
