<svg width="16" height="16" viewBox="0 0 16 16" fill="none" xmlns="http://www.w3.org/2000/svg">
<g clip-path="url(#clip0_1651_5630)">
<path d="M9.81949 9.17836C9.53787 9.31107 9.1967 9.25675 8.96988 9.02992L6.96988 7.02992C6.71092 6.77074 6.67698 6.36233 6.8898 6.0641L9.3898 2.5641C9.40997 2.53588 9.43362 2.51083 9.45718 2.48597C9.46189 2.481 9.46502 2.47423 9.46988 2.46937L10.9699 0.969373C11.2627 0.676737 11.7376 0.676781 12.0304 0.969373C12.3232 1.26223 12.3232 1.73704 12.0304 2.02992L11.0607 2.99965L13.0002 4.9391L13.9699 3.96937C14.2627 3.67674 14.7376 3.67679 15.0304 3.96937C15.3232 4.26223 15.3232 4.73704 15.0304 5.02992L13.5197 6.54066C13.5092 6.55071 13.4985 6.5605 13.4875 6.56996C13.4628 6.59104 13.4378 6.61118 13.4113 6.62855L9.9357 9.11L9.81949 9.17836ZM9.24722 15.0192C8.10273 15.3258 6.89757 15.3258 5.75308 15.0192C4.60864 14.7125 3.56451 14.1109 2.72671 13.2731C1.88898 12.4353 1.28729 11.3911 0.98062 10.2467C0.674036 9.10231 0.67398 7.89697 0.98062 6.75258C1.28733 5.60828 1.88901 4.56391 2.72671 3.72621C3.56447 2.88854 4.60876 2.28677 5.75308 1.98012C6.15301 1.87307 6.56471 2.11055 6.67203 2.51039C6.77887 2.91013 6.54132 3.32093 6.14175 3.42836C5.2517 3.66685 4.43984 4.13621 3.78824 4.78773C3.13668 5.43929 2.66741 6.25123 2.42886 7.14125C2.19052 8.03104 2.19058 8.96824 2.42886 9.85804C2.66737 10.7482 3.13665 11.5599 3.78824 12.2116C4.43988 12.8632 5.25159 13.3324 6.14175 13.5709C7.03165 13.8093 7.96866 13.8093 8.85855 13.5709C9.74863 13.3324 10.5605 12.8632 11.2121 12.2116C11.8636 11.56 12.333 10.7481 12.5714 9.85805C12.6789 9.45858 13.0897 9.22095 13.4894 9.32777C13.8894 9.43495 14.1266 9.84674 14.0197 10.2467C13.713 11.391 13.1113 12.4353 12.2736 13.2731C11.4358 14.1108 10.3916 14.7125 9.24722 15.0192ZM11.8449 5.90492L10.0959 4.1559L8.47964 6.41859L9.58218 7.52113L11.8449 5.90492ZM7.50015 12.2496C6.50559 12.2496 5.55205 11.8543 4.84878 11.151C4.1456 10.4478 3.75015 9.49415 3.75015 8.49965C3.75025 7.50522 4.14561 6.55145 4.84878 5.84828C5.14166 5.55567 5.61651 5.55559 5.90933 5.84828C6.20192 6.14111 6.2019 6.61599 5.90933 6.90883C5.48746 7.3307 5.25025 7.90304 5.25015 8.49965C5.25015 9.09633 5.48745 9.66852 5.90933 10.0905C6.33129 10.5124 6.90341 10.7496 7.50015 10.7496C8.09684 10.7496 8.66904 10.5124 9.09097 10.0905C9.38377 9.79793 9.85868 9.798 10.1515 10.0905C10.4443 10.3833 10.4442 10.8581 10.1515 11.151C9.44829 11.8542 8.49467 12.2496 7.50015 12.2496Z" fill="black"/>
</g>
<defs>
<clipPath id="clip0_1651_5630">
<rect width="16" height="16" fill="white"/>
</clipPath>
</defs>
</svg>
