<svg width="16" height="16" viewBox="0 0 16 16" fill="none" xmlns="http://www.w3.org/2000/svg">
<path d="M1.50024 14.2503C1.21627 14.2503 0.956443 14.0892 0.829346 13.8353C0.702538 13.5813 0.729432 13.2772 0.899658 13.0501L1.96997 11.6243C2.06307 11.5002 2.07812 11.3335 2.00903 11.1946C0.988191 9.15295 2.47247 6.75037 4.75513 6.7503L5.6145 6.7503L7.87232 3.59015C7.8897 3.56358 7.9098 3.53864 7.93091 3.51398C7.94038 3.50289 7.95015 3.49221 7.96021 3.48175C7.96371 3.4781 7.96638 3.47363 7.96997 3.47003L10.97 0.470031C11.2629 0.177146 11.7376 0.177141 12.0305 0.470031C12.3232 0.762941 12.3233 1.23776 12.0305 1.53058L9.56079 4.0003L11.5002 5.93976L13.97 3.47003C14.2629 3.17714 14.7376 3.17714 15.0305 3.47003C15.3232 3.76294 15.3233 4.23776 15.0305 4.53058L12.0305 7.53058L12.0081 7.55206C12.0036 7.55612 11.9989 7.55982 11.9944 7.56378L11.9739 7.58234C11.9686 7.58662 11.9626 7.58993 11.9573 7.59405C11.9501 7.59955 11.9431 7.60541 11.9358 7.61066L8.75024 9.88702C8.74894 10.5607 8.73588 11.0472 8.62231 11.471C8.27548 12.7648 7.2648 13.7756 5.97095 14.1224C5.47006 14.2566 4.88184 14.2503 4.00024 14.2503L1.50024 14.2503ZM10.345 6.90558L8.59595 5.15655L6.97974 7.41925L8.08228 8.52179L10.345 6.90558ZM4.00024 12.7503C4.97817 12.7503 5.32023 12.7433 5.58228 12.6732C6.35862 12.4651 6.96499 11.8587 7.1731 11.0823C7.23527 10.8502 7.24828 10.5551 7.25024 9.81085L5.6897 8.2503L4.75513 8.2503C3.58755 8.25037 2.82769 9.47941 3.34985 10.5237C3.6732 11.1708 3.60406 11.945 3.17017 12.5237L3.00024 12.7503L4.00024 12.7503Z" fill="black"/>
</svg>
