<svg width="16" height="16" viewBox="0 0 16 16" fill="none" xmlns="http://www.w3.org/2000/svg">
<path fill-rule="evenodd" clip-rule="evenodd" d="M9.93075 2.78192H2.78186V9.93081H6.11371C6.24266 11.7877 7.78982 13.254 9.67945 13.254C11.6536 13.254 13.2539 11.6536 13.2539 9.67953C13.2539 7.7899 11.7876 6.24274 9.93075 6.11378V2.78192ZM9.93075 6.11378C9.84773 6.10802 9.76393 6.10509 9.67945 6.10509C7.70534 6.10509 6.10501 7.70542 6.10501 9.67953C6.10501 9.76401 6.10794 9.8478 6.11371 9.93081H9.93075V6.11378Z" fill="black"/>
<path fill-rule="evenodd" clip-rule="evenodd" d="M2.78186 2.03192C2.36765 2.03192 2.03186 2.36771 2.03186 2.78192V9.93081C2.03186 10.345 2.36765 10.6808 2.78186 10.6808H5.47151C5.92324 12.5863 7.63579 14.004 9.67945 14.004C12.0678 14.004 14.0039 12.0679 14.0039 9.67953C14.0039 7.63587 12.5863 5.92332 10.6807 5.47159V2.78192C10.6807 2.36771 10.345 2.03192 9.93075 2.03192H2.78186ZM9.18075 5.38353V3.53192H3.53186V9.18081H5.38345C5.61194 7.19102 7.19096 5.61201 9.18075 5.38353ZM6.8989 9.18081C7.10559 8.02065 8.02059 7.10566 9.18075 6.89897V9.18081H6.8989ZM7.03763 10.6808H9.93075C10.345 10.6808 10.6807 10.345 10.6807 9.93081V7.03771C11.7464 7.44183 12.5039 8.47222 12.5039 9.67953C12.5039 11.2394 11.2393 12.504 9.67945 12.504C8.47213 12.504 7.44174 11.7465 7.03763 10.6808Z" fill="black"/>
</svg>
