<svg width="16" height="16" viewBox="0 0 16 16" fill="none" xmlns="http://www.w3.org/2000/svg">
<path d="M13.9697 10.9697C14.2626 10.6768 14.7374 10.6768 15.0303 10.9697C15.3232 11.2626 15.3232 11.7374 15.0303 12.0303L14.0605 13L15.0303 13.9697C15.3232 14.2626 15.3232 14.7374 15.0303 15.0303C14.7374 15.3232 14.2626 15.3232 13.9697 15.0303L13 14.0605L12.0303 15.0303C11.7374 15.3232 11.2626 15.3232 10.9697 15.0303C10.6768 14.7374 10.6768 14.2626 10.9697 13.9697L11.9395 13L10.9697 12.0303C10.6768 11.7374 10.6768 11.2626 10.9697 10.9697C11.2626 10.6768 11.7374 10.6768 12.0303 10.9697L13 11.9395L13.9697 10.9697ZM9.87598 1.25C10.3221 1.25009 10.7515 1.4205 11.0762 1.72656L13.2002 3.72949C13.5509 4.06013 13.75 4.52096 13.75 5.00293V8C13.75 8.41421 13.4142 8.75 13 8.75C12.5858 8.75 12.25 8.41421 12.25 8V5.00293C12.25 4.93423 12.2218 4.86849 12.1719 4.82129L10.0469 2.81836C10.0006 2.7747 9.93961 2.75009 9.87598 2.75H4C3.86193 2.75 3.75 2.86193 3.75 3V12C3.75 12.1381 3.86193 12.25 4 12.25H8C8.41421 12.25 8.75 12.5858 8.75 13C8.75 13.4142 8.41421 13.75 8 13.75H4C3.0335 13.75 2.25 12.9665 2.25 12V3C2.25 2.0335 3.0335 1.25 4 1.25H9.87598ZM9 8.75C9.41421 8.75 9.75 9.08579 9.75 9.5C9.75 9.91421 9.41421 10.25 9 10.25H6C5.58579 10.25 5.25 9.91421 5.25 9.5C5.25 9.08579 5.58579 8.75 6 8.75H9ZM10 5.75C10.4142 5.75 10.75 6.08579 10.75 6.5C10.75 6.91421 10.4142 7.25 10 7.25H6C5.58579 7.25 5.25 6.91421 5.25 6.5C5.25 6.08579 5.58579 5.75 6 5.75H10Z" fill="black"/>
</svg>
