<svg width="16" height="16" viewBox="0 0 16 16" fill="none" xmlns="http://www.w3.org/2000/svg">
<path fill-rule="evenodd" clip-rule="evenodd" d="M2.75 2C2.33579 2 2 2.33579 2 2.75V9.89654C2 10.3108 2.33579 10.6465 2.75 10.6465H5.43858C5.89025 12.5515 7.60229 13.9686 9.64533 13.9686C12.033 13.9686 13.9686 12.033 13.9686 9.64534C13.9686 7.60231 12.5515 5.89027 10.6465 5.43859V2.75C10.6465 2.33579 10.3108 2 9.89654 2H2.75ZM9.14654 5.35053V3.5H3.5V9.14654H5.35052C5.57903 7.15747 7.15747 5.57903 9.14654 5.35053ZM6.86598 9.14654C7.07267 7.9871 7.9871 7.07268 9.14654 6.86599V9.14654H6.86598ZM7.00473 10.6465H9.89654C10.3108 10.6465 10.6465 10.3108 10.6465 9.89654V7.00475C11.7116 7.40879 12.4686 8.43866 12.4686 9.64534C12.4686 11.2046 11.2046 12.4686 9.64533 12.4686C8.43864 12.4686 7.40876 11.7116 7.00473 10.6465Z" fill="black"/>
</svg>
