<svg width="16" height="16" viewBox="0 0 16 16" fill="none" xmlns="http://www.w3.org/2000/svg">
<path d="M8 2.25C8.41421 2.25 8.75 2.58579 8.75 3V3.30859C10.7727 3.62941 12.3696 5.22735 12.6904 7.25H13C13.4142 7.25 13.75 7.58579 13.75 8C13.75 8.41421 13.4142 8.75 13 8.75H12.6904C12.3696 10.7726 10.7726 12.3696 8.75 12.6904V13C8.75 13.4142 8.41421 13.75 8 13.75C7.58579 13.75 7.25 13.4142 7.25 13V12.6904C5.2274 12.3696 3.63044 10.7726 3.30957 8.75H3C2.58579 8.75 2.25 8.41421 2.25 8C2.25 7.58579 2.58579 7.25 3 7.25H3.30957C3.63045 5.22735 5.22732 3.62941 7.25 3.30859V3C7.25 2.58579 7.58579 2.25 8 2.25ZM8.75 6.5C8.75 6.91421 8.41421 7.25 8 7.25C7.58579 7.25 7.25 6.91421 7.25 6.5V4.83789C6.05758 5.11964 5.11964 6.05758 4.83789 7.25H6.5C6.91421 7.25 7.25 7.58579 7.25 8C7.25 8.41421 6.91421 8.75 6.5 8.75H4.83789C5.11963 9.94235 6.05768 10.8793 7.25 11.1611V9.5C7.25 9.08579 7.58579 8.75 8 8.75C8.41421 8.75 8.75 9.08579 8.75 9.5V11.1611C9.94232 10.8793 10.8804 9.94235 11.1621 8.75H9.5C9.08579 8.75 8.75 8.41421 8.75 8C8.75 7.58579 9.08579 7.25 9.5 7.25H11.1621C10.8804 6.05758 9.94242 5.11964 8.75 4.83789V6.5Z" fill="black"/>
</svg>
