<svg width="16" height="16" viewBox="0 0 16 16" fill="none" xmlns="http://www.w3.org/2000/svg">
<path d="M14 1.25C14.4142 1.25 14.75 1.58579 14.75 2V5C14.75 5.41421 14.4142 5.75 14 5.75H11.3105L5.75 11.3105V14C5.75 14.4142 5.41421 14.75 5 14.75H2C1.58579 14.75 1.25 14.4142 1.25 14V11C1.25 10.5858 1.58579 10.25 2 10.25H4.68945L10.25 4.68945V2C10.25 1.58579 10.5858 1.25 11 1.25H14ZM11.5 9.25C11.9142 9.25 12.25 9.58579 12.25 10V11.25H13.5C13.9142 11.25 14.25 11.5858 14.25 12C14.25 12.4142 13.9142 12.75 13.5 12.75H12.25V14C12.25 14.4142 11.9142 14.75 11.5 14.75C11.0858 14.75 10.75 14.4142 10.75 14V12.75H9.5C9.08579 12.75 8.75 12.4142 8.75 12C8.75 11.5858 9.08579 11.25 9.5 11.25H10.75V10C10.75 9.58579 11.0858 9.25 11.5 9.25ZM2.75 13.25H4.25V11.75H2.75V13.25ZM11.75 4.25H13.25V2.75H11.75V4.25Z" fill="black"/>
</svg>
