<svg width="16" height="16" viewBox="0 0 16 16" fill="none" xmlns="http://www.w3.org/2000/svg">
<path d="M11.0264 0.917847C11.3209 0.677617 11.7557 0.695047 12.0303 0.969604L15.0303 3.9696C15.3231 4.26247 15.3231 4.73725 15.0303 5.03015L5.03027 15.0302C4.73738 15.323 4.26262 15.323 3.96973 15.0302L0.969727 12.0302C0.676854 11.7373 0.67684 11.2625 0.969727 10.9696L10.9697 0.969604L11.0264 0.917847ZM10.0605 3.99988L10.5303 4.4696C10.8231 4.76247 10.8231 5.23725 10.5303 5.53015C10.2374 5.82304 9.76262 5.82304 9.46973 5.53015L9 5.06042L7.56055 6.49988L8.03027 6.9696C8.32314 7.26247 8.32309 7.73725 8.03027 8.03015C7.73738 8.32304 7.26262 8.32304 6.96973 8.03015L6.5 7.56042L5.06055 8.99988L5.53027 9.4696C5.82314 9.76247 5.82309 10.2373 5.53027 10.5302C5.23738 10.823 4.76262 10.823 4.46973 10.5302L4 10.0604L2.56055 11.4999L4.5 13.4393L13.4395 4.49988L11.5 2.56042L10.0605 3.99988Z" fill="black"/>
</svg>
