<svg width="16" height="16" viewBox="0 0 16 16" fill="none" xmlns="http://www.w3.org/2000/svg">
<path fill-rule="evenodd" clip-rule="evenodd" d="M7.8 1.25H7.7679H7.76788C6.95505 1.24999 6.29944 1.24999 5.76853 1.29336C5.2219 1.33803 4.74175 1.43239 4.29754 1.65873C3.59193 2.01825 3.01825 2.59193 2.65873 3.29754C2.43239 3.74175 2.33803 4.2219 2.29336 4.76853C2.24999 5.29944 2.24999 5.95505 2.25 6.76788V6.7679V6.8V8V9.2V9.23211V9.23212C2.24999 10.045 2.24999 10.7006 2.29336 11.2315C2.33803 11.7781 2.43239 12.2582 2.65873 12.7025C3.01825 13.4081 3.59193 13.9817 4.29754 14.3413C4.74175 14.5676 5.2219 14.662 5.76853 14.7066C6.29944 14.75 6.95505 14.75 7.76788 14.75H7.8H8.2H8.23212C9.04495 14.75 9.70056 14.75 10.2315 14.7066C10.7781 14.662 11.2582 14.5676 11.7025 14.3413C12.4081 13.9817 12.9817 13.4081 13.3413 12.7025C13.5676 12.2582 13.662 11.7781 13.7066 11.2315C13.75 10.7006 13.75 10.045 13.75 9.23212V9.2V6.8V6.76788C13.75 5.95505 13.75 5.29944 13.7066 4.76853C13.662 4.2219 13.5676 3.74175 13.3413 3.29754C12.9817 2.59193 12.4081 2.01825 11.7025 1.65873C11.2582 1.43239 10.7781 1.33803 10.2315 1.29336C9.70056 1.24999 9.04495 1.24999 8.23212 1.25H8.23211H8.2H7.8ZM4.97852 2.99524C5.17604 2.8946 5.43681 2.82547 5.89068 2.78838C6.35331 2.75058 6.94755 2.75 7.8 2.75H8V6.4C8 6.96005 8 7.24008 8.10899 7.45399C8.20487 7.64215 8.35785 7.79513 8.54601 7.89101C8.75992 8 9.03995 8 9.6 8H12.25V9.2C12.25 10.0525 12.2494 10.6467 12.2116 11.1093C12.1745 11.5632 12.1054 11.824 12.0048 12.0215C11.789 12.4448 11.4448 12.789 11.0215 13.0048C10.824 13.1054 10.5632 13.1745 10.1093 13.2116C9.64669 13.2494 9.05245 13.25 8.2 13.25H7.8C6.94755 13.25 6.35331 13.2494 5.89068 13.2116C5.43681 13.1745 5.17604 13.1054 4.97852 13.0048C4.55516 12.789 4.21095 12.4448 3.99524 12.0215C3.8946 11.824 3.82547 11.5632 3.78838 11.1093C3.75058 10.6467 3.75 10.0525 3.75 9.2V8V6.8C3.75 5.94755 3.75058 5.35331 3.78838 4.89068C3.82547 4.43681 3.8946 4.17604 3.99524 3.97852C4.21095 3.55516 4.55516 3.21095 4.97852 2.99524Z" fill="black"/>
</svg>
