<svg width="16" height="16" viewBox="0 0 16 16" fill="none" xmlns="http://www.w3.org/2000/svg">
<path fill-rule="evenodd" clip-rule="evenodd" d="M11.4701 9.47012C11.763 9.17725 12.2378 9.17724 12.5307 9.47012L14.5307 11.4701C14.8231 11.763 14.8234 12.2379 14.5307 12.5307L12.5307 14.5307C12.238 14.8234 11.7631 14.8231 11.4701 14.5307C11.1773 14.2378 11.1773 13.763 11.4701 13.4701L12.1899 12.7504H9.50042C9.08636 12.7504 8.75066 12.4144 8.75042 12.0004C8.75042 11.5862 9.08621 11.2504 9.50042 11.2504H12.1899L11.4701 10.5307C11.1773 10.2378 11.1773 9.76301 11.4701 9.47012ZM10.9701 1.97012C11.263 1.67724 11.7378 1.67723 12.0307 1.97012C12.3231 2.26305 12.3234 2.73793 12.0307 3.03067L9.25042 5.81094V8.50039C9.25017 8.9142 8.91421 9.25008 8.50042 9.25039H5.81097L3.03069 12.0307C2.73796 12.3234 2.26308 12.3231 1.97015 12.0307C1.67727 11.7378 1.67727 11.263 1.97015 10.9701L4.75042 8.18985V5.50039C4.75042 5.08618 5.08621 4.75039 5.50042 4.75039H8.18987L10.9701 1.97012ZM6.25042 7.75039H7.75042V6.25039H6.25042V7.75039Z" fill="black"/>
</svg>
