<svg width="16" height="16" viewBox="0 0 16 16" fill="none" xmlns="http://www.w3.org/2000/svg">
<path d="M8 9.5C8.41421 9.5 8.75 9.83579 8.75 10.25V12.6895L9.46973 11.9697C9.76262 11.6768 10.2374 11.6768 10.5303 11.9697C10.8232 12.2626 10.8232 12.7374 10.5303 13.0303L8.53027 15.0303C8.23738 15.3232 7.76262 15.3232 7.46973 15.0303L5.46973 13.0303L5.41797 12.9736C5.17766 12.6791 5.19512 12.2443 5.46973 11.9697C5.74433 11.6951 6.17905 11.6777 6.47363 11.918L6.53027 11.9697L7.25 12.6895V10.25C7.25 9.83579 7.58579 9.5 8 9.5ZM11.9697 5.46973C12.2443 5.19512 12.6791 5.17766 12.9736 5.41797L13.0303 5.46973L15.0303 7.46973C15.1709 7.61038 15.25 7.80109 15.25 8C15.25 8.19891 15.1709 8.38962 15.0303 8.53027L13.0303 10.5303C12.7374 10.8232 12.2626 10.8232 11.9697 10.5303C11.6768 10.2374 11.6768 9.76262 11.9697 9.46973L12.6895 8.75H10C9.58579 8.75 9.25 8.41421 9.25 8C9.25 7.58579 9.58579 7.25 10 7.25H12.6895L11.9697 6.53027L11.918 6.47363C11.6777 6.17905 11.6951 5.74433 11.9697 5.46973ZM2.96973 5.46973C3.26262 5.17684 3.73738 5.17683 4.03027 5.46973C4.32316 5.76262 4.32316 6.23738 4.03027 6.53027L3.31055 7.25H6L6.07715 7.25391C6.45512 7.29253 6.75 7.61183 6.75 8C6.75 8.38816 6.45512 8.70747 6.07715 8.74609L6 8.75H3.31055L4.03027 9.46973L4.08203 9.52637C4.32234 9.82095 4.30488 10.2557 4.03027 10.5303C3.75567 10.8049 3.32095 10.8223 3.02637 10.582L2.96973 10.5303L0.969727 8.53027C0.676835 8.23738 0.676837 7.76262 0.969727 7.46973L2.96973 5.46973ZM8 0.75C8.19891 0.75 8.38962 0.829078 8.53027 0.969727L10.5303 2.96973L10.582 3.02637C10.8223 3.32095 10.8049 3.75567 10.5303 4.03027C10.2557 4.30487 9.82095 4.32234 9.52637 4.08203L9.46973 4.03027L8.75 3.31055V6C8.75 6.41421 8.41421 6.75 8 6.75C7.58579 6.75 7.25 6.41421 7.25 6V3.31055L6.53027 4.03027C6.23738 4.32317 5.76262 4.32317 5.46973 4.03027C5.17684 3.73738 5.17683 3.26262 5.46973 2.96973L7.46973 0.969727L7.58398 0.875977C7.70628 0.794445 7.85085 0.750002 8 0.75Z" fill="black"/>
</svg>
