<svg width="16" height="16" viewBox="0 0 16 16" fill="none" xmlns="http://www.w3.org/2000/svg">
<path d="M11.293 8.70703C11.6835 8.31661 12.3166 8.31661 12.7071 8.70703L13.293 9.29297C13.6834 9.68348 13.6834 10.3165 13.293 10.707L10.7071 13.293C10.3166 13.6834 9.6835 13.6834 9.293 13.293L8.70706 12.707C8.31663 12.3165 8.31664 11.6835 8.70706 11.293L11.293 8.70703ZM2.82913 2.33008C3.13487 2.02441 3.58903 1.92066 3.9971 2.06348L8.19534 3.53223C9.41015 3.95741 10.0176 4.17065 10.3741 4.47559C11.2115 5.1922 11.481 6.37287 11.0371 7.38184C10.8482 7.81112 10.3931 8.26604 9.48343 9.17578L9.33011 9.3291L9.17679 9.4834C8.26669 10.3935 7.81124 10.8482 7.38186 11.0371C6.37288 11.481 5.19224 11.2115 4.47561 10.374C4.17068 10.0176 3.95745 9.41011 3.53225 8.19531L2.0635 3.99707C1.92078 3.58931 2.02388 3.13574 2.32913 2.83008L5.54886 6.04883C5.40999 6.27616 5.33019 6.54324 5.33011 6.8291C5.33011 7.65753 6.00168 8.3291 6.83011 8.3291C7.65835 8.32889 8.33011 7.6574 8.33011 6.8291C8.32985 6.00102 7.6582 5.32932 6.83011 5.3291C6.54401 5.3291 6.27634 5.40984 6.04886 5.54883L2.82913 2.33008ZM6.83011 6.0791C7.24398 6.07932 7.57985 6.41524 7.58011 6.8291C7.58011 7.24319 7.24414 7.57889 6.83011 7.5791C6.41589 7.5791 6.08011 7.24332 6.08011 6.8291C6.08036 6.41511 6.41605 6.0791 6.83011 6.0791Z" fill="black"/>
</svg>
