<svg width="16" height="16" viewBox="0 0 16 16" fill="none" xmlns="http://www.w3.org/2000/svg">
<path fill-rule="evenodd" clip-rule="evenodd" d="M7.57258 15.8484L7.56868 15.8453L7.55521 15.8342C7.54375 15.8248 7.52737 15.8112 7.50641 15.7936C7.46448 15.7585 7.40418 15.7074 7.32813 15.6413C7.17607 15.5092 6.96075 15.317 6.70321 15.0734C6.18896 14.5869 5.50222 13.8909 4.81383 13.0536C3.46094 11.4079 2 9.09511 2 6.69799C2 3.53069 4.70749 1 8 1C11.2925 1 14 3.53069 14 6.69799C14 9.09511 12.5391 11.4079 11.1862 13.0536C10.4978 13.8909 9.81104 14.5869 9.29679 15.0734C9.03925 15.317 8.82393 15.5092 8.67187 15.6413C8.59582 15.7074 8.53552 15.7585 8.49359 15.7936C8.47263 15.8112 8.45625 15.8248 8.44479 15.8342L8.43132 15.8453L8.42742 15.8484L8.4262 15.8494C8.17944 16.0496 7.82099 16.0499 7.57423 15.8498L7.57258 15.8484ZM8.75 12.25C8.75 12.6642 8.41421 13 8 13C7.58579 13 7.25 12.6642 7.25 12.25C7.25 11.8358 7.58579 11.5 8 11.5C8.41421 11.5 8.75 11.8358 8.75 12.25ZM9.36472 3.91603C8.50973 3.42746 7.45209 3.46389 6.63274 4.01012L6.08397 4.37596C5.73933 4.60573 5.6462 5.07138 5.87596 5.41603C6.10573 5.76067 6.57138 5.8538 6.91603 5.62404L7.46479 5.2582C7.8114 5.02712 8.25882 5.01171 8.62051 5.21839C9.31697 5.61637 9.36684 6.60201 8.7141 7.06825L7.56407 7.8897C7.36697 8.03048 7.25 8.25779 7.25 8.5V9.5C7.25 9.91421 7.58579 10.25 8 10.25C8.41421 10.25 8.75 9.91421 8.75 9.5V8.88596L9.58596 8.28885C11.129 7.18671 11.0111 4.8568 9.36472 3.91603Z" fill="black"/>
</svg>
