<svg width="16" height="16" viewBox="0 0 16 16" fill="none" xmlns="http://www.w3.org/2000/svg">
<path d="M8 1.75C10.6364 1.75 12.75 3.96944 12.75 6.67871C12.75 8.68815 11.6505 10.5492 10.7246 11.7881C10.2427 12.4329 9.76364 12.9679 9.40527 13.3408C9.22553 13.5279 9.07394 13.676 8.96582 13.7793C8.91175 13.831 8.86799 13.8717 8.83691 13.9004C8.82152 13.9146 8.80893 13.9263 8.7998 13.9346L8.79883 13.9355L8.79004 13.9434L8.78418 13.9492H8.7832C8.33492 14.3491 7.66641 14.3511 7.2168 13.9502V13.9492L7.21484 13.9482L7.20996 13.9434L7.20117 13.9355L7.2002 13.9346C7.19107 13.9263 7.17848 13.9146 7.16309 13.9004C7.13201 13.8717 7.08825 13.831 7.03418 13.7793C6.92606 13.676 6.77447 13.5279 6.59473 13.3408C6.23636 12.9679 5.75731 12.4329 5.27539 11.7881C4.34952 10.5492 3.25004 8.68815 3.25 6.67871C3.25 3.96944 5.36364 1.75 8 1.75ZM8 3.25C6.24635 3.25 4.75 4.74252 4.75 6.67871C4.75004 8.185 5.59864 9.7159 6.47656 10.8906C6.91249 11.4739 7.34946 11.9602 7.67676 12.3008C7.80252 12.4317 7.91315 12.5395 8 12.624C8.08685 12.5395 8.19748 12.4317 8.32324 12.3008C8.65054 11.9602 9.08751 11.4739 9.52344 10.8906C10.4014 9.7159 11.25 8.185 11.25 6.67871C11.25 4.74252 9.75365 3.25 8 3.25Z" fill="black"/>
</svg>
