<svg width="16" height="16" viewBox="0 0 16 16" fill="none" xmlns="http://www.w3.org/2000/svg">
<path fill-rule="evenodd" clip-rule="evenodd" d="M6.59183 2.35059C7.29125 1.40259 8.70875 1.40267 9.40823 2.35059C9.52735 2.51212 9.63655 2.75924 9.75198 3.00977C9.78577 3.08309 9.80547 3.12681 9.82132 3.15918C9.83605 3.18925 9.83969 3.19381 9.83695 3.18945C9.89338 3.27833 9.99981 3.32264 10.1026 3.29981C10.098 3.30085 10.1039 3.29964 10.1348 3.28906C10.1689 3.27737 10.2142 3.26042 10.2901 3.23242C10.5489 3.13689 10.8006 3.03973 10.9991 3.00977C12.164 2.83396 13.166 3.83604 12.9903 5.00098C12.9603 5.19939 12.8631 5.45122 12.7676 5.70996C12.7396 5.78584 12.7227 5.83111 12.711 5.86524C12.7045 5.884 12.7022 5.89383 12.7012 5.89746C12.6782 6.00027 12.7217 6.10658 12.8106 6.16309C12.8137 6.1649 12.8227 6.1698 12.8409 6.17871C12.8732 6.19456 12.917 6.21428 12.9903 6.24805C13.2408 6.36351 13.4879 6.47265 13.6494 6.5918C14.5975 7.29124 14.5975 8.70874 13.6494 9.4082C13.4879 9.52736 13.2409 9.63648 12.9903 9.75195C12.9169 9.78578 12.8732 9.80543 12.8409 9.82129C12.8226 9.83021 12.8138 9.83508 12.8106 9.83692C12.7217 9.89338 12.6783 9.99973 12.7012 10.1025C12.7022 10.1061 12.7045 10.1159 12.711 10.1348C12.7227 10.1689 12.7396 10.2142 12.7676 10.29C12.8631 10.5489 12.9603 10.8006 12.9903 10.999C13.1661 12.164 12.1641 13.1661 10.9991 12.9902C10.8006 12.9603 10.5489 12.8631 10.2901 12.7676C10.2142 12.7396 10.1689 12.7226 10.1348 12.7109C10.1159 12.7045 10.1061 12.7022 10.1026 12.7012C9.99976 12.6783 9.89341 12.7216 9.83695 12.8105C9.83511 12.8137 9.83024 12.8226 9.82132 12.8408C9.80546 12.8732 9.7858 12.9169 9.75198 12.9902C9.63651 13.2408 9.52739 13.4879 9.40823 13.6494C8.70877 14.5975 7.29128 14.5975 6.59183 13.6494C6.47268 13.4879 6.36353 13.2408 6.24808 12.9902C6.21431 12.9169 6.19459 12.8732 6.17874 12.8408C6.16983 12.8226 6.16493 12.8137 6.16312 12.8105C6.10661 12.7217 6.0003 12.6782 5.89749 12.7012C5.89386 12.7022 5.88404 12.7045 5.86527 12.7109C5.83114 12.7226 5.78587 12.7396 5.70999 12.7676C5.45125 12.8631 5.19942 12.9603 5.00101 12.9902C3.83607 13.166 2.83399 12.164 3.0098 10.999C3.03976 10.8006 3.13692 10.5488 3.23245 10.29C3.26046 10.2142 3.27741 10.1689 3.28909 10.1348C3.29967 10.1039 3.30088 10.098 3.29984 10.1025C3.32267 9.99978 3.27836 9.89335 3.18948 9.83692C3.19384 9.83966 3.18928 9.83602 3.15921 9.82129C3.12684 9.80544 3.08312 9.78574 3.0098 9.75195C2.75927 9.63652 2.51215 9.52732 2.35062 9.4082C1.4027 8.70872 1.40262 7.29122 2.35062 6.5918C2.51216 6.47264 2.7592 6.36352 3.0098 6.24805C3.08323 6.21421 3.12682 6.19458 3.15921 6.17871C3.17742 6.16979 3.18629 6.16493 3.18948 6.16309C3.27843 6.10663 3.32274 6.00028 3.29984 5.89746C3.30092 5.90227 3.2998 5.89652 3.28909 5.86524C3.27741 5.83112 3.26045 5.7858 3.23245 5.70996C3.13696 5.45126 3.03977 5.19937 3.0098 5.00098C2.83411 3.83611 3.83614 2.83408 5.00101 3.00977C5.1994 3.03974 5.45129 3.13693 5.70999 3.23242C5.78583 3.26042 5.83115 3.27738 5.86527 3.28906C5.89655 3.29977 5.9023 3.30089 5.89749 3.29981C6.00031 3.32271 6.10666 3.27839 6.16312 3.18945C6.16496 3.18626 6.16982 3.17739 6.17874 3.15918C6.19461 3.12679 6.21424 3.08321 6.24808 3.00977C6.36355 2.75916 6.47267 2.51213 6.59183 2.35059ZM8.2012 3.24121C8.10126 3.10584 7.89876 3.10578 7.79886 3.24121C7.81011 3.22596 7.80229 3.23352 7.7637 3.31152C7.72756 3.38461 7.68063 3.48525 7.61038 3.6377C7.55553 3.75674 7.49904 3.88388 7.42972 3.99317C7.03437 4.61619 6.29045 4.92453 5.57034 4.76367C5.44401 4.73541 5.31347 4.68506 5.19046 4.63965C5.03333 4.58165 4.92973 4.54368 4.85257 4.51758C4.76974 4.48956 4.75861 4.49033 4.77738 4.49317C4.61093 4.46803 4.46806 4.6109 4.4932 4.77734C4.49036 4.75858 4.48959 4.76971 4.51761 4.85254C4.54371 4.92969 4.58168 5.0333 4.63968 5.19043C4.68509 5.31344 4.73544 5.44398 4.7637 5.57031C4.92456 6.29042 4.61622 7.03434 3.9932 7.42969C3.88391 7.49902 3.75678 7.5555 3.63773 7.61035C3.48528 7.6806 3.38465 7.72753 3.31156 7.76367C3.23355 7.80226 3.22599 7.81008 3.24124 7.79883C3.10581 7.89873 3.10587 8.10123 3.24124 8.20117C3.22609 8.19001 3.23343 8.19867 3.31156 8.23731C3.38464 8.27344 3.48533 8.31943 3.63773 8.38965C3.7568 8.44451 3.8839 8.50098 3.9932 8.57031C4.6164 8.96577 4.92486 9.71037 4.7637 10.4307C4.73542 10.5569 4.68506 10.6866 4.63968 10.8096C4.58167 10.9667 4.54372 11.0703 4.51761 11.1475C4.48964 11.2301 4.49037 11.2413 4.4932 11.2227C4.46812 11.389 4.61099 11.5329 4.77738 11.5078C4.7587 11.5106 4.76984 11.5104 4.85257 11.4824C4.92974 11.4563 5.0333 11.4184 5.19046 11.3604C5.31349 11.3149 5.44399 11.2656 5.57034 11.2373C6.2906 11.0763 7.03437 11.3846 7.42972 12.0078C7.4989 12.117 7.55562 12.2435 7.61038 12.3623C7.68061 12.5147 7.72757 12.6154 7.7637 12.6885C7.80224 12.7664 7.81001 12.7739 7.79886 12.7588C7.8988 12.8941 8.1013 12.8942 8.2012 12.7588C8.18995 12.774 8.19861 12.7668 8.23734 12.6885C8.27347 12.6154 8.31947 12.5147 8.38968 12.3623C8.44444 12.2434 8.50116 12.117 8.57034 12.0078C8.96576 11.3845 9.71031 11.0761 10.4307 11.2373C10.5569 11.2656 10.6867 11.315 10.8096 11.3604C10.9667 11.4183 11.0703 11.4563 11.1475 11.4824C11.2301 11.5104 11.2413 11.5106 11.2227 11.5078C11.3891 11.5329 11.5329 11.389 11.5078 11.2227C11.5107 11.2413 11.5104 11.23 11.4825 11.1475C11.4563 11.0703 11.4184 10.9667 11.3604 10.8096C11.315 10.6867 11.2656 10.5569 11.2373 10.4307C11.0762 9.71028 11.3845 8.96573 12.0078 8.57031C12.117 8.50112 12.2435 8.44442 12.3623 8.38965C12.5147 8.31943 12.6154 8.27344 12.6885 8.23731C12.7668 8.19857 12.7741 8.18992 12.7588 8.20117C12.8942 8.10127 12.8942 7.89877 12.7588 7.79883C12.7739 7.80997 12.7664 7.80221 12.6885 7.76367C12.6154 7.72754 12.5147 7.68058 12.3623 7.61035C12.2435 7.5556 12.117 7.49886 12.0078 7.42969C11.3846 7.03434 11.0764 6.29057 11.2373 5.57031C11.2656 5.44396 11.315 5.31346 11.3604 5.19043C11.4184 5.03327 11.4563 4.9297 11.4825 4.85254C11.5104 4.76981 11.5107 4.75867 11.5078 4.77734C11.5329 4.61096 11.3891 4.46809 11.2227 4.49317C11.2413 4.49034 11.2302 4.48962 11.1475 4.51758C11.0703 4.54369 10.9668 4.58164 10.8096 4.63965C10.6867 4.68503 10.557 4.73539 10.4307 4.76367C9.7104 4.92483 8.9658 4.61637 8.57034 3.99317C8.50101 3.88387 8.44454 3.75676 8.38968 3.6377C8.31946 3.4853 8.27347 3.38461 8.23734 3.31152C8.1987 3.23339 8.19004 3.22606 8.2012 3.24121ZM8.11234 5.45313C8.41452 5.16985 8.88861 5.18514 9.17191 5.48731L11.0469 7.48731C11.3174 7.77579 11.3174 8.2242 11.0469 8.5127L9.17191 10.5127C8.88861 10.8149 8.41452 10.8302 8.11234 10.5469C7.81017 10.2636 7.79486 9.78948 8.07816 9.48731L8.76956 8.75H5.50003C5.08582 8.75 4.75003 8.41421 4.75003 8C4.75005 7.5858 5.08583 7.25 5.50003 7.25H8.76956L8.07816 6.5127C7.79488 6.21051 7.81016 5.73642 8.11234 5.45313Z" fill="black"/>
</svg>
