<svg width="16" height="16" viewBox="0 0 16 16" fill="none" xmlns="http://www.w3.org/2000/svg">
<g clip-path="url(#clip0_1651_5666)">
<path d="M13.9697 0.969731C14.2626 0.676838 14.7374 0.676838 15.0303 0.969731C15.3231 1.26263 15.3232 1.7374 15.0303 2.03028L12.0606 5L14.5303 7.46973C14.8231 7.76263 14.8232 8.2374 14.5303 8.53028L8.53028 14.5303C8.2374 14.8232 7.76263 14.8231 7.46973 14.5303L5 12.0606L2.03028 15.0303C1.7374 15.3232 1.26263 15.3231 0.969731 15.0303C0.676838 14.7374 0.676838 14.2626 0.969731 13.9697L3.93946 11L1.46973 8.53028C1.17684 8.23738 1.17684 7.76262 1.46973 7.46973L7.46973 1.46973L7.52637 1.41797C7.82095 1.17767 8.25568 1.19513 8.53028 1.46973L11 3.93946L13.9697 0.969731ZM6.06055 11L8 12.9395L9.93946 11L8 9.06055L6.06055 11ZM3.06055 8L5 9.93946L6.93946 8L5 6.06055L3.06055 8ZM9.06055 8L11 9.93946L12.9395 8L11 6.06055L9.06055 8ZM6.06055 5L8 6.93946L9.93946 5L8 3.06055L6.06055 5Z" fill="black"/>
</g>
<defs>
<clipPath id="clip0_1651_5666">
<rect width="16" height="16" fill="white"/>
</clipPath>
</defs>
</svg>
