<svg width="16" height="16" viewBox="0 0 16 16" fill="none" xmlns="http://www.w3.org/2000/svg">
<path d="M2.31085 2.20401C2.47418 1.82375 2.91474 1.64753 3.29523 1.81046C3.67593 1.97361 3.85287 2.4151 3.68976 2.79581C3.01624 4.36753 3.02007 6.16582 3.54523 7.54581C3.79297 8.19675 4.14203 8.72279 4.56769 9.09854C4.69445 8.61432 4.8655 8.12953 5.07159 7.66299C5.56122 6.55472 6.26646 5.48043 7.08722 4.67178C7.89229 3.8787 8.90448 3.24992 10.0003 3.24991C10.5002 3.24999 10.9639 3.39982 11.3157 3.74014C11.6585 4.07192 11.8146 4.50692 11.8646 4.92667C11.9616 5.7429 11.6896 6.7111 11.2493 7.58682C10.7995 8.48141 10.1239 9.38054 9.28839 10.0644C8.45353 10.7476 7.41508 11.2499 6.25714 11.2499C6.12286 11.2499 5.99138 11.2424 5.86261 11.2304C5.94706 11.8037 6.1975 12.146 6.57159 12.3192C7.12138 12.5736 7.6507 12.5111 8.25616 12.2489C8.56571 12.1148 8.87865 11.9345 9.20929 11.7294C9.51961 11.5369 9.88715 11.2946 10.2151 11.1024C10.8472 10.7322 11.7221 10.2973 12.638 10.6005C13.5567 10.9047 14.1925 11.8364 14.7044 13.244C14.8458 13.6333 14.6453 14.0635 14.2562 14.205C13.8669 14.3464 13.4368 14.145 13.2952 13.7558C12.8072 12.4138 12.3801 12.0951 12.1663 12.0243C11.9497 11.9528 11.6217 12.0179 10.9739 12.3974C10.6619 12.5802 10.3699 12.7755 10.0003 13.0048C9.65116 13.2214 9.2638 13.4475 8.85187 13.6259C8.01413 13.9887 7.01416 14.1761 5.94269 13.6806C4.83368 13.1676 4.39269 12.1097 4.33722 11.0312C4.3326 10.9413 4.33101 10.8503 4.33136 10.7587C3.31309 10.1963 2.57288 9.20631 2.14386 8.07901C1.47984 6.3341 1.48452 4.13214 2.31085 2.20401ZM10.0003 4.74991C9.47478 4.74992 8.82186 5.06839 8.13995 5.74014C7.474 6.39625 6.86927 7.3052 6.44366 8.26846C6.22341 8.76703 6.05916 9.2635 5.95636 9.73038C6.05487 9.74185 6.15504 9.74991 6.25714 9.74991C6.97055 9.7499 7.68494 9.43966 8.33917 8.90421C8.99265 8.36933 9.54231 7.6433 9.90948 6.91299C10.2861 6.16398 10.423 5.50691 10.3753 5.1044C10.3528 4.91498 10.2971 4.84184 10.2728 4.81827C10.2573 4.80333 10.1976 4.74998 10.0003 4.74991Z" fill="black"/>
</svg>
