<svg width="16" height="16" viewBox="0 0 16 16" fill="none" xmlns="http://www.w3.org/2000/svg">
<path d="M10.5 9.25C12.6881 9.25 13.9947 10.7168 14.4375 11.3115C14.743 11.7219 14.743 12.2781 14.4375 12.6885L14.2305 12.9482C13.6536 13.6275 12.4142 14.75 10.5 14.75C8.31189 14.75 7.00531 13.2832 6.5625 12.6885C6.25699 12.2781 6.25699 11.7219 6.5625 11.3115C7.00531 10.7168 8.31189 9.25 10.5 9.25ZM10.5 10.75C11.1904 10.75 11.75 11.3096 11.75 12C11.75 12.6904 11.1904 13.25 10.5 13.25C9.80964 13.25 9.25 12.6904 9.25 12C9.25 11.3096 9.80964 10.75 10.5 10.75C9.22428 10.75 8.36495 11.4969 7.93262 12C8.36495 12.5031 9.22428 13.25 10.5 13.25C11.7761 13.25 12.6362 12.5031 13.0684 12C12.6632 11.5284 11.8819 10.8427 10.7344 10.7588L10.5 10.75ZM10.5 11.75C10.3619 11.75 10.25 11.8619 10.25 12C10.25 12.1381 10.3619 12.25 10.5 12.25C10.6381 12.25 10.75 12.1381 10.75 12C10.75 11.8619 10.6381 11.75 10.5 11.75ZM5 9.25C5.41421 9.25 5.75 9.58579 5.75 10C5.75 10.4142 5.41421 10.75 5 10.75H3.5C3.08579 10.75 2.75 10.4142 2.75 10C2.75 9.58579 3.08579 9.25 3.5 9.25H5ZM12.5 6.25C12.9142 6.25 13.25 6.58579 13.25 7C13.25 7.41421 12.9142 7.75 12.5 7.75H3.5C3.08579 7.75 2.75 7.41421 2.75 7C2.75 6.58579 3.08579 6.25 3.5 6.25H12.5ZM12.5 3.25C12.9142 3.25 13.25 3.58579 13.25 4C13.25 4.41421 12.9142 4.75 12.5 4.75H3.5C3.08579 4.75 2.75 4.41421 2.75 4C2.75 3.58579 3.08579 3.25 3.5 3.25H12.5Z" fill="black"/>
</svg>
