<svg width="16" height="16" viewBox="0 0 16 16" fill="none" xmlns="http://www.w3.org/2000/svg">
<path fill-rule="evenodd" clip-rule="evenodd" d="M3 1.25C3.41421 1.25 3.75 1.58579 3.75 2V12.25H14C14.4142 12.25 14.75 12.5858 14.75 13C14.75 13.4142 14.4142 13.75 14 13.75H3.75V15C3.75 15.4142 3.41421 15.75 3 15.75C2.58579 15.75 2.25 15.4142 2.25 15V13.75H1C0.585786 13.75 0.25 13.4142 0.25 13C0.25 12.5858 0.585786 12.25 1 12.25H2.25V2C2.25 1.58579 2.58579 1.25 3 1.25ZM4.75 2.5C4.75 2.08579 5.08579 1.75 5.5 1.75H8.5C8.91421 1.75 9.25 2.08579 9.25 2.5V5.5C9.25 5.91421 8.91421 6.25 8.5 6.25H5.5C5.08579 6.25 4.75 5.91421 4.75 5.5V2.5ZM6.25 3.25V4.75H7.75V3.25H6.25ZM9.75 2.5C9.75 2.08579 10.0858 1.75 10.5 1.75H13.5C13.9142 1.75 14.25 2.08579 14.25 2.5V5.5C14.25 5.91421 13.9142 6.25 13.5 6.25H10.5C10.0858 6.25 9.75 5.91421 9.75 5.5V2.5ZM11.25 3.25V4.75H12.75V3.25H11.25ZM4.75 7.5C4.75 7.08579 5.08579 6.75 5.5 6.75H8.5C8.91421 6.75 9.25 7.08579 9.25 7.5V10.5C9.25 10.9142 8.91421 11.25 8.5 11.25H5.5C5.08579 11.25 4.75 10.9142 4.75 10.5V7.5ZM6.25 8.25V9.75H7.75V8.25H6.25ZM9.75 7.5C9.75 7.08579 10.0858 6.75 10.5 6.75H13.5C13.9142 6.75 14.25 7.08579 14.25 7.5V10.5C14.25 10.9142 13.9142 11.25 13.5 11.25H10.5C10.0858 11.25 9.75 10.9142 9.75 10.5V7.5ZM11.25 8.25V9.75H12.75V8.25H11.25Z" fill="black"/>
</svg>
