<svg width="16" height="16" viewBox="0 0 16 16" fill="none" xmlns="http://www.w3.org/2000/svg">
<path d="M12.9697 1.96979C13.2626 1.67689 13.7374 1.67689 14.0303 1.96979C14.3231 2.26269 14.3231 2.73746 14.0303 3.03033L3.03027 14.0303C2.7374 14.3232 2.26262 14.3232 1.96973 14.0303C1.67683 13.7374 1.67683 13.2627 1.96973 12.9698L12.9697 1.96979ZM13 9.25006C13.4142 9.25009 13.75 9.58587 13.75 10.0001V12.0001C13.75 12.9665 12.9665 13.75 12 13.7501H10C9.58581 13.7501 9.25003 13.4142 9.25 13.0001C9.25 12.5858 9.58579 12.2501 10 12.2501H12C12.138 12.25 12.25 12.1381 12.25 12.0001V10.0001C12.25 9.58585 12.5858 9.25006 13 9.25006ZM6 2.25006C6.41419 2.25009 6.75 2.58587 6.75 3.00006C6.74997 3.41423 6.41417 3.75003 6 3.75006H4C3.86193 3.75006 3.75 3.86199 3.75 4.00006V6.00006C3.74997 6.41423 3.41417 6.75003 3 6.75006C2.58581 6.75006 2.25003 6.41425 2.25 6.00006V4.00006C2.25 3.03356 3.0335 2.25006 4 2.25006H6Z" fill="black"/>
</svg>
