<svg width="16" height="16" viewBox="0 0 16 16" fill="none" xmlns="http://www.w3.org/2000/svg">
<path d="M9.89648 2C10.3107 2 10.6465 2.33579 10.6465 2.75V5.43848C12.5514 5.89015 13.9688 7.60248 13.9688 9.64551C13.9687 12.033 12.033 13.9687 9.64551 13.9688C7.60247 13.9688 5.89015 12.5514 5.43848 10.6465H2.75C2.33579 10.6465 2 10.3107 2 9.89648V2.75C2 2.33579 2.33579 2 2.75 2H9.89648ZM9.64551 6.82227C8.08626 6.82227 6.82227 8.08626 6.82227 9.64551C6.82235 11.2047 8.08631 12.4688 9.64551 12.4688C11.2046 12.4687 12.4687 11.2046 12.4688 9.64551C12.4688 8.08632 11.2047 6.82236 9.64551 6.82227Z" fill="black"/>
</svg>
