<svg width="16" height="16" viewBox="0 0 16 16" fill="none" xmlns="http://www.w3.org/2000/svg">
<path d="M14.5 8.25C14.9142 8.25001 15.25 8.5858 15.25 9C15.25 9.41421 14.9142 9.75 14.5 9.75C13.8329 9.75003 13.2144 10.0999 12.8711 10.6719L11.6719 12.6709C10.898 13.9607 9.50415 14.75 8 14.75C6.49587 14.75 5.10205 13.9606 4.32812 12.6709L3.12891 10.6719C2.7857 10.0999 2.16704 9.74999 1.5 9.75C1.08585 9.74993 0.750007 9.41417 0.75 9C0.750014 8.58584 1.08586 8.25007 1.5 8.25C2.69394 8.24998 3.80074 8.87661 4.41504 9.90039L5.61426 11.8994C6.11712 12.7373 7.02282 13.25 8 13.25C8.9772 13.25 9.88289 12.7373 10.3857 11.8994L11.585 9.90039C12.1993 8.87652 13.306 8.25003 14.5 8.25ZM8 2.00879C8.41421 2.00879 8.75 2.34458 8.75 2.75879V4.25586H10.248C10.662 4.25602 10.9979 4.5919 10.998 5.00586C10.9979 5.41984 10.662 5.7557 10.248 5.75586H8.75V7.25391C8.74967 7.66784 8.41401 8.00391 8 8.00391C7.58615 8.00372 7.25033 7.66772 7.25 7.25391V5.75586H5.75293C5.33882 5.75586 5.00309 5.41993 5.00293 5.00586C5.00311 4.5918 5.33883 4.25586 5.75293 4.25586H7.25V2.75879C7.25 2.34469 7.58594 2.00897 8 2.00879Z" fill="black"/>
</svg>
