<svg width="16" height="16" viewBox="0 0 16 16" fill="none" xmlns="http://www.w3.org/2000/svg">
<path d="M14.5 10.75C14.9142 10.75 15.25 11.0858 15.25 11.5C15.25 11.9142 14.9142 12.25 14.5 12.25C13.7386 12.25 13.0082 12.5525 12.4697 13.0908L11.9443 13.6162C10.8982 14.6622 9.47938 15.25 8 15.25C6.52065 15.25 5.10177 14.6622 4.05566 13.6162L3.53027 13.0908C2.99186 12.5524 2.26141 12.25 1.5 12.25C1.08585 12.2499 0.750004 11.9142 0.75 11.5C0.75 11.0858 1.08585 10.7501 1.5 10.75C2.65924 10.75 3.7711 11.2106 4.59082 12.0303L5.11621 12.5557C5.88101 13.3204 6.91848 13.75 8 13.75C9.08155 13.75 10.119 13.3204 10.8838 12.5557L11.4092 12.0303C12.229 11.2106 13.3407 10.75 14.5 10.75ZM8 0.75C9.51878 0.75 10.75 1.98122 10.75 3.5V3.75H11C11.9665 3.75 12.75 4.5335 12.75 5.5V8.5C12.75 9.4665 11.9665 10.25 11 10.25H5C4.0335 10.25 3.25 9.4665 3.25 8.5V5.5C3.25 4.5335 4.0335 3.75 5 3.75H5.25V3.5C5.25 1.98122 6.48122 0.75 8 0.75ZM8 2.25C7.30964 2.25 6.75 2.80964 6.75 3.5V3.75H9.25V3.5C9.25 2.80964 8.69036 2.25 8 2.25Z" fill="black"/>
</svg>
