<svg width="16" height="16" viewBox="0 0 16 16" fill="none" xmlns="http://www.w3.org/2000/svg">
<path d="M2.99969 9.25C3.41391 9.25 3.74969 9.58579 3.74969 10V12C3.74969 12.138 3.86174 12.2499 3.99969 12.25H5.99969C6.41391 12.25 6.74969 12.5858 6.74969 13C6.74969 13.4142 6.41391 13.75 5.99969 13.75H3.99969C3.03331 13.7499 2.24969 12.9664 2.24969 12V10C2.24969 9.58587 2.58559 9.25013 2.99969 9.25ZM12.9997 9.25C13.4139 9.25 13.7497 9.58579 13.7497 10V12C13.7497 12.9665 12.9662 13.75 11.9997 13.75H9.99969C9.58561 13.7498 9.24969 13.4141 9.24969 13C9.24969 12.5859 9.58561 12.2502 9.99969 12.25H11.9997C12.1378 12.25 12.2497 12.1381 12.2497 12V10C12.2497 9.58588 12.5856 9.25015 12.9997 9.25ZM9.99969 8.75C10.4139 8.75 10.7497 9.08579 10.7497 9.5C10.7497 9.91421 10.4139 10.25 9.99969 10.25H5.99969C5.58559 10.2499 5.24969 9.91413 5.24969 9.5C5.24969 9.08587 5.58559 8.75013 5.99969 8.75H9.99969ZM9.99969 5.75C10.4139 5.75 10.7497 6.08579 10.7497 6.5C10.7497 6.91421 10.4139 7.25 9.99969 7.25H5.99969C5.58559 7.24987 5.24969 6.91413 5.24969 6.5C5.24969 6.08587 5.58559 5.75013 5.99969 5.75H9.99969ZM5.99969 2.25C6.41391 2.25 6.74969 2.58579 6.74969 3C6.74969 3.41421 6.41391 3.75 5.99969 3.75H3.99969C3.86175 3.75015 3.74969 3.86202 3.74969 4V6C3.74969 6.41421 3.41391 6.75 2.99969 6.75C2.58561 6.74985 2.24969 6.41412 2.24969 6V4C2.24969 3.0336 3.03333 2.25015 3.99969 2.25H5.99969ZM11.9997 2.25C12.9662 2.25 13.7497 3.0335 13.7497 4V6C13.7497 6.41421 13.4139 6.75 12.9997 6.75C12.5856 6.74982 12.2497 6.4141 12.2497 6V4C12.2497 3.86193 12.1378 3.75 11.9997 3.75H9.99969C9.58564 3.74982 9.24969 3.4141 9.24969 3C9.24969 2.5859 9.58564 2.25018 9.99969 2.25H11.9997Z" fill="black"/>
</svg>
