<svg width="16" height="16" viewBox="0 0 16 16" fill="none" xmlns="http://www.w3.org/2000/svg"><path fill-rule="evenodd" clip-rule="evenodd" d="M15 8C15 11.866 11.866 15 8 15C4.13401 15 1 11.866 1 8C1 4.13401 4.13401 1 8 1C11.866 1 15 4.13401 15 8ZM8.75 12.25C8.75 12.6642 8.41421 13 8 13C7.58579 13 7.25 12.6642 7.25 12.25C7.25 11.8358 7.58579 11.5 8 11.5C8.41421 11.5 8.75 11.8358 8.75 12.25ZM9.36472 3.91603C8.50973 3.42746 7.45209 3.46389 6.63274 4.01012L6.08397 4.37596C5.73933 4.60573 5.6462 5.07138 5.87596 5.41603C6.10573 5.76067 6.57138 5.8538 6.91603 5.62404L7.46479 5.2582C7.8114 5.02712 8.25882 5.01171 8.62051 5.21839C9.31697 5.61637 9.36684 6.60201 8.7141 7.06825L7.56407 7.8897C7.36697 8.03048 7.25 8.25779 7.25 8.5V9.5C7.25 9.91421 7.58579 10.25 8 10.25C8.41421 10.25 8.75 9.91421 8.75 9.5V8.88596L9.58596 8.28885C11.129 7.18671 11.0111 4.8568 9.36472 3.91603Z" fill="currentColor"/></svg>