<svg width="16" height="16" viewBox="0 0 16 16" fill="none" xmlns="http://www.w3.org/2000/svg"><path fill-rule="evenodd" clip-rule="evenodd" d="M8 15C11.866 15 15 11.866 15 8C15 4.13401 11.866 1 8 1C4.13401 1 1 4.13401 1 8C1 11.866 4.13401 15 8 15ZM11 8.75C11.4142 8.75 11.75 8.41422 11.75 8C11.75 7.58579 11.4142 7.25 11 7.25L8.75 7.25L8.75 5C8.75 4.58579 8.41421 4.25 8 4.25C7.58579 4.25 7.25 4.58579 7.25 5L7.25 7.25L5 7.25C4.58578 7.25 4.25 7.58579 4.25 8C4.25 8.41422 4.58578 8.75 5 8.75L7.25 8.75L7.25 11C7.25 11.4142 7.58579 11.75 8 11.75C8.41421 11.75 8.75 11.4142 8.75 11L8.75 8.75L11 8.75Z" fill="currentColor"/></svg>