<svg width="16" height="16" viewBox="0 0 16 16" fill="none" xmlns="http://www.w3.org/2000/svg"><path d="M7.5 1.25C11.2279 1.25 14.25 4.27208 14.25 8C14.25 11.7279 11.2279 14.75 7.5 14.75C3.77208 14.75 0.75 11.7279 0.75 8C0.75 4.27208 3.77208 1.25 7.5 1.25ZM7.5 2.75C4.60051 2.75 2.25 5.10051 2.25 8C2.25 10.8995 4.60051 13.25 7.5 13.25C10.3995 13.25 12.75 10.8995 12.75 8C12.75 5.10051 10.3995 2.75 7.5 2.75ZM8.31055 4.18262C8.60926 4.12494 8.75888 4.188 9.05762 4.31445C10.4927 4.92192 11.5 6.34353 11.5 8C11.5 9.65647 10.4927 11.0781 9.05762 11.6855C8.75888 11.812 8.60926 11.8751 8.31055 11.8174C8.10321 11.7773 7.78765 11.5679 7.66992 11.3926C7.50032 11.1399 7.5 10.8934 7.5 10.4004V5.59961C7.5 5.10661 7.50032 4.86015 7.66992 4.60742C7.78765 4.43211 8.10321 4.2227 8.31055 4.18262Z" fill="currentColor"/></svg>