<svg width="16" height="16" viewBox="0 0 16 16" fill="none" xmlns="http://www.w3.org/2000/svg"><g clip-path="url(#clip0_1_2528)"><rect width="16" height="16" fill="white"/><path d="M16.5 -0.5V16.5H-0.5V-0.5H16.5Z" fill="white" stroke="white"/><path d="M7.99998 1.58333V3.99999M7.99998 12V14.4167M1.58331 7.99999H3.99998M12 7.99999H14.4166M12.5372 3.46272L11.5355 4.46446M4.46445 11.5355L3.46271 12.5373M3.46271 3.46272L4.49998 4.49999M11.5355 11.5355L12.5372 12.5373" stroke="#333333" stroke-width="1.5"/><path d="M8 1.75C11.4518 1.75 14.25 4.54822 14.25 8C14.25 11.4518 11.4518 14.25 8 14.25C4.54822 14.25 1.75 11.4518 1.75 8C1.75 4.54822 4.54822 1.75 8 1.75Z" stroke="#333333" stroke-width="1.5"/><circle cx="8" cy="8" r="1.25" stroke="#468AF3" stroke-width="1.5"/><path d="M7 7L4.5 4.5" stroke="#468AF3" stroke-width="1.5"/></g><defs><clipPath id="clip0_1_2528"><rect width="16" height="16" fill="white"/></clipPath></defs></svg>