<svg width="16" height="16" viewBox="0 0 16 16" fill="none" xmlns="http://www.w3.org/2000/svg">
<g clip-path="url(#clip0_804_695)">
<mask id="path-1-outside-1_804_695" maskUnits="userSpaceOnUse" x="-0.0181885" y="1.13257" width="16" height="13" fill="black">
<rect fill="white" x="-0.0181885" y="1.13257" width="16" height="13"/>
<path d="M10.6761 3.13257C10.9759 3.13257 11.126 3.13266 11.2631 3.17261C11.3845 3.20807 11.4983 3.26665 11.598 3.34448C11.7107 3.43243 11.7987 3.55411 11.974 3.79761L14.3265 7.06519C14.5685 7.40122 14.6898 7.56924 14.7367 7.75269C14.778 7.91472 14.778 8.08478 14.7367 8.24683C14.6899 8.43038 14.5686 8.5991 14.3265 8.9353L11.974 12.2019C11.7986 12.4455 11.7107 12.568 11.598 12.656C11.4983 12.7337 11.3844 12.7915 11.2631 12.8269C11.1259 12.8669 10.976 12.8669 10.6761 12.8669H2.58142C2.02163 12.8669 1.74157 12.8675 1.52771 12.7585C1.33957 12.6627 1.18705 12.5092 1.09119 12.321C0.982262 12.1072 0.981812 11.8273 0.981812 11.2673V4.73218C0.981812 4.17239 0.982218 3.89233 1.09119 3.67847C1.18703 3.4905 1.33974 3.33778 1.52771 3.24194C1.74157 3.13298 2.02163 3.13257 2.58142 3.13257H10.6761ZM11.3275 6.99976C10.7754 6.99976 10.3278 7.44768 10.3275 7.99976C10.3275 8.55204 10.7752 8.99976 11.3275 8.99976C11.8797 8.99966 12.3275 8.55198 12.3275 7.99976C12.3273 7.44774 11.8796 6.99985 11.3275 6.99976Z"/>
</mask>
<path d="M10.6761 3.13257C10.9759 3.13257 11.126 3.13266 11.2631 3.17261C11.3845 3.20807 11.4983 3.26665 11.598 3.34448C11.7107 3.43243 11.7987 3.55411 11.974 3.79761L14.3265 7.06519C14.5685 7.40122 14.6898 7.56924 14.7367 7.75269C14.778 7.91472 14.778 8.08478 14.7367 8.24683C14.6899 8.43038 14.5686 8.5991 14.3265 8.9353L11.974 12.2019C11.7986 12.4455 11.7107 12.568 11.598 12.656C11.4983 12.7337 11.3844 12.7915 11.2631 12.8269C11.1259 12.8669 10.976 12.8669 10.6761 12.8669H2.58142C2.02163 12.8669 1.74157 12.8675 1.52771 12.7585C1.33957 12.6627 1.18705 12.5092 1.09119 12.321C0.982262 12.1072 0.981812 11.8273 0.981812 11.2673V4.73218C0.981812 4.17239 0.982218 3.89233 1.09119 3.67847C1.18703 3.4905 1.33974 3.33778 1.52771 3.24194C1.74157 3.13298 2.02163 3.13257 2.58142 3.13257H10.6761ZM11.3275 6.99976C10.7754 6.99976 10.3278 7.44768 10.3275 7.99976C10.3275 8.55204 10.7752 8.99976 11.3275 8.99976C11.8797 8.99966 12.3275 8.55198 12.3275 7.99976C12.3273 7.44774 11.8796 6.99985 11.3275 6.99976Z" fill="#E1455B"/>
<path d="M10.6761 3.13257V2.13257V3.13257ZM11.2631 3.17261L11.5433 2.21267L11.5428 2.21253L11.2631 3.17261ZM11.598 3.34448L12.2133 2.55617L12.2131 2.55603L11.598 3.34448ZM11.974 3.79761L12.7855 3.21332L12.7855 3.2133L11.974 3.79761ZM14.3265 7.06519L13.515 7.64947L13.515 7.64949L14.3265 7.06519ZM14.7367 7.75269L15.7057 7.50566L15.7056 7.50526L14.7367 7.75269ZM14.7367 8.24683L15.7057 8.49385L15.7057 8.49369L14.7367 8.24683ZM14.3265 8.9353L15.138 9.5197L15.1381 9.51961L14.3265 8.9353ZM11.974 12.2019L11.1625 11.6175L11.1625 11.6176L11.974 12.2019ZM11.598 12.656L12.2129 13.4446L12.2133 13.4443L11.598 12.656ZM11.2631 12.8269L11.543 13.7869L11.5433 13.7868L11.2631 12.8269ZM10.6761 12.8669V13.8669V12.8669ZM2.58142 12.8669V13.8669V12.8669ZM1.52771 12.7585L1.07368 13.6495L1.07372 13.6496L1.52771 12.7585ZM1.09119 12.321L0.200078 12.7748L0.20018 12.775L1.09119 12.321ZM0.981812 4.73218H-0.0181885H0.981812ZM1.09119 3.67847L0.200303 3.22423L0.20018 3.22448L1.09119 3.67847ZM1.52771 3.24194L1.07372 2.35094L1.07348 2.35106L1.52771 3.24194ZM2.58142 3.13257V2.13257V3.13257ZM11.3275 6.99976L11.3277 5.99976H11.3275V6.99976ZM10.3275 7.99976L9.32751 7.99931V7.99976H10.3275ZM11.3275 8.99976V9.99976H11.3277L11.3275 8.99976ZM12.3275 7.99976H13.3275V7.99931L12.3275 7.99976ZM10.6761 3.13257V4.13257C10.8363 4.13257 10.9175 4.13293 10.9762 4.13613C11.0244 4.13875 11.0139 4.14159 10.9833 4.13269L11.2631 3.17261L11.5428 2.21253C11.2365 2.1233 10.9171 2.13257 10.6761 2.13257V3.13257ZM11.2631 3.17261L10.9828 4.13254L10.9829 4.13294L11.598 3.34448L12.2131 2.55603C12.0149 2.40139 11.7878 2.28406 11.5433 2.21267L11.2631 3.17261ZM11.598 3.34448L10.9827 4.13279C10.9579 4.11339 10.9542 4.10336 10.9844 4.1408C11.0212 4.18644 11.069 4.25213 11.1625 4.38191L11.974 3.79761L12.7855 3.2133C12.6439 3.01665 12.4649 2.75254 12.2133 2.55617L11.598 3.34448ZM11.974 3.79761L11.1625 4.38189L13.515 7.64947L14.3265 7.06519L15.1381 6.4809L12.7855 3.21332L11.974 3.79761ZM14.3265 7.06519L13.515 7.64949C13.6441 7.82879 13.7111 7.92268 13.7554 7.99388C13.793 8.05453 13.7792 8.04487 13.7678 8.00011L14.7367 7.75269L15.7056 7.50526C15.6005 7.09377 15.3294 6.74666 15.1381 6.48088L14.3265 7.06519ZM14.7367 7.75269L13.7677 7.99971L13.7676 7.99996L14.7367 8.24683L15.7057 8.49369C15.7883 8.16977 15.7884 7.8299 15.7057 7.50566L14.7367 7.75269ZM14.7367 8.24683L13.7677 7.9998C13.779 7.95549 13.7926 7.94621 13.7549 8.00689C13.7109 8.07795 13.6438 8.1721 13.515 8.351L14.3265 8.9353L15.1381 9.51961C15.3306 9.25221 15.6008 8.90532 15.7057 8.49385L14.7367 8.24683ZM14.3265 8.9353L13.5151 8.3509L11.1625 11.6175L11.974 12.2019L12.7855 12.7863L15.138 9.5197L14.3265 8.9353ZM11.974 12.2019L11.1625 11.6176C11.0684 11.7483 11.0206 11.8142 10.9833 11.8605C10.9526 11.8987 10.9568 11.888 10.9827 11.8677L11.598 12.656L12.2133 13.4443C12.4656 13.2474 12.6459 12.9801 12.7855 12.7862L11.974 12.2019ZM11.598 12.656L10.9832 11.8674L10.9828 11.867L11.2631 12.8269L11.5433 13.7868C11.7834 13.7167 12.0113 13.6018 12.2129 13.4446L11.598 12.656ZM11.2631 12.8269L10.9832 11.8669C11.0138 11.8579 11.0244 11.8608 10.9763 11.8634C10.9175 11.8666 10.8364 11.8669 10.6761 11.8669V12.8669V13.8669C10.917 13.8669 11.2365 13.8763 11.543 13.7869L11.2631 12.8269ZM10.6761 12.8669V11.8669H2.58142V12.8669V13.8669H10.6761V12.8669ZM2.58142 12.8669V11.8669C2.28449 11.8669 2.12233 11.8663 2.00542 11.8569C1.90022 11.8484 1.92354 11.8379 1.9817 11.8675L1.52771 12.7585L1.07372 13.6496C1.34574 13.7882 1.61602 13.8319 1.84426 13.8504C2.06079 13.8679 2.31856 13.8669 2.58142 13.8669V12.8669ZM1.52771 12.7585L1.98174 11.8676L1.98219 11.8671L1.09119 12.321L0.20018 12.775C0.390878 13.1493 0.695371 13.4568 1.07368 13.6495L1.52771 12.7585ZM1.09119 12.321L1.9823 11.8673C2.0113 11.9242 2.00089 11.9465 1.99228 11.8419C1.9827 11.7256 1.98181 11.5634 1.98181 11.2673H0.981812H-0.0181885C-0.0181885 11.5312 -0.0188547 11.7889 -0.000973642 12.006C0.0178666 12.2348 0.0621485 12.504 0.200078 12.7748L1.09119 12.321ZM0.981812 11.2673H1.98181V4.73218H0.981812H-0.0181885V11.2673H0.981812ZM0.981812 4.73218H1.98181C1.98181 4.43617 1.98269 4.27394 1.99227 4.15763C2.00088 4.05292 2.0113 4.07533 1.98219 4.13246L1.09119 3.67847L0.20018 3.22448C0.0621034 3.49547 0.0178331 3.76483 -0.000993729 3.99357C-0.0188659 4.2107 -0.0181885 4.46839 -0.0181885 4.73218H0.981812ZM1.09119 3.67847L1.98207 4.1327L1.98194 4.13283L1.52771 3.24194L1.07348 2.35106C0.697537 2.54274 0.391984 2.84829 0.200304 3.22423L1.09119 3.67847ZM1.52771 3.24194L1.9817 4.13295C1.92457 4.16206 1.90216 4.15164 2.00687 4.14302C2.12318 4.13345 2.28541 4.13257 2.58142 4.13257V3.13257V2.13257C2.31764 2.13257 2.05994 2.13189 1.84281 2.14976C1.61408 2.16859 1.34471 2.21286 1.07372 2.35094L1.52771 3.24194ZM2.58142 3.13257V4.13257H10.6761V3.13257V2.13257H2.58142V3.13257ZM11.3275 6.99976V5.99976C10.2227 5.99976 9.32801 6.89574 9.32751 7.99931L10.3275 7.99976L11.3275 8.0002V7.99976V6.99976ZM10.3275 7.99976H9.32751C9.32751 9.10433 10.2229 9.99976 11.3275 9.99976V8.99976V7.99976H10.3275ZM11.3275 8.99976L11.3277 9.99976C12.4319 9.99956 13.3275 9.10444 13.3275 7.99976H12.3275H11.3275H11.3273L11.3275 8.99976ZM12.3275 7.99976L13.3275 7.99931C13.327 6.89563 12.4322 5.99995 11.3277 5.99976L11.3275 6.99976L11.3273 7.99976L11.3275 8.0002L12.3275 7.99976Z" fill="#E6E6E6" mask="url(#path-1-outside-1_804_695)"/>
</g>
<defs>
<clipPath id="clip0_804_695">
<rect width="16" height="16" fill="white"/>
</clipPath>
</defs>
</svg>
