<svg width="16" height="16" viewBox="0 0 16 16" fill="none" xmlns="http://www.w3.org/2000/svg">
<g clip-path="url(#clip0_1000_8487)">
<mask id="path-1-outside-1_1000_8487" maskUnits="userSpaceOnUse" x="0.75" y="0.75" width="13" height="13" fill="black">
<rect fill="white" x="0.75" y="0.75" width="13" height="13"/>
<path d="M11.5 1.75C11.9142 1.75 12.25 2.08579 12.25 2.5V5.5C12.25 5.91421 11.9142 6.25 11.5 6.25H8.81055L6.25 8.81055V11.5C6.25 11.9142 5.91421 12.25 5.5 12.25H2.5C2.08579 12.25 1.75 11.9142 1.75 11.5V8.5C1.75 8.08579 2.08579 7.75 2.5 7.75H5.18945L7.75 5.18945V2.5C7.75 2.08579 8.08579 1.75 8.5 1.75H11.5ZM3.25 10.75H4.75V9.25H3.25V10.75ZM9.25 4.75H10.75V3.25H9.25V4.75Z"/>
</mask>
<path d="M11.5 1.75C11.9142 1.75 12.25 2.08579 12.25 2.5V5.5C12.25 5.91421 11.9142 6.25 11.5 6.25H8.81055L6.25 8.81055V11.5C6.25 11.9142 5.91421 12.25 5.5 12.25H2.5C2.08579 12.25 1.75 11.9142 1.75 11.5V8.5C1.75 8.08579 2.08579 7.75 2.5 7.75H5.18945L7.75 5.18945V2.5C7.75 2.08579 8.08579 1.75 8.5 1.75H11.5ZM3.25 10.75H4.75V9.25H3.25V10.75ZM9.25 4.75H10.75V3.25H9.25V4.75Z" fill="#922700"/>
<path d="M12.25 2.5H13.25V2.5L12.25 2.5ZM8.81055 6.25V5.25H8.39633L8.10344 5.54289L8.81055 6.25ZM6.25 8.81055L5.54289 8.10344L5.25 8.39633V8.81055H6.25ZM2.5 12.25L2.5 13.25H2.5V12.25ZM2.5 7.75V6.75H2.5L2.5 7.75ZM5.18945 7.75V8.75H5.60367L5.89656 8.45711L5.18945 7.75ZM7.75 5.18945L8.45711 5.89656L8.75 5.60367V5.18945H7.75ZM7.75 2.5L6.75 2.5V2.5H7.75ZM3.25 10.75H2.25V11.75H3.25V10.75ZM4.75 10.75V11.75H5.75V10.75H4.75ZM4.75 9.25H5.75V8.25H4.75V9.25ZM3.25 9.25V8.25H2.25V9.25H3.25ZM9.25 4.75H8.25V5.75H9.25V4.75ZM10.75 4.75V5.75H11.75V4.75H10.75ZM10.75 3.25H11.75V2.25H10.75V3.25ZM9.25 3.25V2.25H8.25V3.25H9.25ZM11.5 1.75V2.75C11.3619 2.75 11.25 2.63807 11.25 2.5L12.25 2.5L13.25 2.5C13.25 1.5335 12.4665 0.75 11.5 0.75V1.75ZM12.25 2.5H11.25V5.5H12.25H13.25V2.5H12.25ZM12.25 5.5H11.25C11.25 5.36193 11.3619 5.25 11.5 5.25V6.25V7.25C12.4665 7.25 13.25 6.4665 13.25 5.5H12.25ZM11.5 6.25V5.25H8.81055V6.25V7.25H11.5V6.25ZM8.81055 6.25L8.10344 5.54289L5.54289 8.10344L6.25 8.81055L6.95711 9.51765L9.51765 6.95711L8.81055 6.25ZM6.25 8.81055H5.25V11.5H6.25H7.25V8.81055H6.25ZM6.25 11.5H5.25C5.25 11.3619 5.36193 11.25 5.5 11.25V12.25V13.25C6.4665 13.25 7.25 12.4665 7.25 11.5H6.25ZM5.5 12.25V11.25H2.5V12.25V13.25H5.5V12.25ZM2.5 12.25L2.5 11.25C2.63807 11.25 2.75 11.3619 2.75 11.5H1.75H0.75C0.75 12.4665 1.5335 13.25 2.5 13.25L2.5 12.25ZM1.75 11.5H2.75V8.5H1.75H0.75V11.5H1.75ZM1.75 8.5H2.75C2.75 8.63807 2.63807 8.75 2.5 8.75L2.5 7.75L2.5 6.75C1.5335 6.75 0.75 7.5335 0.75 8.5H1.75ZM2.5 7.75V8.75H5.18945V7.75V6.75H2.5V7.75ZM5.18945 7.75L5.89656 8.45711L8.45711 5.89656L7.75 5.18945L7.04289 4.48235L4.48235 7.04289L5.18945 7.75ZM7.75 5.18945H8.75V2.5H7.75H6.75V5.18945H7.75ZM7.75 2.5L8.75 2.5C8.75 2.63807 8.63807 2.75 8.5 2.75V1.75V0.75C7.5335 0.75 6.75 1.5335 6.75 2.5L7.75 2.5ZM8.5 1.75V2.75H11.5V1.75V0.75H8.5V1.75ZM3.25 10.75V11.75H4.75V10.75V9.75H3.25V10.75ZM4.75 10.75H5.75V9.25H4.75H3.75V10.75H4.75ZM4.75 9.25V8.25H3.25V9.25V10.25H4.75V9.25ZM3.25 9.25H2.25V10.75H3.25H4.25V9.25H3.25ZM9.25 4.75V5.75H10.75V4.75V3.75H9.25V4.75ZM10.75 4.75H11.75V3.25H10.75H9.75V4.75H10.75ZM10.75 3.25V2.25H9.25V3.25V4.25H10.75V3.25ZM9.25 3.25H8.25V4.75H9.25H10.25V3.25H9.25Z" fill="#E6E6E6" mask="url(#path-1-outside-1_1000_8487)"/>
<path d="M8.5 2.5H11.5V5.5H8.5V2.5Z" fill="#FE7E00" stroke="#CE4C00" stroke-width="1.5" stroke-linecap="round" stroke-linejoin="round"/>
<path d="M2.5 8.5H5.5V11.5H2.5V8.5Z" fill="#FE7E00" stroke="#CE4C00" stroke-width="1.5" stroke-linecap="round" stroke-linejoin="round"/>
<path d="M5.5 8.5L8.5 5.5" stroke="#CE4C00" stroke-width="1.5" stroke-linecap="round" stroke-linejoin="round"/>
<mask id="path-6-outside-2_1000_8487" maskUnits="userSpaceOnUse" x="7.24994" y="6.5" width="8" height="9" fill="black">
<rect fill="white" x="7.24994" y="6.5" width="8" height="9"/>
<path d="M11.2499 14.5C10.8358 14.4999 10.4999 14.1642 10.4999 13.75L10.4999 10.8105L9.53021 11.7803C9.23733 12.0731 8.76255 12.0731 8.46967 11.7803C8.17688 11.4874 8.17683 11.0126 8.46967 10.7197L10.7197 8.46973C10.8603 8.3291 11.0511 8.25003 11.2499 8.25C11.4488 8.25 11.6396 8.32913 11.7802 8.46973L14.0302 10.7197C14.3231 11.0126 14.3231 11.4874 14.0302 11.7803C13.7373 12.0731 13.2625 12.0732 12.9697 11.7803L11.9999 10.8105L11.9999 13.75C11.9999 14.1642 11.6642 14.5 11.2499 14.5Z"/>
</mask>
<path d="M11.2499 14.5C10.8358 14.4999 10.4999 14.1642 10.4999 13.75L10.4999 10.8105L9.53021 11.7803C9.23733 12.0731 8.76255 12.0731 8.46967 11.7803C8.17688 11.4874 8.17683 11.0126 8.46967 10.7197L10.7197 8.46973C10.8603 8.3291 11.0511 8.25003 11.2499 8.25C11.4488 8.25 11.6396 8.32913 11.7802 8.46973L14.0302 10.7197C14.3231 11.0126 14.3231 11.4874 14.0302 11.7803C13.7373 12.0731 13.2625 12.0732 12.9697 11.7803L11.9999 10.8105L11.9999 13.75C11.9999 14.1642 11.6642 14.5 11.2499 14.5Z" fill="#333333"/>
<path d="M11.2499 14.5L11.2498 15.5L11.2499 15.5L11.2499 14.5ZM10.4999 13.75L9.49994 13.75L10.4999 13.75ZM10.4999 10.8105L11.4999 10.8105L11.4999 8.39633L9.79283 10.1034L10.4999 10.8105ZM9.53021 11.7803L10.2373 12.4874L10.2373 12.4874L9.53021 11.7803ZM8.46967 11.7803L7.76244 12.4873L7.7626 12.4874L8.46967 11.7803ZM8.46967 10.7197L7.76256 10.0126L7.76252 10.0127L8.46967 10.7197ZM10.7197 8.46973L10.0126 7.76262L10.0126 7.76262L10.7197 8.46973ZM11.2499 8.25L11.2499 7.25L11.2498 7.25L11.2499 8.25ZM11.7802 8.46973L12.4873 7.76262L12.4872 7.76251L11.7802 8.46973ZM14.0302 10.7197L14.7373 10.0126L14.7373 10.0126L14.0302 10.7197ZM14.0302 11.7803L14.7373 12.4874L14.7373 12.4874L14.0302 11.7803ZM12.9697 11.7803L13.6768 11.0732L13.6768 11.0732L12.9697 11.7803ZM11.9999 10.8105L12.707 10.1034L10.9999 8.39633L10.9999 10.8105L11.9999 10.8105ZM11.9999 13.75L10.9999 13.75L11.9999 13.75ZM11.2499 14.5L11.2501 13.5C11.3879 13.5 11.4999 13.6117 11.4999 13.75L10.4999 13.75L9.49994 13.75C9.49994 14.7166 10.2836 15.4998 11.2498 15.5L11.2499 14.5ZM10.4999 13.75L11.4999 13.75L11.4999 10.8105L10.4999 10.8105L9.49994 10.8105L9.49994 13.75L10.4999 13.75ZM10.4999 10.8105L9.79283 10.1034L8.82311 11.0732L9.53021 11.7803L10.2373 12.4874L11.207 11.5177L10.4999 10.8105ZM9.53021 11.7803L8.82315 11.0731C8.92078 10.9755 9.0791 10.9755 9.17673 11.0731L8.46967 11.7803L7.7626 12.4874C8.446 13.1707 9.55388 13.1707 10.2373 12.4874L9.53021 11.7803ZM8.46967 11.7803L9.17689 11.0733C9.27439 11.1708 9.27453 11.3291 9.17681 11.4268L8.46967 10.7197L7.76252 10.0127C7.07914 10.6961 7.07936 11.804 7.76244 12.4873L8.46967 11.7803ZM8.46967 10.7197L9.17677 11.4268L11.4268 9.17683L10.7197 8.46973L10.0126 7.76262L7.76256 10.0126L8.46967 10.7197ZM10.7197 8.46973L11.4268 9.17683C11.38 9.22364 11.3165 9.24999 11.2501 9.25L11.2499 8.25L11.2498 7.25C10.7857 7.25008 10.3406 7.43457 10.0126 7.76262L10.7197 8.46973ZM11.2499 8.25L11.2499 9.25C11.1832 9.25 11.1198 9.2235 11.0732 9.17695L11.7802 8.46973L12.4872 7.76251C12.1593 7.43475 11.7144 7.25 11.2499 7.25L11.2499 8.25ZM11.7802 8.46973L11.0731 9.17683L13.3231 11.4268L14.0302 10.7197L14.7373 10.0126L12.4873 7.76262L11.7802 8.46973ZM14.0302 10.7197L13.3231 11.4268C13.2255 11.3292 13.2255 11.1708 13.3231 11.0732L14.0302 11.7803L14.7373 12.4874C15.4207 11.804 15.4207 10.696 14.7373 10.0126L14.0302 10.7197ZM14.0302 11.7803L13.3232 11.0731C13.4207 10.9756 13.5791 10.9755 13.6768 11.0732L12.9697 11.7803L12.2625 12.4874C12.946 13.1709 14.0539 13.1707 14.7373 12.4874L14.0302 11.7803ZM12.9697 11.7803L13.6768 11.0732L12.707 10.1034L11.9999 10.8105L11.2928 11.5177L12.2626 12.4874L12.9697 11.7803ZM11.9999 10.8105L10.9999 10.8105L10.9999 13.75L11.9999 13.75L12.9999 13.75L12.9999 10.8105L11.9999 10.8105ZM11.9999 13.75L10.9999 13.75C10.9999 13.6119 11.1119 13.5 11.2499 13.5L11.2499 14.5L11.2499 15.5C12.2164 15.5 12.9999 14.7165 12.9999 13.75L11.9999 13.75Z" fill="#E6E6E6" mask="url(#path-6-outside-2_1000_8487)"/>
</g>
<defs>
<clipPath id="clip0_1000_8487">
<rect width="16" height="16" fill="white"/>
</clipPath>
</defs>
</svg>
