<svg width="16" height="16" viewBox="0 0 16 16" fill="none" xmlns="http://www.w3.org/2000/svg">
<g clip-path="url(#clip0_1000_8490)">
<mask id="path-1-outside-1_1000_8490" maskUnits="userSpaceOnUse" x="3.24994" y="3.25024" width="13" height="13" fill="black">
<rect fill="white" x="3.24994" y="3.25024" width="13" height="13"/>
<path d="M13.9999 4.25024C14.4142 4.25024 14.7499 4.58603 14.7499 5.00024V5.59985C14.7499 6.00743 14.751 6.35903 14.7275 6.64673C14.7032 6.94309 14.6493 7.23808 14.5048 7.52173C14.2891 7.945 13.9447 8.28945 13.5214 8.50513C13.2378 8.64962 12.9428 8.70356 12.6464 8.72778C12.3587 8.75128 12.0072 8.75024 11.5995 8.75024H10.3105L8.74994 10.3108V11.5999C8.74994 12.0074 8.75098 12.359 8.72748 12.6467C8.70324 12.9431 8.64934 13.2381 8.50482 13.5217C8.2891 13.945 7.94472 14.2894 7.52142 14.5051C7.23776 14.6496 6.9428 14.7036 6.64642 14.7278C6.35869 14.7513 6.00716 14.7502 5.59955 14.7502H4.99994C4.58584 14.7502 4.25005 14.4143 4.24994 14.0002C4.24994 13.5861 4.58577 13.2503 4.99994 13.2502H5.59955C6.03189 13.2502 6.31186 13.25 6.52435 13.2327C6.72762 13.216 6.80364 13.1871 6.84076 13.1682C6.98152 13.0964 7.09605 12.9818 7.16791 12.8411C7.18679 12.804 7.21571 12.728 7.23236 12.5247C7.24972 12.3122 7.24994 12.0321 7.24994 11.5999V10.3313C7.24993 10.2447 7.24487 10.0789 7.28412 9.91528C7.31473 9.78787 7.36606 9.66569 7.43451 9.55396L7.50482 9.45239C7.57866 9.35702 7.65809 9.28153 7.70404 9.2356L9.23529 7.70435C9.29645 7.64319 9.41015 7.52288 9.55365 7.43481L9.63959 7.38599C9.7269 7.34152 9.81948 7.30738 9.91498 7.28442C10.0787 7.24513 10.2443 7.25023 10.331 7.25024H11.5995C12.0319 7.25024 12.3119 7.25002 12.5244 7.23267C12.7276 7.21604 12.8036 7.1871 12.8408 7.16821C12.9815 7.09639 13.096 6.9818 13.1679 6.84106C13.1868 6.80401 13.2157 6.72805 13.2324 6.52466C13.2497 6.31219 13.2499 6.03215 13.2499 5.59985V5.00024C13.2499 4.58606 13.5858 4.25029 13.9999 4.25024Z"/>
</mask>
<path d="M13.9999 4.25024C14.4142 4.25024 14.7499 4.58603 14.7499 5.00024V5.59985C14.7499 6.00743 14.751 6.35903 14.7275 6.64673C14.7032 6.94309 14.6493 7.23808 14.5048 7.52173C14.2891 7.945 13.9447 8.28945 13.5214 8.50513C13.2378 8.64962 12.9428 8.70356 12.6464 8.72778C12.3587 8.75128 12.0072 8.75024 11.5995 8.75024H10.3105L8.74994 10.3108V11.5999C8.74994 12.0074 8.75098 12.359 8.72748 12.6467C8.70324 12.9431 8.64934 13.2381 8.50482 13.5217C8.2891 13.945 7.94472 14.2894 7.52142 14.5051C7.23776 14.6496 6.9428 14.7036 6.64642 14.7278C6.35869 14.7513 6.00716 14.7502 5.59955 14.7502H4.99994C4.58584 14.7502 4.25005 14.4143 4.24994 14.0002C4.24994 13.5861 4.58577 13.2503 4.99994 13.2502H5.59955C6.03189 13.2502 6.31186 13.25 6.52435 13.2327C6.72762 13.216 6.80364 13.1871 6.84076 13.1682C6.98152 13.0964 7.09605 12.9818 7.16791 12.8411C7.18679 12.804 7.21571 12.728 7.23236 12.5247C7.24972 12.3122 7.24994 12.0321 7.24994 11.5999V10.3313C7.24993 10.2447 7.24487 10.0789 7.28412 9.91528C7.31473 9.78787 7.36606 9.66569 7.43451 9.55396L7.50482 9.45239C7.57866 9.35702 7.65809 9.28153 7.70404 9.2356L9.23529 7.70435C9.29645 7.64319 9.41015 7.52288 9.55365 7.43481L9.63959 7.38599C9.7269 7.34152 9.81948 7.30738 9.91498 7.28442C10.0787 7.24513 10.2443 7.25023 10.331 7.25024H11.5995C12.0319 7.25024 12.3119 7.25002 12.5244 7.23267C12.7276 7.21604 12.8036 7.1871 12.8408 7.16821C12.9815 7.09639 13.096 6.9818 13.1679 6.84106C13.1868 6.80401 13.2157 6.72805 13.2324 6.52466C13.2497 6.31219 13.2499 6.03215 13.2499 5.59985V5.00024C13.2499 4.58606 13.5858 4.25029 13.9999 4.25024Z" fill="#333333"/>
<path d="M13.9999 4.25024V3.25024H13.9998L13.9999 4.25024ZM14.7499 5.59985H13.7499V5.59985L14.7499 5.59985ZM14.7275 6.64673L15.7241 6.72825L15.7242 6.72816L14.7275 6.64673ZM14.5048 7.52173L15.3958 7.97581L15.3958 7.9757L14.5048 7.52173ZM13.5214 8.50513L13.9753 9.39619L13.9754 9.39613L13.5214 8.50513ZM12.6464 8.72778L12.7278 9.72446L12.7279 9.72446L12.6464 8.72778ZM10.3105 8.75024V7.75024H9.89627L9.60338 8.04314L10.3105 8.75024ZM8.74994 10.3108L8.04283 9.60368L7.74994 9.89658V10.3108H8.74994ZM8.74994 11.5999H7.74994V11.5999L8.74994 11.5999ZM8.72748 12.6467L9.72415 12.7282L9.72416 12.7282L8.72748 12.6467ZM8.50482 13.5217L9.39578 13.9758L9.39584 13.9757L8.50482 13.5217ZM7.52142 14.5051L7.9753 15.3962L7.97541 15.3961L7.52142 14.5051ZM6.64642 14.7278L6.72783 15.7245L6.72789 15.7245L6.64642 14.7278ZM4.99994 14.7502L4.99983 15.7502H4.99994V14.7502ZM4.24994 14.0002H3.24994L3.24994 14.0005L4.24994 14.0002ZM4.99994 13.2502V12.2502H4.99983L4.99994 13.2502ZM6.52435 13.2327L6.60575 14.2293L6.60588 14.2293L6.52435 13.2327ZM6.84076 13.1682L7.29424 14.0595L7.29525 14.059L6.84076 13.1682ZM7.16791 12.8411L8.05852 13.2958L8.05891 13.2951L7.16791 12.8411ZM7.23236 12.5247L8.22903 12.6063L8.22904 12.6061L7.23236 12.5247ZM7.24994 11.5999H8.24994V11.5999H7.24994ZM7.24994 10.3313H8.24994V10.3312L7.24994 10.3313ZM7.28412 9.91528L6.31178 9.6817L6.31169 9.68206L7.28412 9.91528ZM7.43451 9.55396L6.61232 8.98475L6.59639 9.00775L6.58178 9.03161L7.43451 9.55396ZM7.50482 9.45239L6.71408 8.84025L6.69778 8.8613L6.68263 8.88318L7.50482 9.45239ZM7.70404 9.2356L8.41108 9.94277L8.41115 9.9427L7.70404 9.2356ZM9.55365 7.43481L9.05964 6.56536L9.04499 6.57368L9.03062 6.5825L9.55365 7.43481ZM9.63959 7.38599L9.18578 6.49489L9.16543 6.50525L9.14558 6.51653L9.63959 7.38599ZM9.91498 7.28442L9.68153 6.31205L9.68129 6.31211L9.91498 7.28442ZM10.331 7.25024L10.3308 8.25024H10.331V7.25024ZM12.5244 7.23267L12.6058 8.22935L12.6059 8.22934L12.5244 7.23267ZM12.8408 7.16821L13.2942 8.05948L13.2952 8.05896L12.8408 7.16821ZM13.1679 6.84106L14.0585 7.29583L14.0589 7.29506L13.1679 6.84106ZM13.2324 6.52466L14.229 6.60626L14.229 6.60609L13.2324 6.52466ZM13.2499 5.59985L14.2499 5.59985V5.59985H13.2499ZM13.9999 4.25024V5.25024C13.8619 5.25024 13.7499 5.13832 13.7499 5.00024H14.7499H15.7499C15.7499 4.03375 14.9664 3.25024 13.9999 3.25024V4.25024ZM14.7499 5.00024H13.7499V5.59985H14.7499H15.7499V5.00024H14.7499ZM14.7499 5.59985L13.7499 5.59985C13.7499 6.0248 13.7502 6.32796 13.7308 6.56529L14.7275 6.64673L15.7242 6.72816C15.7518 6.39009 15.7499 5.99005 15.7499 5.59985L14.7499 5.59985ZM14.7275 6.64673L13.7308 6.56521C13.7117 6.79844 13.6749 6.9478 13.6138 7.06776L14.5048 7.52173L15.3958 7.9757C15.6238 7.52837 15.6947 7.08774 15.7241 6.72825L14.7275 6.64673ZM14.5048 7.52173L13.6139 7.06765C13.494 7.30289 13.3025 7.49435 13.0674 7.61412L13.5214 8.50513L13.9754 9.39613C14.5869 9.08455 15.0842 8.58711 15.3958 7.97581L14.5048 7.52173ZM13.5214 8.50513L13.0675 7.61406C12.9474 7.67524 12.798 7.71205 12.565 7.73111L12.6464 8.72778L12.7279 9.72446C13.0876 9.69506 13.5281 9.624 13.9753 9.39619L13.5214 8.50513ZM12.6464 8.72778L12.565 7.7311C12.3276 7.75049 12.0245 7.75024 11.5995 7.75024V8.75024V9.75024C11.9898 9.75024 12.3897 9.75208 12.7278 9.72446L12.6464 8.72778ZM11.5995 8.75024V7.75024H10.3105V8.75024V9.75024H11.5995V8.75024ZM10.3105 8.75024L9.60338 8.04314L8.04283 9.60368L8.74994 10.3108L9.45705 11.0179L11.0176 9.45735L10.3105 8.75024ZM8.74994 10.3108H7.74994V11.5999H8.74994H9.74994V10.3108H8.74994ZM8.74994 11.5999L7.74994 11.5999C7.74994 12.0248 7.75019 12.328 7.7308 12.5653L8.72748 12.6467L9.72416 12.7282C9.75178 12.3901 9.74994 11.9901 9.74994 11.5999L8.74994 11.5999ZM8.72748 12.6467L7.73081 12.5652C7.71173 12.7984 7.67492 12.9478 7.6138 13.0678L8.50482 13.5217L9.39584 13.9757C9.62375 13.5284 9.69475 13.0877 9.72415 12.7282L8.72748 12.6467ZM8.50482 13.5217L7.61386 13.0676C7.49397 13.3029 7.3025 13.4943 7.06743 13.6141L7.52142 14.5051L7.97541 15.3961C8.58694 15.0845 9.08423 14.5871 9.39578 13.9758L8.50482 13.5217ZM7.52142 14.5051L7.06754 13.6141C6.94745 13.6752 6.79803 13.7121 6.56495 13.7311L6.64642 14.7278L6.72789 15.7245C7.08757 15.6951 7.52806 15.624 7.9753 15.3962L7.52142 14.5051ZM6.64642 14.7278L6.56501 13.7311C6.32763 13.7505 6.02451 13.7502 5.59955 13.7502V14.7502V15.7502C5.98981 15.7502 6.38974 15.7521 6.72783 15.7245L6.64642 14.7278ZM5.59955 14.7502V13.7502H4.99994V14.7502V15.7502H5.59955V14.7502ZM4.99994 14.7502L5.00005 13.7502C5.13831 13.7503 5.2499 13.8621 5.24994 14L4.24994 14.0002L3.24994 14.0005C3.25021 14.9665 4.03336 15.7501 4.99983 15.7502L4.99994 14.7502ZM4.24994 14.0002H5.24994C5.24994 14.1385 5.13796 14.2502 5.00005 14.2502L4.99994 13.2502L4.99983 12.2502C4.03357 12.2504 3.24994 13.0337 3.24994 14.0002H4.24994ZM4.99994 13.2502V14.2502H5.59955V13.2502V12.2502H4.99994V13.2502ZM5.59955 13.2502V14.2502C6.01338 14.2502 6.34265 14.2508 6.60575 14.2293L6.52435 13.2327L6.44296 12.236C6.28108 12.2492 6.05041 12.2502 5.59955 12.2502V13.2502ZM6.52435 13.2327L6.60588 14.2293C6.87505 14.2073 7.09526 14.1607 7.29424 14.0595L6.84076 13.1682L6.38727 12.2769C6.41169 12.2645 6.43753 12.2532 6.46334 12.2438C6.48753 12.235 6.50509 12.2304 6.51334 12.2285C6.52729 12.2251 6.51021 12.2305 6.44283 12.236L6.52435 13.2327ZM6.84076 13.1682L7.29525 14.059C7.62396 13.8912 7.89099 13.6239 8.05852 13.2958L7.16791 12.8411L6.27729 12.3863C6.3011 12.3397 6.33907 12.3015 6.38627 12.2775L6.84076 13.1682ZM7.16791 12.8411L8.05891 13.2951C8.16048 13.0957 8.20701 12.8752 8.22903 12.6063L7.23236 12.5247L6.2357 12.4431C6.23017 12.5106 6.22482 12.5277 6.22814 12.5137C6.2301 12.5055 6.23474 12.4879 6.24354 12.4636C6.25294 12.4377 6.26436 12.4117 6.2769 12.3871L7.16791 12.8411ZM7.23236 12.5247L8.22904 12.6061C8.25054 12.343 8.24994 12.0136 8.24994 11.5999H7.24994H6.24994C6.24994 12.0507 6.2489 12.2814 6.23568 12.4432L7.23236 12.5247ZM7.24994 11.5999H8.24994V10.3313H7.24994H6.24994V11.5999H7.24994ZM7.24994 10.3313L8.24994 10.3312C8.24993 10.2663 8.24906 10.2421 8.25105 10.2022C8.25188 10.1857 8.25305 10.1726 8.25432 10.1626C8.25561 10.1524 8.25666 10.148 8.25654 10.1485L7.28412 9.91528L6.31169 9.68206C6.239 9.98515 6.24993 10.2828 6.24994 10.3314L7.24994 10.3313ZM7.28412 9.91528L8.25646 10.1489C8.26177 10.1267 8.27172 10.1016 8.28724 10.0763L7.43451 9.55396L6.58178 9.03161C6.46041 9.22974 6.36768 9.449 6.31178 9.6817L7.28412 9.91528ZM7.43451 9.55396L8.2567 10.1232L8.32701 10.0216L7.50482 9.45239L6.68263 8.88318L6.61232 8.98475L7.43451 9.55396ZM7.50482 9.45239L8.29557 10.0645C8.30516 10.0522 8.31903 10.0361 8.33866 10.0155C8.36252 9.99047 8.37473 9.97912 8.41108 9.94277L7.70404 9.2356L6.997 8.52842C6.96996 8.55546 6.83599 8.68277 6.71408 8.84025L7.50482 9.45239ZM7.70404 9.2356L8.41115 9.9427L9.9424 8.41145L9.23529 7.70435L8.52818 6.99724L6.99693 8.52849L7.70404 9.2356ZM9.23529 7.70435L9.9424 8.41145C9.98692 8.36693 10.0043 8.3485 10.0335 8.32211C10.0458 8.31103 10.056 8.30252 10.0642 8.29617C10.0725 8.28973 10.0767 8.28712 10.0767 8.28713L9.55365 7.43481L9.03062 6.5825C8.76582 6.74499 8.5644 6.96102 8.52818 6.99724L9.23529 7.70435ZM9.55365 7.43481L10.0477 8.30427L10.1336 8.25544L9.63959 7.38599L9.14558 6.51653L9.05964 6.56536L9.55365 7.43481ZM9.63959 7.38599L10.0934 8.27708C10.1106 8.26831 10.1293 8.26139 10.1487 8.25674L9.91498 7.28442L9.68129 6.31211C9.50966 6.35336 9.34318 6.41473 9.18578 6.49489L9.63959 7.38599ZM9.91498 7.28442L10.1484 8.25679C10.1479 8.25693 10.1522 8.25588 10.1623 8.2546C10.1723 8.25333 10.1853 8.25217 10.2018 8.25134C10.2417 8.24935 10.2657 8.25023 10.3308 8.25024L10.331 7.25024L10.3312 6.25024C10.2827 6.25024 9.98484 6.23924 9.68153 6.31205L9.91498 7.28442ZM10.331 7.25024V8.25024H11.5995V7.25024V6.25024H10.331V7.25024ZM11.5995 7.25024V8.25024C12.0134 8.25024 12.3426 8.25083 12.6058 8.22935L12.5244 7.23267L12.443 6.23598C12.2811 6.2492 12.0504 6.25024 11.5995 6.25024V7.25024ZM12.5244 7.23267L12.6059 8.22934C12.8751 8.20732 13.0953 8.16072 13.2942 8.05948L12.8408 7.16821L12.3873 6.27694C12.4117 6.26453 12.4375 6.25318 12.4633 6.24381C12.4875 6.23504 12.5051 6.23042 12.5133 6.22846C12.5273 6.22514 12.5102 6.23048 12.4428 6.23599L12.5244 7.23267ZM12.8408 7.16821L13.2952 8.05896C13.624 7.89124 13.891 7.62392 14.0585 7.29583L13.1679 6.84106L12.2773 6.3863C12.3011 6.33967 12.3391 6.30154 12.3863 6.27746L12.8408 7.16821ZM13.1679 6.84106L14.0589 7.29506C14.1605 7.09571 14.207 6.87516 14.229 6.60626L13.2324 6.52466L12.2357 6.44305C12.2302 6.51057 12.2248 6.52769 12.2281 6.51373C12.2301 6.50547 12.2347 6.48786 12.2435 6.46358C12.2529 6.43767 12.2644 6.41168 12.2769 6.38706L13.1679 6.84106ZM13.2324 6.52466L14.229 6.60609C14.2505 6.34298 14.2499 6.0136 14.2499 5.59985L13.2499 5.59985L12.2499 5.59985C12.2499 6.0507 12.2489 6.2814 12.2357 6.44323L13.2324 6.52466ZM13.2499 5.59985H14.2499V5.00024H13.2499H12.2499V5.59985H13.2499ZM13.2499 5.00024H14.2499C14.2499 5.13846 14.138 5.25023 14.0001 5.25024L13.9999 4.25024L13.9998 3.25024C13.0336 3.25035 12.2499 4.03366 12.2499 5.00024H13.2499Z" fill="#E6E6E6" mask="url(#path-1-outside-1_1000_8490)"/>
<mask id="path-3-outside-2_1000_8490" maskUnits="userSpaceOnUse" x="0.75" y="0.75" width="13" height="13" fill="black">
<rect fill="white" x="0.75" y="0.75" width="13" height="13"/>
<path d="M11.5 1.75C11.9142 1.75 12.25 2.08579 12.25 2.5V5.5C12.25 5.91421 11.9142 6.25 11.5 6.25H8.81055L6.25 8.81055V11.5C6.25 11.9142 5.91421 12.25 5.5 12.25H2.5C2.08579 12.25 1.75 11.9142 1.75 11.5V8.5C1.75 8.08579 2.08579 7.75 2.5 7.75H5.18945L7.75 5.18945V2.5C7.75 2.08579 8.08579 1.75 8.5 1.75H11.5ZM3.25 10.75H4.75V9.25H3.25V10.75ZM9.25 4.75H10.75V3.25H9.25V4.75Z"/>
</mask>
<path d="M11.5 1.75C11.9142 1.75 12.25 2.08579 12.25 2.5V5.5C12.25 5.91421 11.9142 6.25 11.5 6.25H8.81055L6.25 8.81055V11.5C6.25 11.9142 5.91421 12.25 5.5 12.25H2.5C2.08579 12.25 1.75 11.9142 1.75 11.5V8.5C1.75 8.08579 2.08579 7.75 2.5 7.75H5.18945L7.75 5.18945V2.5C7.75 2.08579 8.08579 1.75 8.5 1.75H11.5ZM3.25 10.75H4.75V9.25H3.25V10.75ZM9.25 4.75H10.75V3.25H9.25V4.75Z" fill="#922700"/>
<path d="M12.25 2.5H13.25V2.5L12.25 2.5ZM8.81055 6.25V5.25H8.39633L8.10344 5.54289L8.81055 6.25ZM6.25 8.81055L5.54289 8.10344L5.25 8.39633V8.81055H6.25ZM2.5 12.25L2.5 13.25H2.5V12.25ZM2.5 7.75V6.75H2.5L2.5 7.75ZM5.18945 7.75V8.75H5.60367L5.89656 8.45711L5.18945 7.75ZM7.75 5.18945L8.45711 5.89656L8.75 5.60367V5.18945H7.75ZM7.75 2.5L6.75 2.5V2.5H7.75ZM3.25 10.75H2.25V11.75H3.25V10.75ZM4.75 10.75V11.75H5.75V10.75H4.75ZM4.75 9.25H5.75V8.25H4.75V9.25ZM3.25 9.25V8.25H2.25V9.25H3.25ZM9.25 4.75H8.25V5.75H9.25V4.75ZM10.75 4.75V5.75H11.75V4.75H10.75ZM10.75 3.25H11.75V2.25H10.75V3.25ZM9.25 3.25V2.25H8.25V3.25H9.25ZM11.5 1.75V2.75C11.3619 2.75 11.25 2.63807 11.25 2.5L12.25 2.5L13.25 2.5C13.25 1.5335 12.4665 0.75 11.5 0.75V1.75ZM12.25 2.5H11.25V5.5H12.25H13.25V2.5H12.25ZM12.25 5.5H11.25C11.25 5.36193 11.3619 5.25 11.5 5.25V6.25V7.25C12.4665 7.25 13.25 6.4665 13.25 5.5H12.25ZM11.5 6.25V5.25H8.81055V6.25V7.25H11.5V6.25ZM8.81055 6.25L8.10344 5.54289L5.54289 8.10344L6.25 8.81055L6.95711 9.51765L9.51765 6.95711L8.81055 6.25ZM6.25 8.81055H5.25V11.5H6.25H7.25V8.81055H6.25ZM6.25 11.5H5.25C5.25 11.3619 5.36193 11.25 5.5 11.25V12.25V13.25C6.4665 13.25 7.25 12.4665 7.25 11.5H6.25ZM5.5 12.25V11.25H2.5V12.25V13.25H5.5V12.25ZM2.5 12.25L2.5 11.25C2.63807 11.25 2.75 11.3619 2.75 11.5H1.75H0.75C0.75 12.4665 1.5335 13.25 2.5 13.25L2.5 12.25ZM1.75 11.5H2.75V8.5H1.75H0.75V11.5H1.75ZM1.75 8.5H2.75C2.75 8.63807 2.63807 8.75 2.5 8.75L2.5 7.75L2.5 6.75C1.5335 6.75 0.75 7.5335 0.75 8.5H1.75ZM2.5 7.75V8.75H5.18945V7.75V6.75H2.5V7.75ZM5.18945 7.75L5.89656 8.45711L8.45711 5.89656L7.75 5.18945L7.04289 4.48235L4.48235 7.04289L5.18945 7.75ZM7.75 5.18945H8.75V2.5H7.75H6.75V5.18945H7.75ZM7.75 2.5L8.75 2.5C8.75 2.63807 8.63807 2.75 8.5 2.75V1.75V0.75C7.5335 0.75 6.75 1.5335 6.75 2.5L7.75 2.5ZM8.5 1.75V2.75H11.5V1.75V0.75H8.5V1.75ZM3.25 10.75V11.75H4.75V10.75V9.75H3.25V10.75ZM4.75 10.75H5.75V9.25H4.75H3.75V10.75H4.75ZM4.75 9.25V8.25H3.25V9.25V10.25H4.75V9.25ZM3.25 9.25H2.25V10.75H3.25H4.25V9.25H3.25ZM9.25 4.75V5.75H10.75V4.75V3.75H9.25V4.75ZM10.75 4.75H11.75V3.25H10.75H9.75V4.75H10.75ZM10.75 3.25V2.25H9.25V3.25V4.25H10.75V3.25ZM9.25 3.25H8.25V4.75H9.25H10.25V3.25H9.25Z" fill="#E6E6E6" mask="url(#path-3-outside-2_1000_8490)"/>
<path d="M8.5 2.5H11.5V5.5H8.5V2.5Z" fill="#FE7E00" stroke="#CE4C00" stroke-width="1.5" stroke-linecap="round" stroke-linejoin="round"/>
<path d="M2.5 8.5H5.5V11.5H2.5V8.5Z" fill="#FE7E00" stroke="#CE4C00" stroke-width="1.5" stroke-linecap="round" stroke-linejoin="round"/>
<path d="M5.5 8.5L8.5 5.5" stroke="#CE4C00" stroke-width="1.5" stroke-linecap="round" stroke-linejoin="round"/>
<path d="M13.9999 4.25024C14.4142 4.25024 14.7499 4.58603 14.7499 5.00024V5.59985C14.7499 6.00743 14.751 6.35903 14.7275 6.64673C14.7032 6.94309 14.6493 7.23808 14.5048 7.52173C14.2891 7.945 13.9447 8.28945 13.5214 8.50513C13.2378 8.64962 12.9428 8.70356 12.6464 8.72778C12.3587 8.75129 12.0072 8.75024 11.5995 8.75024H10.3105L8.74994 10.3108V11.5999C8.74994 12.0074 8.75098 12.359 8.72748 12.6467C8.70324 12.9431 8.64934 13.2381 8.50482 13.5217C8.2891 13.945 7.94472 14.2894 7.52142 14.5051C7.23776 14.6496 6.9428 14.7036 6.64642 14.7278C6.35869 14.7513 6.00716 14.7502 5.59955 14.7502H4.99994C4.58584 14.7502 4.25005 14.4143 4.24994 14.0002C4.24994 13.5861 4.58577 13.2503 4.99994 13.2502H5.59955C6.03189 13.2502 6.31186 13.25 6.52435 13.2327C6.72762 13.216 6.80364 13.1871 6.84076 13.1682C6.98152 13.0964 7.09605 12.9818 7.16791 12.8411C7.18679 12.804 7.21571 12.728 7.23236 12.5247C7.24972 12.3122 7.24994 12.0321 7.24994 11.5999V10.3313C7.24993 10.2447 7.24487 10.0789 7.28412 9.91528C7.31473 9.78787 7.36606 9.66569 7.43451 9.55396L7.50482 9.45239C7.57866 9.35702 7.65809 9.28153 7.70404 9.2356L9.23529 7.70435C9.29645 7.64319 9.41015 7.52288 9.55365 7.43481L9.63959 7.38599C9.7269 7.34152 9.81948 7.30737 9.91498 7.28442C10.0787 7.24513 10.2443 7.25023 10.331 7.25024H11.5995C12.0319 7.25024 12.3119 7.25002 12.5244 7.23267C12.7276 7.21604 12.8036 7.1871 12.8408 7.16821C12.9815 7.09639 13.096 6.9818 13.1679 6.84106C13.1868 6.80401 13.2157 6.72805 13.2324 6.52466C13.2497 6.31219 13.2499 6.03215 13.2499 5.59985V5.00024C13.2499 4.58606 13.5858 4.25029 13.9999 4.25024Z" fill="#333333"/>
</g>
<defs>
<clipPath id="clip0_1000_8490">
<rect width="16" height="16" fill="white"/>
</clipPath>
</defs>
</svg>
