<svg width="16" height="16" viewBox="0 0 16 16" fill="none" xmlns="http://www.w3.org/2000/svg">
<path d="M1.81348 10.2499C1.37695 10.6868 1.43686 11.4113 1.93945 11.7704L4.61426 13.6815C5.01204 13.9656 5.55766 13.9198 5.90332 13.5741L6.78027 12.6962C7.15837 12.8975 7.63839 12.839 7.95703 12.5204L13.25 7.22742C13.6405 6.8369 13.6405 6.20387 13.25 5.81335L9.95703 2.52039C9.56652 2.12991 8.93348 2.12991 8.54297 2.52039L3.25 7.81335C2.93172 8.13167 2.87265 8.61122 3.07324 8.98914L1.81348 10.2499Z" fill="white" stroke="#E6E6E6"/>
<path d="M8.74997 11.0204L7.81569 11.9547C7.61768 12.1527 7.51867 12.2517 7.40451 12.2888C7.30409 12.3214 7.19591 12.3214 7.09549 12.2888C6.98132 12.2517 6.88232 12.1527 6.68431 11.9547L3.81568 9.08607C3.61767 8.88807 3.51867 8.78906 3.48157 8.6749C3.44895 8.57448 3.44894 8.46631 3.48157 8.36588C3.51867 8.25172 3.61767 8.15272 3.81567 7.95471L3.81567 7.95471L4.74997 7.02039L8.74997 11.0204Z" fill="#333333"/>
<path d="M6.75001 12.0204L5.72922 13.0412L5.72922 13.0412C5.55897 13.2114 5.47384 13.2966 5.37383 13.3346C5.28567 13.3682 5.18981 13.3761 5.09734 13.3575C4.99242 13.3364 4.89447 13.2664 4.69855 13.1265L4.69854 13.1265L2.51846 11.5693L2.51846 11.5693C2.25408 11.3804 2.12188 11.286 2.06638 11.1649C2.01767 11.0586 2.00774 10.9387 2.03831 10.8258C2.07316 10.6972 2.18803 10.5824 2.41777 10.3526L3.75001 9.02039L6.75001 12.0204Z" fill="#F8A62C"/>
<path d="M12.6843 7.08608L9.75001 10.0204L5.75 6.02042L8.68431 3.08608C8.88232 2.88807 8.98133 2.78906 9.09549 2.75197C9.19591 2.71934 9.30409 2.71934 9.40451 2.75197C9.51867 2.78906 9.61768 2.88807 9.81569 3.08608L12.6843 5.95471C12.8823 6.15272 12.9813 6.25172 13.0184 6.36589C13.0511 6.46631 13.0511 6.57448 13.0184 6.6749C12.9813 6.78907 12.8823 6.88807 12.6843 7.08608Z" fill="#F8A62C"/>
<path d="M2.16789 10.6032C1.94941 10.8217 1.97897 11.1844 2.23039 11.364L3.08 11.9714L10.6015 3.87177L9.60344 2.87372C9.40818 2.67869 9.09161 2.67861 8.8964 2.87372L3.60344 8.16669C3.40824 8.36189 3.40838 8.67844 3.60344 8.87372L3.74992 9.02021L2.16789 10.6032Z" fill="white" fill-opacity="0.3"/>
</svg>
