<svg width="16" height="16" viewBox="0 0 16 16" fill="none" xmlns="http://www.w3.org/2000/svg">
<mask id="path-1-outside-1_1586_851" maskUnits="userSpaceOnUse" x="1" y="1" width="14" height="14" fill="black">
<rect fill="white" x="1" y="1" width="14" height="14"/>
<path d="M11.6485 2C11.9159 2 12.162 1.99991 12.3662 2.0166C12.5793 2.03403 12.8128 2.07314 13.043 2.19043C13.372 2.35818 13.6399 2.626 13.8076 2.95508C13.9248 3.18519 13.964 3.41886 13.9815 3.63184C13.9981 3.83605 13.9981 4.08224 13.9981 4.34961V10.1992C13.9981 10.408 14.0024 10.6351 13.9492 10.8564C13.9064 11.0348 13.8361 11.2059 13.7402 11.3623C13.6212 11.5564 13.4572 11.7137 13.3096 11.8613L11.3926 13.7783C11.252 13.9188 11.0611 13.998 10.8623 13.998H4.34962C4.08205 13.998 3.83618 13.9991 3.63185 13.9824C3.41876 13.965 3.18535 13.9249 2.95509 13.8076C2.62599 13.6399 2.35821 13.372 2.19044 13.043C2.07316 12.8128 2.03307 12.5792 2.01564 12.3662C1.99895 12.162 2.00001 11.9159 2.00001 11.6484V4.34961C2.00001 4.08225 1.99897 3.83605 2.01564 3.63184C2.03306 3.41886 2.07325 3.1852 2.19044 2.95508C2.3582 2.62601 2.626 2.35816 2.95509 2.19043C3.18534 2.07311 3.41876 2.03402 3.63185 2.0166C3.83618 1.99991 4.08205 2 4.34962 2H11.6485ZM4.34962 3.5C4.05734 3.5 3.88302 3.50019 3.75392 3.51074C3.72654 3.51298 3.70465 3.51547 3.68738 3.51787C3.65341 3.5226 3.62024 3.53384 3.59352 3.55535C3.57944 3.56668 3.56662 3.57951 3.55529 3.59359C3.53383 3.62025 3.52263 3.65337 3.51791 3.68727C3.5155 3.70457 3.513 3.72649 3.51076 3.75391C3.50024 3.88294 3.50001 4.05768 3.50001 4.34961V11.6484C3.50001 11.9406 3.50021 12.1151 3.51076 12.2441C3.513 12.2715 3.51549 12.2934 3.5179 12.3107C3.52262 12.3447 3.53386 12.3778 3.55535 12.4045C3.56671 12.4186 3.57957 12.4315 3.59369 12.4428C3.6203 12.4642 3.65334 12.4754 3.68718 12.4802C3.70447 12.4826 3.72642 12.4851 3.75392 12.4873C3.88302 12.4979 4.05734 12.498 4.34962 12.498H10.3447C10.4773 12.498 10.6045 12.4454 10.6982 12.3516L12.249 10.8008C12.34 10.7098 12.391 10.6584 12.4277 10.6182C12.4493 10.5946 12.4582 10.5829 12.461 10.5791C12.4745 10.5569 12.4851 10.5321 12.4912 10.5068C12.4918 10.5038 12.4935 10.4898 12.4951 10.4551C12.4976 10.4006 12.4981 10.3278 12.4981 10.1992V4.34961C12.4981 4.05767 12.4978 3.88295 12.4873 3.75391C12.4775 3.63384 12.4624 3.62034 12.4707 3.63672C12.454 3.60392 12.4302 3.57531 12.4014 3.55287C12.3765 3.53341 12.346 3.52284 12.3146 3.51837C12.2968 3.51583 12.2737 3.51316 12.2442 3.51074C12.1151 3.5002 11.9406 3.5 11.6485 3.5H4.34962Z"/>
</mask>
<path d="M11.6485 2V3H11.6485L11.6485 2ZM12.3662 2.0166L12.4478 1.01993L12.4477 1.01992L12.3662 2.0166ZM13.043 2.19043L13.4972 1.29952L13.497 1.29942L13.043 2.19043ZM13.8076 2.95508L14.6987 2.50125L14.6986 2.50096L13.8076 2.95508ZM13.9815 3.63184L14.9781 3.5505L14.9781 3.5503L13.9815 3.63184ZM13.9981 4.34961L12.9981 4.34961V4.34961H13.9981ZM13.9981 10.1992H12.9981V10.1992L13.9981 10.1992ZM13.9492 10.8564L14.9216 11.0901L14.9216 11.0899L13.9492 10.8564ZM13.7402 11.3623L14.5928 11.885L14.5929 11.8847L13.7402 11.3623ZM13.3096 11.8613L12.6025 11.1542L12.6025 11.1542L13.3096 11.8613ZM11.3926 13.7783L12.0995 14.4857L12.0997 14.4854L11.3926 13.7783ZM10.8623 13.998V14.998H10.8626L10.8623 13.998ZM4.34962 13.998V12.998H4.34962L4.34962 13.998ZM3.63185 13.9824L3.5504 14.9791L3.55042 14.9791L3.63185 13.9824ZM2.95509 13.8076L2.50103 14.6986L2.50117 14.6987L2.95509 13.8076ZM2.19044 13.043L1.29944 13.497L1.29954 13.4972L2.19044 13.043ZM2.01564 12.3662L1.01896 12.4476L1.01897 12.4477L2.01564 12.3662ZM2.00001 11.6484L3.00001 11.6484V11.6484H2.00001ZM2.00001 4.34961H3.00001V4.34961L2.00001 4.34961ZM2.01564 3.63184L1.01897 3.55032L1.01895 3.55051L2.01564 3.63184ZM2.19044 2.95508L1.29953 2.50091L1.29934 2.50127L2.19044 2.95508ZM2.95509 2.19043L2.5011 1.29942L2.50099 1.29948L2.95509 2.19043ZM3.63185 2.0166L3.55042 1.01992L3.55037 1.01993L3.63185 2.0166ZM4.34962 2L4.34962 3H4.34962V2ZM4.34962 3.5V2.5H4.34962L4.34962 3.5ZM3.75392 3.51074L3.67249 2.51406L3.67238 2.51407L3.75392 3.51074ZM3.51076 3.75391L2.5141 3.67225L2.51406 3.67265L3.51076 3.75391ZM3.50001 4.34961L2.50001 4.34961V4.34961H3.50001ZM3.50001 11.6484H2.50001V11.6484L3.50001 11.6484ZM3.51076 12.2441L2.51408 12.3256L2.5141 12.3258L3.51076 12.2441ZM3.75392 12.4873L3.6724 13.484L3.67249 13.484L3.75392 12.4873ZM4.34962 12.498L4.34962 13.498H4.34962V12.498ZM12.249 10.8008L12.9561 11.5079L12.9561 11.5079L12.249 10.8008ZM12.4277 10.6182L13.1663 11.2924L13.1664 11.2922L12.4277 10.6182ZM12.461 10.5791L13.2738 11.1616L13.2948 11.1323L13.3136 11.1016L12.461 10.5791ZM12.4912 10.5068L13.4629 10.743L13.469 10.718L13.4738 10.6927L12.4912 10.5068ZM12.4951 10.4551L13.4941 10.5011L13.4941 10.5008L12.4951 10.4551ZM12.4981 10.1992L13.4981 10.1992V10.1992H12.4981ZM12.4981 4.34961H13.4981V4.34961L12.4981 4.34961ZM12.4873 3.75391L13.484 3.67264L13.484 3.67227L12.4873 3.75391ZM12.2442 3.51074L12.3258 2.51408L12.3256 2.51406L12.2442 3.51074ZM11.6485 3.5L11.6485 2.5H11.6485V3.5ZM12.4014 3.55287L13.016 2.76403L12.4014 3.55287ZM12.3146 3.51837L12.456 2.5284L12.3146 3.51837ZM3.68718 12.4802L3.54911 13.4706L3.68718 12.4802ZM3.5179 12.3107L4.50835 12.1728L3.5179 12.3107ZM3.55535 12.4045L2.77636 13.0315L3.55535 12.4045ZM3.55529 3.59359L4.33437 4.22051L3.55529 3.59359ZM3.51791 3.68727L2.52748 3.54923L3.51791 3.68727ZM3.68738 3.51787L3.54955 2.52741L3.68738 3.51787ZM3.59352 3.55535L2.96645 2.77639L3.59352 3.55535ZM11.6485 2L11.6485 3C11.9294 3 12.1299 3.00063 12.2848 3.01328L12.3662 2.0166L12.4477 1.01992C12.194 0.999197 11.9025 1 11.6484 1L11.6485 2ZM12.3662 2.0166L12.2847 3.01327C12.4385 3.02585 12.5247 3.04866 12.589 3.08144L13.043 2.19043L13.497 1.29942C13.1009 1.09763 12.72 1.04221 12.4478 1.01993L12.3662 2.0166ZM13.043 2.19043L12.5888 3.08134C12.7299 3.15327 12.8448 3.26822 12.9167 3.4092L13.8076 2.95508L14.6986 2.50096C14.435 1.98379 14.0142 1.5631 13.4972 1.29952L13.043 2.19043ZM13.8076 2.95508L12.9165 3.40891C12.9494 3.47335 12.9722 3.55984 12.9848 3.71337L13.9815 3.63184L14.9781 3.5503C14.9558 3.27789 14.9003 2.89704 14.6987 2.50125L13.8076 2.95508ZM13.9815 3.63184L12.9848 3.71317C12.9974 3.86806 12.9981 4.06887 12.9981 4.34961L13.9981 4.34961L14.9981 4.34961C14.9981 4.09562 14.9988 3.80404 14.9781 3.5505L13.9815 3.63184ZM13.9981 4.34961H12.9981V10.1992H13.9981H14.9981V4.34961H13.9981ZM13.9981 10.1992L12.9981 10.1992C12.9981 10.4457 12.9965 10.5411 12.9769 10.623L13.9492 10.8564L14.9216 11.0899C15.0082 10.7291 14.9981 10.3703 14.9981 10.1992L13.9981 10.1992ZM13.9492 10.8564L12.9769 10.6228C12.9581 10.7012 12.9276 10.7745 12.8876 10.8399L13.7402 11.3623L14.5929 11.8847C14.7446 11.6372 14.8547 11.3685 14.9216 11.0901L13.9492 10.8564ZM13.7402 11.3623L12.8877 10.8396C12.8439 10.9111 12.7784 10.9783 12.6025 11.1542L13.3096 11.8613L14.0167 12.5684C14.1361 12.449 14.3986 12.2017 14.5928 11.885L13.7402 11.3623ZM13.3096 11.8613L12.6025 11.1542L10.6855 13.0712L11.3926 13.7783L12.0997 14.4854L14.0167 12.5684L13.3096 11.8613ZM11.3926 13.7783L10.6857 13.071C10.7324 13.0244 10.7955 12.9981 10.862 12.998L10.8623 13.998L10.8626 14.998C11.3267 14.9979 11.7717 14.8133 12.0995 14.4857L11.3926 13.7783ZM10.8623 13.998V12.998H4.34962V13.998V14.998H10.8623V13.998ZM4.34962 13.998L4.34962 12.998C4.06423 12.998 3.86713 12.9983 3.71328 12.9857L3.63185 13.9824L3.55042 14.9791C3.80522 14.9999 4.09987 14.998 4.34962 14.998L4.34962 13.998ZM3.63185 13.9824L3.7133 12.9857C3.56302 12.9735 3.4754 12.9504 3.40902 12.9166L2.95509 13.8076L2.50117 14.6987C2.8953 14.8994 3.2745 14.9566 3.5504 14.9791L3.63185 13.9824ZM2.95509 13.8076L3.40916 12.9166C3.26825 12.8448 3.15332 12.7299 3.08134 12.5888L2.19044 13.043L1.29954 13.4972C1.56311 14.0141 1.98373 14.435 2.50103 14.6986L2.95509 13.8076ZM2.19044 13.043L3.08145 12.589C3.04771 12.5228 3.02461 12.4351 3.01231 12.2847L2.01564 12.3662L1.01897 12.4477C1.04152 12.7234 1.09861 13.1028 1.29944 13.497L2.19044 13.043ZM2.01564 12.3662L3.01232 12.2848C2.99975 12.131 3.00001 11.9337 3.00001 11.6484L2.00001 11.6484L1.00001 11.6484C1.00001 11.8981 0.998147 12.1929 1.01896 12.4476L2.01564 12.3662ZM2.00001 11.6484H3.00001V4.34961H2.00001H1.00001V11.6484H2.00001ZM2.00001 4.34961L3.00001 4.34961C3.00001 4.06454 2.99977 3.86699 3.01233 3.71317L2.01564 3.63184L1.01895 3.55051C0.998176 3.80511 1.00001 4.09995 1.00001 4.34961L2.00001 4.34961ZM2.01564 3.63184L3.01231 3.71335C3.02459 3.56325 3.04774 3.47526 3.08154 3.40888L2.19044 2.95508L1.29934 2.50127C1.09876 2.89515 1.04153 3.27447 1.01897 3.55032L2.01564 3.63184ZM2.19044 2.95508L3.08136 3.40925C3.15329 3.26815 3.26823 3.15323 3.40919 3.08138L2.95509 2.19043L2.50099 1.29948C1.98378 1.56309 1.56311 1.98386 1.29953 2.50091L2.19044 2.95508ZM2.95509 2.19043L3.40908 3.08144C3.47348 3.04863 3.55955 3.02585 3.71333 3.01328L3.63185 2.0166L3.55037 1.01993C3.27797 1.0422 2.8972 1.0976 2.5011 1.29942L2.95509 2.19043ZM3.63185 2.0166L3.71328 3.01328C3.8682 3.00062 4.06856 3 4.34962 3L4.34962 2L4.34962 1C4.09554 1 3.80415 0.999192 3.55042 1.01992L3.63185 2.0166ZM4.34962 2V3H11.6485V2V1H4.34962V2ZM4.34962 3.5L4.34962 2.5C4.07714 2.5 3.85249 2.49936 3.67249 2.51406L3.75392 3.51074L3.83535 4.50742C3.91354 4.50103 4.03754 4.5 4.34962 4.5L4.34962 3.5ZM3.75392 3.51074L3.67238 2.51407C3.62848 2.51766 3.58767 2.52211 3.54955 2.52741L3.68738 3.51787L3.82522 4.50833C3.82163 4.50882 3.82459 4.5083 3.83546 4.50741L3.75392 3.51074ZM3.59352 3.55535L2.96645 2.77639C2.89646 2.83273 2.83265 2.89652 2.7762 2.96667L3.55529 3.59359L4.33437 4.22051C4.30058 4.2625 4.26243 4.30063 4.2206 4.33431L3.59352 3.55535ZM3.51791 3.68727L2.52748 3.54923C2.52216 3.58738 2.5177 3.62825 2.5141 3.67225L3.51076 3.75391L4.50742 3.83556C4.5083 3.82473 4.50883 3.82175 4.50833 3.8253L3.51791 3.68727ZM3.51076 3.75391L2.51406 3.67265C2.4994 3.85246 2.50001 4.07731 2.50001 4.34961L3.50001 4.34961L4.50001 4.34961C4.50001 4.03805 4.50107 3.91343 4.50745 3.83516L3.51076 3.75391ZM3.50001 4.34961H2.50001V11.6484H3.50001H4.50001V4.34961H3.50001ZM3.50001 11.6484L2.50001 11.6484C2.50001 11.9208 2.49937 12.1456 2.51408 12.3256L3.51076 12.2441L4.50744 12.1627C4.50105 12.0846 4.50001 11.9603 4.50001 11.6484L3.50001 11.6484ZM3.51076 12.2441L2.5141 12.3258C2.5177 12.3697 2.52215 12.4105 2.52744 12.4486L3.5179 12.3107L4.50835 12.1728C4.50883 12.1763 4.5083 12.1733 4.50741 12.1624L3.51076 12.2441ZM3.55535 12.4045L2.77636 13.0315C2.83276 13.1016 2.89663 13.1655 2.96692 13.222L3.59369 12.4428L4.22045 11.6636C4.26251 11.6975 4.30066 11.7356 4.33434 11.7775L3.55535 12.4045ZM3.68718 12.4802L3.54911 13.4706C3.58737 13.4759 3.62833 13.4804 3.6724 13.484L3.75392 12.4873L3.83544 11.4906C3.82451 11.4897 3.82157 11.4892 3.82524 11.4897L3.68718 12.4802ZM3.75392 12.4873L3.67249 13.484C3.85249 13.4987 4.07714 13.498 4.34962 13.498L4.34962 12.498L4.34962 11.498C4.03755 11.498 3.91354 11.497 3.83535 11.4906L3.75392 12.4873ZM4.34962 12.498V13.498H10.3447V12.498V11.498H4.34962V12.498ZM10.6982 12.3516L11.4053 13.0587L12.9561 11.5079L12.249 10.8008L11.5419 10.0937L9.99111 11.6445L10.6982 12.3516ZM12.249 10.8008L12.9561 11.5079C13.0413 11.4227 13.1108 11.3532 13.1663 11.2924L12.4277 10.6182L11.6892 9.94396C11.6712 9.96368 11.6386 9.99698 11.5419 10.0937L12.249 10.8008ZM12.4277 10.6182L13.1664 11.2922C13.2019 11.2533 13.2394 11.2095 13.2738 11.1616L12.461 10.5791L11.6481 9.99659C11.6643 9.97398 11.677 9.95851 11.6823 9.95212C11.6885 9.94466 11.6912 9.94173 11.6891 9.94411L12.4277 10.6182ZM12.461 10.5791L13.3136 11.1016C13.3787 10.9953 13.431 10.8744 13.4629 10.743L12.4912 10.5068L11.5195 10.2707C11.5392 10.1898 11.5703 10.1186 11.6083 10.0566L12.461 10.5791ZM12.4912 10.5068L13.4738 10.6927C13.4891 10.6118 13.4926 10.5323 13.4941 10.5011L12.4951 10.4551L11.4962 10.409C11.4958 10.4166 11.4958 10.4153 11.4964 10.4074C11.4968 10.4035 11.4975 10.396 11.4987 10.3857C11.4993 10.3806 11.5002 10.3733 11.5014 10.3644C11.5025 10.3572 11.5048 10.3413 11.5087 10.321L12.4912 10.5068ZM12.4951 10.4551L13.4941 10.5008C13.4978 10.4189 13.4981 10.3216 13.4981 10.1992L12.4981 10.1992L11.4981 10.1992C11.4981 10.334 11.4974 10.3823 11.4962 10.4094L12.4951 10.4551ZM12.4981 10.1992H13.4981V4.34961H12.4981H11.4981V10.1992H12.4981ZM12.4981 4.34961L13.4981 4.34961C13.4981 4.07731 13.4987 3.85246 13.484 3.67264L12.4873 3.75391L11.4906 3.83517C11.497 3.91343 11.4981 4.03804 11.4981 4.34961L12.4981 4.34961ZM12.4873 3.75391L13.484 3.67227C13.4762 3.5772 13.4637 3.48952 13.444 3.40833C13.441 3.39583 13.4202 3.30462 13.3723 3.20352C13.3667 3.19166 13.3529 3.16296 13.3325 3.1279C13.3228 3.11119 13.3027 3.07762 13.2734 3.03786C13.2616 3.02191 13.1771 2.90239 13.0256 2.80071C12.9507 2.7505 12.7534 2.63143 12.4696 2.63106C12.1176 2.6306 11.8354 2.80969 11.6702 3.02853C11.5371 3.2048 11.4985 3.37747 11.4857 3.44553C11.47 3.52838 11.4682 3.59584 11.4683 3.63243C11.4685 3.75292 11.492 3.8475 11.4928 3.85133C11.5099 3.92674 11.5329 3.98491 11.5339 3.98737C11.5487 4.02644 11.5646 4.06108 11.5797 4.09071L12.4707 3.63672L13.3617 3.18273C13.3747 3.20826 13.3893 3.23974 13.4034 3.27688C13.404 3.27838 13.4268 3.33589 13.4438 3.411C13.4446 3.41475 13.4681 3.50927 13.4683 3.62973C13.4683 3.66631 13.4666 3.73376 13.4509 3.81661C13.4381 3.88466 13.3995 4.05732 13.2664 4.23359C13.1012 4.45243 12.819 4.63152 12.467 4.63106C12.1832 4.63069 11.9859 4.51162 11.9111 4.46141C11.7596 4.35974 11.675 4.24023 11.6633 4.2243C11.634 4.18455 11.6139 4.15101 11.6042 4.13433C11.5838 4.09933 11.5701 4.07071 11.5645 4.05895C11.5321 3.99041 11.5152 3.93311 11.5145 3.93073C11.5081 3.91006 11.5035 3.89278 11.5004 3.87997C11.4886 3.83145 11.4886 3.81055 11.4907 3.83555L12.4873 3.75391ZM12.4707 3.63672L13.3617 3.18273C13.2778 3.0181 13.1592 2.87558 13.016 2.76403L12.4014 3.55287L11.7868 4.34171C11.7013 4.27504 11.6302 4.18973 11.5797 4.09071L12.4707 3.63672ZM12.3146 3.51837L12.456 2.5284C12.4155 2.52262 12.3722 2.51788 12.3258 2.51408L12.2442 3.51074L12.1625 4.5074C12.1753 4.50845 12.1782 4.50903 12.1733 4.50833L12.3146 3.51837ZM12.2442 3.51074L12.3256 2.51406C12.1456 2.49936 11.9208 2.5 11.6485 2.5L11.6485 3.5L11.6484 4.5C11.9604 4.5 12.0846 4.50104 12.1627 4.50742L12.2442 3.51074ZM11.6485 3.5V2.5H4.34962V3.5V4.5H11.6485V3.5ZM12.4014 3.55287L13.016 2.76403C12.818 2.60973 12.609 2.55026 12.456 2.5284L12.3146 3.51837L12.1733 4.50833C12.0829 4.49543 11.9349 4.45709 11.7868 4.34171L12.4014 3.55287ZM3.59369 12.4428L2.96692 13.222C3.17602 13.3902 3.39792 13.4495 3.54911 13.4706L3.68718 12.4802L3.82524 11.4897C3.90877 11.5014 4.06459 11.5382 4.22045 11.6636L3.59369 12.4428ZM3.5179 12.3107L2.52744 12.4486C2.54855 12.6002 2.60796 12.8223 2.77636 13.0315L3.55535 12.4045L4.33434 11.7775C4.45975 11.9333 4.49669 12.0891 4.50835 12.1728L3.5179 12.3107ZM3.55529 3.59359L2.7762 2.96667C2.60764 3.17614 2.5485 3.3984 2.52748 3.54923L3.51791 3.68727L4.50833 3.8253C4.49676 3.90834 4.46002 4.06437 4.33437 4.22051L3.55529 3.59359ZM10.3447 12.498V13.498C10.7425 13.498 11.124 13.34 11.4053 13.0587L10.6982 12.3516L9.99111 11.6445C10.0849 11.5507 10.2121 11.498 10.3447 11.498V12.498ZM3.68738 3.51787L3.54955 2.52741C3.39795 2.54851 3.17573 2.60791 2.96645 2.77639L3.59352 3.55535L4.2206 4.33431C4.06474 4.45977 3.90887 4.49668 3.82522 4.50833L3.68738 3.51787Z" fill="#E6E6E6" mask="url(#path-1-outside-1_1586_851)"/>
<path d="M14 11L11 14L4.8 14C3.81991 14 3.32986 14 2.95552 13.8093C2.62623 13.6415 2.35852 13.3738 2.19074 13.0445C2 12.6701 2 12.1801 2 11.2L2 4.8C2 3.81991 2 3.32986 2.19074 2.95552C2.35852 2.62623 2.62623 2.35852 2.95552 2.19074C3.32986 2 3.81991 2 4.8 2L11.2 2C12.1801 2 12.6701 2 13.0445 2.19074C13.3738 2.35852 13.6415 2.62623 13.8093 2.95552C14 3.32986 14 3.81991 14 4.8L14 11Z" fill="#FEB83C"/>
<path d="M5 6L11 6M5 9.5L7.4 9.5" stroke="#C05C27" stroke-width="1.5" stroke-linecap="round" stroke-linejoin="round"/>
<path d="M11 12.6L11 14C11.1601 14 11.3136 13.9364 11.4268 13.8232L13.8232 11.4268C13.9364 11.3136 14 11.1601 14 11L12.6 11C12.0399 11 11.7599 11 11.546 11.109C11.3578 11.2049 11.2049 11.3578 11.109 11.546C11 11.7599 11 12.0399 11 12.6Z" fill="#C05C27"/>
</svg>
