<svg width="16" height="16" viewBox="0 0 16 16" fill="none" xmlns="http://www.w3.org/2000/svg"><g xmlns="http://www.w3.org/2000/svg"><path id="LHS" d="M2 3C2 2.44772 2.44772 2 3 2H13C13.5523 2 14 2.44772 14 3V13C14 13.5523 13.5523 14 13 14H3C2.44772 14 2 13.5523 2 13V3Z" fill="#FDFDFD" /><path id="RHS" d="M14 3V13C14 13.5523 13.5523 14 13 14H3L14 3Z" fill="#999999" /><path id="Border" d="M13 1.5C13.8284 1.5 14.5 2.17157 14.5 3V13C14.5 13.8284 13.8284 14.5 13 14.5H3C2.17157 14.5 1.5 13.8284 1.5 13V3C1.5 2.17157 2.17157 1.5 3 1.5H13Z" stroke="#E6E6E6" stroke-linejoin="round" /><g id="Group 6"><circle id="Ellipse 216" cx="4" cy="11.5" r="1.5" fill="#0A7DFF" stroke="white" /><circle id="Ellipse 218" cx="6.5" cy="9" r="1.5" fill="#0A7DFF" stroke="white" /><circle id="Ellipse 219" cx="9" cy="6.5" r="1.5" fill="#0A7DFF" stroke="white" /><circle id="Ellipse 221" cx="11.5" cy="4" r="1.5" fill="#0A7DFF" stroke="white" /></g></g></svg>