<svg width="16" height="16" viewBox="0 0 16 16" fill="none" xmlns="http://www.w3.org/2000/svg"><mask id="path-1-outside-1_301_867" maskUnits="userSpaceOnUse" x="1.20703" y="1.20706" width="14" height="14" fill="black"><rect fill="white" x="1.20703" y="1.20706" width="14" height="14"/><path d="M7.8457 2.23148C7.94599 2.19895 8.05401 2.19894 8.1543 2.23148C8.26841 2.26856 8.36758 2.36761 8.56543 2.56546L13.4346 7.4346C13.6324 7.63242 13.7315 7.73162 13.7686 7.84573C13.8011 7.94601 13.8011 8.05405 13.7686 8.15433C13.7315 8.26844 13.6324 8.36763 13.4346 8.56546L8.56543 13.4346C8.3676 13.6324 8.26841 13.7315 8.1543 13.7686C8.05402 13.8011 7.94598 13.8011 7.8457 13.7686C7.73159 13.7315 7.63241 13.6324 7.43457 13.4346L2.56543 8.56546C2.36758 8.36761 2.26852 8.26845 2.23145 8.15433C2.19891 8.05404 2.19892 7.94602 2.23145 7.84573C2.26852 7.73162 2.36759 7.63244 2.56543 7.4346L7.43457 2.56546C7.63241 2.36762 7.73159 2.26855 7.8457 2.23148Z"/></mask><path d="M7.8457 2.23148C7.94599 2.19895 8.05401 2.19894 8.1543 2.23148C8.26841 2.26856 8.36758 2.36761 8.56543 2.56546L13.4346 7.4346C13.6324 7.63242 13.7315 7.73162 13.7686 7.84573C13.8011 7.94601 13.8011 8.05405 13.7686 8.15433C13.7315 8.26844 13.6324 8.36763 13.4346 8.56546L8.56543 13.4346C8.3676 13.6324 8.26841 13.7315 8.1543 13.7686C8.05402 13.8011 7.94598 13.8011 7.8457 13.7686C7.73159 13.7315 7.63241 13.6324 7.43457 13.4346L2.56543 8.56546C2.36758 8.36761 2.26852 8.26845 2.23145 8.15433C2.19891 8.05404 2.19892 7.94602 2.23145 7.84573C2.26852 7.73162 2.36759 7.63244 2.56543 7.4346L7.43457 2.56546C7.63241 2.36762 7.73159 2.26855 7.8457 2.23148Z" fill="#333333"/><path d="M7.8457 2.23148L7.53717 1.28026L7.53669 1.28042L7.8457 2.23148ZM8.1543 2.23148L8.46331 1.28042L8.46289 1.28028L8.1543 2.23148ZM8.56543 2.56546L9.27254 1.85835V1.85835L8.56543 2.56546ZM13.4346 7.4346L12.7275 8.14171L12.7275 8.14171L13.4346 7.4346ZM13.7686 7.84573L14.7198 7.53722L14.7196 7.53671L13.7686 7.84573ZM13.7686 8.15433L14.7196 8.46335L14.7198 8.4629L13.7686 8.15433ZM13.4346 8.56546L12.7275 7.85835L12.7275 7.85835L13.4346 8.56546ZM8.56543 13.4346L7.85832 12.7275L7.85832 12.7275L8.56543 13.4346ZM8.1543 13.7686L8.46282 14.7198L8.46332 14.7196L8.1543 13.7686ZM7.8457 13.7686L7.53669 14.7196L7.53714 14.7198L7.8457 13.7686ZM7.43457 13.4346L6.72746 14.1417L6.72747 14.1417L7.43457 13.4346ZM2.56543 8.56546L1.85832 9.27256L1.85832 9.27257L2.56543 8.56546ZM2.23145 8.15433L1.28025 8.46292L1.28039 8.46334L2.23145 8.15433ZM2.23145 7.84573L1.28039 7.53672L1.28023 7.53719L2.23145 7.84573ZM2.56543 7.4346L1.85832 6.72749V6.72749L2.56543 7.4346ZM7.43457 2.56546L6.72746 1.85835V1.85835L7.43457 2.56546ZM7.8457 2.23148L8.15424 3.18269C8.05402 3.2152 7.94605 3.21522 7.8457 3.18267L8.1543 2.23148L8.46289 1.28028C8.16198 1.18266 7.83796 1.1827 7.53717 1.28026L7.8457 2.23148ZM8.1543 2.23148L7.84528 3.18253C7.78727 3.16368 7.7424 3.14024 7.71274 3.12189C7.68584 3.10525 7.67395 3.0943 7.68143 3.10064C7.68921 3.10724 7.70587 3.12216 7.73796 3.15325C7.77002 3.18431 7.80729 3.22153 7.85832 3.27257L8.56543 2.56546L9.27254 1.85835C9.18516 1.77098 9.07771 1.66246 8.97549 1.57571C8.86446 1.48149 8.69587 1.35598 8.46331 1.28042L8.1543 2.23148ZM8.56543 2.56546L7.85832 3.27257L12.7275 8.14171L13.4346 7.4346L14.1417 6.72749L9.27254 1.85835L8.56543 2.56546ZM13.4346 7.4346L12.7275 8.14171C12.7785 8.19273 12.8157 8.23 12.8468 8.26206C12.8779 8.29414 12.8928 8.31081 12.8994 8.31859C12.9057 8.32607 12.8948 8.3142 12.8781 8.2873C12.8598 8.25766 12.8364 8.21279 12.8175 8.15475L13.7686 7.84573L14.7196 7.53671C14.644 7.30415 14.5185 7.13555 14.4243 7.02453C14.3376 6.92231 14.229 6.81486 14.1417 6.72749L13.4346 7.4346ZM13.7686 7.84573L12.8173 8.15425C12.7848 8.05403 12.7848 7.94609 12.8174 7.84575L13.7686 8.15433L14.7198 8.4629C14.8174 8.16201 14.8173 7.83799 14.7198 7.53722L13.7686 7.84573ZM13.7686 8.15433L12.8175 7.84531C12.8364 7.78729 12.8598 7.74242 12.8781 7.71277C12.8948 7.68587 12.9057 7.67399 12.8994 7.68147C12.8928 7.68924 12.8779 7.70591 12.8468 7.738C12.8157 7.77006 12.7785 7.80732 12.7275 7.85835L13.4346 8.56546L14.1417 9.27257C14.229 9.1852 14.3376 9.07775 14.4243 8.97553C14.5185 8.8645 14.644 8.6959 14.7196 8.46335L13.7686 8.15433ZM13.4346 8.56546L12.7275 7.85835L7.85832 12.7275L8.56543 13.4346L9.27254 14.1417L14.1417 9.27257L13.4346 8.56546ZM8.56543 13.4346L7.85832 12.7275C7.8073 12.7785 7.77003 12.8157 7.73797 12.8468C7.70588 12.8779 7.68922 12.8928 7.68144 12.8994C7.67396 12.9058 7.68583 12.8948 7.71273 12.8782C7.74238 12.8598 7.78725 12.8364 7.84527 12.8175L8.1543 13.7686L8.46332 14.7196C8.69588 14.6441 8.86448 14.5186 8.9755 14.4243C9.07772 14.3376 9.18517 14.2291 9.27254 14.1417L8.56543 13.4346ZM8.1543 13.7686L7.84577 12.8174C7.946 12.7849 8.05395 12.7848 8.15427 12.8174L7.8457 13.7686L7.53714 14.7198C7.83801 14.8174 8.16203 14.8174 8.46282 14.7198L8.1543 13.7686ZM7.8457 13.7686L8.15472 12.8175C8.21274 12.8364 8.25761 12.8598 8.28727 12.8782C8.31417 12.8948 8.32605 12.9058 8.31856 12.8994C8.31079 12.8928 8.29412 12.8779 8.26203 12.8468C8.22997 12.8157 8.1927 12.7785 8.14167 12.7275L7.43457 13.4346L6.72747 14.1417C6.81484 14.2291 6.92228 14.3376 7.0245 14.4243C7.13552 14.5186 7.30412 14.6441 7.53669 14.7196L7.8457 13.7686ZM7.43457 13.4346L8.14168 12.7275L3.27254 7.85835L2.56543 8.56546L1.85832 9.27257L6.72746 14.1417L7.43457 13.4346ZM2.56543 8.56546L3.27254 7.85836C3.22151 7.80732 3.18428 7.77005 3.15322 7.73799C3.12213 7.7059 3.10721 7.68923 3.10061 7.68146C3.09426 7.67398 3.10522 7.68587 3.12186 7.71277C3.14021 7.74243 3.16365 7.7873 3.1825 7.84531L2.23145 8.15433L1.28039 8.46334C1.35595 8.6959 1.48146 8.86449 1.57569 8.97553C1.66243 9.07774 1.77095 9.18519 1.85832 9.27256L2.56543 8.56546ZM2.23145 8.15433L3.18264 7.84573C3.21519 7.94607 3.21517 8.05405 3.18266 8.15427L2.23145 7.84573L1.28023 7.53719C1.18267 7.83799 1.18263 8.16202 1.28025 8.46292L2.23145 8.15433ZM2.23145 7.84573L3.1825 8.15475C3.16365 8.21277 3.14021 8.25764 3.12186 8.2873C3.10522 8.3142 3.09427 8.32608 3.10062 8.31859C3.10721 8.31082 3.12214 8.29415 3.15322 8.26207C3.18428 8.23 3.22151 8.19274 3.27254 8.14171L2.56543 7.4346L1.85832 6.72749C1.77095 6.81487 1.66243 6.92231 1.57569 7.02453C1.48147 7.13556 1.35595 7.30416 1.28039 7.53672L2.23145 7.84573ZM2.56543 7.4346L3.27254 8.14171L8.14168 3.27257L7.43457 2.56546L6.72746 1.85835L1.85832 6.72749L2.56543 7.4346ZM7.43457 2.56546L8.14168 3.27257C8.19271 3.22154 8.22997 3.18431 8.26203 3.15325C8.29412 3.12217 8.31079 3.10724 8.31856 3.10065C8.32605 3.0943 8.31417 3.10525 8.28727 3.12189C8.25761 3.14024 8.21274 3.16368 8.15472 3.18253L7.8457 2.23148L7.53669 1.28042C7.30413 1.35598 7.13553 1.4815 7.0245 1.57572C6.92228 1.66246 6.81484 1.77098 6.72746 1.85835L7.43457 2.56546Z" fill="#E6E6E6" mask="url(#path-1-outside-1_301_867)"/><path d="M11 5L8 8L5 5L7.43431 2.56569C7.63232 2.36768 7.73133 2.26867 7.84549 2.23158C7.94591 2.19895 8.05409 2.19895 8.15451 2.23158C8.26867 2.26867 8.36768 2.36768 8.56569 2.56569L11 5Z" fill="#001E55"/><path d="M11 11L8.56572 13.4343C8.36771 13.6323 8.2687 13.7313 8.15454 13.7684C8.05412 13.8011 7.94595 13.8011 7.84552 13.7684C7.73136 13.7313 7.63235 13.6323 7.43434 13.4343L5 11L8.00002 8L11 11Z" fill="#4FA8FB"/><path d="M13.4343 7.43431C13.6323 7.63232 13.7313 7.73133 13.7684 7.84549C13.801 7.94591 13.801 8.05409 13.7684 8.15451C13.7313 8.26867 13.6323 8.36768 13.4343 8.56569L11 11L8 8L11 5L13.4343 7.43431Z" fill="#2D52D2"/><path d="M8 8L4.99997 11L2.56568 8.56569C2.36767 8.36768 2.26867 8.26867 2.23158 8.15451C2.19895 8.05409 2.19895 7.94591 2.23158 7.84549C2.26867 7.73133 2.36768 7.63232 2.56568 7.43432L5 5L8 8Z" fill="#A4E5FF"/></svg>