<svg width="16" height="16" viewBox="0 0 16 16" fill="none" xmlns="http://www.w3.org/2000/svg"><rect x="1.5" y="3.5" width="11" height="11" rx="1.5" fill="#001E55" stroke="#E6E6E6"/><mask id="path-2-outside-1_1604_1215" maskUnits="userSpaceOnUse" x="3.15045" y="0.207001" width="13" height="13" fill="black"><rect fill="white" x="3.15045" y="0.207001" width="13" height="13"/><path d="M10.8452 1.23147C10.9456 1.19884 11.0543 1.19884 11.1547 1.23147C11.2688 1.26861 11.368 1.36757 11.5659 1.56546L14.434 4.4346C14.632 4.63261 14.7309 4.73157 14.768 4.84573C14.8006 4.94611 14.8006 5.05395 14.768 5.15432C14.7309 5.26849 14.632 5.36745 14.434 5.56546L10.1679 9.8325C10.0578 9.94266 9.92344 10.0256 9.77559 10.0746L9.39692 10.2002C9.39325 10.2014 9.38993 10.2039 9.38618 10.2051L4.75923 11.7471C4.51495 11.8285 4.39221 11.8688 4.31098 11.8399C4.24049 11.8146 4.18477 11.7591 4.15962 11.6885C4.13081 11.6073 4.17203 11.4853 4.25337 11.2412L5.79536 6.61429C5.79698 6.60943 5.79866 6.60438 5.80024 6.59964L5.92578 6.22365C5.97488 6.07658 6.0575 5.94295 6.16712 5.83331L10.434 1.56546C10.6319 1.36759 10.7311 1.26863 10.8452 1.23147Z"/></mask><path d="M10.8452 1.23147L10.5361 0.280419L10.5354 0.280657L10.8452 1.23147ZM11.1547 1.23147L11.4643 0.280587L11.4638 0.280416L11.1547 1.23147ZM11.5659 1.56546L12.2731 0.858471L12.273 0.858349L11.5659 1.56546ZM14.434 4.4346L13.7268 5.14158L13.7269 5.14171L14.434 4.4346ZM14.768 4.84573L15.7191 4.53688L15.7191 4.53671L14.768 4.84573ZM14.768 5.15432L15.7191 5.46334L15.7191 5.46322L14.768 5.15432ZM14.434 5.56546L13.7269 4.85835L13.7268 4.85843L14.434 5.56546ZM9.39692 10.2002L9.08208 9.25108L9.08062 9.25156L9.39692 10.2002ZM9.38618 10.2051L9.70235 11.1538L9.70241 11.1538L9.38618 10.2051ZM4.75923 11.7471L4.44306 10.7984L4.443 10.7984L4.75923 11.7471ZM4.31098 11.8399L3.97352 12.7812L3.97511 12.7818L4.31098 11.8399ZM4.15962 11.6885L3.21713 12.0228L3.21771 12.0244L4.15962 11.6885ZM4.25337 11.2412L5.20205 11.5575L5.20207 11.5574L4.25337 11.2412ZM5.79536 6.61429L4.84668 6.29806L4.84666 6.29812L5.79536 6.61429ZM5.80024 6.59964L4.85171 6.28295L4.8516 6.28329L5.80024 6.59964ZM10.434 1.56546L9.72692 0.85835L9.72685 0.858428L10.434 1.56546ZM5.92578 6.22365L4.97725 5.90695L5.92578 6.22365ZM6.16712 5.83331L5.45994 5.12628L6.16712 5.83331ZM10.1679 9.8325L10.8751 10.5395L10.1679 9.8325ZM9.77559 10.0746L10.0904 11.0238L9.77559 10.0746ZM10.8452 1.23147L11.1542 2.18253C11.0538 2.21516 10.9461 2.21516 10.8457 2.18253L11.1547 1.23147L11.4638 0.280416C11.1625 0.182531 10.8374 0.182525 10.5361 0.280419L10.8452 1.23147ZM11.1547 1.23147L10.8452 2.18236C10.7874 2.16354 10.7427 2.14017 10.7131 2.12188C10.6863 2.10528 10.6744 2.09437 10.6819 2.10072C10.6897 2.10731 10.7064 2.12223 10.7384 2.1533C10.7705 2.18434 10.8078 2.22156 10.8588 2.27257L11.5659 1.56546L12.273 0.858349C12.1855 0.77086 12.0781 0.662395 11.9758 0.575651C11.8648 0.481421 11.6964 0.356149 11.4643 0.280587L11.1547 1.23147ZM11.5659 1.56546L10.8586 2.27244L13.7268 5.14158L14.434 4.4346L15.1413 3.72761L12.2731 0.858471L11.5659 1.56546ZM14.434 4.4346L13.7269 5.14171C13.778 5.19279 13.8153 5.23008 13.8463 5.26215C13.8774 5.29426 13.8923 5.3109 13.8989 5.31864C13.9052 5.32607 13.8942 5.31414 13.8775 5.28717C13.8591 5.25744 13.8358 5.21261 13.817 5.15475L14.768 4.84573L15.7191 4.53671C15.6435 4.30428 15.5182 4.13576 15.4238 4.02458C15.3371 3.92237 15.2285 3.81489 15.1411 3.72749L14.434 4.4346ZM14.768 4.84573L13.8169 5.15458C13.7843 5.05425 13.7843 4.94585 13.8169 4.84543L14.768 5.15432L15.7191 5.46322C15.8169 5.16204 15.8169 4.83797 15.7191 4.53688L14.768 4.84573ZM14.768 5.15432L13.817 4.84531C13.8358 4.78745 13.8591 4.74262 13.8775 4.71288C13.8942 4.68592 13.9052 4.67398 13.8989 4.68142C13.8923 4.68916 13.8774 4.7058 13.8463 4.7379C13.8153 4.76998 13.778 4.80726 13.7269 4.85835L14.434 5.56546L15.1411 6.27256C15.2285 6.18516 15.3371 6.07769 15.4238 5.97548C15.5182 5.86429 15.6435 5.69578 15.7191 5.46334L14.768 5.15432ZM14.434 5.56546L13.7268 4.85843L9.46074 9.12547L10.1679 9.8325L10.8751 10.5395L15.1412 6.27249L14.434 5.56546ZM9.77559 10.0746L9.46074 9.12547L9.08208 9.25108L9.39692 10.2002L9.71177 11.1494L10.0904 11.0238L9.77559 10.0746ZM9.39692 10.2002L9.08062 9.25156C9.05508 9.26008 9.03278 9.26864 9.01422 9.2763C8.99572 9.28393 8.98009 9.29101 8.96812 9.29665C8.95624 9.30225 8.94669 9.30702 8.94086 9.30997C8.93788 9.31149 8.93544 9.31274 8.93391 9.31353C8.93313 9.31393 8.93248 9.31427 8.93206 9.31449C8.93167 9.31469 8.9313 9.31488 8.93127 9.31489C8.93026 9.31542 8.93414 9.3134 8.93884 9.31102C8.94398 9.30842 8.95275 9.30404 8.96383 9.29884C8.975 9.29359 8.98969 9.28696 9.00716 9.27977C9.0247 9.27256 9.04578 9.26448 9.06995 9.25642L9.38618 10.2051L9.70241 11.1538C9.72752 11.1454 9.74952 11.137 9.76797 11.1294C9.78636 11.1218 9.80195 11.1148 9.81401 11.1091C9.82598 11.1035 9.83564 11.0987 9.84167 11.0956C9.84475 11.0941 9.84728 11.0928 9.84892 11.0919C9.85045 11.0912 9.85177 11.0905 9.85188 11.0904C9.85235 11.0902 9.85152 11.0906 9.85056 11.0911C9.84947 11.0917 9.84747 11.0927 9.84493 11.094C9.83998 11.0965 9.83131 11.1008 9.82032 11.106C9.80923 11.1112 9.7945 11.1179 9.77689 11.1252C9.75923 11.1325 9.73784 11.1407 9.71322 11.1489L9.39692 10.2002ZM9.38618 10.2051L9.07001 9.2564L4.44306 10.7984L4.75923 11.7471L5.07539 12.6958L9.70235 11.1538L9.38618 10.2051ZM4.75923 11.7471L4.443 10.7984C4.38002 10.8194 4.33537 10.8342 4.29837 10.8458C4.28072 10.8514 4.26788 10.8552 4.25856 10.8578C4.24916 10.8605 4.24578 10.8613 4.24697 10.861C4.24803 10.8607 4.25696 10.8587 4.27192 10.8564C4.28683 10.8541 4.31176 10.8509 4.34437 10.8497C4.41036 10.8473 4.5195 10.8525 4.64686 10.898L4.31098 11.8399L3.97511 12.7818C4.299 12.8973 4.58898 12.8349 4.70095 12.8088C4.8281 12.7791 4.97109 12.7306 5.07545 12.6958L4.75923 11.7471ZM4.31098 11.8399L4.64845 10.8985C4.85822 10.9737 5.02544 11.1393 5.10152 11.3526L4.15962 11.6885L3.21771 12.0244C3.34411 12.3788 3.62277 12.6555 3.97352 12.7812L4.31098 11.8399ZM4.15962 11.6885L5.1021 11.3543C5.14768 11.4828 5.15255 11.5929 5.14985 11.6593C5.14852 11.6921 5.14523 11.7171 5.14288 11.732C5.14052 11.7469 5.13843 11.7557 5.13822 11.7566C5.13798 11.7576 5.13881 11.754 5.14158 11.7444C5.14432 11.7348 5.14826 11.7217 5.15392 11.7038C5.16585 11.6661 5.18078 11.6213 5.20205 11.5575L4.25337 11.2412L3.30468 10.925C3.27062 11.0272 3.22185 11.17 3.19216 11.2952C3.16605 11.4054 3.10152 11.6968 3.21713 12.0227L4.15962 11.6885ZM4.25337 11.2412L5.20207 11.5574L6.74406 6.93045L5.79536 6.61429L4.84666 6.29812L3.30466 10.9251L4.25337 11.2412ZM5.79536 6.61429L6.74404 6.93051C6.74571 6.9255 6.74733 6.92065 6.74889 6.91598L5.80024 6.59964L4.8516 6.28329C4.84999 6.28811 4.84824 6.29335 4.84668 6.29806L5.79536 6.61429ZM5.80024 6.59964L6.74877 6.91633L6.87431 6.54034L5.92578 6.22365L4.97725 5.90695L4.85171 6.28295L5.80024 6.59964ZM6.16712 5.83331L6.87431 6.54034L11.1412 2.27249L10.434 1.56546L9.72685 0.858428L5.45994 5.12628L6.16712 5.83331ZM10.434 1.56546L11.1411 2.27256C11.1921 2.22159 11.2294 2.18437 11.2614 2.15335C11.2935 2.12229 11.3102 2.10737 11.3179 2.10076C11.3254 2.0944 11.3136 2.10528 11.2869 2.12186C11.2573 2.14012 11.2127 2.16347 11.1549 2.18229L10.8452 1.23147L10.5354 0.280657C10.3034 0.35623 10.1351 0.48144 10.0241 0.575639C9.92185 0.662387 9.81446 0.77082 9.72692 0.85835L10.434 1.56546ZM5.92578 6.22365L6.87431 6.54034V6.54034L6.16712 5.83331L5.45994 5.12628C5.2407 5.34557 5.07545 5.61283 4.97725 5.90695L5.92578 6.22365ZM10.1679 9.8325L9.46074 9.12547L9.46074 9.12547L9.77559 10.0746L10.0904 11.0238C10.3861 10.9257 10.6548 10.7598 10.8751 10.5395L10.1679 9.8325Z" fill="#E6E6E6" mask="url(#path-2-outside-1_1604_1215)"/><path d="M4.25298 11.2411L5.79533 6.61399C5.8631 6.41069 5.89699 6.30903 5.96021 6.26209C6.01542 6.22109 6.08508 6.20465 6.1528 6.21662C6.23035 6.23034 6.30611 6.30611 6.45765 6.45764L9.54235 9.54235C9.69389 9.69388 9.76966 9.76965 9.78337 9.8472C9.79535 9.91491 9.7789 9.98457 9.73791 10.0398C9.69096 10.103 9.58931 10.1369 9.386 10.2047L4.75895 11.747C4.51467 11.8284 4.39254 11.8692 4.31132 11.8402C4.24063 11.815 4.18501 11.7594 4.15981 11.6887C4.13085 11.6075 4.17156 11.4853 4.25298 11.2411Z" fill="#333333"/><path d="M6 6L5 9L7 11L10 10L6 6Z" fill="#FFDE94"/><path d="M10.4343 1.56569L6 6L10 10L14.4343 5.56569C14.6323 5.36768 14.7313 5.26868 14.7684 5.15451C14.8011 5.05409 14.8011 4.94592 14.7684 4.8455C14.7313 4.73133 14.6323 4.63233 14.4343 4.43432L11.5657 1.56569L11.5657 1.56568C11.3677 1.36768 11.2687 1.26868 11.1545 1.23158C11.0541 1.19895 10.9459 1.19895 10.8455 1.23158C10.7313 1.26868 10.6323 1.36768 10.4343 1.56569Z" fill="#D97824"/><path d="M10.8461 1.23181C10.9463 1.19936 11.0545 1.19929 11.1547 1.23181C11.2686 1.26899 11.3682 1.36818 11.5658 1.5658L12.3207 2.32068L7.349 7.29333L4.18494 11.7396C4.17487 11.7239 4.16695 11.7068 4.16052 11.6888C4.13164 11.6077 4.17198 11.4855 4.2533 11.2416L5.79529 6.61462C5.79654 6.61087 5.79796 6.60661 5.79919 6.60291L6.00037 6.00037L10.4349 1.5658C10.6327 1.368 10.732 1.26889 10.8461 1.23181Z" fill="white" fill-opacity="0.3"/></svg>