<svg width="16" height="16" viewBox="0 0 16 16" fill="none" xmlns="http://www.w3.org/2000/svg"><path d="M8.11035 9.60303C8.09817 9.59669 8.0856 9.58814 8.07031 9.57959C8.07462 9.57956 8.07887 9.57952 8.08301 9.57959C8.10391 9.59111 8.12401 9.60388 8.14258 9.61768C8.13974 9.61638 8.13737 9.61543 8.13574 9.61475L8.12793 9.61182C8.12457 9.6102 8.11871 9.60737 8.11035 9.60303ZM8.11035 9.60303L8.1084 9.60498M8.1084 9.60498C8.1073 9.60461 8.10566 9.60439 8.10449 9.604L8.10742 9.60498H8.1084L8.11035 9.60303M7.98926 9.58545L7.94629 9.59033C7.937 9.59238 7.92893 9.59359 7.92285 9.59521L7.94043 9.59131C7.94437 9.59043 7.95525 9.58867 7.96191 9.5874C7.96677 9.58661 7.97663 9.58658 7.98926 9.58545ZM7.98926 9.58545C7.99612 9.58515 8.0029 9.58518 8.00977 9.58545M7.98926 9.58545C7.99266 9.58515 7.99623 9.58477 8 9.58447C8.00341 9.58474 8.00666 9.58517 8.00977 9.58545M8.00977 9.58545C8.02286 9.58661 8.03311 9.58659 8.03809 9.5874C8.04475 9.58867 8.05563 9.59043 8.05957 9.59131C8.0621 9.59189 8.06663 9.59284 8.06836 9.59326C8.07173 9.5941 8.07514 9.59494 8.07617 9.59521L8.05371 9.59033L8.00977 9.58545ZM7.51758 3.96924C7.83529 3.89952 8.16471 3.89952 8.48242 3.96924C8.88774 4.05831 9.2367 4.28488 9.46582 4.42236L13.6426 6.92822C14.0192 7.1542 14.25 7.56156 14.25 8.00049C14.2498 8.43985 14.0184 8.84621 13.6426 9.07178L9.46582 11.5786C9.23669 11.7161 8.88755 11.9427 8.48242 12.0317C8.16477 12.1014 7.83523 12.1014 7.51758 12.0317C7.11245 11.9427 6.76331 11.7161 6.53418 11.5786L2.35742 9.07178C1.98158 8.84621 1.75018 8.43985 1.75 8.00049C1.75 7.56156 1.98079 7.1542 2.35742 6.92822L6.53418 4.42236C6.7633 4.28488 7.11226 4.05831 7.51758 3.96924ZM7.74512 9.73096C7.70383 9.78625 7.67216 9.84815 7.64941 9.9126C7.66905 9.92433 7.68783 9.93459 7.70508 9.94482C7.70657 9.86193 7.72203 9.78758 7.74512 9.73096ZM8.28223 9.81982C8.28964 9.85815 8.29314 9.90035 8.29395 9.94482C8.3112 9.93459 8.32997 9.92434 8.34961 9.9126C8.32688 9.84826 8.29611 9.78617 8.25488 9.73096L8.28223 9.81982ZM7.85645 9.61768L7.87207 9.61182C7.87543 9.6102 7.88129 9.60737 7.88965 9.60303C7.90163 9.5968 7.91374 9.58796 7.92871 9.57959C7.92474 9.57957 7.92082 9.57953 7.91699 9.57959C7.89586 9.59124 7.8752 9.6037 7.85645 9.61768ZM7.81934 6.56592L5.42773 7.99951L7.81934 9.43408C7.89648 9.48037 7.95537 9.51237 8 9.53857C8.04463 9.51237 8.10352 9.48037 8.18066 9.43408L10.5703 7.99951L8.18066 6.56592C8.10397 6.5199 8.04514 6.48671 8 6.46045C7.95486 6.48671 7.89603 6.5199 7.81934 6.56592Z" stroke="#E6E6E6"/><path d="M8.82319 10.5061L13 8.00003L8.8232 5.49392C8.5239 5.31434 8.37425 5.22455 8.21449 5.18947C8.07318 5.15844 7.92682 5.15844 7.78551 5.18947C7.62575 5.22455 7.4761 5.31434 7.1768 5.49392L3 8.00003L7.17681 10.5061C7.47611 10.6857 7.62576 10.7755 7.78551 10.8105C7.92682 10.8416 8.07318 10.8416 8.21449 10.8105C8.37424 10.7755 8.52389 10.6857 8.82319 10.5061Z" fill="#DEF8FF" stroke="#1F3AB5" stroke-width="1.5" stroke-linecap="round" stroke-linejoin="round"/></svg>