<svg width="16" height="16" viewBox="0 0 16 16" fill="none" xmlns="http://www.w3.org/2000/svg"><ellipse cx="10.5" cy="7" rx="2" ry="1" fill="#DEF8FF" stroke="#1F3AB5" stroke-width="1.5" stroke-linecap="round" stroke-linejoin="round"/><ellipse cx="6" cy="12" rx="3" ry="1.5" fill="#DEF8FF" stroke="#1F3AB5" stroke-width="1.5" stroke-linecap="round" stroke-linejoin="round"/><ellipse cx="4.5" cy="4.5" rx="1.5" ry="0.5" fill="#DEF8FF" stroke="#1F3AB5" stroke-width="1.5" stroke-linecap="round" stroke-linejoin="round"/><path d="M12.5 7C12.5 7.55228 11.6046 8 10.5 8C9.39543 8 8.5 7.55228 8.5 7C8.5 6.44772 9.39543 6 10.5 6C11.6046 6 12.5 6.44772 12.5 7Z" fill="#DEF8FF"/><path d="M9 12C9 12.8284 7.65685 13.5 6 13.5C4.34315 13.5 3 12.8284 3 12C3 11.1716 4.34315 10.5 6 10.5C7.65685 10.5 9 11.1716 9 12Z" fill="#DEF8FF"/><path d="M6 4.5C6 4.77614 5.32843 5 4.5 5C3.67157 5 3 4.77614 3 4.5C3 4.22386 3.67157 4 4.5 4C5.32843 4 6 4.22386 6 4.5Z" fill="#DEF8FF"/><path d="M6 9.25C6.98036 9.25 7.93009 9.446 8.68066 9.82129L8.94141 9.96484C9.56315 10.3391 10.25 10.9982 10.25 12C10.25 13.0018 9.56315 13.6609 8.94141 14.0352L8.68066 14.1787C7.93009 14.554 6.98036 14.75 6 14.75C5.14197 14.75 4.30749 14.5996 3.60938 14.3105L3.31934 14.1787C2.64749 13.8427 1.75 13.1452 1.75 12C1.75 10.8548 2.64749 10.1573 3.31934 9.82129L3.60938 9.68945C4.30749 9.40037 5.14197 9.25 6 9.25ZM6 11.75C5.40311 11.75 4.904 11.8591 4.56445 12C4.904 12.1409 5.40311 12.25 6 12.25C6.59641 12.25 7.09504 12.1407 7.43457 12C7.09504 11.8593 6.59641 11.75 6 11.75ZM10.5 4.75C11.2042 4.75 11.904 4.88998 12.4736 5.1748L12.6689 5.28223C13.1477 5.56969 13.75 6.11811 13.75 7C13.75 7.88189 13.1477 8.43031 12.6689 8.71777L12.4736 8.8252C11.904 9.11002 11.2042 9.25 10.5 9.25C9.88388 9.25 9.27127 9.1424 8.74609 8.9248L8.52637 8.8252C8.03642 8.58014 7.25 8.00772 7.25 7C7.25 5.99228 8.03642 5.41986 8.52637 5.1748L8.74609 5.0752C9.27127 4.8576 9.88388 4.75 10.5 4.75ZM4.5 2.75C5.01084 2.75 5.52576 2.81655 5.95605 2.95996C6.16584 3.02989 6.42449 3.14157 6.65625 3.32422L6.74414 3.39844C6.96082 3.59502 7.25 3.95944 7.25 4.5C7.25 5.04056 6.96082 5.40498 6.74414 5.60156L6.65625 5.67578C6.42449 5.85843 6.16584 5.97011 5.95605 6.04004C5.52576 6.18345 5.01084 6.25 4.5 6.25C3.98916 6.25 3.47424 6.18345 3.04395 6.04004C2.88657 5.98758 2.70187 5.91147 2.52148 5.7998L2.34375 5.67578C2.12831 5.50583 1.75 5.11812 1.75 4.5C1.75 3.88188 2.12831 3.49417 2.34375 3.32422L2.52148 3.2002C2.70187 3.08853 2.88657 3.01242 3.04395 2.95996C3.47424 2.81655 3.98916 2.75 4.5 2.75Z" stroke="#E6E6E6"/><ellipse cx="10.5" cy="7" rx="2" ry="1" fill="#1F3AB5" stroke="#1F3AB5" stroke-width="1.5" stroke-linecap="round" stroke-linejoin="round"/><ellipse cx="6" cy="12" rx="3" ry="1.5" fill="#1F3AB5" stroke="#1F3AB5" stroke-width="1.5" stroke-linecap="round" stroke-linejoin="round"/><ellipse cx="4.5" cy="4.5" rx="1.5" ry="0.5" fill="#DEF8FF" stroke="#1F3AB5" stroke-width="1.5" stroke-linecap="round" stroke-linejoin="round"/></svg>