<svg width="16" height="16" viewBox="0 0 16 16" fill="none" xmlns="http://www.w3.org/2000/svg">
<path fill-rule="evenodd" clip-rule="evenodd" d="M8 3C6.78436 3 5.71348 2.38025 5.08606 1.43948C4.96217 1.2537 4.90022 1.16082 4.84286 1.11369C4.78455 1.06577 4.74292 1.0435 4.6707 1.02157C4.59967 1 4.51017 1 4.33117 1H3.8C3.51997 1 3.37996 1 3.273 1.0545C3.17892 1.10243 3.10243 1.17892 3.0545 1.273C3 1.37996 3 1.51997 3 1.8V14.2C3 14.48 3 14.62 3.0545 14.727C3.10243 14.8211 3.17892 14.8976 3.273 14.9455C3.37996 15 3.51997 15 3.8 15H4.33117C4.51017 15 4.59967 15 4.6707 14.9784C4.74292 14.9565 4.78455 14.9342 4.84286 14.8863C4.90022 14.8392 4.96217 14.7463 5.08606 14.5605C5.71348 13.6197 6.78436 13 8 13C9.21564 13 10.2865 13.6197 10.9139 14.5605C11.0378 14.7463 11.0998 14.8392 11.1571 14.8863C11.2154 14.9342 11.2571 14.9565 11.3293 14.9784C11.4003 15 11.4898 15 11.6688 15H12.2C12.48 15 12.62 15 12.727 14.9455C12.8211 14.8976 12.8976 14.8211 12.9455 14.727C13 14.62 13 14.48 13 14.2V1.8C13 1.51997 13 1.37996 12.9455 1.273C12.8976 1.17892 12.8211 1.10243 12.727 1.0545C12.62 1 12.48 1 12.2 1H11.6688C11.4898 1 11.4003 1 11.3293 1.02157C11.2571 1.0435 11.2154 1.06577 11.1571 1.11369C11.0998 1.16082 11.0378 1.2537 10.9139 1.43948C10.2865 2.38025 9.21564 3 8 3ZM8 12C9.10457 12 10 11.1046 10 10C10 8.89543 9.10457 8 8 8C6.89543 8 6 8.89543 6 10C6 11.1046 6.89543 12 8 12Z" fill="black"/>
</svg>
