<svg width="16" height="16" viewBox="0 0 16 16" fill="none" xmlns="http://www.w3.org/2000/svg">
<path fill-rule="evenodd" clip-rule="evenodd" d="M7.41421 4H13C13.5523 4 14 4.44772 14 5V13C14 13.5523 13.5523 14 13 14H12.4942C12.2761 14 12.1671 14 12.0843 13.9699C12.0012 13.9397 11.9524 13.9076 11.8917 13.8433C11.8312 13.7793 11.7785 13.6575 11.6732 13.4138C11.0591 11.9937 9.6456 11 8 11C6.35441 11 4.94091 11.9937 4.32684 13.4138C4.22147 13.6575 4.16879 13.7793 4.1083 13.8433C4.04756 13.9076 3.99882 13.9397 3.91571 13.9699C3.83292 14 3.7239 14 3.50585 14H3C2.44772 14 2 13.5523 2 13V4C2 3.44771 2.44772 3 3 3H5.58579C5.851 3 6.10536 3.10536 6.29289 3.29289L6.70711 3.70711C6.89464 3.89464 7.149 4 7.41421 4ZM10 8C10 9.10457 9.10457 10 8 10C6.89543 10 6 9.10457 6 8C6 6.89543 6.89543 6 8 6C9.10457 6 10 6.89543 10 8Z" fill="black"/>
</svg>
