<svg width="16" height="16" viewBox="0 0 16 16" fill="none" xmlns="http://www.w3.org/2000/svg">
<path d="M7 6C7 7.10457 6.10457 8 5 8C3.89543 8 3 7.10457 3 6C3 4.89543 3.89543 4 5 4C6.10457 4 7 4.89543 7 6Z" fill="black"/>
<path d="M13 6C13 7.10457 12.1046 8 11 8C9.89543 8 9 7.10457 9 6C9 4.89543 9.89543 4 11 4C12.1046 4 13 4.89543 13 6Z" fill="black"/>
<path d="M7.4 13C7.89343 13 8.14014 13 8.39302 12.8302C8.56834 12.7124 8.77727 12.3971 8.81735 12.1898C8.87516 11.8907 8.81185 11.7411 8.68524 11.442C8.07776 10.0069 6.65647 9 5 9C3.34353 9 1.92224 10.0069 1.31476 11.442C1.18815 11.7411 1.12484 11.8907 1.18265 12.1898C1.22273 12.3971 1.43166 12.7124 1.60698 12.8302C1.85986 13 2.10657 13 2.6 13H7.4Z" fill="black"/>
<path d="M9.93444 12.2033C9.98589 12.5246 10.0116 12.6852 10.0707 12.775C10.1288 12.8632 10.1865 12.9124 10.2828 12.9558C10.3808 13 10.5197 13 10.7976 13H13.4C13.8934 13 14.1401 13 14.393 12.8302C14.5683 12.7124 14.7773 12.3971 14.8173 12.1898C14.8752 11.8907 14.8118 11.7411 14.6852 11.442C14.0778 10.0069 12.6565 9 11 9C10.4878 9 9.99807 9.09627 9.54794 9.27171C9.31614 9.36206 9.20024 9.40723 9.11654 9.51144C9.04509 9.60039 9.00419 9.72041 9.00645 9.83448C9.00911 9.96812 9.10051 10.1198 9.28331 10.4232C9.6063 10.9592 9.83157 11.5608 9.93444 12.2033Z" fill="black"/>
</svg>
