<svg width="16" height="16" viewBox="0 0 16 16" fill="none" xmlns="http://www.w3.org/2000/svg">
<path fill-rule="evenodd" clip-rule="evenodd" d="M5 1.8C5 1.51997 5 1.37996 5.0545 1.273C5.10243 1.17892 5.17892 1.10243 5.273 1.0545C5.37996 1 5.51997 1 5.8 1H10.2C10.48 1 10.62 1 10.727 1.0545C10.8211 1.10243 10.8976 1.17892 10.9455 1.273C11 1.37996 11 1.51997 11 1.8V4.2C11 4.48003 11 4.62004 10.9455 4.727C10.8976 4.82108 10.8211 4.89757 10.727 4.9455C10.62 5 10.48 5 10.2 5H8.75V7.53571H11.2L11.2202 7.53571H11.2202C11.3424 7.53568 11.4748 7.53565 11.5895 7.54502C11.7192 7.55562 11.8907 7.58186 12.0675 7.67196C12.3027 7.7918 12.4939 7.98302 12.6138 8.21823C12.7039 8.39505 12.7301 8.56648 12.7407 8.69624C12.7501 8.81087 12.75 8.94329 12.75 9.06544V9.06545V9.06547V9.06549L12.75 9.08571V11H14.2C14.48 11 14.62 11 14.727 11.0545C14.8211 11.1024 14.8976 11.1789 14.9455 11.273C15 11.38 15 11.52 15 11.8V14.2C15 14.48 15 14.62 14.9455 14.727C14.8976 14.8211 14.8211 14.8976 14.727 14.9455C14.62 15 14.48 15 14.2 15H9.8C9.51997 15 9.37996 15 9.273 14.9455C9.17892 14.8976 9.10243 14.8211 9.0545 14.727C9 14.62 9 14.48 9 14.2V11.8C9 11.52 9 11.38 9.0545 11.273C9.10243 11.1789 9.17892 11.1024 9.273 11.0545C9.37996 11 9.51997 11 9.8 11H11.25V9.08571L11.25 9.03573L11.2 9.03571H8H4.8L4.75001 9.03573L4.75 9.08571V11H6.2C6.48003 11 6.62004 11 6.727 11.0545C6.82108 11.1024 6.89757 11.1789 6.9455 11.273C7 11.38 7 11.52 7 11.8V14.2C7 14.48 7 14.62 6.9455 14.727C6.89757 14.8211 6.82108 14.8976 6.727 14.9455C6.62004 15 6.48003 15 6.2 15H1.8C1.51997 15 1.37996 15 1.273 14.9455C1.17892 14.8976 1.10243 14.8211 1.0545 14.727C1 14.62 1 14.48 1 14.2V11.8C1 11.52 1 11.38 1.0545 11.273C1.10243 11.1789 1.17892 11.1024 1.273 11.0545C1.37996 11 1.51997 11 1.8 11H3.25V9.08571L3.25 9.0655C3.24997 8.94334 3.24994 8.81089 3.2593 8.69624C3.2699 8.56648 3.29614 8.39505 3.38624 8.21823C3.50608 7.98302 3.69731 7.7918 3.93251 7.67196C4.10934 7.58186 4.28077 7.55562 4.41053 7.54502C4.52517 7.53565 4.65761 7.53568 4.77977 7.53571H4.77979L4.8 7.53571H7.25V5H5.8C5.51997 5 5.37996 5 5.273 4.9455C5.17892 4.89757 5.10243 4.82108 5.0545 4.727C5 4.62004 5 4.48003 5 4.2V1.8Z" fill="black"/>
</svg>
