<svg width="16" height="16" viewBox="0 0 16 16" fill="none" xmlns="http://www.w3.org/2000/svg">
<path d="M11.9996 12C13.3827 12 14.5481 12.9359 14.8951 14.209C14.9489 14.4061 14.9749 14.505 14.9352 14.6406C14.9054 14.7419 14.8073 14.8705 14.7174 14.9258C14.597 14.9998 14.4645 15 14.1998 15H9.80042C9.53579 15 9.40324 14.9997 9.28284 14.9258C9.19288 14.8705 9.09377 14.742 9.06409 14.6406C9.02437 14.505 9.05137 14.4061 9.1051 14.209C9.45212 12.936 10.6167 12.0002 11.9996 12ZM3.99963 9.25C4.41385 9.25 4.74963 9.58579 4.74963 10V11.4004C4.74963 11.6925 4.74983 11.867 4.76038 11.9961C4.77021 12.1162 4.78532 12.1297 4.77698 12.1133C4.80089 12.1602 4.83946 12.1987 4.88635 12.2227C4.87051 12.2147 4.88468 12.2295 5.00354 12.2393C5.13255 12.2498 5.30733 12.25 5.59924 12.25H6.99963C7.41385 12.25 7.74963 12.5858 7.74963 13C7.74963 13.4142 7.41385 13.75 6.99963 13.75H5.59924C5.33191 13.75 5.08564 13.7501 4.88147 13.7334C4.66854 13.716 4.43475 13.6768 4.20471 13.5596C3.87576 13.3918 3.60775 13.1239 3.44006 12.7949C3.32284 12.5648 3.28366 12.3312 3.26624 12.1182C3.24955 11.9139 3.24963 11.6679 3.24963 11.4004V10C3.24963 9.58593 3.58561 9.25023 3.99963 9.25ZM11.9996 8C12.8281 8 13.4996 8.67157 13.4996 9.5C13.4996 10.3284 12.8281 11 11.9996 11C11.1714 10.9998 10.4996 10.3283 10.4996 9.5C10.4996 8.67171 11.1714 8.00023 11.9996 8ZM3.99963 5C5.38274 5 6.5481 5.93586 6.89514 7.20898C6.94888 7.40614 6.97492 7.50496 6.93518 7.64062C6.90544 7.74193 6.80732 7.87052 6.71741 7.92578C6.59697 7.99979 6.46453 8 6.19983 8H1.80042C1.53579 8 1.40324 7.99973 1.28284 7.92578C1.19288 7.87049 1.09377 7.74196 1.06409 7.64062C1.02437 7.50499 1.05137 7.40611 1.1051 7.20898C1.45212 5.93601 2.61672 5.00019 3.99963 5ZM10.4 1.75C10.6673 1.75 10.9136 1.74995 11.1178 1.7666C11.3307 1.78402 11.5645 1.82327 11.7946 1.94043C12.1236 2.10815 12.3915 2.37605 12.5592 2.70508C12.6765 2.93525 12.7156 3.1688 12.733 3.38184C12.7497 3.58611 12.7496 3.83211 12.7496 4.09961V5.5C12.7496 5.91421 12.4138 6.25 11.9996 6.25C11.5856 6.24977 11.2496 5.91407 11.2496 5.5V4.09961C11.2496 3.80744 11.2494 3.63298 11.2389 3.50391C11.2331 3.43272 11.2258 3.39896 11.2223 3.38672C11.1983 3.33976 11.1599 3.30128 11.1129 3.27734C11.1003 3.27373 11.066 3.2665 10.9957 3.26074C10.8667 3.25023 10.6919 3.25 10.4 3.25H8.99963C8.58561 3.24977 8.24963 2.91407 8.24963 2.5C8.24963 2.08593 8.58561 1.75023 8.99963 1.75H10.4ZM3.99963 1C4.82806 1 5.49963 1.67157 5.49963 2.5C5.49963 3.32843 4.82806 4 3.99963 4C3.1714 3.99977 2.49963 3.32829 2.49963 2.5C2.49963 1.67171 3.1714 1.00023 3.99963 1Z" fill="black"/>
</svg>
