<svg width="16" height="16" viewBox="0 0 16 16" fill="none" xmlns="http://www.w3.org/2000/svg">
<path fill-rule="evenodd" clip-rule="evenodd" d="M8 8C9.38071 8 10.5 6.88071 10.5 5.5C10.5 4.11929 9.38071 3 8 3C6.61929 3 5.5 4.11929 5.5 5.5C5.5 6.88071 6.61929 8 8 8ZM12.4212 13.8434C12.1754 14 11.9169 14 11.4 14H4.6C4.08309 14 3.82463 14 3.57881 13.8434C3.4007 13.7299 3.19822 13.4496 3.14652 13.2448C3.07516 12.9622 3.1343 12.7837 3.25257 12.4267C3.91192 10.4361 5.78825 9 8 9C10.2117 9 12.0881 10.4361 12.7474 12.4267C12.8657 12.7837 12.9248 12.9622 12.8535 13.2448C12.8018 13.4496 12.5993 13.7299 12.4212 13.8434Z" fill="black"/>
</svg>
