<svg width="16" height="16" viewBox="0 0 16 16" fill="none" xmlns="http://www.w3.org/2000/svg"><g clip-path="url(#clip0_1_2651)"><rect width="16" height="16" fill="white"/><rect width="16" height="16" fill="#333333"/><rect x="12" y="12" width="2" height="2" fill="#0A7DFF"/><rect x="2" y="2" width="2" height="2" fill="white"/><rect x="2" y="6" width="2" height="2" fill="white"/><rect x="8" y="12" width="2" height="2" fill="#0A7DFF"/><rect x="2" y="10" width="2" height="2" fill="white"/><rect x="4" y="12" width="2" height="2" fill="#0A7DFF"/><rect x="4" y="4" width="2" height="2" fill="white"/><rect x="10" y="10" width="2" height="2" fill="#0A7DFF"/><rect x="4" y="8" width="2" height="2" fill="white"/><rect x="6" y="10" width="2" height="2" fill="#0A7DFF"/><rect x="6" y="2" width="2" height="2" fill="white"/><rect x="12" y="8" width="2" height="2" fill="#0A7DFF"/><rect x="6" y="6" width="2" height="2" fill="white"/><rect x="8" y="8" width="2" height="2" fill="#0A7DFF"/><rect x="8" y="4" width="2" height="2" fill="white"/><rect x="10" y="6" width="2" height="2" fill="#0A7DFF"/><rect x="10" y="2" width="2" height="2" fill="white"/><rect x="12" y="4" width="2" height="2" fill="#0A7DFF"/></g><defs><clipPath id="clip0_1_2651"><rect width="16" height="16" fill="white"/></clipPath></defs></svg>