<svg width="16" height="16" viewBox="0 0 16 16" fill="none" xmlns="http://www.w3.org/2000/svg"><g clip-path="url(#clip0_1726_1440)"><mask id="path-1-outside-1_1726_1440" maskUnits="userSpaceOnUse" x="0.75" y="0.75" width="13" height="13" fill="black"><rect fill="white" x="0.75" y="0.75" width="13" height="13"/><path d="M10 1.75C11.2426 1.75 12.25 2.75736 12.25 4C12.25 5.24264 11.2426 6.25 10 6.25H8.81055L6.25 8.81055V10C6.25 11.2426 5.24264 12.25 4 12.25C2.75736 12.25 1.75 11.2426 1.75 10C1.75 8.75736 2.75736 7.75 4 7.75H5.18945L7.75 5.18945V4C7.75 2.75736 8.75736 1.75 10 1.75ZM4 9.25C3.58579 9.25 3.25 9.58579 3.25 10C3.25 10.4142 3.58579 10.75 4 10.75C4.41421 10.75 4.75 10.4142 4.75 10V9.25H4ZM10 3.25C9.58579 3.25 9.25 3.58579 9.25 4V4.75H10C10.4142 4.75 10.75 4.41421 10.75 4C10.75 3.58579 10.4142 3.25 10 3.25Z"/></mask><path d="M10 1.75C11.2426 1.75 12.25 2.75736 12.25 4C12.25 5.24264 11.2426 6.25 10 6.25H8.81055L6.25 8.81055V10C6.25 11.2426 5.24264 12.25 4 12.25C2.75736 12.25 1.75 11.2426 1.75 10C1.75 8.75736 2.75736 7.75 4 7.75H5.18945L7.75 5.18945V4C7.75 2.75736 8.75736 1.75 10 1.75ZM4 9.25C3.58579 9.25 3.25 9.58579 3.25 10C3.25 10.4142 3.58579 10.75 4 10.75C4.41421 10.75 4.75 10.4142 4.75 10V9.25H4ZM10 3.25C9.58579 3.25 9.25 3.58579 9.25 4V4.75H10C10.4142 4.75 10.75 4.41421 10.75 4C10.75 3.58579 10.4142 3.25 10 3.25Z" fill="#E6E6E6"/><path d="M8.81055 6.25V5.25H8.39633L8.10344 5.54289L8.81055 6.25ZM6.25 8.81055L5.54289 8.10344L5.25 8.39633V8.81055H6.25ZM5.18945 7.75V8.75H5.60367L5.89656 8.45711L5.18945 7.75ZM7.75 5.18945L8.45711 5.89656L8.75 5.60367V5.18945H7.75ZM4.75 9.25H5.75V8.25H4.75V9.25ZM9.25 4.75H8.25V5.75H9.25V4.75ZM10 1.75V2.75C10.6904 2.75 11.25 3.30964 11.25 4H12.25H13.25C13.25 2.20507 11.7949 0.75 10 0.75V1.75ZM12.25 4H11.25C11.25 4.69036 10.6904 5.25 10 5.25V6.25V7.25C11.7949 7.25 13.25 5.79493 13.25 4H12.25ZM10 6.25V5.25H8.81055V6.25V7.25H10V6.25ZM8.81055 6.25L8.10344 5.54289L5.54289 8.10344L6.25 8.81055L6.95711 9.51765L9.51765 6.95711L8.81055 6.25ZM6.25 8.81055H5.25V10H6.25H7.25V8.81055H6.25ZM6.25 10H5.25C5.25 10.6904 4.69036 11.25 4 11.25V12.25V13.25C5.79493 13.25 7.25 11.7949 7.25 10H6.25ZM4 12.25V11.25C3.30964 11.25 2.75 10.6904 2.75 10H1.75H0.75C0.75 11.7949 2.20507 13.25 4 13.25V12.25ZM1.75 10H2.75C2.75 9.30964 3.30964 8.75 4 8.75V7.75V6.75C2.20507 6.75 0.75 8.20507 0.75 10H1.75ZM4 7.75V8.75H5.18945V7.75V6.75H4V7.75ZM5.18945 7.75L5.89656 8.45711L8.45711 5.89656L7.75 5.18945L7.04289 4.48235L4.48235 7.04289L5.18945 7.75ZM7.75 5.18945H8.75V4H7.75H6.75V5.18945H7.75ZM7.75 4H8.75C8.75 3.30964 9.30964 2.75 10 2.75V1.75V0.75C8.20507 0.75 6.75 2.20507 6.75 4H7.75ZM4 9.25V8.25C3.0335 8.25 2.25 9.0335 2.25 10H3.25H4.25C4.25 10.1381 4.13807 10.25 4 10.25V9.25ZM3.25 10H2.25C2.25 10.9665 3.0335 11.75 4 11.75V10.75V9.75C4.13807 9.75 4.25 9.86193 4.25 10H3.25ZM4 10.75V11.75C4.9665 11.75 5.75 10.9665 5.75 10H4.75H3.75C3.75 9.86193 3.86193 9.75 4 9.75V10.75ZM4.75 10H5.75V9.25H4.75H3.75V10H4.75ZM4.75 9.25V8.25H4V9.25V10.25H4.75V9.25ZM10 3.25V2.25C9.0335 2.25 8.25 3.0335 8.25 4H9.25H10.25C10.25 4.13807 10.1381 4.25 10 4.25V3.25ZM9.25 4H8.25V4.75H9.25H10.25V4H9.25ZM9.25 4.75V5.75H10V4.75V3.75H9.25V4.75ZM10 4.75V5.75C10.9665 5.75 11.75 4.9665 11.75 4H10.75H9.75C9.75 3.86193 9.86193 3.75 10 3.75V4.75ZM10.75 4H11.75C11.75 3.0335 10.9665 2.25 10 2.25V3.25V4.25C9.86193 4.25 9.75 4.13807 9.75 4H10.75Z" fill="#E6E6E6" mask="url(#path-1-outside-1_1726_1440)"/><path d="M9.4697 3.4699C9.76259 3.17702 10.2374 3.17704 10.5303 3.4699C10.823 3.7628 10.8231 4.23759 10.5303 4.53044L4.53025 10.5304C4.2374 10.8232 3.76259 10.8232 3.4697 10.5304C3.17683 10.2376 3.17686 9.76279 3.4697 9.4699L9.4697 3.4699Z" fill="#3B6DE6"/><path d="M2.5 10C2.5 9.17157 3.17157 8.5 4 8.5C4.82843 8.5 5.5 9.17157 5.5 10C5.5 10.8284 4.82843 11.5 4 11.5C3.17157 11.5 2.5 10.8284 2.5 10Z" fill="#FDFDFD"/><path d="M8.5 4C8.5 3.17157 9.17157 2.5 10 2.5C10.8284 2.5 11.5 3.17157 11.5 4C11.5 4.82843 10.8284 5.5 10 5.5C9.17157 5.5 8.5 4.82843 8.5 4Z" fill="#FDFDFD"/><path d="M2.5 10C2.5 9.17157 3.17157 8.5 4 8.5C4.82843 8.5 5.5 9.17157 5.5 10C5.5 10.8284 4.82843 11.5 4 11.5C3.17157 11.5 2.5 10.8284 2.5 10Z" stroke="#333333" stroke-width="1.5" stroke-linecap="round" stroke-linejoin="round"/><path d="M8.5 4C8.5 3.17157 9.17157 2.5 10 2.5C10.8284 2.5 11.5 3.17157 11.5 4C11.5 4.82843 10.8284 5.5 10 5.5C9.17157 5.5 8.5 4.82843 8.5 4Z" stroke="#333333" stroke-width="1.5" stroke-linecap="round" stroke-linejoin="round"/><mask id="path-5-outside-2_1726_1440" maskUnits="userSpaceOnUse" x="7.24994" y="6.5" width="8" height="9" fill="black"><rect fill="white" x="7.24994" y="6.5" width="8" height="9"/><path d="M11.25 14.5C10.8358 14.4999 10.5 14.1642 10.5 13.75L10.5 10.8105L9.53027 11.7803C9.23739 12.0731 8.76261 12.0731 8.46973 11.7803C8.17694 11.4874 8.17689 11.0126 8.46973 10.7197L10.7197 8.46973C10.8603 8.3291 11.0511 8.25003 11.25 8.25C11.4489 8.25 11.6396 8.32913 11.7803 8.46973L14.0303 10.7197C14.3232 11.0126 14.3232 11.4874 14.0303 11.7803C13.7374 12.0731 13.2626 12.0732 12.9697 11.7803L12 10.8105L12 13.75C12 14.1642 11.6642 14.5 11.25 14.5Z"/></mask><path d="M11.25 14.5C10.8358 14.4999 10.5 14.1642 10.5 13.75L10.5 10.8105L9.53027 11.7803C9.23739 12.0731 8.76261 12.0731 8.46973 11.7803C8.17694 11.4874 8.17689 11.0126 8.46973 10.7197L10.7197 8.46973C10.8603 8.3291 11.0511 8.25003 11.25 8.25C11.4489 8.25 11.6396 8.32913 11.7803 8.46973L14.0303 10.7197C14.3232 11.0126 14.3232 11.4874 14.0303 11.7803C13.7374 12.0731 13.2626 12.0732 12.9697 11.7803L12 10.8105L12 13.75C12 14.1642 11.6642 14.5 11.25 14.5Z" fill="#333333"/><path d="M11.25 14.5L11.2498 15.5L11.25 15.5L11.25 14.5ZM10.5 10.8105L11.5 10.8105L11.5 8.39633L9.79289 10.1034L10.5 10.8105ZM9.53027 11.7803L10.2373 12.4874L10.2374 12.4874L9.53027 11.7803ZM8.46973 11.7803L7.7625 12.4873L7.76266 12.4874L8.46973 11.7803ZM8.46973 10.7197L7.76262 10.0126L7.76258 10.0127L8.46973 10.7197ZM10.7197 8.46973L10.0126 7.76262L10.0126 7.76262L10.7197 8.46973ZM11.25 8.25L11.25 7.25L11.2498 7.25L11.25 8.25ZM11.7803 8.46973L12.4874 7.76262L12.4873 7.76251L11.7803 8.46973ZM14.0303 10.7197L14.7374 10.0126L14.7374 10.0126L14.0303 10.7197ZM14.0303 11.7803L14.7373 12.4874L14.7374 12.4874L14.0303 11.7803ZM12.9697 11.7803L13.6768 11.0732L13.6768 11.0732L12.9697 11.7803ZM12 10.8105L12.7071 10.1034L11 8.39633L11 10.8105L12 10.8105ZM11.25 14.5L11.2502 13.5C11.388 13.5 11.5 13.6117 11.5 13.75L10.5 13.75L9.5 13.75C9.5 14.7166 10.2837 15.4998 11.2498 15.5L11.25 14.5ZM10.5 13.75L11.5 13.75L11.5 10.8105L10.5 10.8105L9.5 10.8105L9.5 13.75L10.5 13.75ZM10.5 10.8105L9.79289 10.1034L8.82317 11.0732L9.53027 11.7803L10.2374 12.4874L11.2071 11.5177L10.5 10.8105ZM9.53027 11.7803L8.82321 11.0731C8.92084 10.9755 9.07916 10.9755 9.17679 11.0731L8.46973 11.7803L7.76266 12.4874C8.44606 13.1707 9.55394 13.1707 10.2373 12.4874L9.53027 11.7803ZM8.46973 11.7803L9.17695 11.0733C9.27445 11.1708 9.27459 11.3291 9.17687 11.4268L8.46973 10.7197L7.76258 10.0127C7.0792 10.6961 7.07942 11.804 7.7625 12.4873L8.46973 11.7803ZM8.46973 10.7197L9.17683 11.4268L11.4268 9.17683L10.7197 8.46973L10.0126 7.76262L7.76262 10.0126L8.46973 10.7197ZM10.7197 8.46973L11.4268 9.17683C11.38 9.22364 11.3166 9.24999 11.2502 9.25L11.25 8.25L11.2498 7.25C10.7857 7.25008 10.3407 7.43457 10.0126 7.76262L10.7197 8.46973ZM11.25 8.25L11.25 9.25C11.1833 9.25 11.1199 9.2235 11.0733 9.17695L11.7803 8.46973L12.4873 7.76251C12.1594 7.43475 11.7145 7.25 11.25 7.25L11.25 8.25ZM11.7803 8.46973L11.0732 9.17683L13.3232 11.4268L14.0303 10.7197L14.7374 10.0126L12.4874 7.76262L11.7803 8.46973ZM14.0303 10.7197L13.3232 11.4268C13.2255 11.3292 13.2255 11.1708 13.3232 11.0732L14.0303 11.7803L14.7374 12.4874C15.4208 11.804 15.4208 10.696 14.7374 10.0126L14.0303 10.7197ZM14.0303 11.7803L13.3232 11.0731C13.4208 10.9756 13.5791 10.9755 13.6768 11.0732L12.9697 11.7803L12.2626 12.4874C12.9461 13.1709 14.054 13.1707 14.7373 12.4874L14.0303 11.7803ZM12.9697 11.7803L13.6768 11.0732L12.7071 10.1034L12 10.8105L11.2929 11.5177L12.2626 12.4874L12.9697 11.7803ZM12 10.8105L11 10.8105L11 13.75L12 13.75L13 13.75L13 10.8105L12 10.8105ZM12 13.75L11 13.75C11 13.6119 11.1119 13.5 11.25 13.5L11.25 14.5L11.25 15.5C12.2165 15.5 13 14.7165 13 13.75L12 13.75Z" fill="#E6E6E6" mask="url(#path-5-outside-2_1726_1440)"/></g><defs><clipPath id="clip0_1726_1440"><rect width="16" height="16" fill="white"/></clipPath></defs></svg>