<svg width="16" height="16" viewBox="0 0 16 16" fill="none" xmlns="http://www.w3.org/2000/svg">
<path d="M12.5 0.75C12.9142 0.75 13.25 1.08579 13.25 1.5V13.25H14C14.4142 13.25 14.75 13.5858 14.75 14C14.75 14.4142 14.4142 14.75 14 14.75H2C1.58579 14.75 1.25 14.4142 1.25 14C1.25 13.5858 1.58579 13.25 2 13.25H2.75V1.5C2.75 1.08579 3.08579 0.75 3.5 0.75H12.5ZM4.25 13.25H7.25V12C7.25 11.5858 7.58579 11.25 8 11.25C8.41421 11.25 8.75 11.5858 8.75 12V13.25H11.75V2.25H4.25V13.25ZM6.5 8.25C6.91421 8.25 7.25 8.58579 7.25 9C7.25 9.41421 6.91421 9.75 6.5 9.75H6C5.58579 9.75 5.25 9.41421 5.25 9C5.25 8.58579 5.58579 8.25 6 8.25H6.5ZM10 8.25C10.4142 8.25 10.75 8.58579 10.75 9C10.75 9.41421 10.4142 9.75 10 9.75H9.5C9.08579 9.75 8.75 9.41421 8.75 9C8.75 8.58579 9.08579 8.25 9.5 8.25H10ZM6.5 5.75C6.91421 5.75 7.25 6.08579 7.25 6.5C7.25 6.91421 6.91421 7.25 6.5 7.25H6C5.58579 7.25 5.25 6.91421 5.25 6.5C5.25 6.08579 5.58579 5.75 6 5.75H6.5ZM10 5.75C10.4142 5.75 10.75 6.08579 10.75 6.5C10.75 6.91421 10.4142 7.25 10 7.25H9.5C9.08579 7.25 8.75 6.91421 8.75 6.5C8.75 6.08579 9.08579 5.75 9.5 5.75H10ZM6.5 3.25C6.91421 3.25 7.25 3.58579 7.25 4C7.25 4.41421 6.91421 4.75 6.5 4.75H6C5.58579 4.75 5.25 4.41421 5.25 4C5.25 3.58579 5.58579 3.25 6 3.25H6.5ZM10 3.25C10.4142 3.25 10.75 3.58579 10.75 4C10.75 4.41421 10.4142 4.75 10 4.75H9.5C9.08579 4.75 8.75 4.41421 8.75 4C8.75 3.58579 9.08579 3.25 9.5 3.25H10Z" fill="black"/>
</svg>
