<svg width="16" height="16" viewBox="0 0 16 16" fill="none" xmlns="http://www.w3.org/2000/svg">
<path d="M8.00037 9.75043C8.4144 9.75064 8.75037 10.0863 8.75037 10.5004V12.5004C8.75015 12.9143 8.41426 13.2502 8.00037 13.2504C7.58629 13.2504 7.25058 12.9145 7.25037 12.5004V10.5004C7.25037 10.0862 7.58615 9.75043 8.00037 9.75043ZM4.28845 3.26312C4.41944 2.87017 4.84471 2.65753 5.23767 2.78851C5.63032 2.91969 5.84321 3.34493 5.71228 3.73773L2.71228 12.7377C2.58125 13.1304 2.15581 13.343 1.76306 13.2123C1.37018 13.0814 1.15763 12.656 1.28845 12.2631L4.28845 3.26312ZM10.7631 2.78851C11.156 2.65769 11.5813 2.87025 11.7123 3.26312L14.7123 12.2631C14.8429 12.6559 14.6303 13.0813 14.2377 13.2123C13.8449 13.3433 13.4196 13.1304 13.2885 12.7377L10.2885 3.73773C10.1575 3.34477 10.3701 2.9195 10.7631 2.78851ZM8.00037 6.25043C8.4144 6.25064 8.75037 6.58635 8.75037 7.00043V8.00043C8.75015 8.41432 8.41426 8.75021 8.00037 8.75043C7.58629 8.75043 7.25058 8.41446 7.25037 8.00043V7.00043C7.25037 6.58621 7.58615 6.25043 8.00037 6.25043ZM8.00037 3.25043C8.4144 3.25064 8.75037 3.58635 8.75037 4.00043V4.50043C8.75015 4.91432 8.41426 5.25021 8.00037 5.25043C7.58629 5.25043 7.25058 4.91446 7.25037 4.50043V4.00043C7.25037 3.58621 7.58615 3.25043 8.00037 3.25043Z" fill="black"/>
</svg>
