<svg width="16" height="16" viewBox="0 0 16 16" fill="none" xmlns="http://www.w3.org/2000/svg">
<path d="M10.7998 1.25C11.3475 1.25 11.8037 1.24897 12.1748 1.2793C12.5545 1.31033 12.9109 1.37809 13.248 1.5498C13.7655 1.81346 14.1865 2.23451 14.4502 2.75195C14.6219 3.08909 14.6897 3.44547 14.7207 3.8252C14.751 4.19632 14.75 4.65252 14.75 5.2002V9.7998C14.75 10.3475 14.751 10.8037 14.7207 11.1748C14.6897 11.5545 14.6219 11.9109 14.4502 12.248C14.1865 12.7655 13.7655 13.1865 13.248 13.4502C12.9109 13.6219 12.5545 13.6897 12.1748 13.7207C12.0583 13.7302 11.9332 13.7349 11.7998 13.7393L12.5303 14.4697C12.8232 14.7626 12.8232 15.2374 12.5303 15.5303C12.2374 15.8232 11.7626 15.8232 11.4697 15.5303L9.68945 13.75H6.31055L4.53027 15.5303C4.23738 15.8232 3.76262 15.8232 3.46973 15.5303C3.17684 15.2374 3.17683 14.7626 3.46973 14.4697L4.19922 13.7393C4.06615 13.7349 3.94143 13.7302 3.8252 13.7207C3.44547 13.6897 3.08909 13.6219 2.75195 13.4502C2.23451 13.1865 1.81346 12.7655 1.5498 12.248C1.37809 11.9109 1.31033 11.5545 1.2793 11.1748C1.24897 10.8037 1.25 10.3475 1.25 9.7998V5.2002C1.25 4.65252 1.24897 4.19632 1.2793 3.8252C1.31033 3.44546 1.37809 3.08909 1.5498 2.75195C1.81346 2.23451 2.23451 1.81346 2.75195 1.5498C3.08909 1.37809 3.44546 1.31033 3.8252 1.2793C4.19632 1.24897 4.65252 1.25 5.2002 1.25H10.7998ZM2.75 9.7998C2.75 10.3722 2.75024 10.7569 2.77441 11.0527C2.79788 11.3397 2.84059 11.4768 2.88672 11.5674C3.00654 11.8025 3.1975 11.9935 3.43262 12.1133C3.52316 12.1594 3.66027 12.2021 3.94727 12.2256C4.24314 12.2498 4.62777 12.25 5.2002 12.25H10.7998C11.3722 12.25 11.7569 12.2498 12.0527 12.2256C12.3397 12.2021 12.4768 12.1594 12.5674 12.1133C12.8025 11.9935 12.9935 11.8025 13.1133 11.5674C13.1594 11.4768 13.2021 11.3397 13.2256 11.0527C13.2498 10.7569 13.25 10.3722 13.25 9.7998V7.75H2.75V9.7998ZM5.5 9.25C5.91421 9.25 6.25 9.58579 6.25 10C6.25 10.4142 5.91421 10.75 5.5 10.75H4.5C4.08579 10.75 3.75 10.4142 3.75 10C3.75 9.58579 4.08579 9.25 4.5 9.25H5.5ZM11.5 9.25C11.9142 9.25 12.25 9.58579 12.25 10C12.25 10.4142 11.9142 10.75 11.5 10.75H10.5C10.0858 10.75 9.75 10.4142 9.75 10C9.75 9.58579 10.0858 9.25 10.5 9.25H11.5ZM5.2002 2.75C4.62777 2.75 4.24314 2.75024 3.94727 2.77441C3.66027 2.79788 3.52316 2.84059 3.43262 2.88672C3.1975 3.00655 3.00655 3.1975 2.88672 3.43262C2.84059 3.52316 2.79788 3.66027 2.77441 3.94727C2.75024 4.24314 2.75 4.62777 2.75 5.2002V6.25H13.25V5.2002C13.25 4.62777 13.2498 4.24314 13.2256 3.94727C13.2021 3.66027 13.1594 3.52316 13.1133 3.43262C12.9935 3.1975 12.8025 3.00654 12.5674 2.88672C12.4768 2.84059 12.3397 2.79788 12.0527 2.77441C11.7569 2.75024 11.3722 2.75 10.7998 2.75H5.2002Z" fill="black"/>
</svg>
