<svg width="16" height="16" viewBox="0 0 16 16" fill="none" xmlns="http://www.w3.org/2000/svg"><path d="M8 3.25C8.41419 3.25003 8.75 3.58581 8.75 4V10.1895L10.4697 8.46973L10.5264 8.41797C10.8209 8.17769 11.2557 8.19513 11.5303 8.46973C11.8048 8.74432 11.8223 9.17906 11.582 9.47363L11.5303 9.53027L8.53027 12.5303C8.23739 12.8232 7.76262 12.8231 7.46973 12.5303L4.46973 9.53027C4.17683 9.23738 4.17683 8.76262 4.46973 8.46973C4.76262 8.17686 5.23739 8.17684 5.53027 8.46973L7.25 10.1895V4C7.25 3.58579 7.58579 3.25 8 3.25Z" fill="currentColor"/></svg>