<svg width="16" height="16" viewBox="0 0 16 16" fill="none" xmlns="http://www.w3.org/2000/svg"><path d="M8.46973 3.46979C8.76262 3.17689 9.23738 3.17689 9.53027 3.46979L12.5303 6.46979C12.8231 6.76268 12.8232 7.23745 12.5303 7.53033L9.53027 10.5303C9.23739 10.8232 8.76261 10.8232 8.46973 10.5303C8.17684 10.2375 8.17686 9.76268 8.46973 9.46979L10.1895 7.75006H5C4.30964 7.75006 3.75 8.30971 3.75 9.00006V12.0001C3.74997 12.4142 3.41419 12.7501 3 12.7501C2.58581 12.7501 2.25003 12.4142 2.25 12.0001V9.00006C2.25 7.48128 3.48122 6.25006 5 6.25006H10.1895L8.46973 4.53033L8.41797 4.47369C8.17767 4.17912 8.19515 3.74439 8.46973 3.46979Z" fill="currentColor"/></svg>