<svg width="16" height="16" viewBox="0 0 16 16" fill="none" xmlns="http://www.w3.org/2000/svg"><path d="M13 2.25C13.4142 2.25 13.75 2.58579 13.75 3V7C13.75 7.41421 13.4142 7.75 13 7.75C12.5858 7.75 12.25 7.41421 12.25 7V4.81055L4.81055 12.25H7C7.41421 12.25 7.75 12.5858 7.75 13C7.75 13.4142 7.41421 13.75 7 13.75H3C2.58579 13.75 2.25 13.4142 2.25 13V9C2.25 8.58579 2.58579 8.25 3 8.25C3.41421 8.25 3.75 8.58579 3.75 9V11.1895L11.1895 3.75H9C8.58579 3.75 8.25 3.41421 8.25 3C8.25 2.58579 8.58579 2.25 9 2.25H13Z" fill="currentColor"/></svg>