<svg width="16" height="16" viewBox="0 0 16 16" fill="none" xmlns="http://www.w3.org/2000/svg"><path d="M11 4.24988C13.071 4.24988 14.7499 5.92888 14.75 7.99988C14.75 10.0709 13.0711 11.7499 11 11.7499H9.81055L10.5303 12.4696L10.582 12.5262C10.8223 12.8208 10.8048 13.2555 10.5303 13.5302C10.2374 13.823 9.76262 13.823 9.46973 13.5302L7.46973 11.5302C7.32912 11.3895 7.25 11.1988 7.25 10.9999C7.25003 10.801 7.32911 10.6102 7.46973 10.4696L9.46973 8.4696C9.7626 8.17679 10.2374 8.1768 10.5303 8.4696C10.8231 8.76248 10.8231 9.23725 10.5303 9.53015L9.81055 10.2499H11C12.2426 10.2499 13.25 9.24251 13.25 7.99988C13.2499 6.7573 12.2426 5.74988 11 5.74988C10.5858 5.74988 10.25 5.41409 10.25 4.99988C10.2501 4.58572 10.5858 4.24988 11 4.24988ZM5.46973 2.4696C5.74432 2.19508 6.17908 2.1776 6.47363 2.41785L6.53027 2.4696L8.53027 4.4696C8.82314 4.76248 8.8231 5.23726 8.53027 5.53015L6.53027 7.53015C6.23738 7.82304 5.76262 7.82304 5.46973 7.53015C5.17689 7.23725 5.17685 6.76248 5.46973 6.4696L6.18945 5.74988H5C3.75741 5.74989 2.75007 6.7573 2.75 7.99988C2.75001 9.16469 3.63518 10.1227 4.76953 10.2382L5 10.2499L5.07715 10.2538C5.45508 10.2924 5.74994 10.6118 5.75 10.9999C5.75 11.4141 5.41421 11.7499 5 11.7499L4.80664 11.745C2.82545 11.6444 1.25001 10.0061 1.25 7.99988C1.25007 5.92888 2.92898 4.24989 5 4.24988H6.18945L5.46973 3.53015L5.41797 3.47351C5.17771 3.17893 5.19514 2.74419 5.46973 2.4696Z" fill="currentColor"/></svg>