<svg width="16" height="16" viewBox="0 0 16 16" fill="none" xmlns="http://www.w3.org/2000/svg"><path d="M11.47 4.96965C11.7629 4.67691 12.2377 4.67681 12.5305 4.96965L15.0305 7.46965C15.3233 7.7625 15.3232 8.23732 15.0305 8.5302L12.5305 11.0302C12.2377 11.3231 11.7629 11.323 11.47 11.0302C11.1771 10.7373 11.1771 10.2625 11.47 9.96965L12.6897 8.74992H3.31079L4.53052 9.96965L4.58228 10.0263C4.82248 10.3208 4.80495 10.7556 4.53052 11.0302C4.25595 11.3048 3.82119 11.3222 3.52661 11.082L3.46997 11.0302L0.969971 8.5302C0.82932 8.38955 0.750246 8.19883 0.750244 7.99992C0.750264 7.80104 0.829338 7.61028 0.969971 7.46965L3.46997 4.96965C3.76288 4.67691 4.23768 4.67681 4.53052 4.96965C4.82328 5.2625 4.82323 5.73732 4.53052 6.0302L3.31079 7.24992H12.6897L11.47 6.0302L11.4182 5.97356C11.1779 5.67898 11.1954 5.24425 11.47 4.96965Z" fill="currentColor"/></svg>