<svg width="16" height="16" viewBox="0 0 16 16" fill="none" xmlns="http://www.w3.org/2000/svg"><path d="M3 3.25C3.4142 3.25002 3.75 3.5858 3.75 4C3.75003 6.89948 6.10054 9.25 9 9.25H11.1895L9.46973 7.53027C9.17684 7.23738 9.17684 6.76262 9.46973 6.46973C9.76262 6.17684 10.2374 6.17684 10.5303 6.46973L13.5303 9.46973C13.6709 9.61038 13.75 9.80109 13.75 10C13.75 10.1989 13.6709 10.3896 13.5303 10.5303L10.5303 13.5303C10.2374 13.8232 9.76262 13.8232 9.46973 13.5303C9.19513 13.2557 9.17767 12.8209 9.41797 12.5264L9.46973 12.4697L11.1895 10.75H9C5.27209 10.75 2.25004 7.72788 2.25 4C2.25 3.58579 2.58579 3.25 3 3.25Z" fill="currentColor"/></svg>