<svg width="16" height="16" viewBox="0 0 16 16" fill="none" xmlns="http://www.w3.org/2000/svg"><path d="M5.46973 2.46979C5.76262 2.1769 6.23738 2.17691 6.53027 2.46979C6.80485 2.7444 6.82234 3.17913 6.58203 3.47369L6.53027 3.53033L4.81055 5.25006H9.5C11.8472 5.25007 13.75 7.15286 13.75 9.50006C13.75 11.8472 11.8472 13.7501 9.5 13.7501H6C5.58581 13.7501 5.25004 13.4142 5.25 13.0001C5.25 12.5858 5.58579 12.2501 6 12.2501H9.5C11.0188 12.2501 12.25 11.0188 12.25 9.50006C12.25 7.98128 11.0188 6.75007 9.5 6.75006H4.81055L6.53027 8.46979C6.82314 8.76268 6.82315 9.23745 6.53027 9.53033C6.23739 9.82317 5.76261 9.82318 5.46973 9.53033L2.46973 6.53033C2.32909 6.3897 2.25002 6.19895 2.25 6.00006C2.25 5.80116 2.3291 5.61044 2.46973 5.46979L5.46973 2.46979Z" fill="currentColor"/></svg>