<svg width="16" height="16" viewBox="0 0 16 16" fill="none" xmlns="http://www.w3.org/2000/svg"><path d="M11.5 2H4.5C4.22386 2 4 2.22386 4 2.5V12.8376C4 13.2765 4.5252 13.5024 4.84387 13.2005L7.65613 10.5363C7.84898 10.3536 8.15102 10.3536 8.34387 10.5363L11.1561 13.2005C11.4748 13.5024 12 13.2765 12 12.8376V2.5C12 2.22386 11.7761 2 11.5 2Z" fill="#F26A00"/><path d="M12 3H4V2H12V3Z" fill="white" fill-opacity="0.3"/><path d="M11.5 1.5C12.0523 1.5 12.5 1.94772 12.5 2.5V12.8379C12.4997 13.7156 11.4498 14.167 10.8125 13.5635L8 10.8994L5.1875 13.5635C4.55023 14.167 3.50026 13.7156 3.5 12.8379V2.5C3.5 1.94772 3.94772 1.5 4.5 1.5H11.5Z" stroke="#E6E6E6"/><mask id="path-4-outside-1_18_1558" maskUnits="userSpaceOnUse" x="8.5" y="3" width="8" height="8" fill="black"><rect fill="white" x="8.5" y="3" width="8" height="8"/><path d="M12.249 4C12.6632 4 13 4.33579 13 4.75V6H14.25C14.664 6.00026 15 6.33595 15 6.75C15 7.1642 14.6632 7.5 14.249 7.5H13V8.75C13 9.16405 12.664 9.49974 12.25 9.5C11.8358 9.5 11.5 9.16421 11.5 8.75V7.5H10.249C9.83504 7.49974 9.50002 7.16404 9.5 6.75C9.5 6.33579 9.83579 6 10.25 6H11.5V4.75C11.5 4.33595 11.835 4.00026 12.249 4Z"/></mask><path d="M12.249 4C12.6632 4 13 4.33579 13 4.75V6H14.25C14.664 6.00026 15 6.33595 15 6.75C15 7.1642 14.6632 7.5 14.249 7.5H13V8.75C13 9.16405 12.664 9.49974 12.25 9.5C11.8358 9.5 11.5 9.16421 11.5 8.75V7.5H10.249C9.83504 7.49974 9.50002 7.16404 9.5 6.75C9.5 6.33579 9.83579 6 10.25 6H11.5V4.75C11.5 4.33595 11.835 4.00026 12.249 4Z" fill="#333333"/><path d="M12.249 4V3L12.2484 3L12.249 4ZM13 4.75H14H13ZM13 6H12V7H13V6ZM14.25 6L14.2506 5H14.25V6ZM15 6.75L16 6.75004V6.75H15ZM14.249 7.5V6.5V6.5V7.5ZM13 7.5V6.5H12V7.5H13ZM13 8.75H12H13ZM12.25 9.5V10.5H12.2506L12.25 9.5ZM11.5 8.75H10.5H11.5ZM11.5 7.5H12.5V6.5H11.5V7.5ZM10.249 7.5L10.2484 8.5H10.249V7.5ZM9.5 6.75H8.5V6.75004L9.5 6.75ZM10.25 6L10.25 7H10.25V6ZM11.5 6V7H12.5V6H11.5ZM11.5 4.75H12.5H11.5ZM12.249 4V5C12.1126 5 12 4.88976 12 4.75H13H14C14 3.78181 13.2138 3 12.249 3V4ZM13 4.75H12V6H13H14V4.75H13ZM13 6V7H14.25V6V5H13V6ZM14.25 6L14.2494 7C14.1122 6.99991 14 6.88887 14 6.75H15H16C16 5.78303 15.2158 5.00062 14.2506 5L14.25 6ZM15 6.75L14 6.74996C14 6.61025 14.1126 6.5 14.249 6.5V7.5V8.5C15.2139 8.5 16 7.71815 16 6.75004L15 6.75ZM14.249 7.5V6.5H13V7.5V8.5H14.249V7.5ZM13 7.5H12V8.75H13H14V7.5H13ZM13 8.75H12C12 8.61113 12.1122 8.50009 12.2494 8.5L12.25 9.5L12.2506 10.5C13.2158 10.4994 14 9.71697 14 8.75H13ZM12.25 9.5V8.5C12.3881 8.5 12.5 8.61193 12.5 8.75H11.5H10.5C10.5 9.7165 11.2835 10.5 12.25 10.5V9.5ZM11.5 8.75H12.5V7.5H11.5H10.5V8.75H11.5ZM11.5 7.5V6.5H10.249V7.5V8.5H11.5V7.5ZM10.249 7.5L10.2497 6.5C10.3886 6.50009 10.5 6.61285 10.5 6.74996L9.5 6.75L8.5 6.75004C8.50004 7.71523 9.28152 8.49938 10.2484 8.5L10.249 7.5ZM9.5 6.75H10.5C10.5 6.88807 10.3881 7 10.25 7L10.25 6L10.25 5C9.2835 5 8.5 5.7835 8.5 6.75H9.5ZM10.25 6V7H11.5V6V5H10.25V6ZM11.5 6H12.5V4.75H11.5H10.5V6H11.5ZM11.5 4.75H12.5C12.5 4.88717 12.3885 4.99991 12.2497 5L12.249 4L12.2484 3C11.2815 3.00062 10.5 3.78473 10.5 4.75H11.5Z" fill="#E6E6E6" mask="url(#path-4-outside-1_18_1558)"/></svg>