<svg width="16" height="16" viewBox="0 0 16 16" fill="none" xmlns="http://www.w3.org/2000/svg"><mask id="path-1-outside-1_581_5605" maskUnits="userSpaceOnUse" x="1.25" y="1.24994" width="13" height="13" fill="black"><rect fill="white" x="1.25" y="1.24994" width="13" height="13"/><path d="M3.5 13.2499C3.08581 13.2499 2.75 12.9141 2.75 12.4999L2.75 7.49994C2.75 7.08574 3.08581 6.74997 3.5 6.74994C3.91421 6.74994 4.25 7.08572 4.25 7.49994L4.25 10.6894L11.9697 2.96967C12.2626 2.67678 12.7374 2.6768 13.0303 2.96967C13.3232 3.26256 13.3232 3.73732 13.0303 4.03021L5.31055 11.7499L8.5 11.7499C8.91421 11.7499 9.25 12.0857 9.25 12.4999C9.25 12.9142 8.91421 13.2499 8.5 13.2499L3.5 13.2499Z"/></mask><path d="M3.5 13.2499C3.08581 13.2499 2.75 12.9141 2.75 12.4999L2.75 7.49994C2.75 7.08574 3.08581 6.74997 3.5 6.74994C3.91421 6.74994 4.25 7.08572 4.25 7.49994L4.25 10.6894L11.9697 2.96967C12.2626 2.67678 12.7374 2.6768 13.0303 2.96967C13.3232 3.26256 13.3232 3.73732 13.0303 4.03021L5.31055 11.7499L8.5 11.7499C8.91421 11.7499 9.25 12.0857 9.25 12.4999C9.25 12.9142 8.91421 13.2499 8.5 13.2499L3.5 13.2499Z" fill="white"/><path d="M3.5 13.2499L3.49993 14.2499L3.5 14.2499L3.5 13.2499ZM3.5 6.74994L3.5 5.74994L3.49993 5.74994L3.5 6.74994ZM4.25 10.6894L3.25 10.6894L3.25 13.1036L4.95711 11.3965L4.25 10.6894ZM11.9697 2.96967L12.6768 3.67677L12.6768 3.67677L11.9697 2.96967ZM13.0303 2.96967L13.7374 2.26256L13.7373 2.26252L13.0303 2.96967ZM13.0303 4.03021L12.3232 3.3231L12.3232 3.32311L13.0303 4.03021ZM5.31055 11.7499L4.60344 11.0428L2.89633 12.7499L5.31055 12.7499L5.31055 11.7499ZM3.5 13.2499L3.50007 12.2499C3.63804 12.2499 3.75 12.3618 3.75 12.4999L2.75 12.4999L1.75 12.4999C1.75 13.4665 2.53359 14.2499 3.49993 14.2499L3.5 13.2499ZM2.75 12.4999L3.75 12.4999L3.75 7.49994L2.75 7.49994L1.75 7.49994L1.75 12.4999L2.75 12.4999ZM2.75 7.49994L3.75 7.49994C3.75 7.6381 3.63804 7.74993 3.50007 7.74994L3.5 6.74994L3.49993 5.74994C2.53359 5.75001 1.75 6.53338 1.75 7.49994L2.75 7.49994ZM3.5 6.74994L3.5 7.74994C3.36193 7.74994 3.25 7.63801 3.25 7.49994L4.25 7.49994L5.25 7.49994C5.25 6.53344 4.4665 5.74994 3.5 5.74994L3.5 6.74994ZM4.25 7.49994L3.25 7.49994L3.25 10.6894L4.25 10.6894L5.25 10.6894L5.25 7.49994L4.25 7.49994ZM4.25 10.6894L4.95711 11.3965L12.6768 3.67677L11.9697 2.96967L11.2626 2.26256L3.54289 9.98228L4.25 10.6894ZM11.9697 2.96967L12.6768 3.67677C12.5792 3.77445 12.4208 3.77438 12.3232 3.67681L13.0303 2.96967L13.7373 2.26252C13.054 1.57922 11.9461 1.57911 11.2626 2.26256L11.9697 2.96967ZM13.0303 2.96967L12.3232 3.67677C12.2255 3.57914 12.2255 3.42074 12.3232 3.3231L13.0303 4.03021L13.7374 4.73732C14.4208 4.0539 14.4208 2.94597 13.7374 2.26256L13.0303 2.96967ZM13.0303 4.03021L12.3232 3.32311L4.60344 11.0428L5.31055 11.7499L6.01765 12.457L13.7374 4.73732L13.0303 4.03021ZM5.31055 11.7499L5.31055 12.7499L8.5 12.7499L8.5 11.7499L8.5 10.7499L5.31055 10.7499L5.31055 11.7499ZM8.5 11.7499L8.5 12.7499C8.36193 12.7499 8.25 12.638 8.25 12.4999L9.25 12.4999L10.25 12.4999C10.25 11.5334 9.4665 10.7499 8.5 10.7499L8.5 11.7499ZM9.25 12.4999L8.25 12.4999C8.25 12.3619 8.36193 12.2499 8.5 12.2499L8.5 13.2499L8.5 14.2499C9.4665 14.2499 10.25 13.4664 10.25 12.4999L9.25 12.4999ZM8.5 13.2499L8.5 12.2499L3.5 12.2499L3.5 13.2499L3.5 14.2499L8.5 14.2499L8.5 13.2499Z" fill="#E6E6E6" mask="url(#path-1-outside-1_581_5605)"/><path d="M3.5 13.2499C3.08581 13.2499 2.75 12.9141 2.75 12.4999L2.75 7.49994C2.75 7.08574 3.08581 6.74997 3.5 6.74994C3.91421 6.74994 4.25 7.08572 4.25 7.49994L4.25 10.6894L11.9697 2.96967C12.2626 2.67678 12.7374 2.6768 13.0303 2.96967C13.3232 3.26256 13.3232 3.73732 13.0303 4.03021L5.31055 11.7499L8.5 11.7499C8.91421 11.7499 9.25 12.0857 9.25 12.4999C9.25 12.9142 8.91421 13.2499 8.5 13.2499L3.5 13.2499Z" fill="#333333"/></svg>