<svg width="16" height="16" viewBox="0 0 16 16" fill="none" xmlns="http://www.w3.org/2000/svg"><path d="M13.25 1.5C13.9404 1.5 14.5 2.05964 14.5 2.75V13.25C14.5 13.9404 13.9404 14.5 13.25 14.5H2.75C2.05964 14.5 1.5 13.9404 1.5 13.25V2.75C1.5 2.05964 2.05964 1.5 2.75 1.5H13.25Z" fill="white" stroke="#E6E6E6"/><path d="M13.249 2C13.6631 2.00011 13.9989 2.33596 13.999 2.75V13.249C13.9989 13.6631 13.6631 13.9989 13.249 13.999H2.75C2.33594 13.9989 2.00011 13.6631 2 13.249V2.75C2.00013 2.33596 2.33595 2.0001 2.75 2H13.249ZM3.5 12.499H12.499V3.5H3.5V12.499ZM10.4053 6.38672H7.4375V7.51172H9.83691V9.01172H7.4375V10.8867H5.9375V5.63672C5.93781 5.22283 6.27356 4.88682 6.6875 4.88672H10.4053V6.38672Z" fill="#021CC7"/></svg>