<svg width="16" height="16" viewBox="0 0 16 16" fill="none" xmlns="http://www.w3.org/2000/svg"><path d="M10.7998 1.5C11.0568 1.5 11.3043 1.59905 11.4902 1.77637L12.1904 2.44336C12.3884 2.63208 12.5 2.89448 12.5 3.16797V11.5C12.5 12.0523 12.0523 12.5 11.5 12.5H3.5C2.94772 12.5 2.5 12.0523 2.5 11.5V2.5C2.5 1.94772 2.94772 1.5 3.5 1.5H10.7998Z" stroke="#E6E6E6"/><path d="M3 2.5C3 2.22386 3.22386 2 3.5 2H10.7998C10.9283 2 11.0519 2.04946 11.1449 2.13812L11.845 2.80567C11.944 2.90003 12 3.03081 12 3.16755V11.5C12 11.7761 11.7761 12 11.5 12H3.5C3.22386 12 3 11.7761 3 11.5V2.5Z" fill="#0A7DFF"/><path d="M10 8H5C4.72386 8 4.5 8.22386 4.5 8.5V12H10.5V8.5C10.5 8.22386 10.2761 8 10 8Z" fill="white"/><path d="M5 5L9 5C9.27614 5 9.5 4.77614 9.5 4.5L9.5 2L4.5 2L4.5 4.5C4.5 4.77614 4.72386 5 5 5Z" fill="white"/><rect x="7.5" y="3" width="1" height="1" fill="#333333"/><mask id="path-6-outside-1_1000_8485" maskUnits="userSpaceOnUse" x="7.25006" y="7.25" width="8" height="9" fill="black"><rect fill="white" x="7.25006" y="7.25" width="8" height="9"/><path d="M11.2501 8.25C11.6642 8.25007 12.0001 8.58583 12.0001 9V11.9395L12.9698 10.9697C13.2627 10.6769 13.7374 10.6769 14.0303 10.9697C14.3231 11.2626 14.3232 11.7374 14.0303 12.0303L11.7803 14.2803C11.6397 14.4209 11.4489 14.5 11.2501 14.5C11.0512 14.5 10.8604 14.4209 10.7198 14.2803L8.46979 12.0303C8.1769 11.7374 8.1769 11.2626 8.46979 10.9697C8.76269 10.6769 9.23746 10.6768 9.53033 10.9697L10.5001 11.9395V9C10.5001 8.58579 10.8358 8.25 11.2501 8.25Z"/></mask><path d="M11.2501 8.25C11.6642 8.25007 12.0001 8.58583 12.0001 9V11.9395L12.9698 10.9697C13.2627 10.6769 13.7374 10.6769 14.0303 10.9697C14.3231 11.2626 14.3232 11.7374 14.0303 12.0303L11.7803 14.2803C11.6397 14.4209 11.4489 14.5 11.2501 14.5C11.0512 14.5 10.8604 14.4209 10.7198 14.2803L8.46979 12.0303C8.1769 11.7374 8.1769 11.2626 8.46979 10.9697C8.76269 10.6769 9.23746 10.6768 9.53033 10.9697L10.5001 11.9395V9C10.5001 8.58579 10.8358 8.25 11.2501 8.25Z" fill="#333333"/><path d="M11.2501 8.25L11.2502 7.25H11.2501V8.25ZM12.0001 11.9395H11.0001V14.3537L12.7072 12.6466L12.0001 11.9395ZM12.9698 10.9697L12.2627 10.2626L12.2627 10.2626L12.9698 10.9697ZM14.0303 10.9697L14.7376 10.2627L14.7374 10.2626L14.0303 10.9697ZM14.0303 12.0303L14.7374 12.7374L14.7375 12.7373L14.0303 12.0303ZM11.7803 14.2803L12.4874 14.9874L12.4874 14.9874L11.7803 14.2803ZM11.2501 14.5L11.2501 15.5H11.2502L11.2501 14.5ZM10.7198 14.2803L10.0127 14.9874L10.0128 14.9875L10.7198 14.2803ZM8.46979 12.0303L7.76267 12.7374L7.76268 12.7374L8.46979 12.0303ZM8.46979 10.9697L7.76273 10.2626L7.76268 10.2626L8.46979 10.9697ZM9.53033 10.9697L8.82322 11.6768L8.82323 11.6768L9.53033 10.9697ZM10.5001 11.9395L9.79295 12.6466L11.5001 14.3537V11.9395H10.5001ZM11.2501 8.25L11.2499 9.25C11.1121 9.24998 11.0001 9.13827 11.0001 9H12.0001H13.0001C13.0001 8.03338 12.2164 7.25016 11.2502 7.25L11.2501 8.25ZM12.0001 9H11.0001V11.9395H12.0001H13.0001V9H12.0001ZM12.0001 11.9395L12.7072 12.6466L13.6769 11.6768L12.9698 10.9697L12.2627 10.2626L11.293 11.2323L12.0001 11.9395ZM12.9698 10.9697L13.6769 11.6769C13.5792 11.7745 13.4209 11.7745 13.3233 11.6769L14.0303 10.9697L14.7374 10.2626C14.054 9.57926 12.9461 9.57926 12.2627 10.2626L12.9698 10.9697ZM14.0303 10.9697L13.3231 11.6767C13.2256 11.5792 13.2255 11.4209 13.3232 11.3232L14.0303 12.0303L14.7375 12.7373C15.4209 12.0539 15.4206 10.946 14.7376 10.2627L14.0303 10.9697ZM14.0303 12.0303L13.3232 11.3232L11.0732 13.5732L11.7803 14.2803L12.4874 14.9874L14.7374 12.7374L14.0303 12.0303ZM11.7803 14.2803L11.0732 13.5732C11.12 13.5264 11.1835 13.5 11.2499 13.5L11.2501 14.5L11.2502 15.5C11.7143 15.4999 12.1594 15.3154 12.4874 14.9874L11.7803 14.2803ZM11.2501 14.5L11.2501 13.5C11.3168 13.5 11.3802 13.5265 11.4268 13.5731L10.7198 14.2803L10.0128 14.9875C10.3407 15.3152 10.7856 15.5 11.2501 15.5L11.2501 14.5ZM10.7198 14.2803L11.4269 13.5732L9.17689 11.3232L8.46979 12.0303L7.76268 12.7374L10.0127 14.9874L10.7198 14.2803ZM8.46979 12.0303L9.1769 11.3232C9.27452 11.4208 9.27454 11.5792 9.17689 11.6768L8.46979 10.9697L7.76268 10.2626C7.07926 10.946 7.07928 12.054 7.76267 12.7374L8.46979 12.0303ZM8.46979 10.9697L9.17684 11.6769C9.07929 11.7744 8.92092 11.7745 8.82322 11.6768L9.53033 10.9697L10.2375 10.2626C9.55399 9.57915 8.44609 9.57931 7.76273 10.2626L8.46979 10.9697ZM9.53033 10.9697L8.82323 11.6768L9.79295 12.6466L10.5001 11.9395L11.2072 11.2323L10.2374 10.2626L9.53033 10.9697ZM10.5001 11.9395H11.5001V9H10.5001H9.50006V11.9395H10.5001ZM10.5001 9H11.5001C11.5001 9.13807 11.3881 9.25 11.2501 9.25V8.25V7.25C10.2836 7.25 9.50006 8.0335 9.50006 9H10.5001Z" fill="#E6E6E6" mask="url(#path-6-outside-1_1000_8485)"/></svg>