<svg width="16" height="16" viewBox="0 0 16 16" fill="none" xmlns="http://www.w3.org/2000/svg"><circle cx="8" cy="8" r="6.5" stroke="#E6E6E6"/><circle cx="8" cy="8" r="6" fill="#1F3AB5"/><path d="M13.5127 5.63086C13.8255 6.35779 14 7.1584 14 8C14 11.3137 11.3137 14 8 14C7.53225 14 7.07758 13.944 6.64062 13.8428L7.31055 10.7256C7.4219 10.2805 7.82244 9.96875 8.28125 9.96875H9.84668C10.4552 9.96875 10.9228 9.42949 10.8369 8.82715L10.6221 7.32129C10.5522 6.83105 10.8516 6.36324 11.3262 6.22168L13.5127 5.63086ZM7.08496 4.31738C7.64089 4.96596 7.18029 5.96846 6.32617 5.96875H6C5.44773 5.96876 5 6.41647 5 6.96875V8.79102C5 9.19992 4.75075 9.56786 4.37109 9.71973L2.49023 10.3779C2.17511 9.64875 2 8.84487 2 8C2 5.58128 3.43144 3.49738 5.49316 2.54785L7.08496 4.31738Z" fill="#27B17B"/><path d="M12.9443 4.60254C13.6094 5.56862 14 6.73843 14 8C14 11.3137 11.3137 14 8 14C6.73814 14 5.56777 13.6097 4.60156 12.9443C4.89623 12.9795 5.19586 13 5.5 13C9.64214 13 13 9.64214 13 5.5C13 5.19619 12.9794 4.8969 12.9443 4.60254Z" fill="black" fill-opacity="0.3"/><path d="M2.04297 8.7041C2.01595 8.47307 2 8.23828 2 8C2 4.68629 4.68629 2 8 2C8.23828 2 8.47308 2.01595 8.7041 2.04297C5.19777 2.41288 2.41288 5.19777 2.04297 8.7041Z" fill="white" fill-opacity="0.3"/></svg>