<svg width="16" height="16" viewBox="0 0 16 16" fill="none" xmlns="http://www.w3.org/2000/svg"><path d="M2.7627 11.896C2.37042 12.4195 2.4223 13.152 2.88477 13.6147C3.34761 14.0776 4.08084 14.1295 4.60449 13.7368L7.73242 11.3911C8.13231 11.6109 8.6319 11.5998 9.02734 11.3364L11.5166 9.67722L11.5576 9.64987L14.5625 6.64499C15.0503 6.1569 15.0503 5.36549 14.5625 4.87741L11.623 1.93796C11.1349 1.4498 10.3426 1.4498 9.85449 1.93796L6.88477 4.90768L6.85059 4.94284L6.82324 4.98386L5.16406 7.47214C4.90044 7.86757 4.88956 8.36707 5.10938 8.76706L2.7627 11.896Z" fill="white" stroke="#E6E6E6"/><path d="M7.7388 10.7612L4.30449 13.3369C3.9799 13.5804 3.5257 13.5481 3.2388 13.2612C2.95191 12.9743 2.91963 12.5201 3.16307 12.1955L5.7388 8.7612L7.7388 10.7612Z" fill="#001E55"/><path d="M11.2388 9.2612L8.78453 10.8974C8.59014 11.027 8.49295 11.0918 8.39008 11.1101C8.29936 11.1262 8.20595 11.117 8.12016 11.0834C8.02287 11.0452 7.94027 10.9626 7.77508 10.7975L7.77508 10.7974L5.70258 8.72495C5.53739 8.55976 5.45479 8.47716 5.41668 8.37987C5.38307 8.29408 5.37382 8.20067 5.38995 8.10995C5.40824 8.00708 5.47304 7.90989 5.60263 7.71551L7.23883 5.2612L11.2388 9.2612Z" fill="#4FA8FB"/><path d="M14.1731 6.32689L11.2388 9.2612L7.23883 5.2612L10.1731 2.32689C10.3711 2.12888 10.4702 2.02987 10.5843 1.99278C10.6847 1.96015 10.7929 1.96015 10.8933 1.99278C11.0075 2.02987 11.1065 2.12888 11.3045 2.32689L14.1731 5.19552C14.3711 5.39353 14.4702 5.49254 14.5072 5.6067C14.5399 5.70712 14.5399 5.8153 14.5072 5.91572C14.4702 6.02988 14.3711 6.12889 14.1731 6.32689Z" fill="#1F3AB5"/><path d="M3.02282 12.8762L12.0902 3.11159L11.305 2.32643C11.1073 2.1287 11.0079 2.02964 10.8939 1.99245C10.7936 1.95987 10.6846 1.95996 10.5843 1.99245C10.4704 2.02961 10.3708 2.12882 10.1732 2.32643L7.23962 5.261L5.6029 7.71511C5.47347 7.90925 5.40839 8.0069 5.39001 8.10964C5.37388 8.20032 5.38377 8.29438 5.41735 8.38014C5.45555 8.47721 5.53858 8.55996 5.70348 8.72487L5.73962 8.761L3.16344 12.1956C3.01305 12.3962 2.96745 12.6467 3.02282 12.8762Z" fill="white" fill-opacity="0.3"/></svg>