<svg width="16" height="16" viewBox="0 0 16 16" fill="none" xmlns="http://www.w3.org/2000/svg"><path d="M10.7998 1.5C11.0568 1.5 11.3043 1.59905 11.4902 1.77637L12.1904 2.44336C12.3884 2.63208 12.5 2.89448 12.5 3.16797V11.5C12.5 12.0523 12.0523 12.5 11.5 12.5H3.5C2.94772 12.5 2.5 12.0523 2.5 11.5V2.5C2.5 1.94772 2.94772 1.5 3.5 1.5H10.7998Z" stroke="#E6E6E6"/><path d="M3 2.5C3 2.22386 3.22386 2 3.5 2H10.7998C10.9283 2 11.0519 2.04946 11.1449 2.13812L11.845 2.80567C11.944 2.90003 12 3.03081 12 3.16755V11.5C12 11.7761 11.7761 12 11.5 12H3.5C3.22386 12 3 11.7761 3 11.5V2.5Z" fill="#0A7DFF"/><path d="M5 5L9 5C9.27614 5 9.5 4.77614 9.5 4.5L9.5 2L4.5 2L4.5 4.5C4.5 4.77614 4.72386 5 5 5Z" fill="white"/><path d="M10 8H5C4.72386 8 4.5 8.22386 4.5 8.5V12H10.5V8.5C10.5 8.22386 10.2761 8 10 8Z" fill="white"/><mask id="path-5-outside-1_1000_8484" maskUnits="userSpaceOnUse" x="8" y="8" width="8" height="8" fill="black"><rect fill="white" x="8" y="8" width="8" height="8"/><path d="M11.75 9C12.1642 9 12.501 9.33579 12.501 9.75V11H13.751C14.165 11.0003 14.501 11.3359 14.501 11.75C14.501 12.1642 14.1642 12.5 13.75 12.5H12.501V13.75C12.501 14.1641 12.165 14.4997 11.751 14.5C11.3368 14.5 11.001 14.1642 11.001 13.75V12.5H9.75C9.33602 12.4997 9.00002 12.164 9 11.75C9 11.3358 9.33676 11 9.75098 11H11.001V9.75C11.001 9.33595 11.336 9.00026 11.75 9Z"/></mask><path d="M11.75 9C12.1642 9 12.501 9.33579 12.501 9.75V11H13.751C14.165 11.0003 14.501 11.3359 14.501 11.75C14.501 12.1642 14.1642 12.5 13.75 12.5H12.501V13.75C12.501 14.1641 12.165 14.4997 11.751 14.5C11.3368 14.5 11.001 14.1642 11.001 13.75V12.5H9.75C9.33602 12.4997 9.00002 12.164 9 11.75C9 11.3358 9.33676 11 9.75098 11H11.001V9.75C11.001 9.33595 11.336 9.00026 11.75 9Z" fill="#333333"/><path d="M11.75 9V8L11.7494 8L11.75 9ZM12.501 9.75H13.501H12.501ZM12.501 11H11.501V12H12.501V11ZM13.751 11L13.7516 10H13.751V11ZM14.501 11.75L15.501 11.75V11.75H14.501ZM13.75 12.5V11.5V11.5V12.5ZM12.501 12.5V11.5H11.501V12.5H12.501ZM12.501 13.75H11.501H12.501ZM11.751 14.5V15.5H11.7516L11.751 14.5ZM11.001 13.75H10.001H11.001ZM11.001 12.5H12.001V11.5H11.001V12.5ZM9.75 12.5L9.74936 13.5H9.75V12.5ZM9 11.75H8V11.75L9 11.75ZM9.75098 11L9.75098 12H9.75098V11ZM11.001 11V12H12.001V11H11.001ZM11.001 9.75H12.001H11.001ZM11.75 9V10C11.6136 10 11.501 9.88976 11.501 9.75H12.501H13.501C13.501 8.78181 12.7148 8 11.75 8V9ZM12.501 9.75H11.501V11H12.501H13.501V9.75H12.501ZM12.501 11V12H13.751V11V10H12.501V11ZM13.751 11L13.7503 12C13.6132 11.9999 13.501 11.8889 13.501 11.75H14.501H15.501C15.501 10.783 14.7168 10.0006 13.7516 10L13.751 11ZM14.501 11.75L13.501 11.75C13.501 11.6103 13.6136 11.5 13.75 11.5V12.5V13.5C14.7148 13.5 15.5009 12.7181 15.501 11.75L14.501 11.75ZM13.75 12.5V11.5H12.501V12.5V13.5H13.75V12.5ZM12.501 12.5H11.501V13.75H12.501H13.501V12.5H12.501ZM12.501 13.75H11.501C11.501 13.6111 11.6132 13.5001 11.7503 13.5L11.751 14.5L11.7516 15.5C12.7168 15.4994 13.501 14.717 13.501 13.75H12.501ZM11.751 14.5V13.5C11.889 13.5 12.001 13.6119 12.001 13.75H11.001H10.001C10.001 14.7165 10.7845 15.5 11.751 15.5V14.5ZM11.001 13.75H12.001V12.5H11.001H10.001V13.75H11.001ZM11.001 12.5V11.5H9.75V12.5V13.5H11.001V12.5ZM9.75 12.5L9.75064 11.5C9.88786 11.5001 9.99999 11.6112 10 11.75L9 11.75L8 11.75C8.00005 12.7169 8.78419 13.4994 9.74936 13.5L9.75 12.5ZM9 11.75H10C10 11.8898 9.88735 12 9.75098 12L9.75098 11L9.75098 10C8.78617 10 8 10.7818 8 11.75H9ZM9.75098 11V12H11.001V11V10H9.75098V11ZM11.001 11H12.001V9.75H11.001H10.001V11H11.001ZM11.001 9.75H12.001C12.001 9.88717 11.8895 9.99991 11.7506 10L11.75 9L11.7494 8C10.7825 8.00062 10.001 8.78473 10.001 9.75H11.001Z" fill="#E6E6E6" mask="url(#path-5-outside-1_1000_8484)"/><rect x="7.5" y="3" width="1" height="1" fill="#333333"/></svg>