<svg width="16" height="16" viewBox="0 0 16 16" fill="none" xmlns="http://www.w3.org/2000/svg"><path d="M9.7998 1C10.0568 1 10.3043 1.09905 10.4902 1.27637L11.1904 1.94336C11.3884 2.13208 11.5 2.39448 11.5 2.66797V11C11.5 11.5523 11.0523 12 10.5 12H2.5C1.94772 12 1.5 11.5523 1.5 11V2C1.5 1.44772 1.94772 1 2.5 1H9.7998Z" stroke="#E6E6E6"/><path d="M12.7998 4C13.0568 4 13.3043 4.09905 13.4902 4.27637L14.1904 4.94336C14.3884 5.13208 14.5 5.39448 14.5 5.66797V14C14.5 14.5523 14.0523 15 13.5 15H5.5C4.94772 15 4.5 14.5523 4.5 14V5C4.5 4.44772 4.94772 4 5.5 4H12.7998Z" fill="#2D52D2" stroke="#E6E6E6"/><path d="M12.5 4.5359L5 4.5V13H12C12.2761 13 12.5 12.7761 12.5 12.5L12.5 4.5359Z" fill="black" fill-opacity="0.3"/><path d="M2 2C2 1.72386 2.22386 1.5 2.5 1.5H9.79984C9.92832 1.5 10.0519 1.54946 10.1449 1.63812L10.845 2.30567C10.944 2.40003 11 2.53081 11 2.66755V11C11 11.2761 10.7761 11.5 10.5 11.5H2.5C2.22386 11.5 2 11.2761 2 11V2Z" fill="#0A7DFF"/><path d="M4 4.5L8 4.5C8.27614 4.5 8.5 4.27614 8.5 4L8.5 1.5L3.5 1.5L3.5 4C3.5 4.27614 3.72386 4.5 4 4.5Z" fill="white"/><path d="M9 7.5H4C3.72386 7.5 3.5 7.72386 3.5 8V11.5H9.5V8C9.5 7.72386 9.27614 7.5 9 7.5Z" fill="white"/><rect x="6.5" y="2.5" width="1" height="1" fill="#333333"/></svg>