<svg width="16" height="16" viewBox="0 0 16 16" fill="none" xmlns="http://www.w3.org/2000/svg"><mask id="path-1-outside-1_444_2362" maskUnits="userSpaceOnUse" x="1" y="1" width="14" height="14" fill="black"><rect fill="white" x="1" y="1" width="14" height="14"/><path d="M12.5 2C13.3284 2 14 2.67157 14 3.5C14 4.15281 13.5822 4.70597 13 4.91211V11.0869C13.5823 11.293 14 11.8471 14 12.5C14 13.3284 13.3284 14 12.5 14C11.8471 14 11.293 13.5823 11.0869 13H4.91309C4.70703 13.5823 4.15293 14 3.5 14C2.67157 14 2 13.3284 2 12.5C2 11.8471 2.41766 11.293 3 11.0869V4.91211C2.41782 4.70597 2 4.15281 2 3.5C2 2.67157 2.67157 2 3.5 2C4.15293 2 4.70703 2.41766 4.91309 3H11.0869C11.293 2.41766 11.8471 2 12.5 2Z"/></mask><path d="M12.5 2C13.3284 2 14 2.67157 14 3.5C14 4.15281 13.5822 4.70597 13 4.91211V11.0869C13.5823 11.293 14 11.8471 14 12.5C14 13.3284 13.3284 14 12.5 14C11.8471 14 11.293 13.5823 11.0869 13H4.91309C4.70703 13.5823 4.15293 14 3.5 14C2.67157 14 2 13.3284 2 12.5C2 11.8471 2.41766 11.293 3 11.0869V4.91211C2.41782 4.70597 2 4.15281 2 3.5C2 2.67157 2.67157 2 3.5 2C4.15293 2 4.70703 2.41766 4.91309 3H11.0869C11.293 2.41766 11.8471 2 12.5 2Z" fill="#BFEFFF"/><path d="M13 4.91211L12.6662 3.96946L12 4.20536V4.91211H13ZM13 11.0869H12V11.7938L12.6664 12.0296L13 11.0869ZM11.0869 13L12.0296 12.6664L11.7938 12H11.0869V13ZM4.91309 13V12H4.20617L3.97036 12.6664L4.91309 13ZM3 11.0869L3.33358 12.0296L4 11.7938V11.0869H3ZM3 4.91211H4V4.20536L3.33378 3.96946L3 4.91211ZM4.91309 3L3.97036 3.33358L4.20617 4H4.91309V3ZM11.0869 3V4H11.7938L12.0296 3.33358L11.0869 3ZM12.5 2V3C12.7761 3 13 3.22386 13 3.5H14H15C15 2.11929 13.8807 1 12.5 1V2ZM14 3.5H13C13 3.71343 12.8642 3.89937 12.6662 3.96946L13 4.91211L13.3338 5.85476C14.3002 5.51256 15 4.5922 15 3.5H14ZM13 4.91211H12V11.0869H13H14V4.91211H13ZM13 11.0869L12.6664 12.0296C12.8634 12.0994 13 12.2855 13 12.5H14H15C15 11.4086 14.3012 10.4866 13.3336 10.1442L13 11.0869ZM14 12.5H13C13 12.7761 12.7761 13 12.5 13V14V15C13.8807 15 15 13.8807 15 12.5H14ZM12.5 14V13C12.2855 13 12.0994 12.8634 12.0296 12.6664L11.0869 13L10.1442 13.3336C10.4866 14.3012 11.4086 15 12.5 15V14ZM11.0869 13V12H4.91309V13V14H11.0869V13ZM4.91309 13L3.97036 12.6664C3.90065 12.8634 3.71447 13 3.5 13V14V15C4.59138 15 5.51341 14.3012 5.85581 13.3336L4.91309 13ZM3.5 14V13C3.22386 13 3 12.7761 3 12.5H2H1C1 13.8807 2.11929 15 3.5 15V14ZM2 12.5H3C3 12.2855 3.13656 12.0994 3.33358 12.0296L3 11.0869L2.66642 10.1442C1.69876 10.4866 1 11.4086 1 12.5H2ZM3 11.0869H4V4.91211H3H2V11.0869H3ZM3 4.91211L3.33378 3.96946C3.13584 3.89937 3 3.71343 3 3.5H2H1C1 4.5922 1.6998 5.51256 2.66622 5.85476L3 4.91211ZM2 3.5H3C3 3.22386 3.22386 3 3.5 3V2V1C2.11929 1 1 2.11929 1 3.5H2ZM3.5 2V3C3.71447 3 3.90065 3.13656 3.97036 3.33358L4.91309 3L5.85581 2.66642C5.51341 1.69876 4.59138 1 3.5 1V2ZM4.91309 3V4H11.0869V3V2H4.91309V3ZM11.0869 3L12.0296 3.33358C12.0994 3.13656 12.2855 3 12.5 3V2V1C11.4086 1 10.4866 1.69876 10.1442 2.66642L11.0869 3Z" fill="#E6E6E6" mask="url(#path-1-outside-1_444_2362)"/><path d="M6.5 6.5H9.5M8 6.5V9.5" stroke="black" stroke-width="1.5" stroke-linecap="round" stroke-linejoin="round"/><rect x="3.5" y="3.5" width="9" height="9" stroke="#4FA8FB" stroke-width="1.5" stroke-linecap="round" stroke-linejoin="round"/><path d="M3.5 11C4.32843 11 5 11.6716 5 12.5C5 13.3284 4.32843 14 3.5 14C2.67157 14 2 13.3284 2 12.5C2 11.6716 2.67157 11 3.5 11ZM12.5 11C13.3284 11 14 11.6716 14 12.5C14 13.3284 13.3284 14 12.5 14C11.6716 14 11 13.3284 11 12.5C11 11.6716 11.6716 11 12.5 11ZM3.5 2C4.32843 2 5 2.67157 5 3.5C5 4.32843 4.32843 5 3.5 5C2.67157 5 2 4.32843 2 3.5C2 2.67157 2.67157 2 3.5 2ZM12.5 2C13.3284 2 14 2.67157 14 3.5C14 4.32843 13.3284 5 12.5 5C11.6716 5 11 4.32843 11 3.5C11 2.67157 11.6716 2 12.5 2Z" fill="#1F3AB5"/></svg>