<svg width="16" height="16" viewBox="0 0 16 16" fill="none" xmlns="http://www.w3.org/2000/svg">
<path d="M4 1.25C5.24264 1.25 6.25 2.25736 6.25 3.5C6.25 4.47922 5.62327 5.30895 4.75 5.61816V7.75H6.88086C7.18999 6.87656 8.02067 6.25 9 6.25C10.2426 6.25 11.25 7.25736 11.25 8.5C11.25 9.74264 10.2426 10.75 9 10.75C8.02067 10.75 7.18999 10.1234 6.88086 9.25H4.75V9.7998C4.75 10.3722 4.75024 10.7569 4.77441 11.0527C4.79788 11.3397 4.84059 11.4768 4.88672 11.5674C5.00655 11.8025 5.1975 11.9935 5.43262 12.1133C5.52316 12.1594 5.66027 12.2021 5.94727 12.2256C6.24314 12.2498 6.62777 12.25 7.2002 12.25H9.88086C10.19 11.3766 11.0207 10.75 12 10.75C13.2426 10.75 14.25 11.7574 14.25 13C14.25 14.2426 13.2426 15.25 12 15.25C11.0207 15.25 10.19 14.6234 9.88086 13.75H7.2002C6.65252 13.75 6.19632 13.751 5.8252 13.7207C5.44546 13.6897 5.08909 13.6219 4.75195 13.4502C4.23451 13.1865 3.81346 12.7655 3.5498 12.248C3.37809 11.9109 3.31033 11.5545 3.2793 11.1748C3.24897 10.8037 3.25 10.3475 3.25 9.7998V5.61816C2.37673 5.30895 1.75 4.47922 1.75 3.5C1.75 2.25736 2.75736 1.25 4 1.25ZM12 12.25C11.5858 12.25 11.25 12.5858 11.25 13C11.25 13.4142 11.5858 13.75 12 13.75C12.4142 13.75 12.75 13.4142 12.75 13C12.75 12.5858 12.4142 12.25 12 12.25ZM9 7.75C8.58578 7.75 8.25 8.08579 8.25 8.5C8.25001 8.91422 8.5858 9.25 9 9.25C9.41421 9.25 9.75 8.91421 9.75 8.5C9.75 8.08579 9.41421 7.75 9 7.75ZM4 2.75C3.58579 2.75 3.25 3.08579 3.25 3.5C3.25 3.91421 3.58579 4.25 4 4.25C4.41421 4.25 4.75 3.91421 4.75 3.5C4.75 3.08579 4.41421 2.75 4 2.75Z" fill="black"/>
</svg>
