<svg width="16" height="16" viewBox="0 0 16 16" fill="none" xmlns="http://www.w3.org/2000/svg">
<path d="M12.0234 14.959C11.8313 15.0105 11.6264 14.9842 11.4541 14.8848C11.2819 14.7853 11.156 14.6208 11.1045 14.4287L11.8291 14.2354L12.0234 14.959ZM9 2.25C9.41421 2.25 9.75 2.58579 9.75 3V4.69824L12.2041 4.04102C12.6041 3.93402 13.0149 4.1713 13.1221 4.57129L15.4512 13.2646L15.4678 13.3398C15.5283 13.7149 15.2958 14.0822 14.9209 14.1826L14.7275 13.458H14.7266L14.9209 14.1826L12.0234 14.959L11.8291 14.2344L11.1045 14.4287L9.75 9.37305V14C9.75 14.4142 9.41421 14.75 9 14.75H3C2.58579 14.75 2.25 14.4142 2.25 14V5C2.25 4.58579 2.58579 4.25 3 4.25H5.25V3C5.25 2.58579 5.58579 2.25 6 2.25H9ZM10.418 6.07129L12.3594 13.3164L13.8086 12.9277L11.8662 5.68262L10.418 6.07129ZM3.75 13.25H5.25V5.75H3.75V13.25ZM6.75 13.25H8.25V3.75H6.75V13.25Z" fill="black"/>
</svg>
