<svg width="16" height="16" viewBox="0 0 16 16" fill="none" xmlns="http://www.w3.org/2000/svg">
<path d="M12.5 1.75C13.7426 1.75 14.75 2.75736 14.75 4C14.75 5.24264 13.7426 6.25 12.5 6.25C11.5207 6.25 10.69 5.62343 10.3809 4.75H5.81055L11.2139 10.1533C11.5784 9.89899 12.0218 9.75 12.5 9.75C13.7426 9.75 14.75 10.7574 14.75 12C14.75 13.2426 13.7426 14.25 12.5 14.25C11.5207 14.25 10.69 13.6234 10.3809 12.75H5.61914C5.31001 13.6234 4.47933 14.25 3.5 14.25C2.25736 14.25 1.25 13.2426 1.25 12C1.25 10.7574 2.25736 9.75 3.5 9.75C4.47933 9.75 5.31001 10.3766 5.61914 11.25H10.1895L4.78516 5.8457C4.42069 6.09995 3.97809 6.25 3.5 6.25C2.25736 6.25 1.25 5.24264 1.25 4C1.25 2.75736 2.25736 1.75 3.5 1.75C4.47933 1.75 5.31001 2.37657 5.61914 3.25H10.3809C10.69 2.37657 11.5207 1.75 12.5 1.75ZM3.5 11.25C3.08579 11.25 2.75 11.5858 2.75 12C2.75 12.4142 3.08579 12.75 3.5 12.75C3.91421 12.75 4.25 12.4142 4.25 12C4.25 11.5858 3.91421 11.25 3.5 11.25ZM12.5 11.25C12.0858 11.25 11.75 11.5858 11.75 12C11.75 12.4142 12.0858 12.75 12.5 12.75C12.9142 12.75 13.25 12.4142 13.25 12C13.25 11.5858 12.9142 11.25 12.5 11.25ZM3.5 3.25C3.08579 3.25 2.75 3.58579 2.75 4C2.75 4.41421 3.08579 4.75 3.5 4.75C3.91421 4.75 4.25 4.41421 4.25 4C4.25 3.58579 3.91421 3.25 3.5 3.25ZM12.5 3.25C12.0858 3.25 11.75 3.58579 11.75 4C11.75 4.41421 12.0858 4.75 12.5 4.75C12.9142 4.75 13.25 4.41421 13.25 4C13.25 3.58579 12.9142 3.25 12.5 3.25Z" fill="black"/>
</svg>
