<svg width="16" height="16" viewBox="0 0 16 16" fill="none" xmlns="http://www.w3.org/2000/svg">
<path d="M7 11.75C7.41421 11.75 7.75 12.0858 7.75 12.5C7.75 12.9142 7.41421 13.25 7 13.25H3C2.58579 13.25 2.25 12.9142 2.25 12.5C2.25 12.0858 2.58579 11.75 3 11.75H7ZM9 8.75C9.41421 8.75 9.75 9.08579 9.75 9.5C9.75 9.91421 9.41421 10.25 9 10.25H5C4.58579 10.25 4.25 9.91421 4.25 9.5C4.25 9.08579 4.58579 8.75 5 8.75H9ZM11 5.75C11.4142 5.75 11.75 6.08579 11.75 6.5C11.75 6.91421 11.4142 7.25 11 7.25H7C6.58579 7.25 6.25 6.91421 6.25 6.5C6.25 6.08579 6.58579 5.75 7 5.75H11ZM13 2.75C13.4142 2.75 13.75 3.08579 13.75 3.5C13.75 3.91421 13.4142 4.25 13 4.25H9C8.58579 4.25 8.25 3.91421 8.25 3.5C8.25 3.08579 8.58579 2.75 9 2.75H13Z" fill="black"/>
</svg>
