<svg width="16" height="16" viewBox="0 0 16 16" fill="none" xmlns="http://www.w3.org/2000/svg"><path fill-rule="evenodd" clip-rule="evenodd" d="M3.75 5C3.75 4.58579 3.41421 4.25 3 4.25C2.58579 4.25 2.25 4.58579 2.25 5V11C2.25 11.4142 2.58579 11.75 3 11.75C3.41421 11.75 3.75 11.4142 3.75 11L3.75 8.99123C3.93427 9.10531 4.15954 9.23403 4.43108 9.3892L6.60618 10.6321C7.39228 11.0813 7.78533 11.3059 8.10763 11.271C8.38877 11.2406 8.64389 11.0925 8.8098 10.8635C9 10.601 9 10.1483 9 9.24292V9.14109C9.12849 9.21628 9.27183 9.29819 9.43108 9.38919L11.6062 10.6321C12.3923 11.0813 12.7853 11.3059 13.1076 11.271C13.3888 11.2406 13.6439 11.0925 13.8098 10.8635C14 10.601 14 10.1483 14 9.24291V6.75709C14 5.85169 14 5.399 13.8098 5.13648C13.6439 4.90747 13.3888 4.75942 13.1076 4.72899C12.7853 4.6941 12.3923 4.9187 11.6062 5.3679L9.43108 6.61081C9.27182 6.70181 9.12849 6.78372 9 6.85891V6.7571C9 5.85171 9 5.39901 8.8098 5.13649C8.64389 4.90748 8.38877 4.75944 8.10763 4.729C7.78533 4.69411 7.39228 4.91871 6.60618 5.36791L4.43108 6.61082C4.15954 6.76599 3.93427 6.89471 3.75 7.00879L3.75 5Z" fill="currentColor"/></svg>