<svg width="16" height="16" viewBox="0 0 16 16" fill="none" xmlns="http://www.w3.org/2000/svg"><path fill-rule="evenodd" clip-rule="evenodd" d="M12.5 11C12.5 11.4142 12.8358 11.75 13.25 11.75C13.6642 11.75 14 11.4142 14 11L14 5C14 4.58579 13.6642 4.25 13.25 4.25C12.8358 4.25 12.5 4.58579 12.5 5L12.5 7.00877C12.3157 6.89469 12.0905 6.76597 11.8189 6.6108L9.64382 5.36789C8.85772 4.91869 8.46467 4.69409 8.14237 4.72898C7.86123 4.75941 7.60611 4.90746 7.4402 5.13646C7.25 5.39899 7.25 5.85168 7.25 6.75708L7.25 6.85891C7.12151 6.78372 6.97818 6.70181 6.81892 6.61081L4.64382 5.3679C3.85772 4.9187 3.46467 4.6941 3.14237 4.72899C2.86123 4.75942 2.60611 4.90747 2.4402 5.13647C2.25 5.399 2.25 5.85169 2.25 6.75709L2.25 9.24291C2.25 10.1483 2.25 10.601 2.4402 10.8635C2.60611 11.0925 2.86123 11.2406 3.14237 11.271C3.46467 11.3059 3.85772 11.0813 4.64382 10.6321L6.81892 9.38919C6.97818 9.29818 7.12151 9.21628 7.25 9.14109L7.25 9.2429C7.25 10.1483 7.25 10.601 7.4402 10.8635C7.60611 11.0925 7.86123 11.2406 8.14237 11.271C8.46467 11.3059 8.85772 11.0813 9.64382 10.6321L11.8189 9.38918C12.0905 9.23401 12.3157 9.10529 12.5 8.99121L12.5 11Z" fill="currentColor"/></svg>