<svg width="16" height="16" viewBox="0 0 16 16" fill="none" xmlns="http://www.w3.org/2000/svg"><path d="M4 5.35289V10.6471C4 11.5797 4 12.046 4.19541 12.3108C4.36577 12.5416 4.62706 12.6881 4.91286 12.7131C5.24067 12.7418 5.63855 12.4987 6.43432 12.0124L10.766 9.36525C11.5046 8.91386 11.8739 8.68816 11.9998 8.3976C12.1098 8.14393 12.1098 7.85607 11.9998 7.6024C11.8739 7.31184 11.5046 7.08614 10.766 6.63475L6.43432 3.98764C5.63855 3.50134 5.24067 3.25819 4.91286 3.28686C4.62706 3.31186 4.36577 3.4584 4.19541 3.68923C4 3.95399 4 4.42029 4 5.35289Z" fill="currentColor"/></svg>