<svg width="16" height="16" viewBox="0 0 16 16" fill="none" xmlns="http://www.w3.org/2000/svg"><path d="M11 1.25C11.4142 1.25 11.75 1.58579 11.75 2V4.25H13C13.4142 4.25 13.75 4.58579 13.75 5C13.75 5.41421 13.4142 5.75 13 5.75H11.75V7.25H13C13.4142 7.25 13.75 7.58579 13.75 8C13.75 8.41421 13.4142 8.75 13 8.75H11.75V10.25H13C13.4142 10.25 13.75 10.5858 13.75 11C13.75 11.4142 13.4142 11.75 13 11.75H11.75V13.25H13C13.4142 13.25 13.75 13.5858 13.75 14C13.75 14.4142 13.4142 14.75 13 14.75H3C2.58579 14.75 2.25 14.4142 2.25 14C2.25 13.5858 2.58579 13.25 3 13.25H4.25V11.75H3C2.58579 11.75 2.25 11.4142 2.25 11C2.25 10.5858 2.58579 10.25 3 10.25H4.25V8.75H3C2.58579 8.75 2.25 8.41421 2.25 8C2.25 7.58579 2.58579 7.25 3 7.25H4.25V5.75H3C2.58579 5.75 2.25 5.41421 2.25 5C2.25 4.58579 2.58579 4.25 3 4.25H4.25V2.75H3C2.58579 2.75 2.25 2.41421 2.25 2C2.25 1.58579 2.58579 1.25 3 1.25H11ZM5.75 13.25H7.25V11.75H5.75V13.25ZM8.75 13.25H10.25V11.75H8.75V13.25ZM5.75 10.25H7.25V8.75H5.75V10.25ZM8.75 10.25H10.25V8.75H8.75V10.25ZM5.75 7.25H7.25V5.75H5.75V7.25ZM8.75 7.25H10.25V5.75H8.75V7.25ZM5.75 4.25H7.25V2.75H5.75V4.25ZM8.75 4.25H10.25V2.75H8.75V4.25Z" fill="currentColor"/></svg>