<svg width="16" height="16" viewBox="0 0 16 16" fill="none" xmlns="http://www.w3.org/2000/svg"><path d="M5.96191 2.04785C7.35931 0.650701 9.62504 0.650719 11.0225 2.04785C12.4199 3.44533 12.42 5.71191 11.0225 7.10938L7.52246 10.6094C6.67725 11.4542 5.30601 11.4535 4.46094 10.6084C3.61657 9.76327 3.61631 8.39282 4.46094 7.54785L7.96191 4.04785C8.25475 3.75526 8.72962 3.75527 9.02246 4.04785C9.31526 4.34067 9.31513 4.81549 9.02246 5.1084L5.52148 8.60938C5.26308 8.86859 5.26305 9.28865 5.52148 9.54785C5.78077 9.80714 6.20249 9.8079 6.46191 9.54883L9.96191 6.04883C10.7736 5.23714 10.7726 3.92008 9.96094 3.1084C9.14927 2.29752 7.83392 2.29718 7.02246 3.1084L3.52246 6.60938C2.15885 7.97334 2.15868 10.185 3.52246 11.5488C4.88635 12.9124 7.09803 12.9124 8.46191 11.5488L12.9619 7.04883C13.2548 6.75594 13.7296 6.75594 14.0225 7.04883C14.3151 7.34174 14.3153 7.81656 14.0225 8.10938L9.52246 12.6094C7.57279 14.5587 4.41158 14.5587 2.46191 12.6094C0.512347 10.6597 0.512518 7.49858 2.46191 5.54883L5.96191 2.04785Z" fill="currentColor"/></svg>