<svg width="16" height="16" viewBox="0 0 16 16" fill="none" xmlns="http://www.w3.org/2000/svg"><path d="M4.5 10.25C4.91421 10.25 5.25 10.5858 5.25 11C5.25 11.4142 4.91421 11.75 4.5 11.75H3C2.58579 11.75 2.25 12.0858 2.25 12.5C2.25 12.9142 2.58579 13.25 3 13.25H4.5C4.91421 13.25 5.25 13.5858 5.25 14C5.25 14.4142 4.91421 14.75 4.5 14.75H3C1.75736 14.75 0.75 13.7426 0.75 12.5C0.75 11.2574 1.75736 10.25 3 10.25H4.5ZM9.5 10.25C9.91421 10.25 10.25 10.5858 10.25 11C10.25 11.4142 9.91421 11.75 9.5 11.75H8.22754L9.77148 12.7793C10.0704 12.9787 10.2498 13.3145 10.25 13.6738C10.25 14.2678 9.76869 14.7497 9.1748 14.75H6.5C6.0858 14.75 5.75 14.4142 5.75 14C5.75 13.5858 6.0858 13.25 6.5 13.25H7.77246L6.22949 12.2207C5.96759 12.0461 5.79724 11.767 5.75879 11.459L5.75 11.3262L5.75586 11.2158C5.81091 10.6734 6.26919 10.25 6.82617 10.25H9.5ZM13.8291 10.665C14.0143 10.2947 14.4646 10.1442 14.835 10.3291C15.2053 10.5143 15.3558 10.9646 15.1709 11.335L13.6709 14.335C13.5439 14.589 13.2841 14.75 13 14.75C12.7159 14.75 12.4561 14.589 12.3291 14.335L10.8291 11.335C10.6442 10.9646 10.7947 10.5143 11.165 10.3291C11.5122 10.1558 11.9294 10.2768 12.1328 10.5977L12.1709 10.665L13 12.3232L13.8291 10.665ZM9.87598 1.25C10.3221 1.25009 10.7515 1.4205 11.0762 1.72656L13.2002 3.72949C13.5509 4.06013 13.75 4.52096 13.75 5.00293V8C13.75 8.41421 13.4142 8.75 13 8.75C12.5858 8.75 12.25 8.41421 12.25 8V5.00293C12.25 4.93423 12.2218 4.86849 12.1719 4.82129L10.0469 2.81836C10.0006 2.7747 9.93961 2.75009 9.87598 2.75H4C3.86193 2.75 3.75 2.86193 3.75 3V8C3.75 8.41421 3.41421 8.75 3 8.75C2.58579 8.75 2.25 8.41421 2.25 8V3C2.25 2.0335 3.0335 1.25 4 1.25H9.87598Z" fill="currentColor"/></svg>