<svg width="16" height="16" viewBox="0 0 16 16" fill="none" xmlns="http://www.w3.org/2000/svg"><path fill-rule="evenodd" clip-rule="evenodd" d="M4 2C3.44772 2 3 2.44772 3 3V13C3 13.5523 3.44772 14 4 14H12C12.5523 14 13 13.5523 13 13V7.03571H10.8333C9.31455 7.03571 8.08333 5.8045 8.08333 4.28571V2H4ZM9.58333 2V4.28571C9.58333 4.97607 10.143 5.53571 10.8333 5.53571H13V5.40599C13 5.14565 12.8985 4.89557 12.717 4.70891L10.3778 2.30292C10.1896 2.10926 9.93095 2 9.66085 2H9.58333Z" fill="currentColor"/></svg>