<svg width="16" height="16" viewBox="0 0 16 16" fill="none" xmlns="http://www.w3.org/2000/svg"><path d="M2.65332 4.3349C2.90128 4.20581 3.20062 4.22546 3.42969 4.38568L8.42969 7.88568C8.63017 8.02602 8.74998 8.25523 8.75 8.49994V13.9999C8.75 14.2805 8.59307 14.5372 8.34375 14.666C8.09443 14.7946 7.79416 14.7738 7.56543 14.6113L2.56543 11.0595C2.36754 10.9189 2.25008 10.6909 2.25 10.4482V4.99994C2.25002 4.72043 2.40548 4.4641 2.65332 4.3349ZM4.39355 2.55853C4.62203 2.24467 5.04859 2.1601 5.37695 2.3515L5.44141 2.39349L10.9414 6.39349C11.1353 6.53463 11.25 6.7601 11.25 6.99994V11.9999C11.25 12.4142 10.9142 12.7499 10.5 12.7499C10.0858 12.7499 9.75 12.4142 9.75 11.9999V7.38177L4.55859 3.60638C4.22383 3.3627 4.14999 2.89344 4.39355 2.55853ZM6.89355 1.05853C7.12203 0.744669 7.54859 0.6601 7.87695 0.851501L7.94141 0.893494L13.4414 4.89349C13.6353 5.03463 13.75 5.2601 13.75 5.49994V10.4999C13.75 10.9142 13.4142 11.2499 13 11.2499C12.5858 11.2499 12.25 10.9142 12.25 10.4999V5.88177L7.05859 2.10638C6.72383 1.8627 6.64999 1.39344 6.89355 1.05853Z" fill="currentColor"/></svg>