<svg width="16" height="16" viewBox="0 0 16 16" fill="none" xmlns="http://www.w3.org/2000/svg"><path d="M4.58203 8.75488C4.80613 8.7728 4.85677 8.83545 4.87695 8.8584C4.93624 8.92598 4.98438 9.0304 5.08594 9.30176C5.16855 9.52251 5.30301 9.9033 5.58105 10.2178C5.89469 10.5724 6.32984 10.7873 6.89941 10.8398C7.53612 10.8991 8.33435 10.757 9.08984 10.5645C9.86756 10.3662 10.6883 10.091 11.4053 9.82715C11.7438 9.70257 11.952 9.6267 12.1055 9.58496C12.1517 9.57239 12.1834 9.56687 12.2031 9.56348C12.2061 9.56598 12.2102 9.57129 12.2168 9.58008C12.2209 9.59828 12.2302 9.63886 12.2363 9.71387C12.2498 9.87797 12.25 10.1046 12.25 10.4678V10.7998C12.25 11.5466 12.249 12.064 12.2178 12.4658C12.1871 12.8599 12.1307 13.0786 12.0527 13.2393C11.88 13.5953 11.6078 13.878 11.2812 14.0527C11.1404 14.1281 10.9455 14.1853 10.5781 14.2168C10.2007 14.2492 9.71305 14.25 9 14.25H7C6.28695 14.25 5.79927 14.2492 5.42188 14.2168C5.05454 14.1853 4.8596 14.1281 4.71875 14.0527C4.39215 13.878 4.12002 13.5953 3.94727 13.2393C3.86928 13.0786 3.81289 12.8599 3.78223 12.4658C3.75096 12.064 3.75 11.5466 3.75 10.7998V9.22852C3.75 9.0557 3.75039 8.97364 3.75586 8.91309C3.75787 8.89095 3.75988 8.8799 3.76074 8.87598C3.7665 8.86724 3.77584 8.85639 3.78613 8.84375C3.79535 8.83243 3.80303 8.82214 3.80957 8.81543C3.81594 8.81377 3.82769 8.81149 3.84766 8.80762C3.87792 8.80175 3.91427 8.79544 3.9707 8.78613C4.1723 8.75288 4.37722 8.74197 4.58203 8.75488ZM7.00781 1.75H9.12891C9.67112 1.75 9.816 1.75556 9.94336 1.78711C10.0746 1.81965 10.2003 1.87268 10.3145 1.94531C10.4251 2.01579 10.5283 2.11804 10.9023 2.51074L11.5742 3.21582C11.9238 3.58293 12.0145 3.68381 12.0771 3.79004C12.1417 3.89949 12.189 4.01882 12.2178 4.14258C12.2456 4.2626 12.25 4.39869 12.25 4.90527V6.04688C12.25 6.23613 12.2494 6.34212 12.2441 6.42188C12.2408 6.47266 12.2366 6.49254 12.2354 6.49707C12.2241 6.52817 12.1966 6.5699 12.1729 6.59277C12.1719 6.59367 12.1695 6.59585 12.1641 6.59961C12.1565 6.60479 12.1413 6.61396 12.1133 6.62891C12.0486 6.66345 11.9605 6.70416 11.7969 6.77734C11.275 7.01076 10.6627 7.26171 10.0898 7.44238C9.48745 7.63236 9.03469 7.70859 8.78613 7.68262H8.7832C8.54642 7.65865 8.43888 7.58435 8.36328 7.50879C8.25808 7.40352 8.17455 7.25648 8.03418 6.98633C7.91337 6.75381 7.7336 6.3927 7.44238 6.09863C7.11935 5.77247 6.69072 5.55247 6.12207 5.49902H6.12109C5.68296 5.45843 5.20661 5.53801 4.78418 5.64551C4.48837 5.72078 4.28552 5.77221 4.13672 5.80469C4.03128 5.82769 3.98384 5.83328 3.97266 5.83496C3.8696 5.8273 3.8379 5.80383 3.83398 5.80078C3.83017 5.79782 3.79614 5.77123 3.76172 5.66211C3.77018 5.68894 3.76024 5.67495 3.75488 5.54492C3.74989 5.4235 3.75 5.25858 3.75 5.00781C3.75 4.02226 3.75686 3.677 3.82812 3.41309C4.03694 2.64038 4.64038 2.03694 5.41309 1.82812C5.677 1.75686 6.02227 1.75 7.00781 1.75Z" stroke="currentColor" stroke-width="1.5" stroke-linecap="round" stroke-linejoin="round"/></svg>