<svg width="16" height="16" viewBox="0 0 16 16" fill="none" xmlns="http://www.w3.org/2000/svg"><path d="M1.65332 5.85568C1.90129 5.72657 2.20061 5.74622 2.42969 5.90646L6.93066 9.05588C7.13107 9.19623 7.25 9.42644 7.25 9.67111V14.0666C7.24992 14.3445 7.09622 14.5998 6.85059 14.7297C6.60494 14.8595 6.30776 14.8431 6.07812 14.6867L1.57715 11.6203C1.37232 11.4807 1.25007 11.2481 1.25 11.0002V6.52072C1.25001 6.24123 1.40552 5.98489 1.65332 5.85568ZM13.5703 5.90646C13.7994 5.74631 14.0988 5.72659 14.3467 5.85568C14.5945 5.98483 14.7499 6.2413 14.75 6.52072V11.0002C14.7499 11.2481 14.6277 11.4807 14.4229 11.6203L9.92285 14.6867C9.69319 14.8432 9.39511 14.8595 9.14941 14.7297C8.90389 14.5998 8.75008 14.3444 8.75 14.0666V9.67111C8.75 9.42641 8.86987 9.19623 9.07031 9.05588L13.5703 5.90646ZM7.68164 0.321503C7.91672 0.211182 8.19552 0.229194 8.41602 0.37619L12.8496 3.33224C13.0556 3.4697 13.1808 3.69983 13.1836 3.94748C13.1863 4.19515 13.0662 4.42851 12.8633 4.57053L8.43066 7.67307C8.17256 7.85362 7.82845 7.85355 7.57031 7.67307L3.13672 4.57053C2.93382 4.42854 2.81373 4.19509 2.81641 3.94748C2.8192 3.69991 2.94451 3.46972 3.15039 3.33224L7.58398 0.37619L7.68164 0.321503Z" fill="currentColor"/></svg>