<svg width="16" height="16" viewBox="0 0 16 16" fill="none" xmlns="http://www.w3.org/2000/svg"><path fill-rule="evenodd" clip-rule="evenodd" d="M14 2.5C14 2.22386 13.7761 2 13.5 2H11.5C11.2239 2 11 2.22386 11 2.5V4.5C11 4.77614 11.2239 5 11.5 5L13.5 5C13.7761 5 14 4.77614 14 4.5V2.5ZM9.5 7C9.5 6.72386 9.27614 6.5 9 6.5L7 6.5C6.72386 6.5 6.5 6.72386 6.5 7V9C6.5 9.27614 6.72386 9.5 7 9.5H9C9.27614 9.5 9.5 9.27614 9.5 9V7ZM5 11.5C5 11.2239 4.77614 11 4.5 11H2.5C2.22386 11 2 11.2239 2 11.5V13.5C2 13.7761 2.22386 14 2.5 14L4.5 14C4.77614 14 5 13.7761 5 13.5V11.5ZM9 11C9.27614 11 9.5 11.2239 9.5 11.5V13.5C9.5 13.7761 9.27614 14 9 14H7C6.72386 14 6.5 13.7761 6.5 13.5V11.5C6.5 11.2239 6.72386 11 7 11H9ZM14 11.5C14 11.2239 13.7761 11 13.5 11H11.5C11.2239 11 11 11.2239 11 11.5V13.5C11 13.7761 11.2239 14 11.5 14L13.5 14C13.7761 14 14 13.7761 14 13.5V11.5ZM13.5 6.5C13.7761 6.5 14 6.72386 14 7V9C14 9.27614 13.7761 9.5 13.5 9.5H11.5C11.2239 9.5 11 9.27614 11 9V7C11 6.72386 11.2239 6.5 11.5 6.5L13.5 6.5Z" fill="currentColor"/></svg>