<svg width="16" height="16" viewBox="0 0 16 16" fill="none" xmlns="http://www.w3.org/2000/svg"><path fill-rule="evenodd" clip-rule="evenodd" d="M3 3.25C2.58579 3.25 2.25 3.58579 2.25 4C2.25 4.41421 2.58579 4.75 3 4.75H13C13.4142 4.75 13.75 4.41421 13.75 4C13.75 3.58579 13.4142 3.25 13 3.25H3ZM13 6H3V13C3 13.5523 3.44772 14 4 14H12C12.5523 14 13 13.5523 13 13V6ZM6.5 8C6.22386 8 6 8.22386 6 8.5C6 8.77614 6.22386 9 6.5 9H9.5C9.77614 9 10 8.77614 10 8.5C10 8.22386 9.77614 8 9.5 8H6.5Z" fill="currentColor"/></svg>