<svg width="16" height="16" viewBox="0 0 16 16" fill="none" xmlns="http://www.w3.org/2000/svg"><path fill-rule="evenodd" clip-rule="evenodd" d="M3.30001 1.75L3.27979 1.75L3.27979 1.75C3.15763 1.74997 3.02518 1.74993 2.91053 1.7593C2.78078 1.7699 2.60935 1.79614 2.43252 1.88624C2.19732 2.00608 2.00609 2.19731 1.88625 2.43251C1.79615 2.60934 1.76991 2.78077 1.75931 2.91053C1.74994 3.02517 1.74997 3.15762 1.75 3.27978L1.75 3.27978L1.75001 3.3V5.7L1.75 5.72022L1.75 5.72022C1.74997 5.84238 1.74994 5.97483 1.75931 6.08947C1.76991 6.21923 1.79615 6.39066 1.88625 6.56749C2.00609 6.80269 2.19732 6.99392 2.43252 7.11376C2.60935 7.20386 2.78078 7.23009 2.91053 7.2407C3.02518 7.25006 3.15763 7.25003 3.27979 7.25L3.30001 7.25H5.70001L5.72022 7.25C5.84238 7.25003 5.97483 7.25006 6.08948 7.2407C6.21924 7.23009 6.39067 7.20386 6.56749 7.11376C6.8027 6.99392 6.99392 6.80269 7.11376 6.56749C7.20386 6.39066 7.2301 6.21923 7.2407 6.08947C7.25007 5.97483 7.25004 5.84237 7.25001 5.72021L7.25001 5.7V3.3L7.25001 3.27979C7.25004 3.15762 7.25007 3.02517 7.2407 2.91053C7.2301 2.78077 7.20386 2.60934 7.11376 2.43251C6.99392 2.19731 6.8027 2.00608 6.56749 1.88624C6.39067 1.79614 6.21924 1.7699 6.08948 1.7593C5.97483 1.74993 5.84239 1.74997 5.72023 1.75L5.72022 1.75L5.70001 1.75H3.30001ZM3.25001 3.3L3.25002 3.25001L3.30001 3.25H5.70001L5.74999 3.25001L5.75001 3.3V5.7L5.74999 5.74998L5.70001 5.75H3.30001L3.25002 5.74998L3.25001 5.7V3.3ZM11.5 8.75C11.9142 8.75 12.25 9.08578 12.25 9.5V10.75H13.5C13.9142 10.75 14.25 11.0858 14.25 11.5C14.25 11.9142 13.9142 12.25 13.5 12.25H12.25V13.5C12.25 13.9142 11.9142 14.25 11.5 14.25C11.0858 14.25 10.75 13.9142 10.75 13.5V12.25H9.50002C9.08581 12.25 8.75002 11.9142 8.75002 11.5C8.75002 11.0858 9.08581 10.75 9.50002 10.75H10.75V9.5C10.75 9.08578 11.0858 8.75 11.5 8.75ZM3.2798 8.75L3.30001 8.75H5.70001L5.72023 8.75C5.84239 8.74997 5.97484 8.74994 6.08949 8.7593C6.21924 8.7699 6.39067 8.79614 6.5675 8.88624C6.8027 9.00608 6.99393 9.19731 7.11377 9.43251C7.20387 9.60934 7.23011 9.78077 7.24071 9.91053C7.25008 10.0252 7.25005 10.1576 7.25002 10.2798L7.25001 10.3V12.7L7.25002 12.7202C7.25005 12.8424 7.25008 12.9748 7.24071 13.0895C7.23011 13.2192 7.20387 13.3907 7.11377 13.5675C6.99393 13.8027 6.8027 13.9939 6.5675 14.1138C6.39067 14.2039 6.21924 14.2301 6.08949 14.2407C5.97484 14.2501 5.84239 14.25 5.72023 14.25L5.70001 14.25H3.30001L3.2798 14.25C3.15764 14.25 3.02519 14.2501 2.91054 14.2407C2.78078 14.2301 2.60935 14.2039 2.43252 14.1138C2.19732 13.9939 2.0061 13.8027 1.88625 13.5675C1.79616 13.3907 1.76992 13.2192 1.75932 13.0895C1.74995 12.9748 1.74998 12.8424 1.75001 12.7202L1.75001 12.7V10.3L1.75001 10.2798C1.74998 10.1576 1.74995 10.0252 1.75932 9.91053C1.76992 9.78077 1.79616 9.60934 1.88625 9.43251C2.0061 9.19731 2.19732 9.00608 2.43252 8.88624C2.60935 8.79614 2.78078 8.7699 2.91054 8.7593C3.02519 8.74994 3.15764 8.74997 3.2798 8.75ZM3.25003 10.25L3.25001 10.3V12.7L3.25003 12.75L3.30001 12.75H5.70001L5.75 12.75L5.75001 12.7V10.3L5.75 10.25L5.70001 10.25H3.30001L3.25003 10.25ZM10.3 1.75L10.2798 1.75C10.1576 1.74997 10.0252 1.74994 9.91053 1.7593C9.78077 1.76991 9.60934 1.79614 9.43251 1.88624C9.19731 2.00608 9.00608 2.19731 8.88624 2.43251C8.79614 2.60934 8.7699 2.78077 8.7593 2.91053C8.74994 3.02517 8.74997 3.15762 8.75 3.27978L8.75 3.3V5.7L8.75 5.72022C8.74997 5.84238 8.74994 5.97483 8.7593 6.08947C8.7699 6.21923 8.79614 6.39066 8.88624 6.56749C9.00608 6.80269 9.19731 6.99392 9.43251 7.11376C9.60934 7.20386 9.78077 7.2301 9.91053 7.2407C10.0252 7.25007 10.1576 7.25003 10.2798 7.25L10.3 7.25H12.7L12.7202 7.25C12.8424 7.25003 12.9748 7.25007 13.0895 7.2407C13.2192 7.2301 13.3907 7.20386 13.5675 7.11376C13.8027 6.99392 13.9939 6.80269 14.1138 6.56749C14.2039 6.39066 14.2301 6.21923 14.2407 6.08947C14.2501 5.97483 14.25 5.84238 14.25 5.72022L14.25 5.7V3.3L14.25 3.27979C14.25 3.15763 14.2501 3.02517 14.2407 2.91053C14.2301 2.78077 14.2039 2.60934 14.1138 2.43251C13.9939 2.19731 13.8027 2.00608 13.5675 1.88624C13.3907 1.79614 13.2192 1.76991 13.0895 1.7593C12.9748 1.74994 12.8424 1.74997 12.7202 1.75L12.7 1.75H10.3ZM10.25 3.3L10.25 3.25002L10.3 3.25H12.7L12.75 3.25002L12.75 3.3V5.7L12.75 5.74999L12.7 5.75H10.3L10.25 5.74999L10.25 5.7V3.3Z" fill="currentColor"/></svg>