<svg width="16" height="16" viewBox="0 0 16 16" fill="none" xmlns="http://www.w3.org/2000/svg"><path d="M3 5.91602C3.414 5.91602 3.74965 6.2521 3.75 6.66602V12.25H10.667C11.081 12.2502 11.4168 12.586 11.417 13C11.4168 13.414 11.0809 13.7498 10.667 13.75H3C2.58589 13.75 2.25018 13.4141 2.25 13V6.66602C2.25035 6.2521 2.586 5.91602 3 5.91602ZM14 2.58301C14.4141 2.58301 14.7498 2.91894 14.75 3.33301V10.166C14.75 10.5802 14.4142 10.916 14 10.916H5.83301C5.41894 10.9158 5.08301 10.5801 5.08301 10.166V3.33301C5.08318 2.91905 5.41905 2.58318 5.83301 2.58301H14ZM6.58301 9.41602H13.25V4.08301H6.58301V9.41602Z" fill="currentColor"/></svg>