<svg width="16" height="16" viewBox="0 0 16 16" fill="none" xmlns="http://www.w3.org/2000/svg"><path d="M12.5 7H3.5C3.03406 7 2.80109 7 2.61732 6.92388C2.37229 6.82239 2.17761 6.62771 2.07612 6.38268C2 6.19891 2 5.96594 2 5.5C2 5.03406 2 4.80109 2.07612 4.61732C2.17761 4.37229 2.37229 4.17761 2.61732 4.07612C2.80109 4 3.03406 4 3.5 4H12.5C12.9659 4 13.1989 4 13.3827 4.07612C13.6277 4.17761 13.8224 4.37229 13.9239 4.61732C14 4.80109 14 5.03406 14 5.5C14 5.96594 14 6.19891 13.9239 6.38268C13.8224 6.62771 13.6277 6.82239 13.3827 6.92388C13.1989 7 12.9659 7 12.5 7Z" fill="currentColor"/><path d="M12.5 12H3.5C3.03406 12 2.80109 12 2.61732 11.9239C2.37229 11.8224 2.17761 11.6277 2.07612 11.3827C2 11.1989 2 10.9659 2 10.5C2 10.0341 2 9.80109 2.07612 9.61732C2.17761 9.37229 2.37229 9.17761 2.61732 9.07612C2.80109 9 3.03406 9 3.5 9H12.5C12.9659 9 13.1989 9 13.3827 9.07612C13.6277 9.17761 13.8224 9.37229 13.9239 9.61732C14 9.80109 14 10.0341 14 10.5C14 10.9659 14 11.1989 13.9239 11.3827C13.8224 11.6277 13.6277 11.8224 13.3827 11.9239C13.1989 12 12.9659 12 12.5 12Z" fill="currentColor"/></svg>