<svg width="16" height="16" viewBox="0 0 16 16" fill="none" xmlns="http://www.w3.org/2000/svg"><path fill-rule="evenodd" clip-rule="evenodd" d="M13 10.75C13.4142 10.75 13.75 11.0858 13.75 11.5V12.25H14.5C14.9142 12.25 15.25 12.5858 15.25 13C15.25 13.4142 14.9142 13.75 14.5 13.75H13.75V14.5C13.75 14.9142 13.4142 15.25 13 15.25C12.5858 15.25 12.25 14.9142 12.25 14.5V13.75H11.5C11.0858 13.75 10.75 13.4142 10.75 13C10.75 12.5858 11.0858 12.25 11.5 12.25H12.25V11.5C12.25 11.0858 12.5858 10.75 13 10.75ZM2.84473 11.1357C3.04594 10.7738 3.50225 10.6436 3.86426 10.8447L8.36426 13.3447C8.72616 13.5459 8.85635 14.0022 8.65527 14.3642C8.45407 14.7262 7.99779 14.8564 7.63574 14.6553L3.13574 12.1553C2.7738 11.954 2.6436 11.4978 2.84473 11.1357ZM12.1357 7.34471C12.4978 7.14362 12.9541 7.27382 13.1553 7.63573C13.3564 7.99775 13.2262 8.45405 12.8643 8.65526L8.36426 11.1553C8.13774 11.2811 7.86226 11.2811 7.63574 11.1553L3.13574 8.65526C2.7738 8.45404 2.6436 7.99775 2.84473 7.63573C3.04594 7.27381 3.50225 7.14361 3.86426 7.34471L8 9.64159L12.1357 7.34471ZM7.72266 1.30272C7.93019 1.22017 8.16609 1.23463 8.36426 1.34471L12.8643 3.84471C13.1022 3.977 13.25 4.2277 13.25 4.49999C13.25 4.77229 13.1022 5.02295 12.8643 5.15526L8.36426 7.65526C8.13774 7.7811 7.86226 7.78111 7.63574 7.65526L3.13574 5.15526C2.89776 5.02296 2.75 4.77229 2.75 4.49999C2.75002 4.2277 2.89776 3.977 3.13574 3.84471L7.63574 1.34471L7.72266 1.30272ZM5.04297 4.49999L8 6.14159L10.9561 4.49999L8 2.85741L5.04297 4.49999Z" fill="currentColor"/></svg>