<svg width="16" height="16" viewBox="0 0 16 16" fill="none" xmlns="http://www.w3.org/2000/svg"><path fill-rule="evenodd" clip-rule="evenodd" d="M1.25 4C1.25 3.58579 1.58579 3.25 2 3.25H4C4.41421 3.25 4.75 3.58579 4.75 4C4.75 4.41421 4.41421 4.75 4 4.75H2C1.58579 4.75 1.25 4.41421 1.25 4ZM1.25 7C1.25 6.58579 1.58579 6.25 2 6.25H3C3.41421 6.25 3.75 6.58579 3.75 7C3.75 7.41421 3.41421 7.75 3 7.75H2C1.58579 7.75 1.25 7.41421 1.25 7ZM2 9.25C1.58579 9.25 1.25 9.58579 1.25 10C1.25 10.4142 1.58579 10.75 2 10.75H4C4.41421 10.75 4.75 10.4142 4.75 10C4.75 9.58579 4.41421 9.25 4 9.25H2ZM1.25 13C1.25 12.5858 1.58579 12.25 2 12.25H6C6.41421 12.25 6.75 12.5858 6.75 13C6.75 13.4142 6.41421 13.75 6 13.75H2C1.58579 13.75 1.25 13.4142 1.25 13ZM6.75 7.27273C6.75 5.87946 7.87947 4.75 9.27273 4.75C10.666 4.75 11.7955 5.87946 11.7955 7.27273C11.7955 8.666 10.666 9.79546 9.27273 9.79546C7.87947 9.79546 6.75 8.666 6.75 7.27273ZM9.27273 3.25C7.05104 3.25 5.25 5.05104 5.25 7.27273C5.25 9.49442 7.05104 11.2955 9.27273 11.2955C10.1126 11.2955 10.8923 11.0381 11.5373 10.598L13.4697 12.5303C13.7626 12.8232 14.2374 12.8232 14.5303 12.5303C14.8232 12.2374 14.8232 11.7626 14.5303 11.4697L12.598 9.53731C13.0381 8.89226 13.2955 8.11255 13.2955 7.27273C13.2955 5.05104 11.4944 3.25 9.27273 3.25Z" fill="currentColor"/></svg>