<svg width="16" height="16" viewBox="0 0 16 16" fill="none" xmlns="http://www.w3.org/2000/svg"><path fill-rule="evenodd" clip-rule="evenodd" d="M10.5298 1.99999L10.55 1.99999H12.95L12.9702 1.99999C13.0924 1.99996 13.2248 1.99993 13.3395 2.00929C13.4692 2.0199 13.6407 2.04613 13.8175 2.13623C14.0527 2.25607 14.2439 2.4473 14.3638 2.6825C14.4539 2.85933 14.4801 3.03076 14.4907 3.16052C14.5001 3.27516 14.5 3.40762 14.5 3.52978L14.5 3.54999V5.94999L14.5 5.97021C14.5 6.09237 14.5001 6.22482 14.4907 6.33946C14.4801 6.46922 14.4539 6.64065 14.3638 6.81748C14.2439 7.05268 14.0527 7.24391 13.8175 7.36375C13.6407 7.45385 13.4692 7.48009 13.3395 7.49069C13.2248 7.50006 13.0924 7.50002 12.9702 7.49999L12.95 7.49999H10.55L10.5298 7.49999C10.4076 7.50002 10.2752 7.50006 10.1605 7.49069C10.0308 7.48009 9.85934 7.45385 9.68251 7.36375C9.44731 7.24391 9.25608 7.05268 9.13624 6.81748C9.04614 6.64065 9.0199 6.46922 9.0093 6.33946C8.99994 6.22482 8.99997 6.09237 9 5.97021L9 5.94999V3.54999L9 3.52977C8.99997 3.40761 8.99994 3.27516 9.0093 3.16052C9.0199 3.03076 9.04614 2.85933 9.13624 2.6825C9.25608 2.4473 9.44731 2.25607 9.68251 2.13623C9.85934 2.04613 10.0308 2.0199 10.1605 2.00929C10.2752 1.99993 10.4076 1.99996 10.5298 1.99999ZM10.5 3.50001L10.5 3.54999V5.94999L10.5 5.99998L10.55 5.99999H12.95L13 5.99998L13 5.94999V3.54999L13 3.50001L12.95 3.49999H10.55L10.5 3.50001ZM3.55001 2L3.52979 1.99999L3.52979 1.99999C3.40763 1.99997 3.27518 1.99993 3.16053 2.0093C3.03078 2.0199 2.85935 2.04614 2.68252 2.13624C2.44732 2.25608 2.25609 2.44731 2.13625 2.68251C2.04615 2.85934 2.01991 3.03077 2.00931 3.16052C1.99994 3.27517 1.99997 3.40762 2 3.52978L2 3.52978L2.00001 3.55V5.95L2 5.97021L2 5.97022C1.99997 6.09238 1.99994 6.22483 2.00931 6.33947C2.01991 6.46923 2.04615 6.64066 2.13625 6.81749C2.25609 7.05269 2.44732 7.24391 2.68252 7.36376C2.85935 7.45386 3.03078 7.48009 3.16053 7.49069C3.27518 7.50006 3.40763 7.50003 3.52979 7.5L3.55001 7.5H5.95001L5.97022 7.5C6.09238 7.50003 6.22483 7.50006 6.33948 7.49069C6.46924 7.48009 6.64067 7.45386 6.81749 7.36376C7.0527 7.24391 7.24392 7.05269 7.36376 6.81749C7.45386 6.64066 7.4801 6.46923 7.4907 6.33947C7.50007 6.22482 7.50004 6.09237 7.50001 5.97021L7.50001 5.95V3.55L7.50001 3.52978C7.50004 3.40762 7.50007 3.27517 7.4907 3.16052C7.4801 3.03077 7.45386 2.85934 7.36376 2.68251C7.24392 2.44731 7.0527 2.25608 6.81749 2.13624C6.64067 2.04614 6.46924 2.0199 6.33948 2.0093C6.22483 1.99993 6.09239 1.99997 5.97023 1.99999L5.97022 1.99999L5.95001 2H3.55001ZM3.50001 3.55L3.50002 3.50001L3.55001 3.5H5.95001L5.99999 3.50001L6.00001 3.55V5.95L5.99999 5.99998L5.95001 6H3.55001L3.50002 5.99998L3.50001 5.95V3.55ZM3.55001 9L3.52979 8.99999C3.40763 8.99997 3.27518 8.99993 3.16053 9.0093C3.03078 9.0199 2.85935 9.04614 2.68252 9.13624C2.44732 9.25608 2.25609 9.44731 2.13625 9.68251C2.04615 9.85934 2.01991 10.0308 2.00931 10.1605C1.99994 10.2752 1.99997 10.4076 2 10.5298L2.00001 10.55V12.95L2 12.9702C1.99997 13.0924 1.99994 13.2248 2.00931 13.3395C2.01991 13.4692 2.04615 13.6407 2.13625 13.8175C2.25609 14.0527 2.44732 14.2439 2.68252 14.3638C2.85935 14.4539 3.03078 14.4801 3.16053 14.4907C3.27518 14.5001 3.40763 14.5 3.52979 14.5L3.55001 14.5H5.95001L5.97022 14.5C6.09238 14.5 6.22483 14.5001 6.33948 14.4907C6.46924 14.4801 6.64067 14.4539 6.81749 14.3638C7.0527 14.2439 7.24392 14.0527 7.36376 13.8175C7.45386 13.6407 7.4801 13.4692 7.4907 13.3395C7.50007 13.2248 7.50004 13.0924 7.50001 12.9702L7.50001 12.95V10.55L7.50001 10.5298C7.50004 10.4076 7.50007 10.2752 7.4907 10.1605C7.4801 10.0308 7.45386 9.85934 7.36376 9.68251C7.24392 9.44731 7.0527 9.25608 6.81749 9.13624C6.64067 9.04614 6.46924 9.0199 6.33948 9.0093C6.22483 8.99993 6.09238 8.99997 5.97022 8.99999L5.95001 9H3.55001ZM3.50001 10.55L3.50002 10.5L3.55001 10.5H5.95001L5.99999 10.5L6.00001 10.55V12.95L5.99999 13L5.95001 13H3.55001L3.50002 13L3.50001 12.95V10.55ZM10.55 8.99999L10.5298 8.99999C10.4076 8.99996 10.2752 8.99993 10.1605 9.00929C10.0308 9.0199 9.85934 9.04613 9.68251 9.13623C9.44731 9.25607 9.25608 9.4473 9.13624 9.6825C9.04614 9.85933 9.0199 10.0308 9.0093 10.1605C8.99994 10.2752 8.99997 10.4076 9 10.5298L9 10.55V12.95L9 12.9702C8.99997 13.0924 8.99994 13.2248 9.0093 13.3395C9.0199 13.4692 9.04614 13.6407 9.13624 13.8175C9.25608 14.0527 9.44731 14.2439 9.68251 14.3637C9.85934 14.4538 10.0308 14.4801 10.1605 14.4907C10.2752 14.5001 10.4076 14.5 10.5298 14.5L10.55 14.5H12.95L12.9702 14.5C13.0924 14.5 13.2248 14.5001 13.3395 14.4907C13.4692 14.4801 13.6407 14.4538 13.8175 14.3637C14.0527 14.2439 14.2439 14.0527 14.3638 13.8175C14.4539 13.6407 14.4801 13.4692 14.4907 13.3395C14.5001 13.2248 14.5 13.0924 14.5 12.9702L14.5 12.95V10.55L14.5 10.5298C14.5 10.4076 14.5001 10.2752 14.4907 10.1605C14.4801 10.0308 14.4539 9.85933 14.3638 9.6825C14.2439 9.4473 14.0527 9.25607 13.8175 9.13623C13.6407 9.04613 13.4692 9.0199 13.3395 9.00929C13.2248 8.99993 13.0924 8.99996 12.9702 8.99999L12.95 8.99999H10.55ZM10.5 10.55L10.5 10.5L10.55 10.5H12.95L13 10.5L13 10.55V12.95L13 13L12.95 13H10.55L10.5 13L10.5 12.95V10.55Z" fill="currentColor"/></svg>