<svg width="16" height="16" viewBox="0 0 16 16" fill="none" xmlns="http://www.w3.org/2000/svg">
<mask id="path-1-outside-1_1109_1224" maskUnits="userSpaceOnUse" x="1" y="1" width="14" height="14" fill="black">
<rect fill="white" x="1" y="1" width="14" height="14"/>
<path d="M8 5H11V8H14V11H11V14H8V11H5V8H2V5H5V2H8V5Z"/>
</mask>
<path d="M8 5H11V8H14V11H11V14H8V11H5V8H2V5H5V2H8V5Z" fill="#333333"/>
<path d="M8 5H7C7 5.55228 7.44772 6 8 6V5ZM11 5H12C12 4.44772 11.5523 4 11 4V5ZM11 8H10C10 8.55228 10.4477 9 11 9V8ZM14 8H15C15 7.44772 14.5523 7 14 7V8ZM14 11V12C14.5523 12 15 11.5523 15 11H14ZM11 11V10C10.4477 10 10 10.4477 10 11H11ZM11 14V15C11.5523 15 12 14.5523 12 14H11ZM8 14H7C7 14.5523 7.44772 15 8 15V14ZM8 11H9C9 10.4477 8.55228 10 8 10V11ZM5 11H4C4 11.5523 4.44772 12 5 12V11ZM5 8H6C6 7.44772 5.55228 7 5 7V8ZM2 8H1C1 8.55228 1.44772 9 2 9V8ZM2 5V4C1.44772 4 1 4.44772 1 5H2ZM5 5V6C5.55228 6 6 5.55228 6 5H5ZM5 2V1C4.44772 1 4 1.44772 4 2H5ZM8 2H9C9 1.44772 8.55228 1 8 1V2ZM8 5V6H11V5V4H8V5ZM11 5H10V8H11H12V5H11ZM11 8V9H14V8V7H11V8ZM14 8H13V11H14H15V8H14ZM14 11V10H11V11V12H14V11ZM11 11H10V14H11H12V11H11ZM11 14V13H8V14V15H11V14ZM8 14H9V11H8H7V14H8ZM8 11V10H5V11V12H8V11ZM5 11H6V8H5H4V11H5ZM5 8V7H2V8V9H5V8ZM2 8H3V5H2H1V8H2ZM2 5V6H5V5V4H2V5ZM5 5H6V2H5H4V5H5ZM5 2V3H8V2V1H5V2ZM8 2H7V5H8H9V2H8Z" fill="#E6E6E6" mask="url(#path-1-outside-1_1109_1224)"/>
<path d="M5 8H8V11H5V8Z" fill="#1F3AB5"/>
<path d="M8 11H11V14H8V11Z" fill="#2D52D2"/>
<path d="M8 8H11V11H8V8Z" fill="#8BDBFE"/>
<path d="M8 5H11V8H8V5Z" fill="#3B6DE6"/>
<path d="M5 5H8V8H5V5Z" fill="#BFEFFF"/>
<path d="M5 2H8V5H5V2Z" fill="#001E55"/>
<path d="M11 8H14V11H11V8Z" fill="#4FA8FB"/>
<path d="M2 5H5V8H2V5Z" fill="#3B6DE6"/>
</svg>
