<svg width="16" height="16" viewBox="0 0 16 16" fill="none" xmlns="http://www.w3.org/2000/svg">
<rect x="4" y="5" width="8" height="7" rx="0.5" fill="#E6E6E6"/>
<mask id="path-2-outside-1_1101_1049" maskUnits="userSpaceOnUse" x="1.70172" y="1.13159" width="13" height="11" fill="black">
<rect fill="white" x="1.70172" y="1.13159" width="13" height="11"/>
<path fill-rule="evenodd" clip-rule="evenodd" d="M8.28153 2.20957L3.26067 5.39935C3.12936 5.48277 3.04436 5.62256 3.03071 5.77753L2.72464 9.25415C2.71279 9.38877 2.82737 9.50003 2.96251 9.50003C3.23865 9.50003 3.4802 9.54842 3.69368 9.62781C4.08947 9.77502 4.62198 9.57838 4.65899 9.15772L4.86844 6.7765C4.89264 6.50142 5.13525 6.29804 5.41033 6.32224L6.58722 6.42576C6.8623 6.44996 7.06568 6.69257 7.04149 6.96765L6.87876 8.8176C6.84134 9.24303 7.35967 9.55446 7.78452 9.51101C7.85488 9.50382 7.92762 9.50003 8.00286 9.50003C8.95982 9.50003 9.52819 10.1129 9.93832 10.5552C10.1698 10.8049 10.3509 11.0002 10.523 11.0001C10.7154 11.0001 10.9859 10.756 11.3087 10.4647C11.786 10.0339 12.3776 9.50003 13 9.50003C13.0008 9.50003 13.0015 9.49943 13.0015 9.49865L13.2503 6.67074C13.2636 6.51903 13.2071 6.3695 13.0967 6.26456L8.89416 2.26922C8.72784 2.11111 8.47523 2.08651 8.28153 2.20957Z"/>
</mask>
<path d="M3.26067 5.39935L2.72443 4.55528L2.72443 4.55528L3.26067 5.39935ZM8.28153 2.20957L7.74529 1.3655V1.3655L8.28153 2.20957ZM3.03071 5.77753L2.03457 5.68983L3.03071 5.77753ZM4.86844 6.7765L5.8646 6.86413L4.86844 6.7765ZM5.41033 6.32224L5.49795 5.32608V5.32608L5.41033 6.32224ZM6.58722 6.42576L6.4996 7.42191V7.42191L6.58722 6.42576ZM7.04149 6.96765L6.04533 6.88002V6.88002L7.04149 6.96765ZM9.93832 10.5552L10.6716 9.87525H10.6716L9.93832 10.5552ZM10.523 11.0001L10.5228 10.0001V10.0001L10.523 11.0001ZM11.3087 10.4647L10.6387 9.72233L10.6387 9.72233L11.3087 10.4647ZM13.2503 6.67074L12.2541 6.58312V6.58312L13.2503 6.67074ZM13.0967 6.26456L13.7857 5.53981L13.7857 5.53981L13.0967 6.26456ZM8.89416 2.26922L8.20514 2.99397L8.20514 2.99397L8.89416 2.26922ZM13.0015 9.49865L13.9977 9.58627L13.0015 9.49865ZM6.87876 8.8176L7.87492 8.90522L6.87876 8.8176ZM7.78452 9.51101L7.68278 8.5162L7.78452 9.51101ZM3.69368 9.62781L4.04227 8.69054L3.69368 9.62781ZM2.72464 9.25415L1.72849 9.16645L2.72464 9.25415ZM3.26067 5.39935L3.79691 6.24341L8.81777 3.05363L8.28153 2.20957L7.74529 1.3655L2.72443 4.55528L3.26067 5.39935ZM3.03071 5.77753L4.02686 5.86523C4.01322 6.0202 3.92822 6.15999 3.79691 6.24341L3.26067 5.39935L2.72443 4.55528C2.33049 4.80555 2.0755 5.22492 2.03457 5.68983L3.03071 5.77753ZM2.72464 9.25415L3.72079 9.34185L4.02686 5.86523L3.03071 5.77753L2.03457 5.68983L1.72849 9.16645L2.72464 9.25415ZM3.69368 9.62781L4.04227 8.69054C3.7187 8.5702 3.35919 8.50003 2.96251 8.50003V9.50003V10.5C3.1181 10.5 3.24169 10.5266 3.34509 10.5651L3.69368 9.62781ZM4.86844 6.7765L3.87229 6.68888L3.66283 9.0701L4.65899 9.15772L5.65514 9.24535L5.8646 6.86413L4.86844 6.7765ZM5.41033 6.32224L5.49795 5.32608C4.67271 5.25349 3.94488 5.86364 3.87229 6.68888L4.86844 6.7765L5.8646 6.86413C5.8404 7.13921 5.59779 7.34259 5.32271 7.31839L5.41033 6.32224ZM6.58722 6.42576L6.67485 5.42961L5.49795 5.32608L5.41033 6.32224L5.32271 7.31839L6.4996 7.42191L6.58722 6.42576ZM7.04149 6.96765L8.03764 7.05527C8.11023 6.23003 7.50008 5.5022 6.67485 5.42961L6.58722 6.42576L6.4996 7.42191C6.22452 7.39772 6.02114 7.15511 6.04533 6.88002L7.04149 6.96765ZM6.87876 8.8176L7.87492 8.90522L8.03764 7.05527L7.04149 6.96765L6.04533 6.88002L5.88261 8.72997L6.87876 8.8176ZM8.00286 9.50003V8.50003C7.89397 8.50003 7.78727 8.50551 7.68278 8.5162L7.78452 9.51101L7.88627 10.5058C7.92249 10.5021 7.96126 10.5 8.00286 10.5V9.50003ZM9.93832 10.5552L10.6716 9.87525C10.2806 9.45366 9.44148 8.50003 8.00286 8.50003V9.50003V10.5C8.47816 10.5 8.77576 10.7722 9.20507 11.2352L9.93832 10.5552ZM10.523 11.0001L10.5228 10.0001C10.6727 10.0001 10.7819 10.0431 10.8357 10.0697C10.8864 10.0948 10.9075 10.1151 10.8943 10.1041C10.883 10.0946 10.8595 10.0733 10.8182 10.031C10.7769 9.98878 10.7316 9.93995 10.6716 9.87525L9.93832 10.5552L9.20507 11.2352C9.30619 11.3442 9.45655 11.5089 9.61157 11.6385C9.74666 11.7514 10.0685 12.0002 10.5232 12.0001L10.523 11.0001ZM11.3087 10.4647L10.6387 9.72233C10.5563 9.79671 10.4868 9.85935 10.4223 9.91518C10.3577 9.97116 10.3095 10.0102 10.2731 10.037C10.234 10.0659 10.2289 10.0654 10.2506 10.055C10.2672 10.0471 10.3669 10.0001 10.5228 10.0001L10.523 11.0001L10.5232 12.0001C10.977 12 11.3284 11.7439 11.4608 11.6462C11.641 11.5132 11.8294 11.3418 11.9786 11.2071L11.3087 10.4647ZM13 9.50003V8.50003C12.4074 8.50003 11.908 8.75064 11.5512 8.98486C11.1906 9.22153 10.867 9.51631 10.6387 9.72233L11.3087 10.4647L11.9786 11.2071C12.2277 10.9824 12.4385 10.7948 12.6487 10.6568C12.8627 10.5164 12.9703 10.5 13 10.5V9.50003ZM13.2503 6.67074L12.2541 6.58312L12.0054 9.41103L13.0015 9.49865L13.9977 9.58627L14.2464 6.75837L13.2503 6.67074ZM13.0967 6.26456L12.4077 6.9893C12.2973 6.88437 12.2408 6.73484 12.2541 6.58312L13.2503 6.67074L14.2464 6.75837C14.2865 6.30321 14.1169 5.85463 13.7857 5.53981L13.0967 6.26456ZM8.89416 2.26922L8.20514 2.99397L12.4077 6.98931L13.0967 6.26456L13.7857 5.53981L9.58317 1.54448L8.89416 2.26922ZM8.28153 2.20957L8.81777 3.05363C8.62407 3.17669 8.37146 3.15209 8.20514 2.99397L8.89416 2.26922L9.58317 1.54448C9.08421 1.07012 8.3264 0.99632 7.74529 1.3655L8.28153 2.20957ZM13 9.50003V10.5C13.5183 10.5 13.9521 10.1043 13.9977 9.58627L13.0015 9.49865L12.0054 9.41103C12.0508 8.8946 12.4834 8.50003 13 8.50003V9.50003ZM6.87876 8.8176L5.88261 8.72997C5.82262 9.412 6.22084 9.90254 6.58175 10.1572C6.94165 10.4112 7.41566 10.554 7.88627 10.5058L7.78452 9.51101L7.68278 8.5162C7.69963 8.51448 7.71091 8.51508 7.71641 8.5156C7.72199 8.51613 7.72446 8.51684 7.7245 8.51685C7.72458 8.51687 7.72455 8.51684 7.7251 8.5171C7.7256 8.51733 7.72891 8.51889 7.73482 8.52306C7.74369 8.52932 7.77975 8.55659 7.81517 8.61921C7.85439 8.68855 7.88506 8.78985 7.87492 8.90522L6.87876 8.8176ZM3.69368 9.62781L3.34509 10.5651C3.8004 10.7344 4.30357 10.7036 4.71754 10.5193C5.14212 10.3303 5.59665 9.91025 5.65514 9.24535L4.65899 9.15772L3.66283 9.0701C3.67217 8.96388 3.71568 8.86802 3.77279 8.79789C3.82527 8.73345 3.87739 8.70408 3.90421 8.69214C3.94373 8.67455 3.98275 8.6684 4.04227 8.69054L3.69368 9.62781ZM2.72464 9.25415L1.72849 9.16645C1.65882 9.95781 2.31536 10.5 2.96251 10.5V9.50003V8.50003C3.33937 8.50003 3.76675 8.81974 3.72079 9.34185L2.72464 9.25415Z" fill="#E6E6E6" mask="url(#path-2-outside-1_1101_1049)"/>
<path d="M3 10.25C3.58526 10.25 4.04918 10.4761 4.38281 10.707C4.69519 10.9233 4.96301 11.1954 5.13379 11.3662C5.31062 11.543 5.41581 11.6398 5.5 11.7051C5.58419 11.6398 5.68938 11.543 5.86621 11.3662C6.03699 11.1954 6.30481 10.9233 6.61719 10.707C6.95082 10.4761 7.41474 10.25 8 10.25C8.58526 10.25 9.04918 10.4761 9.38281 10.707C9.69519 10.9233 9.96301 11.1954 10.1338 11.3662C10.3106 11.543 10.4158 11.6398 10.5 11.7051C10.5842 11.6398 10.6894 11.543 10.8662 11.3662C11.037 11.1954 11.3048 10.9233 11.6172 10.707C11.9508 10.4761 12.4147 10.25 13 10.25H13.5C14.1904 10.25 14.75 10.8096 14.75 11.5C14.75 12.1904 14.1904 12.75 13.5 12.75H13.0576C13.0525 12.7533 13.046 12.7569 13.0391 12.7617C12.9463 12.826 12.8404 12.9271 12.6338 13.1338C12.463 13.3046 12.1952 13.5767 11.8828 13.793C11.5492 14.0239 11.0853 14.25 10.5 14.25C9.91474 14.25 9.45082 14.0239 9.11719 13.793C8.80481 13.5767 8.53699 13.3046 8.36621 13.1338C8.18905 12.9566 8.08428 12.8592 8 12.7939C7.91572 12.8592 7.81095 12.9566 7.63379 13.1338C7.46301 13.3046 7.19519 13.5767 6.88281 13.793C6.54918 14.0239 6.08526 14.25 5.5 14.25C4.91474 14.25 4.45082 14.0239 4.11719 13.793C3.80481 13.5767 3.53699 13.3046 3.36621 13.1338C3.15955 12.9271 3.05372 12.826 2.96094 12.7617C2.95404 12.7569 2.94749 12.7533 2.94238 12.75H2.5C1.80964 12.75 1.25 12.1904 1.25 11.5C1.25 10.8096 1.80964 10.25 2.5 10.25H3Z" stroke="#E6E6E6"/>
<mask id="path-5-outside-2_1101_1049" maskUnits="userSpaceOnUse" x="0.701721" y="1.13159" width="14" height="12" fill="black">
<rect fill="white" x="0.701721" y="1.13159" width="14" height="12"/>
<path fill-rule="evenodd" clip-rule="evenodd" d="M8.28153 2.20957L3.26067 5.39935C3.12936 5.48277 3.04436 5.62256 3.03071 5.77753L2.70172 9.51446C2.78675 9.50503 2.8737 9.50003 2.96251 9.50003C3.70489 9.50003 4.1973 9.84978 4.56629 10.2115L4.86844 6.7765C4.89264 6.50142 5.13525 6.29804 5.41033 6.32224L6.58722 6.42576C6.8623 6.44996 7.06568 6.69257 7.04149 6.96765L6.78356 9.89989C7.10219 9.6722 7.49562 9.50003 8.00286 9.50003C8.95982 9.50003 9.52819 10.1129 9.93832 10.5552C10.1698 10.8049 10.3509 11.0002 10.523 11.0001C10.7154 11.0001 10.9859 10.756 11.3087 10.4647C11.786 10.0339 12.3776 9.50003 13 9.50003C13.0005 9.50003 13.0009 9.50003 13.0014 9.50003L13.2503 6.67074C13.2636 6.51903 13.2071 6.3695 13.0967 6.26456L8.89416 2.26922C8.72784 2.11111 8.47523 2.08651 8.28153 2.20957Z"/>
</mask>
<path fill-rule="evenodd" clip-rule="evenodd" d="M8.28153 2.20957L3.26067 5.39935C3.12936 5.48277 3.04436 5.62256 3.03071 5.77753L2.70172 9.51446C2.78675 9.50503 2.8737 9.50003 2.96251 9.50003C3.70489 9.50003 4.1973 9.84978 4.56629 10.2115L4.86844 6.7765C4.89264 6.50142 5.13525 6.29804 5.41033 6.32224L6.58722 6.42576C6.8623 6.44996 7.06568 6.69257 7.04149 6.96765L6.78356 9.89989C7.10219 9.6722 7.49562 9.50003 8.00286 9.50003C8.95982 9.50003 9.52819 10.1129 9.93832 10.5552C10.1698 10.8049 10.3509 11.0002 10.523 11.0001C10.7154 11.0001 10.9859 10.756 11.3087 10.4647C11.786 10.0339 12.3776 9.50003 13 9.50003C13.0005 9.50003 13.0009 9.50003 13.0014 9.50003L13.2503 6.67074C13.2636 6.51903 13.2071 6.3695 13.0967 6.26456L8.89416 2.26922C8.72784 2.11111 8.47523 2.08651 8.28153 2.20957Z" fill="#333333"/>
<path d="M3.26067 5.39935L2.72443 4.55528L2.72443 4.55528L3.26067 5.39935ZM8.28153 2.20957L7.74529 1.3655V1.3655L8.28153 2.20957ZM3.03071 5.77753L2.03457 5.68983L3.03071 5.77753ZM2.70172 9.51446L1.70557 9.42677L1.5985 10.643L2.81198 10.5084L2.70172 9.51446ZM4.56629 10.2115L3.86624 10.9256L5.37706 12.4067L5.56245 10.2991L4.56629 10.2115ZM4.86844 6.7765L5.8646 6.86413L4.86844 6.7765ZM5.41033 6.32224L5.49795 5.32608V5.32608L5.41033 6.32224ZM6.58722 6.42576L6.4996 7.42191V7.42191L6.58722 6.42576ZM7.04149 6.96765L6.04533 6.88002V6.88002L7.04149 6.96765ZM6.78356 9.89989L5.78741 9.81227L5.59701 11.9769L7.36496 10.7135L6.78356 9.89989ZM9.93832 10.5552L10.6716 9.87525H10.6716L9.93832 10.5552ZM10.523 11.0001L10.5228 10.0001V10.0001L10.523 11.0001ZM11.3087 10.4647L10.6387 9.72233L10.6387 9.72233L11.3087 10.4647ZM13.0014 9.50003V10.5H13.9173L13.9976 9.58765L13.0014 9.50003ZM13.2503 6.67074L12.2541 6.58312V6.58312L13.2503 6.67074ZM13.0967 6.26456L13.7857 5.53981L13.7857 5.53981L13.0967 6.26456ZM8.89416 2.26922L8.20514 2.99397L8.20514 2.99397L8.89416 2.26922ZM3.26067 5.39935L3.79691 6.24341L8.81777 3.05363L8.28153 2.20957L7.74529 1.3655L2.72443 4.55528L3.26067 5.39935ZM3.03071 5.77753L4.02686 5.86523C4.01322 6.0202 3.92822 6.15999 3.79691 6.24341L3.26067 5.39935L2.72443 4.55528C2.33049 4.80555 2.0755 5.22492 2.03457 5.68983L3.03071 5.77753ZM2.70172 9.51446L3.69787 9.60216L4.02686 5.86523L3.03071 5.77753L2.03457 5.68983L1.70557 9.42677L2.70172 9.51446ZM2.96251 9.50003V8.50003C2.83606 8.50003 2.71229 8.50716 2.59147 8.52056L2.70172 9.51446L2.81198 10.5084C2.8612 10.5029 2.91135 10.5 2.96251 10.5V9.50003ZM4.56629 10.2115L5.26634 9.49742C4.80178 9.042 4.07154 8.50003 2.96251 8.50003V9.50003V10.5C3.33824 10.5 3.59281 10.6576 3.86624 10.9256L4.56629 10.2115ZM4.86844 6.7765L3.87229 6.68888L3.57014 10.1239L4.56629 10.2115L5.56245 10.2991L5.8646 6.86413L4.86844 6.7765ZM5.41033 6.32224L5.49795 5.32608C4.67271 5.25349 3.94488 5.86364 3.87229 6.68888L4.86844 6.7765L5.8646 6.86413C5.8404 7.13921 5.59779 7.34259 5.32271 7.31839L5.41033 6.32224ZM6.58722 6.42576L6.67485 5.42961L5.49795 5.32608L5.41033 6.32224L5.32271 7.31839L6.4996 7.42191L6.58722 6.42576ZM7.04149 6.96765L8.03764 7.05527C8.11023 6.23003 7.50008 5.5022 6.67485 5.42961L6.58722 6.42576L6.4996 7.42191C6.22452 7.39772 6.02114 7.15511 6.04533 6.88002L7.04149 6.96765ZM6.78356 9.89989L7.77972 9.98752L8.03764 7.05527L7.04149 6.96765L6.04533 6.88002L5.78741 9.81227L6.78356 9.89989ZM8.00286 9.50003V8.50003C7.24629 8.50003 6.65386 8.7635 6.20216 9.08628L6.78356 9.89989L7.36496 10.7135C7.55052 10.5809 7.74495 10.5 8.00286 10.5V9.50003ZM9.93832 10.5552L10.6716 9.87525C10.2806 9.45366 9.44148 8.50003 8.00286 8.50003V9.50003V10.5C8.47816 10.5 8.77576 10.7722 9.20507 11.2352L9.93832 10.5552ZM10.523 11.0001L10.5228 10.0001C10.6727 10.0001 10.7819 10.0431 10.8357 10.0697C10.8864 10.0948 10.9075 10.1151 10.8943 10.1041C10.883 10.0946 10.8595 10.0733 10.8182 10.031C10.7769 9.98878 10.7316 9.93995 10.6716 9.87525L9.93832 10.5552L9.20507 11.2352C9.30619 11.3442 9.45655 11.5089 9.61157 11.6385C9.74666 11.7514 10.0685 12.0002 10.5232 12.0001L10.523 11.0001ZM11.3087 10.4647L10.6387 9.72233C10.5563 9.79671 10.4868 9.85935 10.4223 9.91518C10.3577 9.97116 10.3095 10.0102 10.2731 10.037C10.234 10.0659 10.2289 10.0654 10.2506 10.055C10.2672 10.0471 10.3669 10.0001 10.5228 10.0001L10.523 11.0001L10.5232 12.0001C10.977 12 11.3284 11.7439 11.4608 11.6462C11.641 11.5132 11.8294 11.3418 11.9786 11.2071L11.3087 10.4647ZM13 9.50003V8.50003C12.4074 8.50003 11.908 8.75064 11.5512 8.98486C11.1906 9.22153 10.867 9.51631 10.6387 9.72233L11.3087 10.4647L11.9786 11.2071C12.2277 10.9824 12.4385 10.7948 12.6487 10.6568C12.8627 10.5164 12.9703 10.5 13 10.5V9.50003ZM13.0014 9.50003V8.50003C13.0018 8.50003 13.0021 8.50003 13.0017 8.50003C13.0016 8.50003 13.0009 8.50003 13 8.50003V9.50003V10.5C12.9996 10.5 12.9994 10.5 12.9997 10.5C12.9998 10.5 13.0006 10.5 13.0014 10.5V9.50003ZM13.2503 6.67074L12.2541 6.58312L12.0052 9.41241L13.0014 9.50003L13.9976 9.58765L14.2464 6.75837L13.2503 6.67074ZM13.0967 6.26456L12.4077 6.9893C12.2973 6.88437 12.2408 6.73484 12.2541 6.58312L13.2503 6.67074L14.2464 6.75837C14.2865 6.30321 14.1169 5.85463 13.7857 5.53981L13.0967 6.26456ZM8.89416 2.26922L8.20514 2.99397L12.4077 6.98931L13.0967 6.26456L13.7857 5.53981L9.58317 1.54448L8.89416 2.26922ZM8.28153 2.20957L8.81777 3.05363C8.62407 3.17669 8.37146 3.15209 8.20514 2.99397L8.89416 2.26922L9.58317 1.54448C9.08421 1.07012 8.3264 0.99632 7.74529 1.3655L8.28153 2.20957Z" fill="#E6E6E6" mask="url(#path-5-outside-2_1101_1049)"/>
<rect x="9.38318" y="6.67188" width="1.92354" height="1.92354" rx="0.5" transform="rotate(5.02691 9.38318 6.67188)" fill="#E6E6E6"/>
<path d="M13.5 11.5H13C12 11.5 11.5 13 10.5 13C9.5 13 9 11.5 8 11.5C7 11.5 6.5 13 5.5 13C4.5 13 4 11.5 3 11.5H2.5" stroke="#0A7DFF" stroke-width="1.5" stroke-linecap="round" stroke-linejoin="round"/>
</svg>
