<svg width="16" height="16" viewBox="0 0 16 16" fill="none" xmlns="http://www.w3.org/2000/svg">
<path d="M8 1.5C10.973 1.5 13.5 3.70387 13.5 6.55859C13.5 8.66683 12.1754 10.6361 11.0352 11.9678C10.4445 12.6575 9.85643 13.2298 9.41699 13.6289C9.19658 13.8291 9.01134 13.988 8.87988 14.0977C8.81429 14.1524 8.76166 14.1948 8.72461 14.2246L8.72363 14.2256L8.68262 14.2588L8.67969 14.2607L8.66895 14.2695L8.66797 14.2705L8.66406 14.2725V14.2734H8.66309L8.66211 14.2744C8.30023 14.556 7.79269 14.5742 7.41211 14.3271L7.33789 14.2744L7.33594 14.2734V14.2725L7.33203 14.2705L7.33105 14.2695L7.32031 14.2607L7.31738 14.2588L7.27637 14.2256L7.27539 14.2246C7.23834 14.1948 7.18571 14.1524 7.12012 14.0977C6.98866 13.988 6.80342 13.8291 6.58301 13.6289C6.14357 13.2298 5.5555 12.6575 4.96484 11.9678C3.82456 10.6361 2.50005 8.66683 2.5 6.55859C2.5 3.70387 5.02701 1.5 8 1.5Z" stroke="#E6E6E6"/>
<path d="M7.64382 13.879L7.64057 13.8765L7.62934 13.8676L7.58867 13.8351C7.55374 13.807 7.50348 13.7661 7.44011 13.7133C7.3134 13.6076 7.13396 13.4539 6.91934 13.2589C6.4908 12.8697 5.91852 12.3129 5.34486 11.643C4.21745 10.3265 3 8.47622 3 6.55848C3 4.02459 5.25624 2 8 2C10.7438 2 13 4.02459 13 6.55848C13 8.47622 11.7826 10.3265 10.6551 11.643C10.0815 12.3129 9.5092 12.8697 9.08066 13.2589C8.86605 13.4539 8.6866 13.6076 8.55989 13.7133C8.49652 13.7661 8.44627 13.807 8.41133 13.8351L8.37066 13.8676L8.35943 13.8765L8.35618 13.879L8.35516 13.8798C8.14953 14.0399 7.85083 14.0402 7.64519 13.8801L7.64382 13.879Z" fill="#179869"/>
<path d="M2.5 7.5H5L7 9.5L9 5.50006L11 7.5H13.5" stroke="#333333" stroke-width="1.5" stroke-linecap="round" stroke-linejoin="round"/>
<path d="M8.7998 4.26666C9.19641 4.20231 9.59968 4.33217 9.88379 4.61627L11.5176 6.25006H13.5C14.1904 6.25006 14.75 6.8097 14.75 7.50006L14.7432 7.62799C14.679 8.25814 14.1472 8.75006 13.5 8.75006H11C10.6683 8.75006 10.3505 8.61811 10.1162 8.38385L9.3418 7.60944L8.11816 10.0587C7.93864 10.4177 7.59715 10.669 7.2002 10.7335C6.8036 10.7978 6.40031 10.6679 6.11621 10.3839L4.48242 8.75006H2.5C1.80964 8.75006 1.25007 8.19031 1.25 7.50006L1.25684 7.37213C1.32089 6.74185 1.85282 6.25006 2.5 6.25006H5.02441L5.0498 6.25201L5.19727 6.26666L5.22168 6.26959L5.24609 6.27448C5.48606 6.32267 5.70833 6.44081 5.88379 6.61627L6.65625 7.38873L7.88184 4.94147C8.06135 4.58245 8.40284 4.3311 8.7998 4.26666Z" stroke="#E6E6E6"/>
</svg>
