<svg width="16" height="16" viewBox="0 0 16 16" fill="none" xmlns="http://www.w3.org/2000/svg">
<path d="M13.5 14C13.5 14.2761 13.2761 14.5 13 14.5H3C2.72386 14.5 2.5 14.2761 2.5 14V2C2.5 1.72386 2.72386 1.5 3 1.5H10.2725C10.4069 1.5 10.5358 1.55432 10.6299 1.65039L13.3574 4.43555C13.4489 4.52899 13.5 4.65536 13.5 4.78613V14Z" stroke="#E6E6E6" stroke-linejoin="round"/>
<path d="M3 2.8C3 2.51997 3 2.37996 3.0545 2.273C3.10243 2.17892 3.17892 2.10243 3.273 2.0545C3.37996 2 3.51997 2 3.8 2H9.93638C10.0605 2 10.1225 2 10.1808 2.01419C10.2324 2.02677 10.2818 2.04751 10.3269 2.07563C10.3778 2.10735 10.4212 2.15168 10.508 2.24034L12.7717 4.55247C12.856 4.63859 12.8981 4.68165 12.9282 4.73164C12.955 4.77597 12.9746 4.82418 12.9866 4.87455C13 4.93135 13 4.99161 13 5.11213V13.2C13 13.48 13 13.62 12.9455 13.727C12.8976 13.8211 12.8211 13.8976 12.727 13.9455C12.62 14 12.48 14 12.2 14H3.8C3.51997 14 3.37996 14 3.273 13.9455C3.17892 13.8976 3.10243 13.8211 3.0545 13.727C3 13.62 3 13.48 3 13.2V2.8Z" fill="#FDFDFD"/>
<path d="M8 9H11V12H8V9Z" fill="#55C7FF"/>
<path d="M8 6H11V9H8V6Z" fill="#2D52D2"/>
<path d="M5 6H8V9H5V6Z" fill="#8BDBFE"/>
<path d="M5 9H8V12H5V9Z" fill="#468AF3"/>
</svg>
