<svg width="16" height="16" viewBox="0 0 16 16" fill="none" xmlns="http://www.w3.org/2000/svg"><path d="M4.5 11.25C4.91421 11.25 5.25 11.5858 5.25 12C5.25 12.4142 4.91421 12.75 4.5 12.75H3.5C3.08581 12.75 2.75 12.4142 2.75 12C2.75 11.5858 3.08581 11.25 3.5 11.25H4.5ZM8.5 11.25C8.91421 11.25 9.25 11.5858 9.25 12C9.25 12.4142 8.91421 12.75 8.5 12.75H7.5C7.08581 12.75 6.75 12.4142 6.75 12C6.75 11.5858 7.08581 11.25 7.5 11.25H8.5ZM12.5 11.25C12.9142 11.25 13.25 11.5858 13.25 12C13.25 12.4142 12.9142 12.75 12.5 12.75H11.5C11.0858 12.75 10.75 12.4142 10.75 12C10.75 11.5858 11.0858 11.25 11.5 11.25H12.5ZM12.5 7.25C12.9142 7.25 13.25 7.58579 13.25 8C13.25 8.41421 12.9142 8.75 12.5 8.75H3.5C3.08579 8.75 2.75 8.41421 2.75 8C2.75 7.58579 3.08579 7.25 3.5 7.25H12.5ZM4.5 3.25C4.91421 3.25 5.25 3.58579 5.25 4C5.25 4.41421 4.91421 4.75 4.5 4.75H3.5C3.08579 4.75 2.75 4.41421 2.75 4C2.75 3.58579 3.08579 3.25 3.5 3.25H4.5ZM8.5 3.25C8.91421 3.25 9.25 3.58579 9.25 4C9.25 4.41421 8.91421 4.75 8.5 4.75H7.5C7.08579 4.75 6.75 4.41421 6.75 4C6.75 3.58579 7.08579 3.25 7.5 3.25H8.5ZM12.5 3.25C12.9142 3.25 13.25 3.58579 13.25 4C13.25 4.41421 12.9142 4.75 12.5 4.75H11.5C11.0858 4.75 10.75 4.41421 10.75 4C10.75 3.58579 11.0858 3.25 11.5 3.25H12.5Z" fill="currentColor"/></svg>