<svg width="16" height="16" viewBox="0 0 16 16" fill="none" xmlns="http://www.w3.org/2000/svg"><path fill-rule="evenodd" clip-rule="evenodd" d="M6 3.25C5.58579 3.25 5.25 3.58579 5.25 4C5.25 4.41421 5.58579 4.75 6 4.75H9.25V12C9.25 12.4142 9.58579 12.75 10 12.75C10.4142 12.75 10.75 12.4142 10.75 12V4.75H14C14.4142 4.75 14.75 4.41421 14.75 4C14.75 3.58579 14.4142 3.25 14 3.25H10H6ZM2 7.25C1.58579 7.25 1.25 7.58579 1.25 8C1.25 8.41421 1.58579 8.75 2 8.75H3.25V12C3.25 12.4142 3.58579 12.75 4 12.75C4.41421 12.75 4.75 12.4142 4.75 12V8.75H6C6.41421 8.75 6.75 8.41421 6.75 8C6.75 7.58579 6.41421 7.25 6 7.25H4H2Z" fill="currentColor"/></svg>