<svg width="16" height="16" viewBox="0 0 16 16" fill="none" xmlns="http://www.w3.org/2000/svg"><path fill-rule="evenodd" clip-rule="evenodd" d="M10.4635 4.75H12C12.4142 4.75 12.75 4.41421 12.75 4C12.75 3.58578 12.4142 3.25 12 3.25L10.0163 3.25C10.0058 3.24978 9.99534 3.24978 9.98491 3.25L8 3.25C7.58579 3.25 7.25 3.58578 7.25 4C7.25 4.41421 7.58579 4.75 8 4.75H8.78647L5.53647 11.25H4C3.58579 11.25 3.25 11.5858 3.25 12C3.25 12.4142 3.58579 12.75 4 12.75H5.98376C5.99421 12.7502 6.00466 12.7502 6.01508 12.75H8C8.41421 12.75 8.75 12.4142 8.75 12C8.75 11.5858 8.41421 11.25 8 11.25H7.21353L10.4635 4.75Z" fill="currentColor"/></svg>