<svg width="16" height="16" viewBox="0 0 16 16" fill="none" xmlns="http://www.w3.org/2000/svg"><g clip-path="url(#clip0_1_2177)"><rect width="16" height="16" fill="white"/><rect width="16" height="16" fill="#D7D7D7"/><path d="M1.75 16.75L-0.75 16.75L-0.75 13.25L1.75 13.25L1.75 16.75Z" fill="#0A8058" stroke="white" stroke-width="1.5"/><path d="M6.75 16.75L4.25 16.75L4.25 4.25L6.75 4.25L6.75 16.75Z" fill="#0A8058" stroke="white" stroke-width="1.5"/><path d="M4.25 16.75L1.75 16.75L1.75 10.25L4.25 10.25L4.25 16.75Z" fill="#0A8058" stroke="white" stroke-width="1.5"/><path d="M9.25 16.75L6.75 16.75L6.75 5.25L9.25 5.25L9.25 16.75Z" fill="#0A8058" stroke="white" stroke-width="1.5"/><path d="M11.75 16.75L9.25 16.75L9.25 8.25L11.75 8.25L11.75 16.75Z" fill="#0A8058" stroke="white" stroke-width="1.5"/><path d="M14.25 16.75L11.75 16.75L11.75 10.25L14.25 10.25L14.25 16.75Z" fill="#0A8058" stroke="white" stroke-width="1.5"/><path d="M16.75 16.75L14.25 16.75L14.25 11.25L16.75 11.25L16.75 16.75Z" fill="#0A8058" stroke="white" stroke-width="1.5"/></g><defs><clipPath id="clip0_1_2177"><rect width="16" height="16" fill="white"/></clipPath></defs></svg>