<svg width="16" height="16" viewBox="0 0 16 16" fill="none" xmlns="http://www.w3.org/2000/svg">
<path fill-rule="evenodd" clip-rule="evenodd" d="M13.9844 9.24292V6.75709C13.9844 5.8517 13.9844 5.399 13.7942 5.13648C13.6283 4.90748 13.3732 4.75943 13.0921 4.72899C12.7698 4.6941 12.3767 4.9187 11.5906 5.3679L9.41552 6.61082C9.25626 6.70182 9.11292 6.78373 8.98444 6.85892V6.7571C8.98444 5.85171 8.98444 5.39901 8.79424 5.13649C8.62832 4.90749 8.37321 4.75944 8.09206 4.729C7.76976 4.69411 7.37671 4.91871 6.59061 5.36791L4.41552 6.61083C3.61882 7.06608 3.22047 7.29371 3.08718 7.59165C2.97094 7.85149 2.97094 8.14854 3.08718 8.40838C3.22047 8.70632 3.61882 8.93395 4.41552 9.38921L6.59061 10.6321C7.37671 11.0813 7.76976 11.3059 8.09206 11.271C8.37321 11.2406 8.62832 11.0925 8.79424 10.8635C8.98444 10.601 8.98444 10.1483 8.98444 9.24293V9.14109C9.11292 9.21628 9.25626 9.29819 9.41552 9.38919L11.5906 10.6321C12.3767 11.0813 12.7698 11.3059 13.0921 11.271C13.3732 11.2406 13.6283 11.0925 13.7942 10.8635C13.9844 10.601 13.9844 10.1483 13.9844 9.24292Z" fill="black"/>
</svg>
