<svg width="16" height="16" viewBox="0 0 16 16" fill="none" xmlns="http://www.w3.org/2000/svg">
<path fill-rule="evenodd" clip-rule="evenodd" d="M2.24994 6.75708L2.24994 9.24291C2.24994 10.1483 2.24994 10.601 2.44014 10.8635C2.60605 11.0925 2.86117 11.2406 3.14231 11.271C3.46461 11.3059 3.85766 11.0813 4.64376 10.6321L6.81886 9.38918C6.97812 9.29818 7.12145 9.21627 7.24994 9.14108L7.24994 9.2429C7.24994 10.1483 7.24994 10.601 7.44014 10.8635C7.60605 11.0925 7.86117 11.2406 8.14231 11.271C8.46461 11.3059 8.85766 11.0813 9.64376 10.6321L11.8189 9.38917C12.6156 8.93392 13.0139 8.70629 13.1472 8.40835C13.2634 8.14851 13.2634 7.85146 13.1472 7.59162C13.0139 7.29368 12.6156 7.06605 11.8189 6.61079L9.64376 5.36788C8.85766 4.91868 8.46461 4.69408 8.14231 4.72897C7.86117 4.75941 7.60605 4.90746 7.44014 5.13646C7.24994 5.39898 7.24994 5.85168 7.24994 6.75707L7.24994 6.85891C7.12145 6.78372 6.97811 6.70181 6.81886 6.6108L4.64376 5.36789C3.85766 4.91869 3.46461 4.69409 3.14231 4.72898C2.86117 4.75942 2.60605 4.90747 2.44014 5.13647C2.24994 5.39899 2.24994 5.85169 2.24994 6.75708Z" fill="black"/>
</svg>
