<svg width="16" height="16" viewBox="0 0 16 16" fill="none" xmlns="http://www.w3.org/2000/svg">
<path d="M12 5.35289V10.6471C12 11.5797 12 12.046 11.8046 12.3108C11.6342 12.5416 11.3729 12.6881 11.0871 12.7131C10.7593 12.7418 10.3614 12.4987 9.56568 12.0124L5.23405 9.36525C4.4954 8.91386 4.12608 8.68816 4.00017 8.3976C3.89025 8.14393 3.89025 7.85607 4.00017 7.6024C4.12608 7.31184 4.4954 7.08614 5.23405 6.63475L9.56568 3.98764C10.3614 3.50134 10.7593 3.25819 11.0871 3.28686C11.3729 3.31186 11.6342 3.4584 11.8046 3.68923C12 3.95399 12 4.42029 12 5.35289Z" fill="black"/>
</svg>
