<svg width="16" height="16" viewBox="0 0 16 16" fill="none" xmlns="http://www.w3.org/2000/svg">
<path fill-rule="evenodd" clip-rule="evenodd" d="M3.25001 4C3.25001 3.58579 3.5858 3.25 4.00001 3.25C4.41423 3.25 4.75001 3.58579 4.75001 4V12C4.75001 12.4142 4.41423 12.75 4.00001 12.75C3.5858 12.75 3.25001 12.4142 3.25001 12V4ZM6 10.6471V5.35289C6 4.42029 6 3.95399 6.19541 3.68923C6.36577 3.4584 6.62706 3.31186 6.91286 3.28686C7.24067 3.25819 7.63856 3.50134 8.43432 3.98764L12.766 6.63475C13.5046 7.08614 13.8739 7.31184 13.9998 7.6024C14.1098 7.85607 14.1098 8.14393 13.9998 8.3976C13.8739 8.68816 13.5046 8.91386 12.766 9.36525L8.43433 12.0124C7.63856 12.4987 7.24067 12.7418 6.91286 12.7131C6.62706 12.6881 6.36577 12.5416 6.19541 12.3108C6 12.046 6 11.5797 6 10.6471Z" fill="black"/>
</svg>
