<svg width="16" height="16" viewBox="0 0 16 16" fill="none" xmlns="http://www.w3.org/2000/svg">
<path fill-rule="evenodd" clip-rule="evenodd" d="M12.75 4C12.75 3.58579 12.4142 3.25 12 3.25C11.5858 3.25 11.25 3.58579 11.25 4V12C11.25 12.4142 11.5858 12.75 12 12.75C12.4142 12.75 12.75 12.4142 12.75 12V4ZM10 10.6471V5.35289C10 4.42029 10 3.95399 9.80459 3.68923C9.63423 3.4584 9.37294 3.31186 9.08714 3.28686C8.75933 3.25819 8.36144 3.50134 7.56568 3.98764L3.23404 6.63475C2.49539 7.08614 2.12607 7.31184 2.00016 7.6024C1.89024 7.85607 1.89024 8.14393 2.00016 8.3976C2.12607 8.68816 2.49539 8.91386 3.23404 9.36525L7.56567 12.0124C8.36144 12.4987 8.75933 12.7418 9.08714 12.7131C9.37294 12.6881 9.63423 12.5416 9.80459 12.3108C10 12.046 10 11.5797 10 10.6471Z" fill="black"/>
</svg>
