<svg width="16" height="16" viewBox="0 0 16 16" fill="none" xmlns="http://www.w3.org/2000/svg">
<path d="M10.5 10.2502C11.4793 10.2502 12.31 10.8768 12.6191 11.7502H14C14.4142 11.7502 14.75 12.086 14.75 12.5002C14.7499 12.9143 14.4142 13.2502 14 13.2502H12.6191C12.31 14.1235 11.4793 14.7502 10.5 14.7502C9.52084 14.7502 8.69109 14.1234 8.38184 13.2502H2C1.58584 13.2502 1.25009 12.9143 1.25 12.5002C1.25 12.086 1.58579 11.7502 2 11.7502H8.38184C8.69105 10.8769 9.52078 10.2502 10.5 10.2502ZM10.5 11.7502C10.0858 11.7502 9.75 12.086 9.75 12.5002C9.75009 12.9143 10.0858 13.2502 10.5 13.2502C10.9142 13.2502 11.2499 12.9143 11.25 12.5002C11.25 12.086 10.9142 11.7502 10.5 11.7502ZM5.12598 1.34979C5.35885 1.21604 5.64596 1.21741 5.87793 1.35272L11.8779 4.85272L11.96 4.90741C12.1415 5.04831 12.25 5.2667 12.25 5.50018C12.2499 5.7668 12.1082 6.01324 11.8779 6.14764L5.87793 9.64764C5.646 9.7829 5.35881 9.78427 5.12598 9.65057C4.89336 9.5168 4.75006 9.26854 4.75 9.00018V2.00018C4.75 1.73179 4.89335 1.4836 5.12598 1.34979ZM6.25 7.69452L10.0127 5.50018L6.25 3.30585V7.69452Z" fill="black"/>
</svg>
