<svg xmlns="http://www.w3.org/2000/svg" style="display:none"><symbol id="fi-bridge" viewBox="0 0 24 24" fill="none" stroke="currentColor" stroke-width="1.5" stroke-linecap="round" stroke-linejoin="round"><path d="M2 8h20"/><path d="M4 8v12M20 8v12"/><path d="M4 16a8 8 0 0 1 16 0"/></symbol><symbol id="fi-cross-section" viewBox="0 0 24 24" fill="none" stroke="currentColor" stroke-width="1.5" stroke-linecap="round" stroke-linejoin="round"><path d="M2 6l4 8 2 4h8l2-4 4-8"/><path d="M4 10h16" stroke-dasharray="2 2.5"/></symbol><symbol id="fi-culvert" viewBox="0 0 24 24" fill="none" stroke="currentColor" stroke-width="1.5" stroke-linecap="round" stroke-linejoin="round"><path d="M2 20h20"/><path d="M5 20v-7a7 7 0 0 1 14 0v7"/><path d="M8 20v-6a4 4 0 0 1 8 0v6"/></symbol><symbol id="fi-embankment" viewBox="0 0 24 24" fill="none" stroke="currentColor" stroke-width="1.5" stroke-linecap="round" stroke-linejoin="round"><path d="M2 19h20"/><path d="M9 19l5-9h3l5 9"/><path d="M2 13c1.5-1.2 2.5-1.2 4 0s2.5 1.2 4 0"/></symbol><symbol id="fi-flood-extent" viewBox="0 0 24 24" fill="none" stroke="currentColor" stroke-width="1.5" stroke-linecap="round" stroke-linejoin="round"><path d="M4 4h10l6 5v11H4z"/><path d="M7 13c1.4-1.1 2.3-1.1 3.6 0s2.3 1.1 3.6 0"/><path d="M7 17c1.4-1.1 2.3-1.1 3.6 0s2.3 1.1 3.6 0"/></symbol><symbol id="fi-junction" viewBox="0 0 24 24" fill="none" stroke="currentColor" stroke-width="1.5" stroke-linecap="round" stroke-linejoin="round"><circle cx="12" cy="14" r="2.5"/><path d="M12 16.5V21M10.2 12.2 5 4M13.8 12.2 19 4"/></symbol><symbol id="fi-pump" viewBox="0 0 24 24" fill="none" stroke="currentColor" stroke-width="1.5" stroke-linecap="round" stroke-linejoin="round"><circle cx="11" cy="13" r="6"/><path d="M11 7V4h6"/><path d="M11 13l3.5-3.5M11 13l-2 4.5"/></symbol><symbol id="fi-rain-gauge" viewBox="0 0 24 24" fill="none" stroke="currentColor" stroke-width="1.5" stroke-linecap="round" stroke-linejoin="round"><path d="M8 3h8l-1.5 18h-5z"/><path d="M9 9h3M9.5 13h2.5M9.8 17h2.2"/><path d="M19 4v3M21.5 6.5h-3"/></symbol><symbol id="fi-reservoir" viewBox="0 0 24 24" fill="none" stroke="currentColor" stroke-width="1.5" stroke-linecap="round" stroke-linejoin="round"><path d="M14 5l6 15H14z"/><path d="M2 20h20"/><path d="M2 11c1.5-1.2 2.6-1.2 4 0s2.6 1.2 4 0 2.5-1.1 4-.3"/></symbol><symbol id="fi-river-section" viewBox="0 0 24 24" fill="none" stroke="currentColor" stroke-width="1.5" stroke-linecap="round" stroke-linejoin="round"><path d="M3 8c2.5-2 4.5-2 7 0s4.5 2 7 0 3-1.5 4-1"/><path d="M3 13c2.5-2 4.5-2 7 0s4.5 2 7 0 3-1.5 4-1"/><path d="M3 18c2.5-2 4.5-2 7 0s4.5 2 7 0 3-1.5 4-1"/></symbol><symbol id="fi-sluice-gate" viewBox="0 0 24 24" fill="none" stroke="currentColor" stroke-width="1.5" stroke-linecap="round" stroke-linejoin="round"><path d="M4 3v18M20 3v18"/><path d="M8 3h8M12 3v8"/><rect x="8" y="11" width="8" height="5"/><path d="M4 19.5c1.4-1 2.4-1 3.8 0" /><path d="M16.2 19.5c1.4-1 2.4-1 3.8 0"/></symbol><symbol id="fi-weir" viewBox="0 0 24 24" fill="none" stroke="currentColor" stroke-width="1.5" stroke-linecap="round" stroke-linejoin="round"><path d="M2 9h8v4h6v4h6"/><path d="M2 5c1.6-1.2 2.7-1.2 4.3 0S9 6.2 10 5.6"/><path d="M14 20c1.6-1.2 2.7-1.2 4.3 0s2.7 1.2 3.7.6"/></symbol><symbol id="fi-bridge-arch" viewBox="0 0 24 24" fill="none"><path d="M2 6h20v3H2z" fill="var(--fi-structure, #666666)"/><path d="M3 9h3v11H3zM18 9h3v11h-3z" fill="var(--fi-surface-fill, #e6e6e6)"/><path d="M6 20a6 6 0 0 1 12 0z" fill="var(--fi-water-pale, #def8ff)"/><path d="M2 20c2-1.5 3.6-1.5 5.6 0s3.8 1.5 5.8 0 3.7-1.5 5.6 0 2.4 1.1 3 .8" stroke="var(--fi-water, #0a7dff)" stroke-width="1.8" stroke-linecap="round"/></symbol><symbol id="fi-catchment" viewBox="0 0 24 24" fill="none"><path d="M12 2.5 21 8v8.5L12 21.5 3 16.5V8z" fill="var(--fi-green, #27b17b)"/><path d="M12 6.5c-2 3-4 4.6-4 7a4 4 0 0 0 8 0c0-2.4-2-4-4-7z" fill="var(--fi-water-pale, #def8ff)"/><path d="M12 9c-1.2 1.8-2.4 2.9-2.4 4.4a2.4 2.4 0 0 0 4.8 0C14.4 11.9 13.2 10.8 12 9z" fill="var(--fi-water, #0a7dff)"/></symbol><symbol id="fi-culvert-flow" viewBox="0 0 24 24" fill="none"><path d="M2 21v-8a10 10 0 0 1 20 0v8h-4v-8a6 6 0 0 0-12 0v8z" fill="var(--fi-surface-fill, #e6e6e6)"/><path d="M6 21v-8a6 6 0 0 1 12 0v8z" fill="var(--fi-water-pale, #def8ff)"/><path d="M6 17c1.5-1.2 2.6-1.2 4 0s2.7 1.2 4 0 2.5-1 4-.3V21H6z" fill="var(--fi-water, #0a7dff)"/></symbol><symbol id="fi-flood-warning" viewBox="0 0 24 24" fill="none"><path d="M12 2.5 22.5 20h-21z" fill="var(--fi-orange, #ff6100)"/><path d="M7.2 15.5c1.3-1 2.2-1 3.4 0s2.3 1 3.6 0 2-.9 3-.4l1.3 2.2H5.9z" fill="var(--fi-water-pale, #def8ff)"/><path d="M12 7.5v4.5" stroke="var(--fi-ink, #333333)" stroke-width="1.8" stroke-linecap="round"/></symbol><symbol id="fi-gauge-station" viewBox="0 0 24 24" fill="none"><rect x="10" y="3" width="4" height="18" rx="1" fill="var(--fi-yellow, #feb83c)"/><path d="M10 6.5h2.5M10 10h2.5M10 13.5h2.5M10 17h2.5" stroke="var(--fi-ink, #333333)" stroke-width="1.2" stroke-linecap="round"/><path d="M2 15c1.5-1.2 2.6-1.2 4 0s2.7 1.2 4 0" stroke="var(--fi-water, #0a7dff)" stroke-width="1.8" stroke-linecap="round"/><path d="M14 15c1.5-1.2 2.6-1.2 4 0s2.7 1.2 4 0" stroke="var(--fi-water, #0a7dff)" stroke-width="1.8" stroke-linecap="round"/></symbol><symbol id="fi-outfall" viewBox="0 0 24 24" fill="none"><path d="M3 3h8a4 4 0 0 1 4 4v3H3z" fill="var(--fi-structure, #666666)"/><circle cx="11" cy="6.5" r="2" fill="var(--fi-water-deep, #2d52d2)"/><path d="M13 10c2 2.5 4 4.2 4 6.5a4.5 4.5 0 0 1-9 0c0-1 .4-2 1-3z" fill="var(--fi-water, #0a7dff)"/><path d="M2 21c2-1.5 3.6-1.5 5.6 0s3.8 1.5 5.8 0 3.7-1.5 5.6 0 2.4 1.1 3 .8" stroke="var(--fi-water-deep, #2d52d2)" stroke-width="1.6" stroke-linecap="round"/></symbol><symbol id="fi-pump-station" viewBox="0 0 24 24" fill="none"><rect x="3" y="9" width="14" height="11" rx="1.5" fill="var(--fi-orange, #ff6100)"/><path d="M3 9l7-5.5L17 9" fill="var(--fi-orange-deep, #ce4c00)"/><circle cx="10" cy="14.5" r="3.2" fill="var(--fi-water-pale, #def8ff)"/><path d="M10 14.5l2-2M10 14.5l-1 2.6" stroke="var(--fi-water-deep, #2d52d2)" stroke-width="1.4" stroke-linecap="round"/><path d="M17 13h3a1.5 1.5 0 0 1 1.5 1.5V20" stroke="var(--fi-structure, #666666)" stroke-width="1.8" stroke-linecap="round"/></symbol><symbol id="fi-rainfall" viewBox="0 0 24 24" fill="none"><path d="M7 14a5 5 0 0 1-.6-9.97A6 6 0 0 1 18 6.5 4.25 4.25 0 0 1 17.5 14z" fill="var(--fi-surface-fill, #e6e6e6)"/><path d="M8 16.5 6.8 19.5" stroke="var(--fi-water, #0a7dff)" stroke-width="1.8" stroke-linecap="round"/><path d="M12.5 16.5l-1.2 4" stroke="var(--fi-water, #0a7dff)" stroke-width="1.8" stroke-linecap="round"/><path d="M17 16.5 15.8 19.5" stroke="var(--fi-water, #0a7dff)" stroke-width="1.8" stroke-linecap="round"/></symbol><symbol id="fi-reservoir-full" viewBox="0 0 24 24" fill="none"><path d="M2 20V11c2-1.6 3.6-1.6 5.6 0s3.8 1.6 5.8 0 3.6-1.5 5.6-.4V20z" fill="var(--fi-water, #0a7dff)"/><path d="M15 4l7 16h-7z" fill="var(--fi-surface-fill, #e6e6e6)"/><path d="M15 4l7 16h-3.5L15 9z" fill="var(--fi-structure, #666666)"/><path d="M2 20h20" stroke="var(--fi-ink, #333333)" stroke-width="1.6" stroke-linecap="round"/></symbol><symbol id="fi-river-reach" viewBox="0 0 24 24" fill="none"><rect x="2" y="4" width="20" height="16" rx="2" fill="var(--fi-water-pale, #def8ff)"/><path d="M2 9c2.5-2 4.5-2 7 0s4.5 2 7 0 3-1.5 6-1v4c-3-.5-3.5 1-6 1-2.5 2-4.5 2-7 0-2.5-2-4.5-2-7 0z" fill="var(--fi-water, #0a7dff)"/><path d="M2 15c2.5-2 4.5-2 7 0s4.5 2 7 0 3-1.5 6-1v4c-3-.5-3.5 1-6 1h-14z" fill="var(--fi-water-deep, #2d52d2)"/></symbol><symbol id="fi-sluice" viewBox="0 0 24 24" fill="none"><path d="M4 3h2.5v18H4zM17.5 3H20v18h-2.5z" fill="var(--fi-structure, #666666)"/><path d="M6.5 3h11v2.5h-11z" fill="var(--fi-surface-fill, #e6e6e6)"/><rect x="8.5" y="5.5" width="7" height="8" fill="var(--fi-orange, #ff6100)"/><path d="M11.5 5.5h1V3.5h-1z" fill="var(--fi-ink, #333333)"/><path d="M6.5 17c1.3-1 2.3-1 3.6 0s2.5 1 3.8 0 2.3-.9 3.6.1V21h-11z" fill="var(--fi-water, #0a7dff)"/></symbol><symbol id="fi-weir-flow" viewBox="0 0 24 24" fill="none"><path d="M2 10h8v4h6v4h6v3H2z" fill="var(--fi-surface-fill, #e6e6e6)"/><path d="M2 10h8v4h2v-1z" fill="var(--fi-structure, #666666)"/><path d="M2 7c1.6-1.3 2.8-1.3 4.4 0s3 1.3 4.6 0v3H2z" fill="var(--fi-water, #0a7dff)"/><path d="M11 10c1.5 1 2.5 2.5 2.5 4H16v4h6v3h-11z" fill="var(--fi-water-light, #a4e5ff)"/><path d="M13 21c1.6-1.3 2.8-1.3 4.4 0s3 1.3 4.6 0" stroke="var(--fi-water, #0a7dff)" stroke-width="1.6" stroke-linecap="round"/></symbol></svg>