<svg width="16" height="16" viewBox="0 0 16 16" fill="none" xmlns="http://www.w3.org/2000/svg">
<path fill-rule="evenodd" clip-rule="evenodd" d="M13.3374 2.33018C13.5904 2.45762 13.75 2.71673 13.75 3V10.7778C13.75 11.0154 13.6374 11.239 13.4464 11.3805L10.4464 13.6027C10.21 13.7778 9.89298 13.7985 9.63577 13.6556L6.05815 11.6681L3.44642 13.6027C3.21879 13.7713 2.91559 13.7973 2.66259 13.6698C2.4096 13.5424 2.25 13.2833 2.25 13V5.22223C2.25 4.98459 2.36262 4.76101 2.55358 4.61956L5.55358 2.39734C5.79002 2.2222 6.10702 2.20149 6.36423 2.34439L9.94185 4.33195L12.5536 2.39734C12.7812 2.22872 13.0844 2.20275 13.3374 2.33018ZM9.25 5.66353L6.75 4.27464V10.3365L9.25 11.7254V5.66353ZM10.75 11.5111L12.25 10.4V4.48891L10.75 5.60002V11.5111ZM5.25 10.4V4.48891L3.75 5.60002V11.5111L5.25 10.4Z" fill="black"/>
</svg>
