<svg width="16" height="16" viewBox="0 0 16 16" fill="none" xmlns="http://www.w3.org/2000/svg">
<path fill-rule="evenodd" clip-rule="evenodd" d="M7.25001 2C7.25001 1.58579 7.5858 1.25 8.00001 1.25H12C12.4142 1.25 12.75 1.58579 12.75 2V5C12.75 5.41421 12.4142 5.75 12 5.75H8.75001V7.93491C9.53495 8.09394 10.2782 8.5054 10.8472 9.1693L14.5695 13.5119C14.839 13.8264 14.8026 14.2999 14.4881 14.5694C14.1736 14.839 13.7001 14.8026 13.4306 14.4881L11.08 11.7458C11.0537 11.7486 11.027 11.75 11 11.75C10.6571 11.75 10.3363 11.919 10.1424 12.2018L10.1215 12.2323C9.09674 13.7268 6.89825 13.7479 5.845 12.2733L5.74506 12.1334C5.57319 11.8928 5.2957 11.75 5.00001 11.75C4.97299 11.75 4.9463 11.7486 4.92001 11.7458L2.56946 14.4881C2.29989 14.8026 1.82641 14.839 1.51192 14.5694C1.19743 14.2999 1.161 13.8264 1.43057 13.5119L5.1528 9.1693C5.72186 8.5054 6.46508 8.09394 7.25001 7.93491V5V2ZM6.01175 10.4721C6.38773 10.6455 6.71819 10.9151 6.96566 11.2616L7.0656 11.4015C7.51355 12.0286 8.44857 12.0196 8.8844 11.384L8.90532 11.3535C9.17759 10.9564 9.55234 10.6512 9.98087 10.4634L9.70834 10.1455C8.81038 9.09787 7.18965 9.09787 6.29169 10.1455L6.01175 10.4721ZM8.75001 4.25H11.25V2.75H8.75001V4.25Z" fill="black"/>
</svg>
