<svg width="16" height="16" viewBox="0 0 16 16" fill="none" xmlns="http://www.w3.org/2000/svg">
<path d="M8 3.25C10.0393 3.25 11.9229 3.72087 13.3223 4.52051C14.7002 5.30803 15.75 6.51027 15.75 8C15.75 9.48973 14.7002 10.692 13.3223 11.4795C11.9229 12.2791 10.0393 12.75 8 12.75C5.96067 12.75 4.0771 12.2791 2.67773 11.4795C1.29976 10.692 0.25 9.48973 0.25 8C0.25 6.51027 1.29976 5.30803 2.67773 4.52051C4.0771 3.72087 5.96067 3.25 8 3.25ZM8.75 8C8.75 8.41421 8.41421 8.75 8 8.75C7.58579 8.75 7.25 8.41421 7.25 8V4.77441C5.7325 4.87284 4.39811 5.2654 3.42188 5.82324C2.26693 6.48338 1.75 7.28084 1.75 8C1.75 8.71916 2.26693 9.51662 3.42188 10.1768C4.55601 10.8248 6.17334 11.25 8 11.25C9.82666 11.25 11.444 10.8248 12.5781 10.1768C13.7331 9.51662 14.25 8.71916 14.25 8C14.25 7.28084 13.7331 6.48338 12.5781 5.82324C11.6019 5.2654 10.2675 4.87284 8.75 4.77441V8Z" fill="black"/>
</svg>
