<svg width="16" height="16" viewBox="0 0 16 16" fill="none" xmlns="http://www.w3.org/2000/svg">
<path d="M13.2881 6.7627C13.4191 6.36974 13.8443 6.1571 14.2373 6.28809C14.6302 6.41908 14.8429 6.84436 14.7119 7.2373L13.167 11.8691C12.7927 12.992 11.7422 13.7499 10.5586 13.75H5.44141C4.25777 13.75 3.20731 12.992 2.83301 11.8691L1.28809 7.2373C1.1571 6.84435 1.36974 6.41907 1.7627 6.28809C2.15565 6.15712 2.58093 6.36975 2.71191 6.7627L4.25586 11.3955C4.42607 11.9058 4.90351 12.25 5.44141 12.25H10.5586C11.0965 12.2499 11.5739 11.9057 11.7441 11.3955L13.2881 6.7627ZM8 2.25C8.41421 2.25 8.75 2.58579 8.75 3V4.75H10.5C10.9142 4.75 11.25 5.08579 11.25 5.5C11.25 5.91421 10.9142 6.25 10.5 6.25H8.75V8C8.75 8.41421 8.41421 8.75 8 8.75C7.58581 8.74997 7.25 8.4142 7.25 8V6.25H5.5C5.08579 6.25 4.75 5.91421 4.75 5.5C4.75 5.08579 5.08579 4.75 5.5 4.75H7.25V3C7.25 2.5858 7.58581 2.25003 8 2.25Z" fill="black"/>
</svg>
