<svg width="16" height="16" viewBox="0 0 16 16" fill="none" xmlns="http://www.w3.org/2000/svg">
<path fill-rule="evenodd" clip-rule="evenodd" d="M8 15C11.866 15 15 11.866 15 8C15 4.13401 11.866 1 8 1C4.13401 1 1 4.13401 1 8C1 11.866 4.13401 15 8 15ZM8.43 7.07C8.26333 7.21 7.99333 7.28 7.62 7.28H6.97V8.53H7.6C7.98 8.53 8.27667 8.60333 8.49 8.75C8.71 8.89 8.82 9.10333 8.82 9.39V9.45C8.82 9.74333 8.72333 9.97667 8.53 10.15C8.34333 10.3167 8.08 10.4 7.74 10.4C7.36 10.4 7.05667 10.31 6.83 10.13C6.61 9.94333 6.42333 9.70667 6.27 9.42L5.16 10.28C5.27333 10.46 5.40333 10.63 5.55 10.79C5.70333 10.95 5.88 11.0933 6.08 11.22C6.28667 11.34 6.52667 11.4367 6.8 11.51C7.07333 11.5833 7.38667 11.62 7.74 11.62C8.13333 11.62 8.49333 11.5733 8.82 11.48C9.14667 11.38 9.42667 11.24 9.66 11.06C9.89333 10.88 10.0733 10.6633 10.2 10.41C10.3267 10.1567 10.39 9.87333 10.39 9.56C10.39 9.32 10.3533 9.10667 10.28 8.92C10.2067 8.72667 10.1033 8.56 9.97 8.42C9.84333 8.28 9.69 8.16667 9.51 8.08C9.33667 7.98667 9.14667 7.92 8.94 7.88V7.82C9.12 7.78667 9.29 7.73 9.45 7.65C9.61 7.56333 9.75 7.45333 9.87 7.32C9.99667 7.18667 10.0933 7.03 10.16 6.85C10.2333 6.67 10.27 6.47 10.27 6.25C10.27 5.97 10.21 5.71667 10.09 5.49C9.97667 5.26333 9.81 5.07 9.59 4.91C9.37667 4.74333 9.11667 4.61667 8.81 4.53C8.51 4.44333 8.17333 4.4 7.8 4.4C7.5 4.4 7.23 4.43 6.99 4.49C6.75 4.54333 6.53333 4.62333 6.34 4.73C6.14667 4.83 5.97333 4.95333 5.82 5.1C5.66667 5.24 5.52333 5.39667 5.39 5.57L6.33 6.45C6.50333 6.18333 6.71333 5.98 6.96 5.84C7.20667 5.69333 7.47 5.62 7.75 5.62C8.05 5.62 8.28 5.69667 8.44 5.85C8.60667 6.00333 8.69 6.20667 8.69 6.46V6.53C8.69 6.74333 8.60333 6.92333 8.43 7.07Z" fill="black"/>
</svg>
