<svg width="16" height="16" viewBox="0 0 16 16" fill="none" xmlns="http://www.w3.org/2000/svg">
<path fill-rule="evenodd" clip-rule="evenodd" d="M15 8C15 11.866 11.866 15 8 15C4.13401 15 1 11.866 1 8C1 4.13401 4.13401 1 8 1C11.866 1 15 4.13401 15 8ZM8.75 5.25C8.75 5.66421 8.41421 6 8 6C7.58579 6 7.25 5.66421 7.25 5.25C7.25 4.83579 7.58579 4.5 8 4.5C8.41421 4.5 8.75 4.83579 8.75 5.25ZM8.75 8C8.75 7.58579 8.41421 7.25 8 7.25C7.58579 7.25 7.25 7.58579 7.25 8V11C7.25 11.4142 7.58579 11.75 8 11.75C8.41421 11.75 8.75 11.4142 8.75 11V8Z" fill="black"/>
</svg>
