<svg width="16" height="16" viewBox="0 0 16 16" fill="none" xmlns="http://www.w3.org/2000/svg">
<path fill-rule="evenodd" clip-rule="evenodd" d="M8.99341 2.11571C8.99779 2.07775 9.00004 2.03914 9.00004 2C9.00004 1.44772 8.55232 1 8.00004 1C7.44775 1 7.00004 1.44772 7.00004 2C7.00004 2.03914 7.00229 2.07775 7.00666 2.11571C5.11873 2.56378 3.71432 4.26074 3.71432 6.28571V8.98334C3.71432 9.31674 3.59506 9.63914 3.37808 9.89228L2.70752 10.6746C2.42952 10.9989 2.65997 11.5 3.08715 11.5H12.9129C13.3401 11.5 13.5706 10.9989 13.2926 10.6746L12.622 9.89228C12.405 9.63914 12.2858 9.31674 12.2858 8.98334V6.28571C12.2858 4.26074 10.8813 2.56378 8.99341 2.11571ZM10 13C10 13.2626 9.94831 13.5227 9.8478 13.7654C9.74729 14.008 9.59997 14.2285 9.41425 14.4142C9.22853 14.5999 9.00805 14.7472 8.7654 14.8478C8.52275 14.9483 8.26268 15 8.00004 15C7.73739 15 7.47732 14.9483 7.23467 14.8478C6.99202 14.7472 6.77154 14.5999 6.58582 14.4142C6.40011 14.2285 6.25279 14.008 6.15228 13.7654C6.05177 13.5227 6.00004 13.2626 6.00004 13H8.00004H10Z" fill="black"/>
</svg>
