<svg width="16" height="16" viewBox="0 0 16 16" fill="none" xmlns="http://www.w3.org/2000/svg">
<path fill-rule="evenodd" clip-rule="evenodd" d="M8 15C11.866 15 15 11.866 15 8C15 4.13401 11.866 1 8 1C4.13401 1 1 4.13401 1 8C1 11.866 4.13401 15 8 15ZM8.41184 7.0304C7.65148 5.1838 5.04131 5.16928 4.26045 7.0073L3.30971 9.2452C3.14775 9.62644 3.3255 10.0668 3.70674 10.2288C4.08798 10.3907 4.52833 10.213 4.69029 9.83172L5.64103 7.59382C5.90132 6.98115 6.77137 6.98599 7.02483 7.60152L7.66853 9.16479C8.41084 10.9676 10.9384 11.0374 11.7791 9.27835L12.6767 7.40034C12.8553 7.02662 12.6971 6.57886 12.3234 6.40024C11.9497 6.22162 11.5019 6.37978 11.3233 6.75351L10.4257 8.63152C10.1455 9.21786 9.30298 9.19459 9.05554 8.59366L8.41184 7.0304Z" fill="black"/>
</svg>
