<svg width="16" height="16" viewBox="0 0 16 16" fill="none" xmlns="http://www.w3.org/2000/svg">
<path d="M8 1.25C11.7279 1.25 14.75 4.27208 14.75 8C14.75 11.7279 11.7279 14.75 8 14.75C4.27208 14.75 1.25 11.7279 1.25 8C1.25 4.27208 4.27208 1.25 8 1.25ZM8 2.75C5.10051 2.75 2.75 5.10051 2.75 8C2.75 10.8995 5.10051 13.25 8 13.25C10.8995 13.25 13.25 10.8995 13.25 8C13.25 5.10051 10.8995 2.75 8 2.75ZM8.81055 4.18262C9.10926 4.12494 9.25888 4.188 9.55762 4.31445C10.5139 4.71924 11.2808 5.48608 11.6855 6.44238C11.812 6.74112 11.8751 6.89074 11.8174 7.18945C11.7773 7.39679 11.5679 7.71235 11.3926 7.83008C11.1399 7.99968 10.8934 8 10.4004 8H9.59961C9.03982 8 8.75976 7.99959 8.5459 7.89062C8.35793 7.79479 8.20521 7.64207 8.10938 7.4541C8.00041 7.24024 8 6.96018 8 6.40039V5.59961C8 5.10661 8.00032 4.86015 8.16992 4.60742C8.28765 4.43211 8.60321 4.2227 8.81055 4.18262Z" fill="black"/>
</svg>
