<svg width="16" height="16" viewBox="0 0 16 16" fill="none" xmlns="http://www.w3.org/2000/svg">
<path d="M2.92285 14.7458C2.54488 14.7071 2.25 14.3878 2.25 13.9997C2.25016 13.6117 2.54499 13.2922 2.92285 13.2536L3 13.2497H3.25V11.9997L3.25879 11.6813C3.34181 10.1198 4.02726 9.03687 4.71973 8.3444C4.84873 8.21542 4.97955 8.10208 5.10449 7.99968C4.97954 7.89725 4.84874 7.78396 4.71973 7.65495C3.98116 6.91631 3.25 5.73368 3.25 3.99968V2.74968H3C2.58579 2.74968 2.25 2.41389 2.25 1.99968C2.25017 1.58561 2.58589 1.24968 3 1.24968H13C13.4141 1.24969 13.7498 1.58562 13.75 1.99968C13.75 2.41388 13.4142 2.74966 13 2.74968H12.8037V3.99968C12.8037 5.73921 12.0545 6.92375 11.3018 7.66081C11.1725 7.7874 11.0413 7.8988 10.916 7.99968C11.0413 8.10055 11.1724 8.21195 11.3018 8.33854C12.0545 9.07555 12.8036 10.2602 12.8037 11.9997V13.2497H13C13.4141 13.2497 13.7498 13.5856 13.75 13.9997C13.75 14.4139 13.4142 14.7497 13 14.7497H3L2.92285 14.7458ZM11.3037 11.9997C11.3036 10.7396 10.7759 9.92372 10.252 9.41081C9.98552 9.14999 9.71843 8.96614 9.51953 8.84929C9.421 8.79141 9.34039 8.75112 9.28809 8.72624C9.26247 8.71406 9.24313 8.70547 9.23242 8.70085C9.23027 8.69991 9.22801 8.69853 9.22656 8.69792H9.22559L9.22461 8.69694H9.22266V8.69596L9.12305 8.64811C8.89465 8.51537 8.75 8.26953 8.75 7.99968C8.75013 7.6926 8.93762 7.41691 9.22266 7.30339V7.30241H9.22461L9.22559 7.30143L9.22656 7.30241V7.30143C9.22803 7.30079 9.23031 7.29942 9.23242 7.2985C9.24317 7.29386 9.26253 7.28526 9.28809 7.27311C9.34041 7.24821 9.42104 7.20792 9.51953 7.15007C9.71845 7.03319 9.98554 6.84936 10.252 6.58854C10.7758 6.07558 11.3037 5.25981 11.3037 3.99968V2.74968H4.75V3.99968C4.75 5.26543 5.26896 6.08302 5.78027 6.5944C6.04043 6.85456 6.30151 7.03679 6.49512 7.153C6.59136 7.21074 6.67003 7.25142 6.7207 7.27604C6.74576 7.28821 6.76429 7.29697 6.77441 7.30143C6.77646 7.30233 6.77798 7.30376 6.7793 7.30436C7.06337 7.41847 7.24987 7.69349 7.25 7.99968C7.25 8.30606 7.06358 8.58187 6.7793 8.69596C6.77804 8.69651 6.77627 8.69711 6.77441 8.69792C6.76433 8.70236 6.74576 8.71115 6.7207 8.72331C6.67006 8.74791 6.59134 8.78863 6.49512 8.84636C6.30154 8.96253 6.04043 9.14483 5.78027 9.40495C5.26894 9.91628 4.75009 10.734 4.75 11.9997V13.2497H5.77148C5.82945 12.8624 6.0122 12.4395 6.28906 12.0934C6.64619 11.6471 7.22132 11.2497 8 11.2497C8.77869 11.2497 9.35382 11.6471 9.71094 12.0934C9.98781 12.4395 10.1706 12.8624 10.2285 13.2497H11.3037V11.9997ZM8 6.74968C7.50608 6.74968 7.07499 6.51021 6.78223 6.21745C6.48953 5.92469 6.25 5.49352 6.25 4.99968C6.25009 4.80088 6.32915 4.60998 6.46973 4.4694C6.61036 4.32886 6.80117 4.24968 7 4.24968H9C9.19883 4.24969 9.38964 4.32885 9.53027 4.4694C9.67085 4.60998 9.74991 4.80088 9.75 4.99968C9.75 5.4935 9.51045 5.92469 9.21777 6.21745C8.92502 6.5102 8.49391 6.74966 8 6.74968ZM6.7793 7.30436V7.30339H6.78027L6.78223 7.30534C6.78164 7.30511 6.78054 7.3049 6.7793 7.30436Z" fill="black"/>
</svg>
