<svg width="16" height="16" viewBox="0 0 16 16" fill="none" xmlns="http://www.w3.org/2000/svg">
<path fill-rule="evenodd" clip-rule="evenodd" d="M1 8C1 4.13401 4.13401 0.999999 8 0.999999C11.866 1 15 4.13401 15 8C15 11.866 11.866 15 8 15C4.13401 15 1 11.866 1 8ZM7.25 10.75C7.25 10.3358 7.58579 10 8 10C8.41421 10 8.75 10.3358 8.75 10.75C8.75 11.1642 8.41421 11.5 8 11.5C7.58579 11.5 7.25 11.1642 7.25 10.75ZM7.25 8C7.25 8.41421 7.58579 8.75 8 8.75C8.41421 8.75 8.75 8.41421 8.75 8L8.75 5C8.75 4.58579 8.41421 4.25 8 4.25C7.58579 4.25 7.25 4.58579 7.25 5L7.25 8Z" fill="black"/>
</svg>
