<svg width="16" height="16" viewBox="0 0 16 16" fill="none" xmlns="http://www.w3.org/2000/svg"><path d="M8 1C11.866 1 15 4.13401 15 8C15 11.866 11.866 15 8 15C4.13401 15 1 11.866 1 8C1 4.13401 4.13401 1 8 1ZM8 3.25C5.37665 3.25 3.25 5.37665 3.25 8C3.25 10.6234 5.37665 12.75 8 12.75C10.6234 12.75 12.75 10.6234 12.75 8C12.75 5.37665 10.6234 3.25 8 3.25ZM9.70508 10.7656C9.20924 11.072 8.62565 11.25 8 11.25C6.20507 11.25 4.75 9.79493 4.75 8C4.75 7.37424 4.92695 6.78984 5.2334 6.29395L9.70508 10.7656ZM8 4.75C9.79493 4.75 11.25 6.20507 11.25 8C11.25 8.62565 11.072 9.20924 10.7656 9.70508L6.29395 5.2334C6.78984 4.92695 7.37424 4.75 8 4.75Z" fill="currentColor"/></svg>