<svg width="16" height="16" viewBox="0 0 16 16" fill="none" xmlns="http://www.w3.org/2000/svg"><path fill-rule="evenodd" clip-rule="evenodd" d="M8 15C11.866 15 15 11.866 15 8C15 4.13401 11.866 1 8 1C4.13401 1 1 4.13401 1 8C1 11.866 4.13401 15 8 15ZM12.0303 6.53033C12.3232 6.23744 12.3232 5.76256 12.0303 5.46967C11.7374 5.17678 11.2626 5.17678 10.9697 5.46967L7 9.43934L5.53033 7.96967C5.23744 7.67678 4.76256 7.67678 4.46967 7.96967C4.17678 8.26256 4.17678 8.73744 4.46967 9.03033L6.46967 11.0303C6.76256 11.3232 7.23744 11.3232 7.53033 11.0303L12.0303 6.53033Z" fill="currentColor"/></svg>