<svg width="16" height="16" viewBox="0 0 16 16" fill="none" xmlns="http://www.w3.org/2000/svg"><path d="M8 1.25C11.7279 1.25 14.75 4.27208 14.75 8C14.75 11.7279 11.7279 14.75 8 14.75C4.27208 14.75 1.25 11.7279 1.25 8C1.25 4.27208 4.27208 1.25 8 1.25ZM8 2.75C5.10051 2.75 2.75 5.10051 2.75 8C2.75 10.8995 5.10051 13.25 8 13.25C10.8995 13.25 13.25 10.8995 13.25 8C13.25 5.10051 10.8995 2.75 8 2.75ZM8.81055 4.18262C9.10926 4.12494 9.25888 4.188 9.55762 4.31445C10.9927 4.92192 12 6.34353 12 8C12 10.2091 10.2091 12 8 12L7.69238 11.9883C6.16909 11.8724 4.88397 10.9031 4.31445 9.55762C4.188 9.25888 4.12494 9.10926 4.18262 8.81055C4.2227 8.60321 4.43211 8.28765 4.60742 8.16992C4.86015 8.00032 5.10661 8 5.59961 8H8V5.59961C8 5.10661 8.00032 4.86015 8.16992 4.60742C8.28765 4.43211 8.60321 4.2227 8.81055 4.18262Z" fill="currentColor"/></svg>