<svg width="16" height="16" viewBox="0 0 16 16" fill="none" xmlns="http://www.w3.org/2000/svg"><path d="M10.241 1.25C10.481 1.25001 10.7063 1.36536 10.8474 1.55957C10.9885 1.75394 11.0283 2.00405 10.9539 2.23242L10.0505 5.00586H12.9998C13.2785 5.00586 13.5343 5.16046 13.6638 5.40723C13.7933 5.65423 13.7756 5.95328 13.6169 6.18262L7.91089 14.4268L7.2937 13.999V14L7.91089 14.4268C7.7708 14.6291 7.53979 14.75 7.2937 14.75H6.44702C6.21812 14.7499 6.00133 14.6452 5.85913 14.4658C5.71704 14.2865 5.66443 14.0519 5.71655 13.8291L6.72437 9.52832H3.49976C3.26288 9.52823 3.03966 9.41655 2.89819 9.22656C2.75678 9.03636 2.71287 8.78952 2.78101 8.5625L4.81714 1.78418L4.86108 1.66992C4.98527 1.41613 5.24541 1.25016 5.53491 1.25H10.241ZM4.50854 8.02832H7.67065C7.89948 8.02841 8.11634 8.13321 8.25854 8.3125C8.40074 8.49194 8.45238 8.72728 8.40015 8.9502L7.64429 12.1748L11.5681 6.50586H9.01733C8.77736 6.50574 8.55193 6.39045 8.41089 6.19629C8.26989 6.00197 8.2301 5.75173 8.30444 5.52344L9.20776 2.75H6.09351L4.50854 8.02832Z" fill="currentColor"/></svg>