<svg width="16" height="16" viewBox="0 0 16 16" fill="none" xmlns="http://www.w3.org/2000/svg"><path d="M6.60059 2.25781C6.85043 2.29429 7.06825 2.45519 7.1748 2.68945L7.89355 4.27148C8.22582 5.00261 8.32497 5.19491 8.4541 5.32812C8.58735 5.46551 8.75044 5.57033 8.93066 5.63477C9.10536 5.69721 9.32107 5.70801 10.124 5.70801H10.25V3.85742C10.25 3.63861 10.3457 3.43057 10.5117 3.28809L11.5117 2.43066C11.8262 2.16114 12.2997 2.19737 12.5693 2.51172C12.8389 2.82616 12.8026 3.29975 12.4883 3.56934L11.75 4.20215V5.70801H13C13.4142 5.70801 13.75 6.04379 13.75 6.45801V9.35645C14.9039 9.68316 15.75 10.7415 15.75 12C15.75 13.5188 14.5188 14.75 13 14.75C11.4812 14.75 10.25 13.5188 10.25 12C10.25 11.5494 10.3606 11.1253 10.5527 10.75H8.74219C8.61277 12.9808 6.76328 14.75 4.5 14.75C2.15279 14.75 0.25 12.8472 0.25 10.5C0.25 8.97921 1.04911 7.64553 2.25 6.89453V3C2.25 2.58579 2.58579 2.25 3 2.25H6.49219L6.60059 2.25781ZM4.5 7.75C2.98122 7.75 1.75 8.98122 1.75 10.5C1.75 12.0188 2.98122 13.25 4.5 13.25C6.01878 13.25 7.25 12.0188 7.25 10.5C7.25 8.98122 6.01878 7.75 4.5 7.75ZM13 10.75C12.3096 10.75 11.75 11.3096 11.75 12C11.75 12.6904 12.3096 13.25 13 13.25C13.6904 13.25 14.25 12.6904 14.25 12C14.25 11.3096 13.6904 10.75 13 10.75ZM3.75 6.31641C3.99348 6.27305 4.24406 6.25 4.5 6.25C6.41211 6.25 8.02865 7.51293 8.5625 9.25H12.25V7.20801H10.124C9.43464 7.20801 8.90393 7.21873 8.42578 7.04785C8.02904 6.90605 7.67022 6.67456 7.37695 6.37207C7.02349 6.00743 6.81359 5.51933 6.52832 4.8916L6.00977 3.75H3.75V6.31641Z" fill="currentColor"/></svg>