<svg width="16" height="16" viewBox="0 0 16 16" fill="none" xmlns="http://www.w3.org/2000/svg">
<path d="M10.4697 9.4696C10.7626 9.17681 11.2374 9.17677 11.5303 9.4696C11.8231 9.76247 11.8231 10.2373 11.5303 10.5302L8.53027 13.5302C8.38964 13.6708 8.19889 13.7499 8 13.7499C7.80109 13.7499 7.61038 13.6708 7.46973 13.5302L4.46973 10.5302C4.17686 10.2373 4.17684 9.76249 4.46973 9.4696C4.74433 9.19509 5.17908 9.17758 5.47363 9.41785L5.53027 9.4696L8 11.9393L10.4697 9.4696ZM7.52637 2.41785C7.82094 2.17762 8.2557 2.19506 8.53027 2.4696L11.5303 5.4696L11.582 5.52625C11.8223 5.82079 11.8048 6.25554 11.5303 6.53015C11.2557 6.80475 10.8209 6.82221 10.5264 6.58191L10.4697 6.53015L8 4.06042L5.53027 6.53015C5.23738 6.82304 4.76262 6.82304 4.46973 6.53015C4.17687 6.23726 4.17685 5.76249 4.46973 5.4696L7.46973 2.4696L7.52637 2.41785Z" fill="black"/>
</svg>
