<svg width="16" height="16" viewBox="0 0 16 16" fill="none" xmlns="http://www.w3.org/2000/svg">
<path fill-rule="evenodd" clip-rule="evenodd" d="M10.9999 3.25C11.1988 3.25 11.3895 3.32911 11.5302 3.46973L14.5302 6.46973C14.8231 6.76262 14.8231 7.23738 14.5302 7.53027C14.2373 7.82311 13.7625 7.82315 13.4696 7.53027L11.7499 5.81055V13C11.7499 13.4142 11.4141 13.75 10.9999 13.75C10.5857 13.7499 10.2499 13.4142 10.2499 13V5.81055L8.53016 7.53027C8.23726 7.82311 7.76249 7.82315 7.46961 7.53027L5.74989 5.81055V13C5.74989 13.4142 5.4141 13.75 4.99989 13.75C4.58573 13.7499 4.24989 13.4142 4.24989 13V5.81055L2.53016 7.53027C2.23726 7.82311 1.76248 7.82315 1.46961 7.53027C1.1768 7.2374 1.1768 6.76261 1.46961 6.46973L4.46961 3.46973C4.61024 3.3291 4.80101 3.25003 4.99989 3.25C5.19877 3.25 5.38951 3.32911 5.53016 3.46973L7.99989 5.93945L10.4696 3.46973C10.6102 3.3291 10.801 3.25003 10.9999 3.25Z" fill="black"/>
</svg>
