<svg width="16" height="16" viewBox="0 0 16 16" fill="none" xmlns="http://www.w3.org/2000/svg">
<path d="M3 4.25006C3.41418 4.25006 3.74994 4.5859 3.75 5.00006V12.0001C3.75009 12.1381 3.86198 12.2501 4 12.2501H11C11.4142 12.2501 11.7499 12.5859 11.75 13.0001C11.7499 13.4142 11.4142 13.7501 11 13.7501H4C3.03356 13.7501 2.25009 12.9665 2.25 12.0001V5.00006C2.25006 4.5859 2.58582 4.25006 3 4.25006ZM11.3701 3.39752C11.663 3.10463 12.1378 3.10463 12.4307 3.39752C12.7235 3.69042 12.7235 4.1652 12.4307 4.45807L8.71094 8.1778H11.0449C11.4591 8.1778 11.7949 8.51358 11.7949 8.9278C11.7948 9.34193 11.4591 9.6778 11.0449 9.6778H6.90039C6.70153 9.67779 6.51076 9.59866 6.37012 9.45807C6.22951 9.31746 6.15044 9.12664 6.15039 8.9278V4.9278C6.15039 4.5136 6.4862 4.17782 6.90039 4.1778C7.3146 4.1778 7.65039 4.51358 7.65039 4.9278V7.11725L11.3701 3.39752Z" fill="black"/>
</svg>
