<svg width="16" height="16" viewBox="0 0 16 16" fill="none" xmlns="http://www.w3.org/2000/svg">
<path d="M2.9696 3.96979C3.26249 3.6769 3.73726 3.67692 4.03015 3.96979L7.53015 7.46979L7.58191 7.52643C7.82222 7.82101 7.80475 8.25573 7.53015 8.53033L4.03015 12.0303L3.97351 12.0821C3.67893 12.3223 3.24418 12.3049 2.9696 12.0303C2.69506 11.7558 2.67762 11.321 2.91785 11.0264L2.9696 10.9698L5.93933 8.00006L2.9696 5.03033C2.67677 4.73747 2.67681 4.26268 2.9696 3.96979ZM8.9696 3.96979C9.26249 3.6769 9.73726 3.67692 10.0302 3.96979L13.5302 7.46979L13.5819 7.52643C13.8222 7.82101 13.8048 8.25573 13.5302 8.53033L10.0302 12.0303L9.97351 12.0821C9.67893 12.3223 9.24418 12.3049 8.9696 12.0303C8.69506 11.7558 8.67762 11.321 8.91785 11.0264L8.9696 10.9698L11.9393 8.00006L8.9696 5.03033C8.67677 4.73747 8.67681 4.26268 8.9696 3.96979Z" fill="black"/>
</svg>
