<svg width="16" height="16" viewBox="0 0 16 16" fill="none" xmlns="http://www.w3.org/2000/svg">
<path d="M7 2.25C7.41421 2.25 7.75 2.58579 7.75 3C7.75 3.41421 7.41421 3.75 7 3.75H4C3.86193 3.75 3.75 3.86193 3.75 4V12C3.75 12.1381 3.86193 12.25 4 12.25H7C7.41421 12.25 7.75 12.5858 7.75 13C7.75 13.4142 7.41421 13.75 7 13.75H4C3.0335 13.75 2.25 12.9665 2.25 12V4C2.25 3.0335 3.0335 2.25 4 2.25H7ZM10.6104 4.46973C10.9033 4.17699 11.3781 4.17689 11.6709 4.46973L14.6016 7.40039C14.7421 7.54101 14.8213 7.73184 14.8213 7.93066C14.8213 8.1295 14.7421 8.3203 14.6016 8.46094L11.7734 11.2891C11.4806 11.5819 11.0058 11.5818 10.7129 11.2891C10.42 10.9962 10.42 10.5214 10.7129 10.2285L12.2607 8.68066H7C6.58589 8.68054 6.25 8.3448 6.25 7.93066C6.25006 7.51658 6.58593 7.18079 7 7.18066H12.2607L10.6104 5.53027C10.3175 5.23738 10.3175 4.76262 10.6104 4.46973Z" fill="black"/>
</svg>
