<svg width="16" height="16" viewBox="0 0 16 16" fill="none" xmlns="http://www.w3.org/2000/svg">
<path d="M5.46973 3.46979C5.76262 3.17689 6.23738 3.17689 6.53027 3.46979C6.80482 3.74439 6.82232 4.17913 6.58203 4.47369L6.53027 4.53033L4.81055 6.25006H10C11.5188 6.25009 12.75 7.4813 12.75 9.00006V12.0001C12.75 12.4142 12.4142 12.75 12 12.7501C11.5858 12.7501 11.25 12.4142 11.25 12.0001V9.00006C11.25 8.30972 10.6903 7.75009 10 7.75006H4.81055L6.53027 9.46979C6.82311 9.76269 6.82315 10.2375 6.53027 10.5303C6.2374 10.8232 5.76262 10.8232 5.46973 10.5303L2.46973 7.53033C2.17683 7.23744 2.17683 6.76268 2.46973 6.46979L5.46973 3.46979Z" fill="black"/>
</svg>
