<svg width="16" height="16" viewBox="0 0 16 16" fill="none" xmlns="http://www.w3.org/2000/svg">
<path d="M4.59961 4.25C5.01382 4.25 5.34961 4.58579 5.34961 5C5.34961 5.41421 5.01382 5.75 4.59961 5.75H4C3.86193 5.75 3.75 5.86193 3.75 6V12C3.75 12.1381 3.86193 12.25 4 12.25H10C10.1381 12.25 10.25 12.1381 10.25 12V11.4004C10.25 10.9862 10.5858 10.6504 11 10.6504C11.4142 10.6504 11.75 10.9862 11.75 11.4004V12C11.75 12.9665 10.9665 13.75 10 13.75H4C3.0335 13.75 2.25 12.9665 2.25 12V6C2.25 5.0335 3.0335 4.25 4 4.25H4.59961ZM12.9727 2.25C13.1715 2.25 13.3623 2.32911 13.5029 2.46973C13.6436 2.61038 13.7227 2.80109 13.7227 3V7C13.7227 7.41421 13.3869 7.75 12.9727 7.75C12.5585 7.74996 12.2227 7.41419 12.2227 7V4.81055L8.50293 8.53027C8.21003 8.82311 7.73526 8.82315 7.44238 8.53027C7.14956 8.23739 7.14956 7.76261 7.44238 7.46973L11.1621 3.75H8.82812C8.41391 3.75 8.07812 3.41421 8.07812 3C8.07813 2.58579 8.41391 2.25 8.82812 2.25H12.9727Z" fill="black"/>
</svg>
