<svg width="16" height="16" viewBox="0 0 16 16" fill="none" xmlns="http://www.w3.org/2000/svg">
<path d="M9.46973 2.46979C9.76262 2.17691 10.2374 2.1769 10.5303 2.46979L13.5303 5.46979C13.6709 5.61044 13.75 5.80116 13.75 6.00006C13.75 6.19895 13.6709 6.3897 13.5303 6.53033L10.5303 9.53033C10.2374 9.82318 9.76261 9.82317 9.46973 9.53033C9.17685 9.23745 9.17686 8.76268 9.46973 8.46979L11.1895 6.75006H6.5C4.98122 6.75007 3.75 7.98128 3.75 9.50006C3.75004 11.0188 4.98125 12.2501 6.5 12.2501H10C10.4142 12.2501 10.75 12.5858 10.75 13.0001C10.75 13.4142 10.4142 13.7501 10 13.7501H6.5C4.15282 13.7501 2.25004 11.8472 2.25 9.50006C2.25 7.15286 4.15279 5.25007 6.5 5.25006H11.1895L9.46973 3.53033L9.41797 3.47369C9.17766 3.17913 9.19515 2.7444 9.46973 2.46979Z" fill="black"/>
</svg>
