<svg width="16" height="16" viewBox="0 0 16 16" fill="none" xmlns="http://www.w3.org/2000/svg">
<path d="M12 7.25006C12.4142 7.25006 12.75 7.58585 12.75 8.00006C12.75 10.6234 10.6233 12.7501 8 12.7501H6.81055L7.53027 13.4698C7.82312 13.7627 7.82314 14.2375 7.53027 14.5303C7.23739 14.8232 6.76261 14.8232 6.46973 14.5303L4.46973 12.5303C4.32909 12.3897 4.25002 12.199 4.25 12.0001C4.25 11.8012 4.32909 11.6104 4.46973 11.4698L6.46973 9.46979C6.76262 9.17691 7.23738 9.1769 7.53027 9.46979C7.82312 9.76268 7.82314 10.2375 7.53027 10.5303L6.81055 11.2501H8C9.7949 11.2501 11.25 9.79496 11.25 8.00006C11.25 7.58585 11.5858 7.25006 12 7.25006ZM8.46973 1.46979C8.76262 1.1769 9.23738 1.17691 9.53027 1.46979L11.5303 3.46979C11.6709 3.61044 11.75 3.80116 11.75 4.00006C11.75 4.19895 11.6709 4.3897 11.5303 4.53033L9.53027 6.53033C9.23739 6.82317 8.76261 6.82318 8.46973 6.53033C8.17686 6.23745 8.17688 5.76268 8.46973 5.46979L9.18945 4.75006H8L7.83301 4.75397C6.11568 4.84088 4.75 6.26114 4.75 8.00006C4.74997 8.41425 4.41419 8.75006 4 8.75006C3.58581 8.75006 3.25003 8.41425 3.25 8.00006C3.25 5.37671 5.37665 3.25006 8 3.25006H9.18945L8.46973 2.53033C8.17686 2.23745 8.17688 1.76268 8.46973 1.46979Z" fill="black"/>
</svg>
