<svg width="16" height="16" viewBox="0 0 16 16" fill="none" xmlns="http://www.w3.org/2000/svg">
<path d="M9.5 4.25C11.0188 4.24999 12.25 5.48122 12.25 7V9.68945L13.4697 8.46973L13.5264 8.41797C13.8209 8.17766 14.2557 8.19512 14.5303 8.46973C14.8232 8.76262 14.8232 9.23738 14.5303 9.53027L12.0303 12.0303C11.7374 12.3232 11.2626 12.3232 10.9697 12.0303L8.46973 9.53027C8.17684 9.23739 8.17685 8.76262 8.46973 8.46973C8.76262 8.17683 9.23738 8.17683 9.53027 8.46973L10.75 9.68945V7C10.75 6.30965 10.1904 5.75 9.5 5.75H4.5C3.80966 5.75001 3.25001 6.30966 3.25 7V10.5L3.24609 10.5771C3.20746 10.9551 2.88816 11.25 2.5 11.25C2.11184 11.25 1.79253 10.9551 1.75391 10.5771L1.75 10.5V7C1.75001 5.48123 2.98123 4.25001 4.5 4.25H9.5Z" fill="black"/>
</svg>
