<svg width="16" height="16" viewBox="0 0 16 16" fill="none" xmlns="http://www.w3.org/2000/svg">
<path d="M4.46973 7.46973C4.76262 7.17685 5.23738 7.17685 5.53027 7.46973C5.82315 7.76262 5.82315 8.23738 5.53027 8.53027L3.81055 10.25H8C8.4142 10.25 8.74999 10.5858 8.75 11C8.74999 11.4142 8.4142 11.75 8 11.75H3.81055L5.53027 13.4697L5.58203 13.5264C5.82233 13.8209 5.80487 14.2557 5.53027 14.5303C5.23739 14.8232 4.76262 14.8232 4.46973 14.5303L1.46973 11.5303C1.17685 11.2374 1.17684 10.7626 1.46973 10.4697L4.46973 7.46973ZM10.4697 1.46973C10.7626 1.17686 11.2374 1.17684 11.5303 1.46973L14.5303 4.46973C14.8231 4.76261 14.8231 5.23739 14.5303 5.53027L11.5303 8.53027C11.2374 8.82314 10.7626 8.82314 10.4697 8.53027C10.1768 8.23739 10.1768 7.76262 10.4697 7.46973L12.1895 5.75H8C7.58579 5.75 7.25001 5.41421 7.25 5C7.25001 4.58579 7.58579 4.25 8 4.25H12.1895L10.4697 2.53027L10.418 2.47363C10.1776 2.17905 10.1951 1.74433 10.4697 1.46973Z" fill="black"/>
</svg>
