<svg width="16" height="16" viewBox="0 0 16 16" fill="none" xmlns="http://www.w3.org/2000/svg">
<path d="M7.4696 3.46979C7.76249 3.1769 8.23726 3.17692 8.53015 3.46979L11.5302 6.46979C11.823 6.76268 11.823 7.23744 11.5302 7.53033C11.2373 7.82314 10.7625 7.8232 10.4696 7.53033L8.74988 5.81061V12.0001C8.74985 12.4142 8.41407 12.7501 7.99988 12.7501C7.58574 12.75 7.24991 12.4142 7.24988 12.0001V5.81061L5.53015 7.53033L5.47351 7.58209C5.17893 7.82232 4.74418 7.80491 4.4696 7.53033C4.19506 7.25576 4.17762 6.821 4.41785 6.52643L4.4696 6.46979L7.4696 3.46979Z" fill="black"/>
</svg>
