<svg width="16" height="16" viewBox="0 0 16 16" fill="none" xmlns="http://www.w3.org/2000/svg">
<path d="M3 9.25C3.41421 9.25 3.75 9.58579 3.75 10V12C3.75 12.1381 3.86193 12.25 4 12.25H6C6.41421 12.25 6.75 12.5858 6.75 13C6.75 13.4142 6.41421 13.75 6 13.75H4C3.0335 13.75 2.25 12.9665 2.25 12V10C2.25 9.58579 2.58579 9.25 3 9.25ZM13 9.25C13.4142 9.25 13.75 9.58579 13.75 10V12C13.75 12.9665 12.9665 13.75 12 13.75H10C9.58579 13.75 9.25 13.4142 9.25 13C9.25 12.5858 9.58579 12.25 10 12.25H12C12.1381 12.25 12.25 12.1381 12.25 12V10C12.25 9.58579 12.5858 9.25 13 9.25ZM8 5.25C8.4142 5.25002 8.75 5.5858 8.75 6V7.25H10C10.4142 7.25002 10.75 7.5858 10.75 8C10.75 8.4142 10.4142 8.74998 10 8.75H8.75V10C8.75 10.4142 8.4142 10.75 8 10.75C7.5858 10.75 7.25 10.4142 7.25 10V8.75H6L5.92285 8.74609C5.54488 8.70747 5.25 8.38817 5.25 8C5.25 7.61183 5.54488 7.29253 5.92285 7.25391L6 7.25H7.25V6C7.25 5.5858 7.5858 5.25002 8 5.25ZM6 2.25C6.41421 2.25 6.75 2.58579 6.75 3C6.75 3.41421 6.41421 3.75 6 3.75H4C3.86193 3.75 3.75 3.86193 3.75 4V6C3.75 6.41421 3.41421 6.75 3 6.75C2.58579 6.75 2.25 6.41421 2.25 6V4C2.25 3.0335 3.0335 2.25 4 2.25H6ZM12 2.25C12.9665 2.25 13.75 3.0335 13.75 4V6C13.75 6.41421 13.4142 6.75 13 6.75C12.5858 6.75 12.25 6.41421 12.25 6V4C12.25 3.86193 12.1381 3.75 12 3.75H10C9.58579 3.75 9.25 3.41421 9.25 3C9.25 2.58579 9.58579 2.25 10 2.25H12Z" fill="black"/>
</svg>
