<svg width="16" height="16" viewBox="0 0 16 16" fill="none" xmlns="http://www.w3.org/2000/svg"><g clip-path="url(#clip0_386_2366)"><rect width="16" height="16" fill="white"/><path d="M16.75 3.25V16.75H-0.75V3.25H16.75Z" fill="#468AF3" stroke="white" stroke-width="1.5"/><path d="M0 0H16V2.5H0V0Z" fill="#D7D7D7"/><mask id="path-3-outside-1_386_2366" maskUnits="userSpaceOnUse" x="-2" y="6" width="20" height="12" fill="black"><rect fill="white" x="-2" y="6" width="20" height="12"/><path fill-rule="evenodd" clip-rule="evenodd" d="M3 13C3 11.3431 1.65685 10 0 10V8H3H5H11H13H16V10C14.3443 10 13.0018 11.3413 13 12.9966V16H11V13C11 12.9986 11 12.9972 11 12.9957C10.9977 11.3408 9.65543 10 8 10C6.34315 10 5 11.3431 5 13V16H3V13Z"/></mask><path fill-rule="evenodd" clip-rule="evenodd" d="M3 13C3 11.3431 1.65685 10 0 10V8H3H5H11H13H16V10C14.3443 10 13.0018 11.3413 13 12.9966V16H11V13C11 12.9986 11 12.9972 11 12.9957C10.9977 11.3408 9.65543 10 8 10C6.34315 10 5 11.3431 5 13V16H3V13Z" fill="#333333"/><path d="M0 10H-1.5V11.5H0V10ZM0 8V6.5H-1.5V8H0ZM16 8H17.5V6.5H16V8ZM16 10V11.5H17.5V10H16ZM13 12.9966L11.5 12.9949V12.9966H13ZM13 16V17.5H14.5V16H13ZM11 16H9.5V17.5H11V16ZM11 12.9957L12.5 12.9937L12.5 12.9936L11 12.9957ZM5 16V17.5H6.5V16H5ZM3 16H1.5V17.5H3V16ZM0 10V11.5C0.828427 11.5 1.5 12.1716 1.5 13H3H4.5C4.5 10.5147 2.48528 8.5 0 8.5V10ZM0 8H-1.5V10H0H1.5V8H0ZM3 8V6.5H0V8V9.5H3V8ZM5 8V6.5H3V8V9.5H5V8ZM11 8V6.5H5V8V9.5H11V8ZM13 8V6.5H11V8V9.5H13V8ZM16 8V6.5H13V8V9.5H16V8ZM16 10H17.5V8H16H14.5V10H16ZM13 12.9966L14.5 12.9983C14.5009 12.1707 15.1722 11.5 16 11.5V10V8.5C13.5164 8.5 11.5028 10.5119 11.5 12.9949L13 12.9966ZM13 16H14.5V12.9966H13H11.5V16H13ZM11 16V17.5H13V16V14.5H11V16ZM11 13H9.5V16H11H12.5V13H11ZM11 12.9957L9.5 12.9977C9.5 12.9985 9.5 12.9992 9.5 13H11H12.5C12.5 12.9979 12.5 12.9958 12.5 12.9937L11 12.9957ZM8 10V11.5C8.8277 11.5 9.49885 12.1704 9.5 12.9978L11 12.9957L12.5 12.9936C12.4965 10.5113 10.4832 8.5 8 8.5V10ZM5 13H6.5C6.5 12.1716 7.17157 11.5 8 11.5V10V8.5C5.51472 8.5 3.5 10.5147 3.5 13H5ZM5 16H6.5V13H5H3.5V16H5ZM3 16V17.5H5V16V14.5H3V16ZM3 13H1.5V16H3H4.5V13H3Z" fill="white" mask="url(#path-3-outside-1_386_2366)"/></g><defs><clipPath id="clip0_386_2366"><rect width="16" height="16" fill="white"/></clipPath></defs></svg>