<svg width="16" height="16" viewBox="0 0 16 16" fill="none" xmlns="http://www.w3.org/2000/svg"><path d="M15 6.75C15.4142 6.75 15.75 7.08579 15.75 7.5C15.75 7.91421 15.4142 8.25 15 8.25C14.9994 8.25 14.9985 8.2497 14.9971 8.25C14.9952 8.25043 14.9906 8.25234 14.9824 8.25586C14.9639 8.26389 14.9282 8.28379 14.875 8.3291C14.7617 8.42563 14.6226 8.59151 14.4492 8.85254C14.2785 9.10958 14.1016 9.41569 13.8975 9.77148C13.6976 10.12 13.4746 10.5094 13.2275 10.9004C12.2438 12.457 10.7359 14.25 8 14.25C5.26413 14.25 3.75618 12.457 2.77246 10.9004C2.52536 10.5094 2.30245 10.12 2.10254 9.77148C1.89845 9.41569 1.72155 9.10958 1.55078 8.85254C1.37736 8.59151 1.23828 8.42563 1.125 8.3291C1.07181 8.28379 1.03613 8.26389 1.01758 8.25586C1.00942 8.25234 1.00481 8.25043 1.00293 8.25C1.00152 8.2497 1.00059 8.25 1 8.25C0.585786 8.25 0.25 7.91421 0.25 7.5C0.25 7.08579 0.585786 6.75 1 6.75C1.45177 6.75 1.81886 6.94814 2.09863 7.18652C2.37041 7.41811 2.60055 7.72107 2.80078 8.02246C2.99463 8.31426 3.18646 8.64757 3.37695 8.97949C3.71196 9.07742 4.01468 9.193 4.29395 9.30078C4.94293 9.55126 5.47387 9.74997 6.18262 9.75C6.89139 9.74982 7.42299 9.55138 8.07227 9.30078C8.71792 9.05157 9.48353 8.75 10.501 8.75C11.3141 8.75015 11.9658 8.9439 12.5244 9.14844C12.548 9.10724 12.5722 9.06643 12.5957 9.02539C12.7949 8.67821 12.9964 8.32784 13.1992 8.02246C13.3994 7.72107 13.6296 7.41811 13.9014 7.18652C14.1811 6.94814 14.5482 6.75 15 6.75ZM10.501 10.25C9.7922 10.25 9.26128 10.4487 8.6123 10.6992C7.96663 10.9484 7.20014 11.2498 6.18262 11.25C5.61764 11.25 5.13038 11.1556 4.69824 11.0303C5.49994 12.0262 6.50578 12.75 8 12.75C9.76842 12.75 10.8527 11.7363 11.7236 10.457C11.3371 10.3322 10.9558 10.2501 10.501 10.25ZM7.16797 4.39453H7.9082V5H5.47754V4.39453H6.41797V2.05469H6.37305L5.66309 2.98535L5.18262 2.61035L6.01758 1.50977H7.16797V4.39453ZM10.2061 1.50977C10.436 1.50979 10.646 1.5468 10.8359 1.62012C11.0259 1.69345 11.188 1.80356 11.3213 1.9502C11.4545 2.09348 11.5576 2.27528 11.6309 2.49512C11.7042 2.71173 11.7412 2.96498 11.7412 3.25488C11.7412 3.5447 11.7041 3.79963 11.6309 4.01953C11.5575 4.2362 11.4546 4.41876 11.3213 4.56543C11.188 4.70871 11.0258 4.81632 10.8359 4.88965C10.646 4.96296 10.436 4.99998 10.2061 5H8.89062V1.50977H10.2061ZM9.65039 4.3252H10.2061C10.4326 4.32516 10.6112 4.2614 10.7412 4.13477C10.871 4.00814 10.9355 3.80498 10.9355 3.52539V2.98535C10.9355 2.70548 10.8711 2.50168 10.7412 2.375C10.6112 2.24837 10.4326 2.18461 10.2061 2.18457H9.65039V4.3252Z" fill="currentColor"/></svg>