<svg width="16" height="16" viewBox="0 0 16 16" fill="none" xmlns="http://www.w3.org/2000/svg"><path d="M7.25 11.25C8.07843 11.25 8.75 11.9216 8.75 12.75H14C14.4142 12.75 14.75 13.0858 14.75 13.5C14.75 13.9142 14.4142 14.25 14 14.25H8.75C7.92157 14.25 7.25 13.5784 7.25 12.75H2C1.58579 12.75 1.25 12.4142 1.25 12C1.25 11.5858 1.58579 11.25 2 11.25H7.25ZM10 6.75C11.1162 6.75 11.9235 7.45968 12.4805 7.92383C13.1234 8.45958 13.5163 8.75 14 8.75C14.4142 8.75 14.75 9.08579 14.75 9.5C14.75 9.91421 14.4142 10.25 14 10.25C12.8838 10.25 12.0765 9.54032 11.5195 9.07617C10.8766 8.54042 10.4837 8.25 10 8.25C9.51629 8.25 9.12337 8.54042 8.48047 9.07617C7.92349 9.54032 7.11624 10.25 6 10.25C4.88376 10.25 4.07651 9.54032 3.51953 9.07617C2.87662 8.54042 2.48371 8.25 2 8.25C1.58579 8.25 1.25 7.91421 1.25 7.5C1.25 7.08579 1.58579 6.75 2 6.75C3.11624 6.75 3.92349 7.45968 4.48047 7.92383C5.12337 8.45958 5.51629 8.75 6 8.75C6.48371 8.75 6.87663 8.45958 7.51953 7.92383C8.07651 7.45968 8.88376 6.75 10 6.75ZM6.50293 1.4502C6.69288 1.45021 6.86118 1.47695 7.00781 1.53027C7.15444 1.5836 7.27795 1.65669 7.37793 1.75C7.48123 1.84332 7.55996 1.95499 7.61328 2.08496C7.66658 2.21159 7.69238 2.35005 7.69238 2.5C7.69238 2.65 7.66816 2.78682 7.61816 2.91016C7.56821 3.03338 7.49965 3.14985 7.41309 3.25977C7.32975 3.36643 7.2315 3.46876 7.11816 3.56543C7.00483 3.66209 6.88603 3.76035 6.7627 3.86035L6.11328 4.37012H7.7627V5H5.29297V4.31543L6.36816 3.39453C6.46464 3.31135 6.54671 3.23649 6.61328 3.16992C6.67983 3.10002 6.73251 3.03298 6.77246 2.96973C6.81573 2.90316 6.8466 2.83864 6.86328 2.77539C6.88325 2.71215 6.89255 2.64353 6.89258 2.57031V2.5C6.89258 2.43335 6.87919 2.37519 6.85254 2.3252C6.82592 2.27529 6.79127 2.2335 6.74805 2.2002C6.70471 2.16686 6.65432 2.14167 6.59766 2.125C6.54437 2.10836 6.48923 2.09961 6.43262 2.09961C6.34945 2.09963 6.27613 2.11306 6.21289 2.13965C6.15289 2.16632 6.0994 2.20333 6.05273 2.25C6.00942 2.29333 5.97237 2.34529 5.94238 2.40527C5.91251 2.46178 5.88967 2.52341 5.87305 2.58984L5.21777 2.33984C5.25777 2.21989 5.31284 2.10663 5.38281 2C5.4528 1.89003 5.53928 1.79483 5.64258 1.71484C5.74923 1.63152 5.87428 1.5662 6.01758 1.51953C6.16091 1.47286 6.32293 1.4502 6.50293 1.4502ZM10.2061 1.50977C10.436 1.50979 10.646 1.5468 10.8359 1.62012C11.0259 1.69345 11.188 1.80356 11.3213 1.9502C11.4545 2.09348 11.5576 2.27528 11.6309 2.49512C11.7042 2.71173 11.7412 2.96498 11.7412 3.25488C11.7412 3.5447 11.7041 3.79963 11.6309 4.01953C11.5575 4.2362 11.4546 4.41876 11.3213 4.56543C11.188 4.70871 11.0258 4.81632 10.8359 4.88965C10.646 4.96296 10.436 4.99998 10.2061 5H8.89062V1.50977H10.2061ZM9.65039 4.3252H10.2061C10.4326 4.32516 10.6112 4.2614 10.7412 4.13477C10.871 4.00814 10.9355 3.80498 10.9355 3.52539V2.98535C10.9355 2.70548 10.8711 2.50168 10.7412 2.375C10.6112 2.24837 10.4326 2.18461 10.2061 2.18457H9.65039V4.3252Z" fill="currentColor"/></svg>