<svg width="16" height="16" viewBox="0 0 16 16" fill="none" xmlns="http://www.w3.org/2000/svg"><path d="M8 0.75C12.0041 0.75 15.25 3.99594 15.25 8C15.25 12.0041 12.0041 15.25 8 15.25C3.99594 15.25 0.75 12.0041 0.75 8C0.75 3.99594 3.99594 0.75 8 0.75ZM8 2.25C4.82436 2.25 2.25 4.82436 2.25 8C2.25 11.1756 4.82436 13.75 8 13.75C11.1756 13.75 13.75 11.1756 13.75 8C13.75 4.82436 11.1756 2.25 8 2.25ZM5.36914 6.19434C5.36914 5.08353 6.49414 4.36127 7.48242 4.75977L7.67773 4.85449L7.69043 4.86133L7.70312 4.86914L10.8975 6.86426H10.8965C11.3396 7.12723 11.6529 7.57702 11.6318 8.12305C11.6109 8.66279 11.2713 9.0922 10.8379 9.33984L9.25781 10.2422L7.67773 11.1455C6.64903 11.7333 5.36914 10.9905 5.36914 9.80566V6.19434ZM6.89062 6.15723C6.88156 6.16251 6.87559 6.16861 6.87305 6.17285C6.87161 6.17527 6.86914 6.18077 6.86914 6.19434V9.80566C6.86914 9.81922 6.87161 9.82473 6.87305 9.82715C6.87559 9.83139 6.88156 9.83749 6.89062 9.84277C6.89975 9.84807 6.90813 9.84951 6.91309 9.84961C6.91589 9.84966 6.9218 9.84951 6.93359 9.84277L8.51367 8.94043L10.0156 8.08105L6.93359 6.15723L6.91309 6.15039C6.90813 6.15049 6.89975 6.15193 6.89062 6.15723Z" fill="currentColor"/></svg>